<svg width="297" height="350" viewBox="0 0 297 350" fill="none" xmlns="http://www.w3.org/2000/svg">
<rect width="297" height="350" fill="#CBB17A"/>
<g clip-path="url(#clip0_1795_90939)">
<path d="M37.1476 350C36.6725 336.498 37.1265 237.197 41.6656 224.213C45.6663 212.781 53.8684 205.603 64.6039 201.127C81.2191 194.203 98.5416 188.946 114.355 180.131C117.669 178.284 119.253 180.912 121.047 182.411C129.302 189.315 138.57 192.809 149.464 192.682C159.524 192.566 167.8 188.576 175.147 182.327C178.43 179.53 181.027 179.34 184.764 181.482C198.634 189.41 213.751 194.604 228.476 200.61C247.266 208.284 256.207 222.577 258.149 242.074C258.878 249.379 259.585 342.631 259.216 350H37.1476Z" fill="#EDDBBB"/>
<path d="M151.871 40C151.818 42.1007 153.391 41.9001 154.763 42.1429C163.451 43.6207 171.738 46.3125 179.444 50.6088C195.689 59.6554 199.321 69.7153 197.779 87.1539C197.389 91.6192 197.727 96.2533 196.217 100.655C195.858 101.69 195.594 103.421 197.051 103.885C202.519 105.648 201.178 109.786 200.25 113.396C194.877 134.097 188.089 154.153 172.139 169.555C169.764 171.845 167.125 173.967 164.296 175.656C151.206 183.457 142.043 181.684 129.862 173.028C119.306 165.522 112.413 155.029 107.662 143.112C103.947 133.791 99.323 124.807 96.8318 115.022C95.8395 111.106 94.5517 107.02 100.083 105.046C102.194 104.297 101.044 102.471 100.843 100.982C99.6291 92.0414 97.2962 83.2482 99.0908 74.0222C100.336 67.6252 102.025 61.2494 107.483 57.6814C115.421 52.4984 122.282 45.7214 131.012 41.7206C131.466 41.5095 131.593 40.5911 131.867 40.0106C132.564 40.0106 133.271 40.0106 133.968 40.0106C139.235 41.6679 144.492 41.7523 149.76 40.0106H151.861L151.871 40Z" fill="#EDDBBB"/>
</g>
<defs>
<clipPath id="clip0_1795_90939">
<rect width="222.321" height="310" fill="white" transform="translate(37 40)"/>
</clipPath>
</defs>
</svg>
