<svg width="308" height="342" viewBox="0 0 308 342" fill="none" xmlns="http://www.w3.org/2000/svg">
<g style="mix-blend-mode:luminosity">
<g clip-path="url(#clip0_2972_2640)">
<mask id="mask0_2972_2640" style="mask-type:luminance" maskUnits="userSpaceOnUse" x="-579" y="-338" width="1440" height="2041">
<path d="M-579 -337.623L861 -337.623L861 1702.64L-579 1702.64L-579 -337.623Z" fill="white"/>
</mask>
<g mask="url(#mask0_2972_2640)">
<mask id="mask1_2972_2640" style="mask-type:luminance" maskUnits="userSpaceOnUse" x="-577" y="-336" width="1436" height="2037">
<path d="M-576.575 -335.209L858.59 -335.209L858.59 1700.22L-576.575 1700.22L-576.575 -335.209Z" fill="white"/>
</mask>
<g mask="url(#mask1_2972_2640)">
</g>
<path d="M43.8887 367.714L23.3646 321.879L-0.204234 321.879L20.3198 367.714L43.8887 367.714Z" stroke="#D8B97A" stroke-width="2.34748" stroke-linecap="round" stroke-linejoin="round"/>
<path d="M-44.3028 367.714L-23.774 321.879L-0.205078 321.879L-20.7291 367.714L-44.3028 367.714Z" stroke="#D8B97A" stroke-width="2.34748" stroke-linecap="round" stroke-linejoin="round"/>
<path d="M132.098 367.714L111.574 321.879L88.0047 321.879L108.529 367.714L132.098 367.714Z" stroke="#D8B97A" stroke-width="2.34748" stroke-linecap="round" stroke-linejoin="round"/>
<path d="M43.9062 367.714L64.435 321.879L88.0039 321.879L67.4799 367.714L43.9062 367.714Z" stroke="#D8B97A" stroke-width="2.34748" stroke-linecap="round" stroke-linejoin="round"/>
<path d="M220.307 367.714L199.783 321.879L176.214 321.879L196.738 367.714L220.307 367.714Z" stroke="#D8B97A" stroke-width="2.34748" stroke-linecap="round" stroke-linejoin="round"/>
<path d="M132.117 367.714L152.646 321.879L176.215 321.879L155.691 367.714L132.117 367.714Z" stroke="#D8B97A" stroke-width="2.34748" stroke-linecap="round" stroke-linejoin="round"/>
<path d="M308.518 367.714L287.994 321.879L264.425 321.879L284.949 367.714L308.518 367.714Z" stroke="#D8B97A" stroke-width="2.34748" stroke-linecap="round" stroke-linejoin="round"/>
<path d="M220.326 367.714L240.855 321.879L264.424 321.879L243.895 367.714L220.326 367.714Z" stroke="#D8B97A" stroke-width="2.34748" stroke-linecap="round" stroke-linejoin="round"/>
<path d="M308.535 367.714L329.064 321.879L352.633 321.879L332.104 367.714L308.535 367.714Z" stroke="#D8B97A" stroke-width="2.34748" stroke-linecap="round" stroke-linejoin="round"/>
<mask id="mask2_2972_2640" style="mask-type:luminance" maskUnits="userSpaceOnUse" x="-577" y="-336" width="1436" height="2037">
<path d="M-576.575 -335.209L858.59 -335.209L858.59 1700.22L-576.575 1700.22L-576.575 -335.209Z" fill="white"/>
</mask>
<g mask="url(#mask2_2972_2640)">
</g>
<path d="M-44.298 276.023L-23.774 321.859L-0.205074 321.859L-20.7291 276.023L-44.298 276.023Z" stroke="#D8B97A" stroke-width="2.34748" stroke-linecap="round" stroke-linejoin="round"/>
<path d="M-44.298 276.025L-23.774 230.189L-0.205078 230.189L-20.7291 276.025L-44.298 276.025Z" stroke="#D8B97A" stroke-width="2.34748" stroke-linecap="round" stroke-linejoin="round"/>
<path d="M43.8926 276.023L23.3638 321.859L-0.205116 321.859L20.3189 276.023L43.8926 276.023Z" stroke="#D8B97A" stroke-width="2.34748" stroke-linecap="round" stroke-linejoin="round"/>
<path d="M43.8926 276.025L23.3638 230.189L-0.20512 230.189L20.3189 276.025L43.8926 276.025Z" stroke="#D8B97A" stroke-width="2.34748" stroke-linecap="round" stroke-linejoin="round"/>
<path d="M43.9051 276.023L64.434 321.859L87.9981 321.859L67.4788 276.023L43.9051 276.023Z" stroke="#D8B97A" stroke-width="2.34748" stroke-linecap="round" stroke-linejoin="round"/>
<path d="M43.9051 276.025L64.434 230.189L87.998 230.189L67.4788 276.025L43.9051 276.025Z" stroke="#D8B97A" stroke-width="2.34748" stroke-linecap="round" stroke-linejoin="round"/>
<path d="M132.098 276.023L111.574 321.859L88.0048 321.859L108.529 276.023L132.098 276.023Z" stroke="#D8B97A" stroke-width="2.34748" stroke-linecap="round" stroke-linejoin="round"/>
<path d="M132.098 276.025L111.574 230.189L88.0047 230.189L108.529 276.025L132.098 276.025Z" stroke="#D8B97A" stroke-width="2.34748" stroke-linecap="round" stroke-linejoin="round"/>
<path d="M132.117 276.023L152.646 321.859L176.215 321.859L155.691 276.023L132.117 276.023Z" stroke="#D8B97A" stroke-width="2.34748" stroke-linecap="round" stroke-linejoin="round"/>
<path d="M132.115 276.025L152.644 230.189L176.213 230.189L155.689 276.025L132.115 276.025Z" stroke="#D8B97A" stroke-width="2.34748" stroke-linecap="round" stroke-linejoin="round"/>
<path d="M220.307 276.023L199.783 321.859L176.214 321.859L196.738 276.023L220.307 276.023Z" stroke="#D8B97A" stroke-width="2.34748" stroke-linecap="round" stroke-linejoin="round"/>
<path d="M220.307 276.025L199.783 230.189L176.214 230.189L196.738 276.025L220.307 276.025Z" stroke="#D8B97A" stroke-width="2.34748" stroke-linecap="round" stroke-linejoin="round"/>
<path d="M220.326 276.023L240.855 321.859L264.424 321.859L243.9 276.023L220.326 276.023Z" stroke="#D8B97A" stroke-width="2.34748" stroke-linecap="round" stroke-linejoin="round"/>
<path d="M220.326 276.025L240.855 230.189L264.424 230.189L243.9 276.025L220.326 276.025Z" stroke="#D8B97A" stroke-width="2.34748" stroke-linecap="round" stroke-linejoin="round"/>
<path d="M308.518 276.023L287.994 321.859L264.425 321.859L284.949 276.023L308.518 276.023Z" stroke="#D8B97A" stroke-width="2.34748" stroke-linecap="round" stroke-linejoin="round"/>
<path d="M308.518 276.025L287.994 230.189L264.425 230.189L284.949 276.025L308.518 276.025Z" stroke="#D8B97A" stroke-width="2.34748" stroke-linecap="round" stroke-linejoin="round"/>
<path d="M308.536 276.023L329.065 321.859L352.629 321.859L332.105 276.023L308.536 276.023Z" stroke="#D8B97A" stroke-width="2.34748" stroke-linecap="round" stroke-linejoin="round"/>
<path d="M308.534 276.025L329.063 230.189L352.627 230.189L332.103 276.025L308.534 276.025Z" stroke="#D8B97A" stroke-width="2.34748" stroke-linecap="round" stroke-linejoin="round"/>
<mask id="mask3_2972_2640" style="mask-type:luminance" maskUnits="userSpaceOnUse" x="-577" y="-336" width="1436" height="2037">
<path d="M-576.575 -335.209L858.59 -335.209L858.59 1700.22L-576.575 1700.22L-576.575 -335.209Z" fill="white"/>
</mask>
<g mask="url(#mask3_2972_2640)">
</g>
<path d="M43.8887 184.334L23.3646 230.17L-0.20423 230.17L20.3198 184.334L43.8887 184.334Z" stroke="#D8B97A" stroke-width="2.34748" stroke-linecap="round" stroke-linejoin="round"/>
<path d="M43.8887 184.336L23.3646 138.5L-0.204234 138.5L20.3198 184.336L43.8887 184.336Z" stroke="#D8B97A" stroke-width="2.34748" stroke-linecap="round" stroke-linejoin="round"/>
<path d="M-44.3028 184.334L-23.774 230.17L-0.205074 230.17L-20.7291 184.334L-44.3028 184.334Z" stroke="#D8B97A" stroke-width="2.34748" stroke-linecap="round" stroke-linejoin="round"/>
<path d="M-44.3028 184.336L-23.774 138.5L-0.205078 138.5L-20.7291 184.336L-44.3028 184.336Z" stroke="#D8B97A" stroke-width="2.34748" stroke-linecap="round" stroke-linejoin="round"/>
<path d="M132.098 184.334L111.574 230.17L88.0048 230.17L108.529 184.334L132.098 184.334Z" stroke="#D8B97A" stroke-width="2.34748" stroke-linecap="round" stroke-linejoin="round"/>
<path d="M132.098 184.336L111.574 138.5L88.0047 138.5L108.529 184.336L132.098 184.336Z" stroke="#D8B97A" stroke-width="2.34748" stroke-linecap="round" stroke-linejoin="round"/>
<path d="M43.9062 184.334L64.435 230.17L88.0039 230.17L67.4799 184.334L43.9062 184.334Z" stroke="#D8B97A" stroke-width="2.34748" stroke-linecap="round" stroke-linejoin="round"/>
<path d="M43.9062 184.336L64.435 138.5L88.0039 138.5L67.4799 184.336L43.9062 184.336Z" stroke="#D8B97A" stroke-width="2.34748" stroke-linecap="round" stroke-linejoin="round"/>
<path d="M220.307 184.334L199.783 230.17L176.214 230.17L196.738 184.334L220.307 184.334Z" stroke="#D8B97A" stroke-width="2.34748" stroke-linecap="round" stroke-linejoin="round"/>
<path d="M220.307 184.336L199.783 138.5L176.214 138.5L196.738 184.336L220.307 184.336Z" stroke="#D8B97A" stroke-width="2.34748" stroke-linecap="round" stroke-linejoin="round"/>
<path d="M132.117 184.334L152.646 230.17L176.215 230.17L155.691 184.334L132.117 184.334Z" stroke="#D8B97A" stroke-width="2.34748" stroke-linecap="round" stroke-linejoin="round"/>
<path d="M132.117 184.336L152.646 138.5L176.215 138.5L155.691 184.336L132.117 184.336Z" stroke="#D8B97A" stroke-width="2.34748" stroke-linecap="round" stroke-linejoin="round"/>
<path d="M308.518 184.334L287.994 230.17L264.425 230.17L284.949 184.334L308.518 184.334Z" stroke="#D8B97A" stroke-width="2.34748" stroke-linecap="round" stroke-linejoin="round"/>
<path d="M308.518 184.336L287.994 138.5L264.425 138.5L284.949 184.336L308.518 184.336Z" stroke="#D8B97A" stroke-width="2.34748" stroke-linecap="round" stroke-linejoin="round"/>
<path d="M220.326 184.334L240.855 230.17L264.424 230.17L243.895 184.334L220.326 184.334Z" stroke="#D8B97A" stroke-width="2.34748" stroke-linecap="round" stroke-linejoin="round"/>
<path d="M220.326 184.336L240.855 138.5L264.424 138.5L243.895 184.336L220.326 184.336Z" stroke="#D8B97A" stroke-width="2.34748" stroke-linecap="round" stroke-linejoin="round"/>
<path d="M308.535 184.334L329.064 230.17L352.633 230.17L332.104 184.334L308.535 184.334Z" stroke="#D8B97A" stroke-width="2.34748" stroke-linecap="round" stroke-linejoin="round"/>
<path d="M308.535 184.336L329.064 138.5L352.633 138.5L332.104 184.336L308.535 184.336Z" stroke="#D8B97A" stroke-width="2.34748" stroke-linecap="round" stroke-linejoin="round"/>
<mask id="mask4_2972_2640" style="mask-type:luminance" maskUnits="userSpaceOnUse" x="-577" y="-336" width="1436" height="2037">
<path d="M-576.575 -335.209L858.59 -335.209L858.59 1700.22L-576.575 1700.22L-576.575 -335.209Z" fill="white"/>
</mask>
<g mask="url(#mask4_2972_2640)">
</g>
<path d="M-44.298 92.6445L-23.774 138.48L-0.205074 138.48L-20.7291 92.6445L-44.298 92.6445Z" stroke="#D8B97A" stroke-width="2.34748" stroke-linecap="round" stroke-linejoin="round"/>
<path d="M-44.298 92.6433L-23.774 46.8125L-0.205078 46.8125L-20.7291 92.6433L-44.298 92.6433Z" stroke="#D8B97A" stroke-width="2.34748" stroke-linecap="round" stroke-linejoin="round"/>
<path d="M43.8926 92.6445L23.3638 138.48L-0.205116 138.48L20.3189 92.6445L43.8926 92.6445Z" stroke="#D8B97A" stroke-width="2.34748" stroke-linecap="round" stroke-linejoin="round"/>
<path d="M43.8926 92.6433L23.3638 46.8125L-0.20512 46.8125L20.3189 92.6433L43.8926 92.6433Z" stroke="#D8B97A" stroke-width="2.34748" stroke-linecap="round" stroke-linejoin="round"/>
<path d="M43.9051 92.6445L64.434 138.48L87.9981 138.48L67.4788 92.6445L43.9051 92.6445Z" stroke="#D8B97A" stroke-width="2.34748" stroke-linecap="round" stroke-linejoin="round"/>
<path d="M43.9051 92.6433L64.434 46.8125L87.998 46.8125L67.4788 92.6433L43.9051 92.6433Z" stroke="#D8B97A" stroke-width="2.34748" stroke-linecap="round" stroke-linejoin="round"/>
<path d="M132.098 92.6445L111.574 138.48L88.0048 138.48L108.529 92.6445L132.098 92.6445Z" stroke="#D8B97A" stroke-width="2.34748" stroke-linecap="round" stroke-linejoin="round"/>
<path d="M132.098 92.6433L111.574 46.8125L88.0047 46.8125L108.529 92.6433L132.098 92.6433Z" stroke="#D8B97A" stroke-width="2.34748" stroke-linecap="round" stroke-linejoin="round"/>
<path d="M132.117 92.6445L152.646 138.48L176.215 138.48L155.691 92.6445L132.117 92.6445Z" stroke="#D8B97A" stroke-width="2.34748" stroke-linecap="round" stroke-linejoin="round"/>
<path d="M132.117 92.6433L152.646 46.8125L176.215 46.8125L155.691 92.6433L132.117 92.6433Z" stroke="#D8B97A" stroke-width="2.34748" stroke-linecap="round" stroke-linejoin="round"/>
<path d="M220.307 92.6445L199.783 138.48L176.214 138.48L196.738 92.6445L220.307 92.6445Z" stroke="#D8B97A" stroke-width="2.34748" stroke-linecap="round" stroke-linejoin="round"/>
<path d="M220.307 92.6433L199.783 46.8125L176.214 46.8125L196.738 92.6433L220.307 92.6433Z" stroke="#D8B97A" stroke-width="2.34748" stroke-linecap="round" stroke-linejoin="round"/>
<path d="M220.326 92.6445L240.855 138.48L264.424 138.48L243.9 92.6445L220.326 92.6445Z" stroke="#D8B97A" stroke-width="2.34748" stroke-linecap="round" stroke-linejoin="round"/>
<path d="M220.326 92.6433L240.855 46.8125L264.424 46.8125L243.9 92.6433L220.326 92.6433Z" stroke="#D8B97A" stroke-width="2.34748" stroke-linecap="round" stroke-linejoin="round"/>
<path d="M308.518 92.6445L287.994 138.48L264.425 138.48L284.949 92.6445L308.518 92.6445Z" stroke="#D8B97A" stroke-width="2.34748" stroke-linecap="round" stroke-linejoin="round"/>
<path d="M308.518 92.6433L287.994 46.8125L264.425 46.8125L284.949 92.6433L308.518 92.6433Z" stroke="#D8B97A" stroke-width="2.34748" stroke-linecap="round" stroke-linejoin="round"/>
<path d="M308.536 92.6445L329.065 138.48L352.629 138.48L332.105 92.6445L308.536 92.6445Z" stroke="#D8B97A" stroke-width="2.34748" stroke-linecap="round" stroke-linejoin="round"/>
<path d="M308.536 92.6433L329.065 46.8125L352.629 46.8125L332.105 92.6433L308.536 92.6433Z" stroke="#D8B97A" stroke-width="2.34748" stroke-linecap="round" stroke-linejoin="round"/>
<mask id="mask5_2972_2640" style="mask-type:luminance" maskUnits="userSpaceOnUse" x="-577" y="-336" width="1436" height="2037">
<path d="M-576.575 -335.209L858.59 -335.209L858.59 1700.22L-576.575 1700.22L-576.575 -335.209Z" fill="white"/>
</mask>
<g mask="url(#mask5_2972_2640)">
</g>
<path d="M43.8887 0.958984L23.3646 46.7898L-0.20423 46.7898L20.3198 0.958986L43.8887 0.958984Z" stroke="#D8B97A" stroke-width="2.34748" stroke-linecap="round" stroke-linejoin="round"/>
<path d="M43.8887 0.958615L23.3646 -44.877L-0.204234 -44.8769L20.3198 0.958617L43.8887 0.958615Z" stroke="#D8B97A" stroke-width="2.34748" stroke-linecap="round" stroke-linejoin="round"/>
<path d="M-44.3028 0.958988L-23.774 46.7898L-0.205074 46.7898L-20.7291 0.958986L-44.3028 0.958988Z" stroke="#D8B97A" stroke-width="2.34748" stroke-linecap="round" stroke-linejoin="round"/>
<path d="M-44.3028 0.958619L-23.774 -44.877L-0.205078 -44.877L-20.7291 0.958617L-44.3028 0.958619Z" stroke="#D8B97A" stroke-width="2.34748" stroke-linecap="round" stroke-linejoin="round"/>
<path d="M132.098 0.958984L111.574 46.7898L88.0048 46.7898L108.529 0.958986L132.098 0.958984Z" stroke="#D8B97A" stroke-width="2.34748" stroke-linecap="round" stroke-linejoin="round"/>
<path d="M132.098 0.958615L111.574 -44.877L88.0047 -44.8769L108.529 0.958617L132.098 0.958615Z" stroke="#D8B97A" stroke-width="2.34748" stroke-linecap="round" stroke-linejoin="round"/>
<path d="M43.9062 0.958988L64.435 46.7898L88.0039 46.7898L67.4799 0.958986L43.9062 0.958988Z" stroke="#D8B97A" stroke-width="2.34748" stroke-linecap="round" stroke-linejoin="round"/>
<path d="M43.9062 0.958619L64.435 -44.877L88.0039 -44.877L67.4799 0.958617L43.9062 0.958619Z" stroke="#D8B97A" stroke-width="2.34748" stroke-linecap="round" stroke-linejoin="round"/>
<path d="M220.307 0.958984L199.783 46.7898L176.214 46.7898L196.738 0.958986L220.307 0.958984Z" stroke="#D8B97A" stroke-width="2.34748" stroke-linecap="round" stroke-linejoin="round"/>
<path d="M220.307 0.958615L199.783 -44.877L176.214 -44.8769L196.738 0.958617L220.307 0.958615Z" stroke="#D8B97A" stroke-width="2.34748" stroke-linecap="round" stroke-linejoin="round"/>
<path d="M132.117 0.958988L152.646 46.7898L176.215 46.7898L155.691 0.958986L132.117 0.958988Z" stroke="#D8B97A" stroke-width="2.34748" stroke-linecap="round" stroke-linejoin="round"/>
<path d="M132.117 0.958619L152.646 -44.877L176.215 -44.877L155.691 0.958617L132.117 0.958619Z" stroke="#D8B97A" stroke-width="2.34748" stroke-linecap="round" stroke-linejoin="round"/>
<path d="M308.518 0.958984L287.994 46.7898L264.425 46.7898L284.949 0.958986L308.518 0.958984Z" stroke="#D8B97A" stroke-width="2.34748" stroke-linecap="round" stroke-linejoin="round"/>
<path d="M308.518 0.958615L287.994 -44.877L264.425 -44.8769L284.949 0.958617L308.518 0.958615Z" stroke="#D8B97A" stroke-width="2.34748" stroke-linecap="round" stroke-linejoin="round"/>
<path d="M220.326 0.958988L240.855 46.7898L264.424 46.7898L243.895 0.958986L220.326 0.958988Z" stroke="#D8B97A" stroke-width="2.34748" stroke-linecap="round" stroke-linejoin="round"/>
<path d="M220.326 0.958619L240.855 -44.877L264.424 -44.877L243.895 0.958617L220.326 0.958619Z" stroke="#D8B97A" stroke-width="2.34748" stroke-linecap="round" stroke-linejoin="round"/>
<path d="M308.535 0.958988L329.064 46.7898L352.633 46.7898L332.104 0.958986L308.535 0.958988Z" stroke="#D8B97A" stroke-width="2.34748" stroke-linecap="round" stroke-linejoin="round"/>
<path d="M308.535 0.958619L329.064 -44.877L352.633 -44.877L332.104 0.958617L308.535 0.958619Z" stroke="#D8B97A" stroke-width="2.34748" stroke-linecap="round" stroke-linejoin="round"/>
<mask id="mask6_2972_2640" style="mask-type:luminance" maskUnits="userSpaceOnUse" x="-577" y="-336" width="1436" height="2037">
<path d="M-576.575 -335.209L858.59 -335.209L858.59 1700.22L-576.575 1700.22L-576.575 -335.209Z" fill="white"/>
</mask>
<g mask="url(#mask6_2972_2640)">
</g>
</g>
</g>
</g>
<defs>
<clipPath id="clip0_2972_2640">
<rect width="308" height="341.455" fill="white" transform="matrix(-1 8.74228e-08 8.74228e-08 1 308 0)"/>
</clipPath>
</defs>
</svg>
