<svg width="160" height="50" viewBox="0 0 160 50" fill="none" xmlns="http://www.w3.org/2000/svg">
<path d="M13.0121 46.535C12.3485 46.6824 11.6788 46.7561 11.0153 46.7561C9.16593 46.7561 7.49477 46.0066 6.00178 44.5013C4.47192 42.9592 3.71007 41.1774 3.71007 39.156C3.71007 37.1347 4.35519 35.4942 5.65157 34.0627C6.94181 32.6311 8.5331 31.8262 10.4193 31.6419C10.4746 31.6419 10.5729 31.6296 10.7142 31.6051H11.1627C11.8078 31.6051 12.4345 31.6727 13.0489 31.8017C13.6633 31.9368 14.1917 32.1089 14.6279 32.3301L15.525 32.7601V28.7112C15.3775 28.7604 15.2239 28.8034 15.0703 28.8464C14.9167 28.8956 14.7693 28.9017 14.6279 28.8833C13.6879 28.6867 13.1718 28.5822 13.0919 28.5761C12.2441 28.4409 11.4023 28.3672 10.5729 28.3672C9.33182 28.3672 8.13374 28.6191 6.97253 29.1229C6.00792 29.5468 5.06175 30.1551 4.12786 30.9477C2.92364 31.9921 1.99589 33.2271 1.35078 34.6525C0.705657 36.0779 0.386169 37.5525 0.386169 39.0823C0.386169 40.2558 0.576633 41.4109 0.963704 42.5475C1.35078 43.6841 1.92217 44.7286 2.67788 45.6871C3.72236 47.0081 4.92658 48.0218 6.27826 48.7222C7.55621 49.3796 9.01233 49.7913 10.6589 49.9633C10.7142 49.9633 10.8125 49.9756 10.9538 50.0002H11.2487C11.6297 50.0002 12.1458 49.9449 12.797 49.8343C13.4544 49.7237 14.1241 49.5824 14.8123 49.4104C14.929 49.3858 15.0519 49.4103 15.1932 49.4779C15.2608 49.5148 15.3836 49.5763 15.5557 49.6684V45.4966L14.5726 46.0127C14.204 46.2093 13.6879 46.3814 13.0244 46.5288" fill="#545554"/>
<path d="M22.6569 35.2372C22.3067 35.2986 21.8521 35.3846 21.2868 35.4891C20.5864 35.7287 20.0089 36.0727 19.5604 36.5212C18.9644 37.1172 18.5466 37.492 18.3193 37.6395C18.2025 37.7193 18.0674 37.7746 17.9076 37.8115C17.7479 37.8484 17.6434 37.8668 17.5943 37.8791C17.6373 37.959 17.6742 38.0388 17.6987 38.1187C17.711 38.174 17.7233 38.2354 17.7356 38.2907C17.7602 38.3706 17.7848 38.4505 17.8032 38.5303C17.8155 38.5856 17.8216 38.6655 17.8216 38.7699V47.9184C17.8216 48.3669 17.7725 48.7232 17.6865 48.9874L17.41 49.5219H21.3237C21.207 49.3622 21.1209 49.1963 21.0534 49.0243C20.9919 48.8522 20.9489 48.6802 20.9305 48.5082C20.912 48.3361 20.9059 48.1395 20.9059 47.9184V39.2185L21.2131 38.9051C21.5817 38.5365 22.018 38.2969 22.5218 38.1801C22.743 38.1371 22.9396 38.1125 23.1239 38.1125C23.2283 38.1125 23.3819 38.1248 23.5785 38.1556C23.7813 38.1863 23.9287 38.1986 24.0209 38.1986V34.6289C23.812 34.7764 23.6215 34.8992 23.4434 34.9914C23.2652 35.0836 23.001 35.1634 22.6508 35.2249" fill="#545554"/>
<path d="M40.9674 42.9521C40.8384 41.797 40.7708 41.1765 40.7585 41.0966C40.6295 40.3163 40.4268 39.6282 40.138 39.0322C39.4744 37.6436 38.473 36.593 37.1397 35.8865C35.9416 35.2413 34.5838 34.9219 33.054 34.9219C31.8375 34.9219 30.664 35.2413 29.5457 35.8865C28.4275 36.5316 27.5305 37.4163 26.867 38.5407C26.1543 39.7572 25.7979 41.0536 25.7979 42.4298C25.7979 43.4067 25.9884 44.359 26.3754 45.2868C26.7625 46.2145 27.3155 47.0317 28.0466 47.7382C28.7777 48.4448 29.6072 48.9916 30.5349 49.3848C31.4627 49.7719 32.4703 49.9685 33.5516 49.9685C33.951 49.9685 34.4855 49.9071 35.1429 49.778C35.8065 49.649 36.5315 49.4954 37.324 49.3111C37.4285 49.2988 37.5637 49.3295 37.7295 49.4032C37.8954 49.477 38.006 49.52 38.0675 49.5323V45.637L37.5329 46.0302C37.0967 46.3497 36.599 46.6139 36.0338 46.8289C35.3457 47.0931 34.6698 47.2221 34.0186 47.2221C33.9141 47.2221 33.8158 47.2221 33.7175 47.216C33.6192 47.216 33.5209 47.2037 33.4165 47.1914C32.4273 47.0562 31.5978 46.7798 30.9159 46.362C30.1479 45.8828 29.5888 45.2131 29.2447 44.3652L28.9682 43.6771H41.1026L40.9674 42.9521ZM28.9375 40.9307L29.1771 40.3839C29.4905 39.6773 29.9943 39.0568 30.6947 38.5345C31.475 37.9508 32.3167 37.6621 33.2137 37.6621C34.1783 37.6621 35.0753 37.914 35.9109 38.4178C36.7465 38.9216 37.2872 39.5299 37.5391 40.2549L37.7971 40.943H28.9375V40.9307Z" fill="#545554"/>
<path d="M57.1206 46.1224C57.0961 46.0302 57.0838 45.9381 57.0838 45.8459V28.7656H53.6861C53.723 28.8148 53.766 28.8701 53.8152 28.9377C53.8643 29.0052 53.9073 29.1097 53.9442 29.2449C53.9811 29.3862 53.9933 29.5521 53.9933 29.7425V36.0708L53.6493 35.8619C53.1639 35.5855 52.5987 35.3643 51.9413 35.1984C51.2839 35.0325 50.6019 34.9465 49.8892 34.9465C47.9354 34.9465 46.2949 35.696 44.9678 37.1952C43.6407 38.6943 42.9772 40.4761 42.9772 42.5282C42.9772 44.5803 43.739 46.3497 45.2689 47.8181C46.7496 49.2436 48.4945 49.9562 50.4913 49.9562C51.419 49.9562 52.2423 49.8211 52.955 49.5569C53.5203 49.348 54.1224 49.0101 54.7675 48.5431C54.8044 48.5186 55.3266 48.1008 56.3342 47.2836C56.4817 47.1669 56.6537 47.0809 56.8503 47.0256C57.01 47.001 57.1759 46.9764 57.348 46.9396L57.1759 46.3866C57.1514 46.2944 57.1268 46.2023 57.1084 46.1101M53.9872 45.4711L53.3482 46.0548C52.9427 46.4112 52.4574 46.6631 51.886 46.8105C51.3084 46.958 50.6817 47.0317 49.9875 47.0317C48.814 46.9273 47.8494 46.4296 47.0936 45.5326C46.3379 44.6356 45.957 43.5604 45.957 42.307C45.957 41.0536 46.3809 39.9538 47.2227 39.0752C48.0644 38.1967 49.115 37.7543 50.3684 37.7543C50.9766 37.7543 51.5911 37.8833 52.2055 38.1352C52.8198 38.3871 53.2745 38.6882 53.5756 39.0322L53.9872 39.5176V45.465V45.4711Z" fill="#545554"/>
<path d="M63.1589 48.5197C63.1404 48.3477 63.1343 48.1511 63.1343 47.9299V35.4023H59.6506C59.7612 35.4822 59.8534 35.5928 59.9333 35.7403C60.0131 35.8816 60.05 36.0167 60.05 36.1273V47.9299C60.05 48.1143 60.0377 48.3109 60.0131 48.5259C59.9886 48.7409 59.9578 48.8945 59.9087 48.999L59.6322 49.5335H63.5275L63.2633 48.999C63.208 48.8515 63.1711 48.6856 63.1589 48.5136" fill="#545554"/>
<path d="M61.5868 29.9202C61.0585 29.9202 60.6038 30.1168 60.2229 30.5039C59.842 30.8971 59.6515 31.3518 59.6515 31.8801C59.6515 32.4085 59.842 32.8202 60.229 33.1827C60.6161 33.5452 61.0646 33.7233 61.5807 33.7233C62.0968 33.7233 62.5637 33.5452 62.9508 33.1827C63.3379 32.8202 63.5284 32.384 63.5284 31.8801C63.5284 31.3272 63.3379 30.8664 62.957 30.4855C62.576 30.1045 62.1152 29.9141 61.5807 29.9141" fill="#545554"/>
<path d="M71.4221 31.0513L66.0093 38.1047H68.3379V47.9289C68.3379 48.1132 68.3256 48.3098 68.301 48.5249C68.2764 48.7399 68.2457 48.8935 68.1965 48.9979L67.9201 49.5325H71.8338L71.5573 48.9979C71.502 48.8505 71.4651 48.6846 71.4467 48.5126C71.4283 48.3405 71.4221 48.1439 71.4221 47.9227V38.0985H73.3022C73.3698 38.1108 73.4497 38.1169 73.5418 38.1231C73.634 38.1231 73.72 38.1415 73.806 38.1599C73.892 38.1784 73.9842 38.2091 74.0702 38.2521C74.1624 38.3013 74.2422 38.332 74.3098 38.3566V35.389H71.416V31.0391L71.4221 31.0513Z" fill="#545554"/>
<path d="M127.056 48.5186C127.038 48.3465 127.032 48.1499 127.032 47.9287V41.6803C127.032 40.8632 126.989 40.2119 126.909 39.7327C126.792 39.02 126.565 38.3748 126.221 37.7973C125.692 36.9003 124.998 36.1999 124.138 35.6899C123.222 35.1492 122.202 34.8789 121.09 34.8789C120.218 34.8789 119.444 34.9956 118.774 35.2352C118.104 35.4687 117.508 35.8128 116.992 36.2613L116.009 37.103L115.426 36.4149C115.112 36.0463 114.774 35.7575 114.412 35.5547C113.711 35.1554 112.87 34.9526 111.881 34.9526C110.517 34.9526 109.269 35.3028 108.145 36.0032C107.402 36.5562 106.652 37.1092 105.909 37.6621C105.78 37.742 105.595 37.8096 105.356 37.871C105.116 37.9263 104.981 37.9632 104.956 37.9755L105.233 38.51C105.27 38.5899 105.3 38.6697 105.337 38.7496C105.374 38.8295 105.386 38.9094 105.386 38.9892V47.9287C105.386 48.1131 105.374 48.3097 105.349 48.5247C105.325 48.7397 105.294 48.8933 105.245 48.9978L104.969 49.5323H108.882L108.606 48.9978C108.55 48.8503 108.514 48.6845 108.495 48.5124C108.477 48.3404 108.471 48.1438 108.471 47.9226V39.1858L108.784 38.9094C109.275 38.4854 109.675 38.2028 109.976 38.0615C110.369 37.8772 110.836 37.785 111.389 37.785C112.261 37.785 113.029 38.0984 113.681 38.7189C114.105 39.1305 114.4 39.5668 114.559 40.0153C114.719 40.4638 114.799 41.0106 114.799 41.6557V47.9226C114.799 48.1069 114.787 48.3035 114.762 48.5186C114.737 48.7336 114.701 48.9118 114.651 49.0531C114.602 49.1944 114.516 49.3541 114.4 49.5262H118.276C118.16 49.3541 118.074 49.1821 118.018 49.0162C117.963 48.8503 117.926 48.6783 117.908 48.5063C117.889 48.3342 117.883 48.1376 117.883 47.9165V39.8924C117.883 39.2964 118.184 38.7803 118.78 38.3564C119.321 37.9755 119.898 37.785 120.519 37.785C121.01 37.785 121.459 37.8464 121.864 37.9755C122.264 38.1045 122.626 38.3195 122.952 38.6329C123.376 39.0384 123.659 39.493 123.794 39.9968C123.898 40.3655 123.947 40.9184 123.947 41.6557V47.9226C123.947 48.1069 123.935 48.3035 123.91 48.5186C123.886 48.7336 123.855 48.8872 123.806 48.9917L123.53 49.5262H127.443L127.167 48.9917C127.111 48.8442 127.075 48.6783 127.056 48.5063" fill="#545554"/>
<path d="M143.761 48.5252C143.749 48.3839 143.743 48.175 143.743 47.9108V39.0696C143.743 38.9774 143.755 38.8853 143.78 38.787C143.804 38.6887 143.823 38.5965 143.847 38.5044L144.001 37.9514C143.773 37.9268 143.577 37.8961 143.423 37.8469C143.27 37.8039 143.122 37.7241 142.981 37.6196C141.715 36.6059 140.904 35.9976 140.548 35.7948C139.546 35.2296 138.41 34.9531 137.138 34.9531C134.957 34.9531 133.126 35.6658 131.657 37.0912C130.189 38.5166 129.452 40.28 129.452 42.3812C129.452 44.4825 130.14 46.2335 131.522 47.7265C132.899 49.2195 134.576 49.969 136.554 49.969C137.31 49.969 138.023 49.883 138.68 49.711C139.344 49.539 139.872 49.2932 140.271 48.9676L141.015 48.3654V49.5205H144.154C144.038 49.3608 143.945 49.1888 143.878 49.0106C143.81 48.8324 143.767 48.6727 143.755 48.5252M140.652 45.275L140.155 45.8956C139.933 46.1721 139.509 46.4547 138.871 46.7373C138.232 47.0261 137.629 47.1674 137.052 47.1674C135.774 47.1674 134.686 46.7189 133.777 45.8218C132.868 44.9248 132.413 43.8373 132.413 42.5655C132.413 41.2937 132.819 40.1817 133.63 39.2416C134.441 38.3016 135.448 37.8285 136.653 37.8285C137.937 37.8285 139.043 38.2033 139.964 38.9467L140.652 39.4997V45.275Z" fill="#545554"/>
<path d="M156.154 48.5252C156.13 48.7403 156.093 48.9185 156.032 49.0659C155.976 49.2134 155.89 49.3731 155.774 49.5329H159.687L159.411 48.9983C159.355 48.8263 159.319 48.6604 159.3 48.5068C159.282 48.3532 159.276 48.1566 159.276 47.9293V41.6808C159.276 40.8514 159.233 40.2063 159.153 39.7455C159.024 39.0573 158.784 38.4184 158.428 37.8286C157.899 36.9684 157.156 36.2618 156.197 35.7212C155.239 35.1805 154.194 34.9102 153.07 34.9102C151.7 34.9102 150.447 35.2604 149.298 35.9608C148.542 36.5137 147.78 37.0667 147.024 37.6197C146.895 37.6995 146.736 37.7671 146.539 37.8286C146.435 37.8531 146.281 37.8961 146.072 37.9637L146.349 38.4982C146.385 38.5781 146.416 38.658 146.453 38.7379C146.49 38.8177 146.502 38.8976 146.502 38.9775V47.917C146.502 48.1013 146.49 48.2979 146.465 48.513C146.441 48.728 146.41 48.8816 146.361 48.986L146.084 49.5206H149.998L149.722 48.986C149.666 48.8386 149.63 48.6727 149.611 48.5007C149.593 48.3286 149.587 48.132 149.587 47.9108V39.1741L149.894 38.8976C150.398 38.4737 150.815 38.1788 151.135 38.019C151.559 37.8101 152.038 37.7057 152.566 37.7057C153.095 37.7057 153.562 37.7855 153.998 37.9391C154.434 38.0927 154.821 38.3324 155.153 38.658C155.577 39.0635 155.866 39.512 156.013 40.0035C156.13 40.3845 156.185 40.9313 156.185 41.644V47.9108C156.185 48.0952 156.173 48.2918 156.148 48.5068" fill="#545554"/>
<path d="M136.765 27.9244C137.115 27.863 137.57 27.777 138.135 27.6725C138.835 27.4329 139.413 27.0889 139.861 26.6404C140.457 26.0444 140.875 25.6696 141.103 25.5221C141.219 25.4423 141.354 25.387 141.514 25.3501C141.674 25.3132 141.778 25.2948 141.827 25.2825C141.784 25.2027 141.748 25.1228 141.723 25.0429C141.711 24.9876 141.698 24.9262 141.686 24.8709C141.662 24.791 141.643 24.7111 141.619 24.6313C141.606 24.576 141.6 24.4961 141.6 24.3917V20.7605H155.565C155.633 20.7605 155.713 20.779 155.805 20.8097C155.897 20.8466 155.983 20.8773 156.063 20.9142C156.143 20.951 156.223 20.9817 156.297 21.0186C156.37 21.0555 156.469 21.1046 156.579 21.1722C156.635 20.9633 156.69 20.7913 156.733 20.6561C156.776 20.5209 156.843 20.3796 156.923 20.2445C157.476 19.4887 158.023 18.7269 158.564 17.9712C159.252 16.8222 159.596 15.5627 159.596 14.1988C159.596 13.0744 159.332 12.0299 158.803 11.0592C158.275 10.0946 157.581 9.34501 156.714 8.81663C156.137 8.47257 155.553 8.24525 154.945 8.13466C154.343 8.02407 153.649 7.96876 152.868 7.96876H150.951L159.596 3.02285L157.869 0C157.851 0.135168 157.802 0.270344 157.716 0.411656C157.63 0.552967 157.538 0.645134 157.439 0.706574L147.197 6.56793C147.038 6.66009 146.859 6.74612 146.663 6.83213C146.466 6.91815 146.313 6.9673 146.202 6.97958L145.6 7.00416L146.995 11.4647L147.529 11.1759C147.677 11.1145 147.824 11.0776 147.971 11.0653C148.113 11.053 148.328 11.0469 148.598 11.0469H152.899C153.599 11.0469 154.177 11.1145 154.619 11.2435C155.068 11.3787 155.492 11.649 155.897 12.0668C156.211 12.3986 156.438 12.7918 156.598 13.2342C156.751 13.6765 156.831 14.1558 156.831 14.678C156.831 15.2002 156.727 15.6856 156.524 16.1095C156.376 16.4229 156.082 16.8284 155.645 17.3383L155.369 17.664H141.606V13.4246C141.606 12.9761 141.655 12.6198 141.741 12.3556L142.018 11.8211H138.104C138.221 11.9808 138.307 12.1467 138.375 12.3187C138.436 12.4907 138.479 12.6628 138.497 12.8348C138.516 13.0068 138.522 13.2034 138.522 13.4246V23.9309L138.209 24.2442C137.84 24.6128 137.404 24.8525 136.9 24.9692C136.679 25.0122 136.482 25.0368 136.298 25.0368C136.193 25.0368 136.04 25.0245 135.843 24.9938C135.64 24.963 135.493 24.9508 135.401 24.9508V28.5204C135.61 28.373 135.8 28.2501 135.978 28.1579C136.157 28.0658 136.421 27.9859 136.771 27.9244" fill="#545554"/>
<path d="M102.424 20.7473C103.327 20.5999 104.181 20.2926 104.98 19.8134C105.736 19.2727 106.498 18.7259 107.253 18.1791C107.388 18.0993 107.53 18.0378 107.665 17.9886C107.8 17.9456 107.972 17.8903 108.181 17.835C108.113 17.7183 108.058 17.6262 108.027 17.5524C107.991 17.4787 107.96 17.3988 107.923 17.3189C107.886 17.2391 107.855 17.1531 107.819 17.0609C107.782 16.9688 107.769 16.8889 107.769 16.8213V10.6036C107.769 10.4193 107.782 10.2226 107.806 10.0076C107.831 9.79257 107.868 9.61439 107.929 9.46693C107.984 9.31947 108.07 9.15974 108.187 9H104.273L104.55 9.53452C104.605 9.70656 104.642 9.87244 104.661 10.026C104.679 10.1796 104.685 10.3762 104.685 10.6036V16.6124L104.36 16.8889C103.991 17.2084 103.678 17.448 103.407 17.6139H86.5788C86.3576 17.491 86.1549 17.3497 85.9705 17.1777C85.5527 16.7783 85.2824 16.3482 85.1472 15.8997C85.0121 15.4512 84.9506 14.8736 84.9506 14.1732V13.0366C84.9506 12.7601 84.9506 12.5512 84.9691 12.4099C84.9814 12.2686 85.0182 12.1211 85.0797 11.9675L85.3684 11.433H81.4731C81.5899 11.605 81.6759 11.7771 81.7312 11.943C81.7865 12.1088 81.8233 12.2809 81.8418 12.4529C81.8602 12.625 81.8664 12.8215 81.8664 13.0366V14.1548C81.8664 14.9351 81.9217 15.6294 82.0322 16.2315C82.1428 16.8336 82.3702 17.4234 82.7142 18.0009C83.2426 18.8611 83.9922 19.5554 84.9568 20.0837C85.522 20.3971 86.1241 20.6121 86.7447 20.7412C86.8 20.7596 86.8614 20.7719 86.929 20.7719H102.228C102.228 20.7719 102.271 20.7719 102.295 20.7657C102.338 20.7657 102.387 20.7596 102.43 20.7534" fill="#545554"/>
<path d="M0.502875 10.7693V17.0116C0.502875 17.7919 0.558171 18.4862 0.668763 19.0883C0.779355 19.6904 1.00668 20.2802 1.35075 20.8577C1.87913 21.7179 2.6287 22.4122 3.5933 22.9406C4.55791 23.4689 5.60239 23.7331 6.73288 23.7331C8.10299 23.7331 9.35637 23.3891 10.5053 22.7009C11.261 22.1603 12.0229 21.6134 12.7786 21.0666C12.9137 20.9868 13.055 20.9253 13.1902 20.8762C13.3254 20.8332 13.4974 20.7779 13.7063 20.7226C13.6387 20.6058 13.5834 20.5137 13.5527 20.44C13.5158 20.3662 13.4851 20.2863 13.4483 20.2065C13.4114 20.1266 13.3807 20.0406 13.3438 19.9484C13.307 19.8563 13.2947 19.7764 13.2947 19.7088V10.7816C13.2947 10.5973 13.307 10.4007 13.3315 10.1856C13.3561 9.97059 13.393 9.79241 13.4544 9.64496C13.5097 9.4975 13.5957 9.33775 13.7125 9.17801H9.79873L10.0752 9.71253C10.1305 9.88456 10.1674 10.0505 10.1858 10.2041C10.2042 10.3577 10.2104 10.5543 10.2104 10.7816V19.5061L9.88475 19.7825C9.3748 20.2188 8.96929 20.5137 8.65595 20.6611C8.23202 20.87 7.75278 20.9683 7.2244 20.9683C6.69602 20.9683 6.22293 20.8884 5.78056 20.7348C5.3382 20.5813 4.95112 20.3478 4.6132 20.0344C4.19541 19.6351 3.92508 19.205 3.78991 18.7565C3.65474 18.308 3.5933 17.7366 3.5933 17.03V10.7754C3.5933 10.499 3.5933 10.2901 3.61173 10.1488C3.62402 10.0075 3.66089 9.86 3.72233 9.7064L4.01109 9.17188H0.103516C0.220251 9.34391 0.306267 9.51593 0.361563 9.68182C0.416859 9.84771 0.453723 10.0197 0.472155 10.1918C0.490587 10.3638 0.496731 10.5604 0.496731 10.7754" fill="#545554"/>
<path d="M73.3331 7.95124C73.1181 7.97581 72.9215 7.9881 72.7371 7.9881H63.8099C63.7423 7.9881 63.6625 7.96968 63.5703 7.93896C63.4782 7.90209 63.3921 7.87136 63.3123 7.8345C63.2324 7.79764 63.1525 7.76693 63.0788 7.73006C63.0051 7.6932 62.9068 7.64405 62.7962 7.57646C62.7409 7.78536 62.6856 7.95739 62.6426 8.09256C62.5996 8.22772 62.532 8.36904 62.4521 8.50421C61.8991 9.25992 61.3523 10.0218 60.8178 10.7775C60.1297 11.9264 59.7856 13.1859 59.7856 14.5499C59.7856 15.6742 60.0498 16.7187 60.5782 17.6895C60.5905 17.714 60.6089 17.7386 60.6212 17.7632H47.1536C47.0676 18.4943 46.6928 19.1517 46.1582 19.6494C46.0477 20.061 45.851 20.442 45.5869 20.7737H67.6499H72.7494C72.9706 20.7737 73.1611 20.7799 73.3331 20.7983C73.5051 20.8168 73.6772 20.8536 73.8431 20.9089C74.0089 20.9642 74.181 21.0502 74.353 21.167V17.2717L73.8185 17.5604C73.671 17.6219 73.5236 17.6587 73.3761 17.671C73.2348 17.6833 73.0198 17.6895 72.7494 17.6895H66.4949C65.7944 17.6895 65.2169 17.6219 64.7684 17.4929C64.3199 17.3577 63.8959 17.0874 63.4904 16.6696C63.1771 16.3378 62.9498 15.9446 62.79 15.5022C62.6364 15.0598 62.5566 14.5806 62.5566 14.0584C62.5566 13.5361 62.661 13.0508 62.8699 12.6268C63.0174 12.3135 63.3123 11.908 63.7485 11.398L64.025 11.0724H72.7433C72.9706 11.0724 73.1672 11.0785 73.3208 11.097C73.4744 11.1154 73.6403 11.1523 73.8123 11.2076L74.3469 11.484V7.57031C74.1871 7.68705 74.0335 7.77307 73.8799 7.82837C73.7263 7.88366 73.5482 7.92666 73.3393 7.95124" fill="#545554"/>
<path d="M16.5947 19.763C16.5701 19.978 16.5394 20.1316 16.4902 20.2361L16.2137 20.7706H33.5152C32.9315 20.1808 32.5629 19.3698 32.526 18.485C32.5138 18.2393 32.5383 17.9935 32.5936 17.76H19.7158V0.00390625H16.2199C16.3366 0.0837781 16.4349 0.194362 16.5148 0.341818C16.5947 0.48313 16.6377 0.618301 16.6377 0.728893V19.167C16.6377 19.3513 16.6254 19.5479 16.6008 19.763" fill="#545554"/>
<path d="M8.27581 7.10223C8.80419 7.10223 9.25885 6.92407 9.64592 6.56158C10.033 6.19908 10.2235 5.76899 10.2235 5.25903C10.2235 4.70608 10.033 4.24528 9.65207 3.86436C9.27114 3.48343 8.81034 3.29297 8.27581 3.29297C7.74128 3.29297 7.29277 3.48957 6.91185 3.87664C6.53092 4.26985 6.34045 4.72452 6.34045 5.2529C6.34045 5.78129 6.53092 6.19293 6.91799 6.55543C7.30506 6.91792 7.75357 7.0961 8.26967 7.0961" fill="#545554"/>
<path d="M92.5031 7.40303C93.0315 7.40303 93.4861 7.22485 93.8732 6.86236C94.2603 6.49986 94.4507 6.06979 94.4507 5.55983C94.4507 5.00688 94.2603 4.54606 93.8794 4.16514C93.4984 3.78421 93.0376 3.59375 92.5031 3.59375C91.9686 3.59375 91.5201 3.79037 91.1391 4.17744C90.7582 4.57065 90.5677 5.0253 90.5677 5.55368C90.5677 6.08207 90.7582 6.49371 91.1453 6.85621C91.5323 7.2187 91.9809 7.39688 92.497 7.39688" fill="#545554"/>
<path d="M97.4115 7.40303C97.9399 7.40303 98.3945 7.22485 98.7816 6.86236C99.1687 6.49986 99.3591 6.06979 99.3591 5.55983C99.3591 5.00688 99.1687 4.54606 98.7877 4.16514C98.4068 3.78421 97.946 3.59375 97.4115 3.59375C96.877 3.59375 96.4285 3.79037 96.0475 4.17744C95.6666 4.57065 95.4761 5.0253 95.4761 5.55368C95.4761 6.08207 95.6666 6.49371 96.0537 6.85621C96.4407 7.2187 96.8893 7.39688 97.4053 7.39688" fill="#545554"/>
<path d="M123.617 23.1953C123.236 23.5885 123.045 24.0432 123.045 24.5716C123.045 25.0999 123.236 25.5116 123.623 25.8741C124.01 26.2366 124.458 26.4148 124.974 26.4148C125.491 26.4148 125.957 26.2366 126.345 25.8741C126.732 25.5116 126.922 25.0815 126.922 24.5716C126.922 24.0186 126.732 23.5578 126.351 23.1769C125.97 22.7959 125.509 22.6055 124.974 22.6055C124.44 22.6055 123.991 22.8021 123.61 23.1892" fill="#545554"/>
<path d="M131.259 25.8741C131.646 25.5116 131.837 25.0815 131.837 24.5716C131.837 24.0186 131.646 23.5578 131.265 23.1769C130.884 22.7959 130.424 22.6055 129.889 22.6055C129.354 22.6055 128.906 22.8021 128.525 23.1892C128.144 23.5824 127.954 24.037 127.954 24.5654C127.954 25.0938 128.144 25.5054 128.531 25.8679C128.918 26.2304 129.367 26.4086 129.883 26.4086C130.399 26.4086 130.866 26.2304 131.253 25.8679" fill="#545554"/>
<path d="M111.912 20.8139C112.127 20.7894 112.324 20.7771 112.508 20.7771H118.708L120.772 20.7709H128.52C128.52 20.7709 128.563 20.7709 128.587 20.7648C128.63 20.7648 128.679 20.7586 128.722 20.7525C129.626 20.605 130.48 20.2979 131.272 19.8186C132.028 19.278 132.79 18.7311 133.545 18.1782C133.681 18.0983 133.822 18.0369 133.957 17.9877C134.092 17.9447 134.27 17.8894 134.473 17.8341C134.406 17.7174 134.35 17.6252 134.32 17.5515C134.283 17.4778 134.252 17.3979 134.215 17.318C134.178 17.2381 134.148 17.1521 134.111 17.06C134.074 16.9678 134.061 16.8879 134.061 16.8204V10.6026C134.061 10.4183 134.074 10.2217 134.098 10.0067C134.123 9.79163 134.16 9.61345 134.221 9.466C134.277 9.31854 134.363 9.15881 134.479 8.99907H130.566L130.842 9.53359C130.897 9.70562 130.934 9.8715 130.953 10.0251C130.971 10.1787 130.977 10.3753 130.977 10.6026V16.1814C130.977 16.4517 130.854 16.7098 130.652 16.8879C130.394 17.1091 130.16 17.2934 129.951 17.4409C129.798 17.5515 129.613 17.6068 129.417 17.6068H122.824C123.371 16.5623 123.647 15.4318 123.647 14.2092C123.647 13.0848 123.383 12.0403 122.855 11.0696C122.326 10.105 121.632 9.35542 120.772 8.82704C120.195 8.48297 119.611 8.25563 119.003 8.14504C118.4 8.03445 117.706 7.97916 116.926 7.97916H112.496C112.275 7.97916 112.084 7.97301 111.912 7.95458C111.74 7.93615 111.568 7.89929 111.402 7.84399C111.237 7.7887 111.065 7.70267 110.893 7.58594V11.4812L111.427 11.1925C111.574 11.131 111.722 11.0942 111.869 11.0819C112.011 11.0696 112.226 11.0634 112.496 11.0634H116.944C117.645 11.0634 118.222 11.131 118.671 11.2601C119.119 11.3952 119.543 11.6656 119.949 12.0833C120.262 12.4151 120.489 12.8083 120.649 13.2507C120.803 13.6931 120.883 14.1723 120.883 14.6945C120.883 15.2168 120.778 15.7021 120.575 16.1261C120.428 16.4394 120.133 16.8449 119.697 17.3549L119.42 17.6805H112.508C112.281 17.6805 112.084 17.6744 111.931 17.6559C111.777 17.6375 111.611 17.6006 111.439 17.5453L110.905 17.2689V21.1826C111.065 21.0659 111.218 20.9798 111.372 20.9245C111.519 20.8692 111.704 20.8262 111.912 20.8017" fill="#545554"/>
<path d="M45.3107 14.5249C45.3107 17.4495 42.9391 19.8272 40.0084 19.8272C37.0778 19.8272 34.7062 17.4556 34.7062 14.5249C34.7062 11.5942 37.0778 9.22266 40.0084 9.22266C42.9391 9.22266 45.3107 11.5942 45.3107 14.5249Z" fill="#E65824"/>
<path d="M35.88 14.5227C35.88 11.7947 37.9444 9.54604 40.5986 9.25727C40.4081 9.23884 40.2115 9.22656 40.0149 9.22656C37.0904 9.22656 34.7126 11.5981 34.7126 14.5288C34.7126 17.4595 37.0842 19.8311 40.0149 19.8311C40.2115 19.8311 40.4081 19.8188 40.5986 19.8004C37.9444 19.5116 35.88 17.2629 35.88 14.535" fill="#C64B27"/>
<path d="M48.7763 19.5128L47.1297 17.8662C45.8517 20.502 43.1545 22.3329 40.0334 22.3329C35.6834 22.3329 32.1445 18.794 32.1445 14.444C32.1445 10.0941 35.6834 6.55516 40.0334 6.55516C43.1975 6.55516 45.9193 8.42908 47.1788 11.1263L48.7701 9.535L49.3784 8.92673C47.486 5.73185 44.0085 3.59375 40.0272 3.59375C34.0307 3.59375 29.1708 8.45365 29.1708 14.4502C29.1708 20.4467 34.0307 25.3066 40.0272 25.3066C43.9655 25.3066 47.4184 23.2115 49.3169 20.0658L48.764 19.5128H48.7763Z" fill="#545554"/>
<path d="M50.8352 14.5258L47.671 12.5781C47.8123 13.1741 47.8922 13.7946 47.8922 14.4336C47.8922 15.1525 47.7939 15.8467 47.6157 16.5041L50.8352 14.5258Z" fill="#075183"/>
<path d="M49.41 14.531L47.8433 13.5664C47.874 13.8552 47.8925 14.1439 47.8925 14.4388C47.8925 14.8013 47.8679 15.1577 47.8187 15.5079L49.41 14.531Z" fill="#044468"/>
<path d="M97.6092 39.1851C97.6092 42.1096 95.2377 44.4873 92.307 44.4873C89.3763 44.4873 87.0047 42.1157 87.0047 39.1851C87.0047 36.2544 89.3763 33.8828 92.307 33.8828C95.2377 33.8828 97.6092 36.2544 97.6092 39.1851Z" fill="#E65824"/>
<path d="M88.1772 39.1867C88.1772 36.4588 90.2416 34.2101 92.8958 33.9214C92.7053 33.9029 92.5087 33.8906 92.3121 33.8906C89.3876 33.8906 87.0098 36.2622 87.0098 39.1929C87.0098 42.1236 89.3814 44.4952 92.3121 44.4952C92.5087 44.4952 92.7053 44.4829 92.8958 44.4644C90.2416 44.1757 88.1772 41.927 88.1772 39.199" fill="#C64B27"/>
<path d="M101.073 44.1752L99.4269 42.5286C98.149 45.1644 95.4517 46.9953 92.3306 46.9953C87.9807 46.9953 84.4417 43.4564 84.4417 39.1064C84.4417 34.7565 87.9807 31.2175 92.3306 31.2175C95.4948 31.2175 98.2165 33.0915 99.4761 35.7887L101.067 34.1974L101.676 33.5891C99.7833 30.3943 96.3058 28.25 92.3245 28.25C86.3279 28.25 81.468 33.1099 81.468 39.1064C81.468 45.103 86.3279 49.9629 92.3245 49.9629C96.2628 49.9629 99.7157 47.8616 101.614 44.722L101.061 44.1691L101.073 44.1752Z" fill="#545554"/>
<path d="M103.131 39.1859L99.967 37.2383C100.108 37.8342 100.188 38.4548 100.188 39.0938C100.188 39.8126 100.09 40.5007 99.9117 41.1643L103.131 39.1859Z" fill="#075183"/>
<path d="M101.706 39.1951L100.139 38.2305C100.17 38.5192 100.188 38.808 100.188 39.1029C100.188 39.4654 100.164 39.8218 100.115 40.172L101.706 39.1951Z" fill="#044468"/>
</svg>
