<svg width="286" height="45" viewBox="0 0 286 45" fill="none" xmlns="http://www.w3.org/2000/svg">
<path d="M282.608 9.08692L285.051 8.10779L282.608 7.12866C280.365 6.22946 278.581 4.51099 277.647 2.35291L276.633 0L275.619 2.35291C274.685 4.51099 272.902 6.22946 270.659 7.12866L268.216 8.10779L270.659 9.08692C272.902 9.98612 274.685 11.7046 275.619 13.8627L276.633 16.2156L277.647 13.8627C278.581 11.7046 280.365 9.98612 282.608 9.08692Z" fill="#001F58"/>
<path d="M268.861 14.8638C268.646 14.9387 268.431 15.0137 268.217 15.0836C265.499 15.9878 262.597 16.7871 259.694 16.6522C257.466 16.5473 255.643 15.6231 253.859 14.4142C252.296 13.3551 250.732 12.426 248.744 12.4959C246.336 12.5858 243.993 13.6199 241.78 14.4542C240.936 14.7739 240.082 15.0936 239.222 15.3933V21.9575C239.432 21.8825 239.647 21.8126 239.857 21.7377C242.285 20.8734 244.683 19.7594 247.23 19.2549C249.268 18.8502 251.067 19.1949 252.8 20.284C254.474 21.333 255.988 22.532 257.971 22.9916C260.653 23.611 263.561 23.0265 266.158 22.2922C267.073 22.0324 267.972 21.7377 268.866 21.428V14.8638H268.861Z" fill="#00ACE3"/>
<path d="M278.642 31.7095C277.698 31.5797 276.729 31.5896 275.725 31.7895C273.147 32.299 270.699 33.3531 268.216 34.1773C265.499 35.0815 262.596 35.8808 259.694 35.746C257.466 35.641 255.642 34.7169 253.859 33.5079C252.295 32.4489 250.732 31.5197 248.744 31.5896C247.62 31.6296 246.511 31.8844 245.422 32.2191V38.8032C246.016 38.6234 246.615 38.4685 247.23 38.3486C249.268 37.944 251.066 38.2887 252.8 39.3777C254.473 40.4268 255.987 41.6257 257.97 42.0853C260.653 42.7048 263.56 42.1203 266.158 41.3859C268.846 40.6266 271.418 39.5326 274.101 38.7633C275.285 38.4236 276.524 38.1288 277.768 38.1588C278.062 38.1638 278.352 38.1938 278.647 38.2387V31.7145L278.642 31.7095Z" fill="#00ACE3"/>
<path d="M285.046 25.1932C284.247 24.5937 283.393 24.0492 282.514 23.5796C280.381 22.4306 278.147 21.8461 275.72 22.3207C273.142 22.8303 270.694 23.8843 268.211 24.7086C265.494 25.6128 262.591 26.4121 259.689 26.2772C257.461 26.1723 255.638 25.2481 253.854 24.0392C252.29 22.9801 250.727 22.051 248.739 22.1209C246.331 22.2108 243.988 23.2449 241.775 24.0792C239.207 25.0483 236.559 26.0674 233.782 26.2622C233.033 26.3122 232.283 26.2722 231.549 26.1523V32.7514C231.684 32.7714 231.824 32.7914 231.959 32.8064C234.646 33.0861 237.359 32.2419 239.842 31.3577C242.269 30.4935 244.667 29.3794 247.215 28.8749C249.253 28.4703 251.052 28.8149 252.785 29.904C254.459 30.953 255.972 32.152 257.955 32.6116C260.638 33.231 263.545 32.6465 266.143 31.9122C268.831 31.1529 271.403 30.0588 274.086 29.2895C275.27 28.9498 276.509 28.6551 277.753 28.6851C279.122 28.715 280.455 29.1596 281.674 29.7291C282.848 30.2786 283.992 30.968 285.031 31.7523V25.1932H285.046Z" fill="#00ACE3"/>
<path d="M0.258545 42.2275H2.74633V37.7415H7.46214V35.8832H2.74633V33.3704H8.19149V31.3672H0.258545V42.2275Z" fill="#455362"/>
<path d="M11.5692 34.3594H9.32123V42.2274H11.5692V34.3594Z" fill="#455362"/>
<path d="M11.5692 31.3672H9.32123V33.1406H11.5692V31.3672Z" fill="#455362"/>
<path d="M19.6617 38.1538C19.4169 37.9839 19.1422 37.8491 18.8324 37.7491C18.5227 37.6492 18.203 37.5643 17.8733 37.4944C17.5636 37.4244 17.2538 37.3595 16.9491 37.2995C16.6444 37.2396 16.3696 37.1697 16.1348 37.0897C15.8951 37.0148 15.7052 36.9149 15.5554 36.79C15.4055 36.6701 15.3306 36.5102 15.3306 36.3204C15.3306 36.1606 15.3755 36.0357 15.4604 35.9358C15.5454 35.8408 15.6503 35.7659 15.7702 35.711C15.8901 35.656 16.0249 35.626 16.1748 35.611C16.3247 35.5961 16.4596 35.5911 16.5795 35.5911C16.9841 35.5911 17.3338 35.666 17.6285 35.8109C17.9233 35.9557 18.0831 36.2405 18.1131 36.6551H20.2412C20.2012 36.1705 20.0763 35.7709 19.8615 35.4512C19.6467 35.1315 19.372 34.8767 19.0473 34.6819C18.7175 34.487 18.3479 34.3522 17.9332 34.2722C17.5186 34.1923 17.089 34.1523 16.6394 34.1523C16.1898 34.1523 15.7652 34.1873 15.3505 34.2622C14.9309 34.3372 14.5563 34.4671 14.2166 34.6569C13.8769 34.8467 13.6021 35.1065 13.4023 35.4362C13.1975 35.7659 13.0975 36.1805 13.0975 36.6751C13.0975 37.0198 13.1725 37.3145 13.3174 37.5493C13.4622 37.7841 13.657 37.9839 13.9018 38.1438C14.1466 38.3037 14.4214 38.4285 14.7311 38.5285C15.0408 38.6234 15.3555 38.7083 15.6852 38.7782C16.0899 38.8582 16.4496 38.9381 16.7643 39.013C17.079 39.088 17.3438 39.1729 17.5586 39.2628C17.7734 39.3527 17.9382 39.4576 18.0581 39.5725C18.173 39.6874 18.233 39.8323 18.233 39.9971C18.233 40.187 18.188 40.3468 18.0931 40.4767C17.9982 40.6066 17.8833 40.7065 17.7384 40.7814C17.5985 40.8564 17.4387 40.9113 17.2638 40.9463C17.089 40.9813 16.9191 40.9963 16.7643 40.9963C16.5445 40.9963 16.3297 40.9713 16.1249 40.9263C15.92 40.8764 15.7402 40.8014 15.5753 40.6965C15.4155 40.5916 15.2856 40.4517 15.1857 40.2869C15.0858 40.117 15.0358 39.9172 15.0358 39.6824H12.9077C12.9277 40.197 13.0526 40.6366 13.2824 40.9913C13.5072 41.3459 13.7969 41.6357 14.1466 41.8505C14.4963 42.0703 14.9009 42.2252 15.3555 42.3151C15.8101 42.405 16.2747 42.45 16.7543 42.45C17.2339 42.45 17.6685 42.405 18.1131 42.3151C18.5627 42.2252 18.9573 42.0703 19.307 41.8555C19.6567 41.6407 19.9365 41.3559 20.1513 41.0062C20.3661 40.6566 20.476 40.2219 20.476 39.7074C20.476 39.3477 20.4011 39.043 20.2562 38.7932C20.1113 38.5434 19.9165 38.3386 19.6717 38.1688" fill="#455362"/>
<path d="M28.803 35.0361C28.5832 34.7564 28.2784 34.5365 27.8938 34.3817C27.5091 34.2268 27.0146 34.1469 26.4151 34.1469C25.9955 34.1469 25.5659 34.2518 25.1213 34.4666C24.6816 34.6814 24.317 35.0111 24.0272 35.4557H23.9873V31.3594H21.7393V42.2197H23.9873V38.0934C23.9873 37.2941 24.1221 36.7196 24.3969 36.3699C24.6716 36.0202 25.1113 35.8454 25.7207 35.8454C26.2453 35.8454 26.6149 36.0052 26.8297 36.325C27.0445 36.6447 27.1544 37.1292 27.1544 37.7787V42.2247H29.4024V37.389C29.4024 36.8994 29.3575 36.4548 29.2676 36.0552C29.1776 35.6556 29.0228 35.3159 28.803 35.0361Z" fill="#455362"/>
<path d="M32.989 37.4455C32.999 37.2956 33.0339 37.1258 33.0889 36.931C33.1438 36.7361 33.2437 36.5563 33.3886 36.3864C33.5335 36.2166 33.7233 36.0717 33.9581 35.9568C34.1979 35.8419 34.4926 35.782 34.8473 35.782C35.4018 35.782 35.8115 35.9219 36.0762 36.2066C36.346 36.4864 36.5308 36.906 36.6357 37.4505H32.989V37.4455ZM38.0045 35.5772C37.6748 35.1426 37.2502 34.7929 36.7306 34.5381C36.2161 34.2783 35.6116 34.1484 34.9222 34.1484C34.2978 34.1484 33.7283 34.2533 33.2188 34.4682C32.7092 34.683 32.2696 34.9727 31.8999 35.3424C31.5303 35.712 31.2455 36.1517 31.0457 36.6612C30.8459 37.1707 30.741 37.7153 30.741 38.2997C30.741 38.8842 30.8409 39.4637 31.0357 39.9733C31.2305 40.4828 31.5103 40.9174 31.865 41.2871C32.2197 41.6518 32.6593 41.9365 33.1738 42.1413C33.6883 42.3412 34.2728 42.4461 34.9172 42.4461C35.8414 42.4461 36.6307 42.2362 37.2851 41.8216C37.9396 41.407 38.4241 40.7326 38.7339 39.7934H36.7606C36.6907 40.0332 36.4908 40.263 36.1661 40.4828C35.8414 40.7026 35.4518 40.8125 34.9972 40.8125C34.3627 40.8125 33.8732 40.6527 33.5385 40.3329C33.2038 40.0132 33.0189 39.5087 32.994 38.8193H38.8887C38.9337 38.2048 38.8787 37.6253 38.7289 37.0658C38.579 36.5113 38.3392 36.0118 38.0095 35.5772" fill="#455362"/>
<path d="M44.0989 34.2672C43.8292 34.3472 43.5794 34.4621 43.3496 34.6119C43.1198 34.7618 42.91 34.9366 42.7302 35.1465C42.5503 35.3563 42.4104 35.5811 42.3105 35.8259H42.2706V34.3572H40.1425V42.2252H42.3905V38.6833C42.3905 38.3386 42.4254 38.0089 42.5004 37.6992C42.5703 37.3895 42.6952 37.1197 42.87 36.8949C43.0449 36.6701 43.2747 36.4903 43.5594 36.3554C43.8442 36.2205 44.1939 36.1556 44.6035 36.1556C44.7384 36.1556 44.8782 36.1656 45.0281 36.1805C45.178 36.1955 45.3029 36.2155 45.4078 36.2355V34.2223C45.2479 34.1723 45.0831 34.1523 44.9082 34.1523C44.6385 34.1523 44.3687 34.1923 44.0989 34.2722" fill="#455362"/>
<path d="M48.591 34.3594H46.343V42.2274H48.591V34.3594Z" fill="#455362"/>
<path d="M48.591 31.3672H46.343V33.1406H48.591V31.3672Z" fill="#455362"/>
<path d="M52.2923 37.4455C52.3023 37.2956 52.3373 37.1258 52.3922 36.931C52.4472 36.7361 52.5471 36.5563 52.692 36.3864C52.8368 36.2166 53.0267 36.0717 53.2614 35.9568C53.5012 35.8419 53.796 35.782 54.1507 35.782C54.7052 35.782 55.1148 35.9219 55.3796 36.2066C55.6493 36.4864 55.8342 36.906 55.9391 37.4505H52.2923V37.4455ZM57.3079 35.5772C56.9781 35.1426 56.5535 34.7929 56.034 34.5381C55.5194 34.2783 54.915 34.1484 54.2256 34.1484C53.6011 34.1484 53.0317 34.2533 52.5221 34.4682C52.0126 34.683 51.573 34.9727 51.2033 35.3424C50.8336 35.712 50.5539 36.1517 50.349 36.6612C50.1492 37.1707 50.0443 37.7153 50.0443 38.2997C50.0443 38.8842 50.1442 39.4637 50.339 39.9733C50.5339 40.4828 50.8136 40.9174 51.1683 41.2871C51.523 41.6518 51.9626 41.9365 52.4771 42.1413C52.9917 42.3412 53.5762 42.4461 54.2206 42.4461C55.1448 42.4461 55.9341 42.2362 56.5885 41.8216C57.2429 41.407 57.7275 40.7326 58.0372 39.7934H56.064C55.994 40.0332 55.7942 40.263 55.4695 40.4828C55.1448 40.7026 54.7551 40.8125 54.3005 40.8125C53.6661 40.8125 53.1815 40.6527 52.8418 40.3329C52.5071 40.0132 52.3223 39.5087 52.2973 38.8193H58.1921C58.237 38.2048 58.1821 37.6253 58.0372 37.0658C57.8873 36.5113 57.6475 36.0118 57.3178 35.5772" fill="#455362"/>
<path d="M65.8354 38.1538C65.5906 37.9839 65.3159 37.8491 65.0062 37.7491C64.6964 37.6492 64.3767 37.5643 64.047 37.4944C63.7373 37.4244 63.4276 37.3595 63.1228 37.2995C62.8181 37.2396 62.5433 37.1697 62.3085 37.0897C62.0688 37.0148 61.8789 36.9149 61.7291 36.79C61.5792 36.6701 61.5043 36.5102 61.5043 36.3204C61.5043 36.1606 61.5492 36.0357 61.6342 35.9358C61.7191 35.8408 61.824 35.7659 61.9439 35.711C62.0638 35.656 62.1986 35.626 62.3485 35.611C62.4984 35.5961 62.6333 35.5911 62.7532 35.5911C63.1578 35.5911 63.5075 35.666 63.8022 35.8109C64.097 35.9557 64.2618 36.2405 64.2868 36.6551H66.4149C66.3749 36.1705 66.25 35.7709 66.0352 35.4512C65.8204 35.1315 65.5457 34.8767 65.221 34.6819C64.8913 34.487 64.5216 34.3522 64.1069 34.2722C63.6923 34.1923 63.2627 34.1523 62.8131 34.1523C62.3635 34.1523 61.9389 34.1873 61.5242 34.2622C61.1046 34.3372 60.73 34.4671 60.3903 34.6569C60.0506 34.8467 59.7758 35.1065 59.576 35.4362C59.3712 35.7659 59.2712 36.1805 59.2712 36.6751C59.2712 37.0198 59.3462 37.3145 59.4911 37.5493C59.6359 37.7841 59.8307 37.9839 60.0755 38.1438C60.3203 38.3037 60.5951 38.4285 60.9048 38.5285C61.2145 38.6234 61.5292 38.7083 61.8589 38.7782C62.2636 38.8582 62.6233 38.9381 62.938 39.013C63.2527 39.088 63.5175 39.1729 63.7323 39.2628C63.9471 39.3527 64.1119 39.4576 64.2318 39.5725C64.3467 39.6874 64.4067 39.8323 64.4067 39.9971C64.4067 40.187 64.3617 40.3468 64.2668 40.4767C64.1719 40.6066 64.057 40.7065 63.9121 40.7814C63.7722 40.8564 63.6124 40.9113 63.4375 40.9463C63.2627 40.9813 63.0928 40.9963 62.938 40.9963C62.7182 40.9963 62.5034 40.9713 62.2986 40.9263C62.0937 40.8764 61.9139 40.8014 61.749 40.6965C61.5892 40.5916 61.4593 40.4517 61.3594 40.2869C61.2595 40.117 61.2095 39.9172 61.2095 39.6824H59.0814C59.1014 40.197 59.2263 40.6366 59.4561 40.9913C59.6809 41.3459 59.9706 41.6357 60.3203 41.8505C60.67 42.0703 61.0746 42.2252 61.5292 42.3151C61.9838 42.405 62.4484 42.45 62.923 42.45C63.3976 42.45 63.8372 42.405 64.2818 42.3151C64.7314 42.2252 65.126 42.0703 65.4757 41.8555C65.8254 41.6407 66.1052 41.3559 66.32 41.0062C66.5348 40.6566 66.6447 40.2219 66.6447 39.7074C66.6447 39.3477 66.5698 39.043 66.4249 38.7932C66.28 38.5434 66.0852 38.3386 65.8404 38.1688" fill="#455362"/>
<path d="M78.5391 38.4848C78.3792 38.8994 78.1694 39.2391 77.9046 39.4989C77.6449 39.7586 77.3401 39.9435 77.0054 40.0584C76.6707 40.1683 76.321 40.2282 75.9613 40.2282H73.7583V33.3743H75.5217C76.1362 33.3743 76.6507 33.4592 77.0654 33.6291C77.48 33.7989 77.8147 34.0437 78.0695 34.3534C78.3242 34.6632 78.5041 35.0428 78.619 35.4874C78.7289 35.927 78.7838 36.4216 78.7838 36.9611C78.7838 37.5606 78.7039 38.0701 78.544 38.4848M79.8029 32.7049C79.3433 32.2603 78.7988 31.9256 78.1744 31.7058C77.5449 31.481 76.8705 31.3711 76.1412 31.3711H71.2755V42.2314H76.1412C77.0104 42.2314 77.7598 42.0916 78.3992 41.8118C79.0386 41.5321 79.5681 41.1474 79.9878 40.6628C80.4124 40.1783 80.7271 39.5988 80.9419 38.9294C81.1567 38.26 81.2616 37.5306 81.2616 36.7413C81.2616 35.8371 81.1317 35.0478 80.877 34.3784C80.6222 33.709 80.2625 33.1495 79.8029 32.7049Z" fill="#455362"/>
<path d="M84.6127 37.4455C84.6227 37.2956 84.6577 37.1258 84.7127 36.931C84.7676 36.7361 84.8675 36.5563 85.0124 36.3864C85.1573 36.2166 85.3471 36.0717 85.5819 35.9568C85.8217 35.8419 86.1164 35.782 86.4711 35.782C87.0256 35.782 87.4352 35.9219 87.7 36.2066C87.9698 36.4864 88.1546 36.906 88.2595 37.4505H84.6127V37.4455ZM89.6283 35.5772C89.2986 35.1426 88.8739 34.7929 88.3544 34.5381C87.8399 34.2783 87.2354 34.1484 86.541 34.1484C85.9166 34.1484 85.3471 34.2533 84.8375 34.4682C84.328 34.683 83.8884 34.9727 83.5187 35.3424C83.149 35.712 82.8643 36.1517 82.6645 36.6612C82.4646 37.1707 82.3597 37.7153 82.3597 38.2997C82.3597 38.8842 82.4597 39.4637 82.6545 39.9733C82.8493 40.4828 83.1291 40.9174 83.4837 41.2871C83.8384 41.6518 84.278 41.9365 84.7926 42.1413C85.3071 42.3412 85.8916 42.4461 86.536 42.4461C87.4602 42.4461 88.2495 42.2362 88.9039 41.8216C89.5583 41.407 90.0429 40.7326 90.3526 39.7934H88.3794C88.3095 40.0332 88.1096 40.263 87.7849 40.4828C87.4602 40.7026 87.0706 40.8125 86.616 40.8125C85.9815 40.8125 85.492 40.6527 85.1573 40.3329C84.8226 40.0132 84.6377 39.5087 84.6127 38.8193H90.5075C90.5525 38.2048 90.4975 37.6253 90.3526 37.0658C90.2028 36.5113 89.963 36.0118 89.6333 35.5772" fill="#455362"/>
<path d="M95.3636 39.7296H95.3386L93.6151 34.3594H91.2622L94.0547 42.2274H96.5575L99.315 34.3594H97.092L95.3636 39.7296Z" fill="#455362"/>
<path d="M102.053 37.4455C102.063 37.2956 102.098 37.1258 102.152 36.931C102.207 36.7361 102.307 36.5563 102.452 36.3864C102.597 36.2166 102.787 36.0717 103.022 35.9568C103.261 35.8419 103.556 35.782 103.906 35.782C104.46 35.782 104.87 35.9219 105.135 36.2066C105.405 36.4864 105.589 36.906 105.694 37.4505H102.048L102.053 37.4455ZM107.068 35.5772C106.738 35.1426 106.314 34.7929 105.794 34.5381C105.28 34.2783 104.675 34.1484 103.986 34.1484C103.361 34.1484 102.792 34.2533 102.282 34.4682C101.773 34.683 101.333 34.9727 100.964 35.3424C100.594 35.712 100.314 36.1517 100.109 36.6612C99.9095 37.1707 99.8046 37.7153 99.8046 38.2997C99.8046 38.8842 99.9045 39.4637 100.099 39.9733C100.294 40.4828 100.574 40.9174 100.929 41.2871C101.283 41.6518 101.723 41.9365 102.237 42.1413C102.752 42.3412 103.336 42.4461 103.981 42.4461C104.905 42.4461 105.694 42.2362 106.349 41.8216C107.003 41.407 107.488 40.7326 107.797 39.7934H105.824C105.754 40.0332 105.554 40.263 105.23 40.4828C104.905 40.7026 104.515 40.8125 104.061 40.8125C103.426 40.8125 102.942 40.6527 102.602 40.3329C102.267 40.0132 102.083 39.5087 102.058 38.8193H107.952C107.997 38.2048 107.942 37.6253 107.797 37.0658C107.648 36.5113 107.408 36.0118 107.078 35.5772" fill="#455362"/>
<path d="M111.509 31.3672H109.261V42.2275H111.509V31.3672Z" fill="#455362"/>
<path d="M119.218 39.2189C119.153 39.5187 119.048 39.7884 118.893 40.0232C118.743 40.258 118.538 40.4478 118.278 40.5927C118.024 40.7376 117.704 40.8075 117.319 40.8075C116.935 40.8075 116.62 40.7376 116.37 40.5927C116.12 40.4478 115.916 40.258 115.761 40.0232C115.606 39.7884 115.496 39.5187 115.436 39.2189C115.376 38.9192 115.346 38.6095 115.346 38.2948C115.346 37.98 115.376 37.6703 115.436 37.3656C115.496 37.0608 115.606 36.7911 115.761 36.5613C115.916 36.3315 116.12 36.1417 116.37 35.9968C116.62 35.8519 116.94 35.777 117.319 35.777C117.699 35.777 118.019 35.8519 118.278 35.9968C118.533 36.1417 118.738 36.3315 118.893 36.5613C119.043 36.7911 119.153 37.0608 119.218 37.3656C119.283 37.6703 119.313 37.98 119.313 38.2948C119.313 38.6095 119.283 38.9142 119.218 39.2189ZM120.407 35.2824C120.037 34.9228 119.592 34.643 119.073 34.4432C118.553 34.2484 117.969 34.1484 117.324 34.1484C116.68 34.1484 116.105 34.2484 115.586 34.4432C115.071 34.638 114.627 34.9178 114.262 35.2824C113.892 35.6421 113.608 36.0817 113.408 36.5913C113.208 37.1008 113.103 37.6703 113.103 38.2997C113.103 38.9292 113.203 39.5037 113.408 40.0082C113.608 40.5128 113.892 40.9474 114.262 41.3071C114.632 41.6668 115.071 41.9465 115.586 42.1463C116.1 42.3412 116.68 42.4411 117.324 42.4411C117.969 42.4411 118.553 42.3412 119.073 42.1463C119.592 41.9515 120.037 41.6717 120.407 41.3071C120.776 40.9474 121.061 40.5128 121.261 40.0082C121.461 39.5037 121.561 38.9342 121.561 38.2997C121.561 37.6653 121.461 37.1008 121.261 36.5913C121.061 36.0817 120.776 35.6421 120.407 35.2824Z" fill="#455362"/>
<path d="M128.89 39.2478C128.825 39.5475 128.715 39.8073 128.56 40.0371C128.406 40.2669 128.206 40.4517 127.961 40.5966C127.716 40.7415 127.411 40.8114 127.047 40.8114C126.682 40.8114 126.367 40.7415 126.123 40.5966C125.878 40.4517 125.678 40.2669 125.523 40.0371C125.368 39.8073 125.258 39.5425 125.193 39.2478C125.128 38.9481 125.093 38.6384 125.093 38.3136C125.093 37.9889 125.123 37.6892 125.183 37.3745C125.243 37.0648 125.353 36.79 125.508 36.5602C125.663 36.3304 125.863 36.1406 126.108 35.9957C126.352 35.8508 126.657 35.7759 127.022 35.7759C127.386 35.7759 127.686 35.8508 127.931 35.9957C128.181 36.1406 128.381 36.3354 128.54 36.5702C128.7 36.805 128.81 37.0797 128.88 37.3845C128.95 37.6892 128.985 37.9989 128.985 38.3136C128.985 38.6284 128.955 38.9481 128.89 39.2478ZM130.334 35.4262C130.029 35.0416 129.644 34.7368 129.18 34.502C128.715 34.2672 128.166 34.1523 127.521 34.1523C127.017 34.1523 126.557 34.2473 126.133 34.4371C125.708 34.6269 125.363 34.9366 125.093 35.3613H125.054V34.3572H122.925V44.9977H125.173V41.256H125.208C125.478 41.6457 125.828 41.9404 126.262 42.1402C126.692 42.3401 127.157 42.445 127.656 42.445C128.261 42.445 128.785 42.3301 129.23 42.1003C129.679 41.8705 130.054 41.5707 130.354 41.1961C130.654 40.8214 130.878 40.3868 131.023 39.8972C131.168 39.4077 131.243 38.9031 131.243 38.3786C131.243 37.8191 131.168 37.2846 131.023 36.77C130.878 36.2555 130.649 35.8059 130.344 35.4262" fill="#455362"/>
<path d="M144.146 34.7829C143.881 34.5581 143.566 34.3932 143.197 34.2983C142.827 34.1984 142.432 34.1484 141.998 34.1484C141.428 34.1484 140.934 34.2783 140.519 34.5431C140.099 34.8079 139.77 35.1126 139.53 35.4573C139.31 34.9777 138.985 34.638 138.556 34.4432C138.126 34.2484 137.657 34.1484 137.142 34.1484C136.628 34.1484 136.138 34.2583 135.718 34.4831C135.299 34.7079 134.944 35.0227 134.654 35.4223H134.614V34.3533H132.501V42.2213H134.749V37.6553C134.749 37.2707 134.809 36.9609 134.924 36.7211C135.039 36.4814 135.179 36.2965 135.339 36.1716C135.499 36.0418 135.663 35.9568 135.833 35.9119C136.003 35.8669 136.143 35.8419 136.258 35.8419C136.623 35.8419 136.897 35.9019 137.082 36.0168C137.267 36.1317 137.397 36.2915 137.472 36.4814C137.547 36.6712 137.592 36.886 137.602 37.1208C137.617 37.3506 137.622 37.5804 137.622 37.8052V42.2163H139.86V37.8352C139.86 37.5904 139.88 37.3506 139.92 37.1108C139.96 36.876 140.035 36.6612 140.144 36.4714C140.254 36.2815 140.409 36.1317 140.599 36.0118C140.794 35.8969 141.049 35.8369 141.368 35.8369C141.688 35.8369 141.923 35.8869 142.113 35.9868C142.298 36.0867 142.437 36.2266 142.537 36.3964C142.632 36.5713 142.692 36.7711 142.712 37.0059C142.732 37.2407 142.742 37.4855 142.742 37.7502V42.2113H144.99V36.9459C144.99 36.4414 144.915 36.0068 144.77 35.6471C144.625 35.2874 144.421 34.9977 144.151 34.7679" fill="#455362"/>
<path d="M148.626 37.4455C148.636 37.2956 148.671 37.1258 148.726 36.931C148.781 36.7361 148.881 36.5563 149.026 36.3864C149.171 36.2166 149.36 36.0717 149.595 35.9568C149.835 35.8419 150.13 35.782 150.479 35.782C151.034 35.782 151.444 35.9219 151.708 36.2066C151.978 36.4864 152.163 36.906 152.268 37.4505H148.621L148.626 37.4455ZM153.642 35.5772C153.312 35.1426 152.887 34.7929 152.368 34.5381C151.853 34.2783 151.249 34.1484 150.559 34.1484C149.935 34.1484 149.365 34.2533 148.856 34.4682C148.346 34.683 147.907 34.9727 147.537 35.3424C147.167 35.712 146.888 36.1517 146.683 36.6612C146.483 37.1707 146.378 37.7153 146.378 38.2997C146.378 38.8842 146.478 39.4637 146.673 39.9733C146.868 40.4828 147.147 40.9174 147.502 41.2871C147.857 41.6518 148.296 41.9365 148.811 42.1413C149.325 42.3412 149.91 42.4461 150.554 42.4461C151.479 42.4461 152.268 42.2362 152.922 41.8216C153.577 41.407 154.061 40.7326 154.371 39.7934H152.398C152.328 40.0332 152.128 40.263 151.803 40.4828C151.479 40.7026 151.089 40.8125 150.634 40.8125C150 40.8125 149.515 40.6527 149.176 40.3329C148.841 40.0132 148.656 39.5087 148.631 38.8193H154.526C154.571 38.2048 154.516 37.6253 154.366 37.0658C154.216 36.5113 153.976 36.0118 153.647 35.5772" fill="#455362"/>
<path d="M162.839 35.0376C162.619 34.7579 162.314 34.5381 161.93 34.3832C161.545 34.2284 161.051 34.1484 160.451 34.1484C159.977 34.1484 159.512 34.2533 159.062 34.4682C158.613 34.683 158.243 35.0127 157.953 35.4573H157.903V34.3582H155.775V42.2263H158.023V38.0999C158.023 37.3006 158.158 36.7261 158.433 36.3765C158.708 36.0268 159.147 35.8519 159.757 35.8519C160.281 35.8519 160.651 36.0118 160.866 36.3315C161.081 36.6512 161.19 37.1358 161.19 37.7852V42.2312H163.438V37.3955C163.438 36.906 163.393 36.4614 163.304 36.0617C163.214 35.6621 163.059 35.3224 162.839 35.0426" fill="#455362"/>
<path d="M167.905 32H165.657V34.3529H164.298V35.8066H165.657V40.4425C165.657 40.8371 165.727 41.1569 165.861 41.4016C165.996 41.6464 166.186 41.8363 166.426 41.9711C166.666 42.106 166.941 42.1959 167.245 42.2409C167.55 42.2859 167.885 42.3108 168.234 42.3108C168.454 42.3108 168.684 42.3058 168.914 42.2958C169.144 42.2859 169.353 42.2659 169.543 42.2409V40.5574C169.333 40.5924 169.104 40.6123 168.849 40.6123C168.469 40.6123 168.214 40.5524 168.089 40.4275C167.965 40.3026 167.905 40.0628 167.905 39.6932V35.8066H169.543V34.3529H167.905V32Z" fill="#455362"/>
<path d="M181.877 38.1703C181.768 38.5999 181.588 38.9895 181.348 39.3342C181.103 39.6789 180.788 39.9537 180.399 40.1585C180.009 40.3633 179.535 40.4682 178.98 40.4682C178.425 40.4682 177.946 40.3633 177.561 40.1585C177.172 39.9537 176.857 39.6789 176.617 39.3342C176.377 38.9895 176.202 38.5999 176.093 38.1703C175.983 37.7407 175.928 37.2961 175.928 36.8365C175.928 36.3769 175.983 35.9023 176.093 35.4577C176.202 35.0131 176.377 34.6134 176.617 34.2588C176.857 33.9091 177.172 33.6293 177.561 33.4195C177.951 33.2097 178.425 33.1098 178.98 33.1098C179.535 33.1098 180.014 33.2147 180.399 33.4195C180.788 33.6293 181.103 33.9041 181.348 34.2588C181.593 34.6084 181.768 35.0081 181.877 35.4577C181.987 35.9023 182.042 36.3669 182.042 36.8365C182.042 37.306 181.987 37.7407 181.877 38.1703ZM183.051 32.7651C182.577 32.2455 182.002 31.8409 181.318 31.5462C180.634 31.2514 179.854 31.1016 178.975 31.1016C178.096 31.1016 177.321 31.2514 176.637 31.5462C175.953 31.8409 175.373 32.2505 174.899 32.7651C174.424 33.2846 174.059 33.8891 173.81 34.5885C173.56 35.2878 173.43 36.0372 173.43 36.8365C173.43 37.6358 173.555 38.3551 173.81 39.0445C174.059 39.7339 174.424 40.3334 174.899 40.8379C175.373 41.3474 175.953 41.7471 176.637 42.0418C177.321 42.3366 178.101 42.4864 178.975 42.4864C179.849 42.4864 180.634 42.3366 181.318 42.0418C182.002 41.7471 182.577 41.3425 183.051 40.8379C183.526 40.3284 183.891 39.7289 184.145 39.0445C184.4 38.3551 184.53 37.6208 184.53 36.8365C184.53 36.0522 184.4 35.2828 184.145 34.5885C183.891 33.8891 183.526 33.2846 183.051 32.7651Z" fill="#455362"/>
<path d="M197.644 34.7829C197.379 34.5581 197.064 34.3932 196.694 34.2983C196.325 34.1984 195.925 34.1484 195.495 34.1484C194.926 34.1484 194.431 34.2783 194.017 34.5431C193.597 34.8079 193.267 35.1126 193.028 35.4573C192.808 34.9777 192.483 34.638 192.054 34.4432C191.624 34.2484 191.154 34.1484 190.64 34.1484C190.125 34.1484 189.636 34.2583 189.221 34.4831C188.801 34.7079 188.447 35.0227 188.157 35.4223H188.117V34.3533H186.004V42.2213H188.252V37.6553C188.252 37.2707 188.312 36.9609 188.427 36.7211C188.542 36.4814 188.682 36.2965 188.841 36.1716C189.001 36.0418 189.166 35.9568 189.341 35.9119C189.511 35.8669 189.651 35.8419 189.766 35.8419C190.13 35.8419 190.405 35.9019 190.59 36.0168C190.775 36.1317 190.905 36.2915 190.979 36.4814C191.054 36.6762 191.099 36.886 191.109 37.1208C191.124 37.3506 191.129 37.5804 191.129 37.8052V42.2163H193.367V37.8352C193.367 37.5904 193.387 37.3506 193.427 37.1108C193.467 36.876 193.542 36.6612 193.652 36.4714C193.762 36.2815 193.917 36.1317 194.107 36.0118C194.302 35.8969 194.556 35.8369 194.876 35.8369C195.196 35.8369 195.431 35.8869 195.62 35.9868C195.805 36.0867 195.945 36.2266 196.045 36.3964C196.14 36.5713 196.2 36.7711 196.22 37.0059C196.24 37.2407 196.25 37.4855 196.25 37.7502V42.2113H198.498V36.9459C198.498 36.4414 198.423 36.0068 198.278 35.6471C198.133 35.2874 197.928 34.9977 197.659 34.7679" fill="#455362"/>
<path d="M205.366 39.1779C205.366 39.3078 205.351 39.4726 205.326 39.6724C205.301 39.8773 205.226 40.0721 205.111 40.2719C204.997 40.4667 204.817 40.6366 204.577 40.7765C204.337 40.9163 203.997 40.9863 203.553 40.9863C203.373 40.9863 203.198 40.9713 203.033 40.9413C202.868 40.9113 202.719 40.8614 202.589 40.7814C202.459 40.7065 202.359 40.6016 202.284 40.4767C202.214 40.3518 202.174 40.187 202.174 39.9872C202.174 39.7873 202.209 39.6225 202.284 39.4876C202.354 39.3527 202.454 39.2428 202.579 39.1579C202.704 39.073 202.843 39.003 202.998 38.9481C203.153 38.8931 203.323 38.8532 203.503 38.8282C203.673 38.7982 203.853 38.7732 204.032 38.7533C204.217 38.7333 204.387 38.7083 204.552 38.6783C204.717 38.6483 204.867 38.6084 205.012 38.5634C205.156 38.5185 205.276 38.4535 205.366 38.3736V39.1729V39.1779ZM207.604 40.4717V36.3854C207.604 35.9158 207.494 35.5361 207.274 35.2464C207.055 34.9516 206.77 34.7268 206.425 34.562C206.081 34.3971 205.696 34.2922 205.271 34.2373C204.847 34.1823 204.432 34.1523 204.017 34.1523C203.558 34.1523 203.108 34.1923 202.664 34.2822C202.219 34.3672 201.819 34.512 201.46 34.7118C201.105 34.9117 200.81 35.1814 200.575 35.5161C200.341 35.8508 200.216 36.2755 200.186 36.785H202.434C202.474 36.3604 202.619 36.0557 202.878 35.8708C203.133 35.686 203.478 35.5961 203.912 35.5961C204.117 35.5961 204.307 35.6061 204.482 35.631C204.657 35.656 204.807 35.706 204.937 35.7809C205.066 35.8608 205.171 35.9657 205.251 36.1006C205.331 36.2355 205.371 36.4203 205.371 36.6551C205.371 36.8899 205.296 37.0498 205.146 37.1647C204.997 37.2796 204.802 37.3695 204.552 37.4344C204.307 37.4944 204.022 37.5393 203.708 37.5693C203.393 37.5993 203.058 37.6392 202.709 37.6942C202.364 37.7441 202.029 37.8091 201.699 37.899C201.37 37.9889 201.07 38.1138 200.805 38.2837C200.54 38.4535 200.331 38.6833 200.171 38.9731C200.016 39.2628 199.936 39.6325 199.936 40.0771C199.936 40.4817 200.006 40.8314 200.146 41.1261C200.286 41.4209 200.486 41.6657 200.74 41.8605C200.995 42.0553 201.29 42.2002 201.63 42.2951C201.964 42.39 202.329 42.44 202.714 42.44C203.223 42.44 203.718 42.365 204.202 42.2152C204.687 42.0653 205.106 41.8155 205.466 41.4658C205.476 41.5957 205.496 41.7206 205.526 41.8505C205.551 41.9804 205.586 42.1053 205.626 42.2252H207.904C207.799 42.0603 207.724 41.8155 207.679 41.4908C207.634 41.1661 207.614 40.8264 207.614 40.4717" fill="#455362"/>
<path d="M216.336 35.0376C216.116 34.7579 215.811 34.5381 215.427 34.3832C215.042 34.2284 214.548 34.1484 213.948 34.1484C213.473 34.1484 213.009 34.2533 212.559 34.4682C212.11 34.683 211.74 35.0127 211.45 35.4573H211.4V34.3582H209.272V42.2263H211.52V38.0999C211.52 37.3006 211.655 36.7261 211.93 36.3765C212.205 36.0268 212.644 35.8519 213.254 35.8519C213.778 35.8519 214.148 36.0118 214.363 36.3315C214.577 36.6512 214.687 37.1358 214.687 37.7852V42.2312H216.935V37.3955C216.935 36.906 216.89 36.4614 216.806 36.0617C216.716 35.6621 216.561 35.3224 216.341 35.0426" fill="#455362"/>
<path d="M4.53974 25.0673C5.20415 25.0673 5.80861 24.9974 6.34813 24.8625C6.88765 24.7226 7.34724 24.4928 7.71691 24.1731C8.08658 23.8484 8.37133 23.4238 8.57115 22.8942C8.77097 22.3647 8.86589 21.7053 8.86589 20.911L8.88088 17.1094H6.86267V21.1808C6.86267 21.9251 6.67784 22.4596 6.30817 22.7743C5.93849 23.0941 5.364 23.2489 4.59469 23.2489C3.78041 23.2489 3.19094 23.0641 2.83126 22.6894C2.46658 22.3147 2.28674 21.7752 2.28674 21.0758V18.7729H0.258545V21.1458C0.258545 22.4396 0.618226 23.4138 1.33759 24.0782C2.05695 24.7376 3.126 25.0723 4.53474 25.0723" fill="#455362"/>
<path d="M4.62878 17.3445C4.9385 17.3445 5.19827 17.2396 5.41808 17.0248C5.63788 16.815 5.74779 16.5602 5.74779 16.2704C5.74779 15.9807 5.63788 15.7259 5.41808 15.5111C5.19827 15.2963 4.93351 15.1914 4.62878 15.1914C4.32405 15.1914 4.06428 15.2963 3.84448 15.5111C3.62467 15.7259 3.51477 15.9807 3.51477 16.2704C3.51477 16.5602 3.62467 16.815 3.84448 17.0248C4.06428 17.2346 4.32405 17.3445 4.62878 17.3445Z" fill="#455362"/>
<path d="M50.4481 11.8742C50.3632 11.8942 50.2682 11.9042 50.1733 11.9042C50.0634 11.9042 49.9335 11.8742 49.7887 11.8192C49.6438 11.7643 49.5689 11.6494 49.5689 11.4745C49.5689 11.3497 49.6138 11.2248 49.7037 11.1049C49.7937 10.985 49.9285 10.925 50.1034 10.925C50.2583 10.925 50.3881 10.995 50.493 11.1299C50.598 11.2647 50.6479 11.4546 50.6479 11.7043V11.8142C50.598 11.8342 50.533 11.8542 50.4481 11.8742ZM49.3491 13.6626C49.6338 13.6626 49.9036 13.6276 50.1484 13.5627C50.3981 13.4977 50.6029 13.3878 50.7728 13.233C50.9426 13.0781 51.0775 12.8783 51.1774 12.6335C51.2773 12.3887 51.3273 12.074 51.3273 11.6993C51.3273 11.1948 51.2074 10.8301 50.9676 10.6053C50.7278 10.3805 50.4431 10.2656 50.1084 10.2656C49.7737 10.2656 49.474 10.3805 49.2442 10.6103C49.0144 10.8401 48.8995 11.1349 48.8995 11.4895C48.8995 11.8142 49.0044 12.069 49.2192 12.2539C49.429 12.4437 49.7037 12.5336 50.0335 12.5336C50.2333 12.5336 50.4031 12.5086 50.553 12.4537C50.4831 12.6035 50.3532 12.7284 50.1633 12.8333C49.9785 12.9382 49.7087 12.9932 49.3541 12.9932C49.2941 12.9932 49.1892 12.9882 49.0343 12.9782C48.8845 12.9682 48.7396 12.9482 48.5997 12.9233V13.5727C48.7046 13.5977 48.8245 13.6176 48.9644 13.6326C49.1043 13.6476 49.2292 13.6526 49.3541 13.6526" fill="#455362"/>
<path d="M33.1052 20.9839C32.9253 21.1987 32.6656 21.3086 32.3309 21.3086C32.0611 21.3086 31.7913 21.2536 31.5216 21.1487C31.2518 21.0438 30.9871 20.9139 30.7223 20.7591C30.9171 20.1246 31.1419 19.655 31.4017 19.3553C31.6615 19.0556 31.9562 18.8907 32.2809 18.8707C32.4707 18.8707 32.6406 18.9057 32.7805 18.9756C32.9203 19.0456 33.0352 19.1455 33.1252 19.2654C33.2151 19.3853 33.28 19.5202 33.32 19.67C33.3599 19.8199 33.3799 19.9698 33.3799 20.1246C33.3799 20.4793 33.29 20.764 33.1102 20.9839M56.894 21.1987H54.4112C53.7768 21.1987 53.3372 21.0788 53.0774 20.839C52.8226 20.5992 52.6927 20.2745 52.6927 19.8748C52.6927 19.5152 52.8226 19.2054 53.0874 18.9557C53.3522 18.7009 53.7918 18.576 54.4062 18.576C54.5461 18.576 54.7859 18.601 55.1306 18.6509C55.4753 18.7009 55.81 18.7508 56.1347 18.8058V17.0124C55.9598 16.9424 55.7001 16.8725 55.3604 16.8026C55.0207 16.7326 54.681 16.6927 54.3363 16.6927C53.9167 16.6927 53.502 16.7576 53.0874 16.8825C52.6728 17.0074 52.2981 17.2022 51.9634 17.462C51.6287 17.7218 51.3539 18.0465 51.1491 18.4411C50.9393 18.8358 50.8344 19.2954 50.8344 19.8249C50.8344 20.0147 50.8594 20.2445 50.9143 20.5143C50.9643 20.784 51.0442 21.0138 51.1491 21.1987H36.8019C36.5421 21.1987 36.2724 21.1537 35.9926 21.0588C35.7129 20.9639 35.503 20.794 35.3682 20.5442C35.3682 20.4843 35.3682 20.4293 35.3682 20.3694C35.3682 20.3095 35.3682 20.2445 35.3682 20.1696C35.3682 19.715 35.2932 19.2954 35.1484 18.9107C35.0035 18.526 34.8037 18.2013 34.5439 17.9316C34.2891 17.6618 33.9794 17.452 33.6247 17.2971C33.265 17.1423 32.8854 17.0673 32.4807 17.0673C32.196 17.0673 31.9012 17.1073 31.6015 17.1822C31.3018 17.2572 31.002 17.407 30.7073 17.6218C30.4126 17.8366 30.1328 18.1414 29.8681 18.521C29.6083 18.9057 29.3685 19.4053 29.1487 20.0197C28.9988 20.4044 28.854 20.6991 28.7041 20.8989C28.5542 21.0987 28.3394 21.1987 28.0597 21.1987H14.172C14.172 21.1987 14.172 21.1987 14.167 21.1987H13.8773C13.6275 21.1987 13.4427 21.1537 13.3128 21.0588C13.1829 20.9639 13.118 20.7441 13.118 20.3894V12.1367H11.0748V20.6591C11.0748 21.0938 11.1347 21.4584 11.2546 21.7532C11.3745 22.0479 11.5443 22.2827 11.7592 22.4575C11.974 22.6324 12.2287 22.7573 12.5285 22.8322C12.8282 22.9071 13.1529 22.9471 13.5076 22.9471H14.167C14.167 22.9471 14.167 22.9471 14.172 22.9471H28.1995C28.5342 22.9471 28.844 22.9171 29.1337 22.8572C29.4185 22.7972 29.6982 22.6224 29.968 22.3277C30.4425 22.6174 30.8871 22.8272 31.3118 22.9471C31.7364 23.067 32.156 23.1319 32.5806 23.1319C33.1401 23.1319 33.6047 23.032 33.9644 22.8322C34.3291 22.6324 34.6188 22.3526 34.8386 21.9979C35.0684 22.3227 35.3532 22.5624 35.6879 22.7173C35.9876 22.8572 36.3123 22.9271 36.662 22.9471C36.702 22.9471 36.7419 22.9521 36.7869 22.9521H56.884V21.2037L56.894 21.1987Z" fill="#455362"/>
<path d="M61.6741 22.3976C61.9239 22.5874 62.2586 22.7273 62.6782 22.8172C63.0978 22.9021 63.6174 22.9471 64.2418 22.9471H73.6435V12.1367H71.5903V21.1987H64.8213C64.4616 21.1987 64.1719 21.1887 63.9371 21.1687C63.7073 21.1487 63.5225 21.1087 63.3876 21.0388C63.2527 20.9689 63.1578 20.8789 63.1028 20.7591C63.0479 20.6442 63.0229 20.4843 63.0229 20.2845V18.0515H60.9697V20.5442C60.9697 20.9789 61.0247 21.3485 61.1346 21.6533C61.2445 21.958 61.4243 22.2028 61.6741 22.3976Z" fill="#455362"/>
<path d="M69.0674 17.4991H68.2331C67.9783 17.4991 67.8085 17.4492 67.7186 17.3493C67.6286 17.2493 67.5837 17.1344 67.5837 16.9996C67.5837 16.8647 67.6286 16.7548 67.7186 16.6649C67.8085 16.5749 67.9534 16.53 68.1532 16.53C68.2681 16.53 68.4629 16.56 68.7377 16.6149V15.6158C68.6328 15.5808 68.5129 15.5459 68.373 15.5109C68.2331 15.4759 68.0832 15.4609 67.9134 15.4609C67.7435 15.4609 67.5637 15.4909 67.3939 15.5509C67.224 15.6108 67.0691 15.7007 66.9343 15.8156C66.7944 15.9305 66.6895 16.0804 66.6096 16.2552C66.5296 16.4301 66.4897 16.6399 66.4897 16.8697C66.4897 16.9496 66.4997 17.0545 66.5246 17.1844C66.5446 17.3143 66.5796 17.4142 66.6295 17.4891H65.9851V18.5432H69.0674V17.4891V17.4991Z" fill="#455362"/>
<path d="M100.505 20.9839C100.325 21.1987 100.065 21.3086 99.7303 21.3086C99.4605 21.3086 99.1908 21.2536 98.921 21.1487C98.6513 21.0438 98.3865 20.9139 98.1217 20.7591C98.3166 20.1246 98.5414 19.655 98.8011 19.3553C99.0609 19.0556 99.3556 18.8907 99.6803 18.8707C99.8752 18.8707 100.04 18.9057 100.18 18.9756C100.32 19.0456 100.435 19.1455 100.525 19.2654C100.615 19.3853 100.679 19.5202 100.719 19.67C100.759 19.8199 100.779 19.9698 100.779 20.1246C100.779 20.4793 100.689 20.764 100.505 20.9839ZM130.078 21.1987H129.104C128.485 21.1987 128.17 20.854 128.17 20.1596V17.5869H126.127V20.4793C126.127 20.789 126.022 20.9838 125.807 21.0688C125.592 21.1587 125.333 21.1987 125.023 21.1987C124.638 21.1987 124.353 21.1037 124.174 20.9189C123.994 20.7341 123.904 20.4793 123.904 20.1546V17.5819H121.891V20.4743C121.891 20.6491 121.871 20.784 121.826 20.8789C121.781 20.9739 121.711 21.0488 121.616 21.0987C121.521 21.1487 121.396 21.1787 121.251 21.1887C121.101 21.1987 120.911 21.1987 120.682 21.1987H104.206C103.947 21.1987 103.677 21.1537 103.397 21.0588C103.117 20.9639 102.907 20.794 102.768 20.5442C102.768 20.4843 102.768 20.4293 102.768 20.3694C102.768 20.3095 102.768 20.2445 102.768 20.1696C102.768 19.715 102.693 19.2954 102.548 18.9107C102.403 18.526 102.203 18.2013 101.948 17.9316C101.694 17.6618 101.384 17.452 101.029 17.2971C100.669 17.1423 100.29 17.0673 99.8852 17.0673C99.6004 17.0673 99.3057 17.1073 99.006 17.1822C98.7062 17.2572 98.4065 17.407 98.1117 17.6218C97.817 17.8366 97.5373 18.1414 97.2725 18.521C97.0127 18.9057 96.7729 19.4053 96.5531 20.0197C96.4033 20.4044 96.2584 20.6991 96.1085 20.8989C95.9587 21.0987 95.7439 21.1987 95.4641 21.1987H78.9388C78.9388 21.1987 78.9388 21.1987 78.9338 21.1987H78.6441C78.3943 21.1987 78.2095 21.1537 78.0796 21.0588C77.9497 20.9639 77.8847 20.7441 77.8847 20.3894V12.1367H75.8416V20.6591C75.8416 21.0938 75.9015 21.4584 76.0214 21.7532C76.1413 22.0479 76.3111 22.2827 76.5259 22.4575C76.7408 22.6324 76.9955 22.7573 77.2953 22.8322C77.595 22.9071 77.9197 22.9471 78.2744 22.9471H78.9338C78.9338 22.9471 78.9338 22.9471 78.9388 22.9471H95.604C95.9387 22.9471 96.2484 22.9171 96.5381 22.8572C96.8229 22.7972 97.1026 22.6224 97.3724 22.3277C97.847 22.6174 98.2916 22.8272 98.7162 22.9471C99.1408 23.067 99.5605 23.1319 99.9851 23.1319C100.545 23.1319 101.009 23.032 101.369 22.8322C101.734 22.6324 102.023 22.3526 102.243 21.9979C102.473 22.3227 102.758 22.5624 103.092 22.7173C103.392 22.8572 103.717 22.9271 104.066 22.9471C104.106 22.9471 104.146 22.9521 104.191 22.9521H120.642C121.341 22.9521 121.916 22.9071 122.365 22.8222C122.815 22.7323 123.184 22.5175 123.469 22.1678C123.624 22.3576 123.884 22.5375 124.244 22.7023C124.608 22.8672 125.053 22.9521 125.587 22.9521C125.757 22.9521 125.932 22.9471 126.117 22.9371C126.297 22.9271 126.482 22.8971 126.671 22.8472C126.861 22.7972 127.046 22.7173 127.226 22.6124C127.406 22.5075 127.571 22.3576 127.725 22.1678C127.925 22.4426 128.165 22.6424 128.45 22.7673C128.735 22.8922 129.154 22.9521 129.704 22.9521H132.122V16.9225H130.078V21.2037V21.1987Z" fill="#455362"/>
<path d="M136.257 12.1367H134.229V22.9421H136.257V12.1367Z" fill="#455362"/>
<path d="M136.661 10.1649H135.837C135.582 10.1649 135.413 10.12 135.328 10.025C135.238 9.93012 135.198 9.81523 135.198 9.67035C135.198 9.54047 135.243 9.42557 135.328 9.33565C135.418 9.24573 135.562 9.20077 135.762 9.20077C135.872 9.20077 136.062 9.23075 136.332 9.29569V8.29658C136.232 8.25661 136.117 8.21665 135.977 8.18667C135.837 8.1567 135.687 8.13672 135.522 8.13672C135.343 8.13672 135.163 8.16669 134.993 8.23163C134.818 8.29658 134.668 8.3865 134.533 8.4964C134.398 8.6113 134.293 8.75617 134.214 8.93101C134.134 9.10586 134.094 9.31567 134.094 9.54547C134.094 9.62539 134.104 9.7303 134.129 9.86019C134.149 9.99007 134.189 10.09 134.234 10.1599H133.604V11.234H136.661V10.1599V10.1649Z" fill="#455362"/>
<path d="M145.15 14.6268C145.46 14.6268 145.72 14.5219 145.939 14.3071C146.159 14.0973 146.269 13.8425 146.269 13.5428C146.269 13.2431 146.159 12.9983 145.939 12.7885C145.72 12.5787 145.455 12.4688 145.15 12.4688C144.845 12.4688 144.596 12.5737 144.371 12.7885C144.146 12.9983 144.036 13.2531 144.036 13.5428C144.036 13.8325 144.146 14.0923 144.371 14.3071C144.596 14.5169 144.855 14.6268 145.15 14.6268Z" fill="#455362"/>
<path d="M142.591 14.6268C142.891 14.6268 143.156 14.5219 143.376 14.3071C143.596 14.0973 143.705 13.8425 143.705 13.5428C143.705 13.2431 143.596 12.9983 143.376 12.7885C143.156 12.5787 142.896 12.4688 142.591 12.4688C142.287 12.4688 142.027 12.5737 141.807 12.7885C141.587 12.9983 141.477 13.2531 141.477 13.5428C141.477 13.8325 141.587 14.0923 141.807 14.3071C142.027 14.5169 142.287 14.6268 142.591 14.6268Z" fill="#455362"/>
<path d="M162.684 26.2385C162.904 26.0287 163.014 25.7739 163.014 25.4842C163.014 25.1945 162.904 24.9397 162.684 24.7299C162.464 24.5201 162.199 24.4102 161.895 24.4102C161.59 24.4102 161.33 24.5151 161.11 24.7299C160.891 24.9397 160.781 25.1945 160.781 25.4842C160.781 25.7739 160.891 26.0287 161.11 26.2385C161.33 26.4483 161.59 26.5582 161.895 26.5582C162.199 26.5582 162.464 26.4533 162.684 26.2385Z" fill="#455362"/>
<path d="M159.331 26.5582C159.636 26.5582 159.896 26.4533 160.115 26.2385C160.335 26.0287 160.445 25.7739 160.445 25.4842C160.445 25.1945 160.335 24.9397 160.115 24.7299C159.896 24.5201 159.636 24.4102 159.331 24.4102C159.026 24.4102 158.762 24.5151 158.542 24.7299C158.322 24.9397 158.212 25.1945 158.212 25.4842C158.212 25.7739 158.322 26.0287 158.542 26.2385C158.762 26.4483 159.026 26.5582 159.331 26.5582Z" fill="#455362"/>
<path d="M202.249 15.3807C202.548 15.3807 202.813 15.2758 203.033 15.061C203.253 14.8512 203.363 14.5964 203.363 14.3067C203.363 14.0169 203.253 13.7572 203.033 13.5424C202.813 13.3326 202.553 13.2227 202.249 13.2227C201.944 13.2227 201.679 13.3276 201.459 13.5424C201.24 13.7522 201.13 14.007 201.13 14.3067C201.13 14.6064 201.24 14.8512 201.459 15.061C201.679 15.2708 201.944 15.3807 202.249 15.3807Z" fill="#455362"/>
<path d="M179.803 20.9853C179.624 21.2001 179.364 21.31 179.029 21.31C178.759 21.31 178.49 21.2551 178.22 21.1502C177.95 21.0452 177.685 20.9154 177.421 20.7605C177.615 20.1261 177.84 19.6565 178.1 19.3568C178.36 19.057 178.654 18.8922 178.979 18.8722C179.174 18.8722 179.339 18.9072 179.479 18.9771C179.619 19.047 179.734 19.1469 179.823 19.2668C179.913 19.3867 179.978 19.5216 180.018 19.6715C180.058 19.8213 180.078 19.9712 180.078 20.1261C180.078 20.4808 179.988 20.7655 179.808 20.9853M144.375 20.0262C144.225 20.0811 144.08 20.1111 143.94 20.1161C143.8 20.1261 143.661 20.1261 143.526 20.1261C143.306 20.1261 143.126 20.0911 142.986 20.0212C142.846 19.9512 142.731 19.8613 142.646 19.7564C142.562 19.6515 142.502 19.5316 142.472 19.3967C142.442 19.2618 142.427 19.1369 142.427 19.0171C142.427 18.6873 142.522 18.4276 142.721 18.2328C142.916 18.0379 143.211 17.938 143.601 17.938H144.375V20.0262ZM201.259 22.9236C201.474 22.9086 201.679 22.8736 201.884 22.8237C202.084 22.7737 202.273 22.6938 202.448 22.5889C202.623 22.484 202.773 22.3441 202.903 22.1742C203.098 22.499 203.333 22.7088 203.612 22.8037C203.892 22.8986 204.187 22.9486 204.496 22.9486H216.291V16.9189H214.223V21.2001H204.501C203.997 21.2001 203.672 21.1202 203.522 20.9603C203.377 20.8005 203.303 20.5357 203.303 20.156V16.9139H201.259V20.3209C201.259 20.6906 201.189 20.9304 201.045 21.0353C200.9 21.1402 200.655 21.1951 200.3 21.1951H183.51C183.25 21.1951 182.981 21.1502 182.701 21.0552C182.421 20.9603 182.211 20.7905 182.076 20.5407C182.076 20.4808 182.076 20.4258 182.076 20.3659C182.076 20.3059 182.076 20.241 182.076 20.166C182.076 19.7114 182.002 19.2918 181.857 18.9072C181.712 18.5225 181.512 18.1978 181.252 17.928C180.997 17.6583 180.688 17.4484 180.333 17.2936C179.973 17.1387 179.594 17.0638 179.189 17.0638C178.904 17.0638 178.61 17.1038 178.31 17.1787C178.01 17.2536 177.71 17.4035 177.416 17.6183C177.121 17.8331 176.841 18.1378 176.576 18.5175C176.317 18.9022 176.077 19.4017 175.857 20.0162C175.707 20.4008 175.562 20.6956 175.412 20.8954C175.262 21.0952 175.048 21.1951 174.768 21.1951H163.518C163.018 21.1951 162.664 21.1152 162.459 20.9553C162.254 20.7955 162.149 20.5307 162.149 20.151V16.9089H160.111V20.3159C160.111 20.6856 160.036 20.9254 159.891 21.0303C159.746 21.1352 159.497 21.1901 159.147 21.1901H146.953C146.723 21.1901 146.573 21.1502 146.513 21.0652C146.448 20.9853 146.418 20.8254 146.418 20.5907V16.0547H143.746C143.366 16.0547 142.981 16.1096 142.592 16.2145C142.202 16.3195 141.847 16.4943 141.522 16.7391C141.203 16.9839 140.938 17.2986 140.733 17.6782C140.528 18.0629 140.428 18.5325 140.428 19.087C140.428 19.6415 140.533 20.1111 140.748 20.4708C140.963 20.8304 141.223 21.1102 141.537 21.315C141.847 21.5148 142.177 21.6547 142.522 21.7296C142.866 21.8046 143.171 21.8445 143.431 21.8445C143.616 21.8445 143.805 21.8296 143.995 21.8046C144.185 21.7796 144.37 21.7446 144.555 21.6997C144.64 21.9544 144.755 22.1593 144.904 22.3191C145.054 22.479 145.229 22.6039 145.429 22.6938C145.629 22.7837 145.844 22.8436 146.078 22.8786C146.313 22.9136 146.558 22.9286 146.813 22.9286H159.482C159.691 22.9286 159.901 22.9186 160.121 22.9036C160.336 22.8886 160.546 22.8536 160.74 22.8037C160.935 22.7537 161.125 22.6738 161.3 22.5689C161.48 22.464 161.635 22.3241 161.765 22.1543C161.854 22.3141 161.969 22.444 162.109 22.5439C162.254 22.6438 162.404 22.7238 162.559 22.7837C162.714 22.8436 162.879 22.8786 163.043 22.8986C163.208 22.9186 163.368 22.9286 163.518 22.9286H174.908C175.243 22.9286 175.552 22.8986 175.842 22.8387C176.127 22.7787 176.406 22.6039 176.676 22.3091C177.151 22.5989 177.595 22.8087 178.02 22.9286C178.445 23.0485 178.864 23.1134 179.289 23.1134C179.848 23.1134 180.313 23.0135 180.673 22.8137C181.037 22.6139 181.327 22.3341 181.547 21.9794C181.777 22.3041 182.061 22.5439 182.396 22.6988C182.696 22.8387 183.021 22.9086 183.37 22.9286C183.41 22.9286 183.45 22.9336 183.495 22.9336H200.625C200.835 22.9336 201.045 22.9236 201.259 22.9086" fill="#455362"/>
<path d="M213.618 15.3807C213.923 15.3807 214.183 15.2758 214.408 15.061C214.633 14.8512 214.742 14.5964 214.742 14.3067C214.742 14.0169 214.633 13.7572 214.408 13.5424C214.183 13.3326 213.923 13.2227 213.618 13.2227C213.314 13.2227 213.054 13.3276 212.834 13.5424C212.614 13.7522 212.504 14.007 212.504 14.3067C212.504 14.6064 212.614 14.8512 212.834 15.061C213.054 15.2708 213.314 15.3807 213.618 15.3807Z" fill="#455362"/>
<path d="M216.966 13.5463C216.746 13.3365 216.486 13.2266 216.181 13.2266C215.877 13.2266 215.617 13.3315 215.397 13.5463C215.177 13.7561 215.067 14.0109 215.067 14.3106C215.067 14.6103 215.177 14.8551 215.397 15.0649C215.617 15.2747 215.877 15.3846 216.181 15.3846C216.486 15.3846 216.746 15.2797 216.966 15.0649C217.186 14.8551 217.295 14.6003 217.295 14.3106C217.295 14.0209 217.186 13.7611 216.966 13.5463Z" fill="#455362"/>
</svg>
