<svg width="119" height="45" viewBox="0 0 119 45" fill="none" xmlns="http://www.w3.org/2000/svg">
<g clip-path="url(#clip0_1344_2992)">
<path d="M60.7375 31.0489H59.7361L60.6355 25.9609H61.6369L60.7375 31.0489Z" fill="#00517B"/>
<path d="M66.8268 26.7405H65.2408L64.4792 31.0489H63.4778L64.2394 26.7405H62.6533L62.7912 25.9609H66.9617L66.8268 26.7405Z" fill="#00517B"/>
<path d="M71.4081 31.0489H70.4067L70.7964 28.7852H68.6257L68.227 31.0489H67.2256L68.125 25.9609H69.1264L68.7787 27.9457H70.9583L71.3061 25.9609H72.3045L71.4081 31.0489Z" fill="#9EDAE5"/>
<path d="M77.5994 27.2757C77.2516 26.9279 76.8109 26.6731 76.1393 26.6731C75.2308 26.6731 74.4513 27.2937 74.2894 28.436C74.1275 29.5633 74.7481 30.3369 75.6296 30.3369C76.3252 30.3369 76.8079 30.058 77.2396 29.7102L77.1107 30.6427C76.661 30.9665 76.0583 31.1614 75.4317 31.1614C74.0585 31.1614 73.0242 30.067 73.252 28.421C73.4799 26.775 74.7361 25.8516 76.1453 25.8516C76.7719 25.8516 77.3746 26.0464 77.7223 26.3673L77.5934 27.2757H77.5994Z" fill="#00517B"/>
<path d="M80.9995 27.2592L79.9651 29.0911H81.3712L80.9995 27.2592ZM81.746 31.0489L81.5002 29.7926H79.5933L78.8797 31.0489H77.9143L80.8226 25.9609H81.6111L82.7234 31.0489H81.749H81.746Z" fill="#9EDAE5"/>
<path d="M90.4556 27.2412C90.0988 26.8844 89.6401 26.6296 88.9475 26.6296C87.9461 26.6296 87.1576 27.2922 86.9897 28.4345C86.8188 29.6038 87.4394 30.4193 88.4048 30.4193C88.7346 30.4193 88.9895 30.3413 89.2264 30.2154L89.4032 29.199H88.5638L88.6897 28.4435H90.4796L90.0808 30.6921C89.802 30.812 89.1814 31.1928 88.2579 31.1928C86.7828 31.1928 85.7484 30.0655 85.9763 28.4195C86.2042 26.7735 87.4364 25.832 88.9865 25.832C89.6131 25.832 90.2337 26.0179 90.5905 26.3417L90.4556 27.2412Z" fill="#9EDAE5"/>
<path d="M94.1194 26.6706H93.4418L93.145 28.3166H93.8316C94.4492 28.3166 94.746 27.9868 94.833 27.5191C94.9169 27.0514 94.7221 26.6706 94.1194 26.6706ZM95.7145 31.003C95.5196 31.072 95.2407 31.1049 95.0698 31.1049C94.5092 31.1049 94.1104 30.8321 93.9005 30.1635L93.5438 29.0272H93.0191L92.6623 31.045H91.6609L92.5603 25.957H94.4522C95.5376 25.957 95.9543 26.7546 95.8104 27.5761C95.6905 28.2716 95.2257 28.8143 94.4792 28.9672L94.785 29.8067C94.9529 30.2744 95.1658 30.4273 95.5136 30.4273C95.6065 30.4273 95.7175 30.4094 95.8284 30.3764L95.7175 31.003H95.7145Z" fill="#9EDAE5"/>
<path d="M97.9871 28.4908C97.8252 29.6451 98.4189 30.3827 99.3273 30.3827C100.185 30.3827 100.988 29.7051 101.15 28.5268C101.312 27.3485 100.718 26.6349 99.819 26.6349C98.9196 26.6349 98.158 27.3035 97.9871 28.4908ZM102.194 28.5508C101.975 30.1098 100.718 31.1952 99.2344 31.1952C97.7503 31.1952 96.7339 30.0259 96.9527 28.4638C97.1746 26.9048 98.4099 25.8164 99.912 25.8164C101.414 25.8164 102.415 26.9857 102.194 28.5478" fill="#9EDAE5"/>
<path d="M107.953 28.7013C107.647 30.4223 106.673 31.1958 105.426 31.1958C104.179 31.1958 103.255 30.4253 103.561 28.7013L104.044 25.9609H105.054L104.571 28.6503C104.358 29.8106 104.748 30.3383 105.537 30.3383C106.256 30.3383 106.784 29.8136 106.988 28.6503L107.462 25.9609H108.436L107.953 28.7013Z" fill="#9EDAE5"/>
<path d="M111.626 26.6715H110.948L110.634 28.4015H111.32C111.938 28.4015 112.235 28.0297 112.322 27.562C112.406 27.0943 112.22 26.6715 111.626 26.6715ZM111.482 29.115H110.508L110.169 31.0489H109.167L110.067 25.9609H111.899C113.017 25.9609 113.443 26.7914 113.29 27.6399C113.137 28.4794 112.585 29.115 111.485 29.115" fill="#9EDAE5"/>
<path d="M58.0152 20.1236H56.4891C56.1323 20.1236 55.8595 20.0037 55.6706 19.7638C55.4727 19.539 55.3738 19.2511 55.3738 18.8944C55.3738 18.4986 55.4877 18.1598 55.7156 17.884C55.9434 17.6081 56.2373 17.4672 56.603 17.4672C57.3556 17.4672 57.8353 17.9439 58.0422 18.8944C58.2161 18.6635 58.303 18.3517 58.303 17.9649C58.303 17.5782 58.1531 17.2663 57.8503 17.0145C57.5475 16.7626 57.1277 16.6367 56.591 16.6367C55.9284 16.6367 55.3978 16.8736 54.996 17.3443C54.5942 17.815 54.3934 18.3787 54.3934 19.0323C54.3934 19.47 54.4803 19.8358 54.6542 20.1236H53.9346L53.7607 20.8312H58.6988C58.5009 20.3605 58.273 20.1236 58.0152 20.1236Z" fill="#00517B"/>
<path d="M67.9902 17.643C67.8582 17.61 67.6814 17.592 67.4565 17.592H64.8001L65.4447 16.6116C65.8165 16.0239 66.1613 15.6222 66.4731 15.4003C66.7879 15.1814 67.1926 15.0555 67.6903 15.0225C67.3276 14.6927 67.0157 14.5038 66.7609 14.4649C65.9094 14.3329 65.1419 14.7917 64.4643 15.841L62.6414 18.6204H67.1837C67.5464 18.6204 67.8373 18.6534 68.0531 18.7193C68.269 18.7853 68.4669 18.9382 68.6498 19.178C68.7997 19.3849 68.8357 19.6338 68.7607 19.9216H61.4781C61.1723 19.9216 61.0193 19.7987 61.0193 19.5498C61.0193 19.4749 61.0313 19.3879 61.0553 19.289L62.1797 14.3959C62.2546 14.0721 61.9488 13.7903 61.634 13.8862L61.2622 14.0001C61.0673 14.0601 60.9534 14.246 60.9624 14.4499C60.9684 14.5938 60.9504 14.7497 60.9114 14.9176L59.868 19.4209C59.8351 19.5618 59.8201 19.6787 59.8201 19.7687C59.8201 20.0985 59.946 20.3593 60.1978 20.5452C60.4497 20.7311 60.7405 20.8241 61.0733 20.8241H69.0126C69.3603 20.8241 69.6002 20.5962 69.7321 20.1405C69.7561 20.0745 69.7771 19.9366 69.7951 19.7297C69.8281 19.259 69.7261 18.8362 69.4863 18.4645C69.1954 18.0687 68.7007 17.7899 67.9962 17.634" fill="#00517B"/>
<path d="M74.865 15.4986C74.0615 15.3427 73.285 15.4237 72.5324 15.7475C71.8369 16.0863 71.4291 16.53 71.3032 17.0757C71.2372 17.3665 71.2492 17.6214 71.3392 17.8432C71.4291 18.0651 71.567 18.2 71.7499 18.242C71.9658 18.284 72.2596 18.212 72.6314 18.0321C72.4335 17.9332 72.3136 17.7953 72.2716 17.6214C72.2296 17.4475 72.2896 17.2706 72.4515 17.0877C72.6134 16.9048 72.8682 16.7729 73.213 16.6889C73.7257 16.566 74.2474 16.566 74.7751 16.6889C75.1409 16.7729 75.3987 16.9168 75.5576 17.1237C75.7135 17.3305 75.7615 17.5704 75.6955 17.8432C75.5217 18.6018 75.3897 19.1534 75.2938 19.5012C75.2248 19.7561 74.991 19.927 74.7271 19.927H71.3781C71.1893 19.927 70.9884 20.2298 70.7815 20.8324H75.5336C75.7525 20.8324 75.9594 20.7185 76.0553 20.5206C76.2622 20.0979 76.5051 19.2794 76.7869 18.0651C76.9338 17.4295 76.8529 16.8778 76.538 16.4161C76.2232 15.9604 75.6656 15.6545 74.862 15.4986" fill="#00517B"/>
<path d="M73.3061 14.0911C73.5369 14.325 73.9117 14.325 74.1426 14.0941L74.1726 14.0641C74.4034 13.8333 74.4034 13.4615 74.1726 13.2306C73.9447 13.0028 73.5729 12.9998 73.342 13.2306L73.3091 13.2606C73.0782 13.4885 73.0752 13.8632 73.3031 14.0941L73.3061 14.0911Z" fill="#00517B"/>
<path d="M79.8302 13.8736L79.3774 14.0146C79.1945 14.0715 79.0866 14.2454 79.1046 14.4343C79.1166 14.5902 79.1046 14.7611 79.0596 14.938L77.8424 20.1849C77.8334 20.2418 77.7764 20.4787 77.6685 20.8924C77.8753 20.8924 78.0822 20.8565 78.2891 20.7815C78.7118 20.6256 78.9637 20.3588 79.0476 19.987L80.3339 14.3384C80.4028 14.0415 80.124 13.7837 79.8332 13.8736" fill="#00517B"/>
<path d="M78.9846 23.0017H78.313C78.172 23.0017 78.0551 22.9508 77.9652 22.8518C77.8752 22.7529 77.8302 22.63 77.8302 22.4801C77.8392 22.2972 77.8902 22.1473 77.9861 22.0273C78.0821 21.9074 78.205 21.8474 78.3519 21.8474C78.6757 21.8474 78.8856 22.0513 78.9846 22.4561C79.0685 22.3571 79.1045 22.2252 79.0955 22.0573C79.0865 21.8924 79.0295 21.7605 78.9216 21.6615C78.7897 21.5206 78.5828 21.4577 78.301 21.4757C78.0191 21.4936 77.7973 21.6136 77.6324 21.8354C77.4825 22.0183 77.4045 22.2342 77.3955 22.4861C77.3865 22.7379 77.4285 22.9178 77.5214 23.0257C77.3715 23.0257 77.2696 23.0227 77.2126 23.0137L77.1497 23.3226L78.1061 23.3106H78.3429L79.2874 23.2866C79.2034 23.0977 79.1045 23.0017 78.9905 23.0017" fill="#00517B"/>
<path d="M87.8232 14.4729L87.8472 14.449C88.0781 14.2181 88.0781 13.8463 87.8472 13.6185C87.6164 13.3876 87.2446 13.3876 87.0167 13.6185L86.9927 13.6424C86.7619 13.8733 86.7619 14.2451 86.9927 14.4729C87.2236 14.7038 87.5954 14.7038 87.8232 14.4729Z" fill="#00517B"/>
<path d="M85.6135 14.4729L85.6375 14.449C85.8684 14.2181 85.8684 13.8463 85.6375 13.6185C85.4066 13.3876 85.0349 13.3876 84.807 13.6185L84.783 13.6424C84.5521 13.8733 84.5521 14.2451 84.783 14.4729C85.0139 14.7038 85.3856 14.7038 85.6135 14.4729Z" fill="#00517B"/>
<path d="M85.8955 17.6055C85.7276 18.1451 85.5207 18.6189 85.2718 19.0326C84.942 19.5783 84.5643 19.8601 84.1415 19.8751C84.0006 19.8751 83.8927 19.7972 83.8177 19.6383C83.7338 19.4734 83.7098 19.2365 83.7428 18.9307C83.7997 18.343 84.0516 17.8183 84.4983 17.3536C84.6632 17.1827 84.8431 17.0388 85.035 16.9219C85.4847 16.652 86.0454 17.0988 85.8895 17.5995M92.6234 19.9201H90.8605C90.4138 19.9201 90.066 19.7762 89.8171 19.4853C89.5683 19.1945 89.4453 18.8108 89.4453 18.331C89.4453 17.8183 89.5893 17.3806 89.8801 17.0208C90.1679 16.661 90.5457 16.4811 91.0074 16.4811C91.9668 16.4811 92.5905 17.0988 92.8813 18.331C93.1032 18.0252 93.2171 17.6295 93.2171 17.1408C93.2171 16.652 93.0222 16.2353 92.6354 15.9115C92.2457 15.5877 91.7 15.4258 90.9984 15.4258C90.1379 15.4258 89.4513 15.7316 88.9387 16.3372C88.426 16.9459 88.1681 17.6684 88.1681 18.5019C88.1681 19.0656 88.276 19.5363 88.4919 19.9171H86.9658C86.675 19.9171 86.5311 19.7972 86.5311 19.5573C86.5311 19.4823 86.5431 19.4044 86.5671 19.3204C86.723 18.7088 86.8909 18.0732 87.0618 17.4166C87.2357 16.76 87.3526 16.3132 87.4156 16.0764C87.4785 15.8395 87.5085 15.7106 87.5085 15.6866C86.9718 15.4708 86.4052 15.4078 85.8085 15.4947C85.2119 15.5817 84.6872 15.7706 84.2315 16.0584C83.8177 16.3312 83.4579 16.709 83.1521 17.1887C82.8463 17.6684 82.6604 18.2351 82.5945 18.8887C82.5195 19.5333 82.5915 20.043 82.8043 20.4148C83.0202 20.7866 83.359 20.9725 83.8207 20.9725C84.3994 20.9725 84.9091 20.6427 85.3468 19.98C85.4038 20.2439 85.5477 20.4508 85.7755 20.6007C86.0034 20.7506 86.2792 20.8225 86.6 20.8225H93.4869C93.2561 20.2199 92.9652 19.9171 92.6174 19.9171" fill="#00517B"/>
<path d="M108.625 22.089L108.547 22.1729C108.34 22.4008 108.349 22.7516 108.565 22.9705C108.799 23.2043 109.18 23.1953 109.401 22.9495L109.479 22.8655C109.686 22.6377 109.677 22.2869 109.461 22.068C109.228 21.8342 108.847 21.8431 108.625 22.089Z" fill="#00517B"/>
<path d="M116.861 19.2814C116.711 19.5872 116.513 19.7971 116.264 19.914C116.015 20.0309 115.764 20.0249 115.509 19.902C115.383 19.851 115.272 19.7701 115.167 19.6532C115.062 19.5362 115.014 19.4553 115.023 19.4043L115.719 16.4271C116.024 16.3371 116.333 16.3971 116.648 16.607C116.963 16.8169 117.14 17.1916 117.182 17.7313C117.215 18.253 117.107 18.7687 116.858 19.2814M103.285 19.2814C103.135 19.5872 102.937 19.7971 102.688 19.914C102.44 20.0369 102.188 20.0339 101.933 19.902C101.807 19.851 101.696 19.7701 101.591 19.6532C101.486 19.5362 101.438 19.4553 101.447 19.4043L102.143 16.4271C102.44 16.3371 102.751 16.3971 103.072 16.607C103.396 16.8169 103.57 17.1916 103.594 17.7313C103.636 18.268 103.531 18.7867 103.285 19.2814ZM118.309 17.5304C118.144 16.655 117.688 16.0373 116.945 15.6805C116.573 15.4917 116.174 15.3927 115.755 15.3897C115.518 15.3897 115.305 15.4077 115.119 15.4467C114.885 15.4977 114.711 15.6895 114.654 15.9234L113.869 19.2154C113.803 19.4043 113.743 19.5422 113.689 19.6262C113.635 19.7101 113.527 19.7791 113.359 19.8361C113.194 19.893 112.948 19.923 112.627 19.923H111.398C111.383 19.872 111.329 19.7581 111.236 19.5752C111.08 19.2934 110.927 19.0295 110.778 18.7807C110.628 18.5318 110.367 18.1181 109.995 17.5394C109.623 16.9608 109.251 16.4841 108.886 16.1123C108.517 15.7405 108.196 15.5246 107.923 15.4677C107.27 15.3447 106.775 15.4317 106.433 15.7285C106.25 15.8784 106.118 16.0313 106.037 16.1932C105.953 16.3551 105.932 16.568 105.974 16.8319C106.016 17.0957 106.139 17.4015 106.346 17.7493C106.472 17.3925 106.637 17.1377 106.844 16.9788C107.051 16.8229 107.261 16.7599 107.471 16.7929C107.68 16.8259 107.884 16.9068 108.079 17.0357C108.274 17.1647 108.442 17.3266 108.583 17.5274C108.94 18.0371 109.278 18.5378 109.596 19.0265C109.848 19.4133 109.572 19.923 109.111 19.923H105.021C104.715 19.923 104.562 19.7971 104.562 19.5512C104.562 19.5182 104.571 19.4343 104.586 19.3024C104.694 19.0055 104.757 18.6877 104.778 18.3519C104.799 18.0161 104.772 17.6803 104.697 17.3415C104.622 17.0027 104.472 16.6849 104.244 16.3851C104.017 16.0883 103.726 15.8514 103.369 15.6775C102.997 15.4887 102.598 15.3897 102.173 15.3867C102.029 15.3867 101.894 15.3927 101.771 15.4047C101.414 15.4467 101.129 15.7165 101.045 16.0643L100.293 19.2124C100.227 19.4013 100.167 19.5392 100.113 19.6232C100.059 19.7071 99.951 19.7761 99.7861 19.8331C99.6212 19.89 99.3754 19.92 99.0546 19.92H98.7697C98.4639 19.92 98.311 19.8001 98.311 19.5602C98.311 19.5362 98.32 19.4823 98.335 19.3983C98.335 19.3803 98.365 19.2544 98.4219 19.0145L98.9976 16.508C99.0785 16.1603 98.8927 15.7975 98.5569 15.6745C98.1791 15.5366 97.7983 15.4677 97.4145 15.4677C96.8269 15.4677 96.2842 15.6536 95.7895 16.0253C95.2918 16.3971 94.911 16.8618 94.6412 17.4225C94.3714 17.9802 94.2365 18.5498 94.2365 19.1285C94.2365 20.2618 94.6982 20.8285 95.6276 20.8285C95.9244 20.8285 96.2123 20.7175 96.4911 20.4987C96.7669 20.2798 96.9078 20.0459 96.9078 19.7971C96.9078 19.5482 96.8119 19.2814 96.623 19.0145C96.572 19.2124 96.4641 19.3983 96.2992 19.5722C96.1343 19.7461 95.9754 19.8331 95.8285 19.8331C95.5647 19.8331 95.4297 19.6142 95.4297 19.1764C95.4297 18.5468 95.6246 17.9412 96.0114 17.3535C96.4012 16.7659 96.8629 16.4721 97.4025 16.4721C97.5854 16.4721 97.7294 16.502 97.8373 16.559L97.4895 18.1091L97.1807 19.4493L97.0338 20.0579L96.9078 20.6036C96.8119 21.0113 96.686 21.3082 96.5301 21.5001C96.4881 21.551 96.4401 21.596 96.3832 21.632C96.1793 21.7669 95.8945 21.8329 95.5317 21.8329H95.3458C95.7026 22.2316 96.0863 22.4295 96.5001 22.4295C97.0458 22.4295 97.4385 22.2076 97.6784 21.7609C97.7953 21.587 97.9062 21.2602 98.0142 20.7805C98.1131 20.8135 98.2301 20.8315 98.362 20.8315H100.359C100.797 20.8315 101.078 20.7145 101.201 20.4837C101.357 20.6666 101.528 20.7985 101.711 20.8824C102.455 21.2542 103.15 21.1553 103.795 20.5856C103.861 20.6366 103.933 20.6785 104.005 20.7115C104.161 20.7955 104.364 20.8344 104.613 20.8344H113.944C114.372 20.8344 114.654 20.7175 114.786 20.4867C114.942 20.6695 115.113 20.8015 115.296 20.8854C115.611 21.0263 115.925 21.0923 116.243 21.0833C116.561 21.0743 116.879 20.9544 117.2 20.7235C117.517 20.4927 117.781 20.1659 117.988 19.7431C118.345 19.0475 118.45 18.313 118.312 17.5334" fill="#00517B"/>
<path d="M49.0115 6.47656V38.5243" stroke="#00517B" stroke-width="0.09" stroke-miterlimit="10"/>
<path d="M44.7602 24.8371C44.7752 24.6812 44.7872 24.5253 44.7991 24.3694L36.9349 29.2924L44.6732 22.9662L35.5167 26.3782L44.3914 21.68L34.6023 23.0472L43.9177 20.4567L34.3204 19.8181L44.1755 19.1615L34.6442 16.3612L44.2205 17.8423L35.5347 13.2101L44.0616 16.4211C44.0166 16.2562 43.9686 16.0913 43.9207 15.9294L37.0548 10.1519L43.324 14.1995C42.9403 13.2221 42.4875 12.2776 41.9778 11.3752L38.9557 7.65441L40.5927 9.23146C36.8839 4.11353 31.0884 0.617629 24.4564 0C23.8477 0 23.323 1.26224 22.7894 1.96082C24.3154 1.96382 25.7306 1.81691 27.1967 2.14671C26.738 2.74036 26.1563 3.08215 25.6017 3.61883C25.8895 3.71177 26.0904 3.77174 26.2913 3.8407C27.3916 4.20947 28.411 4.74016 29.1275 5.6696C29.973 6.76394 30.8035 7.85529 31.8949 8.72177C32.2097 8.97062 32.0868 9.08455 31.76 9.15051C31.4242 9.21647 31.0944 9.34239 30.7556 9.37538C30.117 9.43534 30.105 9.68119 30.4827 10.1039C30.5817 10.2149 30.6566 10.3498 30.7346 10.4787C32.5605 13.5249 33.4689 16.73 32.4136 20.2738C32.2487 20.8285 32.1767 21.4102 32.0418 21.9738C31.8769 22.6604 32.0418 23.254 32.5095 23.7667C33.1661 24.4803 33.8167 25.1969 34.4943 25.8865C35.6816 27.0977 35.3728 28.5699 33.7658 29.1755C33.427 29.3014 33.358 29.4633 33.5349 29.7422C33.7868 30.1409 34.0566 30.5307 34.3234 30.9204C34.8691 31.718 34.8391 32.1617 34.1735 32.8603C34.0566 32.9832 33.9217 33.0342 34.0506 33.268C34.6023 34.2784 34.5723 34.4014 33.6398 35.1089C33.2171 35.4297 32.9682 35.7775 32.9772 36.3472C33.0162 38.6348 32.1018 39.6872 29.8231 40.029C28.0182 40.2988 26.2133 40.1369 24.4114 39.99C22.7054 39.8551 21.9229 40.4128 21.5031 42.1037C21.2693 43.0452 21.1583 44.0016 21.0834 44.964C21.4971 44.988 21.9139 45 22.3366 45C31.4631 45 39.3184 39.5733 42.8683 31.7749L41.2523 34.0506L43.8007 29.3704C44.0856 28.4889 44.3134 27.5835 44.4903 26.657L38.9587 31.9848L44.7632 24.8371H44.7602Z" fill="#00517B"/>
<path d="M1.56211 30.8047C1.56211 30.8047 1.55312 30.8197 1.54712 30.8257L1.5771 30.8437C1.5771 30.8437 1.56811 30.8167 1.56211 30.8047Z" fill="#9EDAE5"/>
<path d="M4.07145 29.8546L1.58594 30.6761C1.58594 30.6761 1.58594 30.6791 1.58594 30.6821L4.07444 29.8576V29.8516L4.07145 29.8546Z" fill="#9EDAE5"/>
<path d="M4.26033 25.1662L4.25433 25.1602L3.00708 27.6007L3.01308 27.5977L4.26033 25.1662Z" fill="#9EDAE5"/>
<path d="M4.67411 24.3438L4.26636 25.1383L4.27235 25.1413L4.68011 24.3438H4.67411Z" fill="#9EDAE5"/>
<path d="M6.41322 21.3858C6.41322 21.3858 6.41022 21.3858 6.40723 21.3888L9.19256 25.1605H9.20155L6.41322 21.3828V21.3858Z" fill="#9EDAE5"/>
<path d="M2.92917 27.75L1.49902 30.5443C1.49902 30.5443 1.50202 30.5443 1.50502 30.5473L2.93516 27.756V27.75H2.92917Z" fill="#9EDAE5"/>
<path d="M2.9982 27.6163L2.93524 27.7392L2.93824 27.7452L3.0072 27.6133L2.9982 27.6163Z" fill="#9EDAE5"/>
<path d="M4.0835 29.8545L4.08949 29.8605L6.27518 29.1349V29.1289L4.0835 29.8545Z" fill="#9EDAE5"/>
<path d="M9.22555 25.1983L9.21655 25.1953L9.78021 25.9599L9.78921 25.9569L9.22555 25.1983Z" fill="#9EDAE5"/>
<path d="M9.79806 25.9688L9.78906 25.9717L10.2058 26.5354L10.2118 26.5294L9.79806 25.9688Z" fill="#9EDAE5"/>
<path d="M11.0035 27.6002L10.2269 26.5508H10.2209L10.9945 27.6032C10.9945 27.6032 10.9975 27.6031 11.0005 27.6002" fill="#9EDAE5"/>
<path d="M6.17639 21.4023L4.68628 24.3136H4.69228L6.18238 21.4053C6.18238 21.4053 6.17938 21.4053 6.17639 21.4023Z" fill="#9EDAE5"/>
<path d="M10.9285 27.8008L7.87036 28.6133C7.87036 28.6133 7.87036 28.6163 7.87036 28.6193L10.9285 27.8068C10.9285 27.8068 10.9285 27.8038 10.9285 27.8008Z" fill="#9EDAE5"/>
<path d="M7.48646 28.7266L6.28418 29.1253V29.1313L7.48946 28.7326V28.7266" fill="#9EDAE5"/>
<path d="M26.591 20.268L26.7739 19.3116L26.7679 19.3086L26.582 20.265L26.591 20.268Z" fill="#9EDAE5"/>
<path d="M21.812 28.0373H21.821L22.7385 27.0898H22.7295L21.812 28.0373Z" fill="#9EDAE5"/>
<path d="M22.7504 27.0785L25.7457 23.9874C25.7457 23.9874 25.7427 23.9874 25.7397 23.9844L22.7415 27.0785H22.7504Z" fill="#9EDAE5"/>
<path d="M27.0828 17.707H27.0768L26.771 19.2931H26.777L27.0828 17.707Z" fill="#9EDAE5"/>
<path d="M25.9375 23.6153C25.9375 23.6153 25.9405 23.6153 25.9435 23.6153L26.5881 20.2812H26.5821L25.9375 23.6153Z" fill="#9EDAE5"/>
<path d="M18.5979 31.3518C18.5979 31.3518 18.6009 31.3518 18.6039 31.3548L21.809 28.0508H21.803L18.6009 31.3518H18.5979Z" fill="#9EDAE5"/>
<path d="M27.2596 4.25391L27.2327 5.5971C27.2327 5.5971 27.2357 5.5971 27.2387 5.5971L27.2656 4.2569C27.2656 4.2569 27.2596 4.2569 27.2596 4.25391Z" fill="#9EDAE5"/>
<path d="M27.2747 5.60517C27.2747 5.60517 27.2777 5.60517 27.2807 5.60517L27.5176 4.3819C27.5176 4.3819 27.5146 4.3819 27.5116 4.37891L27.2717 5.60517H27.2747Z" fill="#9EDAE5"/>
<path d="M22.6304 0.745354L23.6888 0.136719C23.6888 0.136719 23.6798 0.136719 23.6768 0.136719L22.6274 0.742355C22.6274 0.742355 22.6274 0.745354 22.6304 0.748352" fill="#9EDAE5"/>
<path d="M20.6276 6.51684L21.4281 4.07031H21.4221L20.6216 6.51684H20.6276Z" fill="#9EDAE5"/>
<path d="M13.0842 6.94519L12.5355 4.30078H12.5295L13.0812 6.94819C13.0812 6.94819 13.0842 6.94819 13.0872 6.94819" fill="#9EDAE5"/>
<path d="M15.0419 7.10156L13.4319 7.2065C13.4319 7.2065 13.4319 7.2095 13.4319 7.2125L15.0389 7.10756V7.10156H15.0419Z" fill="#9EDAE5"/>
<path d="M22.1746 1.78634L22.1686 1.77734L21.425 4.05897L21.431 4.05598L22.1746 1.78634Z" fill="#9EDAE5"/>
<path d="M12.5294 4.28474L12.1786 2.59375C12.1786 2.59375 12.1756 2.59375 12.1726 2.59675L12.5234 4.28474H12.5294Z" fill="#9EDAE5"/>
<path d="M7.53739 7.63281H7.53139L7.27954 8.77813C7.27954 8.77813 7.28254 8.77813 7.28554 8.77813L7.53739 7.63281Z" fill="#9EDAE5"/>
<path d="M7.8613 6.16434L7.8553 6.15234L7.53149 7.62746H7.53749L7.8613 6.16434Z" fill="#9EDAE5"/>
<path d="M7.86433 6.14427L8.04122 5.34375C8.04122 5.34375 8.03522 5.34975 8.03223 5.34975L7.86133 6.13228L7.86732 6.14127L7.86433 6.14427Z" fill="#9EDAE5"/>
<path d="M5.27089 8.10547C5.27089 8.10547 5.26789 8.10847 5.26489 8.11146L6.9169 8.95096C6.9169 8.95096 6.9169 8.94796 6.9199 8.94496L5.26789 8.10547H5.27089Z" fill="#9EDAE5"/>
<path d="M16.3732 7.02162V7.01562L15.072 7.09957L15.069 7.10557L16.3732 7.02162Z" fill="#9EDAE5"/>
<path d="M20.3128 6.76381C20.3128 6.76381 20.3128 6.76081 20.3128 6.75781L16.3822 7.01266V7.01866L20.3128 6.76381Z" fill="#9EDAE5"/>
<path d="M22.1748 1.76482L22.1808 1.77081L22.4356 0.988281H22.4297L22.1748 1.76482Z" fill="#9EDAE5"/>
<path d="M1.95472 18.7405L1.17219 15.3945C1.17219 15.3945 1.17219 15.4035 1.16919 15.4065L1.94872 18.7405H1.95472Z" fill="#9EDAE5"/>
<path d="M1.95473 18.7461H1.94873L3.12103 23.7531C3.12103 23.7531 3.12403 23.7531 3.12702 23.7531L1.95473 18.7461Z" fill="#9EDAE5"/>
<path d="M0.0090332 22.0234C0.0090332 22.0234 0.0090332 22.0294 0.0090332 22.0324L2.93528 23.8913C2.93528 23.8913 2.93528 23.8883 2.93828 23.8853L0.0090332 22.0234Z" fill="#9EDAE5"/>
<path d="M7.72339 35.6758L7.3576 36.1615V36.1675L7.72938 35.6788C7.72938 35.6788 7.72638 35.6788 7.72339 35.6758Z" fill="#9EDAE5"/>
<path d="M10.2239 35.4161L10.2209 35.4221L11.879 35.3771L11.8849 35.3711L10.2239 35.4161Z" fill="#9EDAE5"/>
<path d="M6.27814 21.4336C6.27814 21.4336 6.27814 21.4336 6.27515 21.4336V24.6147H6.28114V21.4336C6.28114 21.4336 6.28114 21.4336 6.27814 21.4336Z" fill="#9EDAE5"/>
<path d="M6.28432 33.6499V30.5078H6.27832V33.6499C6.27832 33.6499 6.27832 33.6499 6.28132 33.6499C6.28432 33.6499 6.28132 33.6499 6.28432 33.6499Z" fill="#9EDAE5"/>
<path d="M6.28414 29.1328H6.27515V30.503H6.28414V29.1328Z" fill="#9EDAE5"/>
<path d="M6.28414 24.6436L6.27515 24.6406V26.8053H6.28414V24.6436Z" fill="#9EDAE5"/>
<path d="M8.10718 35.5742C8.10718 35.5742 8.10718 35.5772 8.10718 35.5802L9.84913 36.3118V36.3058L8.11018 35.5742H8.10718Z" fill="#9EDAE5"/>
<path d="M6.27515 26.8233V27.2071L6.28414 27.2131V26.8203L6.27515 26.8233Z" fill="#9EDAE5"/>
<path d="M10.7485 36.6864L9.85505 36.3086L9.85205 36.3146L10.7425 36.6894L10.7485 36.6864Z" fill="#9EDAE5"/>
<path d="M10.2148 35.4141L8.12207 35.471C8.12207 35.471 8.12207 35.474 8.12207 35.477L10.2088 35.4201V35.4141H10.2148Z" fill="#9EDAE5"/>
<path d="M6.28414 27.2521L6.27515 27.2461V29.129L6.28414 29.126V27.2521Z" fill="#9EDAE5"/>
<path d="M6.28414 29.125L6.27515 29.128V29.134H6.28414V29.125Z" fill="#9EDAE5"/>
<path d="M7.87636 18.9013L4.93213 18.8203L4.93812 18.8293L7.87037 18.9073L7.87636 18.9013Z" fill="#9EDAE5"/>
<path d="M12.2685 30.4453H12.2625L11.1052 33.2546H11.1142L12.2685 30.4483V30.4453Z" fill="#9EDAE5"/>
<path d="M16.9848 11.0394L16.9938 11.0364L16.8739 10.2539L16.8679 10.2599L16.9848 11.0394Z" fill="#9EDAE5"/>
<path d="M12.1097 30.2188L10.041 30.3207V30.3267L12.1127 30.2247C12.1127 30.2247 12.1127 30.2217 12.1127 30.2188" fill="#9EDAE5"/>
<path d="M1.58594 30.7308V30.7368L4.4762 30.5958V30.5898L1.58894 30.7308H1.58594Z" fill="#9EDAE5"/>
<path d="M16.6941 9.0802L16.3823 7.02344H16.3733L16.6881 9.07721L16.6941 9.0802Z" fill="#9EDAE5"/>
<path d="M18.301 19.6681H18.307L17.7523 16.0312L17.7463 16.0402L18.301 19.6681Z" fill="#9EDAE5"/>
<path d="M8.5 18.9192L8.25415 18.9102L8.25715 18.9192L8.512 18.9251L8.5 18.9192Z" fill="#9EDAE5"/>
<path d="M11.1024 33.2812H11.0934L11.0664 33.3502L11.0754 33.3442L11.1024 33.2812Z" fill="#9EDAE5"/>
<path d="M17.1587 12.1661L17.1647 12.1751L16.9938 11.0508L16.9878 11.0538L17.1587 12.1661Z" fill="#9EDAE5"/>
<path d="M7.21369 30.4582L7.21069 30.4642L10.029 30.3263L10.032 30.3203L7.21369 30.4582Z" fill="#9EDAE5"/>
<path d="M17.5455 14.6615L17.4315 13.918H17.4255L17.5395 14.6645L17.5455 14.6615Z" fill="#9EDAE5"/>
<path d="M10.2119 35.4219L9.84912 36.3063L9.85512 36.3093L10.2209 35.4219H10.2119Z" fill="#9EDAE5"/>
<path d="M11.0693 33.3516L11.0603 33.3606L10.2148 35.4143H10.2238L11.0693 33.3516Z" fill="#9EDAE5"/>
<path d="M17.7434 16.0211L17.7494 16.0091L17.5455 14.6719L17.5396 14.6749L17.7434 16.0211Z" fill="#9EDAE5"/>
<path d="M12.0469 19.0199V19.0139L8.55396 18.918L8.56295 18.924L12.0469 19.0199Z" fill="#9EDAE5"/>
<path d="M1.94879 18.7463V18.7403L0.332764 18.6953C0.332764 18.6953 0.332764 18.6983 0.332764 18.7013L1.94879 18.7463Z" fill="#9EDAE5"/>
<path d="M18.2741 20.7625C18.2741 20.7625 18.2741 20.7595 18.2741 20.7565L15.7496 20.043C15.7496 20.043 15.7496 20.046 15.7466 20.049L18.2741 20.7655V20.7625Z" fill="#9EDAE5"/>
<path d="M16.688 9.08984L16.8649 10.2531L16.8709 10.2471L16.697 9.09284L16.688 9.08984Z" fill="#9EDAE5"/>
<path d="M4.90206 18.8184L3.28003 18.7734V18.7824L4.90505 18.8244L4.90206 18.8184Z" fill="#9EDAE5"/>
<path d="M16.3793 7.01354L16.0495 4.83984C16.0495 4.83984 16.0465 4.83984 16.0435 4.83984L16.3733 7.01054H16.3793V7.01354Z" fill="#9EDAE5"/>
<path d="M7.18664 30.457L6.28418 30.502V30.508L7.18364 30.463L7.18664 30.457Z" fill="#9EDAE5"/>
<path d="M17.4285 13.9067L17.1677 12.1917L17.1587 12.1797L17.4225 13.9037L17.4285 13.9067Z" fill="#9EDAE5"/>
<path d="M18.4509 20.6082L18.31 19.6758H18.304L18.4449 20.6112C18.4449 20.6112 18.4479 20.6112 18.4509 20.6112" fill="#9EDAE5"/>
<path d="M15.4318 19.961C15.4318 19.961 15.4318 19.958 15.4318 19.955L12.1248 19.0195H12.0798L12.0828 19.0255H12.1218L15.4288 19.964L15.4318 19.961Z" fill="#9EDAE5"/>
<path d="M3.25306 18.7803V18.7743L1.95483 18.7383V18.7473L3.25306 18.7803Z" fill="#9EDAE5"/>
<path d="M6.27522 30.5039L4.48529 30.5909L4.48829 30.5969L6.27522 30.5099V30.5039Z" fill="#9EDAE5"/>
<path d="M16.3733 7.02071H16.3823L16.3793 7.01172L16.3733 7.01472V7.02071Z" fill="#9EDAE5"/>
<path d="M1.95473 18.7383H1.94873V18.7473H1.95473V18.7383Z" fill="#9EDAE5"/>
<path d="M10.2209 35.4201L10.2239 35.4141H10.2149L10.2119 35.4201H10.2209Z" fill="#9EDAE5"/>
<path d="M6.2842 30.5039H6.27521V30.5099H6.2842V30.5039Z" fill="#9EDAE5"/>
<path d="M9.84731 36.3109L9.84497 36.3164L9.85049 36.3187L9.85283 36.3132L9.84731 36.3109Z" fill="#9EDAE5"/>
<path d="M17.6025 9.55157H17.6085L20.3789 6.91615C20.3789 6.91615 20.3789 6.91315 20.3759 6.91016L17.6025 9.55157Z" fill="#9EDAE5"/>
<path d="M17.5454 14.6716L18.5168 14.2638C18.5168 14.2638 18.5168 14.2608 18.5168 14.2578L17.5484 14.6656V14.6716H17.5454Z" fill="#9EDAE5"/>
<path d="M12.6824 14.2422L10.4487 16.3709L10.4517 16.3769L12.6794 14.2542L12.6824 14.2422Z" fill="#9EDAE5"/>
<path d="M11.552 24.4279L13.4289 25.924H13.4439L11.558 24.4219C11.558 24.4219 11.558 24.4249 11.555 24.4279" fill="#9EDAE5"/>
<path d="M13.1412 13.8146L13.7288 13.2539H13.7198L13.1382 13.8086L13.1412 13.8146Z" fill="#9EDAE5"/>
<path d="M11.0335 27.9297L10.3589 29.5367H10.3649L11.0365 27.9327C11.0365 27.9327 11.0335 27.9327 11.0305 27.9327" fill="#9EDAE5"/>
<path d="M14.4363 8.82031L14.4333 8.82631L16.1483 10.937L15.027 12.0074L15.048 11.9954L16.1543 10.94L16.4481 11.3058L16.4541 11.3028L16.1573 10.937L16.8679 10.2594L16.8649 10.2535L16.1543 10.931L14.4363 8.82031Z" fill="#9EDAE5"/>
<path d="M16.457 11.3155L17.1586 12.179V12.167L16.463 11.3125L16.457 11.3155Z" fill="#9EDAE5"/>
<path d="M11.0454 17.3867L8.37097 18.508C8.37097 18.508 8.37097 18.511 8.37097 18.514L11.0484 17.3927V17.3867H11.0454Z" fill="#9EDAE5"/>
<path d="M13.327 7.45312C13.327 7.45312 13.324 7.45313 13.321 7.45612L14.4154 8.80232V8.79632L13.327 7.45312Z" fill="#9EDAE5"/>
<path d="M10.4277 16.3867L8.30493 18.4105C8.30493 18.4105 8.30493 18.4135 8.30793 18.4165L10.4307 16.3927V16.3867H10.4277Z" fill="#9EDAE5"/>
<path d="M12.8472 7.25209C12.8472 7.25209 12.8472 7.24909 12.8472 7.24609L8.58081 7.55191V7.55791L12.8472 7.25209Z" fill="#9EDAE5"/>
<path d="M22.2676 19.256C22.2676 19.256 22.2676 19.253 22.2676 19.25L18.5378 19.6458V19.6518L22.2706 19.256H22.2676Z" fill="#9EDAE5"/>
<path d="M8.56598 7.55078L7.5376 7.62574V7.63173L8.56898 7.55678L8.56598 7.55078Z" fill="#9EDAE5"/>
<path d="M13.384 31.8014L13.387 31.8074L14.3944 31.1358L14.3884 31.1328L13.384 31.8014Z" fill="#9EDAE5"/>
<path d="M11.8039 27.6583V27.6523L11.2972 27.7243C11.2972 27.7243 11.2972 27.7273 11.2972 27.7303L11.8009 27.6583H11.8039Z" fill="#9EDAE5"/>
<path d="M25.3407 14.5996L23.6797 17.307H23.6857L25.3467 14.5996C25.3467 14.5996 25.3467 14.5996 25.3467 14.5966L25.2957 14.5156H25.2867L25.3377 14.5996H25.3407Z" fill="#9EDAE5"/>
<path d="M10.3498 29.5625L10.032 30.321H10.041L10.3558 29.5655L10.3498 29.5625Z" fill="#9EDAE5"/>
<path d="M25.2807 14.4985H25.2897L25.2837 14.4895L25.2717 14.4805L25.2807 14.4985Z" fill="#9EDAE5"/>
<path d="M25.2538 14.4548L25.2688 14.4638L22.8133 10.4492L22.8103 10.4522L25.2538 14.4548Z" fill="#9EDAE5"/>
<path d="M8.66483 33.6007H8.65583L7.96625 35.2467C7.96625 35.2467 7.96925 35.2467 7.97224 35.2467L8.66183 33.5977L8.66483 33.6007Z" fill="#9EDAE5"/>
<path d="M15.2668 30.5541L15.2638 30.5481L14.4843 31.0698L12.0317 28.6562L12.0347 28.6682L14.4783 31.0728L14.4153 31.1148L14.4213 31.1178L14.4813 31.0788L14.6072 31.2017L14.6252 31.2107L14.4873 31.0728L15.2668 30.5541Z" fill="#9EDAE5"/>
<path d="M18.238 27.168L18.4569 31.3085C18.4569 31.3085 18.4599 31.3085 18.4629 31.3085L18.244 27.168C18.244 27.168 18.241 27.168 18.238 27.168Z" fill="#9EDAE5"/>
<path d="M15.2729 30.5419V30.5479L17.2608 29.2257C17.2608 29.2257 17.2578 29.2257 17.2548 29.2227L15.2729 30.5449V30.5419Z" fill="#9EDAE5"/>
<path d="M11.2463 27.8927L12.0169 28.6513V28.6393L11.2493 27.8867C11.2493 27.8867 11.2493 27.8897 11.2463 27.8927Z" fill="#9EDAE5"/>
<path d="M11.8728 27.9141V27.9231L13.4619 28.2649L13.4559 28.2559L11.8728 27.9141Z" fill="#9EDAE5"/>
<path d="M11.2971 27.7891C11.2971 27.7891 11.2971 27.7921 11.2971 27.7951L11.8608 27.915V27.909L11.2971 27.7891Z" fill="#9EDAE5"/>
<path d="M11.2553 33.2336L13.378 31.8185L13.372 31.8125L11.2373 33.2336H11.2553Z" fill="#9EDAE5"/>
<path d="M13.4829 28.2668L17.2127 29.0673C17.2127 29.0673 17.2127 29.0643 17.2127 29.0613L13.4769 28.2578L13.4829 28.2668Z" fill="#9EDAE5"/>
<path d="M15.7734 19.9447L18.3009 19.6779V19.6719L15.7734 19.9387C15.7734 19.9387 15.7734 19.9417 15.7734 19.9447Z" fill="#9EDAE5"/>
<path d="M12.8653 27.5039L11.8159 27.6538V27.6598L12.8683 27.5099L12.8653 27.5039Z" fill="#9EDAE5"/>
<path d="M15.4828 20.0781L13.8008 21.7901V21.7961L15.4888 20.0841C15.4888 20.0841 15.4858 20.0841 15.4828 20.0811" fill="#9EDAE5"/>
<path d="M22.3066 9.62891L22.8013 10.4414L22.8073 10.4384L22.3126 9.62891H22.3066Z" fill="#9EDAE5"/>
<path d="M22.2977 9.61371H22.3037L20.6757 6.94531C20.6757 6.94531 20.6727 6.94531 20.6697 6.94831L22.2977 9.61371Z" fill="#9EDAE5"/>
<path d="M12.3645 16.8344V16.8404L14.0405 16.1388L14.0375 16.1328L12.3645 16.8344Z" fill="#9EDAE5"/>
<path d="M11.1863 33.2686L11.0753 33.3436L11.0693 33.3526L11.2013 33.2656L11.1863 33.2686Z" fill="#9EDAE5"/>
<path d="M17.8093 26.8088C17.8093 26.8088 17.8093 26.8058 17.8093 26.8028L15.033 27.1956L13.4679 25.9453H13.453L15.024 27.1956L12.8833 27.4984L12.8893 27.5044L15.033 27.2016L17.2607 28.9795C17.2607 28.9795 17.2637 28.9795 17.2667 28.9765L15.042 27.2016L17.8123 26.8088H17.8093Z" fill="#9EDAE5"/>
<path d="M22.6304 19.0203C22.6304 19.0203 22.6334 19.0203 22.6364 19.0233L23.6797 17.3203H23.6737L22.6304 19.0203Z" fill="#9EDAE5"/>
<path d="M13.7797 21.8086L13.5398 22.0544L13.5458 22.0574L13.7826 21.8146L13.7797 21.8086Z" fill="#9EDAE5"/>
<path d="M13.1292 13.8164L12.7124 14.2122V14.2242L13.1321 13.8254L13.1292 13.8164Z" fill="#9EDAE5"/>
<path d="M10.0379 30.3281H10.0289L9.30933 32.0491L9.31832 32.0431L10.0379 30.3281Z" fill="#9EDAE5"/>
<path d="M7.53141 7.62891L5.56459 7.76982C5.56459 7.76982 5.56159 7.77582 5.55859 7.77582L7.53141 7.6349V7.62891Z" fill="#9EDAE5"/>
<path d="M18.523 19.6544V19.6484L18.3071 19.6694V19.6754L18.523 19.6544Z" fill="#9EDAE5"/>
<path d="M9.29153 32.088L8.6709 33.5721H8.67689L9.30052 32.082L9.29153 32.088Z" fill="#9EDAE5"/>
<path d="M13.7317 13.2386H13.7407L15.0149 12.0273L14.9939 12.0363L13.7317 13.2386Z" fill="#9EDAE5"/>
<path d="M11.0664 33.3507L8.07715 35.3415C8.07715 35.3415 8.07715 35.3445 8.08015 35.3475L11.0604 33.3596L11.0664 33.3477V33.3507Z" fill="#9EDAE5"/>
<path d="M18.5949 13.9456C18.5949 13.9456 18.5979 13.9456 18.6009 13.9426L17.1677 12.1797V12.1917L18.5949 13.9456Z" fill="#9EDAE5"/>
<path d="M16.8708 10.2491L16.8738 10.2551L17.5964 9.5655L17.5904 9.5625L16.8708 10.2491Z" fill="#9EDAE5"/>
<path d="M17.5395 14.6641L14.0526 16.1272V16.1332L17.5395 14.6731V14.6641Z" fill="#9EDAE5"/>
<path d="M12.3345 16.8477L11.0723 17.3783L11.0753 17.3843L12.3345 16.8567V16.8477Z" fill="#9EDAE5"/>
<path d="M11.5401 24.095L13.5279 22.0742H13.5219L11.5371 24.089C11.5371 24.089 11.5401 24.089 11.5431 24.092" fill="#9EDAE5"/>
<path d="M7.53756 7.62891H7.53156L7.52856 7.6349H7.53756V7.62891Z" fill="#9EDAE5"/>
<path d="M17.1587 12.18L17.1677 12.192L17.1647 12.177L17.1587 12.168V12.18Z" fill="#9EDAE5"/>
<path d="M10.041 30.3203H10.0321L10.0291 30.3263H10.038L10.041 30.3203Z" fill="#9EDAE5"/>
<path d="M11.0753 33.3438L11.0663 33.3497L11.0603 33.3617L11.0693 33.3527L11.0753 33.3438Z" fill="#9EDAE5"/>
<path d="M17.5396 14.6721L17.5455 14.6692V14.6602L17.5396 14.6632V14.6721Z" fill="#9EDAE5"/>
<path d="M16.865 10.2521L16.868 10.2581L16.874 10.2521L16.871 10.2461L16.865 10.2521Z" fill="#9EDAE5"/>
<path d="M18.301 19.677L18.307 19.674V19.668H18.301V19.677Z" fill="#9EDAE5"/>
<path d="M11.585 25.6124C11.585 25.6124 11.585 25.6214 11.585 25.6244L13.4558 25.9422L13.4349 25.9242L11.588 25.6094L11.585 25.6124Z" fill="#9EDAE5"/>
<path d="M17.8122 26.6702L13.4438 25.9297L13.4648 25.9477L17.8092 26.6852C17.8092 26.6852 17.8092 26.6762 17.8092 26.6732" fill="#9EDAE5"/>
<path d="M13.429 25.9258L13.4529 25.9438L13.4649 25.9468L13.4439 25.9288L13.429 25.9258Z" fill="#9EDAE5"/>
<path d="M17.4705 28.9614C17.4705 28.9614 17.4795 28.9674 17.4825 28.9704L18.0942 27.1445C18.0942 27.1445 18.0852 27.1445 18.0792 27.1445L17.4675 28.9644L17.4705 28.9614Z" fill="#9EDAE5"/>
<path d="M17.3746 29.2686C17.3746 29.2686 17.3686 29.2686 17.3656 29.2686L16.5231 31.7781C16.5231 31.7781 16.5321 31.7781 16.5351 31.7781L17.3776 29.2656C17.3776 29.2656 17.3746 29.2656 17.3716 29.2656" fill="#9EDAE5"/>
<path d="M14.3345 32.7617C14.3345 32.7617 14.3345 32.7707 14.3345 32.7737L18.3071 31.5354C18.3071 31.5354 18.3071 31.5264 18.3071 31.5234L14.3345 32.7617Z" fill="#9EDAE5"/>
<path d="M13.4558 28.2535L13.4768 28.2565L12.8862 27.5039L12.8682 27.5069L13.4558 28.2535Z" fill="#9EDAE5"/>
<path d="M11.4951 25.7629L12.8653 27.5019H12.8803L11.5071 25.7539C11.5041 25.7539 11.4981 25.7599 11.4951 25.7629Z" fill="#9EDAE5"/>
<path d="M11.8729 27.915L11.8159 27.6602H11.804L11.8579 27.912L11.8729 27.915Z" fill="#9EDAE5"/>
<path d="M11.4173 25.7999C11.4173 25.7999 11.4083 25.7999 11.4053 25.7999L11.804 27.6498H11.816L11.4173 25.7969V25.7999Z" fill="#9EDAE5"/>
<path d="M11.8579 27.918L12.0138 28.6375L12.0318 28.6555L11.8729 27.921L11.8579 27.918Z" fill="#9EDAE5"/>
<path d="M16.2682 31.8301C16.2682 31.8301 16.2772 31.8241 16.2802 31.8211L15.2788 30.5469L15.2668 30.5559L16.2682 31.8301Z" fill="#9EDAE5"/>
<path d="M13.9296 32.6841C13.9296 32.6841 13.9356 32.6781 13.9416 32.6751L13.3899 31.8086L13.3779 31.8146L13.9296 32.6811V32.6841Z" fill="#9EDAE5"/>
<path d="M12.4875 30.424L13.372 31.8121L13.384 31.8061L12.4995 30.418C12.4995 30.418 12.4935 30.424 12.4875 30.427" fill="#9EDAE5"/>
<path d="M13.4619 28.2656L15.2638 30.5503L15.2728 30.5443L13.4829 28.2686L13.4619 28.2656Z" fill="#9EDAE5"/>
<path d="M12.3017 29.9686C12.3017 29.9686 12.3107 29.9686 12.3137 29.9686L12.0348 28.6703L12.0168 28.6523L12.3017 29.9716V29.9686Z" fill="#9EDAE5"/>
<path d="M11.8159 27.6583V27.6523H11.8009L11.8039 27.6583H11.8159Z" fill="#9EDAE5"/>
<path d="M12.0167 28.6526L12.0347 28.6706L12.0317 28.6586L12.0137 28.6406L12.0167 28.6526Z" fill="#9EDAE5"/>
<path d="M15.2639 30.549L15.2669 30.555L15.2789 30.549L15.2729 30.543L15.2639 30.549Z" fill="#9EDAE5"/>
<path d="M11.8579 27.9102V27.9192L11.8729 27.9221V27.9132L11.8579 27.9102Z" fill="#9EDAE5"/>
<path d="M13.4618 28.2629L13.4828 28.2659L13.4768 28.2569L13.4558 28.2539L13.4618 28.2629Z" fill="#9EDAE5"/>
<path d="M13.3721 31.8098L13.3781 31.8158L13.3871 31.8068L13.3841 31.8008L13.3721 31.8098Z" fill="#9EDAE5"/>
<path d="M12.8682 27.509L12.8862 27.506L12.8802 27.5L12.8652 27.503L12.8682 27.509Z" fill="#9EDAE5"/>
<path d="M4.3594 10.7109C4.3594 10.7109 4.35341 10.7169 4.34741 10.7199L5.22289 12.5788L5.23188 12.5638L4.3594 10.7109Z" fill="#9EDAE5"/>
<path d="M9.96303 10.6016C9.96303 10.6016 9.95403 10.6016 9.95103 10.6016L9.1745 13.9296C9.1745 13.9296 9.18349 13.9296 9.18649 13.9296L9.96603 10.6016H9.96303Z" fill="#9EDAE5"/>
<path d="M9.0306 14.5273L8.14014 18.3321C8.14014 18.3321 8.14913 18.3321 8.15213 18.3321L9.0426 14.5273C9.0426 14.5273 9.0336 14.5273 9.0306 14.5273Z" fill="#9EDAE5"/>
<path d="M5.24379 12.5938L5.23779 12.6087L6.38011 15.0433L6.3951 15.0373L5.24379 12.5938Z" fill="#9EDAE5"/>
<path d="M6.40726 15.0655H6.39526L7.93934 18.3515C7.94234 18.3515 7.94533 18.3455 7.95133 18.3425L6.41025 15.0625L6.40726 15.0655Z" fill="#9EDAE5"/>
<path d="M9.78008 25.957L6.28418 26.8055V26.8175L9.78908 25.969L9.78008 25.957Z" fill="#9EDAE5"/>
<path d="M11.1442 25.6289L9.78906 25.9557L9.79806 25.9677L11.1472 25.6409C11.1472 25.6409 11.1472 25.6319 11.1472 25.6289" fill="#9EDAE5"/>
<path d="M6.27519 26.8236V26.8086L5.96338 26.8865L5.97537 26.8955L6.27519 26.8236Z" fill="#9EDAE5"/>
<path d="M11.3692 25.3569V24.5234C11.3692 24.5234 11.3662 24.5234 11.3632 24.5234C11.3602 24.5234 11.3602 24.5234 11.3572 24.5234V25.3569C11.3572 25.3569 11.3602 25.3569 11.3632 25.3569C11.3662 25.3569 11.3662 25.3569 11.3692 25.3569Z" fill="#9EDAE5"/>
<path d="M2.99822 27.6166L3.00722 27.6016L2.8783 27.6315L2.88429 27.6435L2.99822 27.6166Z" fill="#9EDAE5"/>
<path d="M5.93332 26.8906L3.01308 27.5982L3.00708 27.6132L5.94532 26.9026L5.93332 26.8906Z" fill="#9EDAE5"/>
<path d="M2.11664 27.8275V27.8125L0.698486 28.1573C0.698486 28.1603 0.698486 28.1663 0.701485 28.1693L2.11664 27.8275Z" fill="#9EDAE5"/>
<path d="M2.8633 27.6328L2.14973 27.8067L2.14673 27.8217L2.8693 27.6448L2.8633 27.6328Z" fill="#9EDAE5"/>
<path d="M3.00729 27.6126L3.01328 27.5977L3.00729 27.6007L2.99829 27.6156L3.00729 27.6126Z" fill="#9EDAE5"/>
<path d="M9.78902 25.957L9.78003 25.96L9.78902 25.972L9.79802 25.969L9.78902 25.957Z" fill="#9EDAE5"/>
<path d="M6.28414 26.8206V26.8086H6.27515V26.8236L6.28414 26.8206Z" fill="#9EDAE5"/>
<path d="M18.6128 26.8978L21.8029 28.0491L21.8119 28.0371L18.6158 26.8828C18.6158 26.8828 18.6158 26.8918 18.6158 26.8948" fill="#9EDAE5"/>
<path d="M13.5849 24.6484C13.5849 24.6484 13.5789 24.6574 13.5789 24.6604L17.8333 26.5793C17.8333 26.5793 17.8393 26.5733 17.8423 26.5673L13.5879 24.6484H13.5849Z" fill="#9EDAE5"/>
<path d="M21.8119 28.0391L21.8029 28.0481L21.8089 28.0511L21.8209 28.0391H21.8119Z" fill="#9EDAE5"/>
<path d="M16.6671 22.7845L18.376 22.9794L18.379 22.9644L16.6641 22.7695L16.6671 22.7845Z" fill="#9EDAE5"/>
<path d="M14.4395 22.5147C14.4395 22.5147 14.4395 22.5237 14.4395 22.5267L16.6551 22.7786L16.6491 22.7636L14.4395 22.5117V22.5147Z" fill="#9EDAE5"/>
<path d="M18.3909 22.9798L20.2408 23.1897L20.2468 23.1777L18.3909 22.9648V22.9798Z" fill="#9EDAE5"/>
<path d="M14.3674 22.6613L17.9263 26.4451C17.9263 26.4451 17.9353 26.4391 17.9383 26.4361L14.3794 22.6523C14.3794 22.6523 14.3704 22.6583 14.3674 22.6613Z" fill="#9EDAE5"/>
<path d="M18.6158 26.6028L25.6946 23.9134C25.6946 23.9134 25.6946 23.9044 25.6946 23.8984L18.6158 26.5878C18.6158 26.5878 18.6158 26.5968 18.6158 26.5998" fill="#9EDAE5"/>
<path d="M20.2559 23.1917L25.6826 23.8093C25.6826 23.8093 25.6826 23.8003 25.6826 23.7973L20.2619 23.1797L20.2559 23.1917Z" fill="#9EDAE5"/>
<path d="M22.6455 19.427L25.7636 23.6604C25.7636 23.6604 25.7726 23.6544 25.7756 23.6514L22.6575 19.418C22.6575 19.418 22.6485 19.424 22.6455 19.427Z" fill="#9EDAE5"/>
<path d="M22.3576 19.0345C22.3576 19.0345 22.3666 19.0285 22.3696 19.0255L18.9336 14.3633C18.9336 14.3633 18.9246 14.3693 18.9216 14.3723L22.3576 19.0345Z" fill="#9EDAE5"/>
<path d="M13.1921 13.1565L13.7228 13.2525L13.7348 13.2405L13.1951 13.1445C13.1951 13.1445 13.1951 13.1535 13.1951 13.1565" fill="#9EDAE5"/>
<path d="M17.4255 13.9159L17.4225 13.9009L13.7408 13.2383L13.7288 13.2503L17.4255 13.9159Z" fill="#9EDAE5"/>
<path d="M18.5018 14.114C18.5018 14.114 18.5018 14.105 18.5018 14.102L17.4285 13.9102V13.9251L18.4988 14.117L18.5018 14.114Z" fill="#9EDAE5"/>
<path d="M17.4256 13.9173H17.4316L17.4286 13.9053L17.4226 13.9023L17.4256 13.9173Z" fill="#9EDAE5"/>
<path d="M13.7197 13.2503H13.7287L13.7407 13.2383H13.7317L13.7197 13.2503Z" fill="#9EDAE5"/>
<path d="M21.2782 11.8394L21.2872 11.8304L18.9426 10.2773C18.9426 10.2773 18.9366 10.2863 18.9336 10.2893L21.2752 11.8394H21.2782Z" fill="#9EDAE5"/>
<path d="M16.6521 22.7812L18.0583 26.3551C18.0583 26.3551 18.0673 26.3551 18.0732 26.3551L16.6701 22.7842H16.6551L16.6521 22.7812Z" fill="#9EDAE5"/>
<path d="M16.646 22.7684H16.664L16.2442 21.707L16.2322 21.71L16.646 22.7684Z" fill="#9EDAE5"/>
<path d="M16.2263 21.6961L16.2383 21.6901L15.6236 20.125C15.6236 20.125 15.6146 20.125 15.6086 20.125L16.2263 21.6931V21.6961Z" fill="#9EDAE5"/>
<path d="M12.9852 13.4171C12.9852 13.4171 12.9762 13.4171 12.9702 13.4171L13.1261 13.8128L13.1381 13.8038L12.9852 13.4141V13.4171Z" fill="#9EDAE5"/>
<path d="M16.457 11.3137L16.448 11.3047L15.0479 11.9943L15.0149 12.0273L16.457 11.3137Z" fill="#9EDAE5"/>
<path d="M18.5349 19.6427L18.7628 14.4258C18.7628 14.4258 18.7538 14.4258 18.7508 14.4258L18.5229 19.6456H18.5379L18.5349 19.6427Z" fill="#9EDAE5"/>
<path d="M25.2838 14.4918L25.2958 14.5008H25.3138L25.3108 14.4948L25.2688 14.4648L25.2838 14.4918Z" fill="#9EDAE5"/>
<path d="M16.9938 11.0523L18.5828 10.2698C18.5828 10.2698 18.5768 10.2638 18.5738 10.2578L16.9878 11.0403V11.0553L16.9938 11.0523Z" fill="#9EDAE5"/>
<path d="M18.232 26.3256C18.232 26.3256 18.241 26.3256 18.244 26.3256L18.3909 22.9766H18.3759L18.229 26.3226L18.232 26.3256Z" fill="#9EDAE5"/>
<path d="M18.493 20.6058L18.535 19.6523H18.52L18.478 20.6058C18.484 20.6058 18.487 20.6058 18.49 20.6058" fill="#9EDAE5"/>
<path d="M13.1321 13.8245L14.0376 16.1331L14.0526 16.1271L13.1411 13.8125L13.1321 13.8245Z" fill="#9EDAE5"/>
<path d="M14.0525 16.1328L14.0405 16.1388L15.4917 19.8296C15.4917 19.8296 15.5007 19.8236 15.5036 19.8206L14.0525 16.1328Z" fill="#9EDAE5"/>
<path d="M21.2903 11.8449L25.2719 14.4804L25.2539 14.4534L21.2993 11.8359L21.2903 11.8449Z" fill="#9EDAE5"/>
<path d="M18.3789 22.9651H18.3939L18.4778 21.0312C18.4719 21.0312 18.4689 21.0312 18.4659 21.0312L18.3819 22.9681L18.3789 22.9651Z" fill="#9EDAE5"/>
<path d="M16.4631 11.3119L16.9878 11.0541L16.9848 11.0391L16.4541 11.3029L16.4631 11.3119Z" fill="#9EDAE5"/>
<path d="M13.1681 12.9373L14.991 12.0378L15.024 12.0078L13.1591 12.9283C13.1591 12.9283 13.1651 12.9343 13.1681 12.9403" fill="#9EDAE5"/>
<path d="M16.9879 11.0531L16.9939 11.0501V11.0352L16.9849 11.0382L16.9879 11.0531Z" fill="#9EDAE5"/>
<path d="M15.0149 12.0291L15.0479 11.9961L15.0269 12.0081L14.9939 12.0381L15.0149 12.0291Z" fill="#9EDAE5"/>
<path d="M25.2719 14.4801L25.2839 14.4891L25.2689 14.4621L25.2539 14.4531L25.2719 14.4801Z" fill="#9EDAE5"/>
<path d="M16.4632 11.3137L16.4542 11.3047L16.4482 11.3077L16.4572 11.3167L16.4632 11.3137Z" fill="#9EDAE5"/>
<path d="M13.1381 13.8086L13.1292 13.8176L13.1321 13.8266L13.1411 13.8146L13.1381 13.8086Z" fill="#9EDAE5"/>
<path d="M18.5229 19.6535L18.5349 19.6505V19.6445L18.5229 19.6475V19.6535Z" fill="#9EDAE5"/>
<path d="M14.0526 16.1289L14.0376 16.1349L14.0406 16.1409L14.0526 16.1349V16.1289Z" fill="#9EDAE5"/>
<path d="M16.646 22.7695L16.652 22.7815L16.667 22.7845L16.664 22.7695H16.646Z" fill="#9EDAE5"/>
<path d="M18.376 22.9798L18.391 22.9828V22.9678L18.379 22.9648L18.376 22.9798Z" fill="#9EDAE5"/>
<path d="M24.1924 9.14938L27.0647 6.04024C27.0647 6.04024 27.0557 6.03725 27.0527 6.03125L24.1804 9.14038C24.1804 9.14038 24.1894 9.14338 24.1924 9.14938Z" fill="#9EDAE5"/>
<path d="M25.3229 14.4869L24.0667 9.63281C24.0667 9.63281 24.0577 9.63281 24.0547 9.63281L25.3109 14.4899L25.3229 14.4989H25.3319L26.5822 11.8455C26.5792 11.8455 26.5762 11.8395 26.5702 11.8365L25.3229 14.4839V14.4869Z" fill="#9EDAE5"/>
<path d="M27.4785 5.81853L29.0166 5.56668C29.0166 5.56668 29.0106 5.55769 29.0076 5.55469L27.4785 5.80654C27.4785 5.80654 27.4785 5.81553 27.4785 5.81853Z" fill="#9EDAE5"/>
<path d="M25.3109 14.4922V14.5012H25.3229C25.3229 14.5012 25.3259 14.5012 25.3288 14.5042H25.3199L25.3079 14.4952L25.3109 14.4922Z" fill="#9EDAE5"/>
<path d="M4.14362 10.2106L3.97872 9.79688C3.97872 9.79688 3.97272 9.80587 3.96973 9.80887L4.13163 10.2136C4.13163 10.2136 4.14062 10.2136 4.14362 10.2106Z" fill="#9EDAE5"/>
<path d="M15.7855 4.7659C15.7855 4.7659 15.7795 4.7599 15.7765 4.75391L13.3899 7.08051C13.3899 7.08051 13.3959 7.08651 13.3989 7.0925L15.7885 4.7659H15.7855Z" fill="#9EDAE5"/>
<path d="M18.5798 10.0755C18.5798 10.0755 18.5858 10.0695 18.5888 10.0635L17.6084 9.55078L17.5994 9.55978L18.5828 10.0725L18.5798 10.0755Z" fill="#9EDAE5"/>
<path d="M8.56591 7.55369H8.5809L7.86433 6.14453L7.86133 6.16552L8.56591 7.55369Z" fill="#9EDAE5"/>
<path d="M4.98002 8.45695L4.32642 10.2109C4.32642 10.2109 4.33541 10.2109 4.34141 10.2109L5.01001 8.41797C5.01001 8.41797 4.99202 8.44195 4.98302 8.45395" fill="#9EDAE5"/>
<path d="M14.6973 8.03697L13.4021 7.35938C13.4021 7.35938 13.3961 7.36537 13.3931 7.37137L14.6913 8.04896L14.6973 8.03697Z" fill="#9EDAE5"/>
<path d="M16.6971 9.09312L17.5906 9.56084L17.6025 9.55184L16.6941 9.07812L16.6971 9.09312Z" fill="#9EDAE5"/>
<path d="M7.8582 6.13605L7.63333 5.69531C7.63333 5.69531 7.62733 5.70131 7.62134 5.70431L7.8522 6.15704L7.8582 6.13605Z" fill="#9EDAE5"/>
<path d="M15.9923 4.23677L15.8274 1.09766C15.8274 1.09766 15.8184 1.09766 15.8154 1.10065L15.9803 4.23977C15.9803 4.23977 15.9893 4.23977 15.9923 4.23977" fill="#9EDAE5"/>
<path d="M10.1789 10.225L12.9942 7.48165C12.9942 7.48165 12.9852 7.47565 12.9822 7.47266L10.1699 10.213C10.1699 10.213 10.1759 10.219 10.1789 10.222" fill="#9EDAE5"/>
<path d="M8.58384 7.55769H8.56885L9.90005 10.1781C9.90305 10.1781 9.90605 10.1721 9.91204 10.1691L8.58384 7.55469V7.55769Z" fill="#9EDAE5"/>
<path d="M8.63187 4.86719C8.63187 4.86719 8.62287 4.87318 8.61987 4.87618L12.8743 7.09785C12.8743 7.09785 12.8803 7.09185 12.8833 7.08586L8.63187 4.86719Z" fill="#9EDAE5"/>
<path d="M16.6881 9.09025V9.07526L14.7213 8.04688L14.7183 8.06187L16.6881 9.09025Z" fill="#9EDAE5"/>
<path d="M7.86422 6.14181L7.85822 6.13281L7.85522 6.1508L7.86122 6.16279L7.86422 6.14181Z" fill="#9EDAE5"/>
<path d="M16.697 9.09221L16.694 9.07722L16.688 9.07422V9.08921L16.697 9.09221Z" fill="#9EDAE5"/>
<path d="M8.58391 7.55678L8.58091 7.55078H8.56592L8.56892 7.55678H8.58391Z" fill="#9EDAE5"/>
<path d="M17.5903 9.55978L17.5963 9.56277L17.6083 9.55378L17.6023 9.55078L17.5903 9.55978Z" fill="#9EDAE5"/>
<path d="M23.8088 6.30332H23.8238L23.7039 4.18359C23.6979 4.18359 23.6949 4.18359 23.6919 4.18359L23.8118 6.30332H23.8088Z" fill="#9EDAE5"/>
<path d="M23.9677 9.07175C23.9677 9.07175 23.9767 9.07175 23.9797 9.07175L23.8238 6.31641H23.8118L23.9677 9.07475V9.07175Z" fill="#9EDAE5"/>
<path d="M15.6955 4.52801C15.6955 4.52801 15.6955 4.51902 15.6955 4.51602L12.5264 4.28516V4.30015L15.6925 4.53101L15.6955 4.52801Z" fill="#9EDAE5"/>
<path d="M2.88438 27.6445L2.86938 27.6475L2.92935 27.7525L2.93535 27.7405L2.88438 27.6445Z" fill="#9EDAE5"/>
<path d="M4.08056 10.6887C4.08056 10.6887 4.07157 10.6827 4.06857 10.6797L1.90387 13.507C1.89487 13.525 1.88888 13.543 1.87988 13.561L4.08056 10.6887Z" fill="#9EDAE5"/>
<path d="M15.8604 4.27114L14.4063 1.59375C14.4063 1.59375 14.3973 1.59675 14.3943 1.59975L15.8484 4.28014C15.8484 4.28014 15.8544 4.27414 15.8604 4.27114Z" fill="#9EDAE5"/>
<path d="M12.5264 4.29609V4.28109L9.70207 4.07422C9.69608 4.07722 9.69008 4.08321 9.68408 4.08621L12.5264 4.29309V4.29609Z" fill="#9EDAE5"/>
<path d="M0.938331 24.0625H0.92334L1.69088 25.4777L1.69987 25.4657L0.938331 24.0625Z" fill="#9EDAE5"/>
<path d="M4.48838 30.5977H4.47339L6.15238 33.6888C6.15538 33.6888 6.15838 33.6828 6.16437 33.6798L4.48838 30.5977Z" fill="#9EDAE5"/>
<path d="M3.97568 10.4013L3.62789 10.3203C3.62789 10.3203 3.62189 10.3293 3.6189 10.3323L3.97268 10.4133C3.97268 10.4133 3.97268 10.4043 3.97268 10.4013" fill="#9EDAE5"/>
<path d="M2.87827 27.6301L2.43153 26.8086L2.42554 26.8296L2.86327 27.6331L2.87827 27.6301Z" fill="#9EDAE5"/>
<path d="M2.93813 27.7461L2.93213 27.7611L4.07145 29.8568L4.08344 29.8538L2.93813 27.7461Z" fill="#9EDAE5"/>
<path d="M1.71505 25.4922L1.70605 25.5012L2.40763 26.7934L2.41363 26.7754L1.71505 25.4922Z" fill="#9EDAE5"/>
<path d="M4.07446 29.8624L4.47023 30.5909H4.48522L4.08945 29.8594L4.07446 29.8624Z" fill="#9EDAE5"/>
<path d="M0.923446 24.0368L0 22.3398C0 22.3398 0 22.3578 0 22.3668L0.908455 24.0368H0.923446Z" fill="#9EDAE5"/>
<path d="M4.08353 29.8516L4.07153 29.8546L4.07453 29.8606L4.08952 29.8576L4.08353 29.8516Z" fill="#9EDAE5"/>
<path d="M2.93819 27.7443L2.9352 27.7383L2.9292 27.7503L2.9322 27.7593L2.93819 27.7443Z" fill="#9EDAE5"/>
<path d="M12.5294 4.28516H12.5234L12.5264 4.29715H12.5324L12.5294 4.28516Z" fill="#9EDAE5"/>
<path d="M4.48521 30.5898H4.47021L4.47321 30.5958H4.4882L4.48521 30.5898Z" fill="#9EDAE5"/>
<path d="M2.87827 27.6328L2.86328 27.6358L2.86928 27.6478L2.88427 27.6448L2.87827 27.6328Z" fill="#9EDAE5"/>
<path d="M6.39212 34.1289C6.39212 34.1289 6.38612 34.1349 6.38013 34.1379L7.34555 36.1737L7.35454 36.1617L6.39212 34.1289Z" fill="#9EDAE5"/>
<path d="M7.35763 36.1602L7.34863 36.1721L7.35163 36.1781L7.36063 36.1662L7.35763 36.1602Z" fill="#9EDAE5"/>
<path d="M22.7293 27.0912L22.7413 27.0793L18.6367 26.7734C18.6367 26.7734 18.6367 26.7824 18.6367 26.7854L22.7323 27.0912H22.7293Z" fill="#9EDAE5"/>
<path d="M18.4209 26.3824C18.4209 26.3824 18.4269 26.3884 18.4329 26.3914L20.2558 23.1953H20.2408L18.4209 26.3854V26.3824Z" fill="#9EDAE5"/>
<path d="M26.579 20.2797V20.2677L22.7413 19.2812C22.7413 19.2842 22.7413 19.2902 22.7413 19.2932L26.582 20.2797H26.579Z" fill="#9EDAE5"/>
<path d="M20.2468 23.1783H20.2618L22.3935 19.4426C22.3905 19.4426 22.3875 19.4366 22.3815 19.4336L20.2468 23.1783Z" fill="#9EDAE5"/>
<path d="M26.5881 20.2806L26.5911 20.2686L26.5821 20.2656L26.5791 20.2806H26.5881Z" fill="#9EDAE5"/>
<path d="M22.7292 27.0901H22.7382L22.7502 27.0781H22.7412L22.7292 27.0901Z" fill="#9EDAE5"/>
<path d="M20.241 23.1917H20.256L20.262 23.1797H20.247L20.241 23.1917Z" fill="#9EDAE5"/>
<path d="M15.6926 19.8123L17.7494 16.0405V16.0195L15.6836 19.8063C15.6866 19.8063 15.6896 19.8123 15.6956 19.8153" fill="#9EDAE5"/>
<path d="M18.8586 9.98222C18.8586 9.98222 18.8646 9.98821 18.8706 9.99121L20.4447 6.96603C20.4447 6.96603 20.4387 6.96003 20.4327 6.95703L18.8586 9.98222Z" fill="#9EDAE5"/>
<path d="M18.6428 14.3957C18.6428 14.3957 18.6368 14.3897 18.6308 14.3867L17.7463 16.0087V16.0297L18.6398 14.3957H18.6428Z" fill="#9EDAE5"/>
<path d="M16.2443 21.7061L18.2801 20.9026C18.2801 20.9026 18.2801 20.8936 18.2771 20.8906L16.2383 21.6941L16.2443 21.7061Z" fill="#9EDAE5"/>
<path d="M25.3168 14.515L25.2959 14.5H25.2869L25.2959 14.515H25.3168L26.9659 17.1384C26.9689 17.1384 26.9719 17.1324 26.9779 17.1294L25.3348 14.518H25.3198" fill="#9EDAE5"/>
<path d="M15.5186 20.1016L14.3193 22.2992C14.3193 22.2992 14.3253 22.3052 14.3313 22.3082L15.5306 20.1106C15.5306 20.1106 15.5246 20.1046 15.5186 20.1016Z" fill="#9EDAE5"/>
<path d="M23.3619 3.88672L21.431 4.05762L21.425 4.07261L23.3619 3.90171C23.3619 3.90171 23.3619 3.89271 23.3619 3.88972" fill="#9EDAE5"/>
<path d="M27.4097 5.67098C27.4097 5.67098 27.4157 5.67997 27.4187 5.68297L28.2791 4.86446C28.2791 4.86446 28.2732 4.85847 28.2672 4.85547L27.4097 5.67098Z" fill="#9EDAE5"/>
<path d="M18.9666 13.9626C18.9666 13.9626 18.9726 13.9716 18.9756 13.9746L21.2902 11.8488L21.2782 11.8398L18.9666 13.9626Z" fill="#9EDAE5"/>
<path d="M18.6788 20.7456L22.2826 19.3245C22.2826 19.3245 22.2826 19.3155 22.2796 19.3125L18.6758 20.7336C18.6758 20.7336 18.6758 20.7426 18.6788 20.7456Z" fill="#9EDAE5"/>
<path d="M21.4192 4.06968L21.4252 4.05469L16.3013 4.50742C16.3013 4.50742 16.3013 4.51641 16.3013 4.51941L21.4162 4.06968H21.4192Z" fill="#9EDAE5"/>
<path d="M18.9937 14.3059L23.6739 17.3191L23.6799 17.3071L18.9997 14.2969C18.9997 14.2969 18.9937 14.3029 18.9907 14.3089" fill="#9EDAE5"/>
<path d="M23.491 3.61642C23.491 3.61642 23.497 3.61043 23.503 3.60743L22.1808 1.76953L22.1748 1.78452L23.491 3.61343V3.61642Z" fill="#9EDAE5"/>
<path d="M23.8237 6.31365L26.9808 5.8909C26.9808 5.8909 26.9808 5.8819 26.9808 5.87891L23.8237 6.30165V6.31664V6.31365Z" fill="#9EDAE5"/>
<path d="M19.1765 0.5625H19.1615L16.1843 4.30426C16.1873 4.30426 16.1933 4.31025 16.1963 4.31325L19.1765 0.5625Z" fill="#9EDAE5"/>
<path d="M22.1747 1.7643L21.4491 0.753906H21.4312L22.1687 1.77929L22.1747 1.7643Z" fill="#9EDAE5"/>
<path d="M23.7098 9.40652C23.7098 9.40652 23.7098 9.39753 23.7098 9.39453L22.3066 9.6134L22.3156 9.62539L23.7128 9.40952L23.7098 9.40652Z" fill="#9EDAE5"/>
<path d="M19.1974 0.532277L19.3683 0.316406C19.3683 0.316406 19.3563 0.316406 19.3503 0.316406L19.1824 0.529279H19.1974V0.532277Z" fill="#9EDAE5"/>
<path d="M20.7866 6.72053L23.8118 6.31577V6.30078L20.7866 6.70554C20.7866 6.70854 20.7866 6.71453 20.7866 6.71753" fill="#9EDAE5"/>
<path d="M19.0415 14.1751L25.2898 14.5139L25.2808 14.499L19.0445 14.1602C19.0445 14.1602 19.0445 14.1692 19.0445 14.1751" fill="#9EDAE5"/>
<path d="M21.2993 11.8386L22.8104 10.4534L22.8014 10.4414L21.2903 11.8326L21.2993 11.8386Z" fill="#9EDAE5"/>
<path d="M21.4282 0.725908L21.0174 0.15625C21.0174 0.15625 21.0054 0.15625 21.0024 0.15625L21.4102 0.725908H21.4282Z" fill="#9EDAE5"/>
<path d="M16.2262 21.6983L14.4243 22.4089C14.4243 22.4089 14.4243 22.4179 14.4273 22.4209L16.2322 21.7073L16.2262 21.6953V21.6983Z" fill="#9EDAE5"/>
<path d="M18.9757 10.141L22.3067 9.62527L22.2977 9.61328L18.9727 10.129C18.9727 10.129 18.9727 10.138 18.9727 10.141" fill="#9EDAE5"/>
<path d="M22.8074 10.4382L22.8134 10.4502L23.7818 9.56277C23.7818 9.56277 23.7758 9.55378 23.7728 9.55078L22.8074 10.4382Z" fill="#9EDAE5"/>
<path d="M23.6858 17.3077L23.6799 17.3197L25.062 18.2101L22.7324 19.1306C22.7324 19.1306 22.7324 19.1396 22.7354 19.1426L25.077 18.2191L26.768 19.3075V19.2925L25.092 18.2131L26.843 17.5206C26.843 17.5206 26.843 17.5116 26.843 17.5056L25.08 18.2011L23.6888 17.3047L23.6858 17.3077Z" fill="#9EDAE5"/>
<path d="M26.7768 19.296L26.7708 19.293L26.7678 19.308L26.7738 19.311L26.7768 19.296Z" fill="#9EDAE5"/>
<path d="M22.1687 1.77671L22.1747 1.7857L22.1807 1.76772L22.1747 1.76172L22.1687 1.77671Z" fill="#9EDAE5"/>
<path d="M21.4282 4.06968L21.4312 4.05469L21.4252 4.05769L21.4192 4.06968H21.4282Z" fill="#9EDAE5"/>
<path d="M17.7464 16.0408L17.7524 16.0318L17.7494 16.0078L17.7434 16.0198L17.7464 16.0408Z" fill="#9EDAE5"/>
<path d="M22.3066 9.62527H22.3126L22.3066 9.61328H22.2976L22.3066 9.62527Z" fill="#9EDAE5"/>
<path d="M22.8013 10.4405L22.8103 10.4525L22.8133 10.4495L22.8073 10.4375L22.8013 10.4405Z" fill="#9EDAE5"/>
<path d="M23.6798 17.3197L23.6858 17.3077L23.6798 17.3047L23.6738 17.3167L23.6798 17.3197Z" fill="#9EDAE5"/>
<path d="M25.2898 14.515H25.2988L25.2898 14.5H25.2808L25.2898 14.515Z" fill="#9EDAE5"/>
<path d="M25.3169 14.515H25.3319L25.3259 14.509C25.3259 14.509 25.3229 14.515 25.3199 14.515C25.3199 14.515 25.3139 14.515 25.3139 14.509V14.5H25.2959L25.3169 14.515Z" fill="#9EDAE5"/>
<path d="M16.2263 21.6974L16.2323 21.7094L16.2443 21.7064L16.2383 21.6914L16.2263 21.6974Z" fill="#9EDAE5"/>
<path d="M21.2903 11.847L21.2993 11.838L21.2903 11.832L21.2783 11.841L21.2903 11.847Z" fill="#9EDAE5"/>
<path d="M25.3198 14.5159C25.3198 14.5159 25.3258 14.5159 25.3258 14.5129V14.5069C25.3258 14.5069 25.3228 14.5069 25.3198 14.5039H25.3108V14.5129C25.3108 14.5129 25.3108 14.5189 25.3168 14.5189" fill="#9EDAE5"/>
<path d="M23.8116 6.31577L23.8236 6.31277V6.30078H23.8086L23.8116 6.31577Z" fill="#9EDAE5"/>
<path d="M12.5835 30.3248L14.3884 31.1343L14.4154 31.1163L12.5955 30.3008C12.5955 30.3008 12.5865 30.3158 12.5835 30.3248Z" fill="#9EDAE5"/>
<path d="M11.2372 33.2305L11.1143 33.2485L11.1023 33.2784L11.1862 33.2664L11.2372 33.2305Z" fill="#9EDAE5"/>
<path d="M14.4213 31.1172L14.3943 31.1352L14.6641 31.2551L14.6072 31.2011L14.4213 31.1172Z" fill="#9EDAE5"/>
<path d="M11.9209 35.3696L13.9177 33.058C13.9177 33.058 13.9027 33.049 13.8937 33.043L11.8819 35.3726H11.9179L11.9209 35.3696Z" fill="#9EDAE5"/>
<path d="M9.31853 32.0422L9.30054 32.0842L12.1548 30.3482C12.1548 30.3482 12.1428 30.3332 12.1398 30.3242L9.31853 32.0392V32.0422Z" fill="#9EDAE5"/>
<path d="M14.6253 31.2109L14.6793 31.2649L16.1844 31.9395C16.1844 31.9395 16.1934 31.9245 16.1964 31.9155L14.6223 31.2109H14.6253Z" fill="#9EDAE5"/>
<path d="M11.2012 33.2654L13.8306 32.9176C13.8306 32.9176 13.8246 32.8996 13.8246 32.8906L11.2521 33.2324L11.2012 33.2654Z" fill="#9EDAE5"/>
<path d="M6.52417 33.859C6.52417 33.859 6.53017 33.877 6.53017 33.886L8.65889 33.6042L8.67088 33.5742L6.52717 33.859H6.52417Z" fill="#9EDAE5"/>
<path d="M11.1053 33.25L8.67679 33.5738L8.66479 33.6008L11.0933 33.28L11.1053 33.25Z" fill="#9EDAE5"/>
<path d="M9.30941 32.0469L6.48511 33.7618C6.48511 33.7618 6.4971 33.7768 6.5001 33.7828L9.29142 32.0888L9.30941 32.0469Z" fill="#9EDAE5"/>
<path d="M10.7485 36.6852L10.7755 36.6942L11.9148 35.375H11.8789L10.7485 36.6852Z" fill="#9EDAE5"/>
<path d="M10.7427 36.6905L10.7697 36.7025L10.7757 36.6965L10.7487 36.6875L10.7427 36.6905Z" fill="#9EDAE5"/>
<path d="M11.8789 35.3771H11.9149L11.9209 35.3711H11.8849L11.8789 35.3771Z" fill="#9EDAE5"/>
<path d="M11.1143 33.25H11.1053L11.0933 33.28H11.1023L11.1143 33.25Z" fill="#9EDAE5"/>
<path d="M8.67668 33.5742H8.67068L8.65869 33.6042L8.66469 33.6012L8.67668 33.5742Z" fill="#9EDAE5"/>
<path d="M11.2013 33.2634L11.2552 33.2305H11.2372L11.1863 33.2664L11.2013 33.2634Z" fill="#9EDAE5"/>
<path d="M14.6072 31.2031L14.6641 31.2571L14.6791 31.2661L14.6252 31.2121L14.6072 31.2031Z" fill="#9EDAE5"/>
<path d="M14.4154 31.1172L14.3884 31.1352L14.3944 31.1382L14.4214 31.1202L14.4154 31.1172Z" fill="#9EDAE5"/>
<path d="M9.31849 32.043L9.30949 32.049L9.2915 32.0909L9.3005 32.0849L9.31849 32.043Z" fill="#9EDAE5"/>
<path d="M11.1443 25.5268L9.20148 25.1641L9.22546 25.197L11.1383 25.5568C11.1383 25.5568 11.1413 25.5388 11.1443 25.5298" fill="#9EDAE5"/>
<path d="M6.07745 33.758L1.57715 30.8438C1.57715 30.8438 1.58914 30.8737 1.59514 30.8857L6.06246 33.779C6.06246 33.779 6.07145 33.764 6.07745 33.758Z" fill="#9EDAE5"/>
<path d="M6.33221 33.6609C6.33221 33.6609 6.3502 33.6609 6.3592 33.6669L7.21369 30.4648H7.1867L6.33521 33.6609H6.33221Z" fill="#9EDAE5"/>
<path d="M11.1804 25.7139L10.209 26.5264L10.224 26.5474L11.1954 25.7349C11.1954 25.7349 11.1864 25.7199 11.1804 25.7109" fill="#9EDAE5"/>
<path d="M4.69217 24.3203L4.68018 24.3443L6.27522 24.6441V24.6171L4.69217 24.3203Z" fill="#9EDAE5"/>
<path d="M2.96512 24.2539L1.70288 25.4682L1.71487 25.4922L2.98311 24.2749C2.98311 24.2749 2.97112 24.2599 2.96512 24.2539Z" fill="#9EDAE5"/>
<path d="M10.2208 26.5561L10.2058 26.5352L7.8252 28.529C7.8252 28.529 7.83419 28.544 7.84019 28.5529L10.2208 26.5591V26.5561Z" fill="#9EDAE5"/>
<path d="M7.61251 28.8594L7.18677 30.4604H7.21375L7.6395 28.8654C7.6305 28.8654 7.62151 28.8654 7.61251 28.8594Z" fill="#9EDAE5"/>
<path d="M3.49593 24.0938C3.49593 24.0938 3.49293 24.1117 3.48993 24.1207L4.67122 24.3426L4.68321 24.3186L3.49293 24.0967L3.49593 24.0938Z" fill="#9EDAE5"/>
<path d="M9.19244 25.159L6.28418 24.6133V24.6433L9.21642 25.1919L9.19244 25.159Z" fill="#9EDAE5"/>
<path d="M1.69094 25.4805L0.386719 26.7337C0.386719 26.7337 0.389717 26.7547 0.392715 26.7667L1.70293 25.5045L1.69094 25.4805Z" fill="#9EDAE5"/>
<path d="M10.2268 26.5513L10.2118 26.5273L10.2058 26.5333L10.2208 26.5543L10.2268 26.5513Z" fill="#9EDAE5"/>
<path d="M9.20138 25.1632L9.19238 25.1602L9.21637 25.1931L9.22536 25.1961L9.20138 25.1632Z" fill="#9EDAE5"/>
<path d="M4.68631 24.3164L4.67432 24.3434H4.68031L4.69231 24.3194L4.68631 24.3164Z" fill="#9EDAE5"/>
<path d="M6.28414 24.6133H6.27515V24.6403L6.28414 24.6433V24.6133Z" fill="#9EDAE5"/>
<path d="M7.18659 30.457L7.18359 30.463H7.21058L7.21358 30.457H7.18659Z" fill="#9EDAE5"/>
<path d="M1.69991 25.4648L1.69092 25.4768L1.70591 25.5008L1.7149 25.4918L1.69991 25.4648Z" fill="#9EDAE5"/>
<path d="M7.81036 18.4735L3.5709 16.1289C3.5709 16.1289 3.5619 16.1439 3.55591 16.1529L7.79536 18.4975C7.79536 18.4975 7.80436 18.4825 7.81036 18.4735Z" fill="#9EDAE5"/>
<path d="M12.7125 14.2227L12.6795 14.2526L12.3347 16.8461L12.3647 16.8341L12.7125 14.2227Z" fill="#9EDAE5"/>
<path d="M4.20645 10.7365C4.20645 10.7365 4.18846 10.7335 4.17946 10.7305L3.33997 15.7015C3.33997 15.7015 3.35795 15.7045 3.36695 15.7075L4.20645 10.7365Z" fill="#9EDAE5"/>
<path d="M6.38009 15.0469L3.58276 15.8984C3.58276 15.8984 3.58576 15.9164 3.58876 15.9253L6.39208 15.0709L6.38009 15.0469Z" fill="#9EDAE5"/>
<path d="M7.8702 18.9062L6.39209 21.023C6.39209 21.023 6.40708 21.032 6.41608 21.038L7.90318 18.9092H7.8702V18.9062Z" fill="#9EDAE5"/>
<path d="M12.0469 19.0078V19.0138H12.0499L12.0469 19.0078Z" fill="#9EDAE5"/>
<path d="M9.39941 14.1232C9.39941 14.1232 9.40241 14.1412 9.40541 14.1502L12.5145 13.2028C12.5145 13.2028 12.5115 13.1848 12.5085 13.1758L9.39941 14.1232Z" fill="#9EDAE5"/>
<path d="M3.46295 16.2422C3.46295 16.2422 3.44796 16.2542 3.43896 16.2572L4.89909 18.8206H4.93207L3.46295 16.2422Z" fill="#9EDAE5"/>
<path d="M12.0557 19.0195H12.0467L11.7888 20.9534L11.8158 20.9684L12.0706 19.0435L12.0557 19.0195Z" fill="#9EDAE5"/>
<path d="M6.90786 9.21875L4.47632 10.3431C4.47632 10.3431 4.48531 10.3581 4.49131 10.3671L6.92285 9.24274C6.92285 9.24274 6.91086 9.22774 6.90786 9.21875Z" fill="#9EDAE5"/>
<path d="M12.6014 12.833L10.1818 10.5273C10.1818 10.5273 10.1698 10.5423 10.1638 10.5483L12.5834 12.8539C12.5834 12.8539 12.5924 12.839 12.6014 12.833Z" fill="#9EDAE5"/>
<path d="M4.93801 18.8281H4.90503L6.15828 21.0258C6.16727 21.0198 6.17327 21.0138 6.17926 21.0108L4.93501 18.8281H4.93801Z" fill="#9EDAE5"/>
<path d="M12.8173 13.4396C12.8173 13.4396 12.7993 13.4366 12.7903 13.4336L12.6824 14.2431L12.7124 14.2131L12.8143 13.4396H12.8173Z" fill="#9EDAE5"/>
<path d="M7.9092 18.9017C7.9092 18.9017 7.89421 18.8927 7.88521 18.8867L7.87622 18.9017H7.9092Z" fill="#9EDAE5"/>
<path d="M12.3346 16.8548L12.0527 18.9656L12.0767 19.0015L12.3645 16.8398L12.3346 16.8548Z" fill="#9EDAE5"/>
<path d="M7.51646 9.21484C7.51646 9.21484 7.50746 9.22983 7.50146 9.23883L9.79509 10.2942C9.79509 10.2942 9.80408 10.2792 9.80708 10.2702L7.51646 9.21484Z" fill="#9EDAE5"/>
<path d="M11.7859 20.9805L11.3811 24.0236C11.3811 24.0236 11.3991 24.0266 11.4081 24.0296L11.8098 20.9955L11.7859 20.9805Z" fill="#9EDAE5"/>
<path d="M8.81181 14.3047L6.39526 15.0422L6.40726 15.0662L8.81781 14.3317C8.81781 14.3317 8.81481 14.3137 8.81181 14.3047Z" fill="#9EDAE5"/>
<path d="M7.90334 18.9083L7.90934 18.9023H7.87636L7.87036 18.9083H7.90334Z" fill="#9EDAE5"/>
<path d="M4.93208 18.8203H4.9021L4.9051 18.8263L4.93808 18.8293L4.93208 18.8203Z" fill="#9EDAE5"/>
<path d="M12.0559 19.0216L12.0499 19.0156H12.0469V19.0216H12.0559Z" fill="#9EDAE5"/>
<path d="M12.3647 16.8419V16.8359L12.3347 16.8479V16.8569L12.3647 16.8419Z" fill="#9EDAE5"/>
<path d="M12.7124 14.2109L12.6824 14.2409L12.6794 14.2529L12.7124 14.2229V14.2109Z" fill="#9EDAE5"/>
<path d="M6.39518 15.0391L6.38019 15.0451L6.39218 15.069L6.40717 15.066L6.39518 15.0391Z" fill="#9EDAE5"/>
<path d="M24.2583 9.25392L27.6223 7.7848C27.6223 7.7848 27.6223 7.76681 27.6163 7.75781L24.2463 9.22993C24.2463 9.22993 24.2553 9.24492 24.2583 9.25392Z" fill="#9EDAE5"/>
<path d="M27.0017 5.74077C27.0017 5.74077 27.0107 5.72578 27.0167 5.71679L23.9615 4.00781C23.9615 4.00781 23.9525 4.0228 23.9465 4.0318L27.0017 5.74077Z" fill="#9EDAE5"/>
<path d="M27.7663 7.46211C27.7663 7.46211 27.7843 7.45911 27.7933 7.45612L27.3256 6.08594C27.3256 6.08594 27.3076 6.08594 27.2986 6.09193L27.7663 7.46211Z" fill="#9EDAE5"/>
<path d="M23.9856 3.79487L26.1023 3.19822C26.1203 3.18323 26.1383 3.16824 26.1533 3.15625L23.9766 3.76788C23.9766 3.76788 23.9796 3.78587 23.9826 3.79487" fill="#9EDAE5"/>
<path d="M26.507 11.473L26.2342 11.2422C26.2342 11.2422 26.2162 11.2512 26.2102 11.2572L26.495 11.497C26.495 11.497 26.504 11.482 26.51 11.473" fill="#9EDAE5"/>
<path d="M26.1863 11.2372C26.1863 11.2372 26.2013 11.2282 26.2103 11.2222L24.2165 9.53125C24.2165 9.53125 24.2075 9.54624 24.2015 9.55524L26.1863 11.2372Z" fill="#9EDAE5"/>
<path d="M26.7261 11.4107C26.7261 11.4107 26.7441 11.4107 26.7531 11.4167L26.927 10.832C26.927 10.832 26.903 10.844 26.894 10.853L26.7291 11.4107H26.7261Z" fill="#9EDAE5"/>
<path d="M27.7903 7.92787C27.7903 7.92787 27.7723 7.92787 27.7633 7.92188L26.9028 10.8151C26.9028 10.8151 26.9268 10.8031 26.9358 10.7942L27.7873 7.92487L27.7903 7.92787Z" fill="#9EDAE5"/>
<path d="M31.0403 9.34985L30.8574 9.25391C30.8574 9.25391 30.8304 9.2599 30.8154 9.2629L30.9983 9.35884C30.9983 9.35884 31.0253 9.35285 31.0373 9.34985" fill="#9EDAE5"/>
<path d="M31.508 8.93575C31.508 8.93575 31.517 8.93575 31.523 8.93575C31.529 8.93575 31.532 8.93575 31.535 8.93575L31.526 8.43805C31.526 8.43805 31.508 8.42306 31.499 8.41406L31.508 8.93575Z" fill="#9EDAE5"/>
<path d="M30.4737 7.36774C30.4737 7.36774 30.4587 7.35274 30.4527 7.34375L28.0872 7.63158C28.0872 7.63158 28.0902 7.64957 28.0932 7.65856L30.4737 7.36774Z" fill="#9EDAE5"/>
<path d="M30.8185 9.23238L28.0782 7.78125C28.0782 7.78125 28.0692 7.79624 28.0662 7.80524L30.7765 9.24137C30.7765 9.24137 30.8035 9.23538 30.8185 9.23238Z" fill="#9EDAE5"/>
<path d="M8.23315 18.9113H8.25414L8.24815 18.9023C8.24215 18.9053 8.23915 18.9083 8.23315 18.9113Z" fill="#9EDAE5"/>
<path d="M7.06366 9.38218C7.06366 9.38218 7.04867 9.37318 7.03967 9.36719L5.22876 12.5663L5.24375 12.5962L7.06366 9.38218Z" fill="#9EDAE5"/>
<path d="M11.8158 20.9688L11.8098 20.9987L13.5188 22.0721L13.5398 22.0541L11.8158 20.9688Z" fill="#9EDAE5"/>
<path d="M14.0285 22.6016L11.564 24.1336C11.564 24.1336 11.576 24.1486 11.579 24.1576L14.0435 22.6255C14.0435 22.6255 14.0315 22.6106 14.0285 22.6046" fill="#9EDAE5"/>
<path d="M12.0767 19.0039L12.0737 19.0159H12.0827L12.0767 19.0039Z" fill="#9EDAE5"/>
<path d="M22.3127 0.828501C22.3127 0.828501 22.3157 0.810512 22.3187 0.801518L21.4282 0.726562L21.4492 0.756544L22.3157 0.8315L22.3127 0.828501Z" fill="#9EDAE5"/>
<path d="M0.908335 24.0352H0.0478516C0.0478516 24.0352 0.0478516 24.0531 0.0478516 24.0621H0.923326L0.908335 24.0352Z" fill="#9EDAE5"/>
<path d="M13.5458 22.0586L13.5278 22.0796L14.0315 22.3944C14.0315 22.3944 14.0405 22.3794 14.0465 22.3734L13.5488 22.0616L13.5458 22.0586Z" fill="#9EDAE5"/>
<path d="M14.1305 22.6992L13.4739 24.4232C13.4739 24.4232 13.4919 24.4262 13.5009 24.4322L14.1575 22.7082C14.1575 22.7082 14.1395 22.7052 14.1305 22.6992Z" fill="#9EDAE5"/>
<path d="M2.88716 24.0651C2.88716 24.0651 2.88716 24.0561 2.88716 24.0501C2.88716 24.0441 2.88716 24.0412 2.88716 24.0352H0.92334L0.938331 24.0621H2.88716V24.0651Z" fill="#9EDAE5"/>
<path d="M9.28246 14.4805C9.28246 14.4805 9.26747 14.4925 9.26147 14.4955L10.4308 16.3873L10.4518 16.3693L9.28546 14.4805H9.28246Z" fill="#9EDAE5"/>
<path d="M12.0888 19.0195H12.0738L12.0708 19.0435L13.7798 21.8079L13.7978 21.7899L12.0888 19.0195Z" fill="#9EDAE5"/>
<path d="M11.609 24.2969C11.609 24.2969 11.606 24.3149 11.603 24.3239L13.258 24.5727C13.258 24.5727 13.261 24.5547 13.264 24.5457L11.609 24.2969Z" fill="#9EDAE5"/>
<path d="M13.7827 21.814L14.0945 22.3177C14.0945 22.3177 14.1095 22.3057 14.1185 22.3027L13.8037 21.793L13.7827 21.814Z" fill="#9EDAE5"/>
<path d="M11.0753 17.3828L11.0483 17.3918L12.0467 19.0078L12.0527 18.9659L11.0753 17.3828Z" fill="#9EDAE5"/>
<path d="M9.01548 13.9308L7.33948 9.39453C7.33948 9.39453 7.32149 9.39453 7.3125 9.40053L8.98849 13.9368C8.98849 13.9368 9.00648 13.9368 9.01548 13.9308Z" fill="#9EDAE5"/>
<path d="M8.56293 18.9258H8.51196L11.786 20.9825L11.789 20.9556L8.56293 18.9258Z" fill="#9EDAE5"/>
<path d="M6.10725 21.3516L3.41187 23.8341C3.41187 23.8341 3.42086 23.8491 3.42686 23.8581L6.12224 21.3755C6.12224 21.3755 6.11025 21.3606 6.10425 21.3546" fill="#9EDAE5"/>
<path d="M8.2571 18.918H8.22412L11.2253 24.0689C11.2343 24.0629 11.2403 24.0569 11.2493 24.0539L8.2571 18.918Z" fill="#9EDAE5"/>
<path d="M8.55376 18.9189L8.35288 18.793C8.35288 18.793 8.34389 18.808 8.33789 18.814L8.50279 18.9159H8.55676L8.55376 18.9189Z" fill="#9EDAE5"/>
<path d="M6.47617 21.3116C6.47617 21.3116 6.46718 21.3266 6.46118 21.3326L11.1444 24.1539C11.1444 24.1539 11.1534 24.1389 11.1594 24.1299L6.47617 21.3086V21.3116Z" fill="#9EDAE5"/>
<path d="M3.43896 15.7331C3.43896 15.7331 3.45396 15.7421 3.46295 15.7481L5.23789 12.612L5.22289 12.582L3.43896 15.7331Z" fill="#9EDAE5"/>
<path d="M23.4699 0.927066C23.4699 0.927066 23.4819 0.909076 23.4849 0.900082L22.6544 0.828125C22.6544 0.828125 22.6514 0.846114 22.6484 0.855109L23.4699 0.924067V0.927066Z" fill="#9EDAE5"/>
<path d="M19.1825 0.535618L18.433 0.472656C18.4 0.478653 18.364 0.484649 18.3311 0.490645L19.1616 0.562602L19.1825 0.535618Z" fill="#9EDAE5"/>
<path d="M21.4312 0.754025L21.4102 0.724043L19.1975 0.535156L19.1765 0.56214L21.4312 0.754025Z" fill="#9EDAE5"/>
<path d="M10.4518 16.375L10.4338 16.393L11.0455 17.3854L11.0725 17.3764L10.4518 16.375Z" fill="#9EDAE5"/>
<path d="M8.55397 18.918H8.5L8.51199 18.924H8.56296L8.55397 18.918Z" fill="#9EDAE5"/>
<path d="M12.0887 19.0216L12.0827 19.0156H12.0737V19.0216H12.0887Z" fill="#9EDAE5"/>
<path d="M8.2541 18.9102H8.23312C8.23312 18.9102 8.22712 18.9132 8.22412 18.9162H8.2571V18.9102H8.2541Z" fill="#9EDAE5"/>
<path d="M13.5458 22.0577L13.5398 22.0547L13.5189 22.0727L13.5249 22.0757L13.5458 22.0577Z" fill="#9EDAE5"/>
<path d="M13.8038 21.7951L13.7978 21.7891L13.7798 21.8071L13.7828 21.813L13.8038 21.7951Z" fill="#9EDAE5"/>
<path d="M10.4517 16.3771L10.4487 16.3711L10.4277 16.3891L10.4337 16.3951L10.4517 16.3771Z" fill="#9EDAE5"/>
<path d="M11.0724 17.3789L11.0454 17.3879L11.0484 17.3939L11.0754 17.3849L11.0724 17.3789Z" fill="#9EDAE5"/>
<path d="M5.2319 12.5664L5.2229 12.5814L5.23789 12.6114L5.24389 12.5964L5.2319 12.5664Z" fill="#9EDAE5"/>
<path d="M0.923438 24.0352H0.908447L0.923438 24.0621H0.938429L0.923438 24.0352Z" fill="#9EDAE5"/>
<path d="M21.4311 0.752638H21.4491L21.4281 0.725654L21.4102 0.722656L21.4311 0.752638Z" fill="#9EDAE5"/>
<path d="M19.1766 0.56214L19.1976 0.535156H19.1826L19.1616 0.559142L19.1766 0.56214Z" fill="#9EDAE5"/>
<path d="M12.0737 19.0195H12.0557L12.0707 19.0435L12.0737 19.0195Z" fill="#9EDAE5"/>
<path d="M11.8159 20.9681L11.7889 20.9531L11.7859 20.9801L11.8099 20.9981L11.8159 20.9681Z" fill="#9EDAE5"/>
<path d="M12.0739 19.0128L12.0769 19.0008L12.0529 18.9648L12.0469 19.0068L12.0499 19.0128H12.0739Z" fill="#9EDAE5"/>
<path d="M12.0738 19.0156H12.0498L12.0558 19.0216H12.0738V19.0156Z" fill="#9EDAE5"/>
<path d="M1.34621 14.8711C1.34621 14.8711 1.34022 14.8891 1.33722 14.8981L3.0402 15.8635C3.0402 15.8635 3.04919 15.8485 3.05519 15.8395L1.34621 14.8711Z" fill="#9EDAE5"/>
<path d="M3.31601 16.2921C3.31601 16.2921 3.31001 16.2921 3.30701 16.2921C3.30102 16.2921 3.29502 16.2891 3.28902 16.2891L3.25604 18.7746H3.28303L3.31601 16.2891V16.2921Z" fill="#9EDAE5"/>
<path d="M3.19601 23.7403C3.19601 23.7403 3.208 23.7433 3.214 23.7433L3.28295 18.7812H3.25597L3.18701 23.7403C3.19001 23.7403 3.19301 23.7403 3.19601 23.7403Z" fill="#9EDAE5"/>
<path d="M2.99227 23.8193L0.0720215 20.7852C0.0720215 20.7852 0.0720215 20.8091 0.0720215 20.8211L2.97428 23.8343C2.97428 23.8343 2.98927 23.8223 2.99527 23.8163" fill="#9EDAE5"/>
<path d="M3.27991 18.7734H3.25293V18.7794L3.27991 18.7824V18.7734Z" fill="#9EDAE5"/>
<path d="M14.7213 8.0469L15.069 7.10547L15.0391 7.10847L14.6973 8.03491L14.7213 8.0469Z" fill="#9EDAE5"/>
<path d="M14.4185 8.79643L14.4364 8.82041L14.7183 8.06187L14.6943 8.04688L14.4185 8.79643Z" fill="#9EDAE5"/>
<path d="M20.3429 6.62788L16.2833 4.66406C16.2833 4.66406 16.2713 4.67905 16.2683 4.68805L20.3279 6.65187C20.3279 6.65187 20.3369 6.63688 20.3429 6.62788Z" fill="#9EDAE5"/>
<path d="M23.5509 3.57251C23.5509 3.57251 23.5689 3.56652 23.5779 3.56352L22.9543 1.98047C22.9543 1.98047 22.9363 1.98047 22.9243 1.98047L23.5509 3.56952V3.57251Z" fill="#9EDAE5"/>
<path d="M22.5315 0.989463L22.8733 1.86194C22.8733 1.86194 22.8853 1.84395 22.8913 1.83496L22.5555 0.980469C22.5555 0.980469 22.5375 0.986465 22.5285 0.989463" fill="#9EDAE5"/>
<path d="M14.4334 8.82477L14.4124 8.80078L12.9553 12.7494C12.9553 12.7494 12.9733 12.7494 12.9823 12.7554L14.4334 8.82477Z" fill="#9EDAE5"/>
<path d="M22.4086 0.676035C22.4086 0.676035 22.4266 0.670039 22.4356 0.66704L22.2167 0.109375C22.2167 0.109375 22.1988 0.109375 22.1868 0.109375L22.4086 0.676035Z" fill="#9EDAE5"/>
<path d="M20.7355 6.5948L23.4548 4.0943C23.4548 4.0943 23.4458 4.07931 23.4398 4.07031L20.7205 6.57381C20.7205 6.57381 20.7325 6.5888 20.7355 6.5948Z" fill="#9EDAE5"/>
<path d="M15.072 7.10076L15.9085 4.83412C15.9085 4.83412 15.8905 4.83412 15.8815 4.82812L15.042 7.10076H15.072Z" fill="#9EDAE5"/>
<path d="M15.0391 7.11056L15.069 7.10756L15.072 7.10156L15.0421 7.10456L15.0391 7.11056Z" fill="#9EDAE5"/>
<path d="M14.4363 8.82086L14.4183 8.79688L14.4153 8.80287L14.4333 8.82686L14.4363 8.82086Z" fill="#9EDAE5"/>
<path d="M14.6942 8.04715L14.7182 8.06214L14.7212 8.04715L14.6972 8.03516L14.6942 8.04715Z" fill="#9EDAE5"/>
<path d="M23.8597 3.60604L24.9031 1.95703C24.9031 1.95703 24.8821 1.95703 24.8701 1.95703L23.8357 3.59105C23.8357 3.59105 23.8507 3.60005 23.8567 3.60604" fill="#9EDAE5"/>
<path d="M7.87318 28.7148C7.87318 28.7148 7.87318 28.7328 7.86719 28.7418L10.3497 29.5603L10.3587 29.5364L7.87019 28.7178L7.87318 28.7148Z" fill="#9EDAE5"/>
<path d="M2.14677 27.8242L2.11679 27.8302L1.39722 30.3847C1.39722 30.3847 1.40921 30.4117 1.41221 30.4267L2.14677 27.8242Z" fill="#9EDAE5"/>
<path d="M10.3679 29.5391L10.3589 29.563L12.1218 30.1447C12.1218 30.1447 12.1218 30.1267 12.1278 30.1177L10.3679 29.5391Z" fill="#9EDAE5"/>
<path d="M2.42545 26.8329L2.40746 26.7969L2.11963 27.8163L2.14961 27.8103L2.42545 26.8329Z" fill="#9EDAE5"/>
<path d="M5.97529 26.8945L5.94531 26.9035L6.27511 27.2453V27.2063L5.97529 26.8945Z" fill="#9EDAE5"/>
<path d="M3.10016 24.3428L2.41357 26.7774L2.43156 26.8104L3.12715 24.3458C3.12715 24.3458 3.10916 24.3458 3.10016 24.3398" fill="#9EDAE5"/>
<path d="M7.54649 28.5122L6.28125 27.2109V27.2499L7.5255 28.5301C7.5255 28.5301 7.5375 28.5182 7.54649 28.5122Z" fill="#9EDAE5"/>
<path d="M3.42089 24.2617C3.42089 24.2617 3.4059 24.2737 3.3999 24.2797L4.25439 25.1612L4.26638 25.1342L3.41789 24.2617H3.42089Z" fill="#9EDAE5"/>
<path d="M5.96348 26.8856L4.27249 25.1406L4.2605 25.1676L5.93349 26.8916L5.96348 26.8856Z" fill="#9EDAE5"/>
<path d="M4.27244 25.1397L4.26645 25.1367L4.25446 25.1607L4.26045 25.1667L4.27244 25.1397Z" fill="#9EDAE5"/>
<path d="M6.28414 27.213L6.27515 27.207V27.246L6.28414 27.252V27.213Z" fill="#9EDAE5"/>
<path d="M10.3618 29.5352L10.3498 29.5621L10.3558 29.5651L10.3678 29.5382L10.3618 29.5352Z" fill="#9EDAE5"/>
<path d="M2.14968 27.8086L2.1197 27.8146L2.1167 27.8296L2.14668 27.8236L2.14968 27.8086Z" fill="#9EDAE5"/>
<path d="M5.96333 26.8867L5.93335 26.8927L5.94534 26.9047L5.97532 26.8957L5.96333 26.8867Z" fill="#9EDAE5"/>
<path d="M2.43146 26.8103L2.41347 26.7773L2.40747 26.7953L2.42546 26.8313L2.43146 26.8103Z" fill="#9EDAE5"/>
<path d="M26.8819 11.5325C26.8819 11.5325 26.8879 11.5505 26.8909 11.5565L30.4468 10.0874C30.4468 10.0874 30.4348 10.0724 30.4288 10.0664L26.8789 11.5325H26.8819Z" fill="#9EDAE5"/>
<path d="M26.2073 11.2556C26.2073 11.2556 26.2223 11.2466 26.2313 11.2406L26.2103 11.2227C26.2103 11.2227 26.1953 11.2317 26.1863 11.2376L26.2073 11.2556Z" fill="#9EDAE5"/>
<path d="M26.9268 10.8319L26.9388 10.793C26.9388 10.793 26.9148 10.808 26.9058 10.814L26.8938 10.8529C26.8938 10.8529 26.9178 10.8409 26.9268 10.8319Z" fill="#9EDAE5"/>
<path d="M30.8155 9.25654C30.8155 9.25654 30.8425 9.25055 30.8575 9.24755L30.8215 9.22656C30.8215 9.22656 30.7945 9.23256 30.7795 9.23556L30.8155 9.25654Z" fill="#9EDAE5"/>
<path d="M1.50208 30.5499C1.50208 30.5499 1.49908 30.5499 1.49608 30.5469L1.4751 30.5859C1.4751 30.5859 1.4751 30.5918 1.4781 30.5948L1.49908 30.5499H1.50208Z" fill="#9EDAE5"/>
<path d="M7.87629 35.4835H7.87329L7.87929 35.4865V35.4805L7.87629 35.4835Z" fill="#9EDAE5"/>
<path d="M7.87036 35.4766V35.4796L7.87336 35.4766H7.87036Z" fill="#9EDAE5"/>
<path d="M31.541 9.22067C31.556 9.21767 31.574 9.21467 31.589 9.20868L31.541 9.13672V9.22067Z" fill="#9EDAE5"/>
<path d="M31.535 8.93359C31.535 8.93359 31.526 8.93359 31.523 8.93359C31.517 8.93359 31.514 8.93359 31.508 8.93359C31.415 8.94259 31.3401 9.01754 31.3401 9.11349C31.3401 9.12248 31.3431 9.13148 31.3461 9.14047C31.3521 9.18544 31.3731 9.22142 31.406 9.2514C31.442 9.24241 31.478 9.23341 31.514 9.22442C31.523 9.22442 31.532 9.22142 31.541 9.21842V9.13447L31.5889 9.20643C31.5979 9.20643 31.6069 9.20343 31.6159 9.20043C31.6399 9.19444 31.6669 9.18844 31.6909 9.18244C31.6999 9.16146 31.7059 9.13747 31.7059 9.11349C31.7059 9.01754 31.6309 8.93959 31.535 8.93359Z" fill="#9EDAE5"/>
<path d="M6.57813 33.8954C6.57813 34.0573 6.4462 34.1892 6.2843 34.1892C6.1224 34.1892 5.99048 34.0573 5.99048 33.8954C5.99048 33.7335 6.1224 33.6016 6.2843 33.6016C6.4462 33.6016 6.57813 33.7335 6.57813 33.8954Z" fill="#9EDAE5"/>
<path d="M16.8829 32.0406C16.8829 32.2654 16.7 32.4483 16.4751 32.4483C16.2503 32.4483 16.0674 32.2654 16.0674 32.0406C16.0674 31.8157 16.2503 31.6328 16.4751 31.6328C16.7 31.6328 16.8829 31.8157 16.8829 32.0406Z" fill="#00517B"/>
<path d="M17.6205 29.1241C17.6205 29.268 17.5036 29.385 17.3626 29.385C17.2217 29.385 17.1018 29.268 17.1018 29.1241C17.1018 28.9802 17.2187 28.8633 17.3626 28.8633C17.5066 28.8633 17.6205 28.9802 17.6205 29.1241Z" fill="#9EDAE5"/>
<path d="M18.7208 31.4718C18.7208 31.6157 18.6039 31.7326 18.463 31.7326C18.3221 31.7326 18.2021 31.6157 18.2021 31.4718C18.2021 31.3279 18.3191 31.2109 18.463 31.2109C18.6069 31.2109 18.7208 31.3279 18.7208 31.4718Z" fill="#9EDAE5"/>
<path d="M11.6271 25.5772C11.6271 25.7212 11.5102 25.8351 11.3662 25.8351C11.2223 25.8351 11.1084 25.7182 11.1084 25.5772C11.1084 25.4363 11.2253 25.3164 11.3662 25.3164C11.5072 25.3164 11.6271 25.4333 11.6271 25.5772Z" fill="#9EDAE5"/>
<path d="M9.02449 28.6547C9.02449 29.4192 8.40386 30.0399 7.63932 30.0399C6.87478 30.0399 6.25415 29.4192 6.25415 28.6547C6.25415 27.8902 6.87478 27.2695 7.63932 27.2695C8.40386 27.2695 9.02449 27.8902 9.02449 28.6547Z" fill="#9EDAE5"/>
<path d="M14.4694 22.4757C14.4694 22.6196 14.3524 22.7335 14.2085 22.7335C14.0646 22.7335 13.9507 22.6166 13.9507 22.4757C13.9507 22.3348 14.0676 22.2148 14.2085 22.2148C14.3494 22.2148 14.4694 22.3318 14.4694 22.4757Z" fill="#9EDAE5"/>
<path d="M6.54219 21.2071C6.54219 21.351 6.42527 21.4679 6.28135 21.4679C6.13744 21.4679 6.02051 21.351 6.02051 21.2071C6.02051 21.0632 6.13744 20.9492 6.28135 20.9492C6.42527 20.9492 6.54219 21.0661 6.54219 21.2071Z" fill="#00517B"/>
<path d="M16.4481 19.9693C16.4481 20.431 16.0734 20.8058 15.6116 20.8058C15.1499 20.8058 14.7751 20.431 14.7751 19.9693C14.7751 19.5076 15.1499 19.1328 15.6116 19.1328C16.0734 19.1328 16.4481 19.5076 16.4481 19.9693Z" fill="#9EDAE5"/>
<path d="M18.8287 20.7798C18.8287 20.9807 18.6638 21.1456 18.4629 21.1456C18.2621 21.1456 18.0972 20.9807 18.0972 20.7798C18.0972 20.579 18.2621 20.4141 18.4629 20.4141C18.6638 20.4141 18.8287 20.579 18.8287 20.7798Z" fill="#00517B"/>
<path d="M24.5283 19.2261C24.5283 20.3234 23.6379 21.2139 22.5405 21.2139C21.4432 21.2139 20.5527 20.3234 20.5527 19.2261C20.5527 18.1287 21.4432 17.2383 22.5405 17.2383C23.6379 17.2383 24.5283 18.1287 24.5283 19.2261Z" fill="#00517B"/>
<path d="M19.6022 14.1508C19.6022 14.6095 19.2304 14.9813 18.7717 14.9813C18.3129 14.9813 17.9412 14.6095 17.9412 14.1508C17.9412 13.6921 18.3129 13.3203 18.7717 13.3203C19.2304 13.3203 19.6022 13.6921 19.6022 14.1508Z" fill="#00517B"/>
<path d="M10.4277 10.366C10.4277 10.5968 10.2418 10.7827 10.011 10.7827C9.78013 10.7827 9.59424 10.5968 9.59424 10.366C9.59424 10.1351 9.78013 9.94922 10.011 9.94922C10.2418 9.94922 10.4277 10.1351 10.4277 10.366Z" fill="#9EDAE5"/>
<path d="M4.59325 10.4593C4.59325 10.6332 4.45233 10.7742 4.27843 10.7742C4.10454 10.7742 3.96362 10.6332 3.96362 10.4593C3.96362 10.2854 4.10454 10.1445 4.27843 10.1445C4.45233 10.1445 4.59325 10.2854 4.59325 10.4593Z" fill="#9EDAE5"/>
<path d="M4.34731 15.9488C4.34731 16.5035 3.89758 16.9562 3.33992 16.9562C2.78225 16.9562 2.33252 16.5065 2.33252 15.9488C2.33252 15.3911 2.78225 14.9414 3.33992 14.9414C3.89758 14.9414 4.34731 15.3911 4.34731 15.9488Z" fill="#9EDAE5"/>
<path d="M9.56732 14.2223C9.56732 14.4711 9.36344 14.675 9.11459 14.675C8.86574 14.675 8.66187 14.4711 8.66187 14.2223C8.66187 13.9734 8.86574 13.7695 9.11459 13.7695C9.36344 13.7695 9.56732 13.9734 9.56732 14.2223Z" fill="#00517B"/>
<path d="M9.29145 18.629C9.29145 19.2916 8.75477 19.8312 8.08917 19.8312C7.42357 19.8312 6.88989 19.2946 6.88989 18.629C6.88989 17.9634 7.42657 17.4297 8.08917 17.4297C8.75178 17.4297 9.29145 17.9664 9.29145 18.629Z" fill="#00517B"/>
<path d="M26.9839 11.6156C26.9839 11.7895 26.843 11.9304 26.6691 11.9304C26.4952 11.9304 26.3542 11.7895 26.3542 11.6156C26.3542 11.4417 26.4952 11.3008 26.6691 11.3008C26.843 11.3008 26.9839 11.4417 26.9839 11.6156Z" fill="#9EDAE5"/>
<path d="M24.2944 9.35778C24.2944 9.53168 24.1535 9.67259 23.9796 9.67259C23.8057 9.67259 23.6648 9.53168 23.6648 9.35778C23.6648 9.18388 23.8057 9.04297 23.9796 9.04297C24.1535 9.04297 24.2944 9.18388 24.2944 9.35778Z" fill="#00517B"/>
<path d="M24.0095 3.86914C24.0095 4.05803 23.8566 4.21093 23.6677 4.21093C23.4788 4.21093 23.3259 4.05803 23.3259 3.86914C23.3259 3.68025 23.4788 3.52734 23.6677 3.52734C23.8566 3.52734 24.0095 3.68025 24.0095 3.86914Z" fill="#00517B"/>
<path d="M16.3853 4.52539C16.3853 4.71428 16.2323 4.86718 16.0435 4.86718C15.8546 4.86718 15.7017 4.71428 15.7017 4.52539C15.7017 4.3365 15.8546 4.18359 16.0435 4.18359C16.2323 4.18359 16.3853 4.3365 16.3853 4.52539Z" fill="#00517B"/>
<path d="M22.7145 0.828792C22.7145 0.963711 22.6065 1.07165 22.4716 1.07165C22.3367 1.07165 22.2288 0.963711 22.2288 0.828792C22.2288 0.693873 22.3367 0.585938 22.4716 0.585938C22.6065 0.585938 22.7145 0.693873 22.7145 0.828792Z" fill="#9EDAE5"/>
<path d="M28.1741 7.70153C28.1741 7.87543 28.0331 8.01634 27.8592 8.01634C27.6853 8.01634 27.5444 7.87543 27.5444 7.70153C27.5444 7.52763 27.6853 7.38672 27.8592 7.38672C28.0331 7.38672 28.1741 7.52763 28.1741 7.70153Z" fill="#9EDAE5"/>
<path d="M27.5205 5.81908C27.5205 5.97798 27.3916 6.1069 27.2327 6.1069C27.0737 6.1069 26.9448 5.97798 26.9448 5.81908C26.9448 5.66017 27.0737 5.53125 27.2327 5.53125C27.3916 5.53125 27.5205 5.66017 27.5205 5.81908Z" fill="#00517B"/>
<path d="M21.932 6.75626C21.932 7.5208 21.3113 8.14143 20.5468 8.14143C19.7822 8.14143 19.1616 7.5208 19.1616 6.75626C19.1616 5.99172 19.7822 5.37109 20.5468 5.37109C21.3113 5.37109 21.932 5.99172 21.932 6.75626Z" fill="#00517B"/>
<path d="M14.0647 7.21496C14.0647 7.71566 13.6599 8.11742 13.1622 8.11742C12.6645 8.11742 12.2598 7.71266 12.2598 7.21496C12.2598 6.71726 12.6645 6.3125 13.1622 6.3125C13.6599 6.3125 14.0647 6.71726 14.0647 7.21496Z" fill="#9EDAE5"/>
<path d="M7.62452 9.09534C7.62452 9.29922 7.45962 9.46412 7.25574 9.46412C7.05186 9.46412 6.88696 9.29922 6.88696 9.09534C6.88696 8.89146 7.05186 8.72656 7.25574 8.72656C7.45962 8.72656 7.62452 8.89146 7.62452 9.09534Z" fill="#00517B"/>
<path d="M14.8652 13.0608C14.8652 14.1761 13.9597 15.0785 12.8474 15.0785C11.735 15.0785 10.8296 14.1731 10.8296 13.0608C10.8296 11.9484 11.735 11.043 12.8474 11.043C13.9597 11.043 14.8652 11.9484 14.8652 13.0608Z" fill="#9EDAE5"/>
<path d="M19.0716 10.1787C19.0716 10.3436 18.9366 10.4785 18.7717 10.4785C18.6068 10.4785 18.4719 10.3436 18.4719 10.1787C18.4719 10.0138 18.6068 9.87891 18.7717 9.87891C18.9366 9.87891 19.0716 10.0138 19.0716 10.1787Z" fill="#00517B"/>
<path d="M14.9251 24.5749C14.9251 25.3934 14.2625 26.056 13.444 26.056C12.6255 26.056 11.9629 25.3934 11.9629 24.5749C11.9629 23.7564 12.6255 23.0938 13.444 23.0938C14.2625 23.0938 14.9251 23.7564 14.9251 24.5749Z" fill="#00517B"/>
<path d="M11.672 24.2162C11.672 24.3901 11.5311 24.5341 11.3542 24.5341C11.1773 24.5341 11.0364 24.3931 11.0364 24.2162C11.0364 24.0394 11.1773 23.8984 11.3542 23.8984C11.5311 23.8984 11.672 24.0394 11.672 24.2162Z" fill="#00517B"/>
<path d="M3.5288 24.0645C3.5288 24.2533 3.3759 24.4062 3.18701 24.4062C2.99812 24.4062 2.84521 24.2533 2.84521 24.0645C2.84521 23.8756 2.99812 23.7227 3.18701 23.7227C3.3759 23.7227 3.5288 23.8756 3.5288 24.0645Z" fill="#9EDAE5"/>
<path d="M14.4483 32.8897C14.4483 33.1265 14.2564 33.3184 14.0196 33.3184C13.7827 33.3184 13.5908 33.1265 13.5908 32.8897C13.5908 32.6528 13.7827 32.4609 14.0196 32.4609C14.2564 32.4609 14.4483 32.6528 14.4483 32.8897Z" fill="#9EDAE5"/>
<path d="M12.6763 30.2195C12.6763 30.4054 12.5264 30.5523 12.3435 30.5523C12.1607 30.5523 12.0107 30.4024 12.0107 30.2195C12.0107 30.0366 12.1607 29.8867 12.3435 29.8867C12.5264 29.8867 12.6763 30.0366 12.6763 30.2195Z" fill="#9EDAE5"/>
<path d="M26.2613 23.8237C26.2613 24.0246 26.0994 24.1865 25.8985 24.1865C25.6976 24.1865 25.5357 24.0246 25.5357 23.8237C25.5357 23.6228 25.6976 23.4609 25.8985 23.4609C26.0994 23.4609 26.2613 23.6228 26.2613 23.8237Z" fill="#9EDAE5"/>
<path d="M27.5146 17.3919C27.5146 17.5898 27.3557 17.7487 27.1578 17.7487C26.9599 17.7487 26.801 17.5898 26.801 17.3919C26.801 17.1941 26.9599 17.0352 27.1578 17.0352C27.3557 17.0352 27.5146 17.1941 27.5146 17.3919Z" fill="#00517B"/>
<path d="M19.2455 26.7243C19.2455 27.285 18.7928 27.7377 18.2321 27.7377C17.6715 27.7377 17.2188 27.285 17.2188 26.7243C17.2188 26.1637 17.6715 25.7109 18.2321 25.7109C18.7928 25.7109 19.2455 26.1637 19.2455 26.7243Z" fill="#A0DBE6"/>
<path d="M8.23318 35.5001C8.23318 35.692 8.07727 35.8479 7.88539 35.8479C7.6935 35.8479 7.5376 35.692 7.5376 35.5001C7.5376 35.3083 7.6935 35.1523 7.88539 35.1523C8.07727 35.1523 8.23318 35.3083 8.23318 35.5001Z" fill="#00517B"/>
<path d="M11.0215 36.6365C11.0215 36.7714 10.9106 36.8823 10.7756 36.8823C10.6407 36.8823 10.5298 36.7714 10.5298 36.6365C10.5298 36.5016 10.6407 36.3906 10.7756 36.3906C10.9106 36.3906 11.0215 36.5016 11.0215 36.6365Z" fill="#00517B"/>
</g>
<defs>
<clipPath id="clip0_1344_2992">
<rect width="118.372" height="45" fill="white"/>
</clipPath>
</defs>
</svg>
