<svg width="116" height="45" viewBox="0 0 116 45" fill="none" xmlns="http://www.w3.org/2000/svg">
<path d="M77.806 30.3008C74.4125 30.3008 72.9008 32.681 72.9008 34.9648V39.6771C72.9008 40.6903 73.6459 41.4569 74.7985 41.4569H75.5919V35.1578C75.5919 33.5978 76.4068 32.7025 77.5648 32.7025C78.9586 32.7025 79.7788 33.5173 79.7788 35.3508V39.6771C79.7788 40.6903 80.5508 41.4569 81.7517 41.4569H82.4968V35.1095C82.4968 32.0324 80.3578 30.3008 77.806 30.3008Z" fill="#136684"/>
<path d="M87.3047 29.7758C88.1731 29.7758 88.9183 29.0521 88.9183 28.1889C88.9183 27.3258 88.1731 26.6289 87.3047 26.6289C86.4362 26.6289 85.7393 27.3258 85.7393 28.1889C85.7393 29.0521 86.4362 29.7758 87.3047 29.7758Z" fill="#136684"/>
<path d="M88.6775 37.9006V32.8023C88.6775 31.4299 87.9538 30.7812 86.7529 30.7812H85.981V38.1633C85.981 40.3773 87.1336 41.5567 89.2297 41.5567C90.3823 41.5567 90.8433 41.1011 90.8433 39.9217V39.3427H90.3394C89.16 39.3427 88.6829 39.0049 88.6829 37.9006H88.6775Z" fill="#136684"/>
<path d="M95.4595 28.0874H94.8108C93.7762 28.0874 92.7683 29.5563 92.7683 30.9984V37.5387C92.7683 40.0852 94.0925 41.5809 96.8319 41.5809C98.4187 41.5809 99.2336 40.884 99.2336 39.7528V38.7878H99.1157C98.7082 39.0505 98.0327 39.1738 97.1643 39.1738C96.0814 39.1738 95.4595 38.6216 95.4595 37.2278V32.9444H97.5985C98.7297 32.9444 99.2336 32.2207 99.2336 31.6685V30.5373H95.4595V28.082V28.0874Z" fill="#136684"/>
<path d="M109.623 35.2315C109.623 31.4788 107.436 30.3477 105.008 30.3477C102.145 30.3477 101.062 31.7898 101.062 33.0174V33.8859H101.159C101.566 33.3819 102.649 32.6368 104.622 32.6368C106.235 32.6368 106.954 33.0925 106.954 34.631V34.7758H106.016C102 34.7758 100.58 36.2447 100.58 38.1907C100.58 40.1367 102.359 41.6539 104.959 41.6539H105.512C107.919 41.6539 109.623 40.0456 109.623 37.735V35.2315ZM106.98 37.7565C106.98 38.8608 106.402 39.4398 105.249 39.4398C104.096 39.4398 103.373 38.9359 103.373 38.0942C103.373 37.2043 103.952 36.7218 106.021 36.7218H106.98V37.7565Z" fill="#136684"/>
<path d="M113.045 30.7812H112.273V41.1225C112.273 42.7093 111.121 42.7844 109.555 42.7844V43.7708C109.555 44.4195 110.252 44.9985 111.314 44.9985C113.431 44.9985 114.991 43.6743 114.991 41.3905V32.6844C114.991 31.4353 114.268 30.7866 113.045 30.7866V30.7812Z" fill="#136684"/>
<path d="M113.693 26.5742C112.825 26.5742 112.106 27.2711 112.106 28.1396C112.106 29.0081 112.825 29.7533 113.693 29.7533C114.562 29.7533 115.232 29.0295 115.259 28.1396C115.259 27.2711 114.562 26.5742 113.693 26.5742Z" fill="#136684"/>
<path d="M69.7921 21.6153H79.817C80.5729 21.6153 81.1465 21.4384 81.5325 21.0845C81.9346 20.7146 82.1383 20.1785 82.1383 19.4709L82.1651 14.6085C82.1651 13.7186 82.0311 12.8287 81.763 11.9388C81.495 11.081 81.0661 10.3091 80.4818 9.62285C79.8921 8.93129 79.1308 8.40592 78.1873 8.03601C77.1794 7.65003 76.0054 7.45703 74.6598 7.45703H69.5723C68.8861 7.45703 68.3821 7.61786 68.0605 7.93415C67.7227 8.27189 67.5566 8.75974 67.5566 9.39769C67.5566 10.0356 67.7227 10.5449 68.0605 10.8827C68.3982 11.2204 68.9022 11.3866 69.5723 11.3866H74.5097C75.4854 11.3866 76.2413 11.5206 76.7774 11.7887C77.4475 12.1103 77.8817 12.4749 78.0854 12.8984C78.2892 13.3541 78.3857 13.8634 78.3857 14.437V17.9109H69.642C66.9883 17.9109 65.0423 18.6078 63.7985 20.0016C62.0348 21.9316 61.5952 24.478 62.4905 27.6356H66.999C66.4468 27.2014 66.1359 26.5634 66.0662 25.7217C65.9965 24.9819 66.1091 24.2582 66.3932 23.5559C66.9454 22.2639 68.0819 21.6153 69.7921 21.6153Z" fill="#DCB825"/>
<path d="M74.7086 28.1123C75.0464 27.9461 75.2983 27.6942 75.4645 27.3564C75.6146 27.0884 75.7057 26.7346 75.7433 26.3003C75.7111 25.8768 75.62 25.5337 75.4645 25.2657C75.2447 24.944 74.9927 24.7028 74.7086 24.5366C74.4245 24.3865 74.0707 24.2953 73.6525 24.2578C73.2344 24.29 72.8913 24.3865 72.6232 24.5366C72.3176 24.6867 72.0764 24.9333 71.8941 25.2657C71.7065 25.6034 71.6154 25.9465 71.6154 26.3003C71.6154 26.6542 71.7065 27.0187 71.8941 27.3564C72.0818 27.6727 72.323 27.9301 72.6232 28.1123C72.8913 28.2624 73.2344 28.3536 73.6525 28.3911C74.0921 28.3589 74.4406 28.2624 74.7086 28.1123Z" fill="#DCB825"/>
<path d="M102.542 21.6147H109.522H112.894C113.602 21.6147 114.138 21.411 114.508 21.0089C114.878 20.6069 115.06 20.0279 115.06 19.272V9.04332C115.06 8.40537 114.91 7.93361 114.61 7.63339C114.31 7.33318 113.843 7.17771 113.227 7.17771C111.967 7.17771 111.334 7.79958 111.334 9.04332V17.9103H109.522H102.542H99.8459V9.04332C99.8459 8.40537 99.6957 7.93361 99.3902 7.63339C99.09 7.33318 98.6236 7.17771 98.0071 7.17771C96.7472 7.17771 96.12 7.79958 96.12 9.04332V17.9103H89.2151H87.8534V2.84608C87.8534 1.60234 87.2316 0.980469 85.9878 0.980469C85.382 0.980469 84.9317 1.1413 84.6262 1.45759C84.3206 1.79533 84.1705 2.25637 84.1705 2.84071V19.3149C84.1705 20.0708 84.3474 20.639 84.7012 21.0304C85.055 21.4164 85.5804 21.6094 86.288 21.6094H90.2176H97.6747C98.3984 21.6094 98.9345 21.4056 99.2883 21.0036C99.358 20.9553 99.4384 20.8427 99.5403 20.6766C99.8083 21.2984 100.371 21.6094 101.229 21.6094H102.537L102.542 21.6147Z" fill="#DCB825"/>
<path d="M99.5923 3.85452C99.8603 4.00462 100.203 4.10112 100.627 4.13329C101.067 4.10112 101.415 4.00998 101.683 3.85452C102.005 3.67224 102.257 3.41492 102.439 3.09862C102.589 2.83057 102.68 2.47676 102.718 2.04252C102.686 1.61901 102.589 1.27591 102.439 1.00786C102.219 0.691564 101.967 0.44496 101.683 0.278771C101.399 0.128665 101.045 0.0375266 100.627 0C100.209 0.0321656 99.8657 0.123304 99.5923 0.278771C99.2921 0.428877 99.0455 0.675481 98.8632 1.00786C98.6755 1.3456 98.5844 1.6887 98.5844 2.04252C98.5844 2.39635 98.6755 2.76624 98.8632 3.09862C99.0455 3.41492 99.2921 3.67224 99.5923 3.85452Z" fill="#DCB825"/>
<path d="M94.0772 3.85452C94.3452 4.00462 94.6883 4.10112 95.1119 4.13329C95.5461 4.10112 95.8999 4.00998 96.168 3.85452C96.5057 3.67224 96.7523 3.41492 96.9239 3.09862C97.074 2.83057 97.1651 2.47676 97.2026 2.04252C97.1705 1.61901 97.074 1.27591 96.9239 1.00786C96.7041 0.691564 96.4521 0.44496 96.168 0.278771C95.8838 0.128665 95.53 0.0375266 95.1119 0C94.6937 0.0321656 94.3452 0.123304 94.0772 0.278771C93.777 0.428877 93.5304 0.675481 93.3481 1.00786C93.1605 1.3456 93.0693 1.6887 93.0693 2.04252C93.0693 2.39635 93.1605 2.76624 93.3481 3.09862C93.5357 3.41492 93.777 3.67224 94.0772 3.85452Z" fill="#DCB825"/>
<path d="M112.013 3.85452C112.281 4.00462 112.624 4.10112 113.048 4.13329C113.482 4.10112 113.836 4.00998 114.104 3.85452C114.442 3.67224 114.694 3.41492 114.86 3.09862C115.01 2.83057 115.101 2.47676 115.139 2.04252C115.107 1.61901 115.01 1.27591 114.86 1.00786C114.64 0.691564 114.388 0.44496 114.104 0.278771C113.82 0.128665 113.466 0.0375266 113.048 0C112.63 0.0321656 112.287 0.123304 112.013 0.278771C111.713 0.428877 111.467 0.675481 111.284 1.00786C111.097 1.3456 111.005 1.6887 111.005 2.04252C111.005 2.39635 111.097 2.76624 111.284 3.09862C111.472 3.41492 111.713 3.67224 112.013 3.85452Z" fill="#DCB825"/>
<path d="M12.7836 16.2131C15.8501 36.6919 38.2213 46.1861 50.3048 42.4817C50.3048 42.4817 59.3809 13.7257 33.8682 3.96875C51.5218 18.9043 44.0915 37.1529 44.0915 37.1529C43.7002 37.3299 29.7778 40.8788 12.789 16.2131" fill="#DCB825"/>
<path d="M0.66277 2.0469C44.0756 -2.50454 41.1914 29.8648 40.9448 33.8158C31.5257 31.7787 20.4768 25.1204 17.0404 13.1976C17.0404 13.1976 21.8438 23.4263 35.7018 27.1039C33.7022 5.74059 7.21383 7.25237 6.89218 7.39175C6.89218 7.39175 3.13416 26.2783 19.8925 39.1285C19.8925 39.1285 -4.26393 36.3998 0.66277 2.0469Z" fill="#136684"/>
</svg>
