<svg width="54" height="45" viewBox="0 0 54 45" fill="none" xmlns="http://www.w3.org/2000/svg">
<g clip-path="url(#clip0_1345_10513)">
<path d="M29.4772 24.3008H24.3003V45.0004H29.4772V24.3008Z" fill="#0A0203"/>
<path d="M15.5267 34.6506C15.5267 37.5078 13.211 39.8275 10.3498 39.8275C7.48855 39.8275 5.17288 37.5118 5.17288 34.6506V24.3008H0V34.6506C0 40.365 4.63538 45.0004 10.3498 45.0004C16.0642 45.0004 20.6996 40.365 20.6996 34.6506V24.3008H15.5227V34.6506H15.5267Z" fill="#0A0203"/>
<path d="M10.3496 28.8028C11.5928 28.8028 12.6007 27.795 12.6007 26.5518C12.6007 25.3086 11.5928 24.3008 10.3496 24.3008C9.10644 24.3008 8.09863 25.3086 8.09863 26.5518C8.09863 27.795 9.10644 28.8028 10.3496 28.8028Z" fill="#0A0203"/>
<path d="M39.815 11.9259H44.996V10.3498C44.996 4.63538 40.3606 0 34.6462 0C28.9317 0 24.2964 4.63538 24.2964 10.3498C24.2964 12.2371 24.8015 14.0031 25.6825 15.5267H19.3053C20.1863 14.0031 20.6915 12.2371 20.6915 10.3498C20.6996 4.63538 16.0642 0 10.3498 0C4.63538 0 0 4.63538 0 10.3498C0 16.0642 4.63538 20.6996 10.3498 20.6996H45V15.5227H34.6502C31.793 15.5227 29.4733 13.207 29.4733 10.3458C29.4733 7.48451 31.789 5.16884 34.6502 5.16884C37.5114 5.16884 39.8271 7.48451 39.8271 10.3458C39.8271 10.4104 39.8231 10.4791 39.819 10.5438V11.9219L39.815 11.9259ZM10.3498 15.5267C7.49259 15.5267 5.17288 13.211 5.17288 10.3498C5.17288 7.48855 7.48855 5.17288 10.3498 5.17288C13.211 5.17288 15.5267 7.48855 15.5267 10.3498C15.5267 13.211 13.211 15.5267 10.3498 15.5267Z" fill="#0A0203"/>
<path d="M39.8229 34.6506C39.8229 37.5078 37.5072 39.8275 34.6459 39.8275H33.0698V44.968H33.8215C34.0923 44.9883 34.3671 45.0004 34.6419 45.0004C40.3563 45.0004 44.9917 40.365 44.9917 34.6506V24.3008H39.8148V34.6506H39.8229Z" fill="#0A0203"/>
<path d="M51.284 44.9998C49.6352 44.9998 48.6006 43.9046 48.6006 42.1184C48.6006 40.2149 49.7402 39.3945 51.3002 39.3945C52.9652 39.3945 53.9998 40.3927 53.9998 42.2598C53.9998 44.0946 52.9652 44.9998 51.284 44.9998ZM51.2921 40.6756C50.3141 40.6756 49.5907 41.1283 49.5907 42.1871C49.5907 43.2984 50.3141 43.7268 51.2759 43.7268C52.2297 43.7268 53.0056 43.3065 53.0056 42.2396C53.0056 41.0838 52.2661 40.6756 51.2881 40.6756H51.2921Z" fill="#0A0203"/>
<path d="M53.9111 38.607H48.6816V37.0753L52.7876 35.6164L48.6816 33.9433V32.4844H53.9111V33.7412H51.9672L50.7387 33.6887V33.717L53.9111 34.9455V36.3519L50.7306 37.3865V37.4148L51.9672 37.342H53.9111V38.5989V38.607Z" fill="#0A0203"/>
<path d="M48.6816 31.3862V29.3494C48.6816 28.1734 49.2232 27.3287 50.3911 27.3287C50.9771 27.3287 51.4863 27.6116 51.8056 28.1734L53.9151 26.4922V28.1006L52.1046 29.4343C52.1127 29.5232 52.1127 29.6404 52.1127 29.7374V30.1213H53.9192V31.3862H48.6897H48.6816ZM51.2277 29.6889C51.2277 28.9412 50.9165 28.622 50.4194 28.622C49.894 28.622 49.6718 28.8361 49.6718 29.511V30.1172H51.2236V29.6889H51.2277Z" fill="#0A0203"/>
<path d="M48.6816 24.2615V22.6409L53.9111 20.8789V22.1802L52.3794 22.6773V24.4474L53.9111 25.0172V26.2741L48.6816 24.2615ZM51.4701 22.9723L49.4576 23.4977L51.4701 24.112V22.9723Z" fill="#0A0203"/>
<path d="M53.9109 20.2638H48.6814V18.8048L52.2701 16.768V16.7478L51.6841 16.7842H48.6814V15.5273H53.9109V17.0307L50.4111 19.0069V19.0352L51.1062 19.0069H53.9109V20.2638Z" fill="#0A0203"/>
</g>
<defs>
<clipPath id="clip0_1345_10513">
<rect width="54" height="45" fill="white"/>
</clipPath>
</defs>
</svg>
