<svg width="155" height="45" viewBox="0 0 155 45" fill="none" xmlns="http://www.w3.org/2000/svg">
<path d="M11.6629 5.06479L17.4735 10.8754L23.2841 16.686L29.0947 10.8754L34.9053 5.06479L30.3694 0.528853C29.6643 -0.176284 28.5184 -0.176284 27.8133 0.528853L23.2773 5.06479L18.7414 0.528853C18.0363 -0.176284 16.8904 -0.176284 16.1853 0.528853L11.6494 5.06479H11.6629Z" fill="#33A241"/>
<path d="M23.2863 5.0643L17.4756 10.875L23.2863 16.6857L29.097 10.875L23.2863 5.0643Z" fill="#168045"/>
<path d="M11.6629 39.9337L17.4735 34.1231L23.2841 28.3125L29.0947 34.1231L34.9053 39.9337L30.3694 44.4696C29.6643 45.1748 28.5184 45.1748 27.8133 44.4696L23.2773 39.9337L18.7414 44.4696C18.0363 45.1748 16.8904 45.1748 16.1853 44.4696L11.6494 39.9337H11.6629Z" fill="#B1B1B1"/>
<path d="M23.2835 28.3143L17.4728 34.125L23.2835 39.9357L29.0942 34.125L23.2835 28.3143Z" fill="#76777A"/>
<path d="M5.85233 34.1252L11.6629 28.3146L17.4735 22.504L11.6629 16.6934L5.85233 10.8828L1.31639 15.4187C0.611252 16.1239 0.611252 17.2697 1.31639 17.9749L5.85233 22.5108L1.31639 27.0467C0.611252 27.7519 0.611252 28.8977 1.31639 29.6029L5.85233 34.1388V34.1252Z" fill="#FCC91F"/>
<path d="M11.6533 16.6893L5.84265 22.5L11.6533 28.3107L17.464 22.5L11.6533 16.6893Z" fill="#EAAB32"/>
<path d="M40.7214 34.1252L34.9108 28.3146L29.1002 22.504L34.9108 16.6934L40.7214 10.8828L45.2573 15.4187C45.9624 16.1239 45.9624 17.2697 45.2573 17.9749L40.7214 22.5108L45.2573 27.0467C45.9624 27.7519 45.9624 28.8977 45.2573 29.6029L40.7214 34.1388V34.1252Z" fill="#52BEDA"/>
<path d="M34.9109 16.6854L29.1002 22.4961L34.9109 28.3068L40.7216 22.4961L34.9109 16.6854Z" fill="#008693"/>
<path d="M23.2805 16.6893L17.4698 22.5L23.2805 28.3107L29.0911 22.5L23.2805 16.6893Z" fill="#CD4626"/>
<path d="M62.7029 26.2734C59.5298 26.2734 57.4415 28.7143 57.4415 31.7857C57.4415 34.8571 59.5298 37.2777 62.7029 37.2777C65.8761 37.2777 67.9847 34.8232 67.9847 31.7857C67.9847 28.7482 65.8964 26.2734 62.7029 26.2734ZM62.7029 35.5894C60.635 35.5894 59.2315 33.9418 59.2315 31.7789C59.2315 29.6161 60.635 27.9346 62.7029 27.9346C64.7709 27.9346 66.2151 29.6025 66.2151 31.7789C66.2151 33.9554 64.7912 35.5894 62.7029 35.5894Z" fill="#76777A"/>
<path d="M78.0391 29.4784C76.7237 29.4784 76.005 30.0073 75.5101 30.8141H75.422C74.9134 29.9734 74.0185 29.4784 72.8048 29.4784C71.5912 29.4784 70.9064 29.8988 70.3639 30.7056H70.2555L70.0453 29.6547H68.9198V37.0247H70.6419V32.6176C70.6962 31.8447 71.2182 30.9497 72.398 30.9497C73.5777 30.9497 74.1337 31.7362 74.1337 32.7736V37.018H75.8559V32.6109C75.9101 31.804 76.4525 30.9429 77.6119 30.9429C78.7714 30.9429 79.3341 31.8176 79.3341 32.9431V37.0112H81.0563V32.7804C81.0563 30.8005 79.9511 29.4648 78.0391 29.4648V29.4784Z" fill="#76777A"/>
<path d="M88.0809 30.7455H88.0131C88.0131 30.7455 87.3825 29.4844 85.4163 29.4844C83.45 29.4844 82.0126 31.0438 82.0126 33.3423C82.0126 35.6408 83.5043 37.2002 85.4502 37.2002C87.3961 37.2002 88.0131 35.9391 88.0131 35.9391H88.0809L88.3453 37.0239H89.5047V29.6539H88.3453L88.0809 30.7387V30.7455ZM85.8027 35.7832C84.6094 35.7832 83.7484 34.7661 83.7484 33.3423C83.7484 31.9185 84.6094 30.9014 85.8027 30.9014C86.9961 30.9014 87.891 31.8168 87.891 33.3423C87.891 34.8678 86.9757 35.7832 85.8027 35.7832Z" fill="#76777A"/>
<path d="M94.6784 29.4794C93.4308 29.4794 92.7325 29.8998 92.2036 30.7067H92.1019L91.8917 29.6557H90.7662V37.0258H92.4884V32.6186C92.5426 31.866 93.119 30.9507 94.2784 30.9507C95.4378 30.9507 96.0344 31.8254 96.0344 32.9509V37.019H97.7566V32.7881C97.7566 30.8083 96.5972 29.4727 94.6852 29.4727L94.6784 29.4794Z" fill="#76777A"/>
<path d="M105.56 26.4961L101.241 37.0257H103.085L103.926 34.8696H108.943L109.804 37.0257H111.628L107.309 26.4961H105.553H105.56ZM104.509 33.3915L106.441 28.5098L108.374 33.3915H104.516H104.509Z" fill="#76777A"/>
<path d="M114.179 29.6562H112.457V37.0263H114.179V29.6562Z" fill="#76777A"/>
<path d="M113.316 26.2383C112.74 26.2383 112.265 26.6926 112.265 27.2756C112.265 27.8587 112.74 28.313 113.316 28.313C113.893 28.313 114.388 27.8723 114.388 27.2756C114.388 26.679 113.913 26.2383 113.316 26.2383Z" fill="#76777A"/>
<path d="M117.121 30.8339H117.033L116.823 29.661H115.697V37.031H117.42V32.8883C117.453 31.8171 118.247 31.078 119.23 31.078H119.637V29.6406H119.23C118.247 29.6406 117.508 30.061 117.121 30.8339Z" fill="#76777A"/>
<path d="M124.565 29.4805C122.653 29.4805 121.989 30.7077 121.989 30.7077H121.881L121.636 29.6567H120.497V39.766H122.22V36.1657H122.287C122.287 36.1657 122.796 37.2031 124.62 37.2031C126.444 37.2031 127.989 35.6436 127.989 33.3452C127.989 31.0467 126.498 29.4872 124.565 29.4872V29.4805ZM124.199 35.7792C123.04 35.7792 122.131 34.8639 122.131 33.3384C122.131 31.8128 123.047 30.8975 124.199 30.8975C125.352 30.8975 126.254 31.9145 126.254 33.3384C126.254 34.7622 125.393 35.7792 124.199 35.7792Z" fill="#76777A"/>
<path d="M132.621 29.4805C130.533 29.4805 128.851 31.0263 128.851 33.3791C128.851 35.7318 130.533 37.2031 132.621 37.2031C134.709 37.2031 136.411 35.7114 136.411 33.3791C136.411 31.0467 134.709 29.4805 132.621 29.4805ZM132.621 35.8335C131.448 35.8335 130.512 34.8843 130.512 33.3587C130.512 31.8332 131.441 30.8501 132.621 30.8501C133.801 30.8501 134.73 31.8332 134.73 33.3587C134.73 34.8843 133.801 35.8335 132.621 35.8335Z" fill="#76777A"/>
<path d="M138.688 30.8339H138.6L138.39 29.661H137.265V37.031H138.987V32.8883C139.021 31.8171 139.814 31.078 140.797 31.078H141.204V29.6406H140.797C139.814 29.6406 139.075 30.061 138.688 30.8339Z" fill="#76777A"/>
<path d="M146.025 35.7305C145.395 35.7305 145.096 35.3779 145.096 34.7473V31.0115H147.076V29.6622H145.096V27.418H143.374V29.6622H142.059V31.0115H143.374V34.7812C143.374 36.2186 144.059 37.2018 145.673 37.2018C146.568 37.2018 147.273 36.7814 147.442 36.6593L146.934 35.4457C146.934 35.4457 146.493 35.7237 146.019 35.7237L146.025 35.7305Z" fill="#76777A"/>
<path d="M149.815 31.6066C149.815 31.0777 150.269 30.8201 151.151 30.8201C152.52 30.8201 153.469 31.4506 153.469 31.4506L154.046 30.1149C154.046 30.1149 152.974 29.4844 150.974 29.4844C148.974 29.4844 148.113 30.4472 148.113 31.6608C148.113 34.4 152.5 33.661 152.5 35.0509C152.5 35.5391 152.134 35.8916 151.13 35.8916C149.761 35.8916 148.689 35.1729 148.689 35.1729L148.072 36.3459C148.072 36.3459 149.022 37.207 151.178 37.207C153.334 37.207 154.229 36.1696 154.229 34.9628C154.229 32.1015 149.808 32.9423 149.808 31.6134L149.815 31.6066Z" fill="#76777A"/>
<path d="M63.2127 18.0628H61.9652C61.538 18.0628 61.1312 18.0222 60.7583 17.9476C60.3718 17.8662 60.0464 17.717 59.7888 17.5001C59.5582 17.2967 59.3887 17.0323 59.2938 16.7204C59.1989 16.4153 59.1582 16.0423 59.1582 15.6084V11.581H57.436V15.8457C57.436 16.4017 57.5038 16.9441 57.6394 17.4526C57.775 17.9476 58.0056 18.3544 58.3378 18.6663C58.548 18.8629 58.7717 19.0392 59.0023 19.1748C59.2328 19.3172 59.4904 19.4324 59.7684 19.5206C60.0532 19.6087 60.3651 19.6765 60.6973 19.7172C61.0295 19.7579 61.416 19.7782 61.8296 19.7782H64.9417V11.5742H63.2195V18.0561L63.2127 18.0628Z" fill="#76777A"/>
<path d="M92.5646 16.7316C92.3206 16.4333 92.1307 16.0943 91.9951 15.7214C91.8595 15.3485 91.7917 14.9281 91.7917 14.4602C91.7917 14.1348 91.846 13.8297 91.9544 13.5517C92.0629 13.2669 92.2528 13.0093 92.524 12.7788C92.9172 12.4398 93.4596 12.2703 94.1376 12.2703C94.4767 12.2703 94.836 12.3313 95.2089 12.4533C95.5276 12.555 95.8259 12.6838 96.0971 12.8262L96.6734 11.2803C96.2395 11.0634 95.7988 10.8939 95.3649 10.7718C94.4631 10.5142 93.3851 10.5006 92.524 10.7718C92.1036 10.9074 91.7307 11.1108 91.4188 11.3685C91.0188 11.6939 90.6933 12.1075 90.4357 12.5957C90.1848 13.0839 90.056 13.6602 90.056 14.3111C90.056 14.745 90.1102 15.1586 90.2255 15.5383C90.3408 15.9248 90.4764 16.2841 90.6323 16.6028L90.7204 16.7791H83.4385L83.4657 16.6299C83.4928 16.4943 83.5131 16.3519 83.5335 16.2027C83.5538 16.0604 83.5606 15.9044 83.5606 15.7553C83.5606 15.1654 83.4521 14.6094 83.2419 14.1009C83.0317 13.5924 82.7334 13.1517 82.3537 12.7788C81.9808 12.4059 81.5333 12.1143 81.0316 11.8973C80.0349 11.477 78.8212 11.4634 77.8246 11.8973C77.3296 12.1143 76.8957 12.4126 76.5295 12.7923C76.1634 13.172 75.8651 13.6127 75.6549 14.1145C75.4447 14.6162 75.3362 15.1654 75.3362 15.7485C75.3362 15.9044 75.343 16.0536 75.3566 16.2027C75.3701 16.3451 75.3973 16.4875 75.4312 16.6164L75.4718 16.7723H68.8205V7.96484H67.0983V18.4945H76.4075L76.4414 18.5351C76.8211 18.9352 77.2754 19.2538 77.7839 19.4844C78.8077 19.9522 80.062 19.9386 81.0926 19.4844C81.6147 19.2606 82.0689 18.9352 82.4486 18.5283L82.4825 18.4877H96.9989V16.7655H92.6053L92.5714 16.718L92.5646 16.7316ZM81.6554 16.6841C81.5333 16.9757 81.357 17.2266 81.1333 17.4435C80.9095 17.6537 80.6519 17.8232 80.3536 17.9385C80.062 18.0537 79.7434 18.1148 79.4111 18.1148C79.0789 18.1148 78.7602 18.0537 78.4755 17.9317C78.1907 17.8097 77.9398 17.6401 77.7296 17.43C77.5194 17.2198 77.3499 16.9621 77.2347 16.6706C77.1194 16.379 77.0584 16.0671 77.0584 15.7349C77.0584 15.4027 77.1194 15.084 77.2347 14.7925C77.3499 14.5009 77.5195 14.2365 77.7229 14.0195C77.933 13.8026 78.1771 13.6263 78.4619 13.4975C79.0382 13.2398 79.8044 13.2466 80.3875 13.4907C80.679 13.6127 80.9434 13.789 81.1604 13.9992C81.3774 14.2162 81.5469 14.4738 81.6689 14.7721C81.7842 15.0637 81.8452 15.3891 81.8452 15.7281C81.8452 16.0672 81.7842 16.3926 81.6621 16.6841H81.6554Z" fill="#76777A"/>
<path d="M109.385 16.7756H105.324C104.896 16.7756 104.49 16.735 104.117 16.6604C103.73 16.579 103.405 16.4299 103.147 16.2129C102.917 16.0095 102.747 15.7451 102.652 15.4332C102.557 15.1281 102.517 14.7552 102.517 14.3212V12.0295H100.794V14.5653C100.794 15.1213 100.862 15.6637 100.998 16.1722C101.133 16.6672 101.364 17.074 101.696 17.3859C101.906 17.5825 102.13 17.7588 102.361 17.8944C102.591 18.0368 102.849 18.152 103.127 18.2402C103.412 18.3283 103.723 18.3961 104.056 18.4368C104.388 18.4775 104.774 18.4978 105.188 18.4978H111.107V11.582H109.385V16.7824V16.7756Z" fill="#76777A"/>
<path d="M114.98 7.96484H113.258V18.4945H114.98V7.96484Z" fill="#76777A"/>
<path d="M117.644 18.0154C117.644 18.5307 117.562 18.9036 117.386 19.1409C117.21 19.3918 116.898 19.5138 116.464 19.5138H115.671V21.236H116.674C117.162 21.236 117.583 21.1681 117.922 21.0325C118.254 20.9037 118.532 20.6935 118.742 20.4155C118.952 20.1376 119.115 19.7714 119.21 19.3375C119.312 18.89 119.359 18.3476 119.359 17.7238V11.5742H117.637V18.0086L117.644 18.0154Z" fill="#76777A"/>
<path d="M153.918 14.103C153.708 13.5945 153.41 13.1538 153.03 12.7808C152.65 12.4079 152.21 12.1164 151.708 11.8994C150.711 11.479 149.497 11.4655 148.501 11.8994C148.006 12.1164 147.572 12.4147 147.206 12.7944C146.84 13.1741 146.541 13.6148 146.331 14.1165C146.121 14.6183 146.012 15.1675 146.012 15.7506C146.012 15.9065 146.019 16.0557 146.033 16.2048C146.046 16.3472 146.073 16.4896 146.107 16.6184L146.148 16.7744H139.815V15.2895C139.815 14.72 139.754 14.2386 139.639 13.7572C139.524 13.2894 139.32 12.8961 139.036 12.5978C138.697 12.2384 138.29 11.9808 137.836 11.8248C137.375 11.6689 136.825 11.5875 136.202 11.5875H131.794V7.98047H130.072V16.7879H123.245V7.98047H121.522V18.5101H147.084L147.118 18.5508C147.497 18.9508 147.952 19.2695 148.46 19.5C149.45 19.9475 150.657 19.961 151.681 19.5339C152.182 19.3237 152.623 19.0322 153.01 18.6728C153.389 18.3135 153.694 17.8795 153.918 17.3846C154.142 16.8896 154.25 16.3472 154.25 15.7709C154.25 15.1946 154.142 14.625 153.932 14.1165L153.918 14.103ZM138.093 16.7811H131.788V13.2894H136.398C136.669 13.2894 136.92 13.3436 137.151 13.4589C137.381 13.5673 137.558 13.7165 137.693 13.886C137.829 14.0555 137.937 14.2589 138.005 14.4827C138.066 14.7064 138.1 14.9166 138.1 15.2081V16.7811H138.093ZM152.332 16.6862C152.21 16.9778 152.033 17.2354 151.809 17.4456C151.593 17.6558 151.328 17.8253 151.03 17.9405C150.738 18.0558 150.42 18.1168 150.087 18.1168C149.755 18.1168 149.436 18.0558 149.152 17.9338C148.867 17.8117 148.616 17.6422 148.406 17.432C148.196 17.2218 148.026 16.9642 147.911 16.6727C147.796 16.3811 147.735 16.0692 147.735 15.737C147.735 15.4048 147.796 15.0861 147.911 14.7946C148.026 14.503 148.196 14.2386 148.399 14.0216C148.602 13.8046 148.853 13.6284 149.138 13.4995C149.721 13.2419 150.481 13.2487 151.064 13.4928C151.355 13.6148 151.62 13.7911 151.837 14.0013C152.054 14.2182 152.223 14.4759 152.345 14.7742C152.46 15.0658 152.521 15.3912 152.521 15.7302C152.521 16.0692 152.46 16.3947 152.338 16.6862H152.332Z" fill="#76777A"/>
<path d="M91.9737 9.36333L95.0519 8.90229C95.0858 8.71244 95.1129 8.54971 95.1197 8.40733C95.1264 8.26494 95.1332 8.13613 95.1332 8.01408C95.1332 7.67508 95.0383 7.40385 94.8484 7.19367C94.6586 6.98348 94.401 6.875 94.0823 6.875C93.6687 6.875 93.3771 6.99706 93.1941 7.24792C93.0178 7.49879 92.9297 7.77676 92.9297 8.08187C92.9297 8.23103 92.9568 8.38021 93.011 8.51581L91.8991 8.69887L91.9669 9.35655L91.9737 9.36333ZM93.6687 7.68863C93.7568 7.60727 93.8653 7.5598 94.0009 7.5598C94.1569 7.5598 94.2789 7.60727 94.3535 7.70897C94.4281 7.81067 94.4688 7.91916 94.4688 8.05476C94.4688 8.12935 94.462 8.20392 94.4416 8.2785L93.6009 8.42088C93.5602 8.31918 93.5467 8.19035 93.5467 8.04119C93.5467 7.89203 93.5941 7.77677 93.6823 7.68863H93.6687Z" fill="#76777A"/>
<path d="M61.2533 10.5714C61.7414 10.5714 62.1347 10.1782 62.1347 9.69003C62.1347 9.20186 61.7414 8.80859 61.2533 8.80859C60.7651 8.80859 60.3719 9.20186 60.3719 9.69003C60.3719 10.1782 60.7651 10.5714 61.2533 10.5714Z" fill="#76777A"/>
<path d="M107.27 10.5714C107.758 10.5714 108.151 10.1782 108.151 9.69003C108.151 9.20186 107.758 8.80859 107.27 8.80859C106.782 8.80859 106.388 9.20186 106.388 9.69003C106.388 10.1782 106.782 10.5714 107.27 10.5714Z" fill="#76777A"/>
<path d="M104.626 10.5714C105.114 10.5714 105.507 10.1782 105.507 9.69003C105.507 9.20186 105.114 8.80859 104.626 8.80859C104.138 8.80859 103.744 9.20186 103.744 9.69003C103.744 10.1782 104.138 10.5714 104.626 10.5714Z" fill="#76777A"/>
</svg>
