<svg width="179" height="45" viewBox="0 0 179 45" fill="none" xmlns="http://www.w3.org/2000/svg">
<path d="M151.805 14.8595C152.905 13.8287 154.961 12.9995 158.732 12.83C166.185 12.4819 167.335 12.0879 170.052 10.6724C172.466 9.41714 175.045 6.9571 175.911 4.4375C174.541 5.28042 172.906 5.89887 171.211 6.35239C167.243 7.40604 162.846 7.58929 160.321 7.58929C159.762 7.58929 159.3 7.58012 158.947 7.57096C155.901 7.47934 154.545 7.26861 151.338 7.26861C150.843 7.26861 150.298 7.27319 149.698 7.28693C146.766 7.33733 144.746 9.17434 143.921 10.0951C143.843 10.1776 143.784 10.2509 143.729 10.315C144.769 11.5244 145.941 12.5689 146.716 13.3111C147.297 13.8791 148.846 15.0702 150.696 16.6232C150.834 16.1651 151.141 15.4825 151.801 14.864L151.805 14.8595Z" fill="#AF9862"/>
<path d="M149.684 6.61967C150.289 6.60592 150.834 6.60134 151.338 6.60134C154.586 6.60134 155.955 6.81665 158.97 6.90828C159.313 6.91744 159.771 6.9266 160.321 6.9266C162.813 6.9266 167.17 6.74336 171.041 5.71261C174.985 4.78723 177.803 2.74865 178.788 0C175.59 3.20676 167.284 3.36252 162.506 3.00977C157.545 2.64329 148.777 1.05365 147.21 0.925379C146.294 0.870406 145.176 0.833757 144.127 1.31477C143.078 1.80037 142.125 2.82195 141.653 4.2879C141.52 4.70935 141.461 5.12623 141.461 5.53853C141.442 7.01364 142.258 8.48417 143.298 9.79436C144.086 8.86898 146.289 6.69297 149.684 6.61967Z" fill="#AF9862"/>
<path d="M150.468 37.332C150.468 36.1959 150.188 35.1423 149.79 34.3726C147.953 30.804 144.127 27.217 140.77 23.4834C137.389 19.6719 130.742 13.9135 130.696 8.23297C130.696 7.49084 130.906 6.81742 131.209 6.12109C129.995 7.49542 125.794 12.979 128.286 20.7118C129.179 23.4834 132.175 27.1574 135.336 31.7523C138.378 36.1776 139.07 41.9039 138.905 45.0008C148.37 44.5747 150.436 40.6625 150.468 37.332Z" fill="#A6A8AB"/>
<path d="M170.364 11.2698C167.597 12.7266 166.19 13.171 158.765 13.5008C152.676 13.7986 151.627 16.4465 151.394 17.2115C152.163 17.8712 152.969 18.5812 153.767 19.3325C155.182 20.6656 156.611 22.0262 157.803 23.4326C157.793 19.7769 160.592 19.3142 161.252 18.9111C162.113 18.3888 163.905 18.0956 167.753 15.883C171.871 13.5146 172.778 10.2666 172.957 9.33203C172.164 10.1154 171.285 10.7842 170.359 11.2698H170.364Z" fill="#AF9862"/>
<path d="M153.112 20.0332C150.12 17.2204 147.129 14.8703 146.139 13.9128C144.518 12.3049 140.67 9.23554 140.628 5.54318C140.628 5.04843 140.702 4.53993 140.862 4.03601C141.398 2.341 142.946 1.34691 144.156 0.797179C141.677 0.485665 134.169 1.0583 132.043 5.52028C131.649 6.33571 131.475 7.16031 131.475 8.00781C131.425 13.0378 137.765 18.9429 141.238 22.7681C144.559 26.4742 148.586 29.9741 150.542 33.7443C151.004 34.6468 151.421 35.9066 151.376 37.2076C151.27 40.3594 150.166 41.5001 149.612 41.8803C161.628 35.4302 159.356 29.1953 159.356 29.1953C158.856 26.3047 156.108 22.8276 153.116 20.0332H153.112Z" fill="#A6A8AB"/>
<path d="M114.957 22.5633L119.465 9.37891H116.753L112.241 22.5633H114.957Z" fill="#AF9862"/>
<path d="M74.8037 22.5495L79.3115 9.37891H76.5995L72.0917 22.5495H74.8037Z" fill="#AF9862"/>
<path d="M55.0907 22.5495L59.5939 9.37891H56.8819L52.3787 22.5495H55.0907Z" fill="#AF9862"/>
<path d="M112.327 9.37891L108.85 19.6543H106.706L107.077 18.5502C107.508 17.2859 106.93 16.2597 105.79 16.2597H98.2401C97.7728 16.2597 97.2918 16.4292 96.8474 16.7224L99.3304 9.38349H96.6184L93.1413 19.6589H91.3639L92.5641 16.1223H89.8475L88.6519 19.6589H81.9955L82.8201 17.208H79.7096L77.8084 22.829H75.2384C75.0186 23.6719 75.101 24.382 75.4812 24.9546C75.8615 25.5226 76.6128 25.738 77.3961 25.738C78.1795 25.738 78.885 25.5639 79.5951 24.9912C80.3097 24.4186 80.635 23.6719 80.9236 22.829L81.0152 22.5587L110.577 22.5679L115.034 9.38349H112.322L112.327 9.37891ZM103.934 19.8329H95.78C95.9724 19.2603 96.2427 18.7976 96.7558 18.7976H103.353C103.866 18.7976 104.127 19.2603 103.934 19.8329Z" fill="#AF9862"/>
<path d="M64.3908 19.9531C62.9111 20.3242 61.9399 21.8772 61.665 22.8163C61.4451 23.6638 61.5276 24.3693 61.9078 24.9465C62.2881 25.5146 63.5845 26.0551 64.3633 26.0551C65.1421 26.0551 67.002 26.0551 68.5825 24.9786C69.3338 24.4655 70.0484 23.6592 70.3324 22.8163L70.4241 22.546L71.409 19.6462L72.2382 17.1953H69.123L67.3135 22.546H63.5249L64.3999 19.9485L64.3908 19.9531Z" fill="#AF9862"/>
<path d="M55.2282 9.37958H52.5162L49.0025 19.655H42.5936L42.7081 19.3205C42.8822 18.8075 43.3953 18.3906 43.8579 18.3906H47.083L48.0771 15.477C47.532 15.477 47.4999 15.8023 46.9319 15.8023H42.1446C41.572 15.8023 40.7978 16.3199 40.5825 16.9475L39.6663 19.6504H36.3266C36.3266 18.2944 35.4425 17.3278 34.004 17.3278C32.5656 17.3278 30.9897 18.2944 30.0322 19.6504H26.2116L29.7253 9.375H27.0179L22.5101 22.5502H29.1801C29.3359 23.6909 30.188 24.4697 31.4753 24.4697C32.7626 24.4697 34.1689 23.6863 35.1356 22.5502H50.7296L55.2328 9.375L55.2282 9.37958ZM33.665 20.8415C33.4635 21.3958 32.8771 21.8493 32.3548 21.8493C31.8326 21.8493 31.5623 21.4003 31.7639 20.8415C31.9563 20.2826 32.5427 19.829 33.0695 19.829C33.5963 19.829 33.862 20.2826 33.6696 20.8415H33.665Z" fill="#AF9862"/>
<path d="M20.325 17.135L19.4134 19.6775H14.8461L16.5594 14.707C16.3029 14.7666 15.5012 15.8065 14.3651 15.8065H9.57324C9.00519 15.8065 8.23098 16.3242 8.02025 16.9518L7.93321 17.2037L7.45678 18.6101L6.7742 20.635L6.12368 22.5544H2.33055L3.21011 19.957C1.72126 20.328 0.754653 21.881 0.479788 22.8201C0.264477 23.6676 0.342356 24.3731 0.722586 24.9503C1.1074 25.5184 2.39926 26.059 3.17805 26.059C3.95683 26.059 5.81217 26.059 7.39265 24.9824C8.14394 24.4693 8.85859 23.6631 9.14262 22.8201L9.22966 22.5499L10.21 19.65L10.5307 18.6926H12.4593L11.1537 22.5499L20.2334 22.4582C20.4258 22.4582 20.6228 22.3895 20.829 22.2521C21.026 22.1146 21.1634 21.9406 21.2367 21.7253L22.7897 17.1258H20.3159L20.325 17.135Z" fill="#AF9862"/>
<path d="M20.8435 14.7C20.7427 15.4834 21.2283 16.1156 21.9338 16.1156C22.6393 16.1156 23.2944 15.4834 23.3906 14.7C23.4959 13.9213 23.0103 13.2891 22.3048 13.2891C21.5994 13.2891 20.9488 13.9213 20.8435 14.7Z" fill="#AF9862"/>
<path d="M3.60425 27.8418C3.50805 28.5427 3.94325 29.1062 4.57086 29.1062C5.19847 29.1062 5.77569 28.5427 5.87189 27.8418C5.96351 27.1455 5.53289 26.582 4.90528 26.582C4.27767 26.582 3.69587 27.1455 3.60425 27.8418Z" fill="#AF9862"/>
<path d="M0.63051 27.8418C0.538888 28.5427 0.96951 29.1062 1.59712 29.1062C2.22473 29.1062 2.80652 28.5427 2.89815 27.8418C2.98977 27.1455 2.55457 26.582 1.92696 26.582C1.29935 26.582 0.71755 27.1455 0.625929 27.8418H0.63051Z" fill="#AF9862"/>
<path d="M87.3049 25.0137C87.2132 25.71 87.6439 26.2735 88.2715 26.2735C88.8991 26.2735 89.4809 25.71 89.5725 25.0137C89.6641 24.3174 89.2335 23.7539 88.6059 23.7539C87.9783 23.7539 87.3965 24.3174 87.3049 25.0137Z" fill="#AF9862"/>
<path d="M84.3321 25.0137C84.2404 25.71 84.6757 26.2735 85.2987 26.2735C85.9217 26.2735 86.5035 25.71 86.6043 25.0137C86.6913 24.3174 86.2607 23.7539 85.6331 23.7539C85.0055 23.7539 84.4191 24.3174 84.3321 25.0137Z" fill="#AF9862"/>
<path d="M65.2155 16.7241C65.1147 17.5029 65.6003 18.1397 66.3058 18.1397C67.0113 18.1397 67.6618 17.5075 67.7626 16.7241C67.8679 15.9408 67.3823 15.3086 66.6814 15.3086C65.9805 15.3086 65.3208 15.9408 65.2155 16.7241Z" fill="#AF9862"/>
<path d="M42.3873 11.9414C41.6772 11.9414 41.0267 12.5736 40.9259 13.3524C40.9122 13.4669 40.9122 13.5677 40.9168 13.6731C40.9168 13.9067 39.4691 13.9892 39.4691 13.9892L39.1072 15.139C39.1072 15.139 40.903 14.9512 42.1262 14.7588C42.1766 14.7542 42.2315 14.7496 42.2819 14.7359C42.8729 14.5984 43.3814 14.0304 43.4684 13.3524C43.5738 12.5736 43.0882 11.9414 42.3873 11.9414ZM42.5843 13.3707C42.5522 13.641 42.3277 13.8563 42.0849 13.8563C41.8421 13.8563 41.6772 13.641 41.7139 13.3707C41.7505 13.105 41.975 12.8897 42.2132 12.8897C42.4514 12.8897 42.6209 13.105 42.5797 13.3707H42.5843Z" fill="#AF9862"/>
<path d="M0.264941 40.4472L1.32775 37.0709C2.47761 33.3923 5.6752 32.6914 9.86232 32.6914C14.0494 32.6914 16.8072 33.3923 15.6528 37.0709L14.59 40.4472C13.4356 44.1258 10.2471 44.8267 6.05085 44.8267C1.85458 44.8267 -0.889492 44.1258 0.264941 40.4472ZM10.4487 40.0944L11.2962 37.4053C11.8505 35.637 11.145 35.463 8.99649 35.463C6.84796 35.463 6.09208 35.637 5.47364 37.4053L4.62613 40.0944C4.13138 41.8765 4.77273 42.0551 6.92584 42.0551C9.07895 42.0551 9.89438 41.8765 10.4533 40.0944H10.4487Z" fill="#A7A9AB"/>
<path d="M19.3174 44.7333H15.1852L18.9326 32.7812H25.4789L26.0745 40.2851H26.2211L31.3839 32.7812H38.0952L34.3433 44.7333H30.2158L33.505 35.5711H33.3584L26.5601 44.7333H22.9868L21.8965 35.5711H21.7774L19.3128 44.7333H19.3174Z" fill="#A7A9AB"/>
<path d="M41.2705 42.6796L39.8641 44.7411H35.5716L43.9642 32.7891H50.2357L51.1931 44.7411H46.9785L46.8228 42.6796H41.2659H41.2705ZM46.4334 35.1758H46.3921L42.8876 40.3524H46.7311L46.4334 35.1758Z" fill="#A7A9AB"/>
<path d="M56.4069 44.7333H52.2793L56.0267 32.7812H63.0082L64.5658 41.9572H64.7307L67.3603 32.7812H71.4878L67.7405 44.7333H60.6994L59.2013 35.5528H59.0364L56.4069 44.7333Z" fill="#A7A9AB"/>
<path d="M81.2582 42.6796L79.8472 44.7411H75.5547L83.9519 32.7891H90.228L91.19 44.7411H86.9754L86.8151 42.6796H81.2628H81.2582ZM86.4211 35.1758H86.3799L82.8753 40.3524H86.7143L86.4165 35.1758H86.4211Z" fill="#A7A9AB"/>
<path d="M96.345 44.7333H92.2129L95.9648 32.7812H100.092L96.345 44.7333Z" fill="#A7A9AB"/>
<path d="M102.546 32.7819H110.517C114.072 32.8277 115.643 33.4187 114.709 36.3964C114.086 38.3892 113.719 39.5482 110.622 40.075L110.581 40.2033C112.262 40.2491 113.133 40.9683 112.702 42.3197L111.951 44.7294H107.823L108.35 43.0527C108.671 42.1594 108.364 41.5547 107.127 41.5547H103.929L102.931 44.7294H98.8032L102.555 32.7773L102.546 32.7819ZM107.988 38.7877C109.761 38.7877 109.867 38.2792 110.288 36.9232C110.622 35.8558 110.366 35.5535 109.005 35.5535H105.803L104.791 38.7877H107.988Z" fill="#A7A9AB"/>
</svg>
