<svg width="115" height="50" viewBox="0 0 115 50" fill="none" xmlns="http://www.w3.org/2000/svg">
<path d="M5.67805 39.8553C5.68775 43.1059 8.23967 45.8422 11.4611 45.8325C14.6777 45.8228 17.2102 43.0671 17.2005 39.8165C17.1908 36.4981 14.6389 33.8297 11.4174 33.8394C8.20086 33.8491 5.66835 36.5369 5.67805 39.8553ZM21.9065 39.7971C21.9259 45.3861 17.3024 49.9757 11.4757 49.9999C5.64894 50.0193 0.991452 45.4637 0.972046 39.8748C0.95264 34.2518 5.57617 29.6913 11.4077 29.6719C17.2344 29.6525 21.8919 34.1742 21.9113 39.7971" fill="#283D90"/>
<path d="M36.6502 42.1003L36.6793 49.528L32.1383 49.5425L32.1092 41.2415C32.1092 40.4944 31.8957 38.971 30.2704 38.9759C28.3735 38.9807 28.2473 41.1154 28.2473 41.8625L28.2765 49.5523L23.7014 49.5668L23.6481 35.2014L28.2231 35.1868V36.4385C29.5087 34.8423 31.6095 34.7987 31.8132 34.7987C33.7781 34.7938 34.9328 35.803 35.6168 36.9528C36.9995 34.7793 39.5418 34.7696 39.7407 34.7696C44.2817 34.755 45.0725 38.7478 45.0822 40.3392L45.1162 49.4892L40.5751 49.5037L40.546 41.2027C40.546 40.4556 40.3326 38.9322 38.7073 38.9371C37.5672 38.9371 37.0578 39.9316 36.8297 40.7224C36.7036 41.1639 36.6502 41.6297 36.6551 42.0906" fill="#283D90"/>
<path d="M58.147 42.2659C58.1422 40.301 56.6091 38.8844 54.6442 38.8892C52.7472 38.8941 51.2287 40.3253 51.2335 42.2902C51.2384 44.2551 52.7715 45.6717 54.6684 45.6669C56.6333 45.6572 58.1519 44.2308 58.147 42.2659ZM58.1227 35.0856L62.6978 35.0711L62.7511 49.4365L58.1761 49.4511V48.1994C57.0603 49.4559 55.5369 49.8343 53.9407 49.8392C49.9091 49.8538 46.6779 46.4771 46.6634 42.3096C46.6488 38.1421 49.8557 34.7412 53.8873 34.7266C55.4787 34.7218 57.0069 35.0856 58.1276 36.3373V35.0856H58.1227Z" fill="#283D90"/>
<path d="M74.4491 41.4213C74.4491 40.6741 74.4394 38.8111 72.2028 38.8208C70.17 38.8305 69.7043 40.9652 69.7043 41.7124L69.7334 49.4021L65.1583 49.4166L65.105 35.0512L69.68 35.0366V36.2883C70.9657 34.6922 73.3381 34.6485 73.5418 34.6485C78.7281 34.6291 78.9804 39.9803 78.9853 40.2181L79.0192 49.3681L74.4782 49.3827L74.4491 41.4213Z" fill="#283D90"/>
<path d="M80.5424 34.9727H91.1139L91.1285 39.1207L87.7081 39.1353L87.7227 43.6424C87.7227 43.6424 87.6936 45.5393 89.6924 45.5345H91.1139L91.1285 49.3333C91.1285 49.3333 89.6051 49.3284 88.3146 49.3333C87.5674 49.3333 83.201 49.3527 83.1768 43.6957L83.1622 39.1547L80.5521 39.1644L80.5375 34.9775L80.5424 34.9727Z" fill="#283D90"/>
<path d="M100.011 38.7154C98.6918 38.7154 97.576 39.3315 97.1054 40.8258L102.898 40.8064C102.452 39.317 101.331 38.7105 100.011 38.7154ZM107.313 43.8726L97.2849 43.9065C97.8282 44.8865 98.8471 45.493 100.036 45.4881C100.036 45.4881 101.967 45.4833 103.49 44.5615L106.415 47.5986C106.415 47.5986 103.781 49.6411 100.123 49.6556C95.7857 49.6702 92.2829 46.2935 92.2684 42.126C92.2538 37.9585 95.7324 34.5576 100.07 34.543C103.83 34.5285 107.294 37.2599 107.313 42.2085V43.8677V43.8726Z" fill="#283D90"/>
<path d="M114.331 28.9451L109.79 28.9609L109.861 49.2549L114.402 49.239L114.331 28.9451Z" fill="#283D90"/>
<path d="M85.837 27.4036L82.053 31.1875L85.837 34.9714L89.6209 31.1875L85.837 27.4036Z" fill="#E27739"/>
<path d="M51.6666 2.37891H47.5185V6.52698H51.6666V2.37891Z" fill="#283D90"/>
<path d="M46.0856 2.37891H41.9375V6.52698H46.0856V2.37891Z" fill="#283D90"/>
<path d="M56.5177 7.74609L56.5032 13.3545C56.5032 13.3545 56.5274 15.3 54.6887 15.2951H51.6807V20.1224H56.2121C57.3279 20.0787 60.661 19.6178 60.6755 14.3345L60.6901 7.74609H56.5129H56.5177Z" fill="#283D90"/>
<path d="M49.8619 7.74793L47.4943 7.75278L47.4798 13.3612C47.4798 13.3612 47.504 15.3066 45.6653 15.3018H44.5931H22.1255H21.1504C20.4275 15.3018 19.8793 15.2387 19.5106 15.1126C19.1418 14.9864 18.8847 14.7536 18.7537 14.4188C18.6324 14.1229 18.5694 13.725 18.5548 13.235V0H14.3776V13.0507H14.3728C14.3728 13.138 14.3728 13.2253 14.3776 13.3127V17.4316C14.3776 19.7555 12.4904 21.6428 10.1665 21.6428C7.84258 21.6428 5.95532 19.7555 5.95532 17.4316V11.8912H1.77814V17.4316C1.77814 22.0649 5.53324 25.82 10.1665 25.82C14.0235 25.82 17.2643 23.2098 18.2443 19.6633C19.0836 19.9738 20.0539 20.1291 21.1504 20.1291H21.3056H44.5931C45.0491 20.1291 44.8696 20.1291 45.7526 20.1291C51.6861 20.1291 51.6861 16.0732 51.6861 16.0732L51.6715 7.74793H49.8667H49.8619Z" fill="#283D90"/>
<path d="M89.0475 14.6468C89.0475 15.166 88.965 15.656 88.8001 16.1169C88.6351 16.5778 88.3974 16.9804 88.0869 17.3249C87.7764 17.6694 87.398 17.9459 86.9565 18.1448C86.515 18.3437 86.0105 18.4456 85.438 18.4456C84.8655 18.4456 84.3852 18.3437 83.9437 18.1351C83.5022 17.9265 83.1141 17.6451 82.789 17.2909C82.4591 16.9368 82.2068 16.5292 82.037 16.0683C81.8624 15.6074 81.775 15.1223 81.775 14.5983V14.545C81.775 14.0258 81.8575 13.5358 82.0225 13.0749C82.1874 12.614 82.4252 12.2114 82.7357 11.8669C83.0462 11.5224 83.4246 11.2459 83.8661 11.047C84.3076 10.8481 84.8121 10.7462 85.3846 10.7462C85.9231 10.7462 86.4131 10.8481 86.8643 11.0567C87.3155 11.2653 87.7036 11.5467 88.0336 11.9009C88.3635 12.255 88.6157 12.6626 88.7855 13.1234C88.9602 13.5843 89.0475 14.0695 89.0475 14.5935V14.6468ZM107.469 8.98993H114.411V4.30818H107.469C103.141 4.30818 99.6336 7.81585 99.6336 12.1434C99.6336 13.2641 99.8762 14.3315 100.298 15.2969H96.3297C95.6796 15.2969 95.1702 15.2436 94.7966 15.132C94.4279 15.0253 94.1659 14.8312 94.0252 14.5498C93.8797 14.2684 93.7681 13.9628 93.7341 13.4582L93.7099 13.3563C93.6128 12.6723 93.4382 12.0173 93.1665 11.3963C92.7444 10.4211 92.1574 9.57211 91.4151 8.84923C90.6728 8.12635 89.7898 7.55872 88.7661 7.14149C87.7425 6.7291 86.6363 6.52049 85.438 6.52049C84.2396 6.52049 83.1044 6.73395 82.0807 7.15604C81.057 7.57812 80.1692 8.16031 79.4172 8.8929C78.6652 9.62548 78.0782 10.4794 77.6512 11.4545C77.3407 12.1677 77.1467 12.9197 77.0642 13.7105V13.7299C77.0642 13.7299 77.0593 13.7493 77.0593 13.759C77.0593 13.7687 77.0593 13.7784 77.0593 13.793C77.0254 14.2393 76.9817 14.2878 76.8459 14.5547C76.7003 14.836 76.4432 15.0301 76.0745 15.1368C75.7058 15.2436 75.1915 15.3018 74.5414 15.3018H70.0149C68.1762 15.3115 68.2004 13.3612 68.2004 13.3612L68.1859 8.73765V0H64.0087V14.3363L64.0232 14.3557C64.0523 20.1436 68.0646 20.1291 68.7486 20.1242C68.8554 20.1242 68.967 20.1242 69.0785 20.1242H73.5371H74.5414C74.6239 20.1242 74.7063 20.1242 74.784 20.1194C74.7888 20.1194 74.7937 20.1242 74.8034 20.1242C76.0454 20.0854 77.1224 19.8137 78.0248 19.2995C78.1412 19.2316 78.2577 19.1588 78.3693 19.086C78.6749 19.5372 79.0194 19.9593 79.4123 20.3377C80.1546 21.0606 81.0376 21.6282 82.0613 22.0455C83.085 22.4578 84.1911 22.6665 85.3895 22.6665C86.5878 22.6665 87.7231 22.453 88.7467 22.0309C89.7704 21.6088 90.6582 21.0266 91.4102 20.294C91.8032 19.9108 92.1525 19.4935 92.4533 19.0423C92.5843 19.1297 92.7153 19.217 92.856 19.2946C93.8214 19.8477 94.9858 20.1194 96.3394 20.1194H114.421V15.2921H107.479C105.737 15.2921 104.325 13.8803 104.325 12.1386C104.325 10.3969 105.737 8.98507 107.479 8.98507" fill="#283D90"/>
<path d="M58.2983 0.00124328L54.5144 3.78516L58.2983 7.56907L62.0822 3.78516L58.2983 0.00124328Z" fill="#E27739"/>
</svg>
