<svg width="78" height="60" viewBox="0 0 78 60" fill="none" xmlns="http://www.w3.org/2000/svg">
<mask id="mask0_1344_3926" style="mask-type:luminance" maskUnits="userSpaceOnUse" x="37" y="26" width="16" height="3">
<path d="M39.0932 26.3672C38.3735 26.3672 37.79 26.9507 37.79 27.6704C37.79 28.3901 38.3735 28.9711 39.0932 28.9711H50.9071C51.6268 28.9711 52.2103 28.3876 52.2103 27.6704C52.2103 26.9533 51.6268 26.3672 50.9071 26.3672H39.0932Z" fill="white"/>
</mask>
<g mask="url(#mask0_1344_3926)">
<path d="M52.2077 26.3672H37.79V28.9711H52.2077V26.3672Z" fill="url(#paint0_linear_1344_3926)"/>
</g>
<g style="mix-blend-mode:multiply">
<mask id="mask1_1344_3926" style="mask-type:luminance" maskUnits="userSpaceOnUse" x="19" y="23" width="9" height="4">
<path d="M27.4731 23.7695H19.6126V26.3734H27.4731V23.7695Z" fill="white"/>
</mask>
<g mask="url(#mask1_1344_3926)">
<mask id="mask2_1344_3926" style="mask-type:luminance" maskUnits="userSpaceOnUse" x="19" y="23" width="9" height="4">
<path d="M27.4704 25.0689C27.4704 25.7886 26.8869 26.3721 26.1671 26.3721H20.9105C20.1908 26.3721 19.6099 25.7886 19.6099 25.0689C19.6099 24.3491 20.1934 23.7656 20.9105 23.7656H26.1671C26.8869 23.7656 27.4704 24.3491 27.4704 25.0689Z" fill="white"/>
</mask>
<g mask="url(#mask2_1344_3926)">
<path d="M27.4704 23.7656H19.6099V26.3695H27.4704V23.7656Z" fill="url(#paint1_linear_1344_3926)"/>
</g>
</g>
</g>
<g style="mix-blend-mode:multiply">
<mask id="mask3_1344_3926" style="mask-type:luminance" maskUnits="userSpaceOnUse" x="25" y="4" width="8" height="4">
<path d="M32.505 4.45312H25.9478V7.05701H32.505V4.45312Z" fill="white"/>
</mask>
<g mask="url(#mask3_1344_3926)">
<mask id="mask4_1344_3926" style="mask-type:luminance" maskUnits="userSpaceOnUse" x="25" y="4" width="8" height="4">
<path d="M32.5041 5.75635C32.5041 6.47608 31.9206 7.05958 31.2008 7.05958H27.2474C26.5277 7.05958 25.9442 6.47608 25.9442 5.75635C25.9442 5.03662 26.5277 4.45312 27.2474 4.45312H31.2008C31.9206 4.45312 32.5041 5.03662 32.5041 5.75635Z" fill="white"/>
</mask>
<g mask="url(#mask4_1344_3926)">
<path d="M32.5044 4.45703H25.9471V7.06092H32.5044V4.45703Z" fill="url(#paint2_linear_1344_3926)"/>
</g>
</g>
</g>
<mask id="mask5_1344_3926" style="mask-type:luminance" maskUnits="userSpaceOnUse" x="33" y="33" width="15" height="4">
<path d="M34.4854 33.918C33.7656 33.918 33.1821 34.5015 33.1821 35.2212C33.1821 35.9409 33.7656 36.5219 34.4854 36.5219H46.2992C47.019 36.5219 47.6025 35.9384 47.6025 35.2212C47.6025 34.504 47.019 33.918 46.2992 33.918H34.4854Z" fill="white"/>
</mask>
<g mask="url(#mask5_1344_3926)">
<path d="M47.6061 33.918H33.1884V36.5219H47.6061V33.918Z" fill="url(#paint3_linear_1344_3926)"/>
</g>
<mask id="mask6_1344_3926" style="mask-type:luminance" maskUnits="userSpaceOnUse" x="28" y="35" width="15" height="3">
<path d="M29.458 35.2148C28.7383 35.2148 28.1548 35.7983 28.1548 36.5155C28.1548 37.2327 28.7383 37.8187 29.458 37.8187H41.2719C41.9916 37.8187 42.5726 37.2352 42.5726 36.5155C42.5726 35.7958 41.9891 35.2148 41.2719 35.2148H29.458Z" fill="white"/>
</mask>
<g mask="url(#mask6_1344_3926)">
<path d="M42.5726 35.2148H28.1548V37.8187H42.5726V35.2148Z" fill="url(#paint4_linear_1344_3926)"/>
</g>
<mask id="mask7_1344_3926" style="mask-type:luminance" maskUnits="userSpaceOnUse" x="23" y="45" width="15" height="3">
<path d="M24.4276 45.3906C23.7078 45.3906 23.1243 45.9741 23.1243 46.6913C23.1243 47.4084 23.7078 47.9945 24.4276 47.9945H36.2414C36.9612 47.9945 37.5447 47.411 37.5447 46.6913C37.5447 45.9716 36.9612 45.3906 36.2414 45.3906H24.4276Z" fill="white"/>
</mask>
<g mask="url(#mask7_1344_3926)">
<path d="M37.5421 45.3906H23.1243V47.9945H37.5421V45.3906Z" fill="url(#paint5_linear_1344_3926)"/>
</g>
<mask id="mask8_1344_3926" style="mask-type:luminance" maskUnits="userSpaceOnUse" x="18" y="50" width="15" height="3">
<path d="M19.3947 50.0859C18.675 50.0859 18.0915 50.6694 18.0915 51.3892C18.0915 52.1089 18.675 52.6924 19.3947 52.6924H31.2086C31.9283 52.6924 32.5118 52.1089 32.5118 51.3892C32.5118 50.6694 31.9283 50.0859 31.2086 50.0859H19.3947Z" fill="white"/>
</mask>
<g mask="url(#mask8_1344_3926)">
<path d="M32.5093 50.0859H18.0915V52.6898H32.5093V50.0859Z" fill="url(#paint6_linear_1344_3926)"/>
</g>
<mask id="mask9_1344_3926" style="mask-type:luminance" maskUnits="userSpaceOnUse" x="13" y="51" width="15" height="3">
<path d="M14.3612 51.332C13.6414 51.332 13.0579 51.9155 13.0579 52.6327C13.0579 53.3498 13.6414 53.9333 14.3612 53.9333H26.175C26.8948 53.9333 27.4783 53.3498 27.4783 52.6327C27.4783 51.9155 26.8948 51.332 26.175 51.332H14.3612Z" fill="white"/>
</mask>
<g mask="url(#mask9_1344_3926)">
<path d="M27.4784 51.332H13.0607V53.9359H27.4784V51.332Z" fill="url(#paint7_linear_1344_3926)"/>
</g>
<mask id="mask10_1344_3926" style="mask-type:luminance" maskUnits="userSpaceOnUse" x="8" y="56" width="15" height="4">
<path d="M9.33069 56.4414C8.61096 56.4414 8.02747 57.0249 8.02747 57.7421C8.02747 58.4592 8.61096 59.0453 9.33069 59.0453H21.1446C21.8643 59.0453 22.4452 58.4618 22.4452 57.7421C22.4452 57.0223 21.8617 56.4414 21.1446 56.4414H9.33069Z" fill="white"/>
</mask>
<g mask="url(#mask10_1344_3926)">
<path d="M22.448 56.4414H8.03021V59.0453H22.448V56.4414Z" fill="url(#paint8_linear_1344_3926)"/>
</g>
<mask id="mask11_1344_3926" style="mask-type:luminance" maskUnits="userSpaceOnUse" x="4" y="57" width="14" height="3">
<path d="M6.04999 57.2227C5.33025 57.2227 4.74933 57.8062 4.74933 58.5259C4.74933 59.2456 5.33283 59.8291 6.04999 59.8291H16.1134C16.8331 59.8291 17.414 59.2456 17.414 58.5259C17.414 57.8062 16.8305 57.2227 16.1134 57.2227H6.04999Z" fill="white"/>
</mask>
<g mask="url(#mask11_1344_3926)">
<path d="M17.4139 57.2227H4.74658V59.8265H17.4139V57.2227Z" fill="url(#paint9_linear_1344_3926)"/>
</g>
<mask id="mask12_1344_3926" style="mask-type:luminance" maskUnits="userSpaceOnUse" x="3" y="57" width="10" height="3">
<path d="M4.9367 57.2227C4.21697 57.2227 3.63605 57.8062 3.63605 58.5259C3.63605 59.2456 4.21954 59.8291 4.9367 59.8291H11.0801C11.7999 59.8291 12.3834 59.2456 12.3834 58.5259C12.3834 57.8062 11.7999 57.2227 11.0801 57.2227H4.9367Z" fill="white"/>
</mask>
<g mask="url(#mask12_1344_3926)">
<path d="M12.3834 57.2227H3.63605V59.8265H12.3834V57.2227Z" fill="url(#paint10_linear_1344_3926)"/>
</g>
<mask id="mask13_1344_3926" style="mask-type:luminance" maskUnits="userSpaceOnUse" x="0" y="47" width="8" height="4">
<path d="M1.44452 47.9922C0.724786 47.9922 0.14386 48.5757 0.14386 49.2954C0.14386 50.0151 0.727357 50.5961 1.44452 50.5961H6.0508C6.77053 50.5961 7.35403 50.0126 7.35403 49.2954C7.35403 48.5783 6.77053 47.9922 6.0508 47.9922H1.44452Z" fill="white"/>
</mask>
<g mask="url(#mask13_1344_3926)">
<path d="M7.35146 47.9922H0.14386V50.5961H7.35146V47.9922Z" fill="url(#paint11_linear_1344_3926)"/>
</g>
<path d="M6.04981 50.6079C5.33008 50.6079 4.74658 50.0244 4.74658 49.3046V45.7368C4.74658 45.0171 5.33008 44.4336 6.04981 44.4336C6.76954 44.4336 7.35304 45.0171 7.35304 45.7368V49.3046C7.35304 50.0244 6.76954 50.6079 6.04981 50.6079Z" fill="#B01117"/>
<path d="M11.0795 59.8256C10.3597 59.8256 9.77625 59.2421 9.77625 58.5224V44.2485C9.77625 43.5288 10.3597 42.9453 11.0795 42.9453C11.7992 42.9453 12.3827 43.5288 12.3827 44.2485V58.5224C12.3827 59.2421 11.7992 59.8256 11.0795 59.8256Z" fill="#B01117"/>
<path d="M16.1136 59.828C15.3939 59.828 14.813 59.2445 14.813 58.5248V42.5493C14.813 41.8296 15.3965 41.2461 16.1136 41.2461C16.8308 41.2461 17.4169 41.8296 17.4169 42.5493V58.5248C17.4169 59.2445 16.8334 59.828 16.1136 59.828Z" fill="#B01117"/>
<path d="M21.1459 59.0426C20.4261 59.0426 19.8427 58.4591 19.8427 57.7393V40.8462C19.8427 40.1265 20.4261 39.543 21.1459 39.543C21.8656 39.543 22.4491 40.1265 22.4491 40.8462V57.7393C22.4491 58.4591 21.8656 59.0426 21.1459 59.0426Z" fill="#B01117"/>
<path d="M26.1732 53.9333C25.4535 53.9333 24.87 53.3498 24.87 52.6301V32.4647C24.87 31.745 25.4535 31.1641 26.1732 31.1641C26.893 31.1641 27.4765 31.7476 27.4765 32.4647V52.6301C27.4765 53.3498 26.893 53.9333 26.1732 53.9333Z" fill="#B01117"/>
<path d="M26.1732 26.4385C25.4535 26.4385 24.87 25.855 24.87 25.1352V16.8866C24.87 16.1669 25.4535 15.5859 26.1732 15.5859C26.893 15.5859 27.4765 16.1694 27.4765 16.8866V25.1352C27.4765 25.855 26.893 26.4385 26.1732 26.4385Z" fill="#B01117"/>
<path d="M31.2076 52.6941C30.4879 52.6941 29.9044 52.1106 29.9044 51.3909V10.6001C29.9044 9.88037 30.4879 9.29688 31.2076 9.29688C31.9274 9.29688 32.5109 9.88037 32.5109 10.6001V51.3909C32.5109 52.1106 31.9274 52.6941 31.2076 52.6941Z" fill="#B01117"/>
<path d="M31.2076 7.05594C30.4879 7.05594 29.9044 6.47244 29.9044 5.75271V1.30323C29.9044 0.583497 30.4879 0 31.2076 0C31.9274 0 32.5109 0.583497 32.5109 1.30323V5.75528C32.5109 6.47501 31.9274 7.05851 31.2076 7.05851" fill="#B01117"/>
<path d="M36.2373 47.9944C35.5176 47.9944 34.9341 47.4109 34.9341 46.6912V16.8866C34.9341 16.1669 35.5176 15.5859 36.2373 15.5859C36.957 15.5859 37.5405 16.1694 37.5405 16.8866V46.6912C37.5405 47.4109 36.957 47.9944 36.2373 47.9944Z" fill="#B01117"/>
<path d="M41.2694 37.6951C40.5496 37.6951 39.9661 37.1116 39.9661 36.3919V17.9282C39.9661 17.2085 40.5496 16.625 41.2694 16.625C41.9891 16.625 42.57 17.2085 42.57 17.9282V36.3919C42.57 37.1116 41.9865 37.6951 41.2694 37.6951Z" fill="#B01117"/>
<path d="M46.299 36.517C45.5793 36.517 44.9958 35.9335 44.9958 35.2137V21.1353C44.9958 20.4155 45.5793 19.832 46.299 19.832C47.0188 19.832 47.6022 20.4155 47.6022 21.1353V35.2137C47.6022 35.9335 47.0188 36.517 46.299 36.517Z" fill="#B01117"/>
<path d="M51.3334 28.9751C50.6136 28.9751 50.0302 28.3916 50.0302 27.6718V24.104C50.0302 23.3843 50.6136 22.8008 51.3334 22.8008C52.0531 22.8008 52.6366 23.3843 52.6366 24.104V27.6718C52.6366 28.3916 52.0531 28.9751 51.3334 28.9751Z" fill="#B01117"/>
<path d="M50.7297 46.3357C50.7297 48.2738 49.4008 49.7595 47.3907 49.7595C45.3806 49.7595 44.0208 48.2584 44.0208 46.2791C44.0208 44.2999 45.45 42.8398 47.3907 42.8398C49.3314 42.8398 50.7297 44.2973 50.7297 46.3357ZM49.1026 46.3357C49.1026 45.1481 48.4086 44.2562 47.3341 44.2562C46.2597 44.2562 45.6633 45.1199 45.6633 46.2663C45.6633 47.4127 46.4139 48.3329 47.4318 48.3329C48.4497 48.3329 49.1026 47.4847 49.1026 46.3383" fill="#808184"/>
<path d="M36.772 52.3045C36.772 52.0449 36.8363 51.8598 36.9648 51.7467C37.0934 51.6336 37.2527 51.5565 37.4378 51.5153C37.5586 51.4922 37.7848 51.4639 38.1164 51.4357C38.448 51.4074 38.9287 51.3945 39.5584 51.3945C40.8257 51.3945 41.7768 51.6362 42.4065 52.122C43.0363 52.6078 43.3525 53.2658 43.3525 54.0961C43.3525 54.677 43.2136 55.1577 42.9335 55.5381C42.6559 55.9186 42.2729 56.2116 41.787 56.4224C41.9567 56.6563 42.1289 56.9159 42.3011 57.1987C42.4759 57.4814 42.6456 57.7744 42.8152 58.0778C42.9849 58.3811 43.1494 58.6818 43.3062 58.98C43.463 59.2782 43.6121 59.5609 43.7483 59.8282H42.0749C42.0107 59.692 41.9053 59.4838 41.7613 59.2036C41.6148 58.926 41.458 58.6304 41.2884 58.3194C41.1187 58.0084 40.9491 57.7102 40.7794 57.4223C40.6098 57.137 40.4684 56.9159 40.3553 56.7617C40.2165 56.7771 40.0751 56.7899 39.926 56.7977C39.7769 56.8054 39.6381 56.8105 39.507 56.8105C39.2243 56.8105 38.9569 56.8002 38.7076 56.7797C38.4583 56.7591 38.2783 56.7411 38.173 56.7257V59.8282H36.7669V52.3045H36.772ZM38.1781 55.4919C38.2835 55.5073 38.4403 55.5278 38.6511 55.5536C38.8618 55.5767 39.1626 55.5895 39.561 55.5895C39.998 55.5895 40.363 55.5536 40.656 55.4816C40.9516 55.4096 41.1907 55.3068 41.3706 55.1783C41.5531 55.0497 41.6816 54.8929 41.7588 54.713C41.8359 54.5305 41.8744 54.3326 41.8744 54.1141C41.8744 53.911 41.8384 53.7234 41.7665 53.5434C41.6945 53.3661 41.5685 53.2093 41.3912 53.0705C41.2138 52.9342 40.9722 52.8237 40.6715 52.744C40.3681 52.6643 39.9877 52.6232 39.5276 52.6232C39.124 52.6232 38.813 52.6309 38.5997 52.6464C38.3863 52.6618 38.2475 52.6798 38.1807 52.6952V55.4944L38.1781 55.4919Z" fill="#808184"/>
<path d="M49.5346 59.8064C49.4549 59.8218 49.3264 59.8398 49.1542 59.8604C48.9794 59.8809 48.7763 59.9015 48.5424 59.922C48.3085 59.9426 48.0463 59.9606 47.7558 59.976C47.4654 59.9914 47.162 59.9992 46.8459 59.9992C46.2161 59.9992 45.6994 59.9452 45.301 59.8346C44.9 59.7267 44.5864 59.5802 44.3551 59.3977C44.1237 59.2152 43.967 59.007 43.8821 58.7679C43.7973 58.5289 43.7536 58.2847 43.7536 58.0353C43.7536 57.7037 43.805 57.4133 43.9053 57.1639C44.0055 56.9146 44.1726 56.7038 44.4014 56.5342C44.6327 56.3645 44.9334 56.236 45.3036 56.1537C45.6763 56.0689 46.1287 56.0278 46.6608 56.0278C46.9667 56.0278 47.2597 56.0381 47.5348 56.0586C47.8098 56.0792 48.0154 56.0972 48.1517 56.1126C48.1517 55.8299 48.1054 55.5959 48.0129 55.4109C47.9203 55.2258 47.7918 55.0793 47.6324 54.9739C47.4705 54.8685 47.2777 54.7965 47.0515 54.7554C46.8253 54.7143 46.576 54.6937 46.3009 54.6937C45.8408 54.6937 45.4707 54.7451 45.1931 54.8505C44.9155 54.9559 44.7304 55.0433 44.643 55.1178C44.5941 55.0767 44.5273 55.0022 44.4425 54.8865C44.3577 54.7734 44.314 54.6372 44.314 54.4752C44.314 54.3621 44.3448 54.2516 44.4039 54.1411C44.4656 54.0331 44.571 53.9354 44.7252 53.8506C44.8795 53.7658 45.0851 53.6989 45.3421 53.6501C45.6018 53.6013 45.9282 53.5781 46.3241 53.5781C46.7996 53.5781 47.234 53.6244 47.6273 53.7169C48.018 53.8095 48.3547 53.9586 48.6401 54.159C48.9228 54.3621 49.1439 54.6269 49.3007 54.9585C49.4575 55.2901 49.5372 55.6885 49.5372 56.1589V59.8064H49.5346ZM48.1671 57.1177C48.0874 57.1022 47.9332 57.0765 47.7121 57.0457C47.4911 57.0123 47.1569 56.9969 46.7122 56.9969C46.1621 56.9969 45.7637 57.0791 45.5118 57.2462C45.2625 57.4107 45.1365 57.6729 45.1365 58.0276C45.1365 58.1741 45.1622 58.3052 45.2162 58.4286C45.2702 58.5494 45.3601 58.6522 45.4887 58.7371C45.6172 58.8219 45.7946 58.8861 46.0156 58.9298C46.2367 58.9735 46.5143 58.9967 46.8459 58.9967C47.2186 58.9967 47.5116 58.9813 47.7301 58.953C47.9486 58.9247 48.0926 58.9016 48.1671 58.8861V57.1177Z" fill="#808184"/>
<path d="M50.1356 51.2246C50.1356 51.0062 50.1999 50.8442 50.3284 50.7388C50.4569 50.6334 50.6394 50.582 50.8733 50.582C51.0199 50.582 51.1535 50.6 51.2743 50.636C51.3951 50.672 51.4774 50.6977 51.516 50.7157V55.9929C51.6214 55.9209 51.7679 55.8129 51.9581 55.6716C52.1483 55.5302 52.3591 55.3734 52.5956 55.2037C52.8295 55.0341 53.0711 54.8567 53.323 54.6717C53.5723 54.4866 53.8114 54.3118 54.0376 54.1498C54.215 54.0213 54.3769 53.9211 54.5234 53.8542C54.6674 53.7848 54.8576 53.7514 55.0941 53.7514C55.3125 53.7514 55.4976 53.8105 55.6518 53.9262C55.8061 54.0445 55.9012 54.1421 55.9423 54.2244C55.7727 54.3786 55.5387 54.5663 55.2457 54.7873C54.9501 55.011 54.6494 55.232 54.3435 55.4531C54.0376 55.6741 53.7446 55.8823 53.4695 56.07C53.1945 56.2602 52.9966 56.399 52.8757 56.489C53.5621 56.9979 54.1893 57.548 54.7548 58.1418C55.3203 58.7356 55.7958 59.2985 56.1839 59.8332H54.4643C54.2792 59.607 54.071 59.3705 53.8397 59.1237C53.6083 58.8769 53.3641 58.6353 53.0994 58.3963C52.8372 58.1572 52.5699 57.9284 52.3 57.7048C52.0301 57.4837 51.7679 57.2781 51.5185 57.093V59.8306H50.1382V51.2221L50.1356 51.2246Z" fill="#808184"/>
<path d="M56.6395 54.3926C56.6395 54.1664 56.7038 54.0019 56.8323 53.9017C56.9608 53.8014 57.1433 53.75 57.3773 53.75C57.5238 53.75 57.6549 53.768 57.7782 53.804C57.8991 53.84 57.9813 53.8657 58.0199 53.8837V59.8317H56.6395V54.3926Z" fill="#808184"/>
<path d="M58.7982 58.6313C59.0655 58.4051 59.3765 58.1275 59.7364 57.8011C60.0962 57.4746 60.4613 57.1404 60.834 56.8011C61.2041 56.4618 61.5614 56.1328 61.9007 55.8141C62.24 55.4953 62.5176 55.2254 62.7361 55.0095H59.5256C59.2583 55.0095 59.0706 54.9581 58.9627 54.8527C58.8547 54.7473 58.7982 54.5931 58.7982 54.3926C58.7982 54.2564 58.8187 54.1253 58.8598 54.0045C58.901 53.8837 58.9318 53.7988 58.9575 53.75H63.8877C64.1216 53.75 64.3067 53.804 64.4455 53.9145C64.5817 54.0225 64.6511 54.1921 64.6511 54.4183C64.6511 54.5726 64.6151 54.7139 64.5432 54.8476C64.4712 54.9813 64.3324 55.1483 64.1319 55.3514C64.0034 55.4799 63.844 55.6367 63.6538 55.8167C63.4636 55.9992 63.2605 56.1894 63.042 56.3924C62.8235 56.5955 62.5973 56.8011 62.3634 57.0171C62.1295 57.2304 61.9033 57.4361 61.6848 57.634C61.4663 57.8319 61.2607 58.0144 61.0653 58.1841C60.8725 58.3537 60.7054 58.5002 60.5692 58.621H64.664V59.8317H58.8007V58.6313H58.7982Z" fill="#808184"/>
<path d="M70.9354 59.8064C70.8557 59.8218 70.7272 59.8398 70.555 59.8604C70.3802 59.8809 70.1771 59.9015 69.9432 59.922C69.7093 59.9426 69.4471 59.9606 69.1566 59.976C68.8662 59.9914 68.5629 59.9992 68.2467 59.9992C67.6169 59.9992 67.1003 59.9452 66.7018 59.8346C66.3008 59.7267 65.9873 59.5802 65.7559 59.3977C65.5246 59.2152 65.3678 59.007 65.2829 58.7679C65.1981 58.5289 65.1544 58.2847 65.1544 58.0353C65.1544 57.7037 65.2058 57.4133 65.3061 57.1639C65.4063 56.9146 65.5734 56.7038 65.8022 56.5342C66.0335 56.3645 66.3343 56.236 66.7044 56.1537C67.0771 56.0689 67.5295 56.0278 68.0616 56.0278C68.3675 56.0278 68.6605 56.0381 68.9356 56.0586C69.2106 56.0792 69.4163 56.0972 69.5525 56.1126C69.5525 55.8299 69.5062 55.5959 69.4137 55.4109C69.3211 55.2258 69.1952 55.0793 69.0333 54.9739C68.8713 54.8685 68.6785 54.7965 68.4523 54.7554C68.2261 54.7143 67.9768 54.6937 67.7018 54.6937C67.2416 54.6937 66.8715 54.7451 66.5939 54.8505C66.3163 54.9559 66.1312 55.0433 66.0438 55.1178C65.995 55.0767 65.9281 55.0022 65.8433 54.8865C65.7585 54.7734 65.7148 54.6372 65.7148 54.4752C65.7148 54.3621 65.7456 54.2516 65.8047 54.1411C65.8664 54.0331 65.9718 53.9354 66.1261 53.8506C66.2777 53.7658 66.4859 53.6989 66.743 53.6501C67.0026 53.6013 67.329 53.5781 67.7249 53.5781C68.2004 53.5781 68.6348 53.6244 69.0281 53.7169C69.4188 53.8095 69.7556 53.9586 70.0409 54.159C70.3236 54.3621 70.5447 54.6269 70.7015 54.9585C70.8583 55.2901 70.938 55.6885 70.938 56.1589V59.8064H70.9354ZM69.5679 57.1177C69.4882 57.1022 69.334 57.0765 69.1129 57.0457C68.8919 57.0123 68.5577 56.9969 68.113 56.9969C67.5629 56.9969 67.162 57.0791 66.9126 57.2462C66.6633 57.4107 66.5373 57.6729 66.5373 58.0276C66.5373 58.1741 66.563 58.3052 66.617 58.4286C66.6684 58.5494 66.761 58.6522 66.8895 58.7371C67.018 58.8219 67.1954 58.8861 67.4164 58.9298C67.6375 58.9735 67.9151 58.9967 68.2467 58.9967C68.6194 58.9967 68.9125 58.9813 69.1309 58.953C69.3494 58.9247 69.4959 58.9016 69.5679 58.8861V57.1177Z" fill="#808184"/>
<path d="M57.332 50.5586C57.5659 50.5586 57.7638 50.6383 57.9258 50.8002C58.0877 50.9622 58.1674 51.1601 58.1674 51.394C58.1674 51.6279 58.0877 51.8258 57.9258 51.9878C57.7638 52.1497 57.5659 52.2294 57.332 52.2294C57.0981 52.2294 56.9001 52.1497 56.7382 51.9878C56.5763 51.8258 56.4966 51.6279 56.4966 51.394C56.4966 51.1601 56.5763 50.9622 56.7382 50.8002C56.9001 50.6383 57.0981 50.5586 57.332 50.5586Z" fill="#808184"/>
<path d="M54.4679 40.3984C54.7018 40.3984 54.8997 40.4781 55.0617 40.6401C55.2236 40.802 55.3033 40.9999 55.3033 41.2338C55.3033 41.4678 55.2236 41.6657 55.0617 41.8276C54.8997 41.9896 54.7018 42.0692 54.4679 42.0692C54.234 42.0692 54.0361 41.9896 53.8741 41.8276C53.7122 41.6657 53.6325 41.4678 53.6325 41.2338C53.6325 40.9999 53.7122 40.802 53.8741 40.6401C54.0361 40.4781 54.234 40.3984 54.4679 40.3984Z" fill="#808184"/>
<path d="M46.0421 39.9102C46.276 39.9102 46.474 39.9898 46.6359 40.1518C46.7978 40.3137 46.8775 40.5116 46.8775 40.7456C46.8775 40.9795 46.7978 41.1774 46.6359 41.3393C46.474 41.5013 46.276 41.581 46.0421 41.581C45.8082 41.581 45.6103 41.5013 45.4484 41.3393C45.2864 41.1774 45.2067 40.9795 45.2067 40.7456C45.2067 40.5116 45.2864 40.3137 45.4484 40.1518C45.6103 39.9898 45.8082 39.9102 46.0421 39.9102Z" fill="#808184"/>
<path d="M48.7374 39.9102C48.9714 39.9102 49.1693 39.9898 49.3312 40.1518C49.4932 40.3137 49.5728 40.5116 49.5728 40.7456C49.5728 40.9795 49.4932 41.1774 49.3312 41.3393C49.1693 41.5013 48.9714 41.581 48.7374 41.581C48.5035 41.581 48.3056 41.5013 48.1437 41.3393C47.9817 41.1774 47.902 40.9795 47.902 40.7456C47.902 40.5116 47.9817 40.3137 48.1437 40.1518C48.3056 39.9898 48.5035 39.9102 48.7374 39.9102Z" fill="#808184"/>
<path d="M60.3601 50.5586C60.594 50.5586 60.792 50.6383 60.9539 50.8002C61.1158 50.9622 61.1955 51.1601 61.1955 51.394C61.1955 51.6279 61.1158 51.8258 60.9539 51.9878C60.792 52.1497 60.594 52.2294 60.3601 52.2294C60.1262 52.2294 59.9283 52.1497 59.7663 51.9878C59.6044 51.8258 59.5247 51.6279 59.5247 51.394C59.5247 51.1601 59.6044 50.9622 59.7663 50.8002C59.9283 50.6383 60.1262 50.5586 60.3601 50.5586Z" fill="#808184"/>
<path d="M70.6841 44.1134C69.9207 43.5891 69.0133 43.3346 67.9671 43.3346H67.2783L69.1804 40.6356V40.6304C69.1547 40.5893 69.0956 40.5122 69.0082 40.4017C68.9208 40.2886 68.8103 40.1883 68.6766 40.0932C68.4632 39.9416 68.2628 39.8696 68.0777 39.8799C67.8926 39.8902 67.7281 39.9981 67.5816 40.2037L67.2988 40.6304L64.5099 44.8203H67.7795C68.8128 44.8203 69.6328 45.175 70.2266 45.8948C70.7355 46.5168 70.99 47.2674 70.99 48.1439H60.9575C61.1991 47.874 61.3122 47.3368 61.3122 46.5014V45.301V43.4862C61.2659 43.4682 61.1734 43.4374 61.0372 43.3963C60.8984 43.3551 60.7493 43.3346 60.5822 43.3346C60.3174 43.3346 60.1092 43.3911 59.9627 43.5068C59.8162 43.6225 59.7416 43.8075 59.7416 44.0646V45.301V46.5862C59.7416 47.0823 59.6851 47.4499 59.572 47.6607C59.4023 47.9871 59.0759 48.1414 58.6106 48.1414H55.2279V45.3164V43.4862C55.1816 43.4682 55.0891 43.4374 54.9503 43.3963C54.8115 43.3551 54.6598 43.3346 54.4927 43.3346C54.2254 43.3346 54.0146 43.3937 53.8681 43.5068C53.719 43.6225 53.6445 43.8101 53.6445 44.0697V45.3164V48.7351C53.6445 50.0666 53.0147 50.7118 51.7552 50.7401V52.0999C53.6342 52.0768 54.8937 51.2491 55.1302 49.7556H72.6917V48.766C72.6917 46.5451 72.0259 45.0028 70.6816 44.1109" fill="#808184"/>
<path d="M77.2896 44.8024V43.4915C77.2433 43.4735 77.1508 43.4427 77.012 43.4015C76.8732 43.3604 76.7215 43.3398 76.5519 43.3398C76.2845 43.3398 76.0737 43.399 75.9272 43.5146C75.7781 43.6303 75.7036 43.8179 75.7036 44.0776V45.3242V48.743C75.7036 50.1027 75.0533 50.7531 73.7372 50.7531V52.1129C76.1714 52.1129 77.2896 51.0513 77.2896 48.5039V44.805V44.8024Z" fill="#808184"/>
<defs>
<linearGradient id="paint0_linear_1344_3926" x1="37.6232" y1="27.4472" x2="52.2474" y2="27.4472" gradientUnits="userSpaceOnUse">
<stop stop-color="white"/>
<stop offset="1" stop-color="#A4A7A9"/>
</linearGradient>
<linearGradient id="paint1_linear_1344_3926" x1="19.2633" y1="24.6788" x2="27.2358" y2="24.6788" gradientUnits="userSpaceOnUse">
<stop stop-color="white"/>
<stop offset="1" stop-color="#A4A7A9"/>
</linearGradient>
<linearGradient id="paint2_linear_1344_3926" x1="26.1106" y1="5.80493" x2="32.7623" y2="5.80493" gradientUnits="userSpaceOnUse">
<stop stop-color="white"/>
<stop offset="1" stop-color="#A4A7A9"/>
</linearGradient>
<linearGradient id="paint3_linear_1344_3926" x1="32.9557" y1="34.9435" x2="47.5799" y2="34.9435" gradientUnits="userSpaceOnUse">
<stop stop-color="white"/>
<stop offset="1" stop-color="#A4A7A9"/>
</linearGradient>
<linearGradient id="paint4_linear_1344_3926" x1="27.7853" y1="36.5202" x2="42.4095" y2="36.5202" gradientUnits="userSpaceOnUse">
<stop stop-color="white"/>
<stop offset="1" stop-color="#A4A7A9"/>
</linearGradient>
<linearGradient id="paint5_linear_1344_3926" x1="23.1376" y1="46.7327" x2="37.2396" y2="46.7327" gradientUnits="userSpaceOnUse">
<stop stop-color="white"/>
<stop offset="1" stop-color="#A4A7A9"/>
</linearGradient>
<linearGradient id="paint6_linear_1344_3926" x1="17.9679" y1="51.2158" x2="32.0699" y2="51.2158" gradientUnits="userSpaceOnUse">
<stop stop-color="white"/>
<stop offset="1" stop-color="#A4A7A9"/>
</linearGradient>
<linearGradient id="paint7_linear_1344_3926" x1="13.9955" y1="53.4101" x2="28.6197" y2="53.4101" gradientUnits="userSpaceOnUse">
<stop stop-color="white"/>
<stop offset="1" stop-color="#A4A7A9"/>
</linearGradient>
<linearGradient id="paint8_linear_1344_3926" x1="7.62775" y1="57.5171" x2="22.252" y2="57.5171" gradientUnits="userSpaceOnUse">
<stop stop-color="white"/>
<stop offset="1" stop-color="#A4A7A9"/>
</linearGradient>
<linearGradient id="paint9_linear_1344_3926" x1="6.16307" y1="59.4914" x2="19.011" y2="59.4914" gradientUnits="userSpaceOnUse">
<stop stop-color="white"/>
<stop offset="1" stop-color="#A4A7A9"/>
</linearGradient>
<linearGradient id="paint10_linear_1344_3926" x1="4.55802" y1="59.142" x2="13.114" y2="59.142" gradientUnits="userSpaceOnUse">
<stop stop-color="white"/>
<stop offset="1" stop-color="#A4A7A9"/>
</linearGradient>
<linearGradient id="paint11_linear_1344_3926" x1="2.72595" y1="51.1109" x2="9.77657" y2="51.1109" gradientUnits="userSpaceOnUse">
<stop stop-color="white"/>
<stop offset="1" stop-color="#A4A7A9"/>
</linearGradient>
</defs>
</svg>
