<svg width="129" height="50" viewBox="0 0 129 50" fill="none" xmlns="http://www.w3.org/2000/svg">
<path fill-rule="evenodd" clip-rule="evenodd" d="M108.034 8.84375L101.473 15.3945L101.381 15.6045V18.5111L101.446 18.8395L101.623 19.0979L101.887 19.2755L102.216 19.3401H109.197V22.2629H93.8831V9.04292H92.2252V23.0865L92.2898 23.404L92.4674 23.6732L92.7366 23.8508L93.0542 23.9154H128.171L128.494 23.8508L128.758 23.6732L128.935 23.404L129 23.0865V16.7025H127.342V22.2629H110.855V18.5111L110.79 18.1936L110.607 17.9298L110.349 17.7522L110.026 17.6876H103.039V16.1643L109.197 10.0118L108.034 8.84375Z" fill="#9B1E24"/>
<path fill-rule="evenodd" clip-rule="evenodd" d="M67.9229 12.457L66.6903 13.722L67.9229 14.9815L69.1502 13.722L67.9229 12.457Z" fill="#9B1E24"/>
<path fill-rule="evenodd" clip-rule="evenodd" d="M54.0519 15.707H52.3994V23.1352L52.464 23.4582L52.6416 23.7165L52.9 23.8996L53.2284 23.9641H88.496L88.819 23.8996L89.0827 23.7165L89.255 23.4582L89.3196 23.1352V22.3116H54.0519V15.707Z" fill="#9B1E24"/>
<path fill-rule="evenodd" clip-rule="evenodd" d="M70.1087 15.707H65.0866L64.8605 15.7393L64.2684 16.6167L64.3223 16.832L64.4353 17.0312L68.4401 22.3116H70.9376V20.6861H69.2851L66.7553 17.3649H70.9376V16.5306L70.8677 16.213L70.6954 15.9493L70.4263 15.7716L70.1087 15.707Z" fill="#9B1E24"/>
<path d="M89.324 16.6875H87.6715V22.3071H89.324V16.6875Z" fill="#9B1E24"/>
<path d="M70.9378 17.3633H69.2853V20.6898H70.9378V17.3633Z" fill="#9B1E24"/>
<path fill-rule="evenodd" clip-rule="evenodd" d="M62.3454 28.1875H52.3281V29.7485H56.3759V40.8854H58.1092V29.7485H62.3454V28.1875Z" fill="#9B1E24"/>
<path fill-rule="evenodd" clip-rule="evenodd" d="M72.4698 40.8696L71.474 38.1944L71.0057 36.924L69.1702 32.015V36.924H65.3969L67.367 31.3422L69.1702 36.924V32.015L68.9172 31.3422L67.6792 28.0156H67.2216L62.0488 40.8696H63.992L64.934 38.1944H69.6654L70.5428 40.8696H72.4698Z" fill="#9B1E24"/>
<path fill-rule="evenodd" clip-rule="evenodd" d="M84.0322 40.8692L79.6937 33.6833L83.494 28.1875H81.5616L76.8409 35.0882V28.1875H75.1077V40.8692H76.8409V37.435L78.5311 35.0343L82.116 40.8692H84.0322Z" fill="#9B1E24"/>
<path fill-rule="evenodd" clip-rule="evenodd" d="M95.726 40.8696L94.7302 38.1944L94.2565 36.924L92.4318 32.015V36.924H88.6585L90.6232 31.3422L92.4318 36.924V32.015L92.1734 31.3422L90.9408 28.0156H90.4778L85.3158 40.8696H87.259L88.1956 38.1944H92.927L93.8044 40.8696H95.726Z" fill="#9B1E24"/>
<path fill-rule="evenodd" clip-rule="evenodd" d="M105.439 28.1875H95.4323V29.7485H99.4747V40.8854H101.208V29.7485H105.439V28.1875Z" fill="#9B1E24"/>
<path fill-rule="evenodd" clip-rule="evenodd" d="M117.117 28.1562H115.373V36.8171L115.324 37.4038L114.63 38.7925L113.209 39.4761L112.595 39.5246L112.019 39.4761L110.636 38.7656L109.936 37.4145L109.893 36.8601V28.1562H108.144V36.9893L108.219 37.9205L108.8 39.4385L109.952 40.4881L111.605 41.0156L112.617 41.0856L113.607 41.0156L115.249 40.4773L116.439 39.4115L117.047 37.9098L117.117 37.0001V28.1562Z" fill="#9B1E24"/>
<path fill-rule="evenodd" clip-rule="evenodd" d="M128.861 28.1562H120.948V29.7172V33.2429V34.7178V40.8918H122.698V34.7178H127.197V33.2429H122.698V29.7172H128.861V28.1562Z" fill="#9B1E24"/>
<path fill-rule="evenodd" clip-rule="evenodd" d="M43.3292 17.0508L35.422 24.9688L43.3292 32.8922V17.0508Z" fill="#9B1E24"/>
<path fill-rule="evenodd" clip-rule="evenodd" d="M35.4231 24.9766L31.3915 29.019V34.7301H43.3358V32.9107L35.4231 24.9766Z" fill="#C61F48"/>
<path fill-rule="evenodd" clip-rule="evenodd" d="M43.3358 34.7344H31.3915V44.3479L43.3358 37.5011V34.7344Z" fill="#E66126"/>
<path fill-rule="evenodd" clip-rule="evenodd" d="M31.455 29.0078L25.7332 34.7297H31.455V29.0078Z" fill="#DB1D45"/>
<path fill-rule="evenodd" clip-rule="evenodd" d="M31.4551 34.7344H25.744L21.6962 38.7445L28.8606 45.8443L31.4551 44.3587V34.7344Z" fill="#F58922"/>
<path fill-rule="evenodd" clip-rule="evenodd" d="M21.6956 38.7656L14.5527 45.887L21.6956 49.9994L28.8385 45.887L21.6956 38.7656Z" fill="#9B1E24"/>
<path fill-rule="evenodd" clip-rule="evenodd" d="M31.3915 5.59375V15.2719H43.3358V12.489L31.3915 5.59375Z" fill="#E66126"/>
<path fill-rule="evenodd" clip-rule="evenodd" d="M43.3358 15.2812H31.3915V20.96L35.4231 24.9702L43.3358 17.0898V15.2812Z" fill="#F58922"/>
<path fill-rule="evenodd" clip-rule="evenodd" d="M28.8606 4.10938L21.6962 11.2415L25.744 15.2624H31.4551V5.60039L28.8606 4.10938Z" fill="#C61F48"/>
<path fill-rule="evenodd" clip-rule="evenodd" d="M31.455 15.2812H25.7332L31.455 20.9331V15.2812Z" fill="#DB1D45"/>
<path fill-rule="evenodd" clip-rule="evenodd" d="M11.9965 20.9766L7.97559 25.0082L11.9965 29.0345V20.9766Z" fill="#FDC56F"/>
<path fill-rule="evenodd" clip-rule="evenodd" d="M25.7173 34.7344H17.6809L21.6964 38.7606L25.7173 34.7344Z" fill="#FDC56F"/>
<path fill-rule="evenodd" clip-rule="evenodd" d="M25.7173 15.2817L21.6964 11.25L17.6809 15.2817H25.7173Z" fill="#FDC56F"/>
<path fill-rule="evenodd" clip-rule="evenodd" d="M35.4171 25.0082L31.4016 20.9766V29.0345L35.4171 25.0082Z" fill="#FDC56F"/>
<path fill-rule="evenodd" clip-rule="evenodd" d="M12.0087 29.0078V34.7297H17.6605L12.0087 29.0078Z" fill="#DB1D45"/>
<path fill-rule="evenodd" clip-rule="evenodd" d="M17.6875 34.7344H12.0087V44.3587L14.587 45.8443L21.6922 38.7445L17.6875 34.7344Z" fill="#C61F48"/>
<path fill-rule="evenodd" clip-rule="evenodd" d="M7.96449 24.9766L0.0518799 32.9107V34.7301H11.9962V29.019L7.96449 24.9766Z" fill="#F58922"/>
<path fill-rule="evenodd" clip-rule="evenodd" d="M11.9962 34.7344H0.0518799V37.5011L11.9962 44.3479V34.7344Z" fill="#E66126"/>
<path fill-rule="evenodd" clip-rule="evenodd" d="M21.6956 0L14.5527 4.11241L21.6956 11.2338L28.8385 4.11241L21.6956 0Z" fill="#9B1E24"/>
<path fill-rule="evenodd" clip-rule="evenodd" d="M14.587 4.10938L12.0087 5.60039V15.2624H17.6875L21.6922 11.2415L14.587 4.10938Z" fill="#F58922"/>
<path fill-rule="evenodd" clip-rule="evenodd" d="M17.6605 15.2812H12.0087V20.9331L17.6605 15.2812Z" fill="#DB1D45"/>
<path fill-rule="evenodd" clip-rule="evenodd" d="M11.9962 5.59375L0.0518799 12.489V15.2719H11.9962V5.59375Z" fill="#E66126"/>
<path fill-rule="evenodd" clip-rule="evenodd" d="M11.9962 15.2812H0.0518799V17.0898L7.96449 24.9702L11.9962 20.96V15.2812Z" fill="#C61F48"/>
<path fill-rule="evenodd" clip-rule="evenodd" d="M0.0518799 17.0508V32.8922L7.95911 24.9688L0.0518799 17.0508Z" fill="#9B1E24"/>
</svg>
