<svg width="99" height="103" viewBox="0 0 99 103" fill="none" xmlns="http://www.w3.org/2000/svg">
<path d="M19.583 49.8649C13.2497 49.8649 8.09766 44.5534 8.09766 38.0266C8.09766 31.4991 13.2497 26.1875 19.583 26.1875C25.9156 26.1875 31.0669 31.4983 31.0669 38.0266C31.0669 44.5542 25.9156 49.8649 19.583 49.8649ZM19.583 29.5101C15.0103 29.5101 11.2912 33.3307 11.2912 38.0266C11.2912 42.7217 15.0103 46.5424 19.583 46.5424C24.1543 46.5424 27.8733 42.7217 27.8733 38.0266C27.8733 33.3307 24.1543 29.5101 19.583 29.5101Z" fill="#CBB17A"/>
<path d="M24.2034 82.6431H4.1736C1.872 82.6431 0 80.7076 0 78.3284V72.8943C0 61.7699 8.7846 52.7188 19.5831 52.7188C23.83 52.7188 27.8726 54.0978 31.2704 56.7057C31.9799 57.2508 32.1312 58.2907 31.6072 59.0297C31.0833 59.7671 30.0845 59.9244 29.3743 59.3801C26.5292 57.1964 23.1439 56.0413 19.5831 56.0413C10.5459 56.0413 3.19355 63.6023 3.19355 72.8943V78.3284C3.19355 78.8752 3.63329 79.3205 4.1736 79.3205H24.2042C25.0853 79.3205 25.801 80.0643 25.801 80.9818C25.801 81.8984 25.0853 82.6431 24.2034 82.6431Z" fill="#CBB17A"/>
<path d="M94.8272 81.3844H74.7974C73.9164 81.3844 73.2006 80.6406 73.2006 79.7232C73.2006 78.8065 73.9164 78.0619 74.7974 78.0619H94.828C95.3683 78.0619 95.8081 77.6173 95.8081 77.0706V71.6365C95.8081 62.3429 88.4557 54.7835 79.4185 54.7835C75.6441 54.7835 71.9594 56.1358 69.0426 58.592C68.3581 59.1687 67.3531 59.0592 66.7971 58.3462C66.2428 57.6332 66.3473 56.5868 67.0342 56.0092C70.517 53.0768 74.9151 51.4609 79.4185 51.4609C90.2162 51.4609 99.0008 60.5112 99.0008 71.6365V77.0706C99.0008 79.449 97.1288 81.3844 94.8272 81.3844Z" fill="#CBB17A"/>
<path d="M79.4174 49.0446C73.0849 49.0446 67.9336 43.7339 67.9336 37.2063C67.9336 30.6788 73.0849 25.3672 79.4174 25.3672C85.7507 25.3672 90.9028 30.678 90.9028 37.2063C90.9028 43.7347 85.7499 49.0446 79.4174 49.0446ZM79.4174 28.6898C74.8462 28.6898 71.1271 32.5104 71.1271 37.2063C71.1271 41.9022 74.8462 45.722 79.4174 45.722C83.9902 45.722 87.7093 41.9022 87.7093 37.2063C87.7093 32.5104 83.9894 28.6898 79.4174 28.6898Z" fill="#CBB17A"/>
<path d="M71.1706 88.047H27.827C24.9476 88.047 22.6055 85.6281 22.6055 82.6543V75.0114C22.6055 59.737 34.6686 47.3105 49.4988 47.3105C64.329 47.3105 76.3921 59.737 76.3921 75.0114V82.6543C76.3921 85.6281 74.05 88.047 71.1706 88.047ZM49.4988 50.6339C36.4307 50.6339 25.799 61.5702 25.799 75.0122V82.6551C25.799 83.7965 26.7089 84.7253 27.827 84.7253H71.1699C72.2879 84.7253 73.1978 83.7965 73.1978 82.6551V75.0122C73.1986 61.5702 62.5669 50.6339 49.4988 50.6339Z" fill="#CBB17A"/>
<path d="M48.9452 45.3703C40.8085 45.3703 34.1875 38.5475 34.1875 30.1599C34.1875 21.7732 40.8077 14.9512 48.9452 14.9512C57.0834 14.9512 63.7037 21.774 63.7037 30.1607C63.7037 38.5483 57.0827 45.3703 48.9452 45.3703ZM48.9452 18.2738C42.569 18.2738 37.381 23.6064 37.381 30.1607C37.381 36.7159 42.569 42.0485 48.9452 42.0485C55.3221 42.0485 60.5101 36.7159 60.5101 30.1607C60.5101 23.6064 55.3221 18.2738 48.9452 18.2738Z" fill="#CBB17A"/>
</svg>
