<svg width="104" height="45" viewBox="0 0 104 45" fill="none" xmlns="http://www.w3.org/2000/svg">
<g clip-path="url(#clip0_139_16117)">
<path d="M57.3321 24.5459C55.8458 24.5459 54.3695 24.8938 53.6289 25.2219C52.6894 25.6345 52.3613 25.883 52.3613 27.0511V36.4558H55.3636V27.593C55.5774 27.5085 56.3081 27.25 57.3818 27.25C58.6592 27.25 59.1116 28.1596 59.1116 28.9351V36.4558H62.0692V29.288C62.0692 26.052 60.563 24.5459 57.3321 24.5459Z" fill="#272828"/>
<path d="M86.8931 24.5452C85.5411 24.5452 84.3083 25.0323 83.5279 25.43C82.7923 24.8385 81.7683 24.5452 80.4511 24.5452C79.1338 24.5452 77.5134 24.9379 76.7479 25.3057C75.9675 25.6835 75.709 25.9867 75.709 27.0455V36.4501H78.7163V27.5873C78.94 27.5028 79.6756 27.2393 80.4709 27.2393C81.4949 27.2393 82.0119 27.811 82.0119 28.9244V36.4451H84.9645V29.2773C84.9645 28.6709 84.9098 28.1291 84.8054 27.642C85.1882 27.4829 85.9089 27.2393 86.7092 27.2393C87.7282 27.2393 88.2452 27.811 88.2452 28.9244V36.4451H91.1978V28.9642C91.1978 25.942 89.8259 24.5303 86.8882 24.5303" fill="#272828"/>
<path d="M97.8234 24.5459C96.4514 24.5459 95.0248 24.8889 94.0754 25.1822L93.981 25.212L94.4333 27.7172L94.5477 27.6824C95.4573 27.4389 96.7397 27.1456 97.6941 27.1456C99.3295 27.1456 99.5084 28.2093 99.5084 28.6666C99.5084 29.0046 99.4935 29.3228 99.4836 29.4818H97.1722C94.5079 29.4818 92.8477 30.8488 92.8477 33.0558C92.8477 35.5262 94.8857 36.6297 96.9087 36.6297C98.1564 36.6297 98.9617 36.3414 99.5482 36.1327C99.921 35.9985 100.214 35.8941 100.503 35.8941C101.005 35.8941 101.218 36.0283 101.79 36.3911C101.949 36.4906 102.133 36.6099 102.357 36.7391L102.456 36.7987L103.535 34.7309L102.277 33.9455V28.2889C102.277 25.9476 100.612 24.5509 97.8234 24.5509M97.381 34.3134C96.2576 34.3134 95.7754 33.9306 95.7754 33.0309C95.7754 31.9622 96.7397 31.5795 97.5599 31.5795H99.4736V33.8213C99.2997 33.8412 99.1406 33.9108 98.9617 33.9853C98.6187 34.1344 98.1912 34.3134 97.376 34.3134" fill="#272828"/>
<path d="M68.5764 24.5459C67.2094 24.5459 65.7828 24.8889 64.8284 25.1822L64.729 25.212L65.1814 27.7172L65.3007 27.6824C66.2053 27.4389 67.4878 27.1456 68.4422 27.1456C70.0775 27.1456 70.2515 28.2093 70.2515 28.6666C70.2515 29.0046 70.2366 29.3228 70.2316 29.4818H67.9202C65.251 29.4818 63.5957 30.8488 63.5957 33.0558C63.5957 35.5262 65.6387 36.6297 67.6568 36.6297C68.9044 36.6297 69.7097 36.3414 70.2962 36.1327C70.669 35.9985 70.9623 35.8941 71.2506 35.8941C71.7527 35.8941 71.9664 36.0283 72.543 36.3911C72.7021 36.4906 72.881 36.6099 73.1047 36.7391L73.2091 36.7987L74.2877 34.7309L73.0301 33.9455V28.2889C73.0301 25.9476 71.365 24.5509 68.5764 24.5509M68.1389 34.3134C67.0156 34.3134 66.5334 33.9306 66.5334 33.0309C66.5334 31.9622 67.4977 31.5795 68.3179 31.5795H70.2316V33.8213C70.0626 33.8412 69.9036 33.9108 69.7246 33.9853C69.3816 34.1344 68.9541 34.3134 68.1389 34.3134Z" fill="#272828"/>
<path d="M58.0675 9.67773C56.6906 9.67773 55.5026 10.0704 54.6278 10.8111C53.7082 11.6014 53.1763 12.8441 53.1763 14.211C53.1763 15.2897 53.5541 16.3683 54.1407 17.1587C53.4646 17.3227 52.888 17.4917 52.4655 17.6309L52.2617 17.7005L53.0024 20.2902L53.226 20.2157C54.2997 19.8628 56.4371 19.2712 58.7435 19.2712C59.7228 19.2712 60.6424 19.3756 61.4725 19.5894L61.6912 19.644L62.3473 17.0394L62.1286 16.9847C61.3184 16.7809 60.4535 16.6517 59.5538 16.6069V16.597H59.2903C59.1511 16.597 59.007 16.587 58.8678 16.587C58.1968 16.5373 57.5555 16.3186 56.9591 15.9409C56.283 15.5134 55.9947 14.9815 55.9947 14.1564C55.9947 13.5499 56.1985 13.1324 56.7205 12.6801C57.0982 12.352 57.7842 12.1382 58.4702 12.1382C59.4196 12.1382 60.1254 12.3222 60.3541 12.3768C60.4286 12.3918 60.4435 12.4017 60.4783 12.4017L60.6573 12.3669L61.3134 10.1748L61.1046 10.1102C61.05 10.0903 59.7476 9.67773 58.0675 9.67773Z" fill="#272828"/>
<path d="M68.0987 4.83691L64.7832 5.21469V15.2456C64.7832 18.2678 66.7317 20.0523 70.1416 20.1617L82.648 20.1716C83.5726 20.1716 84.3878 20.0275 85.0687 19.7342C85.9187 21.2552 87.4448 22.0953 89.3833 22.1201C91.3617 22.1201 92.8628 21.2602 93.7228 19.6248C94.5927 20.0125 95.557 20.1169 96.2827 20.1517V20.1666H96.4915L96.7251 20.1766V20.1617L97.1675 20.1517C100.468 19.928 102.441 18.1485 102.441 15.3898V9.64858L99.126 10.0264V15.2506C99.126 16.036 98.8575 17.0798 96.4965 17.0848H96.3424C94.6871 17.0848 94.4734 16.4436 94.4734 15.8918C94.4734 12.4968 92.4204 10.2103 89.3684 10.2103C86.3164 10.2103 84.3679 12.2781 84.169 15.8719C84.0845 16.886 83.2594 17.0053 82.0167 17.0748L81.803 17.0848H70.4697C68.4864 17.0848 68.0838 16.3243 68.0838 15.181V4.83691H68.0987ZM89.4082 19.3266C88.593 19.3266 87.4994 18.9935 87.4994 16.0906C87.4994 13.1877 88.588 12.7801 89.4082 12.7801C90.2284 12.7801 91.312 13.1281 91.312 16.1652C91.312 18.2927 90.6906 19.3266 89.4082 19.3266Z" fill="#272828"/>
<path d="M100.603 4.79688C99.5792 4.79688 98.7441 5.63196 98.7441 6.65593C98.7441 7.6799 99.5792 8.51498 100.603 8.51498C101.627 8.51498 102.462 7.6799 102.462 6.65593C102.462 5.63196 101.627 4.79688 100.603 4.79688Z" fill="#272828"/>
<path d="M39.1992 2.81376C39.1992 2.81376 44.4135 2.06318 45.8003 7.11841C46.2378 8.71899 46.0041 12.6459 41.1577 15.0169C42.4252 9.43477 41.4162 5.46316 39.1992 2.81376Z" fill="#E14747"/>
<path d="M23.1777 30.7736C28.0789 35.2324 36.385 36.5844 40.2621 34.109C45.2527 30.9277 45.9884 25.6289 45.9884 25.6289C44.4574 27.1002 38.0104 29.6999 31.7473 28.3429C28.0341 30.5798 24.5099 30.6742 23.1777 30.7686" fill="#E14747"/>
<path d="M34.6914 25.5698C38.9314 26.4198 44.2402 24.2028 45.8656 21.6329C47.9831 18.2876 46.984 12.6807 46.984 12.6807C46.984 12.6807 45.4928 17.9397 39.8759 19.2818C38.6779 22.4134 35.9291 24.7446 34.6914 25.5698Z" fill="#E14747"/>
<path d="M34.7155 8.56456C34.7155 13.2917 31.6486 17.1291 27.8758 17.1242C24.098 17.1242 21.0361 13.2868 21.041 8.55959C21.041 3.83243 24.103 0 27.8807 0C31.6585 0 34.7155 3.8374 34.7155 8.56456Z" fill="#E14747"/>
<path d="M10.8657 3.45496C10.8657 3.45496 4.65225 9.17129 6.85428 19.4706C9.05631 29.77 18.7045 33.7317 25.2211 36.1176C32.0708 38.6229 38.0854 39.1249 38.0854 39.1249C38.0854 39.1249 29.9831 48.7979 13.4604 43.3252C-3.0673 37.8524 -0.283688 17.0648 1.0435 12.5564C1.0435 12.5564 3.68295 0.701173 10.8657 3.45496Z" fill="#E14747"/>
</g>
<defs>
<clipPath id="clip0_139_16117">
<rect width="103.53" height="45" fill="white"/>
</clipPath>
</defs>
</svg>
