<svg width="120" height="45" viewBox="0 0 120 45" fill="none" xmlns="http://www.w3.org/2000/svg">
<path d="M58.6059 24.4264C57.5359 23.672 56.3096 23.5908 55.8287 23.5908C51.4616 23.5908 51.2422 27.7897 51.2422 28.6312C51.2422 29.4728 51.4646 33.6686 55.8287 33.6686C56.3066 33.6686 57.5359 33.5875 58.6059 32.8361C59.8142 31.9855 60.4273 30.5698 60.4273 28.6342C60.4273 26.6986 59.8142 25.28 58.6059 24.4294M55.8287 32.0426C55.2066 32.0426 53.1778 31.7961 53.1778 28.6342C53.1778 27.42 53.4844 26.5033 54.0885 25.9112C54.6986 25.313 55.441 25.2259 55.8287 25.2259C56.4509 25.2259 58.4887 25.4723 58.4887 28.6342C58.4887 31.7961 56.4539 32.0426 55.8287 32.0426Z" fill="#231F20"/>
<path d="M69.2282 27.67C69.6249 27.67 70.2862 27.8564 70.2862 29.1157V33.4168H72.0926V28.5116C72.0926 27.0809 71.1308 26.1582 69.646 26.1582C68.5369 26.1582 68.026 26.9066 67.7795 27.2643L67.7374 27.3274L67.7074 27.2793C67.2475 26.5519 66.7997 26.1582 65.7537 26.1582C64.3952 26.1582 63.9113 27.0719 63.755 27.3725L63.743 27.3935H63.6618V26.3476H61.9336V33.4168H63.74V29.1037C63.74 28.166 64.1547 27.67 64.9452 27.67C66.1084 27.67 66.1084 28.5657 66.1084 29.1608V33.4168H67.9148V29.1698C67.9148 28.19 68.3686 27.67 69.2252 27.67" fill="#231F20"/>
<path d="M75.6059 33.5992C76.9073 33.5992 77.5175 32.959 77.8811 32.5773L77.9352 32.5202L77.9443 32.5983C77.9893 32.9921 78.0104 33.1003 78.1126 33.4128H80.0752V33.1904C79.8558 33.1093 79.6574 32.8989 79.6574 32.0513V28.1831C79.6574 26.3016 77.5054 26.1543 76.8472 26.1543C75.4135 26.1543 73.9227 26.4428 73.6943 28.5798H75.4346C75.4887 28.144 75.681 27.588 76.6218 27.588C77.0336 27.588 77.8932 27.588 77.8932 28.4506C77.8932 28.7842 77.6617 28.9886 77.2019 29.0517L75.5127 29.3072C74.7463 29.4184 73.4629 29.8572 73.4629 31.5554C73.4629 33.0582 74.617 33.5932 75.6059 33.5932M76.5767 30.3231C77.3822 30.1968 77.6617 30.0766 77.8331 29.9384L77.8932 29.8903V30.8791C77.8932 31.7868 77.0215 32.3308 76.177 32.3308C75.7261 32.3308 75.2693 32.0543 75.2693 31.4352C75.2693 30.6236 75.8854 30.4493 76.5767 30.3261" fill="#231F20"/>
<path d="M84.5838 27.67C85.8402 27.67 85.8402 28.6468 85.8402 29.1157V33.4168H87.6525V28.5116C87.6525 27.0809 86.6908 26.1582 85.2 26.1582C83.8024 26.1582 83.2824 27.0419 83.087 27.3755L83.075 27.3935H82.9969V26.3476H81.2656V33.4168H83.072V29.3592C83.072 28.3343 83.6641 27.673 84.5838 27.673" fill="#231F20"/>
<path d="M92.9004 23.8496V33.4165H99.636V31.7393H94.839V23.8496H92.9004Z" fill="#231F20"/>
<path d="M102.804 26.5577L106.726 33.4165H108.683V23.8496H106.874V30.5611H106.792L106.783 30.5431L102.966 23.8496H100.898V33.4165H102.708V26.5396H102.792L102.804 26.5577Z" fill="#231F20"/>
<path d="M114.934 23.5909H114.913C113.581 23.5909 112.49 24.0027 111.673 24.8202C110.759 25.7309 110.254 27.0954 110.254 28.6614C110.254 31.153 111.612 33.6717 114.651 33.6717C116.394 33.6717 117.137 32.8001 117.63 32.22L117.681 32.1599L117.888 33.4162H119.166V28.2947H115.213V29.8426H117.461L117.452 29.8877C117.272 30.7292 116.878 31.3424 116.277 31.703C115.772 32.0066 115.273 32.0397 115.081 32.0397C114.269 32.0397 113.617 31.8112 113.136 31.3574C112.538 30.7953 112.235 29.8967 112.235 28.6854C112.235 27.4741 112.52 26.6175 113.088 25.9984C113.578 25.4634 114.254 25.1809 115.039 25.1809C116.409 25.1809 117.146 26.323 117.185 26.7678H119.12C119.009 25.6437 118.005 23.5879 114.931 23.5879" fill="#231F20"/>
<path d="M91.3161 10.2165C91.5565 11.9598 91.4123 13.8683 91.8451 15.5184C92.4161 16.2067 93.4681 16.1376 94.2586 15.8971C94.472 15.8039 94.7335 15.7769 94.9228 15.5845C94.8988 15.3471 94.7335 15.1547 94.5411 15.0616C94.3758 14.9894 94.2315 14.9173 94.0632 14.9173C94.0392 14.6107 94.2315 14.3011 94.496 14.1088C95.1843 14.0306 95.9748 14.1328 96.3084 14.776C96.3084 15.1096 96.119 15.3952 95.9778 15.6837C96.1431 15.8971 96.4286 15.9212 96.6961 15.8731C96.9035 15.8731 97.0989 15.7498 97.2912 15.6356C97.6729 15.1337 97.3604 14.4424 97.4355 13.8202L97.2431 11.0791C97.2942 10.8176 97.3874 10.5501 97.6008 10.3367L97.6729 10.4089C97.7661 12.104 97.8383 13.7962 98.0066 15.4944C98.0787 15.7528 98.2681 15.9693 98.5325 16.0444C98.7459 16.0444 98.9353 16.0925 99.1036 16.0234L99.1757 15.9031C99.0826 14.4695 99.1036 13.0147 98.8872 11.6322C98.4364 11.2234 98.9593 10.7695 99.1066 10.3908C99.2058 10.2977 99.2268 10.1744 99.3681 10.1744C99.4192 10.3668 99.1787 10.5321 99.296 10.7485C99.5094 11.1543 100.207 11.3436 99.9632 11.8696C99.8941 12.0109 99.846 12.1822 99.7017 12.2994L99.5334 12.2513L99.4853 12.3715L99.6566 15.6416C99.4402 16.0955 99.3651 16.8349 98.6979 16.886C98.4123 16.91 98.0997 16.8589 97.8863 16.6455C97.694 16.5043 97.694 16.2638 97.5317 16.1225C96.9786 16.5043 96.3084 16.8138 95.6171 16.6215C95.4247 16.5493 95.2835 16.36 95.1422 16.2428C94.1594 16.7447 92.8429 17.1234 91.7278 16.6455C91.0546 16.1436 91.274 15.2599 91.1538 14.5205C91.1027 13.3243 90.9825 12.1341 90.8652 10.9619C90.8893 10.6523 91.0546 10.3427 91.295 10.1504L91.3191 10.2225L91.3161 10.2165Z" fill="#231F20"/>
<path d="M55.0495 11.4057C55.2418 11.532 55.359 11.7484 55.311 11.9618C55.2178 12.1511 55.1967 12.3916 55.0044 12.5088L54.8872 12.4577L54.8631 12.5749L55.1457 16.0194C55.1697 16.7107 54.6227 17.3058 54.0216 17.5703C53.4745 17.8077 52.7832 18.0451 52.134 17.8077C51.6591 17.6153 51.1602 17.1615 51.2083 16.6115C51.2293 15.8961 51.5419 15.277 51.9717 14.73C52.0649 14.6548 52.1611 14.5376 52.3084 14.5616C51.9988 15.1568 51.3736 15.7519 51.7343 16.5183C52.119 17.2066 52.9516 17.0443 53.5978 16.9751C53.9825 16.8279 54.5265 16.7798 54.6467 16.3019C54.5265 14.775 54.3612 13.2211 54.2169 11.6943C53.8863 11.1683 54.3401 10.6213 54.5986 10.1885C54.5746 10.6423 54.5986 11.1473 55.0495 11.4027" fill="#231F20"/>
<path d="M58.108 10.4811C58.4176 11.1032 58.5618 11.9628 58.3004 12.6541L58.1561 12.7984C58.4446 12.1312 58.2042 11.3647 57.9187 10.7876C57.8916 10.6494 57.9908 10.5773 58.0419 10.457L58.111 10.4811H58.108Z" fill="#231F20"/>
<path d="M119.203 15.7312C119.176 16.2813 118.965 16.7592 118.701 17.21C118.674 16.8313 118.746 16.4015 118.725 15.9957C118.532 14.4418 118.484 12.909 118.295 11.3641L118.725 10.5977H118.797L119.2 15.7312H119.203Z" fill="#231F20"/>
<path d="M96.1657 10.625C96.2108 10.8865 95.9253 11.0278 95.7359 11.1269C94.7561 11.5297 93.7522 11.8633 92.7994 12.2961C92.6792 12.227 92.7754 12.1068 92.7994 12.0316C93.8484 11.4606 95.0206 11.1269 96.0936 10.625H96.1657Z" fill="#231F20"/>
<path d="M87.6654 10.7841C87.7135 12.4853 87.9028 14.1805 87.9509 15.8516C87.7856 16.2574 87.7375 16.7563 87.2837 16.9486C87.5722 16.2333 87.4039 15.3737 87.3799 14.5622L87.1875 11.2891C87.2596 11.0546 87.4249 10.8142 87.6173 10.6699L87.6654 10.7841Z" fill="#231F20"/>
<path d="M103.735 11.0279C103.66 11.2683 103.564 11.629 103.3 11.7492L102.56 11.4607C102.323 11.5989 102.323 12.2271 101.917 11.9626L101.223 11.7492C101.271 11.4847 101.463 11.2683 101.61 11.0279C101.893 11.0549 102.16 11.1962 102.47 11.2443C102.707 11.1271 102.683 10.8385 102.903 10.6973L103.738 11.0279H103.735Z" fill="#231F20"/>
<path d="M105.833 11.172C105.833 11.4605 105.806 11.7491 105.593 11.9354C105.476 12.0316 105.286 12.0556 105.139 11.9805L105.118 11.9594C104.953 12.1488 104.712 12.3652 104.427 12.245C104.09 11.9595 104.189 11.4575 104.162 11.0247C104.162 10.9285 104.189 10.8384 104.285 10.8143C104.454 11.0007 104.333 11.3854 104.454 11.6258C104.475 11.695 104.499 11.7911 104.595 11.8152C104.691 11.8633 104.832 11.8392 104.901 11.719C104.929 11.4575 104.808 11.1239 105.07 10.9526C105.289 11.0968 105.118 11.5266 105.455 11.5958C105.524 11.5958 105.623 11.5056 105.596 11.4335C105.524 11.2141 105.524 10.9766 105.692 10.7812C105.812 10.8354 105.812 11.0247 105.836 11.169" fill="#231F20"/>
<path d="M115.433 11.244C115.433 11.3372 115.454 11.4063 115.554 11.4604C115.578 11.4364 115.599 11.4063 115.647 11.4364C115.695 11.6258 115.502 11.7911 115.361 11.9353C114.763 13.2488 113.284 13.3209 112.043 13.2939C113.044 13.0775 114.075 12.8911 114.91 12.1758C115.121 11.8632 114.55 11.9113 114.55 11.5987C114.529 11.2681 114.715 10.9555 114.979 10.7842C115.193 10.8142 115.361 11.0547 115.433 11.244Z" fill="#231F20"/>
<path d="M67.8716 16.1884C67.8235 16.7114 67.6822 17.1893 67.3486 17.574L67.4207 16.4499C67.3005 14.7788 67.1562 13.0806 67.1562 11.4065C67.2524 11.1961 67.3727 10.9827 67.562 10.8174C67.7063 12.6328 67.7544 14.349 67.8716 16.1884Z" fill="#231F20"/>
<path d="M113.209 11.1716L112.975 11.364C111.947 11.7668 110.895 12.1515 109.894 12.6324C109.777 12.6324 109.777 12.5091 109.798 12.437L109.849 12.3198C110.919 11.7638 112.091 11.4361 113.167 10.9102C113.287 10.9312 113.239 11.0785 113.212 11.1716" fill="#231F20"/>
<path d="M69.7841 11.2198C69.6639 11.7488 69.1619 12.2478 69.4234 12.8218C69.5437 12.9901 69.712 12.7978 69.8532 12.8218C69.9464 12.9661 69.8532 13.1314 69.8051 13.2516C69.6849 13.441 69.4685 13.5582 69.2551 13.462C69.0177 13.3177 69.0387 13.0593 69.0628 12.8188C69.183 12.2237 69.3723 11.5985 69.7541 11.0996L69.7811 11.2168L69.7841 11.2198Z" fill="#231F20"/>
<path d="M115.146 11.4394V11.5085C115.004 11.5085 114.887 11.4394 114.791 11.3372C114.863 11.0998 115.077 11.2891 115.146 11.4364" fill="#231F20"/>
<path d="M64.1008 11.5774C64.197 11.7638 64.1489 12.0764 64.1249 12.2717C64.2932 12.3649 64.4314 12.1515 64.5787 12.2447C64.6238 12.5272 64.3863 12.6504 64.1699 12.7226C63.7191 12.6504 63.5748 13.2215 63.2172 13.4139C62.5048 14.0811 61.5971 14.2735 60.6895 14.4147C61.6693 13.9879 62.7663 13.6784 63.5298 12.7947C63.4787 12.6504 63.2683 12.6324 63.1931 12.5062C63.0489 12.3409 63.0729 12.1034 63.145 11.9321C63.2863 11.6255 63.8393 10.9523 64.0978 11.5744" fill="#231F20"/>
<path d="M73.0516 11.7489C73.0245 12.2479 72.5286 12.6326 72.0748 12.7979C71.6179 12.9632 71.0469 13.0774 70.5449 12.9422C70.5449 12.7979 70.6621 12.7708 70.7613 12.7468C71.4526 12.6356 72.216 12.7017 72.6699 12.0795C72.5497 11.8902 72.2671 11.9172 72.0477 11.8691C71.6931 11.77 71.4556 11.9864 71.1641 12.0795C71.1881 11.797 71.4045 11.5115 71.6931 11.3913C72.1439 11.3913 72.7631 11.2951 73.0516 11.7519" fill="#231F20"/>
<path d="M78.4192 11.5292C78.5153 11.6945 78.4192 11.9349 78.2779 12.0762C78.1847 12.0311 78.2298 11.8177 78.0615 11.7936C77.8481 11.8447 77.8691 12.0762 77.776 12.1964C77.6557 12.5571 77.6106 12.9628 77.4183 13.2754H77.3492C77.1568 12.8907 77.0877 12.4399 76.751 12.1513C76.5587 12.1273 76.4174 12.2445 76.2731 12.3196C76.1499 12.2445 76.3152 12.0762 76.3693 11.959C76.5346 11.8387 76.724 11.6945 76.9644 11.7456C77.1989 11.959 77.1838 12.2926 77.3972 12.506C77.6828 12.1754 77.5866 11.2647 78.3019 11.3849L78.4192 11.5292Z" fill="#231F20"/>
<path d="M84.4641 11.6287C84.5603 11.9142 84.2447 11.9834 84.0824 12.1276C83.34 12.5093 82.5766 12.843 81.8402 13.2487C81.7651 13.1285 81.8613 13.0113 81.9094 12.9091C82.6938 12.3651 83.6075 12.1006 84.392 11.5986L84.4641 11.6257V11.6287Z" fill="#231F20"/>
<path d="M61.856 11.7944C61.7598 12.0349 61.5224 12.1311 61.309 12.1972L57.6992 13.6819C57.6992 13.5166 57.8886 13.3213 58.0599 13.2521C59.3012 12.7021 60.5636 12.1791 61.8349 11.6982L61.856 11.7944Z" fill="#231F20"/>
<path d="M63.8409 12.1517C63.8409 12.1968 63.8409 12.2449 63.7898 12.2449C63.6455 12.2449 63.5283 12.1938 63.4772 12.0735C63.4531 11.9593 63.5283 11.8632 63.6215 11.791C63.7898 11.791 63.8138 12.0044 63.8409 12.1517Z" fill="#231F20"/>
<path d="M53.5248 12.4374C53.5488 12.744 53.3084 12.9634 53.122 13.1738C52.7373 13.4383 52.2594 13.5796 51.8086 13.5104C52.1392 13.273 52.6652 13.291 52.9778 12.9364C53.0259 12.8402 53.1641 12.7651 53.098 12.6478C52.8095 12.5727 52.4037 12.3864 52.1633 12.6478C52.0941 12.6959 52.0701 12.7651 51.9739 12.7651C51.8807 12.5727 52.046 12.4344 52.1392 12.2691C52.3105 11.9776 52.6682 12.0046 52.9297 12.0738C53.1461 12.173 53.4587 12.173 53.5278 12.4344" fill="#231F20"/>
<path d="M95.71 12.7258C95.6619 12.9422 95.4696 13.1556 95.3734 13.369C95.0849 13.3239 94.8234 13.1586 94.5859 13.0144C94.634 12.798 94.7753 12.5575 94.9436 12.3682C95.2051 12.4583 95.4966 12.5305 95.71 12.7258Z" fill="#231F20"/>
<path d="M89.8144 12.8217C89.8144 13.0802 89.6491 13.3207 89.4598 13.516C89.2434 13.3928 88.9789 13.3688 88.8105 13.1794C88.9097 12.966 89.054 12.7286 89.2163 12.5332L89.8144 12.8247V12.8217Z" fill="#231F20"/>
<path d="M106.432 13.0352C106.359 13.3207 106.167 13.5371 105.975 13.7535L105.238 13.465C105.307 13.2245 105.476 12.942 105.662 12.7256L106.435 13.0352H106.432Z" fill="#231F20"/>
<path d="M106.883 14.3039C106.718 14.2768 106.67 14.5173 106.573 14.6345C106.216 14.923 106.597 15.2326 106.573 15.5903C106.528 15.7556 106.336 15.7826 106.195 15.7826C105.927 15.7345 105.66 15.6624 105.521 15.3769C105.428 15.2566 105.594 15.0673 105.452 14.9711C105.14 15.3288 104.758 15.5903 104.376 15.7556C104.115 15.8788 103.805 15.8307 103.64 15.5903C103.066 14.6615 102.946 13.5164 102.825 12.4434L102.753 12.3262L102.471 12.9694C102.495 13.0836 102.519 13.3 102.447 13.3721C101.824 13.7088 100.992 13.9462 100.797 14.7367C100.748 14.923 100.559 15.0703 100.676 15.2596C101.082 15.3799 101.512 15.4761 102.014 15.425C102.35 15.425 102.588 15.2086 102.753 14.923C102.994 15.473 103.018 16.1193 103.451 16.5701C104.067 16.9278 104.593 16.2605 105.119 16.0652C105.308 16.3537 105.621 16.6392 106.002 16.5911C106.309 16.6152 106.6 16.4709 106.79 16.2094C107.123 15.6864 107.147 14.8509 106.883 14.3039ZM102.612 14.5413C102.299 14.6585 101.891 14.6134 101.584 14.5654L101.536 14.5173C101.8 14.2317 102.299 14.2528 102.513 13.8711C102.582 14.0845 102.633 14.3249 102.612 14.5413Z" fill="#231F20"/>
<path d="M90.4555 14.9917C90.5066 15.9205 90.218 16.756 89.5478 17.3541C89.0488 17.7358 88.595 18.331 87.8977 18.2588C87.3026 18.1656 86.7495 17.9733 86.2266 17.6878C86.7255 17.7629 87.3987 17.7358 87.8977 17.5916C88.7843 17.3301 89.689 16.7109 90.0948 15.8273C90.0707 15.4456 89.668 15.157 89.3554 14.9917C89.3073 14.7302 89.4546 14.4417 89.4546 14.1562C89.5958 14.06 89.7371 14.2283 89.8814 14.2734C90.0948 14.4657 90.3833 14.7032 90.4524 14.9917" fill="#231F20"/>
<path d="M86.2751 12.2965C86.5155 11.6503 85.5327 11.6023 85.6559 11.0282C85.68 10.8629 85.8002 10.6976 85.8002 10.5743C85.5147 10.8148 85.3193 11.1694 85.178 11.5091C84.9406 11.7646 85.1991 12.0561 85.3434 12.2725C85.4846 13.3665 85.5327 14.4906 85.6048 15.6358L85.5327 15.7109C85.0097 15.8732 84.4116 15.9664 83.8886 15.9454C84.078 15.5877 84.5318 15.23 84.2704 14.7762C83.9367 14.157 83.2695 13.9166 82.6203 13.9647C81.953 14.2502 81.3549 14.7311 80.7838 15.2541L80.7328 15.206C80.7087 14.2742 80.7087 13.2493 80.7568 12.2965L80.9702 12.2725C81.1175 12.0771 81.1866 11.8637 81.2377 11.6263C81.0904 11.1244 80.354 11.1244 80.354 10.5262C80.2819 10.385 80.4472 10.2167 80.327 10.1445L79.9212 10.7847C79.8521 11.1484 79.9212 11.5301 80.1376 11.8187C80.2579 13.1531 80.2579 14.4426 80.2338 15.7801C80.2098 15.9694 79.9212 15.9213 79.807 15.8762C79.0887 15.6869 78.9715 14.9204 78.8993 14.3253C78.71 14.4936 78.6348 14.707 78.5387 14.8994C78.4455 15.1609 78.5867 15.4975 78.2772 15.6658C78.1359 15.756 77.8985 15.8101 77.7061 15.735C77.3965 15.6177 77.3003 15.2811 77.3514 14.9715H77.3244C76.8495 15.3082 76.3927 15.7139 75.7525 15.6658C75.3948 15.6388 75.0131 15.5216 74.8898 15.1639C75.1543 14.8062 75.6292 14.4215 75.4369 13.9226C75.0582 13.5409 74.5562 13.3245 74.0092 13.3004C73.5554 13.3966 73.3389 13.8745 73.2157 14.2562C73.4832 14.3764 73.8619 14.4486 73.9311 14.7822C73.0234 14.9745 72.0736 15.3322 71.6197 16.2399C71.5717 16.3331 71.5025 16.5014 71.6197 16.5946C72.0736 16.7418 72.5966 16.7869 72.9783 17.0274C72.3832 17.382 71.6678 17.4812 70.9735 17.5534C70.3784 17.5023 69.6841 17.4331 69.4677 16.7899C69.062 15.8612 69.7833 15.0707 70.138 14.2803V14.1871C69.9937 14.2111 69.9667 14.4005 69.8524 14.4967C69.2543 15.4043 68.4639 16.6457 69.2543 17.7187C69.6841 18.2206 70.2101 18.437 70.8533 18.41C72.0225 18.1966 73.6215 17.9561 73.883 16.5254C73.5253 16.2129 73.0745 16.1197 72.6477 15.9514L72.5485 15.8582C72.6206 15.7861 72.6957 15.759 72.7889 15.735C73.2398 15.5907 73.7417 15.4254 74.2166 15.3773C74.2887 15.7831 74.5051 16.1407 74.8658 16.3782C75.4609 16.7118 76.1762 16.4263 76.7022 16.0656C76.9367 15.8762 76.9186 16.306 77.0569 16.4022C77.2763 16.5916 77.5859 16.5916 77.8474 16.5916C78.1569 16.4984 78.3944 16.306 78.6078 16.0656L78.707 16.0896C79.2029 16.9793 80.4021 16.9041 81.3309 16.805C82.6864 16.6637 84.1471 16.805 85.4335 16.4233C85.8182 16.2579 85.9625 15.8071 86.0827 15.4464L85.9385 12.8917C86.1579 12.7444 86.206 12.5099 86.2751 12.2965ZM83.6241 15.5636C82.7916 15.9243 81.8118 16.0656 80.859 15.9694L80.8319 15.9213C81.2407 15.4194 81.8118 14.9445 82.4279 14.7762C82.9329 14.7762 83.3867 15.0617 83.6482 15.4915L83.6241 15.5606V15.5636Z" fill="#231F20"/>
<path d="M117.201 12.459C117.249 12.1765 117.535 11.9811 117.438 11.6715C117.174 11.4611 116.861 11.2177 116.696 10.884C116.744 10.6706 116.957 10.4783 116.861 10.2378C116.459 10.5474 116.245 11.0524 116.146 11.5272C116.362 11.8398 116.434 12.1734 116.486 12.5251C116.6 13.5771 116.72 14.7012 116.696 15.8012C116.221 15.9635 115.599 16.0357 115.193 15.7261C115.313 15.3925 115.719 14.9386 115.337 14.5569C114.835 14.2233 114.093 14.0069 113.498 14.2954C113.333 14.5329 113.116 14.7703 113.236 15.0558C113.525 15.0799 113.805 15.1039 114.021 15.3654C114.045 15.4105 114.093 15.5307 114.021 15.5758C113.357 15.8162 112.401 15.8643 111.731 15.5758C111.373 15.3384 111.184 14.9326 111.012 14.5539L110.916 14.5058L110.008 14.9086C109.678 15.149 109.555 15.5307 109.365 15.8643C109.224 15.9335 109.008 15.9575 108.866 15.8884C108.647 15.8162 108.461 15.6028 108.434 15.4105C108.028 13.6913 108.121 11.7557 107.98 9.94629H107.908C107.742 10.1567 107.646 10.4212 107.547 10.6857L107.721 13.2615C107.841 14.4036 107.622 15.6239 108.295 16.5286C108.485 16.6969 108.698 16.745 108.938 16.769C109.248 16.745 109.416 16.3873 109.603 16.222C110.06 16.6007 110.583 16.8171 111.087 17.0786C111.49 17.4122 111.49 16.745 111.71 16.5767L112.139 16.6248C112.924 16.6488 113.672 16.4084 114.337 16.1919C114.887 16.8652 115.914 16.8141 116.696 16.5977C116.888 16.4805 117.078 16.2671 117.15 16.0266C117.384 14.8545 117.009 13.7153 117.009 12.5612L117.198 12.444L117.201 12.459ZM110.276 15.5638C110.345 15.4706 110.516 15.4015 110.661 15.4225C110.685 15.6149 110.775 15.7321 110.775 15.9244C110.586 15.8313 110.396 15.7351 110.276 15.5638Z" fill="#231F20"/>
<path d="M66.4854 12.4858C66.6777 11.9357 66.0315 11.7915 65.7941 11.4068C65.6258 11.1723 65.8452 10.8868 65.8181 10.6253H65.7701C65.4364 10.9319 65.3372 11.3406 65.22 11.7494C65.1719 12.056 65.4364 12.2483 65.5536 12.5098L65.8181 15.9482L65.7701 16.0444C65.4364 16.0925 65.0517 16.0925 64.7902 15.9482C64.5498 15.7829 64.3634 15.5425 64.2883 15.281C64.1951 15.0916 64.2642 14.8241 64.12 14.7069C63.3806 14.9714 62.7855 15.5635 62.2805 16.1887C62.1393 16.2368 61.9259 16.2097 61.8057 16.0895C61.5652 15.9212 61.6133 15.6146 61.6133 15.3501L61.5442 15.305C61.1835 15.5184 61.2526 15.9963 60.919 16.2067C60.7777 16.3029 60.5613 16.2578 60.4201 16.1376C60.2998 15.9963 60.2998 15.7799 60.3239 15.5876C60.1345 15.6627 59.9903 15.9212 59.846 16.1135C59.6356 16.2819 59.323 16.3991 59.0375 16.2819C59.1036 16.0414 59.2719 15.807 59.2539 15.5184C59.0826 15.5425 59.0826 15.7318 58.9413 15.828C58.4664 16.2338 57.724 16.2067 57.1259 16.0895C56.9366 16.0414 56.7652 15.8761 56.7652 15.6627L56.3835 10.1925L56.3354 10.0723C56.122 10.2947 55.9808 10.5261 55.9297 10.8177L56.2182 15.4703C56.2904 15.9212 56.2182 16.4231 56.5518 16.7838C56.8133 17.0483 57.171 17.0693 57.5076 17.0934C58.2711 17.0483 59.2539 17.3098 59.846 16.7117C59.9151 16.9251 60.1105 17.0693 60.3479 17.0934C60.6846 17.0934 60.946 16.8078 61.1594 16.5704C61.2496 16.8078 61.466 16.9521 61.7095 17.0242C62.0461 17.0964 62.2775 16.7868 62.4969 16.5914C63.068 17.0483 63.7353 17.427 64.4055 17.7155C64.5949 17.4991 64.7151 17.2376 64.8113 17.0002C65.0487 16.9792 65.2862 16.9251 65.5266 16.883C66.0977 16.8349 66.1458 16.1917 66.3141 15.7829C66.3141 14.8031 66.1007 13.8714 66.1698 12.9426C66.3892 12.8945 66.4103 12.6541 66.4824 12.4888M63.2634 15.9482C63.3085 15.7559 63.5038 15.7138 63.6691 15.6627L63.7653 15.7138L64.0028 16.4231C63.7172 16.3299 63.4527 16.1646 63.2634 15.9452" fill="#231F20"/>
<path d="M100.992 16.9248C100.992 17.1653 100.728 17.1893 100.559 17.2614L98.5757 17.9527C98.4826 17.8806 98.5757 17.8115 98.5998 17.7393C99.3632 17.4027 100.178 17.1442 100.992 16.9278" fill="#231F20"/>
<path d="M106.242 17.4748C106.167 17.7122 105.974 17.8775 105.854 18.0729C105.572 18.0458 105.382 17.8114 105.094 17.7663C104.952 17.9046 104.856 18.145 104.712 18.2622L103.973 17.9316C104.021 17.6912 104.192 17.4537 104.378 17.2854L105.121 17.574L105.503 17.1201C105.764 17.1923 106.004 17.3576 106.245 17.4778" fill="#231F20"/>
<path d="M77.4925 17.6427C77.4444 17.9042 77.1829 18.1206 77.0146 18.358C76.705 18.3129 76.4646 18.0485 76.179 17.9763C75.8935 18.0725 75.7973 18.4813 75.5118 18.5534C75.2263 18.4302 74.9407 18.334 74.6973 18.1446C74.8175 17.8801 74.9828 17.6637 75.1782 17.4533C75.5358 17.5255 75.7973 17.79 76.179 17.8351L76.6599 17.2129L77.4955 17.6457L77.4925 17.6427Z" fill="#231F20"/>
<path d="M80.1181 17.901C79.9768 18.1415 79.8115 18.3128 79.5891 18.4992C79.3547 18.403 79.0902 18.2347 78.9219 18.0453C79.0661 17.8319 79.2345 17.6395 79.4268 17.4502C79.6613 17.5915 79.9017 17.7357 80.1151 17.901" fill="#231F20"/>
<path d="M73.4574 19.0258C73.3131 19.2663 73.1448 19.5278 72.9554 19.6931L72.2641 19.3625L71.8073 19.8855C71.5218 19.8133 71.2813 19.648 71.0469 19.5037C71.095 19.2423 71.3324 19.0529 71.5007 18.8335C71.7622 18.8846 71.9516 19.1461 72.2371 19.122C72.5016 19.0078 72.6188 18.3586 72.9765 18.7193L73.4544 19.0289L73.4574 19.0258Z" fill="#231F20"/>
<path d="M45.4055 22.497C45.4055 34.9222 35.3307 45 22.8965 45C10.4623 45 0.396484 34.9222 0.396484 22.497C0.396484 10.0718 10.4713 0 22.8965 0C35.3217 0 45.4055 10.0658 45.4055 22.497Z" fill="white"/>
<path d="M44.9663 22.4967C44.9663 34.6815 35.0898 44.5549 22.8961 44.5549C10.7023 44.5549 0.837891 34.6815 0.837891 22.4967C0.837891 10.312 10.7113 0.435547 22.8961 0.435547C35.0808 0.435547 44.9663 10.315 44.9663 22.4967Z" fill="#00A551"/>
<path d="M43.404 22.4972C43.404 33.8163 34.2248 42.9985 22.8967 42.9985C11.5686 42.9985 2.39844 33.8163 2.39844 22.4972C2.39844 11.1781 11.5716 2.00195 22.8967 2.00195C34.2218 2.00195 43.404 11.1721 43.404 22.4972Z" fill="white"/>
<path d="M39.8082 14.5593C36.8266 8.21744 30.3766 3.82324 22.8956 3.82324C15.4146 3.82324 8.97961 8.21444 5.99805 14.5503H10.8251V12.825C10.8251 10.8924 12.391 9.3205 14.3236 9.3205C16.2562 9.3205 17.8281 10.8924 17.8281 12.825V14.5443H19.4181V12.825C19.4181 10.8924 20.987 9.3205 22.9196 9.3205C24.8522 9.3205 26.4272 10.8924 26.4272 12.825V14.5443H28.0232V12.825C28.0232 10.8924 29.5861 9.3205 31.5187 9.3205C33.4513 9.3205 35.0232 10.8924 35.0232 12.825V14.5443L39.8052 14.5563L39.8082 14.5593Z" fill="#EC1C24"/>
<path d="M31.3442 39.1517C37.4126 36.065 41.5783 29.7682 41.5783 22.4976C41.5783 20.3426 41.2086 18.2718 40.5384 16.3482L33.2708 16.3361V12.8256C33.2708 11.8608 32.4864 11.0703 31.5216 11.0703C30.5568 11.0703 29.7723 11.8608 29.7723 12.8256V16.3361H24.6718V12.8256C24.6718 11.8608 23.8873 11.0703 22.9195 11.0703C21.9517 11.0703 21.1642 11.8608 21.1642 12.8256V16.3361H16.0757V12.8256C16.0757 11.8608 15.2943 11.0703 14.3205 11.0703C13.3466 11.0703 12.5742 11.8608 12.5742 12.8256V16.3361H5.26756C4.5943 18.2657 4.22461 20.3366 4.22461 22.4976C4.22461 29.7712 8.38438 36.077 14.4587 39.1577L14.5218 23.5616C14.5218 21.1091 18.2728 19.1253 22.8955 19.1253C27.5181 19.1253 31.2751 21.1121 31.2751 23.5616L31.3442 39.1547V39.1517Z" fill="#00A551"/>
<path d="M27.273 31.189C27.273 31.189 26.6268 30.125 25.4486 29.01C25.4486 29.01 22.3228 26.0825 22.9931 23.2031C22.9931 23.2031 19.1819 25.28 18.157 28.9078C18.157 28.9078 17.5739 30.9426 18.7131 32.7489C18.7131 32.7489 19.3653 33.8129 20.5375 34.934C20.5375 34.934 23.6633 37.8645 22.9931 40.7439C22.9931 40.7439 26.8072 38.661 27.8321 35.0302C27.8321 35.0302 28.4122 33.0014 27.27 31.189M26.5277 35.1955C26.5277 35.1955 25.5208 38.6009 22.9931 40.7439C23.9278 38.9135 23.3056 36.6562 23.3056 36.6562C23.0832 35.7906 22.7165 35.2346 22.3018 34.6906C21.6195 33.8851 20.9823 33.3741 20.9823 33.3741C19.2841 31.8683 19.188 30.4136 19.188 30.4136C18.7822 26.4913 22.4731 24.5015 22.4731 24.5015C22.4731 24.5015 22.2507 27.1765 25.118 29.9627C25.118 29.9627 25.8364 30.645 26.2331 31.2762C26.7681 32.1959 27.1408 33.5544 26.5277 35.1895" fill="#0088CF"/>
</svg>
