<svg width="100" height="45" viewBox="0 0 100 45" fill="none" xmlns="http://www.w3.org/2000/svg">
<path d="M81.0481 42.987C78.866 44.0324 76.6153 44.6551 74.2847 44.8721C68.1495 45.4434 62.5343 44.0096 57.713 40.0737C52.9146 36.1493 50.0755 31.111 49.3444 24.8959C47.9505 13.077 56.4791 1.78929 68.7779 0.201246C78.2719 -1.02692 86.9319 3.44588 91.3933 11.4432C95.729 19.2178 95.3691 27.0209 90.7478 34.607C90.2908 35.3553 90.3479 35.7609 90.9477 36.3493C93.5068 38.8741 96.026 41.439 98.5509 43.9981C98.7965 44.2438 99.025 44.5065 99.3963 44.9064C98.8936 44.9464 98.6137 44.9864 98.3281 44.9921C95.5576 44.9921 92.7814 45.0206 90.0109 44.9692C89.531 44.9635 88.9312 44.7864 88.6056 44.4666C83.9843 39.8966 79.403 35.2925 74.8159 30.694C74.6388 30.5169 74.5017 30.3055 74.2161 29.9514C75.6042 29.9514 76.8152 29.9514 78.0206 29.9514C79.9342 29.9514 81.8479 29.9228 83.7615 29.9628C84.5384 29.9799 84.944 29.6772 85.281 28.9974C89.9652 19.6291 83.2874 8.09577 72.828 7.50739C65.0534 7.07325 58.3357 12.0944 56.959 19.6405C55.2338 29.1288 61.9859 36.2864 69.6348 37.2804C71.2399 37.4917 72.908 37.2347 74.5474 37.2175C74.8845 37.2175 75.3357 37.2061 75.5357 37.406C77.3636 39.2112 79.1459 41.0563 81.0424 42.9985L81.0481 42.987Z" fill="#F4803E"/>
<path d="M22.6153 44.9754C10.0767 44.9811 0 34.9558 0 22.4686C0 10.0327 10.0481 0.0417081 22.5696 0.0302833C35.1312 0.0188585 45.1564 9.95271 45.1736 22.4171C45.1907 34.9444 35.1712 44.9639 22.6153 44.9754ZM22.5182 7.42783C13.9382 7.69631 7.26616 14.5512 7.52322 22.8399C7.78599 31.1742 14.8179 37.7435 23.1923 37.475C31.3782 37.2122 37.9588 30.1289 37.6846 21.8687C37.4219 13.9171 30.3442 7.18219 22.5182 7.42783Z" fill="#F4803E"/>
</svg>
