<svg width="90" height="90" viewBox="0 0 90 90" fill="none" xmlns="http://www.w3.org/2000/svg">
<g clip-path="url(#clip0_1795_104349)">
<path d="M69.6466 65.1927C67.5592 65.4232 65.8785 67.1045 65.6477 69.1921C65.4539 70.9473 66.2623 72.5267 67.5704 73.4383V77.2445C67.5704 78.692 68.744 79.8655 70.1915 79.8655C71.6391 79.8655 72.8126 78.692 72.8126 77.2445V73.3968C73.959 72.5718 74.7084 71.2292 74.7084 69.7089C74.7087 67.0282 72.3882 64.8898 69.6466 65.1927Z" fill="#9F8555"/>
<path d="M84.604 55.2989V51.9274C84.604 43.9497 78.1138 37.4595 70.1362 37.4595C65.1456 37.4595 60.7373 39.9996 58.1358 43.8546C54.2781 41.2321 49.7313 39.7155 45.0564 39.5033C48.6501 36.6079 50.9541 32.1729 50.9541 27.2094V17.2454C52.63 15.1643 53.6361 12.5223 53.6361 9.64865V1.75977C53.6361 0.789102 52.849 0.00195312 51.8783 0.00195312H33.2297C25.5969 0.00195312 19.3873 6.2116 19.3873 13.8442V20.025V27.2094C19.3873 32.158 21.6773 36.5812 25.2524 39.4773C11.3265 39.4875 0 50.82 0 64.7483V71.7207C0 72.6914 0.787148 73.4785 1.75781 73.4785H50.2726V82.8081C50.2726 86.7736 53.5867 89.9995 57.6606 89.9995H82.6119C86.6858 89.9995 90 86.7734 90 82.8081V62.2227C90 58.9291 87.7129 56.1475 84.604 55.2989ZM70.1362 40.9753C76.1752 40.9753 81.0884 45.8884 81.0884 51.9276V55.0312H77.5728V51.9276C77.5728 47.8271 74.2366 44.491 70.1362 44.491C66.0357 44.491 62.6996 47.8271 62.6996 51.9276V55.0312H59.184V51.9276C59.184 45.8884 64.0972 40.9753 70.1362 40.9753ZM66.2152 55.0312V51.9276C66.2152 49.7655 67.9741 48.0066 70.1362 48.0066C72.2983 48.0066 74.0572 49.7655 74.0572 51.9276V55.0312H66.2152ZM22.9027 13.8442C22.9027 8.14994 27.5353 3.51758 33.2295 3.51758H50.1203V9.64865C50.1203 14.4009 46.254 18.2672 41.5018 18.2672H22.9027V13.8442ZM22.9027 27.2094V21.7828H41.5018C43.6574 21.7828 45.682 21.2152 47.4383 20.2256V27.2094C47.4383 33.9736 41.9349 39.477 35.1705 39.477C28.4061 39.477 22.9027 33.9738 22.9027 27.2094ZM17.678 69.9629V62.0353C17.678 61.0647 16.8908 60.2775 15.9202 60.2775C14.9495 60.2775 14.1623 61.0647 14.1623 62.0353V69.9629H3.51562V64.7483C3.51562 52.7523 13.2752 42.9926 25.2714 42.9926H43.9198C48.5075 42.9926 52.8376 44.3836 56.5269 47.0199C55.9723 48.5531 55.6685 50.2053 55.6685 51.9274V55.2989C52.5596 56.1477 50.2727 58.9293 50.2727 62.2225V69.9627L17.678 69.9629ZM86.4844 82.8081C86.4844 84.8349 84.7471 86.4839 82.6119 86.4839H57.6606C55.5254 86.4839 53.7882 84.8349 53.7882 82.8081V62.2227C53.7882 60.1958 55.5254 58.5468 57.6606 58.5468H82.6119C84.7471 58.5468 86.4844 60.1958 86.4844 62.2227V82.8081Z" fill="#9F8555"/>
</g>
<defs>
<clipPath id="clip0_1795_104349">
<rect width="90" height="90" fill="white"/>
</clipPath>
</defs>
</svg>
