<svg width="89" height="78" viewBox="0 0 89 78" fill="none" xmlns="http://www.w3.org/2000/svg">
<path d="M68.6672 75.9796V75.9898H70.6672C73.1871 75.9898 75.2785 73.968 75.2785 71.4044V45.7586H80.1357H80.146C83.7432 45.7586 86.6797 42.8635 86.6797 39.2697C86.6797 37.2226 85.7174 35.4105 84.263 34.2308L76.1112 27.2353V15.4716C76.1112 12.8671 73.9889 10.7844 71.4074 10.7844H65.7942C63.5693 10.7844 61.6842 12.3216 61.2004 14.4121L48.614 3.58322L48.6127 3.58211C46.1566 1.47263 42.5204 1.47263 40.0643 3.58211L40.0636 3.58266L4.25616 34.3635L4.25418 34.3652C2.1906 36.1438 1.46071 39.0025 2.41161 41.5475L2.41156 41.5475L2.41658 41.5606C3.3797 44.084 5.80748 45.7688 8.53101 45.7688H13.3985V71.4146C13.3985 73.9782 15.4899 76 18.0098 76H33.441H35.441V74V53.8866C35.441 52.17 36.8502 50.7463 38.6327 50.7463H50.0545C51.8371 50.7463 53.2463 52.17 53.2463 53.8866V73.9796V75.9796H55.2463H68.6672Z" fill="#FFF6E3" stroke="#9F8555" stroke-width="4"/>
</svg>
