<svg width="89" height="90" viewBox="0 0 89 90" fill="none" xmlns="http://www.w3.org/2000/svg">
<path d="M8.87891 69.7152L18.0585 74.9421C18.2749 75.0647 18.5192 75.1295 18.7679 75.1303C19.023 75.1313 19.2739 75.0649 19.4951 74.9378C19.7163 74.8106 19.9 74.6273 20.0276 74.4063L20.2013 74.1023L22.2428 75.5502C21.68 76.4016 21.4739 77.44 21.6688 78.4419C21.8638 79.4437 22.4442 80.3291 23.2853 80.9073C23.9285 81.3628 24.698 81.6058 25.4861 81.6023H25.8336C26.0566 82.4168 26.5422 83.135 27.215 83.6455C27.8877 84.1559 28.7101 84.4302 29.5546 84.4257C29.7954 84.4477 30.0377 84.4477 30.2786 84.4257C30.4957 84.3803 30.7087 84.3173 30.9156 84.2374C31.2066 84.7733 31.6179 85.2342 32.1174 85.584C32.77 86.0295 33.5424 86.2668 34.3326 86.2645H34.6656C34.8751 87.0924 35.3549 87.8269 36.0289 88.3514C36.7029 88.8759 37.5326 89.1605 38.3867 89.1602C38.6275 89.1823 38.8698 89.1823 39.1106 89.1602C39.619 89.071 40.1042 88.8801 40.537 88.599C40.9699 88.3179 41.3416 87.9523 41.6299 87.5241L44.8153 89.4353C45.4173 89.8022 46.1083 89.9975 46.8133 90C47.4911 89.9996 48.1573 89.8249 48.7481 89.4928C49.3389 89.1606 49.8344 88.6821 50.1869 88.1033C50.3972 87.7383 50.5486 87.3426 50.6357 86.9305C51.2242 87.0851 51.8426 87.0851 52.4311 86.9305C52.9326 86.81 53.4048 86.5903 53.8201 86.2844C54.2353 85.9786 54.5852 85.5927 54.8491 85.1496C55.0593 84.7847 55.2108 84.3889 55.2979 83.9768C55.5779 84.0447 55.8642 84.0836 56.1521 84.0927C56.4691 84.0885 56.7847 84.0497 57.0933 83.9768C58.1015 83.723 58.9697 83.0835 59.5112 82.1959C59.6833 81.891 59.8147 81.5649 59.9022 81.2259C60.4986 81.5794 61.1779 81.7692 61.8713 81.7761C62.5772 81.7595 63.2654 81.5514 63.8621 81.174C64.4589 80.7965 64.9419 80.2639 65.2593 79.6332C65.6367 79.0297 65.8373 78.3324 65.8385 77.6206C65.8469 77.0774 65.7403 76.5386 65.5257 76.0395C65.3111 75.5405 64.9933 75.0924 64.5933 74.7249C65.3702 73.5227 66.35 72.4645 67.489 71.5975L68.0827 72.8137C68.2537 73.1535 68.5516 73.4123 68.9119 73.5342C69.2723 73.6562 69.6661 73.6314 70.0083 73.4652L79.767 68.7451L78.5074 66.139L70.0373 70.2365L61.7844 53.5714L70.1821 49.5173L68.9224 46.9111L59.1493 51.6312C58.9766 51.7152 58.8225 51.8328 58.6957 51.9769C58.5689 52.1211 58.4721 52.289 58.4108 52.471C58.3678 52.6577 58.3623 52.8512 58.3946 53.0401C58.4269 53.2289 58.4964 53.4095 58.5991 53.5714L59.0913 54.5704C57.296 54.6718 54.3278 54.2953 49.5643 52.3552C47.6747 51.5153 45.6009 51.1755 43.542 51.3681C41.4832 51.5608 39.5085 52.2797 37.8075 53.4555C36.21 54.5641 34.802 55.9233 33.6376 57.4806C32.578 57.1622 31.5653 56.7045 30.626 56.1196L30.8143 55.7722C31.003 55.4397 31.0526 55.0461 30.9523 54.6772C30.8519 54.3083 30.6097 53.994 30.2786 53.803L21.128 48.5762L19.6801 51.081L27.571 55.5839L18.2177 71.7133L10.3268 67.1959L8.87891 69.7152ZM27.7013 76.2741L26.2535 78.3156C26.1018 78.5383 25.8678 78.6917 25.6031 78.7419C25.3383 78.7922 25.0645 78.7352 24.8418 78.5835C24.619 78.4318 24.4657 78.1979 24.4155 77.9331C24.3652 77.6684 24.4222 77.3945 24.5739 77.1718L26.0218 75.1303C26.1049 75.0121 26.2127 74.9134 26.3377 74.8409C26.4627 74.7684 26.6019 74.7239 26.7457 74.7104C26.8777 74.6821 27.0141 74.6817 27.1462 74.7091C27.2784 74.7365 27.4033 74.7912 27.5131 74.8697C27.6282 74.9452 27.7267 75.0433 27.8026 75.1582C27.8786 75.273 27.9303 75.4021 27.9547 75.5376C27.9791 75.6731 27.9756 75.8121 27.9445 75.9462C27.9134 76.0803 27.8553 76.2066 27.7737 76.3175L27.7013 76.2741ZM32.5372 78.0695L30.3944 81.0811C30.2414 81.3018 30.0071 81.4529 29.7428 81.501C29.4762 81.5438 29.203 81.4872 28.9755 81.3417C28.7494 81.1839 28.595 80.9429 28.5462 80.6716C28.4973 80.4002 28.558 80.1206 28.7148 79.8938L30.8143 76.8388C30.9124 76.7042 31.0409 76.5947 31.1893 76.5192C31.3378 76.4437 31.502 76.4044 31.6685 76.4044C31.8697 76.4058 32.066 76.4662 32.2332 76.5782C32.3564 76.6514 32.4629 76.7496 32.546 76.8664C32.629 76.9832 32.6867 77.1161 32.7153 77.2565C32.7439 77.397 32.7429 77.5418 32.7122 77.6818C32.6816 77.8218 32.622 77.9539 32.5372 78.0695ZM36.6058 80.8639L35.1579 82.9054C35.081 83.0189 34.9823 83.1159 34.8674 83.1906C34.7525 83.2654 34.6238 83.3164 34.4889 83.3407C34.354 83.365 34.2156 83.362 34.0818 83.332C33.948 83.302 33.8216 83.2456 33.71 83.166C33.5965 83.0891 33.4996 82.9904 33.4248 82.8755C33.3501 82.7606 33.299 82.6319 33.2747 82.497C33.2505 82.3621 33.2534 82.2237 33.2834 82.0899C33.3134 81.9562 33.3698 81.8298 33.4494 81.7181L34.8973 79.6766C35.0503 79.4559 35.2846 79.3049 35.5488 79.2567C35.8155 79.2139 36.0886 79.2705 36.3162 79.416C36.54 79.576 36.6914 79.818 36.7375 80.0892C36.7836 80.3605 36.7207 80.6389 36.5623 80.8639H36.6058ZM39.9649 84.6863L39.2699 85.6998C39.193 85.8133 39.0942 85.9103 38.9793 85.985C38.8644 86.0598 38.7357 86.1108 38.6008 86.1351C38.4659 86.1594 38.3275 86.1564 38.1938 86.1264C38.06 86.0964 37.9336 86.04 37.822 85.9604C37.6046 85.8042 37.4545 85.5714 37.4021 85.3089C37.3592 85.0422 37.4159 84.7691 37.5614 84.5415L38.2708 83.528C38.3624 83.3892 38.4872 83.2755 38.6338 83.1971C38.7805 83.1187 38.9443 83.0782 39.1106 83.0791C39.3142 83.0791 39.5124 83.1452 39.6753 83.2674C39.7884 83.3405 39.8853 83.436 39.96 83.5481C40.0347 83.6602 40.0857 83.7864 40.1096 83.9189C40.1304 84.0529 40.1245 84.1897 40.0922 84.3214C40.0599 84.4531 40.0019 84.5771 39.9214 84.6863H39.9649ZM39.5305 55.7287C40.8354 54.8582 42.3413 54.336 43.9049 54.2119C45.4686 54.0877 47.038 54.3656 48.4639 55.0193C53.5025 57.0752 57.5132 57.8281 60.4379 57.3214L66.2294 69.0058C64.6486 70.113 63.3007 71.52 62.2622 73.1467L53.5749 67.7027C54.8304 66.933 55.8948 65.8884 56.6879 64.6476L54.1686 63.1998C53.318 64.4196 52.1307 65.3654 50.7516 65.9218L42.3683 60.666C42.1978 60.5648 42.0082 60.4997 41.8115 60.4748C41.6147 60.4499 41.4149 60.4657 41.2245 60.5212C41.0358 60.5706 40.859 60.6576 40.7047 60.777C40.5505 60.8965 40.4219 61.0458 40.3268 61.2162C37.9957 65.3426 34.9986 65.9507 34.1444 66.0521C33.6524 66.1365 33.1464 66.0657 32.6965 65.8494C33.7711 61.8341 36.1623 58.2957 39.4871 55.8011L39.5305 55.7287ZM29.1637 58.6245C30.0499 59.175 30.9913 59.6311 31.9726 59.9855C30.8188 61.7887 30.0635 63.8175 29.7573 65.9363C29.7709 66.6332 30.027 67.3037 30.4815 67.8322C30.936 68.3607 31.5606 68.7143 32.2477 68.832C35.0566 69.5704 39.1396 68.0936 42.0209 63.9671L62.4215 76.7374C62.5735 76.8301 62.6996 76.9596 62.7882 77.114C62.8768 77.2684 62.925 77.4427 62.9282 77.6206C62.923 77.8081 62.8733 77.9917 62.7834 78.1564C62.7139 78.2772 62.6202 78.3824 62.5081 78.4654C62.396 78.5484 62.268 78.6074 62.1321 78.6386C61.9962 78.6699 61.8553 78.6728 61.7183 78.6471C61.5812 78.6214 61.4509 78.5677 61.3356 78.4894L53.9658 74.0444L52.518 76.5203C52.518 76.5203 57.1512 79.4305 57.1512 79.6332C57.1869 79.7644 57.1951 79.9017 57.1752 80.0363C57.1552 80.1708 57.1076 80.2998 57.0354 80.415C56.9671 80.5294 56.877 80.6292 56.7702 80.7087C56.6633 80.7882 56.5419 80.8458 56.4128 80.8784C56.1514 80.9356 55.8782 80.8944 55.6454 80.7625L50.3606 77.5772L48.9128 80.0531L52.0981 81.9643C52.2174 82.0353 52.321 82.1298 52.4028 82.242C52.4846 82.3542 52.5428 82.4818 52.5739 82.6171C52.605 82.7524 52.6084 82.8926 52.5839 83.0292C52.5593 83.1659 52.5074 83.2961 52.4311 83.4122C52.3629 83.5265 52.2727 83.6263 52.1659 83.7058C52.0591 83.7853 51.9376 83.8429 51.8085 83.8755C51.5472 83.9327 51.2739 83.8915 51.0411 83.7596L45.7564 80.5743L44.3085 83.0502L47.4794 84.9614C47.6287 85.0557 47.752 85.186 47.838 85.3403C47.924 85.4946 47.9699 85.668 47.9716 85.8446C47.9663 86.0275 47.9166 86.2064 47.8268 86.3658C47.757 86.4863 47.6634 86.5913 47.5518 86.6745C47.4402 86.7577 47.3128 86.8174 47.1774 86.8499C47.042 86.8824 46.9014 86.887 46.7642 86.8636C46.6269 86.8401 46.4959 86.789 46.379 86.7133L42.9909 84.6718C43.0633 84.2453 43.0633 83.8097 42.9909 83.3832C42.8516 82.5728 42.4555 81.8286 41.8612 81.2603C41.2668 80.692 40.5056 80.3297 39.6898 80.2268C39.6821 79.6895 39.5634 79.1596 39.341 78.6705C39.1186 78.1813 38.7974 77.7434 38.3976 77.3844C37.9978 77.0254 37.528 76.753 37.0178 76.5843C36.5076 76.4157 35.968 76.3544 35.433 76.4044C35.2858 75.8857 35.0322 75.4034 34.6882 74.9882C34.3443 74.573 33.9176 74.234 33.4354 73.9929C32.9531 73.7517 32.4259 73.6138 31.8874 73.5877C31.3488 73.5617 30.8108 73.6482 30.3075 73.8417C30.0063 73.2733 29.5685 72.7888 29.0335 72.4316C28.4986 72.0745 27.8832 71.8559 27.2428 71.7956C26.6024 71.7353 25.957 71.8351 25.3648 72.0861C24.7726 72.3372 24.252 72.7315 23.85 73.2336L21.6202 71.583L29.1637 58.6245Z" fill="#9F8555"/>
<path d="M70.6816 65.0117L73.1493 63.7958L74.4292 66.3933L71.9616 67.6092L70.6816 65.0117Z" fill="#9F8555"/>
<path d="M1.9434 38.7887L5.34591 39.918C5.12985 41.5645 5.02343 43.2236 5.02738 44.8842C5.02302 46.3944 5.11491 47.9032 5.30247 49.4016L8.19823 49.0541C8.02507 47.6707 7.93321 46.2784 7.92313 44.8842C7.92445 43.345 8.02116 41.8073 8.21271 40.28C8.30027 39.6109 8.15144 38.9323 7.79192 38.3613C7.4324 37.7903 6.88477 37.3628 6.2436 37.1526L2.84108 36.0377L5.53413 27.7703L8.93665 28.9576C9.58951 29.1622 10.2937 29.1291 10.9245 28.8641C11.5553 28.599 12.0718 28.1192 12.3826 27.5097C13.8502 24.8039 15.6658 22.3019 17.7832 20.0676C18.2566 19.5802 18.5436 18.9419 18.5939 18.2643C18.6442 17.5867 18.4546 16.913 18.0583 16.361L15.9589 13.4653L22.9811 8.36874L25.095 11.2645C25.4966 11.8073 26.0753 12.1926 26.731 12.3539C27.3867 12.5151 28.0781 12.4422 28.6857 12.1477C31.4449 10.8128 34.3647 9.83954 37.373 9.25195C38.0502 9.13165 38.6625 8.77421 39.1003 8.24362C39.538 7.71304 39.7726 7.04395 39.762 6.35619V2.89576H48.4493V6.47202C48.4387 7.15978 48.6732 7.82887 49.111 8.35945C49.5487 8.89004 50.161 9.24748 50.8383 9.36778C53.8712 9.94982 56.8157 10.9232 59.5979 12.2635C60.2071 12.5512 60.8974 12.6175 61.5502 12.451C62.203 12.2845 62.7772 11.8957 63.1742 11.3514L65.2736 8.45561L72.2958 13.5521L70.2109 16.4479C69.8051 16.9961 69.6058 17.6699 69.6482 18.3507C69.6906 19.0314 69.9719 19.6753 70.4425 20.169C72.5628 22.3703 74.3879 24.8379 75.8721 27.5097C76.1824 28.1161 76.6966 28.5937 77.3242 28.8585C77.9518 29.1233 78.6526 29.1584 79.3036 28.9576L82.7061 27.8572L85.3991 36.1101L81.9966 37.225C81.3527 37.4356 80.803 37.8653 80.4432 38.4394C80.0834 39.0135 79.9363 39.6955 80.0275 40.3669C80.2165 41.8653 80.3132 43.3739 80.3171 44.8842C80.3166 46.2778 80.2344 47.6702 80.0709 49.0541L82.9667 49.4016C83.1446 47.9026 83.2268 46.3937 83.2128 44.8842C83.2163 43.2188 83.1099 41.555 82.8943 39.9035L86.2968 38.7887C87.0261 38.5501 87.6309 38.0319 87.9784 37.3478C88.3259 36.6637 88.3876 35.8696 88.1501 35.14L85.457 26.8871C85.3407 26.5197 85.1522 26.1793 84.9026 25.8857C84.6531 25.5921 84.3474 25.3512 84.0035 25.1773C83.6597 25.0033 83.2846 24.8998 82.9002 24.8726C82.5158 24.8455 82.1298 24.8954 81.7649 25.0193L78.4059 26.0618C76.8279 23.1416 74.8815 20.4361 72.6144 18.0116L74.7138 15.1159C75.1282 14.5053 75.294 13.7595 75.1771 13.0309C75.1185 12.6541 74.9859 12.2925 74.7872 11.967C74.5884 11.6415 74.3273 11.3585 74.0188 11.1342L66.9966 6.02318C66.6889 5.79803 66.3397 5.63588 65.9691 5.54603C65.5986 5.45618 65.2139 5.4404 64.8372 5.49959C64.4605 5.55878 64.0993 5.69178 63.7741 5.89096C63.449 6.09014 63.1664 6.35157 62.9425 6.66024L60.8286 9.556C57.824 8.11015 54.6393 7.07295 51.3595 6.47202V2.89576C51.3595 2.12775 51.0544 1.39121 50.5114 0.848148C49.9683 0.305088 49.2317 0 48.4637 0H39.7765C39.0085 0 38.2719 0.305088 37.7289 0.848148C37.1858 1.39121 36.8807 2.12775 36.8807 2.89576V6.47202C33.597 7.07606 30.408 8.1131 27.3971 9.556L25.2977 6.67472C25.0764 6.36515 24.7962 6.10224 24.4733 5.901C24.1503 5.69977 23.7908 5.56416 23.4154 5.50194C23.037 5.44072 22.6501 5.45527 22.2773 5.54474C21.9044 5.63422 21.5531 5.79684 21.2436 6.02318L14.2214 11.1197C13.9129 11.344 13.6518 11.627 13.4531 11.9525C13.2543 12.278 13.1218 12.6396 13.0631 13.0164C13.0039 13.3926 13.0194 13.7768 13.1088 14.147C13.1983 14.5172 13.3599 14.8661 13.5843 15.1738L15.6693 18.0695C13.4026 20.4997 11.4563 23.2099 9.87777 26.1342L6.47526 25.0193C5.74563 24.7869 4.95364 24.8529 4.27256 25.2029C3.59149 25.553 3.07679 26.1585 2.84108 26.8871L0.148026 35.14C-0.0921619 35.8621 -0.0384591 36.6497 0.29752 37.3325C0.633498 38.0153 1.22475 38.5384 1.9434 38.7887Z" fill="#9F8555"/>
<path d="M75.9744 44.8846C75.9744 36.4366 72.6184 28.3345 66.6447 22.3609C60.6711 16.3872 52.569 13.0313 44.121 13.0312C35.673 13.0313 27.571 16.3872 21.5973 22.3609C15.6237 28.3345 12.2677 36.4366 12.2677 44.8846C12.2636 46.4057 12.3701 47.9252 12.5862 49.4309L15.482 49.0255C15.2802 47.6542 15.1738 46.2706 15.1634 44.8846C15.1634 37.2046 18.2143 29.8391 23.6449 24.4085C29.0755 18.9779 36.441 15.927 44.121 15.927C51.801 15.927 59.1665 18.9779 64.5971 24.4085C70.0277 29.8391 73.0786 37.2046 73.0786 44.8846C73.0778 46.2699 72.9811 47.6536 72.789 49.0255L75.6848 49.4309C75.8912 47.9245 75.988 46.405 75.9744 44.8846Z" fill="#9F8555"/>
<path d="M36.8806 40.5402V34.7487C36.8806 34.3647 36.7281 33.9964 36.4566 33.7249C36.185 33.4533 35.8168 33.3008 35.4328 33.3008H29.6412C29.2572 33.3008 28.889 33.4533 28.6174 33.7249C28.3459 33.9964 28.1934 34.3647 28.1934 34.7487V40.5402H31.0891V36.1965H33.9849V40.5402H36.8806Z" fill="#9F8555"/>
<path d="M48.4646 40.541V30.4059C48.4646 30.0219 48.3121 29.6536 48.0405 29.3821C47.769 29.1106 47.4007 28.958 47.0167 28.958H41.2252C40.8412 28.958 40.4729 29.1106 40.2014 29.3821C39.9299 29.6536 39.7773 30.0219 39.7773 30.4059V40.541H42.6731V31.8538H45.5689V40.541H48.4646Z" fill="#9F8555"/>
<path d="M60.0466 40.5409V26.0621C60.0466 25.6781 59.8941 25.3099 59.6226 25.0383C59.351 24.7668 58.9828 24.6143 58.5988 24.6143H52.8073C52.4233 24.6143 52.055 24.7668 51.7834 25.0383C51.5119 25.3099 51.3594 25.6781 51.3594 26.0621V40.5409H54.2551V27.51H57.1509V40.5409H60.0466Z" fill="#9F8555"/>
<path d="M25.2969 43.4365H62.9417V46.3323H25.2969V43.4365Z" fill="#9F8555"/>
</svg>
