<svg width="308" height="342" viewBox="0 0 308 342" fill="none" xmlns="http://www.w3.org/2000/svg">
<g clip-path="url(#clip0_2098_1164)">
<mask id="mask0_2098_1164" style="mask-type:luminance" maskUnits="userSpaceOnUse" x="-579" y="-338" width="1440" height="2042">
<path d="M-579 -337.105L861 -337.105L861 1703.16L-579 1703.16L-579 -337.105Z" fill="white"/>
</mask>
<g mask="url(#mask0_2098_1164)">
<mask id="mask1_2098_1164" style="mask-type:luminance" maskUnits="userSpaceOnUse" x="-577" y="-335" width="1436" height="2036">
<path d="M-576.575 -334.691L858.59 -334.691L858.59 1700.74L-576.575 1700.74L-576.575 -334.691Z" fill="white"/>
</mask>
<g mask="url(#mask1_2098_1164)">
</g>
<path d="M43.8867 368.232L23.3627 322.396L-0.206188 322.396L20.3178 368.232L43.8867 368.232Z" stroke="#B7BFB1" stroke-width="2.34748" stroke-linecap="round" stroke-linejoin="round"/>
<path d="M-44.3047 368.232L-23.7759 322.396L-0.207031 322.396L-20.7311 368.232L-44.3047 368.232Z" stroke="#B7BFB1" stroke-width="2.34748" stroke-linecap="round" stroke-linejoin="round"/>
<path d="M132.098 368.232L111.574 322.396L88.0047 322.396L108.529 368.232L132.098 368.232Z" stroke="#B7BFB1" stroke-width="2.34748" stroke-linecap="round" stroke-linejoin="round"/>
<path d="M43.9062 368.232L64.435 322.396L88.0039 322.396L67.4799 368.232L43.9062 368.232Z" stroke="#B7BFB1" stroke-width="2.34748" stroke-linecap="round" stroke-linejoin="round"/>
<path d="M220.305 368.232L199.781 322.396L176.212 322.396L196.736 368.232L220.305 368.232Z" stroke="#B7BFB1" stroke-width="2.34748" stroke-linecap="round" stroke-linejoin="round"/>
<path d="M132.117 368.232L152.646 322.396L176.215 322.396L155.691 368.232L132.117 368.232Z" stroke="#B7BFB1" stroke-width="2.34748" stroke-linecap="round" stroke-linejoin="round"/>
<path d="M308.516 368.232L287.992 322.396L264.423 322.396L284.947 368.232L308.516 368.232Z" stroke="#B7BFB1" stroke-width="2.34748" stroke-linecap="round" stroke-linejoin="round"/>
<path d="M220.324 368.232L240.853 322.396L264.422 322.396L243.893 368.232L220.324 368.232Z" stroke="#B7BFB1" stroke-width="2.34748" stroke-linecap="round" stroke-linejoin="round"/>
<path d="M308.535 368.232L329.064 322.396L352.633 322.396L332.104 368.232L308.535 368.232Z" stroke="#B7BFB1" stroke-width="2.34748" stroke-linecap="round" stroke-linejoin="round"/>
<mask id="mask2_2098_1164" style="mask-type:luminance" maskUnits="userSpaceOnUse" x="-577" y="-335" width="1436" height="2036">
<path d="M-576.575 -334.691L858.59 -334.691L858.59 1700.74L-576.575 1700.74L-576.575 -334.691Z" fill="white"/>
</mask>
<g mask="url(#mask2_2098_1164)">
</g>
<path d="M-44.2999 276.541L-23.7759 322.377L-0.207027 322.377L-20.7311 276.541L-44.2999 276.541Z" stroke="#B7BFB1" stroke-width="2.34748" stroke-linecap="round" stroke-linejoin="round"/>
<path d="M-44.2999 276.543L-23.7759 230.707L-0.207031 230.707L-20.7311 276.543L-44.2999 276.543Z" stroke="#B7BFB1" stroke-width="2.34748" stroke-linecap="round" stroke-linejoin="round"/>
<path d="M43.8906 276.541L23.3618 322.377L-0.20707 322.377L20.317 276.541L43.8906 276.541Z" stroke="#B7BFB1" stroke-width="2.34748" stroke-linecap="round" stroke-linejoin="round"/>
<path d="M43.8906 276.543L23.3618 230.707L-0.207074 230.707L20.317 276.543L43.8906 276.543Z" stroke="#B7BFB1" stroke-width="2.34748" stroke-linecap="round" stroke-linejoin="round"/>
<path d="M43.9071 276.541L64.4359 322.377L88 322.377L67.4808 276.541L43.9071 276.541Z" stroke="#B7BFB1" stroke-width="2.34748" stroke-linecap="round" stroke-linejoin="round"/>
<path d="M43.9071 276.543L64.4359 230.707L88 230.707L67.4808 276.543L43.9071 276.543Z" stroke="#B7BFB1" stroke-width="2.34748" stroke-linecap="round" stroke-linejoin="round"/>
<path d="M132.098 276.541L111.574 322.377L88.0048 322.377L108.529 276.541L132.098 276.541Z" stroke="#B7BFB1" stroke-width="2.34748" stroke-linecap="round" stroke-linejoin="round"/>
<path d="M132.098 276.543L111.574 230.707L88.0047 230.707L108.529 276.543L132.098 276.543Z" stroke="#B7BFB1" stroke-width="2.34748" stroke-linecap="round" stroke-linejoin="round"/>
<path d="M132.117 276.541L152.646 322.377L176.215 322.377L155.691 276.541L132.117 276.541Z" stroke="#B7BFB1" stroke-width="2.34748" stroke-linecap="round" stroke-linejoin="round"/>
<path d="M132.113 276.543L152.642 230.707L176.211 230.707L155.687 276.543L132.113 276.543Z" stroke="#B7BFB1" stroke-width="2.34748" stroke-linecap="round" stroke-linejoin="round"/>
<path d="M220.305 276.541L199.781 322.377L176.212 322.377L196.736 276.541L220.305 276.541Z" stroke="#B7BFB1" stroke-width="2.34748" stroke-linecap="round" stroke-linejoin="round"/>
<path d="M220.305 276.543L199.781 230.707L176.212 230.707L196.736 276.543L220.305 276.543Z" stroke="#B7BFB1" stroke-width="2.34748" stroke-linecap="round" stroke-linejoin="round"/>
<path d="M220.324 276.541L240.853 322.377L264.422 322.377L243.898 276.541L220.324 276.541Z" stroke="#B7BFB1" stroke-width="2.34748" stroke-linecap="round" stroke-linejoin="round"/>
<path d="M220.324 276.543L240.853 230.707L264.422 230.707L243.898 276.543L220.324 276.543Z" stroke="#B7BFB1" stroke-width="2.34748" stroke-linecap="round" stroke-linejoin="round"/>
<path d="M308.516 276.541L287.992 322.377L264.423 322.377L284.947 276.541L308.516 276.541Z" stroke="#B7BFB1" stroke-width="2.34748" stroke-linecap="round" stroke-linejoin="round"/>
<path d="M308.516 276.543L287.992 230.707L264.423 230.707L284.947 276.543L308.516 276.543Z" stroke="#B7BFB1" stroke-width="2.34748" stroke-linecap="round" stroke-linejoin="round"/>
<path d="M308.536 276.541L329.065 322.377L352.629 322.377L332.105 276.541L308.536 276.541Z" stroke="#B7BFB1" stroke-width="2.34748" stroke-linecap="round" stroke-linejoin="round"/>
<path d="M308.532 276.543L329.061 230.707L352.625 230.707L332.101 276.543L308.532 276.543Z" stroke="#B7BFB1" stroke-width="2.34748" stroke-linecap="round" stroke-linejoin="round"/>
<mask id="mask3_2098_1164" style="mask-type:luminance" maskUnits="userSpaceOnUse" x="-577" y="-335" width="1436" height="2036">
<path d="M-576.575 -334.691L858.59 -334.691L858.59 1700.74L-576.575 1700.74L-576.575 -334.691Z" fill="white"/>
</mask>
<g mask="url(#mask3_2098_1164)">
</g>
<path d="M43.8867 184.852L23.3627 230.687L-0.206184 230.687L20.3178 184.852L43.8867 184.852Z" stroke="#B7BFB1" stroke-width="2.34748" stroke-linecap="round" stroke-linejoin="round"/>
<path d="M43.8867 184.853L23.3627 139.018L-0.206188 139.018L20.3178 184.853L43.8867 184.853Z" stroke="#B7BFB1" stroke-width="2.34748" stroke-linecap="round" stroke-linejoin="round"/>
<path d="M-44.3047 184.852L-23.7759 230.687L-0.207027 230.687L-20.7311 184.852L-44.3047 184.852Z" stroke="#B7BFB1" stroke-width="2.34748" stroke-linecap="round" stroke-linejoin="round"/>
<path d="M-44.3047 184.853L-23.7759 139.018L-0.207031 139.018L-20.7311 184.853L-44.3047 184.853Z" stroke="#B7BFB1" stroke-width="2.34748" stroke-linecap="round" stroke-linejoin="round"/>
<path d="M132.098 184.852L111.574 230.687L88.0048 230.687L108.529 184.852L132.098 184.852Z" stroke="#B7BFB1" stroke-width="2.34748" stroke-linecap="round" stroke-linejoin="round"/>
<path d="M132.098 184.853L111.574 139.018L88.0047 139.018L108.529 184.853L132.098 184.853Z" stroke="#B7BFB1" stroke-width="2.34748" stroke-linecap="round" stroke-linejoin="round"/>
<path d="M43.9062 184.852L64.435 230.687L88.0039 230.687L67.4799 184.852L43.9062 184.852Z" stroke="#B7BFB1" stroke-width="2.34748" stroke-linecap="round" stroke-linejoin="round"/>
<path d="M43.9062 184.853L64.435 139.018L88.0039 139.018L67.4799 184.853L43.9062 184.853Z" stroke="#B7BFB1" stroke-width="2.34748" stroke-linecap="round" stroke-linejoin="round"/>
<path d="M220.305 184.852L199.781 230.687L176.212 230.687L196.736 184.852L220.305 184.852Z" stroke="#B7BFB1" stroke-width="2.34748" stroke-linecap="round" stroke-linejoin="round"/>
<path d="M220.305 184.853L199.781 139.018L176.212 139.018L196.736 184.853L220.305 184.853Z" stroke="#B7BFB1" stroke-width="2.34748" stroke-linecap="round" stroke-linejoin="round"/>
<path d="M132.117 184.852L152.646 230.687L176.215 230.687L155.691 184.852L132.117 184.852Z" stroke="#B7BFB1" stroke-width="2.34748" stroke-linecap="round" stroke-linejoin="round"/>
<path d="M132.117 184.853L152.646 139.018L176.215 139.018L155.691 184.853L132.117 184.853Z" stroke="#B7BFB1" stroke-width="2.34748" stroke-linecap="round" stroke-linejoin="round"/>
<path d="M308.516 184.852L287.992 230.687L264.423 230.687L284.947 184.852L308.516 184.852Z" stroke="#B7BFB1" stroke-width="2.34748" stroke-linecap="round" stroke-linejoin="round"/>
<path d="M308.516 184.853L287.992 139.018L264.423 139.018L284.947 184.853L308.516 184.853Z" stroke="#B7BFB1" stroke-width="2.34748" stroke-linecap="round" stroke-linejoin="round"/>
<path d="M220.324 184.852L240.853 230.687L264.422 230.687L243.893 184.852L220.324 184.852Z" stroke="#B7BFB1" stroke-width="2.34748" stroke-linecap="round" stroke-linejoin="round"/>
<path d="M220.324 184.853L240.853 139.018L264.422 139.018L243.893 184.853L220.324 184.853Z" stroke="#B7BFB1" stroke-width="2.34748" stroke-linecap="round" stroke-linejoin="round"/>
<path d="M308.535 184.852L329.064 230.687L352.633 230.687L332.104 184.852L308.535 184.852Z" stroke="#B7BFB1" stroke-width="2.34748" stroke-linecap="round" stroke-linejoin="round"/>
<path d="M308.535 184.853L329.064 139.018L352.633 139.018L332.104 184.853L308.535 184.853Z" stroke="#B7BFB1" stroke-width="2.34748" stroke-linecap="round" stroke-linejoin="round"/>
<mask id="mask4_2098_1164" style="mask-type:luminance" maskUnits="userSpaceOnUse" x="-577" y="-335" width="1436" height="2036">
<path d="M-576.575 -334.691L858.59 -334.691L858.59 1700.74L-576.575 1700.74L-576.575 -334.691Z" fill="white"/>
</mask>
<g mask="url(#mask4_2098_1164)">
</g>
<path d="M-44.2999 93.1621L-23.7759 138.998L-0.207027 138.998L-20.7311 93.1621L-44.2999 93.1621Z" stroke="#B7BFB1" stroke-width="2.34748" stroke-linecap="round" stroke-linejoin="round"/>
<path d="M-44.2999 93.1609L-23.7759 47.3301L-0.207031 47.3301L-20.7311 93.1609L-44.2999 93.1609Z" stroke="#B7BFB1" stroke-width="2.34748" stroke-linecap="round" stroke-linejoin="round"/>
<path d="M43.8906 93.1621L23.3618 138.998L-0.20707 138.998L20.317 93.1621L43.8906 93.1621Z" stroke="#B7BFB1" stroke-width="2.34748" stroke-linecap="round" stroke-linejoin="round"/>
<path d="M43.8906 93.1609L23.3618 47.3301L-0.207074 47.3301L20.317 93.1609L43.8906 93.1609Z" stroke="#B7BFB1" stroke-width="2.34748" stroke-linecap="round" stroke-linejoin="round"/>
<path d="M43.9071 93.1621L64.4359 138.998L88 138.998L67.4808 93.1621L43.9071 93.1621Z" stroke="#B7BFB1" stroke-width="2.34748" stroke-linecap="round" stroke-linejoin="round"/>
<path d="M43.9071 93.1609L64.4359 47.3301L88 47.3301L67.4808 93.1609L43.9071 93.1609Z" stroke="#B7BFB1" stroke-width="2.34748" stroke-linecap="round" stroke-linejoin="round"/>
<path d="M132.098 93.1621L111.574 138.998L88.0048 138.998L108.529 93.1621L132.098 93.1621Z" stroke="#B7BFB1" stroke-width="2.34748" stroke-linecap="round" stroke-linejoin="round"/>
<path d="M132.098 93.1609L111.574 47.3301L88.0047 47.3301L108.529 93.1609L132.098 93.1609Z" stroke="#B7BFB1" stroke-width="2.34748" stroke-linecap="round" stroke-linejoin="round"/>
<path d="M132.117 93.1621L152.646 138.998L176.215 138.998L155.691 93.1621L132.117 93.1621Z" stroke="#B7BFB1" stroke-width="2.34748" stroke-linecap="round" stroke-linejoin="round"/>
<path d="M132.117 93.1609L152.646 47.3301L176.215 47.3301L155.691 93.1609L132.117 93.1609Z" stroke="#B7BFB1" stroke-width="2.34748" stroke-linecap="round" stroke-linejoin="round"/>
<path d="M220.305 93.1621L199.781 138.998L176.212 138.998L196.736 93.1621L220.305 93.1621Z" stroke="#B7BFB1" stroke-width="2.34748" stroke-linecap="round" stroke-linejoin="round"/>
<path d="M220.305 93.1609L199.781 47.3301L176.212 47.3301L196.736 93.1609L220.305 93.1609Z" stroke="#B7BFB1" stroke-width="2.34748" stroke-linecap="round" stroke-linejoin="round"/>
<path d="M220.324 93.1621L240.853 138.998L264.422 138.998L243.898 93.1621L220.324 93.1621Z" stroke="#B7BFB1" stroke-width="2.34748" stroke-linecap="round" stroke-linejoin="round"/>
<path d="M220.324 93.1609L240.853 47.3301L264.422 47.3301L243.898 93.1609L220.324 93.1609Z" stroke="#B7BFB1" stroke-width="2.34748" stroke-linecap="round" stroke-linejoin="round"/>
<path d="M308.516 93.1621L287.992 138.998L264.423 138.998L284.947 93.1621L308.516 93.1621Z" stroke="#B7BFB1" stroke-width="2.34748" stroke-linecap="round" stroke-linejoin="round"/>
<path d="M308.516 93.1609L287.992 47.3301L264.423 47.3301L284.947 93.1609L308.516 93.1609Z" stroke="#B7BFB1" stroke-width="2.34748" stroke-linecap="round" stroke-linejoin="round"/>
<path d="M308.536 93.1621L329.065 138.998L352.629 138.998L332.105 93.1621L308.536 93.1621Z" stroke="#B7BFB1" stroke-width="2.34748" stroke-linecap="round" stroke-linejoin="round"/>
<path d="M308.536 93.1609L329.065 47.3301L352.629 47.3301L332.105 93.1609L308.536 93.1609Z" stroke="#B7BFB1" stroke-width="2.34748" stroke-linecap="round" stroke-linejoin="round"/>
<mask id="mask5_2098_1164" style="mask-type:luminance" maskUnits="userSpaceOnUse" x="-577" y="-335" width="1436" height="2036">
<path d="M-576.575 -334.691L858.59 -334.691L858.59 1700.74L-576.575 1700.74L-576.575 -334.691Z" fill="white"/>
</mask>
<g mask="url(#mask5_2098_1164)">
</g>
<path d="M43.8906 1.47656L23.3666 47.3074L-0.202277 47.3074L20.3217 1.47656L43.8906 1.47656Z" stroke="#B7BFB1" stroke-width="2.34748" stroke-linecap="round" stroke-linejoin="round"/>
<path d="M43.8906 1.47619L23.3666 -44.3594L-0.202281 -44.3594L20.3218 1.47619L43.8906 1.47619Z" stroke="#B7BFB1" stroke-width="2.34748" stroke-linecap="round" stroke-linejoin="round"/>
<path d="M-44.3008 1.47657L-23.772 47.3074L-0.203121 47.3074L-20.7272 1.47656L-44.3008 1.47657Z" stroke="#B7BFB1" stroke-width="2.34748" stroke-linecap="round" stroke-linejoin="round"/>
<path d="M-44.3008 1.4762L-23.772 -44.3594L-0.203125 -44.3594L-20.7272 1.47619L-44.3008 1.4762Z" stroke="#B7BFB1" stroke-width="2.34748" stroke-linecap="round" stroke-linejoin="round"/>
<path d="M132.098 1.47656L111.574 47.3074L88.0048 47.3074L108.529 1.47656L132.098 1.47656Z" stroke="#B7BFB1" stroke-width="2.34748" stroke-linecap="round" stroke-linejoin="round"/>
<path d="M132.098 1.47619L111.574 -44.3594L88.0047 -44.3594L108.529 1.47619L132.098 1.47619Z" stroke="#B7BFB1" stroke-width="2.34748" stroke-linecap="round" stroke-linejoin="round"/>
<path d="M43.9062 1.47657L64.435 47.3074L88.0039 47.3074L67.4799 1.47656L43.9062 1.47657Z" stroke="#B7BFB1" stroke-width="2.34748" stroke-linecap="round" stroke-linejoin="round"/>
<path d="M43.9062 1.4762L64.435 -44.3594L88.0039 -44.3594L67.4799 1.47619L43.9062 1.4762Z" stroke="#B7BFB1" stroke-width="2.34748" stroke-linecap="round" stroke-linejoin="round"/>
<path d="M220.309 1.47656L199.785 47.3074L176.216 47.3074L196.74 1.47656L220.309 1.47656Z" stroke="#B7BFB1" stroke-width="2.34748" stroke-linecap="round" stroke-linejoin="round"/>
<path d="M220.309 1.47619L199.785 -44.3594L176.216 -44.3594L196.74 1.47619L220.309 1.47619Z" stroke="#B7BFB1" stroke-width="2.34748" stroke-linecap="round" stroke-linejoin="round"/>
<path d="M132.117 1.47657L152.646 47.3074L176.215 47.3074L155.691 1.47656L132.117 1.47657Z" stroke="#B7BFB1" stroke-width="2.34748" stroke-linecap="round" stroke-linejoin="round"/>
<path d="M132.117 1.4762L152.646 -44.3594L176.215 -44.3594L155.691 1.47619L132.117 1.4762Z" stroke="#B7BFB1" stroke-width="2.34748" stroke-linecap="round" stroke-linejoin="round"/>
<path d="M308.52 1.47656L287.996 47.3074L264.427 47.3074L284.951 1.47656L308.52 1.47656Z" stroke="#B7BFB1" stroke-width="2.34748" stroke-linecap="round" stroke-linejoin="round"/>
<path d="M308.52 1.47619L287.996 -44.3594L264.427 -44.3594L284.951 1.47619L308.52 1.47619Z" stroke="#B7BFB1" stroke-width="2.34748" stroke-linecap="round" stroke-linejoin="round"/>
<path d="M220.328 1.47657L240.857 47.3074L264.426 47.3074L243.897 1.47656L220.328 1.47657Z" stroke="#B7BFB1" stroke-width="2.34748" stroke-linecap="round" stroke-linejoin="round"/>
<path d="M220.328 1.4762L240.857 -44.3594L264.426 -44.3594L243.897 1.47619L220.328 1.4762Z" stroke="#B7BFB1" stroke-width="2.34748" stroke-linecap="round" stroke-linejoin="round"/>
<path d="M308.535 1.47657L329.064 47.3074L352.633 47.3074L332.104 1.47656L308.535 1.47657Z" stroke="#B7BFB1" stroke-width="2.34748" stroke-linecap="round" stroke-linejoin="round"/>
<path d="M308.535 1.4762L329.064 -44.3594L352.633 -44.3594L332.104 1.47619L308.535 1.4762Z" stroke="#B7BFB1" stroke-width="2.34748" stroke-linecap="round" stroke-linejoin="round"/>
<mask id="mask6_2098_1164" style="mask-type:luminance" maskUnits="userSpaceOnUse" x="-577" y="-335" width="1436" height="2036">
<path d="M-576.575 -334.691L858.59 -334.691L858.59 1700.74L-576.575 1700.74L-576.575 -334.691Z" fill="white"/>
</mask>
<g mask="url(#mask6_2098_1164)">
</g>
</g>
</g>
<defs>
<clipPath id="clip0_2098_1164">
<rect width="308" height="341.455" fill="white" transform="matrix(-1 8.74228e-08 8.74228e-08 1 308 0.517578)"/>
</clipPath>
</defs>
</svg>
