<svg width="16" height="16" viewBox="0 0 16 16" fill="none" xmlns="http://www.w3.org/2000/svg">
<path fill-rule="evenodd" clip-rule="evenodd" d="M13.7824 14.7042C12.6872 15.5 11.1248 15.5 8 15.5C4.87522 15.5 3.31284 15.5 2.21756 14.7042C1.86383 14.4472 1.55276 14.1362 1.29576 13.7824C0.5 12.6872 0.5 11.1248 0.5 8C0.5 4.87522 0.500001 3.31284 1.29576 2.21756C1.55276 1.86383 1.86383 1.55276 2.21756 1.29576C3.31284 0.499999 4.87522 0.5 8 0.5C11.1248 0.5 12.6872 0.5 13.7824 1.29576C14.1362 1.55276 14.4472 1.86383 14.7042 2.21756C15.5 3.31284 15.5 4.87522 15.5 8C15.5 11.1248 15.5 12.6872 14.7042 13.7824C14.4472 14.1362 14.1362 14.4472 13.7824 14.7042ZM10.8894 8.2267C11.1324 7.98154 11.5281 7.97977 11.7733 8.22276C12.0185 8.46574 12.0202 8.86147 11.7772 9.10663L10.587 10.3076C10.1441 10.7544 9.77482 11.1271 9.44397 11.3928C9.09695 11.6714 8.73224 11.8834 8.28791 11.9401C8.19233 11.9522 8.09616 11.9583 8 11.9583C7.90383 11.9583 7.80767 11.9522 7.71209 11.9401C7.26776 11.8834 6.90306 11.6714 6.55604 11.3928C6.22518 11.1271 5.85586 10.7544 5.41304 10.3076L4.22276 9.10663C3.97977 8.86147 3.98154 8.46574 4.2267 8.22276C4.47187 7.97977 4.86759 7.98154 5.11058 8.2267L6.27545 9.40201C6.75028 9.8811 7.06989 10.2022 7.33874 10.4181C7.35107 10.428 7.36315 10.4376 7.375 10.4468L7.375 4.66667C7.375 4.32149 7.65482 4.04167 8 4.04167C8.34518 4.04167 8.625 4.32149 8.625 4.66667L8.625 10.4468C8.63685 10.4376 8.64893 10.428 8.66126 10.4181C8.93012 10.2022 9.24973 9.8811 9.72455 9.40201L10.8894 8.2267Z" fill="#5A4427"/>
</svg>
