<svg width="1372" height="527" viewBox="0 0 1372 527" fill="none" xmlns="http://www.w3.org/2000/svg">
<path fill-rule="evenodd" clip-rule="evenodd" d="M166.022 199.329V264.808C165.614 264.888 165.206 264.987 164.811 265.118C161.582 266.189 158.975 269.082 156.428 269.584C153.881 270.087 151.395 268.199 149.469 267.635C147.544 267.067 146.18 267.823 144.812 268.199C143.448 268.579 142.079 268.579 141.397 269.016C140.715 269.458 140.715 270.34 142.019 271.158C143.322 271.975 145.93 272.726 145.995 273.041C146.055 273.355 143.573 273.229 140.84 273.797C138.108 274.36 135.125 275.619 133.821 275.619C132.518 275.619 132.889 274.36 130.527 273.985C128.166 273.609 123.077 274.111 119.287 275.746C115.496 277.38 113.014 280.146 109.971 281.278C106.928 282.41 103.323 281.907 99.0411 284.485C94.7544 287.064 89.7858 292.723 86.1208 295.677C82.4558 298.63 80.0945 298.884 78.6656 299.889C77.2414 300.894 76.7403 302.655 75.8125 305.106C74.88 307.558 73.5114 310.7 72.2078 312.527C70.9042 314.349 69.6609 314.851 68.6681 315.983C67.6753 317.115 66.9283 318.876 65.8103 319.252C64.6922 319.632 63.2031 318.622 61.8994 318.876C60.5958 319.125 59.4759 320.637 59.7241 322.083C59.9742 323.53 61.5886 324.91 63.1381 325.098C64.6923 325.286 66.1861 324.281 67.4897 323.966C68.7933 323.652 69.9114 324.032 69.415 325.728C68.9186 327.428 66.8031 330.443 64.7572 331.889C62.7066 333.335 60.7164 333.209 58.9169 333.777C57.1155 334.34 55.501 335.599 55.0659 337.106C54.6312 338.619 55.3767 340.38 54.5073 342.324C53.6379 344.273 51.1531 346.414 50.4702 348.424C49.7873 350.439 50.9049 352.322 49.3522 355.088C47.7994 357.854 43.5764 361.503 40.7191 365.148C37.8622 368.797 36.3716 372.441 33.2661 377.851C30.1606 383.256 25.4403 390.423 22.9564 393.001C20.4721 395.579 20.223 393.564 22.5213 388.6C24.8191 383.632 29.6638 375.709 32.5211 370.05C35.3779 364.396 36.2473 361.001 38.2348 358.23C40.2222 355.469 43.3282 353.327 45.5016 350.247C47.6751 347.166 48.9179 343.141 48.0481 341.634C47.1787 340.126 44.1971 341.131 41.1538 343.897C38.1109 346.663 35.0049 351.19 32.8936 353.393C30.7823 355.591 29.6638 355.469 28.1732 356.723C26.6826 357.981 24.8191 360.62 22.9564 361.63C21.0928 362.635 19.2297 362.006 17.3666 362.696C15.5035 363.387 13.6399 365.401 12.584 365.904C11.5281 366.406 11.2799 365.401 12.1493 364.082C13.0187 362.757 15.0066 361.123 16.062 359.428C17.1179 357.728 17.2422 355.971 18.6085 353.078C19.9747 350.185 22.5834 346.161 23.4528 344.465C24.3226 342.765 23.4528 343.395 21.4658 345.658C19.4784 347.922 16.3724 351.82 13.3291 355.154C10.2862 358.484 7.30458 361.25 5.50363 362.255C3.70269 363.264 3.08148 362.508 3.20581 361.315C3.32968 360.118 4.19956 358.484 6.31133 356.347C8.42264 354.21 11.7768 351.566 14.2611 348.739C16.7449 345.912 18.3603 342.892 18.2982 341.507C18.2355 340.126 16.4967 340.38 13.8259 342.324C11.1556 344.273 7.55322 347.922 4.75855 350.247C1.96342 352.576 -0.0239967 353.581 0.1625 353.013C0.348997 352.449 2.70851 350.312 3.5162 348.866C4.32389 347.419 3.57836 346.663 4.01306 344.902C4.44822 343.141 6.06265 340.375 8.48479 336.98C10.9069 333.589 14.1368 329.564 16.6211 325.601C19.1054 321.642 20.8446 317.744 22.6456 315.039C24.4465 312.339 26.3101 310.826 29.2296 308.436C32.1486 306.05 36.123 302.782 44.9426 295.235C53.7618 287.693 67.4247 275.873 76.68 267.95C85.9352 260.027 90.7786 256.003 93.5714 253.049C96.3689 250.095 97.1158 248.207 100.994 244.37C104.877 240.538 111.896 234.753 116.679 230.728C121.458 226.708 124.005 224.444 126.584 223.092C129.159 221.739 131.771 221.298 134.378 219.725C136.985 218.156 139.597 215.451 144.097 212.497C148.602 209.543 154.999 206.336 160.121 203.194C162.274 201.874 164.199 200.564 166.022 199.329ZM166.022 181.23C165.855 181.286 165.688 181.357 165.526 181.436C163.754 182.319 162.204 184.71 159.592 186.532C156.985 188.354 153.32 189.612 150.184 191.402C147.048 193.196 144.441 195.52 141.49 197.629C138.539 199.733 135.25 201.621 132.949 203.537C130.653 205.457 129.349 207.406 128.695 208.754C128.046 210.107 128.046 210.863 128.635 210.924C129.224 210.99 130.402 210.36 129.938 210.99C129.47 211.619 127.359 213.502 126.12 215.01C124.877 216.522 124.501 217.654 125.002 217.874C125.499 218.09 126.863 217.4 128.449 216.08C130.031 214.761 131.831 212.812 134.782 210.487C137.732 208.158 141.833 205.458 144.473 203.509C147.113 201.56 148.291 200.362 149.098 199.296C149.906 198.225 150.342 197.281 151.798 197.033C153.26 196.779 155.742 197.22 158.725 196.215C161.049 195.431 163.67 193.769 166.022 192.421V181.23ZM166.022 164.366V178.327C164.519 179.586 163.076 180.812 161.49 181.812C158.604 183.639 155.25 184.705 151.506 186.386C147.762 188.072 143.633 190.364 140.868 192.407C138.108 194.45 136.707 196.244 135.575 197.028C134.443 197.817 133.571 197.596 134.318 196.605C135.065 195.614 137.421 193.853 138.512 192.454C139.597 191.054 139.412 190.021 139.597 189.232C139.783 188.448 140.344 187.912 143.077 185.508C145.809 183.104 150.713 178.83 154.16 176.735C157.607 174.646 159.597 174.74 161.132 174.162C162.668 173.58 163.758 172.321 163.851 170.875C163.944 169.428 163.044 167.794 165.002 165.436C165.285 165.093 165.633 164.732 166.022 164.366ZM166.022 178.327C167.261 177.294 168.537 176.242 169.97 175.275C173.134 173.138 177.05 171.443 180.9 168.785C184.751 166.127 188.541 162.511 191.737 159.838C194.934 157.166 197.546 155.438 197.949 154.621C198.353 153.804 196.548 153.898 194.874 154.748C193.199 155.598 191.645 157.199 190.248 157.5C188.847 157.796 187.609 156.791 185.994 156.823C184.38 156.852 182.389 157.922 181.707 159.289C181.021 160.656 181.642 162.323 180.696 163.487C179.75 164.652 177.235 165.31 174.967 166.207C172.703 167.103 170.68 168.235 169.799 167.902C168.912 167.573 169.163 165.784 170.745 163.849C172.327 161.914 175.25 159.838 176.957 158.298C178.664 156.758 179.16 155.753 178.896 155.612C178.632 155.471 177.606 156.194 174.688 158.096C172.197 159.721 168.319 162.205 166.022 164.366V178.327ZM205.386 155.33V158.768C205.006 159.129 204.667 159.482 204.467 159.796C203.962 160.595 204.342 161.177 205.386 161.252V286.744C204.959 286.679 204.519 286.613 204.064 286.561C199.967 286.059 194.748 286.181 192.076 285.115C189.409 284.044 189.283 281.78 187.669 280.588C186.054 279.39 182.946 279.268 180.71 276.939C178.474 274.614 177.11 270.087 174.503 267.448C172.211 265.128 168.968 264.263 166.022 264.808V199.329C168.546 197.624 170.87 196.056 173.32 194.797C177.541 192.627 182.139 191.374 185.771 189.077C189.409 186.781 192.076 183.451 194.219 181.69C196.363 179.929 197.977 179.741 198.97 179.332C199.963 178.924 200.339 178.295 199.466 177.759C198.599 177.224 196.488 176.787 194.252 177.257C192.016 177.726 189.654 179.112 186.393 181.281C183.132 183.451 178.97 186.405 175.867 188.039C172.763 189.674 170.712 189.988 167.948 191.374C167.335 191.679 166.69 192.036 166.022 192.421V181.23C167.674 180.661 169.562 181.094 172.281 180.197C175.277 179.206 179.281 176.599 182.092 174.617C184.904 172.636 186.518 171.283 188.49 170.532C190.462 169.776 192.791 169.621 194.001 169.067C195.212 168.517 195.305 167.573 194.669 167.089C194.034 166.601 192.665 166.568 191.969 166.272C191.269 165.972 191.236 165.408 192.201 164.746C193.162 164.084 195.119 163.332 197.448 161.679C199.777 160.031 202.482 157.486 204.314 156.086C204.709 155.781 205.066 155.532 205.386 155.33ZM205.386 146.9C203.173 147.699 200.394 147.769 198.209 148.384C195.973 149.014 194.359 150.206 195.259 150.427C196.159 150.648 199.573 149.897 202.245 149.488C203.387 149.31 204.393 149.197 205.386 149.028V146.9ZM205.386 138.142V142.087C203.818 142.65 202.25 143.082 200.742 143.73C198.474 144.707 196.33 146.168 194.725 146.68C193.115 147.192 192.044 146.75 191.403 146.614C190.759 146.482 190.541 146.656 190.902 146.426C191.269 146.201 192.215 145.571 193.756 144.327C195.291 143.087 197.416 141.232 198.738 140.251C200.06 139.269 200.571 139.156 200.983 138.921C201.392 138.687 201.703 138.325 201.999 138.208C202.292 138.09 202.575 138.212 203.373 138.269C203.864 138.302 204.551 138.311 205.386 138.142ZM205.386 158.768V155.33C206.541 154.602 207.209 154.504 207.571 154.748C208.04 155.062 208.007 155.945 207.246 156.917C206.773 157.523 206.017 158.167 205.386 158.768ZM214.395 160.548V166.15C214.094 166.343 213.797 166.54 213.519 166.742C211.672 168.076 210.522 169.621 210.712 170.325C210.897 171.034 212.419 170.907 214.126 169.963C214.214 169.917 214.307 169.86 214.395 169.808V287.726C211.371 288.087 208.726 287.275 205.386 286.744V161.252C205.432 161.252 205.479 161.257 205.525 161.257C206.671 161.29 208.536 160.754 210.494 160.641C211.719 160.576 212.976 160.67 214.395 160.548ZM214.395 153.447V155.062C213.375 155.485 213.203 155.109 213.709 154.339C213.876 154.086 214.117 153.78 214.395 153.447ZM214.395 141.152C213.904 141.453 213.43 141.749 212.99 142.035C209.39 144.36 207.771 145.994 205.539 146.844C205.488 146.863 205.437 146.882 205.386 146.9V149.028C206.718 148.798 208.026 148.464 209.603 147.727C210.981 147.083 212.568 146.135 214.395 145.05V141.152ZM214.395 132.878V136.804C212.363 138.09 210.076 139.936 207.743 141.101C206.963 141.49 206.175 141.805 205.386 142.087V138.142C205.915 138.034 206.504 137.855 207.14 137.569C208.782 136.832 210.758 135.371 212.206 134.315C213.096 133.671 213.788 133.183 214.395 132.878ZM214.395 128.045V130.445C214.191 130.529 213.987 130.609 213.792 130.694C212.182 131.379 211.176 132.098 210.508 132.445C209.84 132.793 209.515 132.76 209.413 132.657C209.311 132.558 209.436 132.384 210.382 131.525C211.329 130.67 213.101 129.13 214.312 128.116L214.395 128.045ZM214.395 130.445C215.912 129.853 217.726 129.275 218.636 128.641C219.67 127.918 219.526 127.12 219.03 126.683C218.534 126.251 217.68 126.19 216.928 126.401C216.191 126.608 215.555 127.078 214.395 128.045V130.445ZM214.395 136.804L214.428 136.785C216.469 135.493 218.255 134.77 219.188 134.192C220.12 133.61 220.194 133.169 219.879 133.065C219.559 132.967 218.844 133.202 218.056 133.075C217.262 132.948 216.39 132.46 215.49 132.539C215.142 132.572 214.785 132.685 214.395 132.878V136.804ZM214.395 166.15V160.548C215.244 160.472 216.149 160.317 217.137 159.998C219.777 159.153 223.006 157.138 224.699 156.335C226.392 155.537 226.546 155.945 226.003 156.636C225.46 157.326 224.217 158.303 223.177 159.435C222.138 160.566 221.299 161.853 219.605 163.065C218.167 164.093 216.117 165.065 214.395 166.15ZM314.301 133.765C313.786 134.094 313.253 134.789 313.253 135.291C313.253 135.789 313.786 136.094 314.301 136.047V133.765ZM314.301 99.7504C312 99.957 309.611 100.056 307.537 100.835C304.619 101.934 302.323 104.385 299.683 106.339C297.043 108.288 294.06 109.73 291.421 110.833C288.781 111.932 286.484 112.688 284.837 113.942C283.19 115.201 282.198 116.962 279.558 118.249C276.918 119.54 272.632 120.357 269.403 121.743C266.174 123.123 264.003 125.072 263.038 126.74C262.073 128.407 262.323 129.787 263.627 129.853C264.93 129.914 267.292 128.656 269.588 128.186C271.889 127.712 274.125 128.026 277.169 127.209C280.212 126.392 284.063 124.443 285.023 124.603C285.988 124.758 284.063 127.021 282.541 129.13C281.019 131.234 279.901 133.183 278.625 134.16C277.354 135.132 275.925 135.132 274.807 134.817C273.689 134.502 272.882 133.873 271.3 134.221C269.714 134.568 267.352 135.888 264.156 136.451C260.959 137.02 256.919 136.832 254.126 136.545C251.328 136.263 249.779 135.888 249.403 135.258C249.032 134.629 249.839 133.751 250.15 133.028C250.461 132.305 250.275 131.736 251.115 130.764C251.95 129.787 253.815 128.407 253.662 128.186C253.504 127.965 251.328 128.909 248.939 130.135C246.55 131.361 243.938 132.868 242.17 134.094C240.398 135.319 239.466 136.263 239.373 136.832C239.28 137.395 240.027 137.583 240.709 137.963C241.391 138.339 242.013 138.903 242.184 139.612C242.356 140.321 242.073 141.171 241.312 141.861C240.551 142.552 239.313 143.087 238.334 142.932C237.355 142.772 236.641 141.922 235.801 141.406C234.961 140.885 234.001 140.697 231.036 141.702C228.067 142.711 223.099 144.909 220.366 146.684C217.634 148.464 217.137 149.812 216.284 151.085C215.708 151.944 214.975 152.761 214.395 153.447V155.062L214.465 155.034C215.555 154.56 217.541 153.24 219.591 152.362C221.642 151.479 223.753 151.038 226.379 149.845C229 148.652 232.136 146.703 234.186 145.712C236.237 144.721 237.197 144.688 237.619 145.238C238.037 145.792 237.912 146.924 237.077 147.816C236.237 148.713 234.683 149.375 234.293 150.366C233.908 151.352 234.683 152.677 234.762 153.776C234.84 154.875 234.219 155.757 232.34 157.655C230.461 159.561 227.325 162.482 224.996 163.962C222.667 165.436 221.145 165.469 219.438 166.366C217.819 167.211 216.033 168.836 214.395 169.808V287.726C214.493 287.716 214.59 287.702 214.683 287.693C218.227 287.186 222.324 285.049 225.678 284.861C229.032 284.673 231.639 286.434 233.472 287.251C235.304 288.069 236.362 287.942 237.197 288.195C238.037 288.444 238.659 289.074 240.709 289.327C242.76 289.576 246.234 289.449 249.714 289.703C253.193 289.957 256.673 290.581 259.247 290.299C261.827 290.018 263.502 288.82 263.97 287.909C264.434 286.998 263.687 286.369 261.266 285.993C258.844 285.617 254.747 285.49 252.015 285.143C249.278 284.8 247.914 284.232 245.645 283.983C243.381 283.729 240.213 283.79 238.102 283.133C235.986 282.471 234.933 281.09 233.94 280.743C232.943 280.4 232.015 281.09 231.519 280.869C231.018 280.649 230.957 279.517 232.604 278.573C234.251 277.634 237.605 276.878 239.559 277.22C241.516 277.568 242.073 279.014 244.309 279.174C246.545 279.329 250.461 278.197 253.318 278.136C256.176 278.07 257.976 279.075 261.358 279.517C264.745 279.958 269.714 279.831 272.228 280.963C274.742 282.095 274.807 284.485 275.336 285.523C275.861 286.561 276.858 286.246 277.633 286.749C278.407 287.251 278.969 288.571 280.644 289.2C282.323 289.83 285.116 289.764 288.41 289.041C291.699 288.318 295.489 286.937 298.718 286.495C301.947 286.059 304.619 286.561 308.437 285.335C310.223 284.758 312.264 283.809 314.301 282.799V269.105C314.097 269.124 313.893 269.138 313.689 269.143C310.209 269.27 306.605 267.884 303.872 266.001C301.14 264.113 299.279 261.723 298.407 259.398C297.54 257.074 297.665 254.81 297.665 253.11C297.665 251.415 297.54 250.283 298.407 249.278C299.279 248.273 301.14 247.39 302.569 245.882C303.997 244.37 304.99 242.234 306.915 241.102C308.841 239.97 311.699 239.843 314.12 239.186L314.301 239.134V157.744C313.749 157.425 313.206 157.18 312.663 157.044C311.142 156.664 309.588 157.171 306.108 158.411C302.633 159.651 297.229 161.632 293.629 162.37C290.024 163.112 288.224 162.609 285.552 163.675C282.88 164.746 279.34 167.385 276.793 168.672C274.251 169.963 272.697 169.902 272.015 169.428C271.328 168.958 271.514 168.076 270.493 167.827C269.468 167.573 267.232 167.949 265.399 168.141C263.567 168.329 262.138 168.329 261.205 167.512C260.273 166.695 259.841 165.061 260.18 163.581C260.523 162.102 261.641 160.782 263.288 159.12C264.93 157.453 267.106 155.438 268.317 153.964C269.528 152.484 269.779 151.54 271.611 150.502C273.439 149.469 276.858 148.333 278.69 146.637C280.523 144.942 280.769 142.678 281.451 141.232C282.137 139.786 283.255 139.156 284.216 138.781C285.181 138.4 285.988 138.278 286.327 138.621C286.67 138.968 286.545 139.786 285.895 140.415C285.241 141.044 284.063 141.481 284.091 141.767C284.123 142.049 285.366 142.176 286.327 141.861C287.292 141.547 287.974 140.791 289.059 140.697C290.149 140.603 291.639 141.166 293.285 140.603C294.932 140.035 296.732 138.339 298.968 137.837C301.205 137.334 303.872 138.024 305.895 137.048C307.913 136.076 309.277 133.436 309.773 131.802C310.27 130.168 309.898 129.538 308.906 129.82C307.913 130.102 306.298 131.295 304.248 132.084C302.197 132.868 299.711 133.249 297.507 133.845C295.303 134.441 293.378 135.258 291.889 135.446C290.395 135.634 289.342 135.193 288.813 134.315C288.284 133.436 288.284 132.112 289.31 131.454C290.335 130.792 292.385 130.792 293.689 130.168C294.993 129.538 295.554 128.28 296.607 127.524C297.665 126.772 299.214 126.519 299.59 125.199C299.961 123.88 299.154 121.489 298.843 119.794C298.532 118.094 298.718 117.089 301.265 115.891C303.812 114.698 308.72 113.318 311.202 112.153C313.485 111.082 313.726 110.199 314.301 109.969V99.7504ZM314.301 68.4924V77.9834C314.051 78.2558 314 78.5422 314.009 78.9132C314.027 79.5848 314.259 80.5334 314.301 81.4774V82.0456C314.283 82.4119 314.222 82.7641 314.102 83.0928C313.605 84.4453 312.051 85.3894 309.629 86.6433C307.208 87.9019 303.919 89.475 302.425 90.6397C300.935 91.7997 301.246 92.5558 301.186 93.6547C301.121 94.7583 300.685 96.2 298.885 97.144C297.085 98.0879 293.916 98.5294 291.031 98.999C288.141 99.4733 285.533 99.9758 283.265 101.356C281.001 102.742 279.076 105.005 277.364 105.916C275.656 106.828 274.167 106.386 272.302 107.175C270.442 107.959 268.206 109.969 266.559 111.007C264.912 112.045 263.859 112.111 264.23 111.449C264.601 110.786 266.401 109.406 267.955 108.18C269.509 106.954 270.813 105.884 269.853 106.165C268.888 106.452 265.659 108.086 263.047 109.814C260.44 111.542 258.454 113.365 254.822 114.877C251.184 116.384 245.91 117.577 242.894 118.991C239.883 120.409 239.136 122.043 239.633 122.734C240.129 123.424 241.869 123.175 243.766 122.64C245.659 122.104 247.71 121.287 250.41 119.808C253.11 118.333 256.464 116.196 258.176 115.722C259.883 115.253 259.943 116.445 260.936 117.014C261.934 117.577 263.859 117.516 267.519 115.6C271.184 113.679 276.589 109.908 281.618 107.109C286.651 104.31 291.309 102.488 294.445 101.516C297.581 100.539 299.196 100.413 299.757 100.887C300.314 101.356 299.817 102.427 297.145 103.714C294.478 105.005 289.63 106.513 284.322 108.903C279.011 111.289 273.235 114.562 268.484 117.202C263.734 119.841 260.008 121.855 257.582 122.734C255.16 123.612 254.042 123.363 252.46 123.551C250.878 123.739 248.828 124.368 247.213 125.03C245.599 125.688 244.416 126.378 244.137 127.073C243.859 127.763 244.481 128.454 243.827 128.989C243.173 129.524 241.247 129.9 239.916 130.811C238.58 131.722 237.833 133.169 234.544 135.024C231.25 136.879 225.414 139.142 220.691 141.533C218.325 142.73 216.237 143.961 214.395 145.05V141.152C217.926 138.987 222.565 136.489 225.321 135.056C228.457 133.422 229.139 133.169 229.385 132.544C229.635 131.915 229.45 130.905 228.953 130.248C228.457 129.585 227.645 129.271 226.281 129.21C224.917 129.149 222.987 129.337 222.774 128.862C222.556 128.393 224.045 127.261 225.938 125.908C227.835 124.556 230.132 122.987 230.906 122.071C231.686 121.16 230.939 120.911 229.478 121.32C228.021 121.729 225.845 122.795 225.038 122.795C224.231 122.795 224.792 121.729 225.97 120.564C227.149 119.399 228.953 118.145 234.789 114.562C240.63 110.979 250.503 105.067 255.968 101.389C261.433 97.7123 262.49 96.2657 264.355 94.7582C266.216 93.2461 268.888 91.6729 271.031 90.8275C273.174 89.9775 274.789 89.8507 276.371 89.475C277.957 89.0993 279.507 88.4701 280.565 87.2444C281.618 86.0186 282.179 84.1918 284.165 82.4636C286.155 80.7354 289.569 79.1011 297.892 75.485C302.425 73.5173 308.414 70.9626 314.301 68.4924ZM314.301 81.4774V82.0456C314.31 81.8578 314.31 81.6699 314.301 81.4774ZM314.301 136.047V133.765C314.533 133.619 314.756 133.544 314.927 133.591C315.489 133.751 315.489 135.197 314.927 135.761C314.756 135.935 314.533 136.024 314.301 136.047ZM323.023 265.405V278.798C322.359 279.014 321.64 279.282 320.861 279.611C318.926 280.433 316.616 281.654 314.301 282.799V269.105C317.539 268.824 320.629 267.283 323.023 265.405ZM323.023 162.21V228.286C322.081 228.896 321.251 229.601 320.736 230.352C319.525 232.113 320.021 234.123 319.279 235.729C318.551 237.293 316.639 238.467 314.301 239.134V157.744C315.289 158.312 316.319 159.106 317.474 159.871C319.093 160.947 320.968 161.971 323.023 162.21ZM323.023 147.018V151.517C322.596 151.568 322.179 151.559 321.812 151.475C320.457 151.165 319.836 149.845 320.332 148.746C320.736 147.849 321.877 147.102 323.023 147.018ZM323.023 134.174V138.889C322.262 138.504 321.682 138.006 321.575 137.428C321.39 136.423 322.633 135.165 323.004 134.221L323.023 134.174ZM323.023 126.833V133.075C322.86 132.685 322.531 132.342 322.132 131.99C321.39 131.328 320.392 130.637 320.828 129.351C321.102 128.543 321.933 127.5 323.023 126.833ZM323.023 117.394V122.1C320.824 123.025 318.917 123.523 318.282 123.03C317.6 122.494 318.407 120.799 320.332 119.226C321.098 118.601 322.035 118 323.023 117.394ZM323.023 97.5948V110.646C321.691 111.223 320.332 111.881 319.029 112.468C316.732 113.506 314.621 114.323 314.463 114.069C314.31 113.82 316.11 112.501 316.328 111.491C316.542 110.486 315.178 109.796 314.463 109.922C314.408 109.932 314.352 109.946 314.301 109.969V99.7504C315.238 99.6658 316.161 99.5625 317.043 99.3887C319.126 98.9801 320.977 98.1724 323.023 97.5948ZM323.023 64.8763V74.6866C321.432 75.2032 319.97 75.6635 318.792 76.0533C315.962 76.9785 314.774 77.4621 314.301 77.9834V68.4924C317.303 67.2338 320.276 65.9987 323.023 64.8763ZM323.023 151.517V147.018C323.283 146.999 323.547 147.013 323.802 147.074C325.157 147.379 326.252 148.882 325.755 149.981C325.394 150.784 324.178 151.376 323.023 151.517ZM363.087 268.251V276.873C362.47 276.901 361.858 276.91 361.259 276.91C355.859 276.878 351.698 275.558 349.091 274.454C346.479 273.355 345.426 272.477 344.057 272.914C342.693 273.355 341.014 275.116 338.843 275.685C336.667 276.248 333.995 275.619 332.287 275.779C330.58 275.934 329.833 276.878 328.312 277.413C327.119 277.831 325.445 278 323.023 278.798V265.405L323.065 265.372C325.612 263.362 327.351 260.971 329.337 258.581C331.327 256.191 333.563 253.805 335.799 253.176C338.035 252.546 340.271 253.678 340.392 255.251C340.517 256.82 338.532 258.835 337.725 260.971C336.917 263.108 337.288 265.372 338.963 266.062C340.643 266.752 343.626 265.874 346.604 264.494C349.587 263.108 352.565 261.22 355.488 262.23C358.068 263.118 360.605 266.273 363.087 268.251ZM363.087 234.165V237.312C362.716 237.368 362.354 237.439 362.006 237.519C359.306 238.148 357.567 239.594 356.031 240.252C354.495 240.914 353.159 240.787 351.169 241.604C349.183 242.421 346.544 244.182 344.85 244.652C343.157 245.126 342.415 244.309 343.004 243.271C343.593 242.234 345.518 240.975 348.548 239.435C351.573 237.894 355.706 236.072 358.249 235.288C360.795 234.499 361.76 234.753 362.911 234.25C362.967 234.222 363.027 234.194 363.087 234.165ZM363.087 121.888C361.607 121.968 360.188 121.536 358.652 121.301C356.416 120.954 353.934 121.02 352.069 120.672C350.209 120.325 348.965 119.573 345.672 121.048C342.382 122.527 337.038 126.237 333.252 127.148C329.462 128.059 327.226 126.171 325.175 126.171C324.41 126.171 323.672 126.439 323.023 126.833V133.075C323.157 133.399 323.176 133.756 323.023 134.174V138.889C323.58 139.175 324.234 139.405 324.865 139.565C326.358 139.941 327.722 139.941 329.309 140.255C330.891 140.57 332.691 141.199 333.252 142.11C333.809 143.021 333.127 144.219 331.698 145.726C330.269 147.234 328.098 149.056 327.351 150.38C326.604 151.7 327.291 152.517 328.53 153.207C329.773 153.898 331.573 154.466 332.102 155.631C332.631 156.791 331.884 158.552 330.237 159.937C328.595 161.318 326.048 162.323 323.719 162.262C323.482 162.257 323.25 162.238 323.023 162.21V228.286C324.285 227.464 325.755 226.816 326.948 226.454C329.026 225.825 330.269 226.079 331.759 225.477C333.252 224.881 334.992 223.435 336.82 223.5C338.652 223.561 340.582 225.135 342.628 225.858C344.679 226.581 346.855 226.454 348.497 227.178C350.144 227.901 351.262 229.469 352.658 229.596C354.059 229.723 355.734 228.403 355.794 226.642C355.859 224.881 354.305 222.683 352.352 221.392C350.394 220.105 348.033 219.725 346.822 217.963C345.611 216.207 345.546 213.061 347.226 210.327C348.9 207.594 352.32 205.265 353.934 202.593C355.548 199.921 355.363 196.906 356.481 194.863C357.599 192.815 360.021 191.749 360.239 189.735C360.457 187.725 358.467 184.771 358.406 181.939C358.341 179.112 360.206 176.407 362.628 174.96C362.781 174.871 362.934 174.786 363.087 174.707V121.888ZM363.087 93.8941V98.7077C361.941 99.553 361.259 101.094 361.635 102.47C361.839 103.216 362.35 103.916 363.087 104.465V110.829C362.456 110.913 361.76 111.04 360.981 111.242C357.534 112.12 352.445 114.384 348.594 115.295C344.744 116.206 342.132 115.769 340.114 115.891C338.096 116.018 336.667 116.713 335.303 117.122C333.934 117.53 332.631 117.652 330.645 118.469C328.655 119.287 325.983 120.799 323.561 121.865C323.38 121.945 323.199 122.025 323.023 122.1V117.394C324.526 116.469 326.14 115.534 327.412 114.51C329.527 112.815 330.705 110.862 330.362 109.89C330.023 108.913 328.158 108.913 325.987 109.542C325.041 109.814 324.039 110.209 323.023 110.646V97.5948C323.965 97.3271 324.948 97.1111 326.015 96.9984C329.402 96.6556 333.623 97.4069 337.474 96.8762C341.325 96.3409 344.804 94.5187 347.88 93.5091C350.951 92.5041 353.623 92.3163 355.706 92.8188C357.785 93.3213 359.274 94.5187 361.199 94.3591C361.793 94.3121 362.428 94.1336 363.087 93.8941ZM363.087 51.3699C362.841 51.4263 362.586 51.4826 362.331 51.5296C359.32 52.1307 355.966 52.2528 353.572 52.821C351.183 53.3846 349.754 54.3943 348.325 55.1786C346.896 55.9629 345.467 56.5311 342.86 57.4093C340.248 58.2922 336.463 59.485 327.954 62.8804C326.442 63.4815 324.776 64.1578 323.023 64.8763V74.6866C327.254 73.3106 332.389 71.5589 335.437 69.8918C339.631 67.5953 339.877 65.4586 342.174 63.6646C344.475 61.8754 348.822 60.429 351.865 58.9215C354.908 57.4093 356.648 55.8361 358.819 54.6761C360.164 53.9576 361.672 53.3941 363.087 52.854V51.3699ZM363.087 72.1742C358.912 74.0902 354.565 76.2505 351.624 77.6171C347.193 79.6693 345.964 79.923 343.074 79.6741C340.183 79.4205 335.628 78.6737 332.311 78.7958C328.989 78.9226 326.897 79.9182 325.728 80.1061C324.558 80.2939 324.313 79.6693 328.001 77.866C331.694 76.058 339.32 73.0711 344.117 71.2021C348.914 69.3376 350.886 68.5862 351.067 67.9663C351.253 67.3417 349.652 66.844 348.914 66.2852C348.177 65.7263 348.302 65.1017 351.313 63.2936C354.064 61.65 359.218 59.0154 363.087 57.198V72.1742ZM363.087 52.854C363.969 52.5206 364.813 52.1965 365.56 51.8443C367.518 50.9332 368.821 49.8672 369.564 49.3318C370.311 48.7964 370.496 48.7964 369.257 49.3318C368.116 49.8202 365.787 50.7547 363.087 51.3699V52.854ZM363.087 98.7077V93.8941C364.567 93.3588 366.158 92.5088 367.661 92.0956C369.833 91.4991 371.823 91.8138 373.869 91.5602C375.919 91.3112 378.03 90.4941 379.895 89.4891C381.76 88.4795 383.375 87.2866 383.838 88.1648C384.307 89.0476 383.62 92.0016 380.981 94.0773C378.341 96.153 373.748 97.3459 370.454 97.7263C367.165 98.1021 365.175 97.6606 363.686 98.3509C363.477 98.4495 363.277 98.5668 363.087 98.7077ZM363.087 110.829V104.465C363.936 105.095 365.077 105.531 366.386 105.616C368.84 105.771 371.883 104.7 373.716 104.733C375.548 104.766 376.17 105.898 375.019 107.184C373.869 108.476 370.951 109.922 368.589 110.392C366.762 110.758 365.272 110.538 363.087 110.829ZM363.087 237.312V234.165C364.201 233.616 365.5 232.475 367.476 232.268C369.554 232.047 372.38 232.865 374.834 232.897C377.288 232.93 379.366 232.174 380.981 231.921C382.595 231.672 383.746 231.921 383.263 232.456C382.785 232.991 380.67 233.809 378.531 234.659C376.388 235.504 374.212 236.387 371.294 236.734C368.747 237.035 365.634 236.927 363.087 237.312ZM397.13 253.086V313.203C395.975 312.357 394.917 311.573 394.022 310.92C391.136 308.816 390.018 308.121 388.807 307.309C387.596 306.487 386.293 305.548 386.293 304.698C386.293 303.848 387.596 303.092 387.564 302.655C387.531 302.214 386.167 302.087 385.202 300.861C384.242 299.635 383.681 297.311 383.838 295.77C383.992 294.23 384.864 293.474 385.082 292.248C385.3 291.023 384.864 289.327 385.202 287.848C385.546 286.369 386.664 285.115 387.564 283.574C388.464 282.034 389.15 280.207 388.775 278.385C388.403 276.563 386.975 274.741 385.328 274.079C383.681 273.421 381.82 273.924 377.566 274.802C373.781 275.586 368.102 276.666 363.087 276.873V268.251C363.412 268.509 363.737 268.744 364.057 268.955C366.85 270.777 369.587 270.528 371.883 269.96C374.18 269.396 376.045 268.514 378.406 267.95C380.763 267.382 383.62 267.133 386.042 264.869C388.464 262.606 390.454 258.332 392.314 256.191C394.026 254.232 395.631 254.068 397.13 253.086ZM397.13 226.914V232.771C396.587 233.32 396.016 233.79 395.39 234.09C393.558 234.973 391.229 234.372 390.236 233.935C389.243 233.494 389.586 233.212 390.422 232C391.261 230.789 392.597 228.652 394.165 227.694C395.121 227.112 396.16 226.966 397.13 226.914ZM397.13 119.878V135.033C397.018 135.141 396.902 135.244 396.787 135.352C394.054 137.87 390.454 140.509 388.714 141.166C386.975 141.828 387.1 140.509 386.478 140.382C385.857 140.255 384.493 141.326 384.056 141.166C383.62 141.011 384.117 139.626 382.753 139.94C381.384 140.255 378.155 142.27 376.666 143.998C375.172 145.726 375.423 147.173 376.573 147.614C377.719 148.051 379.77 147.487 381.946 146.797C384.117 146.102 386.418 145.285 387.132 145.571C387.847 145.853 386.975 147.234 387.689 148.272C388.403 149.31 390.7 150 393.715 149.122C394.792 148.807 395.956 148.29 397.13 147.713V150.484C396.578 150.817 396.044 151.179 395.548 151.573C393.001 153.583 391.321 156.476 390.268 157.547C389.211 158.617 388.775 157.861 388.06 158.049C387.35 158.237 386.353 159.369 385.857 159.308C385.36 159.242 385.36 157.988 384.957 157.58C384.553 157.171 383.746 157.608 382.164 158.805C380.577 159.998 378.216 161.947 376.17 163.361C374.119 164.774 372.38 165.657 372.816 166.413C373.247 167.165 375.859 167.794 375.919 168.893C375.984 169.996 373.498 171.565 370.765 172.448C368.204 173.27 365.421 173.49 363.087 174.707V121.888C363.764 121.851 364.456 121.71 365.175 121.395C367.471 120.39 370.083 117.624 372.63 115.797C375.172 113.975 377.659 113.097 379.677 113.412C381.695 113.726 383.249 115.234 385.393 115.642C387.536 116.051 390.268 115.361 391.572 115.675C392.876 115.99 392.75 117.31 393.59 118.347C394.281 119.202 395.631 119.869 397.13 119.878ZM397.13 70.4742C395.687 69.596 394.309 68.2528 393.14 67.4686C391.484 66.3462 390.25 66.3462 389.206 66.1583C388.158 65.9752 387.299 65.5995 385.945 65.6605C384.59 65.7216 382.744 66.2193 380.224 66.6561C377.701 67.0928 374.504 67.4685 369.09 69.5818C367.272 70.2957 365.203 71.2021 363.087 72.1742V57.198C363.463 57.0242 363.825 56.8551 364.168 56.6954C368.107 54.8874 370.074 54.2675 371.122 53.4597C372.166 52.6473 372.291 51.6517 375.302 49.8484C378.318 48.0403 384.223 45.4246 388.037 43.8701C391.85 42.311 393.572 41.8132 396.095 41.3764C396.425 41.3201 396.773 41.2638 397.13 41.2074V70.4742ZM397.13 150.484V147.713C399.241 146.675 401.375 145.431 403.031 144.782C405.606 143.777 407.035 144.219 407.16 144.876C407.285 145.539 406.102 146.417 403.806 147.422C401.959 148.234 399.389 149.122 397.13 150.484ZM397.13 232.771V226.914C397.756 226.882 398.35 226.886 398.87 226.844C400.206 226.736 401.073 226.295 402.256 226.309C403.435 226.328 404.924 226.797 404.585 227.239C404.242 227.68 402.071 228.089 400.312 229.469C399.157 230.38 398.183 231.714 397.13 232.771ZM431.344 242.299V327.864C428.315 327.151 424.798 328.221 422.251 327.93C419.519 327.615 417.904 325.728 415.422 324.154C412.936 322.586 409.581 321.327 405.578 318.937C402.808 317.284 399.723 315.091 397.13 313.203V253.086C397.264 252.997 397.399 252.899 397.533 252.795C399.148 251.541 400.637 249.024 404.924 247.958C409.21 246.887 416.29 247.263 420.887 246.634C425.48 246.005 427.596 244.37 429.767 243.116C430.286 242.816 430.811 242.539 431.344 242.299ZM431.344 126.758V133.201C429.539 132.887 427.563 132.572 426.009 132.713C423.249 132.962 421.82 134.662 420.14 135.226C418.466 135.794 416.54 135.226 414.365 135.949C412.189 136.672 409.767 138.687 408.092 139.471C406.413 140.255 405.485 139.818 406.102 138.875C406.724 137.931 408.9 136.484 409.456 135.385C410.018 134.286 408.96 133.53 409.396 132.492C409.832 131.454 411.757 130.135 410.983 129.351C410.203 128.562 406.724 128.313 404.056 129.379C401.495 130.403 399.681 132.638 397.13 135.033V119.878C397.445 119.878 397.77 119.85 398.095 119.794C399.955 119.446 401.88 118 403.156 117.873C404.427 117.751 405.049 118.944 406.538 119.132C408.032 119.319 410.389 118.502 412.81 118.629C415.232 118.756 417.719 119.822 419.208 121.489C420.702 123.156 421.198 125.42 422.284 126.237C423.369 127.054 425.049 126.425 426.974 126.265C428.384 126.152 429.934 126.293 431.344 126.758ZM431.344 89.2918C430.208 88.9208 429.173 88.5734 428.324 88.3245C425.559 87.5167 424.821 87.7656 423.652 87.3899C422.483 87.0189 420.883 86.0233 418.73 85.4597C416.577 84.9009 413.868 84.7741 412.764 83.9053C411.655 83.0318 412.147 81.4164 412.885 79.984C413.627 78.5517 414.61 77.3024 416.332 76.3726C418.053 75.438 420.516 74.8134 421.56 73.6957C422.604 72.5733 422.233 70.9531 421.254 70.2675C420.266 69.5818 418.67 69.8354 416.577 70.9531C414.485 72.0755 411.901 74.0667 409.994 74.8745C408.088 75.6869 406.858 75.3112 407.29 74.2546C407.721 73.1933 409.809 71.451 411.038 70.3286C412.272 69.2109 412.639 68.7131 411.535 68.5863C410.426 68.4642 407.842 68.713 405.504 69.5208C403.165 70.3285 401.078 71.6999 398.985 71.2678C398.364 71.1363 397.742 70.8452 397.13 70.4742V41.2074C399.5 40.8317 402.442 40.4137 405.75 39.3852C409.563 38.2018 413.873 36.2106 417.315 34.4025C420.762 32.5992 423.341 30.979 425.373 29.9834C427.401 28.9878 428.881 28.6121 431.033 27.9922L431.344 27.8983V89.2918ZM431.344 133.201V126.758C431.854 126.927 432.351 127.139 432.81 127.397C434.55 128.374 435.853 130.008 436.475 131.361C437.097 132.713 437.036 133.779 434.953 133.718C434.044 133.69 432.745 133.446 431.344 133.201ZM431.344 327.864V242.299C433.051 241.534 434.888 241.172 437.157 241.797C440.14 242.614 443.865 245.126 447.841 246.005C451.817 246.887 456.039 246.131 459.829 245.629C463.619 245.126 466.969 244.873 469.581 246.573C472.188 248.273 474.053 251.917 477.467 253.612C480.882 255.313 485.85 255.059 490.012 255.688C494.173 256.318 497.527 257.825 499.889 258.581C502.25 259.337 503.614 259.337 506.472 258.14C509.329 256.947 513.676 254.556 517.777 254.744C521.874 254.937 525.724 257.703 528.522 258.835C531.315 259.966 533.054 259.464 534.358 260.089C535.662 260.718 536.534 262.479 537.156 264.93C537.773 267.382 538.148 270.528 536.905 273.168C535.662 275.807 532.804 277.944 530.758 280.207C528.708 282.471 527.464 284.861 527.464 287.5C527.464 290.144 528.707 293.033 529.329 295.925C529.951 298.818 529.951 301.711 528.643 304.289C527.339 306.868 524.732 309.131 521.628 310.765C518.52 312.4 514.92 313.405 512.248 315.922C509.575 318.434 507.84 322.459 507.339 326.296C506.843 330.128 507.59 333.777 506.657 336.67C505.725 339.558 503.118 341.699 501.443 344.653C499.763 347.607 499.021 351.378 497.592 353.454C496.163 355.53 494.052 355.905 493.306 357.605C492.559 359.301 493.18 362.321 491.816 364.396C490.448 366.467 487.094 367.599 484.547 369.426C482 371.248 480.26 373.76 478.956 375.522C477.653 377.283 476.785 378.288 476.099 379.922C475.417 381.556 474.92 383.82 475.482 384.637C476.038 385.454 477.653 384.829 478.896 385.017C480.139 385.205 481.007 386.21 480.139 387.403C479.267 388.601 476.66 389.981 474.795 391.742C472.935 393.503 471.817 395.64 471.752 396.711C471.691 397.777 472.684 397.777 473.867 399.035C475.046 400.294 476.41 402.807 475.978 404.253C475.542 405.699 473.306 406.08 472.995 407.526C472.684 408.968 474.299 411.485 476.224 413.937C478.149 416.388 480.385 418.778 482.496 419.722C484.612 420.666 486.597 420.159 487.59 420.225C488.583 420.286 488.583 420.915 488.086 421.291C487.59 421.671 486.597 421.798 485.294 422.235C483.99 422.676 482.376 423.432 480.45 423.747C478.525 424.057 476.289 423.935 474.238 424.686C472.188 425.442 470.323 427.077 468.773 426.828C467.219 426.574 465.976 424.437 464.176 423.24C462.376 422.047 460.015 421.798 458.089 420.727C456.164 419.657 454.675 417.773 454.053 416.139C453.431 414.505 453.682 413.119 453.431 411.927C453.181 410.729 452.439 409.724 452.128 408.278C451.817 406.831 451.942 404.948 452.063 402.999C452.188 401.05 452.313 399.036 452.063 396.457C451.817 393.879 451.195 390.737 450.077 388.286C448.959 385.834 447.345 384.073 447.159 381.871C446.974 379.673 448.212 377.029 448.338 372.821C448.463 368.609 447.47 362.823 445.916 356.408C444.362 349.998 442.251 342.953 439.954 337.736C437.658 332.518 435.171 329.123 432.003 328.052C431.785 327.982 431.567 327.921 431.344 327.864ZM558.909 49.9188C558.788 49.947 558.668 49.9705 558.552 50.0033C556.515 50.5387 555.833 51.9522 554.39 52.6285C552.948 53.3048 550.739 53.239 548.893 52.7225C547.046 52.2059 545.553 51.2291 544.499 51.0741C543.442 50.9144 542.82 51.5766 541.159 51.8913C539.498 52.2059 536.798 52.173 535.416 53.2249C534.033 54.2769 533.973 56.4184 535.912 58.0808C537.851 59.748 541.799 60.9409 545.478 60.9127C549.157 60.8798 552.572 59.6212 556.176 59.0717C557.081 58.9355 557.995 58.8416 558.909 58.7618V49.9188ZM445.61 23.944C455.204 21.3893 471.566 17.1534 487.316 13.9787C503.062 10.8041 518.19 8.6861 527.91 7.75153C537.629 6.82166 541.934 7.07056 549.315 6.19708C552.177 5.85895 555.499 5.35162 558.909 4.80688V11.9593C558.329 12.2364 557.758 12.4758 557.128 12.6731C554.729 13.4198 551.407 13.5466 548.703 14.1054C545.993 14.6642 543.901 15.6646 545.381 16.4113C546.856 17.1534 551.899 17.6558 554.729 17.9047C557.559 18.1536 558.176 18.1537 557.007 18.8346C555.838 19.5202 552.883 20.8915 551.713 21.8871C550.544 22.8827 551.161 23.5072 552.205 24.1318C553.254 24.7517 554.729 25.3763 555.035 26.2451C555.346 27.1187 554.483 28.2411 552.145 29.2367C549.811 30.2323 545.993 31.1057 543.595 31.8524C541.196 32.5992 540.213 33.2191 540.273 33.9047C540.333 34.5904 541.442 35.337 542.611 35.7738C543.78 36.2105 545.01 36.3327 545.566 37.2672C546.119 38.2018 545.993 39.944 544.643 41.1275C543.289 42.3109 540.704 42.9355 537.568 43.8043C534.432 44.6778 530.74 45.8002 524.342 47.3546C517.945 48.9091 508.842 50.905 503.86 52.5862C498.877 54.2675 498.014 55.6388 496.785 56.8833C495.556 58.1278 493.955 59.2502 489.896 61.0536C485.836 62.8569 479.318 65.3506 475.505 67.8396C471.691 70.3286 470.583 72.8223 469.047 74.2546C467.507 75.687 465.54 76.058 464.245 78.237C462.956 80.4161 462.339 84.4032 461.17 86.6433C460.005 88.8881 458.279 89.3858 456.006 89.569C453.728 89.7568 450.898 89.6347 448.254 90.1325C445.61 90.6303 443.151 91.748 439.518 91.377C436.999 91.1187 433.919 90.1371 431.344 89.2918V27.8983C433.469 27.2831 436.47 26.3719 445.61 23.944ZM582.397 189.101V195.548C581.859 194.351 581.604 193.074 581.734 191.749C581.817 190.876 582.072 189.983 582.397 189.101ZM582.397 172.302V177.919C582.137 177.557 581.901 177.205 581.734 176.848C581.084 175.482 581.358 174.077 582.397 172.302ZM582.397 49.947V51.3324C581.075 51.6141 578.584 51.708 575.972 52.8492C573.193 54.0562 570.275 56.4465 566.921 57.5642C564.406 58.4002 561.651 58.5223 558.909 58.7618V49.9188C560.969 49.5056 564.096 49.7967 566.192 49.5149C568.41 49.219 569.468 48.2751 572.168 48.1953C574.872 48.1154 579.219 48.9044 581.469 49.6088C581.831 49.7215 582.137 49.8343 582.397 49.947ZM558.909 4.80688C564.295 3.94745 569.895 2.99426 574.228 2.46356C577.721 2.03149 580.388 1.87183 582.397 1.87183V4.57684C577.828 5.76031 570.428 7.45557 565.923 8.93488C562.3 10.1277 560.542 11.1891 558.909 11.9593V4.80688ZM582.397 51.3324V49.947C583.733 50.5105 583.678 50.9989 582.634 51.276C582.56 51.2948 582.481 51.3136 582.397 51.3324ZM584.476 183.794V198.563C583.599 197.648 582.884 196.633 582.397 195.548V189.101C583.079 187.236 584.072 185.391 584.476 183.794ZM584.476 169.353V181.286C584.081 179.985 583.13 178.929 582.397 177.919V172.302C582.648 171.87 582.945 171.415 583.288 170.936C583.641 170.438 584.044 169.902 584.476 169.353ZM582.397 1.87183C583.191 1.86713 583.877 1.89062 584.476 1.92822V4.01801C584.197 4.09784 583.9 4.17761 583.576 4.26685C583.209 4.36548 582.815 4.46881 582.397 4.57684V1.87183ZM612.227 131.173V212.619C611.931 212.507 611.624 212.398 611.295 212.305C608.873 211.614 605.398 211.614 602.601 210.482C599.808 209.351 597.697 207.087 594.9 205.265C592.107 203.443 588.628 202.057 585.956 199.921C585.427 199.498 584.93 199.042 584.476 198.563V183.794C584.573 183.413 584.633 183.042 584.652 182.695C584.675 182.192 584.606 181.727 584.476 181.286V169.353C586.15 167.207 588.243 164.732 589.653 162.356C591.421 159.369 592.107 156.537 593.689 154.621C595.271 152.705 597.758 151.7 600.119 150.568C602.476 149.436 604.712 148.178 605.863 145.661C607.013 143.148 607.073 139.377 608.159 136.672C609.166 134.174 611.04 132.591 612.227 131.173ZM612.227 108.072V127.575C612.023 127.486 611.787 127.406 611.513 127.336C609.184 126.74 604.341 126.927 602.972 126.519C601.608 126.11 603.719 125.105 603.877 122.118C604.03 119.132 602.23 114.163 605.77 111.054C607.217 109.777 609.565 108.814 612.227 108.072ZM612.227 76.274V82.9144C611.082 84.6614 609.5 86.5963 608.006 87.1927C606.271 87.883 604.652 86.7513 602.698 86.2487C600.741 85.7462 598.444 85.8731 597.201 85.117C595.958 84.3609 595.772 82.7265 596.612 82.0362C597.447 81.3459 599.312 81.5947 600.898 80.6508C602.48 79.7115 603.784 77.5701 605.431 76.5041C607.078 75.4333 609.064 75.4333 610.678 75.7809C611.249 75.903 611.773 76.0673 612.227 76.274ZM612.227 65.2707V69.826C611.889 69.6664 611.583 69.4973 611.332 69.3048C610.121 68.3937 610.121 67.0084 610.956 66.0973C611.272 65.7592 611.699 65.4821 612.227 65.2707ZM584.476 1.92822C585.422 1.99396 586.136 2.09723 586.651 2.20996C588.192 2.5575 587.988 3.013 584.476 4.01801V1.92822ZM702.071 1.40216C705.457 2.37897 708.937 4.20117 712.133 4.32794C715.33 4.45471 718.252 2.88147 723.063 2.31323C727.879 1.74969 734.587 2.18646 739.676 2.94257C744.77 3.69867 748.25 4.76471 750.704 4.98541C753.158 5.20612 754.582 4.57684 754.958 4.85864C755.329 5.14514 754.647 6.33789 751.418 6.77936C748.189 7.21613 742.409 6.90613 739.305 7.40863C736.201 7.91113 735.765 9.23077 737.069 10.015C738.373 10.804 741.416 11.0529 740.734 11.4944C740.052 11.9359 735.64 12.5604 731.664 11.7433C727.693 10.9261 724.149 8.66248 720.702 8.44647C717.255 8.22577 713.905 10.0479 710.426 10.3954C706.947 10.7382 703.347 9.60645 700.925 7.87823C698.499 6.15002 697.26 3.82544 694.866 3.06934C692.477 2.31323 688.937 3.13043 688.283 2.90973C687.633 2.69373 689.865 1.43512 692.63 0.866882C695.395 0.303345 698.689 0.430054 702.071 1.40216ZM612.227 69.826C613.503 70.4224 615.22 70.8452 616.175 71.5684C617.386 72.4795 617.386 73.8601 618.876 74.4612C620.369 75.0576 623.348 74.8698 624.809 75.6541C626.266 76.4431 626.206 78.1995 625.338 79.0823C624.466 79.9605 622.791 79.9605 621.858 80.8105C620.926 81.6605 620.74 83.3559 619.933 84.5816C619.126 85.8073 617.697 86.5634 617.757 87.1927C617.822 87.822 619.372 88.3244 621.891 87.4744C624.406 86.6244 627.885 84.4266 630.77 83.8255C633.661 83.2291 635.957 84.2388 638.318 83.9241C640.675 83.6095 643.097 81.9752 643.287 80.369C643.473 78.7676 641.422 77.1945 639.186 76.0298C636.95 74.8699 634.528 74.1137 633.099 73.1416C631.67 72.1648 631.234 70.9719 630.617 69.8683C629.996 68.7694 629.188 67.7644 628.381 67.2619C627.574 66.7594 626.762 66.7595 627.324 65.9423C627.885 65.1252 629.805 63.4908 631.67 61.9505C633.535 60.4102 635.336 58.9637 635.275 58.1748C635.21 57.3905 633.285 57.2637 630.956 58.5223C628.627 59.7809 625.895 62.4201 623.195 63.613C620.49 64.8105 617.822 64.5569 615.647 64.6509C614.283 64.7119 613.118 64.9044 612.227 65.2707V69.826ZM612.227 82.9144C612.418 82.6233 612.594 82.3415 612.761 82.0692C613.907 80.1484 614.343 78.8287 613.939 77.8237C613.68 77.1709 613.067 76.6544 612.227 76.274V82.9144ZM795.217 281.325C793.468 281.752 791.608 282.086 790.457 282.593C788.81 283.316 788.625 284.382 788.407 285.58C788.189 286.772 787.943 288.092 787.228 290.924C786.514 293.751 785.331 298.09 783.842 300.697C782.352 303.308 780.548 304.191 781.109 305.384C781.666 306.576 784.589 308.089 787.382 307.962C790.179 307.835 792.846 306.074 794.897 305.477C795.004 305.445 795.11 305.416 795.217 305.393V281.325ZM795.217 39.9253V193.975C792.624 189.401 789.775 182.272 786.194 176.975C782.158 171.001 777.189 167.352 774.582 163.83C771.97 160.313 771.724 156.917 771.042 155.03C770.356 153.146 769.237 152.766 768.495 155.095C767.748 157.42 767.377 162.45 769.423 166.601C771.474 170.748 775.946 174.016 778.864 177.6C781.787 181.183 783.151 185.085 784.89 188.039C786.63 190.993 788.741 193.003 790.355 195.774C791.97 198.54 793.088 202.057 793.96 203.504C794.345 204.147 794.684 204.382 795.217 204.528V234.015C792.322 235.711 789.163 236.377 786.008 238.275C782.654 240.285 779.3 243.68 777.004 246.761C774.703 249.841 773.464 252.608 773.274 253.988C773.088 255.374 773.96 255.374 775.324 258.581C776.693 261.789 778.553 268.199 777.871 272.665C777.189 277.126 773.96 279.644 769.548 281.527C765.141 283.415 759.551 284.673 758.062 287.313C756.568 289.952 759.175 293.976 759.175 296.681C759.175 299.382 756.568 300.767 752.842 305.543C749.117 310.324 744.269 318.495 738.182 321.764C732.096 325.037 724.77 323.403 720.113 323.21C715.455 323.023 713.465 324.281 710.983 324.91C708.496 325.54 705.513 325.54 704.209 324.784C702.906 324.028 703.282 322.52 703.217 320.322C703.156 318.12 702.66 315.227 701.166 310.765C699.677 306.299 697.195 300.265 694.458 296.93C691.725 293.601 688.747 292.971 686.696 288.256C684.646 283.541 683.528 274.736 684.214 269.645C684.896 264.555 687.378 263.169 688.747 260.342C690.111 257.51 690.361 253.237 688.682 248.456C687.007 243.68 683.402 238.397 680.795 234.879C678.188 231.357 676.573 229.596 677.381 227.901C678.188 226.201 681.417 224.566 683.217 223.059C685.022 221.547 685.393 220.166 682.906 219.664C680.424 219.161 675.084 219.537 671.109 218.593C667.133 217.649 664.525 215.385 662.41 214.568C660.299 213.751 658.685 214.38 656.138 213.751C653.591 213.122 650.116 211.238 647.073 211.3C644.029 211.365 641.418 213.375 636.389 214.446C631.36 215.512 623.904 215.639 619.497 215.01C615.679 214.465 614.143 213.357 612.227 212.619V131.173C612.325 131.055 612.418 130.943 612.506 130.825C613.522 129.491 613.786 128.256 612.227 127.575V108.072C616.069 107.006 620.569 106.4 623.997 105.992C629.805 105.301 632.538 105.174 634.12 104.263C635.707 103.348 636.138 101.652 635.145 99.957C634.152 98.257 631.731 96.5616 629.527 95.8384C627.319 95.1152 625.333 95.3641 623.283 95.2373C621.232 95.1152 619.121 94.6127 618.75 93.8895C618.379 93.1663 619.743 92.2223 622.694 91.5602C625.644 90.9027 630.177 90.5223 634.092 90.2405C638.003 89.9588 641.297 89.7709 644.897 88.0427C648.502 86.3098 652.412 83.0413 655.205 81.0313C658.003 79.0213 659.677 78.2652 662.628 77.697C665.579 77.1334 669.805 76.7577 671.512 76.0626C673.219 75.3723 672.412 74.3673 672.194 72.9819C671.976 71.6013 672.352 69.8401 673.187 68.9291C674.027 68.018 675.33 67.9523 677.255 68.3327C679.181 68.7084 681.728 69.5255 683.314 70.8452C684.896 72.1648 685.518 73.9869 690.705 74.9637C695.887 75.9358 705.638 76.0626 712.068 75.7198C718.498 75.3723 721.602 74.5551 724.023 72.4794C726.445 70.4037 728.185 67.0741 729.832 65.3459C731.479 63.613 733.028 63.4909 736.257 63.7727C739.491 64.0544 744.394 64.7447 747.781 64.5898C751.163 64.4348 753.028 63.4251 755.264 62.9555C757.5 62.4812 760.107 62.5469 760.729 62.0772C761.351 61.6029 759.987 60.598 757.686 59.7809C755.389 58.9637 752.16 58.3344 749.363 58.4612C746.57 58.5833 744.209 59.4662 742.033 59.5273C739.862 59.593 737.876 58.8369 735.543 58.7101C733.214 58.5833 730.546 59.0905 728.403 59.1187C726.26 59.1516 724.645 58.7102 724.334 57.9259C724.023 57.1416 725.016 56.0098 726.167 54.972C727.317 53.9341 728.621 52.9901 729.892 52.1119C731.168 51.2291 732.407 50.4118 734.457 49.5618C736.508 48.7165 739.366 47.8337 737.501 46.7348C735.64 45.6359 729.057 44.3116 725.207 44.8469C721.356 45.3823 720.238 47.7726 717.009 49.8436C713.78 51.9193 708.436 53.6805 706.265 54.7512C704.089 55.8172 705.082 56.1977 706.696 57.9588C708.31 59.7151 710.547 62.8616 709.739 65.1252C708.932 67.3887 705.082 68.7694 703.342 68.8962C701.607 69.023 701.978 67.8913 699.802 66.9473C697.631 66.0034 692.908 65.2473 689.308 63.8666C685.704 62.4813 683.222 60.4712 679.867 60.7248C676.513 60.9737 672.292 63.4909 668.441 64.7448C664.59 66.0034 661.111 66.0034 659.432 63.8666C657.757 61.7299 657.882 57.4515 659.807 56.0098C661.733 54.5633 665.458 55.9441 668.747 54.6855C672.041 53.4316 674.899 49.5337 680.239 45.3823C685.578 41.2308 693.405 36.8304 699.556 34.6937C705.703 32.5569 710.175 32.6837 715.019 31.8008C719.867 30.9226 725.081 29.0347 732.04 28.659C738.994 28.2786 747.688 29.4104 754.958 29.7908C762.223 30.1665 768.059 29.7908 774.025 31.6129C779.987 33.4351 786.073 37.4598 791.413 39.0941C792.731 39.4979 794.006 39.7562 795.217 39.9253ZM795.217 234.015V204.528C795.885 204.715 796.859 204.772 798.618 205.326C801.782 206.336 807.497 208.975 811.909 209.731C816.316 210.482 819.425 209.351 821.596 209.477C823.772 209.604 825.01 210.985 824.393 213.187C823.772 215.385 821.285 218.405 817.62 220.542C813.955 222.678 809.112 223.937 805.326 226.201C801.536 228.464 798.803 231.733 795.76 233.682C795.579 233.799 795.398 233.907 795.217 234.015ZM795.217 305.393V281.325C795.973 281.142 796.706 280.944 797.351 280.705C799.495 279.921 800.673 278.723 801.731 277.624C802.784 276.525 803.716 275.52 804.463 274.924C805.205 274.323 805.767 274.135 806.759 275.14C807.752 276.15 809.181 278.347 809.399 279.954C809.617 281.555 808.625 282.56 807.97 284.006C807.321 285.453 807.01 287.341 805.238 289.318C803.47 291.3 800.237 293.375 799.091 296.174C797.94 298.969 798.873 302.491 798.622 303.97C798.39 305.369 797.096 304.933 795.217 305.393ZM892.182 202.165V202.757C892.131 202.565 892.135 202.367 892.182 202.165ZM892.182 38.2018V42.2264C888.619 42.1325 884.833 42.5411 882.56 42.898C879.544 43.3723 879.173 43.748 879.637 44.6919C880.106 45.6359 881.409 47.1434 886.345 49.1252C887.974 49.778 890.001 50.4823 892.182 51.2525V121.036V190.819C891.439 190.289 890.618 189.739 889.727 189.171C885.135 186.217 878.797 182.695 871.778 180.243C864.764 177.792 857.058 176.407 853.458 174.833C849.853 173.265 850.354 171.504 848.74 170.687C847.121 169.87 843.395 169.996 840.477 168.799C837.559 167.606 835.448 165.089 833.212 162.891C830.976 160.688 828.615 158.801 827.372 159.242C826.128 159.683 826.008 162.45 826.75 164.774C827.497 167.103 829.111 168.987 830.29 171.001C831.473 173.011 832.215 175.148 834.265 176.031C836.316 176.909 839.67 176.533 842.277 177.412C844.885 178.295 846.75 180.431 849.051 181.497C851.347 182.568 854.08 182.568 855.634 183.258C857.183 183.953 857.559 185.334 856.752 186.654C855.945 187.974 853.954 189.232 851.222 190.993C848.489 192.754 845.01 195.018 839.109 195.896C833.212 196.779 824.89 196.276 820.232 196.464C815.569 196.652 814.577 197.53 812.526 198.347C810.48 199.165 807.372 199.921 804.514 200.108C801.661 200.296 799.049 199.921 796.196 195.581C795.871 195.093 795.547 194.553 795.217 193.975V39.9253C798.919 40.4465 802.055 40.146 804.208 40.6673C807.066 41.3576 808.184 43.4944 810.916 45.8237C813.649 48.1483 817.996 50.6608 820.728 50.7265C823.461 50.7876 824.579 48.4019 826.629 47.2702C828.68 46.1384 831.658 46.2605 833.212 47.5801C834.767 48.9044 834.892 51.4169 835.574 52.173C836.256 52.9244 837.499 51.9194 838.803 51.6986C840.106 51.4826 841.475 52.0462 843.089 51.6377C844.704 51.2291 846.564 49.8483 848.151 49.5618C849.733 49.2801 851.036 50.0973 858.088 52.173C865.135 54.2487 877.93 57.5783 884.392 58.804C890.85 60.0298 890.975 59.1516 888.832 57.7051C886.689 56.2587 882.277 54.2487 878.737 53.2109C875.197 52.173 872.53 52.1073 869.203 50.8816C865.882 49.6559 861.906 47.2702 860.82 44.598C859.735 41.9259 861.535 38.9672 864.639 38.2769C867.747 37.5865 872.154 39.1597 877.87 39.2537C882.295 39.3241 887.505 38.5117 892.182 38.2018ZM892.182 20.7084V25.2966C892.019 25.2496 891.857 25.2027 891.69 25.1698C888.832 24.5405 885.26 25.6065 881.924 25.1369C878.584 24.6672 875.48 22.6526 874.223 21.3658C872.961 20.0744 873.555 19.5108 875.03 19.5249C876.506 19.539 878.862 20.14 881.832 20.2809C884.796 20.4218 888.368 20.1072 890.651 20.389C891.235 20.4641 891.732 20.5722 892.182 20.7084ZM892.182 25.2966V20.7084C893.49 21.1029 894.367 21.7039 895.647 22.1501C897.373 22.7465 899.827 23.0611 901.613 23.944C903.395 24.8222 904.517 26.2687 905.974 27.0529C907.435 27.8419 909.235 27.964 910.182 28.4054C911.128 28.8468 911.221 29.5983 909.189 29.9928C907.157 30.3873 902.991 30.4201 899.841 29.2695C896.872 28.1894 894.798 26.0667 892.182 25.2966ZM892.182 42.2264V38.2018C893.541 38.1078 894.858 38.0609 896.097 38.0891C901.595 38.2159 905.57 39.8501 909.356 40.7001C913.146 41.5454 916.751 41.6112 920.787 42.2076C924.823 42.804 929.295 43.9359 930.692 45.0676C932.088 46.1994 930.413 47.3313 926.405 46.7959C922.401 46.2605 916.064 44.0626 912.214 43.7809C908.363 43.4944 906.999 45.1287 904.856 45.0348C902.713 44.9409 899.794 43.1187 895.508 42.4893C894.459 42.3344 893.332 42.2546 892.182 42.2264ZM1033.69 369.078V455.883C1033.01 455.122 1032.48 454.352 1032.15 453.606C1030.91 450.774 1032.65 448.322 1032.68 445.711C1032.71 443.105 1031.03 440.339 1030.57 438.169C1030.1 435.999 1030.85 434.426 1030.25 433.703C1029.66 432.98 1027.74 433.107 1027.09 432.008C1026.44 430.909 1027.06 428.579 1026.34 426.189C1025.63 423.803 1023.58 421.352 1020.53 418.9C1017.49 416.444 1013.46 413.993 1010.69 413.148C1007.93 412.298 1006.44 413.049 1004.64 412.485C1002.84 411.917 1000.73 410.034 999.139 409.94C997.557 409.846 996.499 411.542 995.135 411.574C993.767 411.607 992.092 409.968 991.252 408.494C990.412 407.014 990.413 405.695 989.573 405.446C988.738 405.192 987.058 406.009 985.291 406.512C983.519 407.014 981.658 407.202 979.111 405.883C976.565 404.563 973.336 401.736 973.363 400.51C973.396 399.284 976.69 399.66 978.55 398.904C980.415 398.153 980.851 396.265 980.693 392.902C980.54 389.535 979.793 384.698 980.415 381.584C981.037 378.471 983.022 377.09 983.676 375.075C984.326 373.065 983.644 370.426 984.794 369.2C985.94 367.97 988.923 368.163 990.691 368.853C992.463 369.543 993.02 370.741 994.546 370.741C996.063 370.741 998.55 369.543 1000.63 369.543C1002.71 369.543 1004.39 370.741 1005.54 371.525C1006.69 372.309 1007.31 372.69 1008.39 372.812C1009.48 372.939 1011.03 372.812 1012.34 371.967C1013.64 371.117 1014.7 369.543 1015.6 368.947C1016.5 368.35 1017.25 368.726 1017.84 368.444C1018.42 368.163 1018.86 367.219 1019.57 367.374C1020.29 367.533 1021.28 368.792 1022.55 369.262C1023.83 369.731 1025.38 369.416 1026.28 368.947C1027.18 368.477 1027.43 367.848 1028.14 367.909C1028.86 367.97 1030.04 368.726 1031.06 368.82C1031.91 368.9 1032.66 368.524 1033.69 369.078ZM1033.69 347.368C1031.28 345.86 1028.68 344.325 1026.12 343.141C1021.77 341.131 1017.55 340.126 1014.81 338.238C1012.08 336.35 1010.84 333.584 1008.17 331.513C1005.5 329.438 1001.4 328.052 998.666 326.23C998.104 325.854 997.594 325.455 997.139 325.037C996.884 324.892 996.634 324.784 996.393 324.751C995.715 324.647 995.163 325.136 994.421 325.272C993.679 325.408 992.746 325.187 992.24 325.342C991.73 325.497 991.651 326.023 991.934 326.559C992.106 326.883 992.412 327.212 992.69 327.512C994.175 328.728 995.738 329.87 997.051 331.072C999.663 333.462 1001.28 336.102 1003.63 337.548C1006 338.994 1009.1 339.243 1011.96 341.573C1014.81 343.897 1017.43 348.298 1021.34 350.81C1024.91 353.107 1029.55 353.83 1033.69 354.271V347.368ZM1033.69 327.193V335.707C1033.49 335.622 1033.29 335.58 1033.1 335.594C1032.34 335.655 1031.68 336.632 1031.03 336.599C1030.38 336.566 1029.73 335.533 1029.06 335.702C1028.39 335.876 1027.71 337.262 1027.01 337.543C1026.31 337.825 1025.6 337.008 1025.27 336.158C1024.95 335.313 1025.01 334.43 1025.78 333.946C1026.56 333.458 1028.05 333.364 1028.81 332.312C1029.57 331.255 1029.6 329.245 1030.84 328.254C1031.57 327.676 1032.71 327.446 1033.69 327.193ZM1033.69 301.749V312.132C1033.31 312.658 1033.2 313.207 1033.24 313.762C1033.3 314.598 1033.7 315.443 1033.33 315.837C1032.96 316.232 1031.81 316.166 1031.11 316.936C1030.41 317.706 1030.16 319.313 1029.42 320.205C1028.67 321.102 1027.43 321.29 1026.44 321.67C1025.44 322.046 1024.7 322.614 1023.61 323.084C1022.52 323.553 1021.1 323.934 1020.12 324.591C1019.14 325.253 1018.61 326.197 1017.54 326.244C1016.47 326.291 1014.85 325.441 1013.28 325.079C1011.72 324.718 1010.19 324.845 1009.12 323.962C1008.05 323.084 1007.43 321.196 1006.52 319.782C1005.6 318.369 1004.39 317.425 1003.83 315.823C1003.27 314.217 1003.36 311.954 1003.18 310.023C1002.99 308.089 1002.53 306.487 1002.84 305.055C1003.14 303.622 1004.23 302.369 1005.05 301.486C1005.88 300.608 1006.44 300.105 1006.76 299.711C1007.09 299.316 1007.18 299.034 1007.55 299.678C1007.93 300.326 1008.58 301.894 1009.76 302.209C1010.94 302.524 1012.65 301.58 1014.11 301.345C1015.57 301.11 1016.78 301.58 1017.71 301.613C1018.64 301.645 1019.29 301.237 1020.38 300.983C1021.47 300.734 1022.99 300.64 1024.64 300.983C1026.28 301.331 1028.05 302.115 1029.63 302.181C1031.04 302.232 1032.31 301.716 1033.69 301.749ZM1033.69 87.5919C1027.22 85.286 1020.71 83.0459 1015.75 81.6605C1005.62 78.8287 1002.02 79.5848 996.68 77.5091C991.34 75.4334 984.261 70.5305 977.678 69.3987C971.095 68.2669 965.008 70.9062 960.907 70.9062C956.811 70.9062 954.695 68.2669 953.517 68.2058C952.338 68.1401 952.088 70.6573 952.71 73.1087C953.331 75.5601 954.82 77.9505 953.146 79.1434C951.466 80.3409 946.623 80.3409 944.076 79.3969C941.529 78.453 941.283 76.5651 942.336 74.3673C943.394 72.1648 945.755 69.6523 946.187 68.018C946.623 66.3837 945.134 65.6276 944.883 64.8715C944.637 64.1201 945.63 63.3641 944.758 62.4202C943.89 61.4762 941.158 60.3444 938.333 59.2455C935.507 58.1466 932.585 57.0758 930.752 57.3576C928.924 57.644 928.177 59.2784 926.874 60.1237C925.57 60.9737 923.705 61.0395 923.144 62.1384C922.587 63.2373 923.334 65.3741 922.434 66.6937C921.529 68.018 918.987 68.5205 916.375 66.5998C913.768 64.6837 911.096 60.3444 905.478 56.949C901.711 54.6761 896.617 52.8257 892.182 51.2525V121.036V190.819C895.294 193.041 897.039 194.952 896.436 196.779C895.805 198.704 892.562 200.54 892.182 202.165V202.757C892.205 202.837 892.233 202.922 892.274 203.001C893.207 204.824 899.419 206.336 902.402 209.604C905.38 212.873 905.134 217.902 904.944 222.369C904.759 226.83 904.633 230.728 905.195 233.245C905.756 235.757 906.995 236.889 907.556 238.589C908.113 240.285 907.987 242.548 909.481 242.924C910.97 243.304 914.074 241.792 915.814 242.36C917.553 242.924 917.925 245.563 918.672 247.578C919.418 249.588 920.536 250.973 922.151 250.72C923.765 250.471 925.876 248.583 926.187 247.136C926.498 245.69 925.009 244.685 924.262 243.492C923.515 242.295 923.515 240.914 923.144 239.716C922.773 238.524 922.026 237.519 922.582 235.57C923.144 233.621 925.009 230.728 925.816 228.652C926.623 226.576 926.373 225.322 927.987 224.252C929.602 223.181 933.081 222.303 936.871 222.491C940.657 222.678 944.758 223.937 947.551 223.059C950.348 222.176 951.837 219.161 953.763 218.532C955.688 217.902 958.049 219.664 960.657 220.73C963.268 221.8 966.122 222.176 967.987 222.364C969.852 222.556 970.719 222.556 972.208 224.313C973.702 226.074 975.813 229.596 977.117 231.986C978.42 234.372 978.917 235.631 978.295 237.143C977.673 238.65 975.938 240.411 975.873 241.858C975.813 243.304 977.427 244.436 979.102 243.995C980.781 243.553 982.521 241.543 983.825 241.858C985.129 242.172 985.996 244.812 986.121 247.136C986.246 249.466 985.625 251.476 986.247 253.11C986.868 254.744 988.728 256.003 987.986 257.51C987.239 259.018 983.885 260.779 982.145 262.981C980.41 265.179 980.285 267.823 980.656 270.209C981.027 272.599 981.9 274.736 982.331 276.878C982.767 279.014 982.767 281.151 983.018 283.415C983.263 285.678 983.76 288.069 983.639 289.322C983.514 290.581 982.767 290.708 982.21 290.018C981.649 289.323 981.278 287.815 979.413 284.861C977.553 281.907 974.198 277.502 971.651 275.553C969.105 273.604 967.365 274.111 967.305 275.619C967.24 277.126 968.854 279.644 969.415 282.095C969.972 284.546 969.476 286.937 969.726 290.018C969.972 293.098 970.97 296.869 971.837 299.889C972.705 302.904 973.451 305.168 975.813 307.178C977.446 308.572 979.849 309.845 981.9 311.432C982.215 311.212 982.396 311.592 982.934 311.813C983.477 312.033 984.386 312.085 985.101 312.775C985.82 313.461 986.349 314.781 987.17 315.758C987.996 316.73 989.113 317.359 990.027 318.223C990.941 319.087 991.656 320.191 992.417 320.872C993.177 321.553 993.985 321.82 994.152 321.449C994.221 321.304 994.189 321.06 994.096 320.75C993.85 320.214 993.614 319.655 993.391 319.064C992.208 315.983 991.215 312.085 989.846 309.568C988.483 307.055 986.743 305.924 985.81 304.35C984.878 302.777 984.757 300.767 984.692 299.133C984.632 297.499 984.632 296.24 985.374 295.169C986.121 294.103 987.61 293.22 988.112 291.21C988.608 289.2 988.111 286.054 987.054 283.227C985.996 280.395 984.382 277.883 983.95 274.802C983.514 271.721 984.261 268.072 985.685 266.001C987.114 263.925 989.229 263.423 991.711 264.047C994.198 264.677 997.051 266.438 998.856 268.889C1000.66 271.341 1001.4 274.487 1001.21 276.563C1001.03 278.634 999.909 279.644 1000.9 279.766C1001.9 279.892 1005 279.136 1008.61 279.517C1012.21 279.893 1016.31 281.405 1018.73 280.395C1021.15 279.39 1021.9 275.868 1021.03 272.599C1020.16 269.331 1017.67 266.311 1017.18 263.108C1016.68 259.901 1018.17 256.505 1020.22 254.998C1022.27 253.486 1024.88 253.866 1026 255.059C1027.11 256.252 1026.74 258.266 1026.93 259.647C1027.11 261.033 1027.86 261.789 1029.29 261.094C1030.37 260.568 1031.86 259.201 1033.69 258.637V87.5919ZM1033.69 70.3098V73.9071C1031.2 72.5311 1029.54 71.2866 1030.53 70.6573C1031.01 70.3521 1032.11 70.1924 1033.69 70.3098ZM1042.15 465.741V471.916C1039.82 471.817 1037.29 470.723 1036.31 469.225C1035.22 467.563 1036.06 465.393 1036.76 464.858C1037.46 464.322 1038.02 465.421 1038.72 465.675C1039.42 465.924 1040.26 465.327 1042.07 465.722L1042.15 465.741ZM1042.15 374.935V461.523C1041.78 461.397 1041.4 461.256 1041 461.087C1038.51 460.021 1035.57 458.001 1033.69 455.883V369.078C1033.9 369.191 1034.12 369.341 1034.36 369.543C1035.75 370.741 1037.68 373.695 1039.29 374.761C1040.33 375.451 1041.24 375.357 1042.15 374.935ZM1042.15 352.848V354.83C1040.59 354.915 1037.93 354.703 1034.88 354.398C1034.49 354.356 1034.09 354.318 1033.69 354.271V347.368C1035.37 348.424 1036.95 349.467 1038.35 350.373C1039.89 351.364 1041.22 352.191 1042.15 352.848ZM1042.15 323.356V333.199C1041.28 332.593 1040.28 331.542 1039.48 330.959C1038.42 330.189 1037.71 330.217 1037.71 330.818C1037.71 331.415 1038.42 332.575 1038.38 333.284C1038.33 333.993 1037.52 334.242 1037.57 334.918C1037.62 335.594 1038.52 336.693 1039.31 337.529C1040.1 338.36 1040.78 338.929 1040.47 339.807C1040.16 340.685 1038.86 341.883 1037.69 341.915C1036.53 341.944 1035.5 340.812 1035.18 339.84C1034.85 338.863 1035.22 338.046 1034.98 337.215C1034.79 336.595 1034.26 335.965 1033.69 335.707V327.193C1034.38 327.014 1034.99 326.826 1035.3 326.493C1036.06 325.69 1035.13 324.056 1034.88 323.084C1034.63 322.107 1035.07 321.792 1035.77 321.402C1036.47 321.008 1037.43 320.538 1038.47 320.411C1039.51 320.285 1040.63 320.505 1041.18 321.215C1041.66 321.811 1041.73 322.764 1042.15 323.356ZM1042.15 308.056V309.211C1042.09 309.31 1042.02 309.404 1041.93 309.488C1041.53 309.878 1040.85 310.164 1040.32 310.099C1039.79 310.038 1039.42 309.629 1038.34 309.77C1037.27 309.911 1035.51 310.601 1034.48 311.357C1034.14 311.611 1033.88 311.869 1033.69 312.132V301.749C1033.85 301.753 1034.03 301.763 1034.2 301.786C1035.78 301.988 1037.55 303.059 1038.98 304.252C1040.41 305.449 1041.5 306.769 1041.98 307.68C1042.05 307.816 1042.11 307.938 1042.15 308.056ZM1042.15 297.607V298.081C1042.01 297.902 1041.98 297.752 1042.06 297.668L1042.15 297.607ZM1042.15 90.6444V260.633C1039.81 259.849 1037.5 258.487 1035.5 258.393C1034.86 258.36 1034.26 258.459 1033.69 258.637V87.5919C1036.57 88.6203 1039.44 89.6629 1042.15 90.6444ZM1042.15 72.5451V78.2887C1039.64 76.8939 1037.32 75.8091 1035.25 74.743C1034.71 74.4612 1034.18 74.1841 1033.69 73.9071V70.3098C1035.77 70.4695 1038.69 71.1081 1042.15 72.5451ZM1042.15 298.081V297.607C1042.56 297.456 1043.84 297.724 1045.21 297.48C1046.71 297.212 1048.33 296.329 1049.63 296.16C1050.94 295.986 1051.93 296.522 1051.85 297.179C1051.78 297.841 1050.63 298.626 1049.08 299.067C1047.52 299.504 1045.56 299.603 1044.13 299.208C1043.17 298.94 1042.44 298.452 1042.15 298.081ZM1042.15 308.056V309.211C1042.32 308.924 1042.35 308.563 1042.15 308.056ZM1042.15 354.83V352.848C1043.29 353.651 1043.85 354.21 1043.51 354.52C1043.32 354.699 1042.85 354.792 1042.15 354.83ZM1042.15 471.916V465.741C1043.97 466.154 1046.69 467.52 1047.07 468.911C1047.46 470.329 1045.44 471.775 1042.93 471.916C1042.67 471.93 1042.41 471.93 1042.15 471.916ZM1052.3 371.549V463.994C1051.27 463.543 1050.22 462.974 1048.98 462.688C1047.17 462.27 1044.97 462.467 1042.15 461.523V374.935C1042.66 374.704 1043.17 374.366 1043.7 374.009C1045.19 373 1046.87 371.807 1048.86 371.431C1049.98 371.215 1051.21 371.267 1052.3 371.549ZM1052.3 343.155V346.119C1052.2 346.081 1052.11 346.039 1052.03 346.001C1050.53 345.278 1050.38 343.986 1050.5 343.108C1050.62 342.225 1051.03 341.756 1051.31 341.864C1051.55 341.958 1051.7 342.484 1052.3 343.155ZM1052.3 328.109V330.278C1051.36 330.536 1050.15 330.626 1049 330.405C1047.67 330.156 1046.44 329.494 1045.24 329.198C1044.04 328.898 1042.9 328.963 1042.43 329.292C1041.96 329.621 1042.18 330.217 1042.74 330.72C1043.3 331.222 1044.2 331.635 1044.35 332.312C1044.51 332.983 1043.92 333.927 1042.92 333.613C1042.69 333.537 1042.43 333.392 1042.15 333.199V323.356C1042.23 323.459 1042.31 323.553 1042.41 323.633C1043.08 324.15 1044.42 323.995 1045.13 324.577C1045.85 325.159 1045.94 326.479 1046.54 327.423C1047.15 328.362 1048.27 328.93 1049.32 328.898C1050.38 328.869 1051.37 328.24 1052.27 328.113L1052.3 328.109ZM1052.3 94.2417V259.642C1049.43 260.173 1047.01 261.361 1044.51 261.159C1043.73 261.094 1042.94 260.896 1042.15 260.633V90.6444C1045.79 91.9593 1049.15 93.171 1051.9 94.1102L1052.3 94.2417ZM1052.3 78.035V85.3753C1050.5 83.8772 1048.62 82.4119 1046.8 81.1581C1045.2 80.0544 1043.65 79.1152 1042.15 78.2887V72.5451C1042.58 72.7189 1043.01 72.9068 1043.45 73.1087C1046.23 74.372 1049.3 76.1331 1052.3 78.035ZM1053.82 372.168V464.529C1053.31 464.416 1052.81 464.219 1052.3 463.994V371.549C1052.85 371.694 1053.38 371.901 1053.82 372.168ZM1053.82 344.433V346.583C1053.27 346.443 1052.74 346.297 1052.3 346.119V343.155C1052.39 343.268 1052.5 343.381 1052.63 343.503C1052.94 343.799 1053.36 344.113 1053.82 344.433ZM1053.82 337.726V340.107C1053.4 339.253 1053.45 338.346 1053.82 337.726ZM1053.82 328.442V329.517C1053.58 329.757 1053.19 329.982 1052.69 330.156C1052.56 330.203 1052.43 330.241 1052.3 330.278V328.109C1052.92 328.029 1053.49 328.184 1053.82 328.442ZM1053.82 308.746V310.545C1053.25 309.704 1053.4 309.141 1053.82 308.746ZM1053.82 94.7536V259.431C1053.3 259.473 1052.79 259.548 1052.3 259.642V94.2417C1052.83 94.4248 1053.34 94.5939 1053.82 94.7536ZM1053.82 79.0212V86.6714C1053.32 86.2394 1052.81 85.8073 1052.3 85.3753V78.035C1052.81 78.3591 1053.32 78.6878 1053.82 79.0212ZM1053.82 329.517V328.442C1053.97 328.555 1054.07 328.681 1054.1 328.818C1054.16 329.043 1054.06 329.287 1053.82 329.517ZM1057.17 376.428V464.186C1056.13 464.51 1055.19 464.707 1054.29 464.604C1054.13 464.59 1053.98 464.562 1053.82 464.529V372.168C1054.04 372.295 1054.24 372.441 1054.42 372.591C1055.59 373.605 1055.89 375.179 1057.17 376.428ZM1057.17 346.358V347.79C1056.4 347.185 1055.06 346.898 1053.82 346.583V344.433C1054.67 345.01 1055.7 345.602 1056.71 346.123C1056.86 346.203 1057.02 346.283 1057.17 346.358ZM1057.17 337.52V342.488C1056.16 342.197 1055.13 341.671 1054.48 341.018C1054.19 340.732 1053.98 340.422 1053.82 340.107V337.726L1053.87 337.651C1054.45 336.82 1055.69 336.599 1056.28 336.712C1056.73 336.792 1056.8 337.069 1057.17 337.52ZM1057.17 305.609V313.625C1056.09 312.743 1054.96 311.846 1054.29 311.122C1054.1 310.916 1053.95 310.723 1053.82 310.545V308.746C1053.9 308.68 1053.97 308.619 1054.06 308.563C1054.76 308.089 1055.84 307.901 1056.48 307.286C1056.9 306.886 1057.12 306.299 1057.17 305.609ZM1057.17 296.883V305.022C1057.16 304.834 1057.13 304.642 1057.1 304.444C1056.9 303.247 1056.31 301.894 1056.23 300.969C1056.15 300.044 1056.59 299.537 1056.88 298.546C1057.02 298.081 1057.13 297.508 1057.17 296.883ZM1057.17 285.955V295.925C1057.14 295.517 1057.08 295.094 1056.98 294.681C1056.62 293.281 1055.75 291.962 1055.77 291.065C1055.78 290.173 1056.68 289.698 1056.87 288.975C1057.06 288.252 1056.53 287.28 1057.09 286.115C1057.11 286.063 1057.14 286.007 1057.17 285.955ZM1057.17 95.8102V259.539C1056.22 259.431 1055.31 259.37 1054.44 259.398C1054.23 259.403 1054.03 259.417 1053.82 259.431V94.7536C1055.09 95.1715 1056.2 95.519 1057.17 95.8102ZM1057.17 81.2942V89.6254C1056.14 88.6908 1055 87.6858 1053.82 86.6714V79.0212C1054.97 79.7726 1056.09 80.5381 1057.17 81.2942ZM1060.16 378.231V387.952C1059.87 388.065 1059.62 388.206 1059.45 388.403C1058.79 389.159 1059.17 390.733 1059.76 391.832C1059.88 392.066 1060.02 392.278 1060.16 392.475V463.162C1059.06 463.524 1058.08 463.904 1057.17 464.186V376.428C1057.28 376.536 1057.4 376.639 1057.52 376.743C1058.21 377.306 1059.16 377.78 1060.16 378.231ZM1060.16 347.927V353.107C1059.39 353.111 1058.59 352.862 1058.27 352.224C1057.74 351.186 1058.45 349.11 1057.4 347.997C1057.33 347.922 1057.25 347.856 1057.17 347.79V346.358C1058.28 346.917 1059.36 347.41 1060.16 347.927ZM1060.16 340.079C1059.43 339.318 1058.27 338.572 1057.63 337.999C1057.43 337.82 1057.29 337.661 1057.17 337.52V342.488C1057.83 342.676 1058.49 342.765 1059.04 342.728C1059.49 342.7 1059.87 342.587 1060.16 342.413V340.079ZM1060.16 334.65V337.957C1059.88 337.478 1059.77 336.872 1059.79 336.365C1059.81 335.651 1060.08 335.139 1060.16 334.65ZM1060.16 331.762V334.129C1060.02 333.476 1059.32 332.758 1059.54 332.246C1059.63 332.035 1059.87 331.861 1060.16 331.762ZM1060.16 317.481V319.721C1059.79 319.439 1059.75 318.984 1059.88 318.495C1059.96 318.185 1060.12 317.861 1060.16 317.481ZM1060.16 282.814V317.105C1060.11 316.716 1059.93 316.265 1059.46 315.711C1058.94 315.1 1058.08 314.367 1057.17 313.625V305.609C1057.18 305.421 1057.18 305.224 1057.17 305.022V296.883C1057.19 296.573 1057.19 296.254 1057.17 295.925V285.955C1057.74 284.927 1059.08 283.772 1060.16 282.814ZM1060.16 96.6039V259.99C1059.14 259.821 1058.14 259.652 1057.17 259.539V95.8102C1058.37 96.1624 1059.35 96.4207 1060.16 96.6039ZM1060.16 83.4592V92.3492C1059.76 91.9781 1059.32 91.579 1058.85 91.1516C1058.33 90.6726 1057.76 90.1607 1057.17 89.6254V81.2942C1058.21 82.0315 1059.22 82.7595 1060.16 83.4592ZM1060.16 319.721V317.481C1060.17 317.364 1060.17 317.237 1060.16 317.105V282.814C1060.26 282.724 1060.36 282.635 1060.46 282.546C1061.62 281.494 1062.3 280.738 1062.77 280.301C1063.23 279.86 1063.48 279.733 1064.15 279.733C1064.82 279.733 1065.91 279.86 1066.89 280.409C1067.86 280.959 1068.73 281.935 1069.15 283.316C1069.57 284.701 1069.54 286.491 1068.62 287.261C1067.71 288.031 1065.91 287.782 1064.83 288.364C1063.76 288.947 1063.42 290.36 1064.4 291.774C1065.38 293.188 1067.67 294.601 1068.45 296.268C1069.23 297.935 1068.48 299.851 1068.67 301.472C1068.86 303.092 1069.98 304.411 1069.85 305.557C1069.72 306.708 1068.36 307.68 1067.52 307.821C1066.68 307.962 1066.37 307.271 1065.42 306.708C1064.48 306.14 1062.89 305.698 1061.82 305.684C1060.75 305.67 1060.19 306.079 1060.59 307.178C1061 308.276 1062.37 310.07 1063.47 310.714C1064.57 311.357 1065.41 310.855 1066.31 311.014C1067.21 311.169 1068.17 311.986 1068.24 312.789C1068.3 313.593 1067.46 314.377 1066.81 315.49C1066.15 316.608 1065.69 318.054 1064.58 318.932C1063.48 319.815 1061.75 320.13 1060.8 319.97C1060.52 319.928 1060.31 319.839 1060.16 319.721ZM1060.16 337.957V334.65C1060.19 334.481 1060.19 334.317 1060.16 334.148V334.129V331.762C1060.58 331.621 1061.11 331.65 1061.4 331.997C1061.9 332.575 1061.75 334.054 1062.51 335.012C1063.27 335.97 1064.94 336.411 1064.77 337.149C1064.6 337.891 1062.58 338.929 1061.37 338.783C1060.8 338.717 1060.41 338.389 1060.16 337.957ZM1060.16 342.413V340.079C1060.37 340.305 1060.54 340.53 1060.66 340.751C1060.99 341.413 1060.77 342.047 1060.16 342.413ZM1060.16 353.107V347.927C1060.38 348.067 1060.58 348.208 1060.75 348.359C1061.65 349.11 1061.9 349.96 1062.06 350.791C1062.21 351.627 1062.27 352.444 1061.42 352.853C1061.09 353.008 1060.63 353.107 1060.16 353.107ZM1060.16 387.952V378.231C1061.44 378.818 1062.8 379.372 1063.8 380.044C1065.56 381.237 1066.19 382.81 1065.94 384.163C1065.69 385.515 1064.57 386.647 1063.17 387.178C1062.14 387.572 1060.97 387.642 1060.16 387.952ZM1075.71 398.89V458.457C1073.72 459.466 1071.17 460.176 1068.79 460.8C1065.56 461.65 1062.65 462.34 1060.26 463.129L1060.16 463.162V392.475C1060.67 393.203 1061.22 393.701 1061.43 394.222C1061.71 394.879 1061.47 395.574 1062.12 396.044C1062.77 396.518 1064.32 396.767 1065.38 398.275C1066.44 399.787 1066.99 402.553 1068.3 403.685C1069.6 404.817 1071.65 404.314 1073.48 402.205C1074.27 401.304 1075.01 400.111 1075.71 398.89ZM1075.71 376.287V380.218C1075.16 380.096 1074.64 379.95 1074.16 379.762C1071.9 378.851 1070.84 376.902 1071.84 376.334C1072.51 375.949 1074.13 376.203 1075.71 376.287ZM1075.71 356.009V364.908C1075.46 364.65 1075.22 364.392 1075 364.138C1073.45 362.316 1073.02 360.616 1071.4 359.864C1069.79 359.108 1066.99 359.296 1065.6 358.7C1064.2 358.103 1064.2 356.718 1064.7 356.028C1065.19 355.337 1066.18 355.337 1066.93 354.614C1067.67 353.891 1068.17 352.444 1067.86 351.219C1067.55 349.993 1066.44 348.983 1065.91 347.978C1065.38 346.973 1065.44 345.968 1065.91 345.621C1066.37 345.278 1067.24 345.593 1069.04 346.344C1070.84 347.1 1073.58 348.293 1074.6 350.275C1075.48 351.965 1075.11 354.229 1075.71 356.009ZM1075.71 265.142V270.979C1073.85 271.773 1071.47 272.144 1069.98 271.857C1068.08 271.5 1067.58 270.082 1067.67 269.251C1067.77 268.415 1068.45 268.166 1068.65 268.025C1068.86 267.884 1068.57 267.851 1068.72 267.236C1068.86 266.626 1069.41 265.433 1071.36 265.024C1072.54 264.771 1074.25 264.818 1075.71 265.142ZM1075.71 94.5047V258.586C1073.19 259.45 1070.35 260.577 1067.23 260.718C1064.95 260.821 1062.52 260.389 1060.16 259.99V96.6039C1062.69 97.1768 1063.46 96.9796 1063.57 96.4959C1063.73 95.8008 1062.49 94.5094 1060.16 92.3492V83.4592C1061.41 84.389 1062.54 85.2719 1063.51 86.0609C1068.23 89.8977 1069.1 91.532 1072.33 93.1005C1073.3 93.5702 1074.48 94.0397 1075.71 94.5047ZM1110.13 394.471C1109.16 394.818 1108.85 396.011 1110.47 397.49C1112.09 398.97 1115.63 400.726 1117.64 400.886C1119.66 401.041 1120.16 399.599 1121.18 399.787C1122.21 399.975 1123.76 401.797 1124.63 402.018C1125.5 402.238 1125.68 400.853 1124.91 399.533C1124.13 398.214 1122.39 396.955 1121.74 395.795C1121.09 394.63 1121.53 393.56 1120.78 392.179C1120.03 390.794 1118.11 389.098 1116.93 388.563C1115.75 388.028 1115.31 388.657 1115.78 389.441C1116.25 390.23 1117.61 391.174 1117.98 392.273C1118.36 393.372 1117.74 394.63 1116.96 395.133C1116.18 395.635 1115.25 395.387 1113.98 395.006C1112.7 394.63 1111.09 394.128 1110.13 394.471ZM1117.59 526.186H1110.23C1108.51 525.66 1106.68 525.087 1104.85 524.96C1101.22 524.711 1097.61 526.218 1093.83 525.467C1090.04 524.711 1086.06 521.691 1083.05 520.278C1080.04 518.864 1077.99 519.052 1077.86 518.268C1077.74 517.479 1079.54 515.722 1082.58 515.469C1085.63 515.215 1089.91 516.474 1093.33 517.573C1096.74 518.676 1099.29 519.62 1101.09 519.428C1102.89 519.24 1103.95 517.92 1105.34 517.859C1106.74 517.793 1108.48 518.991 1109.66 518.676C1110.84 518.362 1111.46 516.54 1112.09 514.431C1112.71 512.327 1113.33 509.937 1114.47 509.12C1115.63 508.302 1117.3 509.054 1117.27 510.66C1117.24 512.261 1115.5 514.713 1115.87 516.849C1116.25 518.991 1118.73 520.813 1119.07 522.823C1119.28 524.049 1118.7 525.336 1117.59 526.186ZM1075.71 270.979V265.142C1076.65 265.344 1077.48 265.663 1078.03 266.09C1079.44 267.189 1078.95 269.016 1077.05 270.27C1076.66 270.533 1076.21 270.772 1075.71 270.979ZM1075.71 380.218C1077.83 380.687 1080.41 380.842 1082.3 381.96C1084.7 383.378 1086 386.332 1087.83 387.901C1089.66 389.474 1092.02 389.662 1093.85 390.451C1095.69 391.235 1096.99 392.62 1097.52 394.161C1098.05 395.701 1097.8 397.397 1098.01 398.876C1098.23 400.35 1098.91 401.609 1100.13 402.774C1101.34 403.934 1103.08 405.004 1104.13 404.943C1105.19 404.878 1105.56 403.685 1104.88 402.614C1104.19 401.548 1102.45 400.604 1101.37 399.345C1100.28 398.087 1099.85 396.518 1100.87 395.415C1101.9 394.316 1104.38 393.687 1105.28 392.935C1106.18 392.179 1105.5 391.296 1105.38 390.009C1105.25 388.723 1105.69 387.023 1106.09 385.294C1106.5 383.566 1106.87 381.805 1106.18 380.828C1105.5 379.856 1103.76 379.668 1102.52 377.94C1101.28 376.207 1100.53 372.939 1098.91 371.084C1097.3 369.229 1094.82 368.792 1091.8 368.097C1088.79 367.406 1085.25 366.463 1083.76 365.176C1082.27 363.884 1082.83 362.25 1081.59 360.963C1080.34 359.672 1077.3 358.733 1076.12 356.878C1075.95 356.605 1075.82 356.314 1075.71 356.009V364.908C1077.28 366.495 1079.41 368.111 1080.5 369.355C1081.77 370.802 1081.65 371.746 1081.15 373.004C1080.65 374.258 1079.79 375.831 1077.83 376.207C1077.2 376.329 1076.46 376.329 1075.71 376.287V380.218ZM1075.71 458.457V398.89C1076.66 397.256 1077.53 395.57 1078.33 394.471C1079.73 392.555 1080.91 392.428 1081.22 393.625C1081.53 394.818 1080.97 397.335 1081.4 399.252C1081.84 401.168 1083.27 402.487 1083.58 404.375C1083.89 406.263 1083.08 408.714 1082.24 410.504C1081.4 412.298 1080.53 413.429 1081.25 416.759C1081.96 420.093 1084.26 425.625 1084.79 429.148C1085.32 432.665 1084.07 434.177 1084.32 436.441C1084.57 438.704 1086.31 441.719 1086.84 443.668C1087.36 445.617 1086.68 446.5 1086.56 447.444C1086.44 448.383 1086.87 449.393 1086 449.957C1085.13 450.525 1082.96 450.647 1081.59 451.905C1080.22 453.164 1079.66 455.554 1077.62 457.25C1077.07 457.696 1076.43 458.1 1075.71 458.457ZM1162.38 272.116C1161.23 271.172 1159.17 270.425 1157.45 270.336C1155.65 270.242 1154.22 270.871 1150.9 270.993C1147.58 271.12 1142.36 270.744 1139.04 269.645C1135.71 268.542 1134.28 266.72 1131.49 265.654C1128.7 264.583 1124.54 264.268 1120.65 264.55C1116.77 264.832 1113.17 265.715 1113.36 266.311C1113.54 266.907 1117.52 267.222 1120.5 269.016C1123.48 270.805 1125.46 274.079 1128.45 275.492C1131.43 276.906 1135.4 276.464 1138.42 277.159C1141.43 277.85 1143.48 279.672 1146.34 281.024C1149.19 282.377 1152.85 283.255 1154.59 282.471C1156.33 281.682 1156.15 279.23 1157.36 277.817C1158.55 276.427 1161.09 276.037 1162.38 275.281V272.116ZM1162.38 263.475V266.673C1162.03 266.433 1161.75 266.189 1161.58 265.902C1161.08 265.038 1161.55 263.808 1162.38 263.475ZM1162.38 157.89V254.697C1161.56 254.575 1160.73 254.406 1159.9 254.181C1155.56 252.983 1151.33 250.217 1148.04 249.715C1144.75 249.212 1142.39 250.973 1139.28 250.532C1136.18 250.095 1132.33 247.451 1128.72 246.446C1125.12 245.441 1121.77 246.07 1120.59 247.766C1119.41 249.466 1120.4 252.232 1119.78 254.115C1119.16 256.003 1116.92 257.008 1113.76 257.323C1110.59 257.637 1106.49 257.261 1106.18 255.627C1105.87 253.988 1109.34 251.1 1110.22 248.649C1111.08 246.192 1109.34 244.182 1108.42 241.98C1107.48 239.782 1107.36 237.392 1105.62 235.818C1103.88 234.25 1100.52 233.494 1098.41 232.047C1096.3 230.601 1095.43 228.464 1092.89 227.206C1090.34 225.952 1086.11 225.571 1084.13 226.389C1082.14 227.206 1082.39 229.22 1083.88 230.916C1085.37 232.616 1088.11 233.996 1089.97 235.382C1091.83 236.762 1092.82 238.148 1091.52 238.021C1090.22 237.894 1086.61 236.26 1084.38 236.133C1082.14 236.011 1081.27 237.392 1081.71 239.341C1082.14 241.29 1083.88 243.807 1085.8 246.446C1087.73 249.085 1089.85 251.851 1089.97 253.866C1090.09 255.876 1088.23 257.135 1086.05 257.449C1083.88 257.764 1081.4 257.135 1078.29 257.825C1077.47 258.008 1076.61 258.28 1075.71 258.586V94.5047C1078.61 95.5989 1081.82 96.7119 1083.39 97.9424C1085.62 99.7034 1084.51 101.713 1089.28 105.423C1094.07 109.133 1104.75 114.539 1110.65 118.188C1116.55 121.832 1117.67 123.72 1116.67 124.096C1115.68 124.476 1112.58 123.344 1109.78 122.842C1106.99 122.339 1104.5 122.461 1106.49 125.354C1108.48 128.247 1114.94 133.906 1119.97 136.611C1125 139.311 1128.6 139.062 1134.32 141.387C1140.03 143.712 1147.85 148.619 1154.62 152.893C1157.45 154.677 1160.09 156.349 1162.38 157.89ZM1162.38 254.697C1165.91 255.209 1169.37 254.815 1172.14 254.054C1175.55 253.11 1177.91 251.603 1179.84 250.598C1181.76 249.588 1183.26 249.085 1182.51 250.532C1181.76 251.978 1178.78 255.374 1178.41 258.266C1178.04 261.159 1180.27 263.545 1181.76 264.113C1183.26 264.677 1184 263.423 1184 262.225C1184 261.032 1183.26 259.901 1183.69 259.398C1184.12 258.896 1185.74 259.018 1187.35 259.713C1188.97 260.403 1190.58 261.662 1191.02 261.281C1191.45 260.906 1190.71 258.896 1189.71 257.261C1188.72 255.627 1187.48 254.369 1187.97 253.11C1188.47 251.851 1190.71 250.593 1191.2 249.273C1191.7 247.954 1190.46 246.573 1188.66 245.253C1186.86 243.929 1184.49 242.675 1181.27 239.28C1178.04 235.884 1173.94 230.352 1172.76 227.962C1171.58 225.571 1173.32 226.327 1175.55 226.703C1177.79 227.084 1180.52 227.084 1182.88 228.591C1185.24 230.099 1187.23 233.118 1190.52 234.565C1193.81 236.011 1198.41 235.884 1202.69 237.58C1206.98 239.28 1210.96 242.797 1213.5 245.563C1216.05 248.334 1217.16 250.344 1219.15 251.349C1221.14 252.354 1224 252.354 1225.49 253.612C1226.98 254.871 1227.1 257.384 1229.09 259.774C1231.08 262.164 1234.93 264.428 1238.66 265.494C1242.38 266.565 1245.98 266.438 1248.65 267.823C1251.33 269.204 1253.07 272.097 1255.61 273.355C1258.16 274.614 1261.51 274.234 1263.56 275.553C1265.61 276.878 1266.35 279.893 1269.15 282.344C1271.94 284.795 1276.79 286.683 1278.47 287.815C1280.15 288.947 1278.65 289.323 1273.25 288.003C1267.85 286.683 1258.53 283.664 1252.76 281.024C1246.98 278.385 1244.74 276.121 1241.89 276.121C1239.03 276.121 1235.55 278.385 1233.99 280.963C1232.45 283.541 1232.82 286.434 1234.74 287.942C1236.67 289.449 1240.15 289.576 1241.82 290.332C1243.5 291.084 1243.38 292.469 1246.54 293.159C1249.71 293.85 1256.17 293.85 1259.9 293.347C1263.62 292.845 1264.62 291.84 1267.16 292.657C1269.71 293.474 1273.81 296.113 1277.6 297.813C1281.38 299.509 1284.86 300.265 1287.35 302.026C1289.83 303.787 1291.32 306.553 1291.63 308.502C1291.94 310.451 1291.08 311.583 1292.38 313.217C1293.68 314.851 1297.16 316.988 1299.71 317.617C1302.26 318.246 1303.87 317.364 1306.73 319.252C1309.58 321.139 1313.68 325.789 1317.66 329.438C1321.63 333.082 1325.49 335.721 1327.29 336.289C1329.09 336.853 1328.84 335.345 1328.03 333.772C1327.22 332.204 1325.86 330.569 1326.91 329.94C1327.97 329.311 1331.45 329.686 1333.99 331.823C1336.54 333.965 1338.15 337.863 1340.45 341.507C1342.75 345.156 1345.73 348.551 1349.95 353.2C1354.18 357.854 1359.64 363.762 1363.18 367.853C1366.72 371.938 1368.34 374.202 1369.02 376.085C1369.71 377.973 1369.46 379.48 1369.95 380.237C1370.45 380.993 1371.69 380.993 1370.88 377.719C1370.08 374.451 1367.22 367.914 1363.81 363.011C1360.39 358.108 1356.41 354.835 1353.43 349.932C1350.45 345.029 1348.46 338.492 1345.23 332.833C1342.01 327.174 1337.53 322.393 1334.36 317.617C1331.2 312.836 1329.34 308.06 1325.36 303.472C1321.38 298.879 1315.3 294.479 1309.83 290.393C1304.37 286.308 1299.52 282.532 1294.68 277.192C1289.83 271.848 1284.99 264.93 1279.09 258.201C1273.19 251.476 1266.23 244.939 1260.95 240.031C1255.67 235.128 1252.07 231.86 1250.39 229.155C1248.72 226.454 1248.97 224.313 1244.56 220.668C1240.15 217.024 1231.08 211.868 1224.68 206.772C1218.29 201.682 1214.56 196.652 1212.63 194.262C1210.71 191.871 1210.59 192.125 1210.71 193.069C1210.83 194.013 1211.2 195.647 1208.78 195.206C1206.36 194.764 1201.14 192.252 1197.29 189.298C1193.44 186.339 1190.96 182.944 1187.85 181.436C1184.75 179.929 1181.02 180.305 1178.04 178.67C1175.06 177.036 1172.82 173.387 1172.08 170.687C1171.33 167.982 1172.08 166.221 1169.59 163.52C1168.15 161.942 1165.6 160.045 1162.38 157.89V254.697ZM1162.38 266.673C1163.28 267.269 1164.7 267.814 1166.21 268.828C1168.32 270.242 1170.62 272.566 1173.35 273.698C1176.08 274.83 1179.25 274.769 1179.75 273.135C1180.25 271.5 1178.07 268.293 1175.47 266.907C1172.85 265.527 1169.81 265.968 1167.58 265.433C1165.34 264.897 1163.91 263.39 1162.82 263.39C1162.67 263.39 1162.52 263.418 1162.38 263.475V266.673ZM1162.38 275.281V272.116C1162.44 272.163 1162.5 272.205 1162.55 272.252C1163.66 273.261 1163.72 274.454 1162.45 275.239L1162.38 275.281Z" fill="url(#paint0_linear_1601_23002)"/>
<defs>
<linearGradient id="paint0_linear_1601_23002" x1="685.65" y1="-298.5" x2="685.65" y2="760.5" gradientUnits="userSpaceOnUse">
<stop offset="0.422945" stop-color="white"/>
<stop offset="0.758587" stop-color="#515151"/>
</linearGradient>
</defs>
</svg>
