<svg width="1372" height="520" viewBox="0 0 1372 520" fill="none" xmlns="http://www.w3.org/2000/svg">
<path fill-rule="evenodd" clip-rule="evenodd" d="M166.372 196.832V261.482C165.964 261.561 165.555 261.658 165.161 261.788C161.932 262.845 159.325 265.702 156.778 266.198C154.231 266.694 151.744 264.83 149.819 264.273C147.894 263.712 146.53 264.459 145.161 264.83C143.797 265.205 142.429 265.205 141.747 265.637C141.065 266.072 141.065 266.944 142.368 267.751C143.672 268.558 146.279 269.3 146.344 269.61C146.405 269.921 143.923 269.796 141.19 270.357C138.458 270.913 135.475 272.156 134.171 272.156C132.867 272.156 133.238 270.913 130.877 270.542C128.516 270.171 123.426 270.668 119.636 272.281C115.846 273.895 113.364 276.626 110.321 277.743C107.277 278.861 103.673 278.365 99.3907 280.91C95.104 283.456 90.1354 289.043 86.4704 291.96C82.8054 294.876 80.4441 295.126 79.0152 296.119C77.591 297.111 77.0899 298.85 76.1621 301.27C75.2296 303.691 73.861 306.793 72.5574 308.596C71.2538 310.395 70.0105 310.891 69.0177 312.009C68.0249 313.126 67.278 314.865 66.1599 315.236C65.0418 315.612 63.5527 314.615 62.249 314.865C60.9454 315.111 59.8255 316.604 60.0737 318.032C60.3238 319.46 61.9382 320.823 63.4877 321.009C65.0419 321.194 66.5357 320.202 67.8393 319.891C69.1429 319.581 70.261 319.956 69.7646 321.63C69.2682 323.309 67.1527 326.286 65.1068 327.714C63.0563 329.142 61.066 329.017 59.2665 329.578C57.4651 330.134 55.8506 331.377 55.4155 332.865C54.9808 334.358 55.7263 336.097 54.8569 338.017C53.9875 339.941 51.5027 342.055 50.8198 344.04C50.1369 346.029 51.2546 347.888 49.7018 350.619C48.1491 353.35 43.926 356.953 41.0687 360.551C38.2118 364.154 36.7212 367.752 33.6157 373.094C30.5103 378.431 25.7899 385.506 23.306 388.052C20.8217 390.598 20.5726 388.608 22.8709 383.707C25.1687 378.802 30.0134 370.979 32.8707 365.392C35.7275 359.809 36.5969 356.457 38.5844 353.721C40.5718 350.995 43.6778 348.881 45.8512 345.839C48.0247 342.797 49.2676 338.823 48.3977 337.335C47.5283 335.847 44.5467 336.839 41.5034 339.57C38.4605 342.301 35.3545 346.771 33.2432 348.945C31.1319 351.115 30.0134 350.995 28.5228 352.233C27.0322 353.476 25.1687 356.081 23.306 357.078C21.4424 358.071 19.5793 357.449 17.7162 358.131C15.8531 358.813 13.9895 360.802 12.9336 361.298C11.8777 361.794 11.6295 360.802 12.4989 359.499C13.3683 358.191 15.3562 356.578 16.4116 354.904C17.4675 353.225 17.5919 351.491 18.9581 348.635C20.3244 345.779 22.933 341.805 23.8024 340.131C24.6722 338.452 23.8024 339.074 21.8154 341.309C19.828 343.544 16.722 347.392 13.6787 350.684C10.6358 353.972 7.65419 356.703 5.85324 357.695C4.0523 358.692 3.43109 357.945 3.55542 356.768C3.67929 355.585 4.54917 353.972 6.66094 351.862C8.77225 349.752 12.1264 347.142 14.6107 344.35C17.0945 341.559 18.7099 338.578 18.6478 337.21C18.5851 335.847 16.8463 336.097 14.1755 338.017C11.5052 339.941 7.90283 343.544 5.10816 345.839C2.31303 348.139 0.325613 349.131 0.51211 348.57C0.698606 348.013 3.05812 345.904 3.86581 344.476C4.6735 343.047 3.92797 342.301 4.36267 340.562C4.79783 338.823 6.41226 336.092 8.8344 332.74C11.2565 329.392 14.4864 325.418 16.9707 321.505C19.455 317.596 21.1942 313.748 22.9952 311.077C24.7961 308.411 26.6597 306.918 29.5792 304.558C32.4982 302.202 36.4726 298.975 45.2922 291.524C54.1114 284.077 67.7743 272.406 77.0296 264.584C86.2849 256.762 91.1282 252.788 93.9211 249.872C96.7185 246.955 97.4654 245.091 101.344 241.303C105.227 237.519 112.246 231.807 117.029 227.833C121.807 223.864 124.354 221.629 126.934 220.294C129.509 218.958 132.12 218.522 134.728 216.969C137.335 215.42 139.947 212.75 144.447 209.833C148.952 206.917 155.349 203.75 160.471 200.648C162.623 199.345 164.549 198.051 166.372 196.832ZM166.372 178.961C166.205 179.017 166.038 179.087 165.875 179.165C164.103 180.037 162.554 182.397 159.942 184.196C157.335 185.995 153.67 187.238 150.533 189.005C147.397 190.776 144.79 193.071 141.84 195.153C138.889 197.23 135.6 199.094 133.299 200.986C131.002 202.883 129.699 204.807 129.045 206.138C128.395 207.473 128.395 208.219 128.984 208.28C129.573 208.345 130.752 207.723 130.288 208.345C129.819 208.966 127.709 210.825 126.47 212.314C125.227 213.807 124.851 214.924 125.352 215.142C125.848 215.355 127.212 214.674 128.799 213.371C130.381 212.068 132.181 210.144 135.131 207.849C138.082 205.549 142.183 202.883 144.823 200.958C147.462 199.034 148.641 197.852 149.448 196.799C150.255 195.742 150.691 194.81 152.148 194.564C153.609 194.314 156.091 194.75 159.074 193.757C161.399 192.983 164.02 191.342 166.372 190.011V178.961ZM166.372 162.311V176.096C164.869 177.339 163.426 178.549 161.839 179.536C158.954 181.34 155.6 182.393 151.856 184.053C148.112 185.717 143.983 187.98 141.218 189.997C138.458 192.014 137.057 193.785 135.925 194.56C134.793 195.339 133.92 195.121 134.667 194.142C135.414 193.164 137.771 191.425 138.861 190.043C139.947 188.662 139.761 187.642 139.947 186.863C140.132 186.088 140.694 185.56 143.426 183.186C146.159 180.812 151.062 176.592 154.509 174.524C157.956 172.461 159.946 172.553 161.482 171.983C163.018 171.408 164.108 170.166 164.201 168.737C164.293 167.309 163.393 165.696 165.351 163.368C165.634 163.029 165.982 162.673 166.372 162.311ZM166.372 176.096C167.611 175.076 168.886 174.037 170.32 173.082C173.484 170.972 177.399 169.298 181.25 166.674C185.1 164.05 188.891 160.479 192.087 157.841C195.283 155.203 197.895 153.496 198.299 152.69C198.703 151.883 196.898 151.975 195.223 152.815C193.548 153.654 191.994 155.235 190.598 155.532C189.197 155.824 187.958 154.832 186.344 154.864C184.729 154.892 182.739 155.949 182.057 157.298C181.37 158.648 181.992 160.294 181.046 161.444C180.099 162.594 177.585 163.243 175.316 164.128C173.052 165.014 171.03 166.132 170.148 165.802C169.262 165.478 169.513 163.711 171.095 161.801C172.677 159.89 175.599 157.841 177.306 156.32C179.014 154.799 179.51 153.807 179.246 153.668C178.981 153.529 177.956 154.243 175.038 156.121C172.547 157.725 168.668 160.178 166.372 162.311V176.096ZM205.736 153.39V156.784C205.355 157.141 205.017 157.489 204.817 157.799C204.311 158.587 204.692 159.162 205.736 159.237V283.14C205.309 283.076 204.868 283.011 204.413 282.96C200.317 282.463 195.098 282.584 192.426 281.531C189.758 280.474 189.633 278.239 188.018 277.062C186.404 275.879 183.296 275.759 181.06 273.459C178.824 271.164 177.46 266.694 174.852 264.088C172.561 261.797 169.318 260.944 166.372 261.482V196.832C168.896 195.148 171.22 193.6 173.669 192.357C177.891 190.215 182.488 188.977 186.121 186.71C189.758 184.442 192.426 181.155 194.569 179.416C196.712 177.677 198.327 177.492 199.32 177.088C200.312 176.685 200.688 176.063 199.816 175.535C198.948 175.006 196.838 174.575 194.602 175.039C192.365 175.502 190.004 176.87 186.743 179.012C183.481 181.155 179.32 184.071 176.216 185.685C173.113 187.298 171.062 187.609 168.297 188.977C167.685 189.278 167.04 189.631 166.372 190.011V178.961C168.023 178.4 169.912 178.827 172.63 177.941C175.627 176.963 179.631 174.39 182.442 172.433C185.253 170.476 186.868 169.141 188.84 168.399C190.811 167.652 193.14 167.499 194.351 166.952C195.562 166.41 195.655 165.478 195.019 165C194.383 164.518 193.015 164.485 192.319 164.193C191.618 163.897 191.586 163.34 192.551 162.686C193.511 162.033 195.469 161.291 197.798 159.659C200.127 158.031 202.831 155.518 204.664 154.136C205.058 153.835 205.416 153.589 205.736 153.39ZM205.736 145.067C203.523 145.855 200.744 145.924 198.559 146.532C196.323 147.153 194.708 148.331 195.608 148.549C196.508 148.767 199.923 148.025 202.595 147.622C203.736 147.445 204.743 147.334 205.736 147.167V145.067ZM205.736 136.419V140.314C204.168 140.87 202.6 141.297 201.092 141.937C198.823 142.901 196.68 144.343 195.075 144.849C193.465 145.354 192.393 144.918 191.753 144.784C191.108 144.654 190.89 144.826 191.252 144.598C191.618 144.376 192.565 143.754 194.105 142.526C195.641 141.302 197.765 139.47 199.088 138.501C200.41 137.532 200.92 137.421 201.333 137.189C201.741 136.957 202.052 136.6 202.349 136.484C202.641 136.368 202.924 136.489 203.722 136.544C204.214 136.577 204.901 136.586 205.736 136.419ZM205.736 156.784V153.39C206.891 152.671 207.559 152.574 207.921 152.815C208.389 153.125 208.357 153.997 207.596 154.957C207.123 155.555 206.367 156.19 205.736 156.784ZM214.745 158.541V164.073C214.443 164.263 214.147 164.458 213.868 164.657C212.022 165.974 210.871 167.499 211.061 168.195C211.247 168.895 212.769 168.77 214.476 167.838C214.564 167.791 214.657 167.736 214.745 167.685V284.109C211.72 284.466 209.076 283.664 205.736 283.14V159.237C205.782 159.237 205.828 159.241 205.875 159.241C207.021 159.274 208.886 158.745 210.843 158.634C212.068 158.569 213.325 158.662 214.745 158.541ZM214.745 151.53V153.125C213.724 153.543 213.553 153.172 214.058 152.411C214.225 152.161 214.467 151.86 214.745 151.53ZM214.745 139.391C214.253 139.688 213.78 139.98 213.339 140.263C209.739 142.558 208.12 144.172 205.889 145.011C205.838 145.03 205.787 145.048 205.736 145.067V147.167C207.067 146.94 208.375 146.611 209.953 145.883C211.331 145.247 212.917 144.311 214.745 143.24V139.391ZM214.745 131.221V135.098C212.713 136.368 210.426 138.19 208.092 139.34C207.313 139.725 206.524 140.036 205.736 140.314V136.419C206.265 136.312 206.854 136.136 207.489 135.853C209.132 135.125 211.108 133.683 212.555 132.64C213.446 132.005 214.137 131.523 214.745 131.221ZM214.745 126.45V128.819C214.541 128.903 214.337 128.982 214.142 129.065C212.532 129.742 211.525 130.452 210.857 130.795C210.189 131.138 209.865 131.105 209.762 131.003C209.66 130.906 209.786 130.734 210.732 129.886C211.678 129.042 213.451 127.521 214.662 126.52L214.745 126.45ZM214.745 128.819C216.262 128.235 218.076 127.665 218.985 127.039C220.02 126.325 219.876 125.537 219.38 125.105C218.883 124.679 218.03 124.618 217.278 124.827C216.54 125.031 215.905 125.495 214.745 126.45V128.819ZM214.745 135.098L214.777 135.079C216.819 133.804 218.605 133.09 219.537 132.52C220.47 131.945 220.544 131.509 220.229 131.407C219.908 131.309 219.194 131.541 218.405 131.416C217.612 131.291 216.74 130.809 215.84 130.887C215.492 130.92 215.135 131.031 214.745 131.221V135.098ZM214.745 164.073V158.541C215.594 158.467 216.499 158.314 217.487 157.999C220.127 157.164 223.355 155.175 225.049 154.382C226.742 153.594 226.895 153.997 226.352 154.679C225.81 155.36 224.566 156.325 223.527 157.442C222.488 158.56 221.648 159.83 219.955 161.026C218.517 162.042 216.466 163.002 214.745 164.073ZM314.651 132.098C314.136 132.422 313.602 133.108 313.602 133.605C313.602 134.096 314.136 134.397 314.651 134.351V132.098ZM314.651 98.5135C312.35 98.7175 309.96 98.8149 307.887 99.5846C304.969 100.67 302.672 103.09 300.033 105.019C297.393 106.943 294.41 108.367 291.77 109.456C289.13 110.541 286.834 111.288 285.187 112.526C283.54 113.768 282.547 115.507 279.908 116.778C277.268 118.053 272.981 118.86 269.752 120.227C266.523 121.591 264.352 123.515 263.387 125.161C262.422 126.807 262.673 128.17 263.976 128.235C265.28 128.296 267.641 127.053 269.938 126.589C272.239 126.121 274.475 126.431 277.518 125.625C280.562 124.818 284.412 122.894 285.373 123.051C286.338 123.204 284.412 125.439 282.891 127.521C281.369 129.598 280.251 131.523 278.975 132.487C277.704 133.447 276.275 133.447 275.157 133.136C274.039 132.826 273.232 132.204 271.65 132.547C270.063 132.891 267.702 134.193 264.505 134.75C261.309 135.311 257.268 135.125 254.475 134.843C251.678 134.564 250.128 134.193 249.753 133.572C249.381 132.951 250.189 132.084 250.5 131.37C250.81 130.656 250.625 130.095 251.464 129.135C252.3 128.17 254.165 126.807 254.011 126.589C253.854 126.371 251.678 127.303 249.289 128.513C246.9 129.724 244.288 131.212 242.52 132.422C240.748 133.632 239.815 134.564 239.723 135.125C239.63 135.682 240.377 135.867 241.059 136.243C241.741 136.614 242.362 137.17 242.534 137.87C242.706 138.571 242.423 139.41 241.662 140.091C240.901 140.773 239.662 141.302 238.683 141.149C237.705 140.991 236.99 140.152 236.15 139.642C235.311 139.127 234.35 138.941 231.386 139.934C228.417 140.931 223.448 143.101 220.716 144.853C217.983 146.611 217.487 147.941 216.633 149.198C216.058 150.047 215.325 150.853 214.745 151.53V153.125L214.815 153.098C215.905 152.629 217.89 151.326 219.941 150.459C221.991 149.587 224.102 149.152 226.728 147.974C229.349 146.796 232.485 144.872 234.536 143.894C236.587 142.915 237.547 142.883 237.969 143.425C238.387 143.972 238.261 145.09 237.426 145.971C236.586 146.857 235.032 147.51 234.643 148.489C234.258 149.462 235.032 150.77 235.111 151.855C235.19 152.94 234.568 153.812 232.69 155.685C230.811 157.567 227.675 160.451 225.346 161.912C223.017 163.368 221.495 163.4 219.788 164.286C218.169 165.121 216.383 166.725 214.745 167.685V284.109C214.842 284.1 214.94 284.086 215.033 284.077C218.577 283.576 222.673 281.467 226.028 281.281C229.382 281.096 231.989 282.834 233.822 283.641C235.654 284.448 236.712 284.323 237.547 284.573C238.386 284.819 239.008 285.44 241.059 285.691C243.109 285.936 246.584 285.811 250.063 286.062C253.543 286.312 257.022 286.929 259.597 286.65C262.176 286.372 263.851 285.19 264.32 284.29C264.784 283.391 264.037 282.769 261.615 282.399C259.193 282.028 255.097 281.902 252.365 281.559C249.627 281.221 248.263 280.66 245.995 280.414C243.731 280.164 240.562 280.224 238.451 279.575C236.336 278.921 235.283 277.558 234.29 277.215C233.293 276.876 232.365 277.558 231.868 277.34C231.367 277.122 231.307 276.004 232.954 275.072C234.601 274.145 237.955 273.399 239.908 273.737C241.866 274.08 242.423 275.508 244.659 275.666C246.895 275.819 250.81 274.701 253.668 274.641C256.526 274.576 258.326 275.569 261.708 276.004C265.095 276.44 270.063 276.315 272.578 277.433C275.092 278.55 275.157 280.91 275.686 281.935C276.21 282.96 277.208 282.649 277.982 283.145C278.757 283.641 279.318 284.944 280.993 285.565C282.673 286.187 285.465 286.122 288.759 285.408C292.048 284.694 295.839 283.331 299.068 282.895C302.296 282.463 304.969 282.96 308.787 281.749C310.573 281.179 312.614 280.242 314.651 279.246V265.725C314.447 265.743 314.242 265.757 314.038 265.762C310.559 265.887 306.954 264.519 304.222 262.66C301.489 260.796 299.629 258.436 298.757 256.141C297.889 253.845 298.014 251.61 298.014 249.932C298.014 248.258 297.889 247.141 298.757 246.148C299.629 245.156 301.489 244.284 302.918 242.796C304.347 241.303 305.34 239.193 307.265 238.076C309.19 236.958 312.048 236.833 314.47 236.184L314.651 236.133V155.773C314.099 155.458 313.556 155.217 313.013 155.082C311.491 154.707 309.937 155.207 306.458 156.431C302.983 157.656 297.578 159.612 293.978 160.34C290.374 161.073 288.574 160.577 285.901 161.629C283.229 162.686 279.69 165.292 277.143 166.563C274.6 167.838 273.046 167.778 272.364 167.309C271.678 166.846 271.863 165.974 270.843 165.728C269.817 165.478 267.581 165.849 265.749 166.039C263.916 166.224 262.487 166.224 261.555 165.417C260.622 164.611 260.191 162.997 260.53 161.536C260.873 160.076 261.991 158.773 263.638 157.132C265.28 155.486 267.456 153.496 268.667 152.04C269.878 150.58 270.128 149.648 271.961 148.623C273.788 147.603 277.208 146.481 279.04 144.807C280.873 143.133 281.118 140.898 281.8 139.47C282.487 138.042 283.605 137.421 284.565 137.05C285.53 136.674 286.338 136.554 286.676 136.892C287.019 137.235 286.894 138.042 286.245 138.663C285.591 139.285 284.412 139.716 284.44 139.999C284.473 140.277 285.716 140.402 286.676 140.091C287.641 139.781 288.323 139.034 289.409 138.942C290.499 138.849 291.988 139.405 293.635 138.849C295.282 138.288 297.082 136.614 299.318 136.118C301.554 135.622 304.222 136.303 306.244 135.339C308.263 134.379 309.626 131.773 310.123 130.159C310.619 128.546 310.248 127.924 309.255 128.203C308.263 128.481 306.648 129.659 304.598 130.438C302.547 131.212 300.06 131.588 297.857 132.176C295.653 132.765 293.728 133.572 292.239 133.758C290.745 133.943 289.692 133.507 289.163 132.64C288.634 131.773 288.634 130.465 289.659 129.816C290.685 129.163 292.735 129.163 294.039 128.546C295.342 127.924 295.904 126.682 296.957 125.935C298.014 125.194 299.564 124.943 299.94 123.64C300.311 122.337 299.504 119.977 299.193 118.303C298.882 116.625 299.068 115.632 301.615 114.45C304.161 113.272 309.07 111.909 311.552 110.759C313.834 109.702 314.075 108.83 314.651 108.603V98.5135ZM314.651 67.6512V77.0221C314.4 77.291 314.349 77.5738 314.358 77.9401C314.377 78.6031 314.609 79.5398 314.651 80.4718V81.0328C314.632 81.3945 314.572 81.7422 314.451 82.0668C313.955 83.4022 312.401 84.3343 309.979 85.5723C307.557 86.815 304.268 88.3683 302.774 89.5182C301.285 90.6635 301.596 91.4099 301.536 92.495C301.471 93.5846 301.035 95.0081 299.235 95.9401C297.435 96.8721 294.266 97.308 291.38 97.7716C288.49 98.24 285.883 98.7361 283.614 100.099C281.35 101.467 279.425 103.702 277.713 104.602C276.006 105.501 274.517 105.065 272.652 105.844C270.792 106.619 268.555 108.603 266.908 109.628C265.262 110.652 264.208 110.717 264.58 110.064C264.951 109.41 266.751 108.047 268.305 106.837C269.859 105.626 271.163 104.569 270.202 104.847C269.237 105.13 266.008 106.744 263.397 108.45C260.789 110.156 258.804 111.956 255.171 113.449C251.534 114.937 246.259 116.115 243.244 117.51C240.233 118.911 239.486 120.524 239.982 121.206C240.479 121.887 242.219 121.642 244.116 121.113C246.009 120.585 248.059 119.778 250.759 118.317C253.459 116.861 256.814 114.751 258.525 114.283C260.233 113.819 260.293 114.997 261.286 115.558C262.283 116.115 264.208 116.054 267.869 114.163C271.534 112.266 276.938 108.543 281.967 105.779C287.001 103.016 291.659 101.217 294.795 100.257C297.931 99.2925 299.545 99.1673 300.107 99.6356C300.663 100.099 300.167 101.156 297.495 102.427C294.827 103.702 289.979 105.19 284.672 107.551C279.36 109.906 273.584 113.138 268.834 115.744C264.083 118.35 260.358 120.339 257.932 121.206C255.51 122.073 254.392 121.827 252.81 122.013C251.228 122.198 249.177 122.819 247.563 123.473C245.948 124.122 244.765 124.804 244.487 125.49C244.209 126.172 244.83 126.853 244.176 127.382C243.522 127.911 241.597 128.282 240.265 129.181C238.929 130.081 238.182 131.509 234.893 133.34C231.599 135.172 225.763 137.407 221.04 139.767C218.674 140.949 216.587 142.164 214.745 143.24V139.391C218.275 137.254 222.915 134.787 225.67 133.373C228.806 131.759 229.488 131.509 229.734 130.892C229.985 130.271 229.799 129.274 229.303 128.625C228.807 127.971 227.995 127.66 226.631 127.6C225.267 127.54 223.337 127.725 223.123 127.257C222.905 126.793 224.395 125.676 226.287 124.34C228.185 123.005 230.481 121.456 231.256 120.552C232.035 119.652 231.289 119.407 229.827 119.81C228.37 120.214 226.195 121.266 225.387 121.266C224.58 121.266 225.142 120.214 226.32 119.064C227.498 117.914 229.303 116.676 235.139 113.138C240.98 109.6 250.852 103.762 256.317 100.132C261.782 96.5012 262.84 95.073 264.705 93.5846C266.565 92.0915 269.237 90.5382 271.381 89.7036C273.524 88.8644 275.138 88.7391 276.72 88.3682C278.307 87.9973 279.857 87.376 280.914 86.1658C281.967 84.9556 282.529 83.1519 284.514 81.4456C286.505 79.7392 289.919 78.1256 298.242 74.5553C302.774 72.6125 308.764 70.0901 314.651 67.6512ZM314.651 80.4718V81.0328C314.66 80.8474 314.66 80.6619 314.651 80.4718ZM314.651 134.351V132.098C314.883 131.954 315.105 131.88 315.277 131.926C315.838 132.084 315.838 133.512 315.277 134.068C315.105 134.24 314.883 134.328 314.651 134.351ZM323.372 262.071V275.295C322.709 275.508 321.99 275.773 321.211 276.097C319.276 276.909 316.966 278.114 314.651 279.246V265.725C317.889 265.446 320.979 263.926 323.372 262.071ZM323.372 160.183V225.422C322.431 226.025 321.6 226.72 321.085 227.462C319.874 229.201 320.371 231.185 319.629 232.771C318.9 234.315 316.989 235.474 314.651 236.133V155.773C315.639 156.334 316.669 157.118 317.824 157.873C319.443 158.935 321.317 159.946 323.372 160.183ZM323.372 145.183V149.625C322.946 149.676 322.528 149.666 322.162 149.583C320.807 149.277 320.185 147.974 320.682 146.889C321.085 146.003 322.227 145.266 323.372 145.183ZM323.372 132.501V137.156C322.612 136.776 322.032 136.285 321.925 135.714C321.739 134.722 322.983 133.479 323.354 132.547L323.372 132.501ZM323.372 125.254V131.416C323.21 131.031 322.881 130.693 322.482 130.345C321.74 129.691 320.742 129.009 321.178 127.739C321.452 126.941 322.282 125.912 323.372 125.254ZM323.372 115.934V120.58C321.173 121.493 319.267 121.985 318.631 121.498C317.949 120.969 318.756 119.295 320.682 117.742C321.447 117.125 322.384 116.532 323.372 115.934ZM323.372 96.3852V109.271C322.041 109.841 320.682 110.49 319.378 111.07C317.082 112.095 314.971 112.901 314.813 112.651C314.66 112.405 316.46 111.102 316.678 110.105C316.891 109.113 315.528 108.432 314.813 108.557C314.757 108.566 314.702 108.58 314.651 108.603V98.5135C315.588 98.4301 316.511 98.328 317.393 98.1564C319.476 97.753 321.327 96.9555 323.372 96.3852ZM323.372 64.0809V73.767C321.781 74.277 320.32 74.7315 319.142 75.1164C316.312 76.0298 315.124 76.5074 314.651 77.0221V67.6512C317.652 66.4085 320.626 65.1891 323.372 64.0809ZM323.372 149.625V145.183C323.632 145.164 323.897 145.178 324.152 145.238C325.507 145.54 326.601 147.023 326.105 148.108C325.743 148.901 324.528 149.485 323.372 149.625ZM363.437 264.881V273.394C362.82 273.422 362.207 273.431 361.609 273.431C356.209 273.399 352.048 272.096 349.44 271.006C346.828 269.921 345.775 269.054 344.407 269.485C343.043 269.921 341.363 271.66 339.192 272.221C337.016 272.777 334.344 272.156 332.637 272.314C330.93 272.467 330.183 273.399 328.661 273.927C327.469 274.34 325.794 274.507 323.372 275.295V262.071L323.414 262.038C325.961 260.054 327.701 257.694 329.686 255.334C331.677 252.974 333.913 250.618 336.149 249.997C338.385 249.375 340.621 250.493 340.742 252.046C340.867 253.595 338.881 255.584 338.074 257.694C337.267 259.804 337.638 262.038 339.313 262.72C340.992 263.402 343.975 262.535 346.954 261.171C349.937 259.804 352.915 257.94 355.838 258.936C358.417 259.813 360.955 262.929 363.437 264.881ZM363.437 231.227V234.334C363.066 234.389 362.704 234.459 362.356 234.538C359.656 235.159 357.916 236.587 356.381 237.236C354.845 237.89 353.509 237.765 351.519 238.572C349.533 239.379 346.893 241.117 345.2 241.581C343.507 242.049 342.764 241.243 343.354 240.218C343.943 239.193 345.868 237.95 348.897 236.43C351.922 234.909 356.056 233.11 358.598 232.335C361.145 231.556 362.11 231.807 363.261 231.311C363.316 231.283 363.376 231.255 363.437 231.227ZM363.437 120.371C361.957 120.45 360.537 120.024 359.002 119.792C356.766 119.449 354.284 119.513 352.419 119.17C350.558 118.827 349.315 118.085 346.021 119.541C342.732 121.002 337.388 124.665 333.602 125.564C329.812 126.464 327.576 124.6 325.525 124.6C324.76 124.6 324.022 124.864 323.372 125.254V131.416C323.507 131.736 323.526 132.088 323.372 132.501V137.156C323.929 137.439 324.583 137.666 325.214 137.824C326.708 138.195 328.072 138.195 329.659 138.506C331.241 138.816 333.041 139.438 333.602 140.337C334.159 141.237 333.477 142.419 332.048 143.907C330.619 145.396 328.448 147.195 327.701 148.503C326.954 149.805 327.641 150.612 328.879 151.294C330.123 151.975 331.923 152.537 332.451 153.686C332.98 154.832 332.233 156.57 330.586 157.938C328.944 159.302 326.397 160.294 324.068 160.234C323.832 160.229 323.6 160.21 323.372 160.183V225.422C324.634 224.61 326.105 223.971 327.297 223.614C329.376 222.992 330.619 223.243 332.108 222.649C333.602 222.06 335.342 220.632 337.17 220.697C339.002 220.757 340.932 222.311 342.978 223.025C345.028 223.739 347.204 223.614 348.846 224.328C350.493 225.042 351.611 226.59 353.008 226.716C354.409 226.841 356.084 225.538 356.144 223.799C356.209 222.06 354.655 219.89 352.702 218.615C350.744 217.345 348.383 216.969 347.172 215.23C345.961 213.496 345.896 210.389 347.575 207.691C349.25 204.992 352.669 202.692 354.284 200.054C355.898 197.416 355.713 194.439 356.831 192.422C357.949 190.4 360.37 189.348 360.588 187.359C360.806 185.374 358.816 182.458 358.756 179.662C358.691 176.87 360.556 174.199 362.978 172.771C363.131 172.683 363.284 172.6 363.437 172.521V120.371ZM363.437 92.7314V97.4841C362.291 98.3187 361.609 99.8397 361.985 101.198C362.189 101.935 362.699 102.626 363.437 103.169V109.452C362.806 109.535 362.11 109.66 361.331 109.86C357.884 110.727 352.794 112.962 348.944 113.861C345.093 114.761 342.481 114.329 340.463 114.45C338.445 114.575 337.016 115.262 335.652 115.665C334.284 116.068 332.98 116.189 330.995 116.996C329.005 117.802 326.332 119.296 323.911 120.348C323.73 120.427 323.549 120.506 323.372 120.58V115.934C324.876 115.02 326.49 114.098 327.761 113.087C329.877 111.413 331.055 109.484 330.712 108.524C330.373 107.56 328.508 107.56 326.337 108.181C325.391 108.45 324.388 108.84 323.372 109.271V96.3852C324.314 96.1209 325.298 95.9077 326.365 95.7964C329.751 95.4579 333.973 96.1997 337.824 95.6758C341.674 95.1472 345.154 93.3481 348.229 92.3512C351.301 91.3589 353.973 91.1735 356.056 91.6697C358.134 92.1658 359.623 93.3481 361.549 93.1905C362.142 93.1441 362.778 92.9679 363.437 92.7314ZM363.437 50.7455C363.191 50.8011 362.936 50.8568 362.681 50.9031C359.67 51.4966 356.316 51.6172 353.922 52.1782C351.533 52.7346 350.104 53.7316 348.675 54.5059C347.246 55.2803 345.817 55.8413 343.21 56.7084C340.598 57.5801 336.812 58.7578 328.304 62.1102C326.792 62.7037 325.126 63.3714 323.372 64.0809V73.767C327.603 72.4084 332.739 70.6789 335.787 69.0329C339.981 66.7655 340.227 64.6558 342.523 62.8846C344.824 61.1179 349.171 59.6898 352.215 58.2014C355.258 56.7084 356.998 55.155 359.169 54.0098C360.514 53.3003 362.022 52.744 363.437 52.2108V50.7455ZM363.437 71.2863C359.261 73.1782 354.915 75.3111 351.973 76.6604C347.543 78.6866 346.313 78.9371 343.423 78.6913C340.533 78.4409 335.977 77.7036 332.66 77.8242C329.339 77.9493 327.246 78.9324 326.077 79.1179C324.908 79.3033 324.662 78.6867 328.35 76.9062C332.043 75.121 339.67 72.172 344.467 70.3266C349.264 68.4857 351.236 67.7439 351.417 67.1318C351.602 66.5151 350.002 66.0237 349.264 65.4719C348.526 64.9201 348.652 64.3034 351.662 62.5182C354.414 60.8954 359.568 58.2942 363.437 56.4998V71.2863ZM363.437 52.2108C364.318 51.8815 365.163 51.5616 365.91 51.2138C367.867 50.3143 369.171 49.2617 369.913 48.7332C370.66 48.2046 370.846 48.2046 369.607 48.7332C368.466 49.2154 366.137 50.138 363.437 50.7455V52.2108ZM363.437 97.4841V92.7314C364.917 92.2028 366.508 91.3636 368.011 90.9556C370.182 90.3667 372.172 90.6773 374.218 90.4269C376.269 90.1812 378.38 89.3744 380.245 88.3822C382.11 87.3853 383.724 86.2075 384.188 87.0746C384.657 87.9463 383.97 90.8628 381.33 92.9122C378.691 94.9617 374.098 96.1395 370.804 96.5151C367.515 96.886 365.524 96.4501 364.035 97.1317C363.827 97.2291 363.627 97.3449 363.437 97.4841ZM363.437 109.452V103.169C364.286 103.79 365.427 104.221 366.735 104.305C369.19 104.458 372.233 103.401 374.065 103.433C375.898 103.466 376.519 104.583 375.369 105.853C374.218 107.129 371.3 108.557 368.939 109.02C367.111 109.382 365.622 109.164 363.437 109.452ZM363.437 234.334V231.227C364.55 230.685 365.849 229.558 367.826 229.354C369.904 229.136 372.729 229.943 375.183 229.975C377.638 230.008 379.716 229.261 381.33 229.011C382.945 228.765 384.095 229.011 383.613 229.539C383.135 230.068 381.019 230.875 378.881 231.714C376.737 232.549 374.562 233.42 371.644 233.763C369.097 234.06 365.984 233.954 363.437 234.334ZM397.479 249.909V309.264C396.324 308.429 395.267 307.655 394.371 307.01C391.486 304.933 390.367 304.247 389.157 303.445C387.946 302.633 386.642 301.706 386.642 300.867C386.642 300.028 387.946 299.281 387.913 298.85C387.881 298.414 386.517 298.289 385.552 297.079C384.592 295.868 384.03 293.573 384.188 292.052C384.341 290.531 385.213 289.785 385.431 288.575C385.649 287.365 385.213 285.691 385.552 284.23C385.895 282.769 387.013 281.531 387.913 280.011C388.813 278.49 389.5 276.686 389.124 274.887C388.753 273.088 387.324 271.289 385.677 270.635C384.03 269.986 382.17 270.482 377.916 271.349C374.13 272.123 368.452 273.19 363.437 273.394V264.881C363.762 265.136 364.086 265.368 364.406 265.576C367.199 267.375 369.936 267.13 372.233 266.569C374.529 266.012 376.394 265.14 378.756 264.584C381.112 264.023 383.97 263.777 386.392 261.542C388.813 259.307 390.804 255.088 392.664 252.974C394.376 251.04 395.981 250.878 397.479 249.909ZM397.479 224.068V229.85C396.937 230.393 396.366 230.856 395.74 231.153C393.907 232.025 391.578 231.431 390.586 231C389.593 230.564 389.936 230.286 390.771 229.09C391.611 227.893 392.947 225.784 394.515 224.838C395.471 224.263 396.51 224.119 397.479 224.068ZM397.479 118.387V133.35C397.368 133.456 397.252 133.558 397.136 133.665C394.404 136.15 390.804 138.756 389.064 139.405C387.324 140.059 387.449 138.756 386.828 138.631C386.206 138.506 384.842 139.563 384.406 139.405C383.97 139.252 384.466 137.884 383.102 138.195C381.734 138.506 378.505 140.495 377.016 142.201C375.522 143.907 375.773 145.336 376.923 145.771C378.069 146.203 380.119 145.646 382.295 144.965C384.466 144.278 386.767 143.472 387.482 143.754C388.196 144.033 387.324 145.396 388.039 146.421C388.753 147.445 391.049 148.127 394.065 147.26C395.141 146.949 396.306 146.439 397.479 145.869V148.604C396.927 148.934 396.394 149.291 395.897 149.68C393.351 151.665 391.671 154.521 390.618 155.578C389.56 156.635 389.124 155.889 388.41 156.074C387.7 156.26 386.703 157.377 386.206 157.317C385.71 157.252 385.71 156.014 385.306 155.611C384.902 155.207 384.095 155.639 382.513 156.821C380.927 157.999 378.565 159.923 376.519 161.319C374.469 162.714 372.729 163.586 373.165 164.332C373.597 165.074 376.209 165.696 376.269 166.781C376.334 167.87 373.847 169.419 371.115 170.291C368.554 171.102 365.77 171.32 363.437 172.521V120.371C364.114 120.334 364.805 120.195 365.524 119.884C367.821 118.892 370.433 116.161 372.98 114.357C375.522 112.558 378.009 111.691 380.027 112.002C382.045 112.313 383.599 113.801 385.742 114.204C387.885 114.608 390.618 113.926 391.922 114.237C393.225 114.547 393.1 115.85 393.94 116.875C394.631 117.719 395.981 118.377 397.479 118.387ZM397.479 69.6079C396.037 68.7408 394.659 67.4147 393.49 66.6404C391.833 65.5321 390.599 65.5321 389.556 65.3466C388.507 65.1658 387.649 64.7949 386.294 64.8552C384.94 64.9154 383.093 65.4069 380.574 65.8381C378.05 66.2693 374.854 66.6403 369.44 68.7268C367.621 69.4316 365.552 70.3265 363.437 71.2863V56.4998C363.813 56.3282 364.174 56.1612 364.518 56.0035C368.456 54.2184 370.423 53.6064 371.472 52.8088C372.516 52.0067 372.641 51.0237 375.652 49.2432C378.667 47.458 384.573 44.8753 388.387 43.3406C392.2 41.8012 393.921 41.3097 396.445 40.8784C396.774 40.8228 397.122 40.7672 397.479 40.7115V69.6079ZM397.479 148.604V145.869C399.59 144.844 401.724 143.615 403.38 142.976C405.955 141.983 407.384 142.419 407.509 143.068C407.635 143.722 406.452 144.589 404.155 145.581C402.309 146.383 399.739 147.26 397.479 148.604ZM397.479 229.85V224.068C398.106 224.035 398.7 224.04 399.219 223.998C400.555 223.892 401.423 223.456 402.606 223.47C403.784 223.488 405.273 223.952 404.935 224.388C404.591 224.824 402.42 225.227 400.662 226.59C399.507 227.49 398.533 228.807 397.479 229.85ZM431.694 239.258V323.74C428.664 323.035 425.148 324.092 422.601 323.805C419.868 323.494 418.254 321.63 415.772 320.077C413.285 318.528 409.931 317.286 405.927 314.925C403.158 313.293 400.073 311.128 397.479 309.264V249.909C397.614 249.821 397.748 249.723 397.883 249.621C399.497 248.383 400.987 245.898 405.273 244.845C409.56 243.788 416.639 244.159 421.237 243.538C425.83 242.916 427.945 241.303 430.116 240.065C430.636 239.768 431.16 239.494 431.694 239.258ZM431.694 125.18V131.541C429.889 131.23 427.913 130.92 426.359 131.059C423.598 131.305 422.169 132.983 420.49 133.54C418.815 134.101 416.89 133.54 414.714 134.254C412.538 134.968 410.117 136.957 408.442 137.731C406.763 138.506 405.835 138.074 406.452 137.142C407.073 136.21 409.249 134.782 409.806 133.697C410.367 132.612 409.309 131.866 409.746 130.841C410.182 129.816 412.107 128.513 411.332 127.739C410.553 126.96 407.073 126.714 404.406 127.767C401.845 128.778 400.031 130.985 397.479 133.35V118.387C397.795 118.387 398.12 118.359 398.444 118.303C400.305 117.96 402.23 116.532 403.506 116.407C404.777 116.286 405.399 117.464 406.888 117.649C408.382 117.835 410.738 117.028 413.16 117.153C415.582 117.279 418.068 118.331 419.558 119.977C421.051 121.623 421.548 123.858 422.633 124.665C423.719 125.472 425.398 124.85 427.324 124.693C428.734 124.581 430.283 124.72 431.694 125.18ZM431.694 88.1873C430.557 87.821 429.523 87.478 428.674 87.2322C425.909 86.4347 425.171 86.6804 424.002 86.3095C422.833 85.9432 421.232 84.9602 419.08 84.4038C416.927 83.852 414.218 83.7268 413.114 82.869C412.005 82.0066 412.497 80.4116 413.234 78.9973C413.976 77.5831 414.96 76.3497 416.681 75.4316C418.402 74.5089 420.866 73.8922 421.91 72.7887C422.953 71.6805 422.582 70.0808 421.603 69.4038C420.615 68.7268 419.019 68.9772 416.927 70.0808C414.835 71.189 412.251 73.1549 410.344 73.9525C408.437 74.7546 407.208 74.3837 407.639 73.3405C408.071 72.2925 410.158 70.5723 411.388 69.4641C412.622 68.3606 412.988 67.8691 411.884 67.7439C410.775 67.6234 408.191 67.869 405.853 68.6666C403.515 69.4641 401.427 70.8181 399.335 70.3915C398.713 70.2617 398.092 69.9742 397.479 69.6079V40.7115C399.85 40.3406 402.791 39.9279 406.099 38.9124C409.913 37.744 414.222 35.778 417.665 33.9928C421.112 32.2123 423.691 30.6126 425.723 29.6297C427.75 28.6467 429.23 28.2757 431.383 27.6637L431.694 27.5709V88.1873ZM431.694 131.541V125.18C432.204 125.346 432.7 125.555 433.16 125.81C434.899 126.775 436.203 128.388 436.825 129.724C437.446 131.059 437.386 132.111 435.303 132.051C434.394 132.023 433.095 131.782 431.694 131.541ZM431.694 323.74V239.258C433.401 238.502 435.238 238.145 437.507 238.762C440.49 239.569 444.215 242.049 448.191 242.916C452.167 243.788 456.388 243.042 460.179 242.546C463.969 242.049 467.318 241.799 469.93 243.477C472.537 245.156 474.402 248.754 477.817 250.428C481.231 252.107 486.2 251.856 490.361 252.477C494.523 253.099 497.877 254.587 500.238 255.334C502.6 256.08 503.964 256.08 506.821 254.898C509.679 253.72 514.026 251.36 518.127 251.545C522.224 251.736 526.074 254.467 528.872 255.584C531.664 256.702 533.404 256.205 534.708 256.822C536.011 257.443 536.884 259.182 537.505 261.603C538.122 264.023 538.498 267.13 537.255 269.735C536.011 272.341 533.154 274.451 531.108 276.686C529.057 278.921 527.814 281.281 527.814 283.887C527.814 286.497 529.057 289.349 529.679 292.205C530.3 295.062 530.3 297.918 528.992 300.463C527.689 303.009 525.081 305.244 521.978 306.858C518.869 308.471 515.269 309.463 512.597 311.949C509.925 314.429 508.19 318.403 507.689 322.191C507.192 325.975 507.939 329.578 507.007 332.434C506.074 335.286 503.467 337.4 501.792 340.316C500.113 343.233 499.371 346.956 497.942 349.006C496.513 351.055 494.402 351.426 493.655 353.105C492.908 354.778 493.53 357.76 492.166 359.809C490.797 361.854 487.443 362.972 484.896 364.775C482.349 366.574 480.61 369.055 479.306 370.794C478.002 372.533 477.135 373.525 476.448 375.139C475.766 376.752 475.27 378.987 475.831 379.794C476.388 380.601 478.002 379.984 479.246 380.169C480.489 380.355 481.357 381.347 480.489 382.525C479.617 383.707 477.01 385.071 475.145 386.809C473.284 388.548 472.166 390.658 472.101 391.715C472.041 392.768 473.034 392.768 474.217 394.01C475.395 395.253 476.759 397.734 476.328 399.162C475.892 400.59 473.656 400.965 473.345 402.393C473.034 403.817 474.648 406.302 476.574 408.723C478.499 411.143 480.735 413.503 482.846 414.435C484.961 415.367 486.947 414.866 487.94 414.931C488.932 414.992 488.932 415.613 488.436 415.984C487.94 416.359 486.947 416.485 485.643 416.916C484.34 417.352 482.725 418.098 480.8 418.409C478.875 418.715 476.639 418.594 474.588 419.336C472.537 420.083 470.673 421.696 469.123 421.451C467.569 421.2 466.326 419.091 464.525 417.908C462.725 416.73 460.364 416.485 458.439 415.427C456.514 414.37 455.024 412.511 454.403 410.897C453.781 409.284 454.032 407.916 453.781 406.738C453.531 405.556 452.788 404.564 452.477 403.135C452.167 401.707 452.292 399.848 452.412 397.924C452.538 395.999 452.663 394.01 452.412 391.465C452.167 388.919 451.545 385.817 450.427 383.397C449.309 380.976 447.694 379.237 447.509 377.063C447.323 374.893 448.562 372.282 448.687 368.128C448.812 363.969 447.82 358.256 446.266 351.922C444.711 345.593 442.601 338.638 440.304 333.486C438.008 328.335 435.521 324.983 432.352 323.925C432.134 323.856 431.916 323.796 431.694 323.74ZM559.258 49.3127C559.138 49.3405 559.017 49.3637 558.901 49.3961C556.865 49.9247 556.183 51.3204 554.74 51.9881C553.297 52.6558 551.089 52.5909 549.242 52.0809C547.396 51.5708 545.902 50.6064 544.849 50.4534C543.791 50.2957 543.17 50.9496 541.509 51.2602C539.848 51.5709 537.148 51.5383 535.766 52.577C534.383 53.6156 534.323 55.73 536.262 57.3714C538.201 59.0175 542.149 60.1953 545.828 60.1674C549.507 60.135 552.921 58.8922 556.526 58.3497C557.431 58.2153 558.345 58.1226 559.258 58.0438V49.3127ZM445.959 23.6667C455.553 21.1443 471.916 16.962 487.666 13.8275C503.411 10.6931 518.54 8.6019 528.259 7.67917C537.978 6.76111 542.284 7.00684 549.665 6.14441C552.527 5.81055 555.849 5.30969 559.258 4.77185V11.8337C558.679 12.1073 558.108 12.3437 557.477 12.5385C555.079 13.2757 551.757 13.4009 549.052 13.9527C546.343 14.5044 544.251 15.4922 545.73 16.2294C547.206 16.962 552.249 17.4581 555.079 17.7039C557.908 17.9496 558.525 17.9496 557.356 18.622C556.187 19.299 553.232 20.6529 552.063 21.6359C550.894 22.6189 551.511 23.2355 552.555 23.8521C553.603 24.4642 555.079 25.0809 555.385 25.9387C555.696 26.8011 554.833 27.9094 552.495 28.8924C550.161 29.8754 546.343 30.7378 543.944 31.475C541.546 32.2123 540.562 32.8244 540.623 33.5013C540.683 34.1783 541.792 34.9155 542.961 35.3467C544.13 35.778 545.359 35.8986 545.916 36.8213C546.468 37.744 546.343 39.4642 544.993 40.6327C543.638 41.8011 541.054 42.4178 537.918 43.2756C534.782 44.1381 531.089 45.2462 524.692 46.781C518.294 48.3158 509.192 50.2864 504.209 51.9464C499.227 53.6064 498.364 54.9603 497.135 56.189C495.905 57.4178 494.305 58.526 490.245 60.3065C486.186 62.087 479.668 64.5492 475.855 67.0067C472.041 69.4641 470.932 71.9262 469.397 73.3405C467.856 74.7547 465.889 75.121 464.595 77.2725C463.305 79.4239 462.688 83.3606 461.519 85.5723C460.355 87.7887 458.629 88.2801 456.356 88.461C454.078 88.6464 451.248 88.5258 448.604 89.0174C445.959 89.5089 443.501 90.6124 439.868 90.2461C437.349 89.9911 434.268 89.022 431.694 88.1873V27.5709C433.818 26.9635 436.82 26.0639 445.959 23.6667ZM582.747 186.733V193.099C582.209 191.917 581.954 190.655 582.083 189.348C582.167 188.485 582.422 187.604 582.747 186.733ZM582.747 170.147V175.693C582.487 175.336 582.25 174.988 582.083 174.635C581.434 173.286 581.708 171.9 582.747 170.147ZM582.747 49.3405V50.7084C581.425 50.9866 578.933 51.0793 576.322 52.206C573.543 53.3977 570.625 55.7578 567.27 56.8614C564.756 57.6867 562 57.8073 559.258 58.0438V49.3127C561.318 48.9047 564.445 49.1921 566.542 48.9139C568.76 48.6218 569.817 47.6898 572.517 47.611C575.222 47.5322 579.569 48.3111 581.819 49.0067C582.181 49.118 582.487 49.2293 582.747 49.3405ZM559.258 4.77185C564.645 3.92334 570.244 2.98212 574.577 2.45819C578.071 2.03162 580.738 1.8739 582.747 1.8739V4.54474C578.177 5.7132 570.778 7.38702 566.273 8.8476C562.65 10.0253 560.891 11.0733 559.258 11.8337V4.77185ZM582.747 50.7084V49.3405C584.083 49.897 584.027 50.3791 582.984 50.6527C582.909 50.6712 582.83 50.6898 582.747 50.7084ZM584.825 181.493V196.076C583.948 195.172 583.234 194.17 582.747 193.099V186.733C583.429 184.892 584.422 183.07 584.825 181.493ZM584.825 167.235V179.017C584.431 177.733 583.48 176.689 582.747 175.693V170.147C582.997 169.72 583.294 169.271 583.638 168.798C583.99 168.306 584.394 167.778 584.825 167.235ZM582.747 1.8739C583.54 1.86926 584.227 1.89252 584.825 1.92957V3.99298C584.547 4.07178 584.25 4.15051 583.925 4.23865C583.559 4.336 583.164 4.43811 582.747 4.54474V1.8739ZM612.577 129.538V209.954C612.28 209.842 611.974 209.736 611.645 209.643C609.223 208.961 605.748 208.961 602.951 207.844C600.158 206.727 598.047 204.491 595.25 202.692C592.457 200.893 588.977 199.526 586.305 197.416C585.776 196.999 585.28 196.549 584.825 196.076V181.493C584.923 181.118 584.983 180.751 585.002 180.408C585.025 179.912 584.955 179.453 584.825 179.017V167.235C586.5 165.116 588.592 162.672 590.003 160.326C591.77 157.377 592.457 154.581 594.039 152.69C595.621 150.798 598.107 149.805 600.469 148.688C602.825 147.571 605.062 146.328 606.212 143.843C607.363 141.362 607.423 137.639 608.509 134.968C609.515 132.501 611.389 130.938 612.577 129.538ZM612.577 106.73V125.986C612.373 125.898 612.136 125.819 611.863 125.75C609.534 125.161 604.69 125.346 603.322 124.943C601.958 124.54 604.069 123.547 604.227 120.598C604.38 117.649 602.58 112.744 606.119 109.674C607.567 108.413 609.914 107.462 612.577 106.73ZM612.577 75.3343V81.8907C611.431 83.6155 609.849 85.5259 608.355 86.1147C606.62 86.7964 605.001 85.6789 603.048 85.1828C601.09 84.6866 598.794 84.8119 597.551 84.0653C596.307 83.3188 596.122 81.7052 596.961 81.0236C597.797 80.3419 599.661 80.5877 601.248 79.6557C602.83 78.7283 604.134 76.614 605.781 75.5615C607.428 74.5043 609.413 74.5043 611.028 74.8474C611.598 74.968 612.122 75.1302 612.577 75.3343ZM612.577 64.4703V68.9679C612.238 68.8103 611.932 68.6434 611.682 68.4533C610.471 67.5538 610.471 66.1859 611.306 65.2864C611.621 64.9526 612.048 64.679 612.577 64.4703ZM584.825 1.92957C585.772 1.99451 586.486 2.0965 587.001 2.20776C588.541 2.5509 588.337 3.00067 584.825 3.99298V1.92957ZM702.42 1.41022C705.807 2.37463 709.286 4.17377 712.483 4.29895C715.679 4.42413 718.602 2.87079 723.413 2.30975C728.228 1.75336 734.937 2.18457 740.026 2.93109C745.12 3.67761 748.599 4.73016 751.053 4.94812C753.507 5.16602 754.932 4.54474 755.307 4.82294C755.679 5.10577 754.997 6.28345 751.768 6.7193C748.539 7.15057 742.758 6.84448 739.655 7.34064C736.551 7.83676 736.115 9.13971 737.419 9.91406C738.722 10.693 741.766 10.9388 741.084 11.3747C740.402 11.8105 735.99 12.4272 732.014 11.6204C728.043 10.8136 724.498 8.57864 721.051 8.36536C717.604 8.14743 714.255 9.94647 710.776 10.2896C707.296 10.6281 703.696 9.51065 701.274 7.80432C698.848 6.09796 697.609 3.80273 695.216 3.05621C692.826 2.30969 689.287 3.11658 688.633 2.89868C687.983 2.68536 690.215 1.44275 692.979 0.881714C695.744 0.325317 699.038 0.450378 702.42 1.41022ZM612.577 68.9679C613.853 69.5568 615.569 69.9742 616.525 70.6883C617.736 71.5878 617.736 72.951 619.225 73.5445C620.719 74.1334 623.697 73.9479 625.159 74.7222C626.615 75.5012 626.555 77.2354 625.688 78.1071C624.815 78.9742 623.141 78.9741 622.208 79.8134C621.276 80.6526 621.09 82.3265 620.283 83.5367C619.476 84.7469 618.047 85.4934 618.107 86.1147C618.172 86.7361 619.722 87.2322 622.241 86.3929C624.755 85.5537 628.234 83.3838 631.12 82.7903C634.01 82.2014 636.307 83.1983 638.668 82.8876C641.025 82.5769 643.447 80.9633 643.637 79.3775C643.822 77.7964 641.772 76.2431 639.536 75.0932C637.299 73.9479 634.878 73.2014 633.449 72.2416C632.02 71.2771 631.584 70.0994 630.967 69.0097C630.345 67.9247 629.538 66.9324 628.731 66.4363C627.924 65.9402 627.112 65.9402 627.673 65.1334C628.234 64.3266 630.155 62.713 632.02 61.1921C633.885 59.6712 635.685 58.2431 635.625 57.4642C635.56 56.6898 633.635 56.5646 631.306 57.8073C628.977 59.0499 626.244 61.6558 623.544 62.8336C620.84 64.0159 618.172 63.7656 615.996 63.8583C614.632 63.9186 613.468 64.1086 612.577 64.4703V68.9679ZM612.577 81.8907C612.767 81.6032 612.944 81.325 613.111 81.0561C614.257 79.1596 614.693 77.8567 614.289 76.8644C614.029 76.2199 613.417 75.7098 612.577 75.3343V81.8907ZM795.567 277.79C793.818 278.212 791.957 278.541 790.807 279.041C789.16 279.756 788.974 280.808 788.756 281.991C788.538 283.168 788.292 284.471 787.578 287.267C786.864 290.058 785.68 294.343 784.191 296.916C782.702 299.494 780.898 300.366 781.459 301.544C782.016 302.721 784.938 304.215 787.731 304.089C790.529 303.964 793.196 302.225 795.247 301.636C795.353 301.604 795.46 301.576 795.567 301.553V277.79ZM795.567 39.4457V191.546C792.973 187.029 790.125 179.991 786.544 174.761C782.507 168.863 777.539 165.26 774.931 161.782C772.32 158.309 772.074 154.957 771.392 153.093C770.705 151.234 769.587 150.858 768.845 153.158C768.098 155.453 767.727 160.419 769.773 164.518C771.823 168.612 776.295 171.839 779.214 175.377C782.136 178.915 783.5 182.768 785.24 185.685C786.98 188.601 789.09 190.586 790.705 193.322C792.319 196.053 793.437 199.526 794.31 200.954C794.695 201.589 795.033 201.821 795.567 201.964V231.079C792.672 232.753 789.513 233.411 786.358 235.284C783.004 237.269 779.65 240.621 777.353 243.663C775.052 246.705 773.813 249.436 773.623 250.799C773.438 252.167 774.31 252.167 775.674 255.334C777.042 258.501 778.903 264.83 778.221 269.239C777.539 273.644 774.31 276.13 769.898 277.989C765.491 279.853 759.9 281.096 758.411 283.701C756.917 286.307 759.525 290.281 759.525 292.952C759.525 295.618 756.917 296.986 753.192 301.701C749.467 306.422 744.619 314.49 738.532 317.717C732.445 320.949 725.12 319.335 720.462 319.145C715.805 318.959 713.814 320.202 711.332 320.823C708.846 321.445 705.863 321.445 704.559 320.698C703.255 319.952 703.631 318.463 703.566 316.293C703.506 314.119 703.01 311.262 701.516 306.858C700.026 302.448 697.544 296.49 694.807 293.198C692.075 289.91 689.096 289.289 687.046 284.633C684.995 279.978 683.877 271.284 684.564 266.258C685.246 261.232 687.728 259.864 689.097 257.072C690.46 254.277 690.711 250.057 689.031 245.337C687.357 240.621 683.752 235.405 681.145 231.932C678.538 228.454 676.923 226.716 677.73 225.042C678.538 223.363 681.766 221.75 683.566 220.261C685.371 218.768 685.742 217.405 683.256 216.909C680.774 216.413 675.434 216.784 671.458 215.852C667.482 214.92 664.875 212.685 662.76 211.878C660.649 211.071 659.034 211.692 656.487 211.071C653.94 210.45 650.466 208.59 647.422 208.651C644.379 208.716 641.767 210.7 636.738 211.757C631.709 212.81 624.254 212.935 619.847 212.314C616.029 211.776 614.493 210.682 612.577 209.954V129.538C612.675 129.422 612.767 129.311 612.855 129.195C613.871 127.878 614.136 126.659 612.577 125.986V106.73C616.418 105.677 620.918 105.079 624.347 104.676C630.155 103.994 632.888 103.869 634.47 102.969C636.056 102.065 636.488 100.391 635.495 98.7175C634.502 97.039 632.08 95.3651 629.877 94.651C627.669 93.937 625.683 94.1828 623.632 94.0576C621.582 93.937 619.471 93.4408 619.1 92.7268C618.729 92.0127 620.093 91.0807 623.043 90.4269C625.994 89.7778 630.526 89.4023 634.442 89.124C638.353 88.8458 641.646 88.6603 645.246 86.954C648.851 85.243 652.762 82.0159 655.555 80.0314C658.352 78.0468 660.027 77.3003 662.978 76.7393C665.928 76.1828 670.155 75.8118 671.862 75.1256C673.569 74.444 672.762 73.4518 672.544 72.0839C672.326 70.7207 672.701 68.9819 673.537 68.0824C674.376 67.1828 675.68 67.118 677.605 67.4935C679.53 67.8645 682.077 68.6712 683.664 69.9742C685.246 71.2771 685.868 73.0761 691.054 74.0406C696.236 75.0004 705.988 75.1256 712.418 74.7871C718.848 74.444 721.951 73.6372 724.373 71.5877C726.795 69.5383 728.535 66.2509 730.181 64.5445C731.828 62.8336 733.378 62.713 736.607 62.9912C739.84 63.2694 744.744 63.951 748.131 63.7979C751.513 63.6449 753.378 62.6481 755.614 62.1844C757.85 61.7161 760.457 61.7809 761.079 61.3173C761.7 60.8489 760.336 59.8568 758.035 59.0499C755.739 58.2431 752.51 57.6218 749.713 57.747C746.92 57.8675 744.558 58.7393 742.383 58.7996C740.211 58.8645 738.226 58.118 735.892 57.9928C733.563 57.8676 730.896 58.3683 728.752 58.3961C726.609 58.4286 724.995 57.9928 724.684 57.2184C724.373 56.4441 725.366 55.3266 726.516 54.3019C727.667 53.2772 728.971 52.3452 730.242 51.4781C731.518 50.6064 732.756 49.7995 734.807 48.9603C736.857 48.1256 739.715 47.254 737.85 46.169C735.99 45.084 729.407 43.7765 725.556 44.3051C721.706 44.8336 720.587 47.1937 717.359 49.2385C714.13 51.2879 708.785 53.0267 706.614 54.0839C704.438 55.1365 705.431 55.5121 707.046 57.2509C708.66 58.985 710.896 62.0916 710.089 64.3266C709.282 66.5615 705.431 67.9247 703.691 68.0499C701.956 68.1751 702.328 67.0576 700.152 66.1257C697.981 65.1937 693.258 64.4472 689.658 63.084C686.053 61.7162 683.571 59.7315 680.217 59.9819C676.863 60.2277 672.641 62.713 668.791 63.951C664.94 65.1937 661.461 65.1937 659.781 63.084C658.106 60.9743 658.232 56.7501 660.157 55.3266C662.082 53.8984 665.808 55.2617 669.097 54.019C672.391 52.781 675.248 48.9325 680.588 44.8336C685.928 40.7347 693.754 36.39 699.906 34.2803C706.053 32.1706 710.525 32.2958 715.368 31.4241C720.216 30.557 725.431 28.693 732.39 28.3221C739.344 27.9465 748.038 29.0639 755.307 29.4395C762.572 29.8104 768.409 29.4395 774.375 31.2386C780.336 33.0376 786.423 37.0114 791.763 38.625C793.08 39.0237 794.356 39.2787 795.567 39.4457ZM795.567 231.079V201.964C796.235 202.15 797.209 202.206 798.967 202.753C802.131 203.75 807.847 206.356 812.259 207.102C816.666 207.844 819.774 206.726 821.945 206.852C824.121 206.977 825.36 208.34 824.743 210.515C824.121 212.685 821.635 215.666 817.97 217.776C814.305 219.886 809.461 221.128 805.676 223.363C801.885 225.598 799.153 228.825 796.109 230.75C795.929 230.865 795.748 230.972 795.567 231.079ZM795.567 301.553V277.79C796.323 277.609 797.056 277.414 797.701 277.178C799.844 276.403 801.023 275.221 802.08 274.136C803.133 273.051 804.066 272.059 804.813 271.47C805.555 270.876 806.116 270.691 807.109 271.683C808.102 272.68 809.531 274.85 809.749 276.436C809.967 278.017 808.974 279.009 808.32 280.437C807.67 281.865 807.36 283.729 805.588 285.681C803.82 287.638 800.586 289.688 799.44 292.451C798.29 295.21 799.222 298.688 798.972 300.148C798.74 301.53 797.446 301.099 795.567 301.553ZM892.531 199.632V200.216C892.48 200.026 892.485 199.832 892.531 199.632ZM892.531 37.744V41.7177C888.968 41.6249 885.183 42.0284 882.909 42.3808C879.894 42.8491 879.523 43.22 879.987 44.152C880.455 45.084 881.759 46.5724 886.695 48.5291C888.323 49.1736 890.351 49.8691 892.531 50.6295V119.53V188.43C891.789 187.906 890.968 187.363 890.077 186.802C885.484 183.886 879.147 180.408 872.128 177.988C865.113 175.567 857.408 174.199 853.808 172.646C850.203 171.097 850.704 169.359 849.089 168.552C847.47 167.745 843.745 167.87 840.827 166.688C837.909 165.51 835.798 163.025 833.562 160.855C831.326 158.68 828.965 156.816 827.721 157.252C826.478 157.688 826.357 160.419 827.099 162.714C827.846 165.014 829.461 166.873 830.639 168.863C831.822 170.847 832.565 172.957 834.615 173.829C836.666 174.696 840.02 174.325 842.627 175.192C845.234 176.063 847.099 178.173 849.4 179.226C851.697 180.283 854.429 180.283 855.983 180.965C857.533 181.651 857.909 183.014 857.101 184.317C856.294 185.62 854.304 186.863 851.571 188.601C848.839 190.34 845.359 192.575 839.458 193.442C833.562 194.314 825.239 193.818 820.581 194.003C815.919 194.189 814.926 195.056 812.876 195.863C810.83 196.669 807.722 197.416 804.864 197.601C802.011 197.787 799.399 197.416 796.546 193.131C796.221 192.649 795.896 192.116 795.567 191.546V39.4457C799.269 39.9604 802.405 39.6636 804.557 40.1783C807.415 40.8599 808.533 42.9696 811.266 45.2694C813.998 47.5646 818.345 50.0453 821.078 50.1102C823.81 50.1705 824.928 47.8151 826.979 46.6976C829.029 45.5801 832.008 45.7007 833.562 47.0036C835.116 48.3112 835.241 50.7919 835.923 51.5384C836.605 52.2803 837.849 51.288 839.152 51.07C840.456 50.8567 841.825 51.4132 843.439 51.0098C845.053 50.6064 846.914 49.2431 848.5 48.9603C850.082 48.682 851.386 49.489 858.438 51.5384C865.484 53.5879 878.279 56.8753 884.742 58.0855C891.2 59.2957 891.325 58.4286 889.182 57.0005C887.038 55.5724 882.626 53.5879 879.087 52.5631C875.547 51.5384 872.879 51.4735 869.553 50.2633C866.231 49.0531 862.256 46.6976 861.17 44.0593C860.084 41.421 861.885 38.4998 864.988 37.8182C868.096 37.1366 872.504 38.6898 878.219 38.7826C882.645 38.8521 887.855 38.05 892.531 37.744ZM892.531 20.4721V25.0021C892.369 24.9558 892.206 24.9095 892.039 24.877C889.182 24.2557 885.609 25.3081 882.274 24.8445C878.934 24.3808 875.83 22.3916 874.573 21.1212C873.311 19.846 873.905 19.2896 875.38 19.3035C876.855 19.3174 879.212 19.9109 882.181 20.05C885.146 20.1891 888.718 19.8785 891 20.1567C891.585 20.2309 892.081 20.3376 892.531 20.4721ZM892.531 25.0021V20.4721C893.839 20.8615 894.716 21.455 895.997 21.8955C897.722 22.4843 900.177 22.795 901.963 23.6667C903.744 24.5338 904.867 25.9619 906.324 26.7363C907.785 27.5153 909.585 27.6358 910.531 28.0716C911.478 28.5075 911.57 29.2494 909.539 29.6389C907.507 30.0284 903.341 30.0608 900.19 28.9248C897.221 27.8583 895.148 25.7626 892.531 25.0021ZM892.531 41.7177V37.744C893.891 37.6513 895.208 37.6049 896.447 37.6327C901.944 37.7579 905.92 39.3715 909.706 40.2108C913.496 41.0453 917.1 41.1103 921.137 41.6991C925.173 42.288 929.645 43.4055 931.041 44.5229C932.438 45.6404 930.763 46.7579 926.755 46.2293C922.751 45.7007 916.414 43.5307 912.563 43.2524C908.713 42.9696 907.349 44.5833 905.206 44.4905C903.062 44.3978 900.144 42.5986 895.857 41.9773C894.809 41.8243 893.682 41.7455 892.531 41.7177ZM1034.04 364.432V450.138C1033.36 449.387 1032.83 448.627 1032.5 447.889C1031.26 445.094 1033 442.673 1033.03 440.095C1033.06 437.522 1031.38 434.791 1030.91 432.648C1030.45 430.506 1031.2 428.953 1030.6 428.239C1030.01 427.525 1028.09 427.65 1027.44 426.565C1026.79 425.48 1027.41 423.18 1026.69 420.82C1025.98 418.465 1023.93 416.044 1020.88 413.624C1017.84 411.199 1013.81 408.778 1011.04 407.944C1008.28 407.104 1006.79 407.846 1004.99 407.29C1003.19 406.729 1001.08 404.87 999.489 404.777C997.907 404.684 996.849 406.358 995.485 406.39C994.116 406.423 992.442 404.805 991.602 403.349C990.762 401.888 990.762 400.585 989.922 400.339C989.087 400.089 987.408 400.896 985.64 401.392C983.868 401.888 982.008 402.074 979.461 400.771C976.914 399.468 973.685 396.676 973.713 395.466C973.745 394.256 977.039 394.627 978.9 393.88C980.765 393.139 981.201 391.275 981.043 387.955C980.89 384.63 980.143 379.854 980.765 376.78C981.386 373.706 983.372 372.343 984.026 370.353C984.675 368.369 983.994 365.763 985.144 364.553C986.29 363.338 989.273 363.528 991.041 364.21C992.813 364.891 993.369 366.074 994.896 366.074C996.413 366.074 998.899 364.891 1000.98 364.891C1003.06 364.891 1004.74 366.074 1005.89 366.848C1007.04 367.622 1007.66 367.998 1008.74 368.119C1009.83 368.244 1011.38 368.119 1012.69 367.284C1013.99 366.445 1015.05 364.891 1015.95 364.302C1016.85 363.714 1017.6 364.085 1018.18 363.806C1018.77 363.528 1019.21 362.596 1019.92 362.749C1020.64 362.907 1021.63 364.149 1022.9 364.613C1024.18 365.077 1025.73 364.766 1026.63 364.302C1027.53 363.839 1027.78 363.217 1028.49 363.278C1029.21 363.338 1030.39 364.085 1031.41 364.177C1032.26 364.256 1033.01 363.885 1034.04 364.432ZM1034.04 342.996C1031.63 341.508 1029.03 339.992 1026.47 338.823C1022.12 336.839 1017.9 335.847 1015.16 333.983C1012.43 332.119 1011.19 329.388 1008.52 327.343C1005.85 325.293 1001.75 323.925 999.015 322.126C998.454 321.755 997.944 321.361 997.489 320.949C997.234 320.805 996.983 320.698 996.742 320.666C996.065 320.564 995.513 321.046 994.771 321.18C994.028 321.315 993.096 321.097 992.59 321.25C992.08 321.403 992.001 321.922 992.284 322.451C992.455 322.771 992.762 323.095 993.04 323.392C994.525 324.593 996.088 325.72 997.401 326.907C1000.01 329.267 1001.63 331.873 1003.98 333.301C1006.35 334.729 1009.45 334.975 1012.31 337.275C1015.16 339.57 1017.78 343.915 1021.69 346.395C1025.25 348.663 1029.9 349.377 1034.04 349.813V342.996ZM1034.04 323.077V331.483C1033.84 331.4 1033.64 331.358 1033.45 331.372C1032.69 331.432 1032.03 332.397 1031.38 332.364C1030.73 332.332 1030.07 331.312 1029.41 331.479C1028.74 331.65 1028.06 333.018 1027.36 333.296C1026.66 333.575 1025.95 332.768 1025.62 331.929C1025.3 331.094 1025.36 330.222 1026.13 329.745C1026.91 329.262 1028.4 329.17 1029.16 328.131C1029.92 327.088 1029.95 325.103 1031.19 324.125C1031.92 323.554 1033.06 323.327 1034.04 323.077ZM1034.04 297.955V308.207C1033.66 308.726 1033.55 309.269 1033.59 309.816C1033.65 310.641 1034.05 311.476 1033.68 311.865C1033.31 312.255 1032.16 312.19 1031.46 312.95C1030.76 313.711 1030.51 315.296 1029.77 316.177C1029.02 317.063 1027.78 317.249 1026.79 317.624C1025.79 317.995 1025.05 318.556 1023.96 319.02C1022.87 319.483 1021.45 319.859 1020.47 320.508C1019.49 321.162 1018.96 322.094 1017.89 322.14C1016.82 322.187 1015.2 321.347 1013.63 320.99C1012.07 320.633 1010.54 320.759 1009.47 319.887C1008.4 319.02 1007.78 317.156 1006.86 315.76C1005.95 314.364 1004.74 313.432 1004.18 311.851C1003.62 310.266 1003.71 308.031 1003.52 306.125C1003.34 304.215 1002.88 302.633 1003.19 301.219C1003.49 299.805 1004.58 298.567 1005.4 297.695C1006.22 296.828 1006.79 296.332 1007.11 295.943C1007.44 295.553 1007.53 295.275 1007.9 295.91C1008.28 296.55 1008.93 298.099 1010.11 298.409C1011.29 298.72 1013 297.788 1014.45 297.556C1015.92 297.324 1017.13 297.788 1018.06 297.82C1018.99 297.853 1019.64 297.45 1020.73 297.199C1021.82 296.953 1023.34 296.861 1024.99 297.199C1026.63 297.542 1028.4 298.317 1029.98 298.381C1031.39 298.432 1032.66 297.922 1034.04 297.955ZM1034.04 86.5089C1027.57 84.2322 1021.06 82.0205 1016.1 80.6526C1005.97 77.8567 1002.37 78.6032 997.03 76.5538C991.69 74.5043 984.611 69.6635 978.027 68.546C971.444 67.4285 965.358 70.0344 961.257 70.0344C957.16 70.0344 955.045 67.4285 953.866 67.3682C952.688 67.3033 952.438 69.7887 953.059 72.209C953.681 74.6295 955.17 76.9896 953.495 78.1673C951.816 79.3497 946.972 79.3497 944.425 78.4177C941.879 77.4857 941.633 75.6218 942.686 73.4518C943.744 71.2771 946.105 68.7964 946.536 67.1828C946.972 65.5692 945.483 64.8227 945.233 64.0761C944.987 63.3343 945.98 62.5878 945.107 61.6558C944.24 60.7238 941.508 59.6064 938.682 58.5214C935.857 57.4364 932.934 56.3791 931.102 56.6573C929.274 56.9402 928.527 58.5538 927.223 59.3884C925.92 60.2277 924.055 60.2926 923.493 61.3776C922.937 62.4626 923.684 64.5723 922.784 65.8753C921.879 67.1828 919.337 67.679 916.725 65.7826C914.117 63.8907 911.445 59.6064 905.827 56.254C902.06 54.0098 896.966 52.1828 892.531 50.6295V119.53V188.43C895.644 190.623 897.388 192.51 896.785 194.314C896.154 196.215 892.912 198.028 892.531 199.632V200.216C892.554 200.295 892.582 200.379 892.624 200.458C893.556 202.257 899.768 203.75 902.751 206.977C905.73 210.204 905.484 215.17 905.294 219.58C905.108 223.984 904.983 227.833 905.544 230.318C906.106 232.799 907.344 233.916 907.906 235.595C908.462 237.269 908.337 239.504 909.831 239.875C911.32 240.25 914.424 238.757 916.163 239.318C917.903 239.875 918.274 242.481 919.021 244.47C919.768 246.454 920.886 247.822 922.501 247.572C924.115 247.326 926.226 245.462 926.537 244.034C926.848 242.606 925.358 241.613 924.611 240.436C923.865 239.253 923.865 237.89 923.493 236.708C923.122 235.53 922.375 234.538 922.932 232.614C923.493 230.689 925.358 227.833 926.166 225.784C926.973 223.734 926.722 222.496 928.337 221.439C929.951 220.382 933.431 219.515 937.221 219.7C941.006 219.886 945.108 221.128 947.9 220.261C950.698 219.389 952.187 216.413 954.112 215.791C956.038 215.17 958.399 216.909 961.006 217.961C963.618 219.019 966.471 219.39 968.336 219.575C970.201 219.765 971.069 219.765 972.558 221.499C974.052 223.238 976.162 226.716 977.466 229.076C978.77 231.431 979.266 232.674 978.644 234.167C978.023 235.655 976.288 237.394 976.223 238.822C976.162 240.25 977.777 241.368 979.452 240.932C981.131 240.496 982.871 238.512 984.174 238.822C985.478 239.133 986.346 241.739 986.471 244.034C986.596 246.334 985.974 248.318 986.596 249.932C987.218 251.545 989.078 252.788 988.336 254.277C987.589 255.765 984.235 257.504 982.495 259.678C980.76 261.848 980.635 264.459 981.006 266.814C981.377 269.174 982.249 271.284 982.681 273.399C983.117 275.508 983.117 277.618 983.367 279.853C983.613 282.088 984.109 284.448 983.989 285.686C983.864 286.929 983.117 287.054 982.56 286.372C981.999 285.686 981.628 284.198 979.763 281.281C977.902 278.365 974.548 274.015 972.001 272.091C969.454 270.167 967.715 270.667 967.654 272.156C967.589 273.644 969.204 276.13 969.765 278.55C970.322 280.97 969.825 283.331 970.076 286.372C970.322 289.414 971.319 293.137 972.187 296.119C973.054 299.096 973.801 301.33 976.162 303.315C977.795 304.692 980.199 305.949 982.249 307.516C982.565 307.298 982.745 307.674 983.284 307.891C983.826 308.109 984.736 308.16 985.45 308.842C986.169 309.519 986.698 310.822 987.519 311.786C988.345 312.746 989.463 313.368 990.377 314.221C991.291 315.074 992.005 316.164 992.766 316.836C993.527 317.508 994.334 317.772 994.501 317.406C994.571 317.262 994.538 317.021 994.446 316.715C994.2 316.187 993.963 315.635 993.74 315.051C992.557 312.009 991.565 308.16 990.196 305.675C988.832 303.194 987.093 302.077 986.16 300.524C985.228 298.97 985.107 296.986 985.042 295.372C984.982 293.759 984.982 292.516 985.724 291.459C986.471 290.406 987.96 289.535 988.461 287.55C988.958 285.565 988.461 282.459 987.403 279.667C986.346 276.871 984.731 274.391 984.3 271.349C983.864 268.307 984.611 264.705 986.035 262.66C987.464 260.61 989.579 260.114 992.061 260.731C994.548 261.352 997.401 263.091 999.206 265.511C1001.01 267.932 1001.75 271.038 1001.56 273.088C1001.38 275.133 1000.26 276.13 1001.25 276.25C1002.25 276.375 1005.35 275.629 1008.96 276.004C1012.56 276.375 1016.66 277.868 1019.08 276.872C1021.5 275.879 1022.25 272.402 1021.38 269.174C1020.51 265.947 1018.02 262.966 1017.53 259.804C1017.03 256.637 1018.52 253.284 1020.57 251.796C1022.62 250.303 1025.23 250.678 1026.34 251.856C1027.46 253.034 1027.09 255.023 1027.28 256.386C1027.46 257.754 1028.21 258.501 1029.64 257.814C1030.72 257.295 1032.21 255.946 1034.04 255.389V86.5089ZM1034.04 69.4456V72.9973C1031.55 71.6388 1029.89 70.4101 1030.88 69.7887C1031.36 69.4873 1032.45 69.3297 1034.04 69.4456ZM1042.5 459.871V465.968C1040.17 465.871 1037.64 464.791 1036.66 463.311C1035.57 461.67 1036.41 459.528 1037.11 458.999C1037.81 458.471 1038.37 459.556 1039.07 459.806C1039.77 460.052 1040.61 459.463 1042.42 459.852L1042.5 459.871ZM1042.5 370.214V455.707C1042.13 455.582 1041.75 455.443 1041.35 455.276C1038.86 454.223 1035.92 452.23 1034.04 450.138V364.432C1034.25 364.544 1034.47 364.692 1034.7 364.891C1036.1 366.074 1038.03 368.99 1039.64 370.043C1040.68 370.724 1041.59 370.632 1042.5 370.214ZM1042.5 348.408V350.364C1040.94 350.448 1038.28 350.239 1035.23 349.938C1034.83 349.896 1034.44 349.859 1034.04 349.813V342.996C1035.72 344.04 1037.3 345.069 1038.7 345.964C1040.24 346.942 1041.57 347.758 1042.5 348.408ZM1042.5 319.289V329.007C1041.63 328.409 1040.63 327.371 1039.83 326.796C1038.77 326.035 1038.06 326.063 1038.06 326.656C1038.06 327.245 1038.77 328.391 1038.73 329.091C1038.68 329.791 1037.87 330.037 1037.92 330.704C1037.97 331.372 1038.87 332.457 1039.65 333.282C1040.45 334.103 1041.13 334.664 1040.82 335.531C1040.51 336.398 1039.2 337.581 1038.04 337.613C1036.88 337.641 1035.85 336.524 1035.53 335.564C1035.2 334.599 1035.57 333.793 1035.33 332.972C1035.14 332.36 1034.61 331.738 1034.04 331.483V323.077C1034.73 322.901 1035.34 322.715 1035.65 322.386C1036.41 321.593 1035.48 319.98 1035.23 319.02C1034.98 318.055 1035.42 317.745 1036.12 317.36C1036.82 316.97 1037.78 316.507 1038.82 316.381C1039.86 316.256 1040.98 316.474 1041.53 317.174C1042.01 317.763 1042.08 318.704 1042.5 319.289ZM1042.5 304.182V305.323C1042.44 305.42 1042.37 305.513 1042.28 305.596C1041.88 305.981 1041.2 306.264 1040.67 306.199C1040.14 306.139 1039.77 305.735 1038.69 305.874C1037.62 306.014 1035.86 306.695 1034.83 307.442C1034.49 307.692 1034.23 307.947 1034.04 308.207V297.955C1034.2 297.96 1034.38 297.969 1034.55 297.992C1036.13 298.191 1037.9 299.249 1039.33 300.426C1040.76 301.609 1041.84 302.912 1042.33 303.811C1042.4 303.946 1042.46 304.066 1042.5 304.182ZM1042.5 293.865V294.334C1042.36 294.157 1042.33 294.009 1042.41 293.926L1042.5 293.865ZM1042.5 89.5228V257.36C1040.16 256.586 1037.85 255.241 1035.85 255.148C1035.21 255.116 1034.61 255.213 1034.04 255.389V86.5089C1036.92 87.5244 1039.78 88.5537 1042.5 89.5228ZM1042.5 71.6526V77.3235C1039.99 75.9464 1037.66 74.8752 1035.6 73.8227C1035.06 73.5445 1034.53 73.2709 1034.04 72.9973V69.4456C1036.12 69.6032 1039.04 70.2338 1042.5 71.6526ZM1042.5 294.334V293.865C1042.91 293.717 1044.19 293.981 1045.56 293.74C1047.06 293.476 1048.68 292.604 1049.98 292.437C1051.29 292.266 1052.28 292.794 1052.2 293.443C1052.13 294.097 1050.97 294.871 1049.43 295.307C1047.87 295.739 1045.91 295.836 1044.48 295.446C1043.51 295.182 1042.79 294.7 1042.5 294.334ZM1042.5 304.182V305.323C1042.67 305.04 1042.7 304.683 1042.5 304.182ZM1042.5 350.364V348.408C1043.64 349.2 1044.2 349.752 1043.86 350.058C1043.67 350.234 1043.19 350.327 1042.5 350.364ZM1042.5 465.968V459.871C1044.32 460.279 1047.04 461.628 1047.42 463.001C1047.81 464.401 1045.79 465.829 1043.28 465.968C1043.02 465.982 1042.76 465.982 1042.5 465.968ZM1052.64 366.871V458.146C1051.62 457.701 1050.57 457.14 1049.33 456.857C1047.52 456.444 1045.32 456.639 1042.5 455.707V370.214C1043.01 369.987 1043.52 369.653 1044.05 369.301C1045.54 368.304 1047.22 367.126 1049.21 366.755C1050.33 366.542 1051.56 366.593 1052.64 366.871ZM1052.64 338.837V341.763C1052.55 341.726 1052.46 341.684 1052.38 341.647C1050.88 340.933 1050.73 339.658 1050.85 338.791C1050.97 337.919 1051.38 337.456 1051.66 337.562C1051.9 337.655 1052.05 338.174 1052.64 338.837ZM1052.64 323.981V326.123C1051.71 326.378 1050.5 326.466 1049.35 326.248C1048.02 326.003 1046.79 325.349 1045.59 325.057C1044.39 324.76 1043.25 324.825 1042.78 325.15C1042.31 325.474 1042.53 326.063 1043.09 326.559C1043.65 327.055 1044.55 327.463 1044.7 328.131C1044.86 328.794 1044.27 329.726 1043.27 329.415C1043.04 329.341 1042.78 329.197 1042.5 329.007V319.289C1042.58 319.391 1042.66 319.483 1042.76 319.562C1043.43 320.072 1044.77 319.919 1045.48 320.494C1046.2 321.069 1046.29 322.372 1046.89 323.304C1047.5 324.231 1048.62 324.793 1049.67 324.76C1050.73 324.732 1051.72 324.111 1052.62 323.986L1052.64 323.981ZM1052.64 93.0745V256.382C1049.78 256.906 1047.36 258.079 1044.86 257.879C1044.08 257.814 1043.29 257.62 1042.5 257.36V89.5228C1046.14 90.8211 1049.5 92.0174 1052.25 92.9448L1052.64 93.0745ZM1052.64 77.0731V84.3204C1050.85 82.8412 1048.97 81.3945 1047.15 80.1565C1045.55 79.0669 1044 78.1395 1042.5 77.3235V71.6526C1042.93 71.8242 1043.36 72.0097 1043.8 72.209C1046.58 73.4564 1049.65 75.1952 1052.64 77.0731ZM1054.17 367.483V458.675C1053.66 458.563 1053.16 458.369 1052.64 458.146V366.871C1053.2 367.015 1053.73 367.219 1054.17 367.483ZM1054.17 340.098V342.222C1053.62 342.083 1053.09 341.939 1052.64 341.763V338.837C1052.74 338.949 1052.85 339.06 1052.98 339.18C1053.29 339.473 1053.71 339.783 1054.17 340.098ZM1054.17 333.477V335.828C1053.75 334.984 1053.8 334.089 1054.17 333.477ZM1054.17 324.31V325.372C1053.93 325.609 1053.54 325.831 1053.04 326.003C1052.91 326.049 1052.78 326.086 1052.64 326.123V323.981C1053.27 323.902 1053.84 324.055 1054.17 324.31ZM1054.17 304.864V306.64C1053.6 305.81 1053.75 305.253 1054.17 304.864ZM1054.17 93.58V256.173C1053.65 256.215 1053.14 256.289 1052.64 256.382V93.0745C1053.18 93.2553 1053.69 93.4223 1054.17 93.58ZM1054.17 78.0468V85.6001C1053.67 85.1736 1053.16 84.747 1052.64 84.3204V77.0731C1053.16 77.393 1053.67 77.7176 1054.17 78.0468ZM1054.17 325.372V324.31C1054.32 324.422 1054.42 324.547 1054.45 324.681C1054.51 324.904 1054.41 325.145 1054.17 325.372ZM1057.52 371.689V458.336C1056.48 458.656 1055.54 458.851 1054.64 458.749C1054.48 458.735 1054.33 458.707 1054.17 458.675V367.483C1054.39 367.608 1054.59 367.752 1054.76 367.901C1055.94 368.902 1056.24 370.455 1057.52 371.689ZM1057.52 342V343.414C1056.75 342.816 1055.41 342.533 1054.17 342.222V340.098C1055.02 340.669 1056.05 341.253 1057.06 341.768C1057.21 341.847 1057.37 341.925 1057.52 342ZM1057.52 333.273V338.179C1056.5 337.891 1055.48 337.372 1054.83 336.728C1054.54 336.445 1054.33 336.139 1054.17 335.828V333.477L1054.22 333.403C1054.8 332.582 1056.04 332.364 1056.63 332.476C1057.08 332.554 1057.15 332.828 1057.52 333.273ZM1057.52 301.766V309.681C1056.44 308.81 1055.31 307.924 1054.64 307.21C1054.45 307.006 1054.3 306.816 1054.17 306.64V304.864C1054.25 304.799 1054.32 304.738 1054.41 304.683C1055.11 304.215 1056.19 304.029 1056.83 303.422C1057.25 303.027 1057.47 302.448 1057.52 301.766ZM1057.52 293.151V301.187C1057.51 301.001 1057.48 300.811 1057.45 300.616C1057.25 299.434 1056.66 298.099 1056.58 297.185C1056.5 296.272 1056.94 295.771 1057.23 294.793C1057.37 294.334 1057.48 293.768 1057.52 293.151ZM1057.52 282.361V292.205C1057.49 291.802 1057.43 291.385 1057.33 290.977C1056.97 289.595 1056.1 288.292 1056.11 287.406C1056.13 286.525 1057.03 286.057 1057.22 285.343C1057.4 284.629 1056.88 283.669 1057.44 282.519C1057.46 282.468 1057.49 282.412 1057.52 282.361ZM1057.52 94.6232V256.28C1056.57 256.173 1055.66 256.113 1054.79 256.141C1054.58 256.145 1054.38 256.159 1054.17 256.173V93.58C1055.44 93.9926 1056.55 94.3357 1057.52 94.6232ZM1057.52 80.291V88.5167C1056.49 87.5939 1055.35 86.6017 1054.17 85.6001V78.0468C1055.32 78.7887 1056.44 79.5445 1057.52 80.291ZM1060.51 373.469V383.067C1060.22 383.179 1059.97 383.318 1059.8 383.513C1059.14 384.259 1059.52 385.812 1060.11 386.897C1060.23 387.129 1060.37 387.338 1060.51 387.533V457.325C1059.41 457.682 1058.43 458.058 1057.52 458.336V371.689C1057.63 371.795 1057.75 371.897 1057.87 371.999C1058.56 372.556 1059.51 373.024 1060.51 373.469ZM1060.51 343.548V348.663C1059.74 348.667 1058.94 348.422 1058.62 347.791C1058.09 346.766 1058.8 344.717 1057.75 343.618C1057.68 343.544 1057.6 343.479 1057.52 343.414V342C1058.63 342.551 1059.71 343.038 1060.51 343.548ZM1060.51 335.8C1059.78 335.049 1058.62 334.312 1057.98 333.746C1057.78 333.57 1057.64 333.412 1057.52 333.273V338.179C1058.18 338.364 1058.84 338.452 1059.39 338.415C1059.84 338.388 1060.22 338.276 1060.51 338.105V335.8ZM1060.51 330.44V333.704C1060.23 333.231 1060.12 332.633 1060.14 332.133C1060.16 331.428 1060.42 330.922 1060.51 330.44ZM1060.51 327.588V329.925C1060.37 329.281 1059.67 328.571 1059.89 328.066C1059.97 327.857 1060.22 327.686 1060.51 327.588ZM1060.51 313.488V315.7C1060.14 315.422 1060.1 314.972 1060.23 314.49C1060.31 314.184 1060.47 313.864 1060.51 313.488ZM1060.51 279.259V313.117C1060.46 312.732 1060.28 312.287 1059.81 311.74C1059.29 311.137 1058.43 310.414 1057.52 309.681V301.766C1057.53 301.581 1057.53 301.386 1057.52 301.187V293.151C1057.54 292.845 1057.54 292.53 1057.52 292.205V282.361C1058.09 281.346 1059.43 280.205 1060.51 279.259ZM1060.51 95.4069V256.725C1059.49 256.558 1058.49 256.391 1057.52 256.28V94.6232C1058.72 94.971 1059.7 95.226 1060.51 95.4069ZM1060.51 82.4285V91.206C1060.1 90.8397 1059.67 90.4455 1059.2 90.0236C1058.68 89.5506 1058.11 89.0453 1057.52 88.5167V80.291C1058.56 81.019 1059.57 81.7376 1060.51 82.4285ZM1060.51 315.7V313.488C1060.52 313.372 1060.52 313.247 1060.51 313.117V279.259C1060.61 279.171 1060.71 279.083 1060.81 278.995C1061.97 277.956 1062.65 277.21 1063.12 276.779C1063.58 276.343 1063.83 276.218 1064.5 276.218C1065.17 276.218 1066.26 276.343 1067.24 276.885C1068.21 277.428 1069.08 278.392 1069.5 279.756C1069.92 281.123 1069.89 282.89 1068.97 283.65C1068.06 284.411 1066.26 284.165 1065.18 284.74C1064.11 285.315 1063.77 286.711 1064.75 288.106C1065.73 289.502 1068.02 290.898 1068.8 292.544C1069.58 294.19 1068.83 296.082 1069.02 297.681C1069.21 299.281 1070.32 300.584 1070.2 301.715C1070.07 302.851 1068.71 303.811 1067.87 303.95C1067.03 304.089 1066.72 303.408 1065.77 302.851C1064.83 302.29 1063.24 301.854 1062.17 301.841C1061.1 301.827 1060.54 302.23 1060.94 303.315C1061.35 304.4 1062.72 306.171 1063.82 306.806C1064.92 307.442 1065.76 306.946 1066.66 307.103C1067.56 307.256 1068.52 308.063 1068.59 308.856C1068.65 309.649 1067.81 310.423 1067.16 311.522C1066.5 312.626 1066.04 314.054 1064.93 314.921C1063.83 315.793 1062.09 316.103 1061.15 315.946C1060.87 315.904 1060.66 315.816 1060.51 315.7ZM1060.51 333.704V330.44C1060.54 330.273 1060.54 330.111 1060.51 329.944V329.925V327.588C1060.93 327.449 1061.45 327.477 1061.75 327.82C1062.25 328.391 1062.09 329.851 1062.86 330.797C1063.62 331.743 1065.29 332.179 1065.12 332.907C1064.95 333.639 1062.93 334.664 1061.72 334.52C1061.15 334.456 1060.76 334.131 1060.51 333.704ZM1060.51 338.105V335.8C1060.72 336.023 1060.89 336.245 1061.01 336.463C1061.34 337.117 1061.12 337.743 1060.51 338.105ZM1060.51 348.663V343.548C1060.73 343.687 1060.93 343.826 1061.1 343.975C1062 344.717 1062.25 345.556 1062.41 346.377C1062.56 347.202 1062.62 348.009 1061.77 348.412C1061.44 348.565 1060.98 348.663 1060.51 348.663ZM1060.51 383.067V373.469C1061.79 374.049 1063.15 374.596 1064.15 375.259C1065.91 376.437 1066.53 377.99 1066.29 379.326C1066.04 380.661 1064.92 381.778 1063.52 382.302C1062.49 382.692 1061.32 382.761 1060.51 383.067ZM1076.06 393.866V452.679C1074.07 453.676 1071.52 454.376 1069.14 454.993C1065.91 455.832 1062.99 456.514 1060.61 457.293L1060.51 457.325V387.533C1061.02 388.251 1061.57 388.743 1061.78 389.258C1062.06 389.907 1061.82 390.593 1062.47 391.057C1063.12 391.525 1064.67 391.771 1065.73 393.259C1066.79 394.752 1067.34 397.483 1068.65 398.601C1069.95 399.718 1072 399.222 1073.83 397.14C1074.62 396.25 1075.36 395.072 1076.06 393.866ZM1076.06 371.55V375.431C1075.51 375.31 1074.99 375.166 1074.51 374.981C1072.25 374.081 1071.19 372.157 1072.19 371.596C1072.86 371.216 1074.48 371.466 1076.06 371.55ZM1076.06 351.528V360.315C1075.81 360.06 1075.57 359.805 1075.35 359.554C1073.8 357.755 1073.37 356.077 1071.75 355.335C1070.13 354.588 1067.34 354.774 1065.95 354.185C1064.55 353.596 1064.55 352.228 1065.05 351.547C1065.54 350.865 1066.53 350.865 1067.28 350.151C1068.02 349.437 1068.52 348.009 1068.21 346.799C1067.9 345.588 1066.79 344.592 1066.26 343.599C1065.73 342.607 1065.79 341.615 1066.26 341.272C1066.72 340.933 1067.59 341.244 1069.39 341.986C1071.19 342.732 1073.92 343.91 1074.95 345.867C1075.83 347.536 1075.46 349.771 1076.06 351.528ZM1076.06 261.811V267.575C1074.2 268.358 1071.82 268.725 1070.32 268.442C1068.43 268.089 1067.93 266.689 1068.02 265.868C1068.12 265.043 1068.8 264.797 1069 264.658C1069.21 264.519 1068.92 264.487 1069.07 263.879C1069.21 263.276 1069.76 262.099 1071.71 261.695C1072.89 261.445 1074.6 261.491 1076.06 261.811ZM1076.06 93.3342V255.338C1073.54 256.191 1070.7 257.304 1067.58 257.443C1065.3 257.545 1062.86 257.119 1060.51 256.725V95.4069C1063.04 95.9726 1063.81 95.7778 1063.92 95.3002C1064.08 94.614 1062.84 93.3389 1060.51 91.206V82.4285C1061.76 83.3466 1062.89 84.2183 1063.86 84.9973C1068.58 88.7856 1069.45 90.3991 1072.68 91.9478C1073.65 92.4115 1074.82 92.8752 1076.06 93.3342ZM1110.48 389.503C1109.51 389.846 1109.2 391.024 1110.82 392.485C1112.44 393.945 1115.97 395.679 1117.99 395.837C1120.01 395.99 1120.51 394.567 1121.53 394.752C1122.56 394.938 1124.11 396.737 1124.98 396.955C1125.85 397.172 1126.03 395.805 1125.26 394.502C1124.48 393.199 1122.74 391.956 1122.09 390.811C1121.44 389.661 1121.88 388.604 1121.13 387.241C1120.38 385.873 1118.46 384.199 1117.28 383.67C1116.1 383.142 1115.66 383.763 1116.13 384.537C1116.6 385.316 1117.96 386.248 1118.33 387.333C1118.71 388.418 1118.09 389.661 1117.31 390.157C1116.53 390.653 1115.6 390.407 1114.33 390.032C1113.05 389.661 1111.44 389.165 1110.48 389.503ZM1117.94 519.551H1110.58C1108.86 519.031 1107.03 518.466 1105.2 518.341C1101.57 518.095 1097.96 519.583 1094.18 518.841C1090.38 518.095 1086.41 515.113 1083.4 513.718C1080.39 512.322 1078.34 512.508 1078.21 511.733C1078.09 510.954 1079.89 509.22 1082.93 508.97C1085.98 508.719 1090.26 509.962 1093.68 511.047C1097.09 512.137 1099.64 513.069 1101.44 512.878C1103.24 512.693 1104.3 511.39 1105.69 511.33C1107.09 511.265 1108.83 512.447 1110.01 512.137C1111.19 511.826 1111.81 510.027 1112.44 507.945C1113.06 505.868 1113.68 503.508 1114.82 502.701C1115.97 501.894 1117.65 502.636 1117.62 504.222C1117.59 505.803 1115.85 508.223 1116.22 510.333C1116.6 512.447 1119.08 514.246 1119.42 516.231C1119.63 517.441 1119.05 518.712 1117.94 519.551ZM1076.06 267.575V261.811C1077 262.011 1077.83 262.326 1078.38 262.748C1079.79 263.833 1079.3 265.637 1077.4 266.875C1077.01 267.134 1076.56 267.371 1076.06 267.575ZM1076.06 375.431C1078.18 375.894 1080.76 376.047 1082.65 377.151C1085.05 378.551 1086.35 381.468 1088.18 383.016C1090.01 384.57 1092.37 384.755 1094.2 385.534C1096.04 386.309 1097.34 387.676 1097.87 389.197C1098.4 390.718 1098.15 392.392 1098.36 393.853C1098.58 395.309 1099.26 396.551 1100.48 397.701C1101.69 398.846 1103.43 399.904 1104.48 399.843C1105.54 399.778 1105.91 398.601 1105.23 397.543C1104.54 396.491 1102.8 395.559 1101.72 394.316C1100.63 393.074 1100.2 391.525 1101.22 390.435C1102.25 389.35 1104.73 388.729 1105.63 387.987C1106.53 387.241 1105.85 386.369 1105.73 385.098C1105.6 383.828 1106.04 382.149 1106.44 380.443C1106.84 378.737 1107.22 376.998 1106.53 376.033C1105.85 375.074 1104.11 374.888 1102.87 373.182C1101.63 371.471 1100.88 368.244 1099.26 366.412C1097.65 364.581 1095.17 364.149 1092.15 363.463C1089.14 362.782 1085.6 361.85 1084.11 360.579C1082.62 359.304 1083.18 357.69 1081.94 356.42C1080.69 355.145 1077.65 354.217 1076.47 352.386C1076.3 352.117 1076.17 351.829 1076.06 351.528V360.315C1077.63 361.882 1079.76 363.477 1080.85 364.706C1082.12 366.134 1082 367.066 1081.5 368.309C1081 369.547 1080.14 371.1 1078.18 371.471C1077.55 371.591 1076.81 371.591 1076.06 371.55V375.431ZM1076.06 452.679V393.866C1077.01 392.253 1077.88 390.588 1078.68 389.503C1080.08 387.611 1081.25 387.486 1081.57 388.669C1081.88 389.846 1081.32 392.332 1081.75 394.224C1082.19 396.115 1083.62 397.418 1083.93 399.282C1084.24 401.146 1083.43 403.567 1082.59 405.333C1081.75 407.104 1080.88 408.222 1081.6 411.509C1082.31 414.802 1084.61 420.264 1085.14 423.741C1085.67 427.214 1084.42 428.707 1084.67 430.942C1084.92 433.177 1086.66 436.154 1087.19 438.078C1087.71 440.002 1087.03 440.874 1086.91 441.806C1086.78 442.733 1087.22 443.73 1086.35 444.287C1085.48 444.848 1083.31 444.968 1081.94 446.211C1080.57 447.454 1080.01 449.814 1077.97 451.488C1077.42 451.928 1076.78 452.327 1076.06 452.679ZM1162.73 268.697C1161.58 267.765 1159.52 267.028 1157.8 266.94C1156 266.847 1154.57 267.468 1151.25 267.589C1147.93 267.714 1142.71 267.343 1139.39 266.258C1136.06 265.168 1134.63 263.369 1131.84 262.317C1129.05 261.259 1124.89 260.949 1121 261.227C1117.12 261.505 1113.52 262.377 1113.71 262.966C1113.89 263.555 1117.87 263.865 1120.85 265.637C1123.83 267.403 1125.81 270.635 1128.8 272.031C1131.78 273.426 1135.75 272.99 1138.77 273.677C1141.78 274.358 1143.83 276.157 1146.69 277.493C1149.54 278.828 1153.2 279.695 1154.94 278.921C1156.68 278.142 1156.5 275.722 1157.71 274.326C1158.9 272.953 1161.44 272.569 1162.73 271.822V268.697ZM1162.73 260.165V263.323C1162.38 263.086 1162.1 262.845 1161.93 262.562C1161.43 261.709 1161.9 260.494 1162.73 260.165ZM1162.73 155.917V251.499C1161.91 251.379 1161.08 251.212 1160.25 250.989C1155.9 249.807 1151.68 247.076 1148.39 246.579C1145.1 246.083 1142.74 247.822 1139.63 247.386C1136.53 246.955 1132.68 244.345 1129.07 243.352C1125.47 242.36 1122.12 242.981 1120.94 244.655C1119.76 246.334 1120.75 249.065 1120.13 250.924C1119.51 252.788 1117.27 253.78 1114.11 254.091C1110.94 254.402 1106.84 254.031 1106.53 252.417C1106.22 250.799 1109.69 247.947 1110.57 245.527C1111.43 243.102 1109.69 241.117 1108.77 238.943C1107.83 236.773 1107.71 234.413 1105.97 232.859C1104.23 231.311 1100.87 230.564 1098.76 229.136C1096.65 227.708 1095.78 225.598 1093.24 224.355C1090.69 223.117 1086.46 222.742 1084.48 223.549C1082.49 224.355 1082.74 226.345 1084.23 228.018C1085.72 229.697 1088.45 231.06 1090.32 232.428C1092.18 233.791 1093.17 235.159 1091.87 235.034C1090.57 234.909 1086.96 233.295 1084.73 233.17C1082.49 233.049 1081.62 234.413 1082.06 236.337C1082.49 238.261 1084.23 240.746 1086.15 243.352C1088.08 245.958 1090.19 248.689 1090.32 250.678C1090.44 252.663 1088.58 253.906 1086.4 254.216C1084.23 254.527 1081.75 253.906 1078.64 254.587C1077.82 254.768 1076.96 255.037 1076.06 255.338V93.3342C1078.96 94.4146 1082.17 95.5135 1083.74 96.7284C1085.97 98.4672 1084.85 100.452 1089.63 104.115C1094.42 107.778 1105.1 113.115 1111 116.717C1116.9 120.316 1118.02 122.18 1117.02 122.551C1116.03 122.926 1112.93 121.809 1110.13 121.312C1107.34 120.816 1104.85 120.937 1106.84 123.793C1108.83 126.649 1115.29 132.237 1120.32 134.908C1125.35 137.574 1128.95 137.328 1134.67 139.623C1140.38 141.918 1148.2 146.764 1154.97 150.983C1157.8 152.745 1160.44 154.396 1162.73 155.917ZM1162.73 251.499C1166.26 252.004 1169.72 251.615 1172.49 250.864C1175.9 249.932 1178.26 248.443 1180.19 247.451C1182.11 246.454 1183.61 245.958 1182.86 247.386C1182.11 248.814 1179.13 252.167 1178.76 255.023C1178.39 257.879 1180.62 260.235 1182.11 260.796C1183.61 261.352 1184.35 260.114 1184.35 258.932C1184.35 257.754 1183.61 256.637 1184.04 256.141C1184.47 255.644 1186.09 255.765 1187.7 256.451C1189.32 257.133 1190.93 258.375 1191.37 258C1191.8 257.629 1191.06 255.644 1190.06 254.031C1189.07 252.417 1187.83 251.174 1188.32 249.932C1188.82 248.689 1191.06 247.447 1191.55 246.144C1192.05 244.841 1190.81 243.478 1189.01 242.175C1187.21 240.867 1184.84 239.629 1181.62 236.277C1178.39 232.924 1174.29 227.462 1173.11 225.102C1171.93 222.742 1173.67 223.488 1175.9 223.859C1178.14 224.235 1180.87 224.235 1183.23 225.723C1185.59 227.212 1187.58 230.193 1190.87 231.621C1194.16 233.049 1198.76 232.924 1203.04 234.598C1207.33 236.277 1211.31 239.75 1213.85 242.481C1216.4 245.216 1217.51 247.201 1219.5 248.193C1221.49 249.185 1224.35 249.185 1225.84 250.428C1227.33 251.671 1227.45 254.151 1229.44 256.511C1231.43 258.872 1235.28 261.107 1239.01 262.159C1242.73 263.216 1246.33 263.091 1249 264.459C1251.68 265.822 1253.42 268.678 1255.96 269.921C1258.51 271.164 1261.86 270.788 1263.91 272.091C1265.96 273.399 1266.7 276.375 1269.5 278.796C1272.29 281.216 1277.14 283.08 1278.82 284.198C1280.5 285.315 1279 285.686 1273.6 284.383C1268.2 283.08 1258.88 280.099 1253.11 277.493C1247.33 274.887 1245.09 272.652 1242.24 272.652C1239.38 272.652 1235.9 274.887 1234.34 277.433C1232.8 279.978 1233.17 282.834 1235.09 284.323C1237.02 285.811 1240.5 285.936 1242.17 286.683C1243.85 287.425 1243.73 288.793 1246.89 289.474C1250.06 290.156 1256.52 290.156 1260.25 289.66C1263.97 289.164 1264.97 288.171 1267.51 288.978C1270.06 289.785 1274.16 292.391 1277.95 294.069C1281.73 295.743 1285.21 296.49 1287.7 298.228C1290.18 299.967 1291.67 302.698 1291.98 304.623C1292.29 306.547 1291.43 307.664 1292.73 309.278C1294.03 310.892 1297.51 313.001 1300.06 313.623C1302.61 314.244 1304.22 313.372 1307.08 315.236C1309.93 317.1 1314.03 321.691 1318.01 325.293C1321.98 328.891 1325.83 331.497 1327.63 332.058C1329.43 332.615 1329.19 331.126 1328.38 329.573C1327.57 328.024 1326.21 326.411 1327.26 325.789C1328.32 325.168 1331.8 325.539 1334.34 327.649C1336.89 329.763 1338.5 333.612 1340.8 337.21C1343.1 340.813 1346.08 344.165 1350.3 348.755C1354.53 353.35 1359.99 359.183 1363.53 363.222C1367.07 367.256 1368.69 369.491 1369.37 371.35C1370.06 373.214 1369.81 374.703 1370.3 375.449C1370.8 376.196 1372.04 376.196 1371.23 372.964C1370.43 369.737 1367.57 363.282 1364.15 358.442C1360.74 353.601 1356.76 350.369 1353.78 345.528C1350.8 340.687 1348.81 334.233 1345.58 328.646C1342.35 323.058 1337.88 318.338 1334.71 313.623C1331.55 308.902 1329.69 304.187 1325.71 299.657C1321.73 295.122 1315.65 290.777 1310.18 286.743C1304.72 282.709 1299.87 278.981 1295.03 273.709C1290.18 268.433 1285.34 261.603 1279.44 254.958C1273.54 248.318 1266.58 241.864 1261.3 237.018C1256.02 232.178 1252.42 228.951 1250.74 226.28C1249.07 223.614 1249.32 221.499 1244.91 217.901C1240.5 214.303 1231.43 209.212 1225.03 204.181C1218.64 199.155 1214.91 194.189 1212.98 191.829C1211.06 189.468 1210.94 189.719 1211.06 190.651C1211.18 191.583 1211.55 193.196 1209.13 192.76C1206.71 192.325 1201.49 189.844 1197.64 186.927C1193.79 184.006 1191.31 180.654 1188.2 179.165C1185.09 177.677 1181.37 178.048 1178.39 176.434C1175.41 174.821 1173.17 171.218 1172.42 168.552C1171.68 165.881 1172.42 164.142 1169.94 161.476C1168.5 159.918 1165.95 158.045 1162.73 155.917V251.499ZM1162.73 263.323C1163.63 263.912 1165.05 264.45 1166.56 265.451C1168.67 266.847 1170.97 269.142 1173.7 270.259C1176.43 271.377 1179.6 271.317 1180.1 269.703C1180.59 268.089 1178.42 264.923 1175.82 263.555C1173.2 262.191 1170.16 262.627 1167.92 262.099C1165.69 261.57 1164.26 260.082 1163.17 260.082C1163.02 260.082 1162.87 260.11 1162.73 260.165V263.323ZM1162.73 271.822V268.697C1162.79 268.743 1162.84 268.785 1162.9 268.831C1164.01 269.828 1164.07 271.006 1162.8 271.78L1162.73 271.822Z" fill="url(#paint0_linear_1075_9948)"/>
<defs>
<linearGradient id="paint0_linear_1075_9948" x1="686" y1="0.550781" x2="686" y2="519.551" gradientUnits="userSpaceOnUse">
<stop stop-color="#DCCAA3"/>
<stop offset="1" stop-color="#594226"/>
</linearGradient>
</defs>
</svg>
