<svg width="100" height="30" viewBox="0 0 100 30" fill="none" xmlns="http://www.w3.org/2000/svg">
<g clip-path="url(#clip0_1899_29912)">
<path d="M18.5764 11.8652H9.1313L7.90994 14.2853H2.93859L10.5019 0H17.2691L24.7465 14.2898H19.7978L18.5764 11.8697V11.8652ZM14.1931 3.18004L0.46875 8.73944H17.0565L14.1931 3.17551V3.18004Z" fill="#027588"/>
<path d="M25.3906 0H35.65C37.9057 0.0150784 39.2477 0.0361882 39.6759 0.0633293C42.01 0.235223 42.7836 1.1354 42.7836 3.72738C42.7836 5.76297 42.2905 6.59982 40.8565 7.00694C42.7429 7.32811 43.3219 8.16496 43.3219 10.4539C43.3219 12.4894 42.7881 13.5389 41.5215 13.9686C40.7073 14.2491 40.472 14.2672 35.6726 14.2898H25.3906V0ZM35.65 5.63631C37.1925 5.63631 37.8122 5.5956 38.0927 5.46442C38.4138 5.33776 38.5631 4.97135 38.5631 4.45567C38.5631 3.85404 38.3686 3.53287 37.9208 3.42883C37.6856 3.38812 37.6222 3.38812 35.65 3.3655H29.5251V5.63631H35.65ZM35.6726 10.861C37.4006 10.8459 38.3716 10.7886 38.5857 10.6891C38.9476 10.5398 39.1014 10.2186 39.1014 9.61701C39.1014 8.95205 38.9069 8.6535 38.4184 8.54493C38.2766 8.51779 37.3629 8.49668 35.6771 8.4816H29.5296V10.861H35.6771H35.6726Z" fill="#027588"/>
<path d="M44.4844 0H55.0016C58.2856 0 60.2353 0.185464 60.8505 0.556393C61.9452 1.22135 62.2663 2.16224 62.2663 4.65018C62.2663 6.77171 62.0537 7.58595 61.2802 8.16496C60.8731 8.48613 60.466 8.6354 59.611 8.76659C61.8185 9.02443 62.203 9.66677 62.1171 12.9644V14.2943H57.8333V13.5434C57.8333 11.9376 57.7473 11.4219 57.4036 11.06C57.105 10.7162 56.7838 10.6755 54.9835 10.6755H48.836V14.2943H44.4889V0H44.4844ZM54.9609 7.08836C56.4174 7.06122 57.2452 6.97527 57.4443 6.83052C57.7881 6.61791 57.9147 6.18818 57.9147 5.288C57.9147 4.32449 57.7428 3.91737 57.295 3.72286C56.9964 3.5962 56.9331 3.5962 54.9609 3.57358H48.836V7.08836H54.9609Z" fill="#027588"/>
<path d="M78.3878 11.8652H68.9427L67.7214 14.2853H62.75L70.3133 0H77.0805L84.5579 14.2898H79.6092L78.3878 11.8697V11.8652ZM74.104 3.32027H73.2491L70.4852 8.73944H76.8679L74.104 3.32027Z" fill="#027588"/>
<path d="M99.3353 0V8.54493C99.3353 11.2455 99.1227 12.2723 98.4125 13.1092C97.4716 14.1812 96.0151 14.5024 92.0072 14.5024C87.7868 14.5024 86.1809 14.2039 85.2174 13.2811C84.5117 12.5754 84.2539 11.63 84.2539 9.61701C84.2539 9.20989 84.2539 9.08323 84.2946 8.11972H88.6417C88.6417 9.68486 88.7051 10.0241 89.0036 10.3272C89.3474 10.671 90.0983 10.7976 91.7041 10.7976C93.31 10.7976 94.1876 10.671 94.5766 10.3046C94.9204 10.0241 94.9837 9.70296 94.9837 8.46351V0H99.3308H99.3353Z" fill="#027588"/>
<path d="M5.33074 18.7227H4.02344V20.0661H5.33074V18.7227Z" fill="#027588"/>
<path d="M3.17449 18.7227H1.86719V20.0661H3.17449V18.7227Z" fill="#027588"/>
<path d="M9.29373 19.3125H8V20.656H9.29373V19.3125Z" fill="#027588"/>
<path d="M11.4518 19.3125H10.1445V20.656H11.4518V19.3125Z" fill="#027588"/>
<path d="M9.96773 21.5042H9.52443C8.76448 21.5042 8.18999 21.7304 7.80096 22.1872C7.40742 22.6441 7.21291 23.1869 7.21291 23.8157L7.77835 25.7925H6.49819C6.49819 25.7925 6.49819 25.7925 6.49367 25.7925C6.49367 25.7925 6.49367 25.7925 6.48914 25.7925H6.2494C5.68396 25.7925 5.39897 25.5256 5.39897 24.9918V21.6354L4.06906 20.8438L0.5 23.0829V24.5937C0.5 25.2949 0.708082 25.8513 1.12425 26.2539C1.54041 26.6565 2.02443 26.86 2.5763 26.86H2.7301C3.38601 26.86 3.91074 26.6248 4.31333 26.1544C4.63902 26.8103 5.21803 27.136 6.03679 27.136H6.4801C6.4801 27.136 6.4801 27.136 6.48462 27.136C6.48462 27.136 6.48462 27.136 6.48914 27.136H9.96321C10.6327 27.136 11.1846 26.9279 11.6098 26.5072C12.035 26.0865 12.2521 25.503 12.2521 24.7521V23.8157C12.2521 23.0874 12.044 22.522 11.6279 22.1149C11.2117 21.7077 10.6553 21.5042 9.96321 21.5042H9.96773ZM4.06001 24.6073C4.06001 24.8787 3.96954 25.1004 3.7886 25.2723C3.60766 25.4442 3.38148 25.5301 3.11007 25.5301H2.77533C2.51297 25.5301 2.28679 25.4442 2.10585 25.2678C1.92039 25.0913 1.82992 24.8742 1.82992 24.6073V23.7343L4.06001 22.4179V24.6118V24.6073ZM10.9267 24.7611C10.9267 25.0823 10.8362 25.3311 10.6553 25.5165C10.4744 25.702 10.2482 25.7925 9.97678 25.7925H8.9816L8.51568 23.9107C8.51568 23.585 8.60163 23.3226 8.77352 23.1327C8.94542 22.9427 9.18516 22.8431 9.49729 22.8431H9.97678C10.2391 22.8431 10.4653 22.9336 10.6463 23.1191C10.8317 23.3045 10.9222 23.5307 10.9222 23.8021V24.7611H10.9267Z" fill="#027588"/>
<path d="M28.467 24.8615C28.467 25.4857 28.1413 25.7979 27.4945 25.7979H26.8476C26.4495 25.7979 26.16 25.7074 25.9791 25.5265C25.7982 25.3455 25.7077 25.0605 25.7077 24.6715H25.6941V23.9161C25.6941 23.2195 25.4951 22.6721 25.1015 22.2695C24.708 21.8669 24.1516 21.6634 23.4414 21.6634H19.8814V18.61H18.5515V25.7979H16.6561C16.6561 25.7979 16.6561 25.7979 16.6516 25.7979C16.6516 25.7979 16.6516 25.7979 16.6471 25.7979H16.3123C15.7288 25.7979 15.4393 25.5174 15.4393 24.961V18.61H14.1094V24.9474C14.1094 25.635 14.2858 26.1733 14.6432 26.5578C15.0005 26.9468 15.4936 27.1368 16.1223 27.1368H16.6516C16.6516 27.1368 16.6516 27.1368 16.6561 27.1368C16.6561 27.1368 16.6561 27.1368 16.6606 27.1368H23.4414C24.319 27.1368 24.9432 26.8745 25.3096 26.3452C25.581 26.8745 26.0922 27.1368 26.8431 27.1368H27.4673C28.2906 27.1368 28.8832 26.9468 29.2451 26.5623C29.607 26.1778 29.7924 25.6124 29.7924 24.8615V18.6055H28.4625V24.8615H28.467ZM24.3687 24.8615C24.3687 25.4857 24.0702 25.7979 23.4685 25.7979H19.8859V22.9933H23.4685C23.7309 22.9933 23.948 23.0747 24.1154 23.2376C24.2828 23.4004 24.3687 23.6221 24.3687 23.9025V24.8615Z" fill="#027588"/>
<path d="M33.1776 18.6055H31.8477V27.1368H33.1776V18.6055Z" fill="#027588"/>
<path d="M44.1081 19.4336H42.8008V20.7771H44.1081V19.4336Z" fill="#027588"/>
<path d="M41.95 19.4336H40.6562V20.7771H41.95V19.4336Z" fill="#027588"/>
<path d="M44.8484 24.862C44.8484 25.4862 44.5227 25.7984 43.8758 25.7984H40.8089C40.4877 25.7984 40.2298 25.6943 40.0308 25.4862C39.8318 25.2782 39.7323 25.0067 39.7323 24.672V22.469H38.4023V24.663C38.4023 25.4365 38.6059 26.0472 39.013 26.4859C39.4201 26.9247 40.0172 27.1464 40.7998 27.1464H43.8668C44.681 27.1464 45.269 26.9564 45.6355 26.5719C45.9973 26.1874 46.1828 25.6219 46.1828 24.871V21.6367H44.8529V24.871L44.8484 24.862Z" fill="#027588"/>
<path d="M54.1935 21.5044H54.0126C53.3024 21.5044 52.7415 21.708 52.3343 22.1106C51.9272 22.5132 51.7237 23.065 51.7237 23.7707V25.0418C51.7237 25.3223 51.6558 25.5168 51.5246 25.6299C51.3935 25.743 51.1763 25.7973 50.8732 25.7973H50.3123C49.7288 25.7973 49.4393 25.5168 49.4393 24.9604V18.6094H48.1094V24.9468C48.1094 25.6344 48.2858 26.1727 48.6432 26.5572C49.0005 26.9462 49.4936 27.1362 50.1223 27.1362H50.8868C51.5111 27.1362 52.0222 26.9553 52.4203 26.5979L55.3334 27.2448L56.496 26.0958V23.7707C56.496 23.0424 56.2879 22.486 55.8717 22.0925C55.4556 21.6989 54.8992 21.5044 54.1935 21.5044ZM55.1661 25.8425L53.031 25.3992C53.0491 25.2409 53.0536 25.1187 53.0536 25.0418V23.7617C53.0536 23.4993 53.1441 23.2777 53.3295 23.1012C53.515 22.9248 53.7366 22.8389 53.999 22.8389H54.2161C54.4875 22.8389 54.7137 22.9248 54.8947 23.0967C55.0756 23.2686 55.1661 23.4903 55.1661 23.7617V25.847V25.8425Z" fill="#027588"/>
<path d="M66.9333 19.3984H65.5898V20.7781H66.9333V19.3984Z" fill="#027588"/>
<path d="M71.6161 24.8609C71.6161 25.4851 71.2904 25.7973 70.6435 25.7973H69.4945C68.7979 25.7973 68.4541 25.4399 68.4541 24.7207V23.8928C68.4541 23.2234 68.2641 22.676 67.8842 22.2553C67.5042 21.8346 66.9568 21.6266 66.2376 21.6266H64.5368V22.9701H66.1652C66.4547 22.9701 66.6854 23.056 66.8618 23.2234C67.0383 23.3907 67.1242 23.6214 67.1242 23.92V24.5895C67.1242 25.1187 67.2599 25.5213 67.5313 25.8018H63.4466C63.4466 25.8018 63.4466 25.8018 63.4421 25.8018C63.4421 25.8018 63.4421 25.8018 63.4375 25.8018C63.0937 25.8018 62.8359 25.7113 62.664 25.5304C62.4921 25.3494 62.379 25.069 62.3247 24.6845L62.2659 24.2773L62.0986 23.0922C61.9312 21.8844 61.1532 21.2828 59.7599 21.2828H59.3302V22.6127H59.7599C60.0132 22.6127 60.2394 22.6941 60.4384 22.857C60.633 23.0198 60.7551 23.2415 60.8048 23.5219L60.9858 24.6257C61.0355 24.9514 60.9541 25.2318 60.746 25.458C60.538 25.6842 60.262 25.7973 59.9182 25.7973H57.5117V27.1407H60.1354C60.927 27.1407 61.5377 26.9055 61.9674 26.4351C62.2614 26.9055 62.7545 27.1407 63.4421 27.1407C63.4421 27.1407 63.4421 27.1407 63.4466 27.1407C63.4466 27.1407 63.4466 27.1407 63.4511 27.1407H70.6299C71.4532 27.1407 72.0458 26.9508 72.4077 26.5663C72.7696 26.1818 72.955 25.6163 72.955 24.8654V18.6094H71.6251V24.8654L71.6161 24.8609Z" fill="#027588"/>
<path d="M82.2458 27.9531H80.9023V29.3192H82.2458V27.9531Z" fill="#027588"/>
<path d="M83.0966 24.7191V23.8913C83.0966 23.2218 82.9066 22.6745 82.5221 22.2538C82.1376 21.8331 81.5902 21.625 80.88 21.625H79.1656V22.9685H80.8077C81.0972 22.9685 81.3279 23.0544 81.5043 23.2218C81.6807 23.3892 81.7667 23.6199 81.7667 23.9184V24.5879C81.7667 25.1172 81.9024 25.5198 82.1738 25.8002H80.6765C79.8713 25.8002 79.2199 26.0083 78.7223 26.4245C78.2247 26.8406 77.9805 27.3654 77.9805 28.0077V30.0071H79.324V28.2339C79.324 27.9082 79.437 27.6413 79.6632 27.4422C79.8894 27.2432 80.2151 27.1437 80.6403 27.1437H84.5124V25.8002H84.1415C83.4449 25.8002 83.1011 25.4429 83.1011 24.7236L83.0966 24.7191Z" fill="#027588"/>
<path d="M87.3846 18.6055H86.0547V27.1368H87.3846V18.6055Z" fill="#027588"/>
<path d="M94.9099 28.1914H93.5664V29.5711H94.9099V28.1914Z" fill="#027588"/>
<path d="M94.4547 24.8632C94.4547 25.4875 94.129 25.7996 93.4821 25.7996H92.8352C92.4372 25.7996 92.1477 25.7091 91.9667 25.5282C91.7858 25.3472 91.6953 25.0623 91.6953 24.6732V21.6289H90.3654V27.4416C90.3654 28.0794 90.0533 28.4006 89.429 28.4006H87.9453V29.7305H89.429C90.2025 29.7305 90.777 29.5541 91.1434 29.2013C91.5098 28.8484 91.6953 28.3056 91.6953 27.5728V26.831C91.9758 27.039 92.3557 27.1431 92.8352 27.1431H93.4595C94.2828 27.1431 94.8753 26.9531 95.2372 26.5686C95.5991 26.1841 95.7846 25.6187 95.7846 24.8677V21.6334H94.4547V24.8677V24.8632Z" fill="#027588"/>
<path d="M98.7428 18.3168C98.6387 18.3168 98.5573 18.2806 98.4985 18.2037C98.4397 18.1268 98.408 18.0364 98.408 17.9233V17.6835C98.408 17.5976 98.4397 17.5207 98.503 17.4573C98.5664 17.394 98.6478 17.3624 98.7428 17.3624H99.4123V16.4531H98.7428C98.3899 16.4531 98.0959 16.5707 97.8562 16.806C97.6164 17.0412 97.4988 17.3352 97.4988 17.688V17.869C97.4988 18.0364 97.5395 18.1902 97.6164 18.3259H97.0781V19.2351H100V18.3259H98.7428V18.3168Z" fill="#027588"/>
<path d="M99.1502 19.9453H97.8203V27.1332H99.1502V19.9453Z" fill="#027588"/>
</g>
<defs>
<clipPath id="clip0_1899_29912">
<rect width="99.5311" height="30" fill="white" transform="translate(0.46875)"/>
</clipPath>
</defs>
</svg>
