<svg width="46" height="36" viewBox="0 0 46 36" fill="none" xmlns="http://www.w3.org/2000/svg">
<circle cx="21" cy="18.7871" r="16" stroke="#F4C76C"/>
<path d="M21.3607 12.0642C22.659 12.0642 23.7136 11.0096 23.7136 9.71132C23.7136 8.41301 22.659 7.3584 21.3607 7.3584C20.0624 7.3584 19.0078 8.41301 19.0078 9.71132C19.0078 11.0096 20.0624 12.0642 21.3607 12.0642Z" stroke="white"/>
<path d="M28.7576 13.4432L28.7366 13.4474L28.7198 13.4516C28.6778 13.4642 28.6358 13.4768 28.5938 13.4894C27.8123 13.7205 24.0182 14.7877 21.3417 14.7877C18.8586 14.7877 15.4048 13.8634 14.2998 13.5482C14.1906 13.5062 14.0771 13.4684 13.9637 13.439C13.1654 13.2289 12.6191 14.0398 12.6191 14.7793C12.6191 15.5146 13.2788 15.8633 13.9427 16.1154V16.128L17.9426 17.3759C18.3502 17.5314 18.4594 17.6911 18.514 17.8297C18.6863 18.2751 18.5477 19.1574 18.5014 19.4641L18.2577 21.3549L16.909 28.7624C16.9048 28.7834 16.9006 28.8044 16.8964 28.8254L16.888 28.88C16.7914 29.5565 17.2872 30.2161 18.2325 30.2161C19.0561 30.2161 19.4216 29.6489 19.5771 28.8758C19.5771 28.8758 20.7535 22.254 21.3417 22.254C21.93 22.254 23.14 28.8758 23.14 28.8758C23.2997 29.6489 23.661 30.2161 24.4846 30.2161C25.4299 30.2161 25.9299 29.5565 25.8291 28.8758C25.8207 28.817 25.8081 28.7624 25.7955 28.7035L24.4299 21.3633L24.1863 19.4725C24.0098 18.3717 24.1526 18.0062 24.1989 17.9221C24.1989 17.9221 24.2031 17.9179 24.2031 17.9137C24.2493 17.8297 24.4552 17.6406 24.9383 17.46L28.6904 16.1491C28.7114 16.1448 28.7366 16.1364 28.7576 16.128C29.4299 15.8759 30.1022 15.5272 30.1022 14.7877C30.1022 14.0482 29.5559 13.2331 28.7576 13.4432Z" stroke="white"/>
</svg>
