<svg width="14" height="14" viewBox="0 0 14 14" fill="none" xmlns="http://www.w3.org/2000/svg">
<path fill-rule="evenodd" clip-rule="evenodd" d="M13.0338 1.58877C13.75 2.57452 13.75 3.98067 13.75 6.79297C13.75 9.60527 13.75 11.0114 13.0338 11.9972C12.8025 12.3155 12.5225 12.5955 12.2042 12.8268C11.2184 13.543 9.8123 13.543 7 13.543C4.1877 13.543 2.78155 13.543 1.79581 12.8268C1.47745 12.5955 1.19748 12.3155 0.966186 11.9972C0.25 11.0114 0.25 9.60527 0.25 6.79297C0.25 3.98067 0.25 2.57452 0.966186 1.58877C1.19748 1.27042 1.47745 0.990454 1.79581 0.759155C2.78155 0.0429688 4.1877 0.0429688 7 0.0429688C9.8123 0.0429688 11.2184 0.0429688 12.2042 0.759155C12.5225 0.990454 12.8025 1.27042 13.0338 1.58877ZM7.20403 4.19249C6.98338 3.9738 6.98179 3.61765 7.20048 3.397C7.41917 3.17635 7.77532 3.17476 7.99597 3.39345L9.07682 4.4647C9.47896 4.86324 9.81435 5.19563 10.0535 5.4934C10.3043 5.80572 10.4951 6.13395 10.5461 6.53385C10.557 6.61987 10.5625 6.70642 10.5625 6.79297C10.5625 6.87952 10.557 6.96606 10.5461 7.05209C10.4951 7.45199 10.3043 7.78022 10.0535 8.09254C9.81435 8.3903 9.47896 8.72269 9.07682 9.12124L7.99597 10.1925C7.77532 10.4112 7.41917 10.4096 7.20048 10.1889C6.98179 9.96829 6.98338 9.61214 7.20403 9.39345L8.26181 8.34507C8.69299 7.91772 8.98201 7.63007 9.17633 7.3881C9.18524 7.37701 9.19385 7.36613 9.20216 7.35547H4C3.68934 7.35547 3.4375 7.10363 3.4375 6.79297C3.4375 6.48231 3.68934 6.23047 4 6.23047H9.20216C9.19385 6.21981 9.18524 6.20893 9.17633 6.19783C8.982 5.95587 8.69299 5.66822 8.26181 5.24087L7.20403 4.19249Z" fill="#5A4427"/>
</svg>
