<svg width="14" height="14" viewBox="0 0 14 14" fill="none" xmlns="http://www.w3.org/2000/svg">
<path fill-rule="evenodd" clip-rule="evenodd" d="M13.0338 1.79581C13.75 2.78155 13.75 4.1877 13.75 7C13.75 9.8123 13.75 11.2184 13.0338 12.2042C12.8025 12.5225 12.5225 12.8025 12.2042 13.0338C11.2184 13.75 9.8123 13.75 7 13.75C4.1877 13.75 2.78155 13.75 1.79581 13.0338C1.47745 12.8025 1.19748 12.5225 0.966186 12.2042C0.25 11.2184 0.25 9.8123 0.25 7C0.25 4.1877 0.25 2.78155 0.966186 1.79581C1.19748 1.47745 1.47745 1.19748 1.79581 0.966186C2.78155 0.25 4.1877 0.25 7 0.25C9.8123 0.25 11.2184 0.25 12.2042 0.966186C12.5225 1.19748 12.8025 1.47745 13.0338 1.79581ZM7.20403 4.39952C6.98338 4.18083 6.98179 3.82468 7.20048 3.60403C7.41917 3.38338 7.77532 3.38179 7.99597 3.60048L9.07682 4.67173C9.47896 5.07027 9.81435 5.40267 10.0535 5.70043C10.3043 6.01275 10.4951 6.34098 10.5461 6.74088C10.557 6.82691 10.5625 6.91345 10.5625 7C10.5625 7.08655 10.557 7.17309 10.5461 7.25912C10.4951 7.65902 10.3043 7.98725 10.0535 8.29957C9.81435 8.59733 9.47896 8.92973 9.07682 9.32827L7.99597 10.3995C7.77532 10.6182 7.41917 10.6166 7.20048 10.396C6.98179 10.1753 6.98338 9.81917 7.20403 9.60048L8.26181 8.5521C8.69299 8.12475 8.98201 7.8371 9.17633 7.59513C9.18524 7.58404 9.19385 7.57316 9.20216 7.5625H4C3.68934 7.5625 3.4375 7.31066 3.4375 7C3.4375 6.68934 3.68934 6.4375 4 6.4375H9.20216C9.19385 6.42684 9.18524 6.41596 9.17633 6.40487C8.982 6.1629 8.69299 5.87525 8.26181 5.4479L7.20403 4.39952Z" fill="#111111"/>
</svg>
