<svg width="34" height="40" viewBox="0 0 34 40" fill="none" xmlns="http://www.w3.org/2000/svg">
<path d="M23.604 8.20749C22.6929 8.2066 21.8194 7.84426 21.1752 7.20002C20.5309 6.55578 20.1686 5.68225 20.1677 4.77115V0H4.81263C3.62325 0 2.48258 0.47249 1.64157 1.3135C0.800554 2.15452 0.328064 3.29515 0.328064 4.48452V31.5184C0.328064 32.7078 0.800554 33.8484 1.64157 34.6894C2.48258 35.5305 3.62325 36.003 4.81263 36.003H23.244C24.4334 36.003 25.5741 35.5305 26.4151 34.6894C27.2561 33.8484 27.7286 32.7078 27.7286 31.5184V8.20749H23.604Z" fill="#9E8557"/>
<path d="M27.7285 8.20748H23.6039C22.6928 8.2066 21.8193 7.84426 21.1751 7.20002C20.5308 6.55578 20.1685 5.68225 20.1676 4.77115V0L27.7285 8.20748Z" fill="white"/>
<path d="M30.9798 28.4336H10.1419C8.66379 28.4336 7.46552 29.6319 7.46552 31.11V37.3227C7.46552 38.8008 8.66379 39.9991 10.1419 39.9991H30.9798C32.4579 39.9991 33.6561 38.8008 33.6561 37.3227V31.11C33.6561 29.6319 32.4579 28.4336 30.9798 28.4336Z" fill="white"/>
<path d="M13.2481 35.5195V36.7277H11.9999V35.5195H13.2481Z" fill="#9E8557"/>
<path d="M18.2497 32.1855C18.6715 32.5268 18.958 33.0071 19.058 33.5403H17.7814C17.6963 33.3191 17.5457 33.129 17.3498 32.9954C17.1437 32.8602 16.9013 32.7911 16.6549 32.7971C16.4924 32.7922 16.331 32.8246 16.1831 32.8919C16.0352 32.9593 15.9047 33.0596 15.8017 33.1854C15.5726 33.4814 15.4574 33.8498 15.4767 34.2236C15.4572 34.5959 15.5726 34.9627 15.8017 35.2568C15.9051 35.3819 16.0357 35.4816 16.1836 35.5483C16.3315 35.615 16.4927 35.647 16.6549 35.6418C16.9013 35.6478 17.1437 35.5786 17.3498 35.4435C17.5457 35.3126 17.6973 35.1255 17.7848 34.9069H19.0613C18.9592 35.4384 18.673 35.917 18.2531 36.2584C17.8025 36.6048 17.2444 36.7818 16.6766 36.7584C16.2293 36.7682 15.7877 36.657 15.3984 36.4367C15.0336 36.2258 14.7382 35.913 14.5484 35.5368C14.343 35.1282 14.2401 34.6758 14.2485 34.2186C14.2399 33.7608 14.3428 33.3078 14.5484 32.8987C14.7382 32.5225 15.0336 32.2098 15.3984 31.9988C15.7877 31.7785 16.2293 31.6674 16.6766 31.6772C17.2442 31.6577 17.8008 31.8375 18.2497 32.1855Z" fill="#9E8557"/>
<path d="M23.5948 36.0471C23.4512 36.2763 23.2454 36.46 23.0015 36.577C22.7046 36.716 22.3793 36.7833 22.0516 36.7736C21.5582 36.7936 21.0719 36.6501 20.6684 36.3653C20.4902 36.2314 20.3444 36.0591 20.2417 35.8612C20.139 35.6634 20.0821 35.445 20.0752 35.2222H21.36C21.3689 35.3901 21.441 35.5484 21.5617 35.6654C21.6811 35.7772 21.8398 35.8371 22.0033 35.8321C22.1373 35.8389 22.2687 35.7935 22.3699 35.7054C22.4138 35.662 22.4483 35.61 22.4713 35.5526C22.4942 35.4953 22.5051 35.4339 22.5032 35.3721C22.5048 35.3138 22.4947 35.2557 22.4735 35.2014C22.4523 35.147 22.4205 35.0974 22.3799 35.0555C22.2924 34.9666 22.1882 34.8958 22.0733 34.8472C21.95 34.7922 21.7817 34.7272 21.565 34.6522C21.3005 34.5652 21.0422 34.4605 20.7918 34.3389C20.5859 34.2325 20.4092 34.0775 20.2768 33.8873C20.1245 33.6566 20.0493 33.3835 20.0618 33.1073C20.055 32.8336 20.1337 32.5645 20.2868 32.3374C20.4443 32.1156 20.6608 31.9424 20.9117 31.8375C21.2021 31.72 21.5135 31.6633 21.8267 31.6708C22.3001 31.6458 22.7676 31.7853 23.1498 32.0658C23.313 32.1981 23.4466 32.3631 23.5419 32.5503C23.6372 32.7375 23.6921 32.9426 23.7031 33.1523H22.3983C22.3822 33.0058 22.3191 32.8684 22.2183 32.7607C22.1662 32.7114 22.1046 32.6731 22.0373 32.6482C21.97 32.6232 21.8983 32.6122 21.8267 32.6157C21.7021 32.6094 21.5796 32.6498 21.4834 32.729C21.4383 32.7715 21.4032 32.8234 21.3808 32.881C21.3583 32.9387 21.3489 33.0006 21.3534 33.0623C21.3519 33.1176 21.3615 33.1726 21.3816 33.2241C21.4016 33.2756 21.4317 33.3226 21.47 33.3623C21.5526 33.4493 21.6525 33.518 21.7633 33.564C21.88 33.6156 22.05 33.6823 22.2633 33.7623C22.5326 33.8489 22.795 33.9559 23.0482 34.0823C23.2558 34.1939 23.4344 34.3526 23.5698 34.5455C23.7243 34.7791 23.8008 35.0557 23.7881 35.3355C23.7893 35.5858 23.7225 35.8318 23.5948 36.0471Z" fill="#9E8557"/>
<path d="M26.0805 31.7383L27.3021 35.4929L28.5236 31.7383H29.8151L28.0787 36.7278H26.5188L24.789 31.7383H26.0805Z" fill="#9E8557"/>
<path d="M20.1406 25.1323H7.92188C6.86366 25.1323 6.00208 24.079 6.00208 22.7825V13.9184C6.00208 12.6236 6.86366 11.5703 7.92188 11.5703H20.1456C21.2022 11.5703 22.0638 12.6236 22.0638 13.9184V22.7825C22.0588 24.079 21.1972 25.1323 20.1406 25.1323ZM7.92188 12.7702C7.4036 12.7702 6.98366 13.2851 6.98366 13.9184V22.7825C6.98366 23.4158 7.4036 23.9307 7.92188 23.9307H20.1456C20.6622 23.9307 21.0822 23.4158 21.0822 22.7825V13.9184C21.0822 13.2851 20.6622 12.7702 20.1456 12.7702H7.92188Z" fill="white"/>
<path d="M21.5691 19.8008H6.48901V21.0023H21.5691V19.8008Z" fill="white"/>
<path d="M21.5691 15.6758H6.48901V16.8773H21.5691V15.6758Z" fill="white"/>
<path d="M17.7054 12.1719H16.5038V24.5323H17.7054V12.1719Z" fill="white"/>
<path d="M11.5522 12.1719H10.3507V24.5323H11.5522V12.1719Z" fill="white"/>
</svg>
