<svg width="37" height="45" viewBox="0 0 37 45" fill="none" xmlns="http://www.w3.org/2000/svg">
<g clip-path="url(#clip0_2933_481)">
<path d="M7.53701 36.3702C6.51078 36.3702 6.51078 34.7964 7.53701 34.7964H16.5017C16.4842 35.0559 16.4746 35.3181 16.4746 35.5828C16.4746 35.8476 16.4842 36.1098 16.5017 36.3702H7.53701ZM10.6183 21.6713H9.1191V23.4272H6.81359V16.1618H10.4455C12.0983 16.1618 12.9247 17.0564 12.9247 18.8466C12.9247 19.831 12.7092 20.5594 12.2789 21.0318C12.1175 21.2104 11.8941 21.3617 11.6105 21.4857C11.326 21.6097 10.9953 21.6713 10.6183 21.6713ZM9.1191 18.0215V19.8116H9.64967C9.9263 19.8116 10.1288 19.7826 10.2553 19.7246C10.3818 19.6665 10.4455 19.5328 10.4455 19.3234V18.5097C10.4455 18.3003 10.3818 18.1666 10.2553 18.1086C10.1288 18.0505 9.9263 18.0215 9.64967 18.0215H9.1191ZM13.7895 23.4272V16.1618H17.0183C18.3176 16.1618 19.2095 16.4406 19.6938 16.9984C20.1781 17.5561 20.4198 18.4886 20.4198 19.7941C20.4198 21.1004 20.1781 22.032 19.6938 22.5897C19.2095 23.1475 18.3176 23.4272 17.0183 23.4272H13.7895ZM17.0532 18.0215H16.0959V21.5666H17.0532C17.3682 21.5666 17.5968 21.5306 17.7391 21.4567C17.8813 21.3828 17.952 21.2148 17.952 20.9509V18.6373C17.952 18.3742 17.8813 18.2053 17.7391 18.1323C17.5968 18.0584 17.3682 18.0215 17.0532 18.0215ZM25.667 20.73H23.7062V23.4272H21.3998V16.1618H26.1278L25.8398 18.0215H23.7062V18.9979H25.667V20.73ZM23.1957 2.13414V4.69406C23.1957 10.4701 24.5317 10.8053 29.2239 10.8053H31.1463L23.1957 2.13414ZM31.4273 12.3316H29.5529C24.228 12.3316 21.6817 11.9718 21.6817 4.74156V1.52627H4.95835C3.06472 1.52627 1.51403 3.09037 1.51403 4.99844V28.2919H19.1283C18.7234 28.7731 18.3578 29.2895 18.0366 29.8349H1.51403V37.7372C1.51403 39.6391 3.0717 41.2094 4.95835 41.2094H17.9642C18.2722 41.7478 18.6239 42.258 19.0131 42.7348H4.95835C2.23658 42.7348 0 40.481 0 37.7372V4.99844C0 2.24762 2.2296 3.30677e-08 4.95835 3.30677e-08H22.9636C23.0808 -3.47414e-05 23.1964 0.027358 23.3014 0.0800221C23.4063 0.132686 23.4977 0.209184 23.5683 0.303495L32.7371 10.3039C32.9283 10.5124 32.9413 10.7138 32.9413 10.9654V25.644C32.457 25.3819 31.9509 25.1549 31.4273 24.9658V12.3316Z" fill="#594226"/>
<path fill-rule="evenodd" clip-rule="evenodd" d="M27.658 26.167C32.8171 26.167 36.9997 30.3834 36.9997 35.5841C36.9997 40.784 32.8171 45.0004 27.658 45.0004C22.499 45.0004 18.3164 40.784 18.3164 35.5841C18.3164 30.3834 22.499 26.167 27.658 26.167Z" fill="#D8B97A"/>
<path d="M29.4854 31.3651L29.1564 35.5657L30.6705 35.0317C31.6714 34.6446 32.7011 35.359 31.9253 36.2474C30.9811 37.3427 29.5465 38.847 28.5028 39.8489C27.8545 40.5017 27.4792 40.5078 26.8291 39.8542C25.6737 38.7106 24.5393 37.4403 23.4101 36.2589C22.6029 35.3739 23.6108 34.627 24.6562 35.0317L26.1537 35.5604C26.0446 34.1283 25.9076 32.7595 25.8247 31.3291C25.8247 31.066 26.0428 30.8549 26.2977 30.8356C27.1974 30.8356 28.1162 30.8144 29.0133 30.8356C29.2681 30.8549 29.4863 31.066 29.4863 31.3291L29.4854 31.3651Z" fill="white"/>
</g>
<defs>
<clipPath id="clip0_2933_481">
<rect width="37" height="45" fill="white"/>
</clipPath>
</defs>
</svg>
