<svg width="41" height="40" viewBox="0 0 41 40" fill="none" xmlns="http://www.w3.org/2000/svg">
<circle opacity="0.2" cx="20.2617" cy="20" r="20" fill="white"/>
<g clip-path="url(#clip0_4093_375635)">
<path d="M20.2642 10H20.2592C14.7455 10 10.2617 14.485 10.2617 20C10.2617 22.1875 10.9667 24.215 12.1655 25.8612L10.9192 29.5763L14.763 28.3475C16.3442 29.395 18.2305 30 20.2642 30C25.778 30 30.2617 25.5138 30.2617 20C30.2617 14.4863 25.778 10 20.2642 10Z" fill="white"/>
<path d="M26.0824 24.1217C25.8412 24.803 24.8837 25.368 24.1199 25.533C23.5974 25.6442 22.9149 25.733 20.6174 24.7805C17.6787 23.563 15.7862 20.5767 15.6387 20.383C15.4974 20.1892 14.4512 18.8017 14.4512 17.3667C14.4512 15.9317 15.1799 15.233 15.4737 14.933C15.7149 14.6867 16.1137 14.5742 16.4962 14.5742C16.6199 14.5742 16.7312 14.5805 16.8312 14.5855C17.1249 14.598 17.2724 14.6155 17.4662 15.0792C17.7074 15.6605 18.2949 17.0955 18.3649 17.243C18.4362 17.3905 18.5074 17.5905 18.4074 17.7842C18.3137 17.9842 18.2312 18.073 18.0837 18.243C17.9362 18.413 17.7962 18.543 17.6487 18.7255C17.5137 18.8842 17.3612 19.0542 17.5312 19.348C17.7012 19.6355 18.2887 20.5942 19.1537 21.3642C20.2699 22.358 21.1749 22.6755 21.4987 22.8105C21.7399 22.9105 22.0274 22.8867 22.2037 22.6992C22.4274 22.458 22.7037 22.058 22.9849 21.6642C23.1849 21.3817 23.4374 21.3467 23.7024 21.4467C23.9724 21.5405 25.4012 22.2467 25.6949 22.393C25.9887 22.5405 26.1824 22.6105 26.2537 22.7342C26.3237 22.858 26.3237 23.4392 26.0824 24.1217Z" fill="#7A6851"/>
</g>
<defs>
<clipPath id="clip0_4093_375635">
<rect width="20" height="20" fill="white" transform="translate(10.2617 10)"/>
</clipPath>
</defs>
</svg>
