<svg width="40" height="40" viewBox="0 0 40 40" fill="none" xmlns="http://www.w3.org/2000/svg">
<circle opacity="0.2" cx="20" cy="20" r="20" fill="white"/>
<g clip-path="url(#clip0_127_1985)">
<g clip-path="url(#clip1_127_1985)">
<path d="M20.0007 10C17.3844 10 17.0578 10.0126 16.0304 10.06C15.0059 10.1096 14.3081 10.2778 13.6941 10.5252C13.0472 10.7788 12.4646 11.1727 11.9881 11.6785C11.4947 12.1821 11.1157 12.7862 10.877 13.4496C10.6392 14.0874 10.477 14.8126 10.4296 15.8778C10.3807 16.9444 10.3711 17.283 10.3711 20C10.3711 22.717 10.3829 23.0556 10.4289 24.1222C10.477 25.1867 10.6385 25.9126 10.877 26.5496C11.1161 27.2129 11.4947 27.8171 11.9874 28.3215C12.4637 28.8274 13.0463 29.2213 13.6933 29.4748C14.3081 29.7215 15.0059 29.8911 16.0311 29.94C17.0578 29.9896 17.3844 30 20.0007 30C22.617 30 22.9437 29.9874 23.9711 29.94C24.9955 29.8904 25.6941 29.7215 26.3081 29.4748C26.9547 29.2207 27.5373 28.8268 28.0141 28.3215C28.5075 27.8176 28.8865 27.2133 29.1252 26.5496C29.3622 25.9126 29.5252 25.1867 29.5726 24.1222C29.6207 23.0556 29.6303 22.7163 29.6303 20C29.6303 17.283 29.6185 16.9444 29.5726 15.8778C29.5244 14.8133 29.3622 14.0867 29.1244 13.4504C28.8852 12.7872 28.5066 12.183 28.0141 11.6785C27.5381 11.1721 26.9554 10.7781 26.3081 10.5252C25.6941 10.2778 24.9955 10.1089 23.9703 10.0593C22.9437 10.0096 22.617 10 20.0007 10ZM20.0007 11.8C22.5711 11.8 22.8778 11.8133 23.8926 11.8593C24.8318 11.9052 25.3415 12.0667 25.68 12.2052C26.1311 12.3859 26.4503 12.6022 26.7889 12.9519C27.1252 13.3015 27.3333 13.6341 27.5074 14.1022C27.6392 14.4541 27.7963 14.9837 27.8392 15.9585C27.8852 17.0133 27.8955 17.3296 27.8955 20C27.8955 22.6704 27.8837 22.9874 27.8363 24.0415C27.7874 25.017 27.6303 25.5452 27.4985 25.8978C27.3185 26.3659 27.1133 26.6978 26.777 27.0489C26.4687 27.3779 26.0902 27.6331 25.6696 27.7956C25.3326 27.9326 24.8148 28.0956 23.8755 28.14C22.8533 28.1874 22.5526 28.1985 19.9763 28.1985C17.4 28.1985 17.0992 28.1859 16.0778 28.1363C15.1378 28.0859 14.62 27.923 14.2829 27.7859C13.862 27.6235 13.4836 27.3674 13.1763 27.037C12.8521 26.7127 12.6053 26.3195 12.4541 25.8867C12.3222 25.5363 12.1659 24.9993 12.117 24.0244C12.0815 22.9741 12.0681 22.6504 12.0681 19.9874C12.0681 17.3244 12.0815 16.9993 12.117 15.9363C12.1659 14.9615 12.3222 14.4252 12.4541 14.0748C12.6229 13.6 12.8392 13.2748 13.1763 12.9244C13.5126 12.5748 13.8266 12.3496 14.2829 12.1763C14.62 12.0378 15.1266 11.8748 16.0652 11.8252C17.0889 11.7881 17.3896 11.7748 19.9644 11.7748L20.0007 11.8ZM20.0007 14.8652C17.2681 14.8652 15.0555 17.1652 15.0555 20C15.0555 22.837 17.2704 25.1348 20.0007 25.1348C22.7333 25.1348 24.9452 22.8348 24.9452 20C24.9452 17.163 22.7303 14.8652 20.0007 14.8652ZM20.0007 23.3333C18.2274 23.3333 16.7911 21.8415 16.7911 20C16.7911 18.1585 18.2274 16.6667 20.0007 16.6667C21.7741 16.6667 23.2104 18.1585 23.2104 20C23.2104 21.8415 21.7741 23.3333 20.0007 23.3333ZM26.297 14.6622C26.297 15.3252 25.7785 15.8622 25.1415 15.8622C24.5037 15.8622 23.9859 15.3244 23.9859 14.6622C23.9859 14.0007 24.5044 13.4637 25.1415 13.4637C25.7778 13.4622 26.297 14.0007 26.297 14.6622Z" fill="white"/>
</g>
</g>
<defs>
<clipPath id="clip0_127_1985">
<rect width="20" height="20" fill="white" transform="translate(10 10)"/>
</clipPath>
<clipPath id="clip1_127_1985">
<rect width="20" height="20" fill="white" transform="translate(10 10)"/>
</clipPath>
</defs>
</svg>
