<svg width="40" height="40" viewBox="0 0 40 40" fill="none" xmlns="http://www.w3.org/2000/svg">
<circle opacity="0.2" cx="20" cy="20" r="20" fill="white"/>
<g clip-path="url(#clip0_127_1995)">
<g clip-path="url(#clip1_127_1995)">
<g clip-path="url(#clip2_127_1995)">
<path d="M27.0393 27.0437H24.0778V22.4022C24.0778 21.2956 24.0556 19.8719 22.5341 19.8719C20.9896 19.8719 20.7541 21.0756 20.7541 22.3207V27.0437H17.7926V17.5H20.637V18.8007H20.6756C21.0741 18.0519 22.04 17.2593 23.4844 17.2593C26.4844 17.2593 27.04 19.2341 27.04 21.8052L27.0393 27.0437ZM14.4474 16.1941C14.2215 16.1941 13.9979 16.1495 13.7892 16.063C13.5806 15.9765 13.3911 15.8498 13.2314 15.6899C13.0718 15.5301 12.9453 15.3404 12.8591 15.1317C12.7728 14.9229 12.7286 14.6992 12.7289 14.4733C12.729 14.1331 12.8301 13.8006 13.0192 13.5178C13.2084 13.235 13.4771 13.0147 13.7915 12.8846C14.1059 12.7546 14.4518 12.7208 14.7854 12.7873C15.1191 12.8539 15.4255 13.0179 15.6659 13.2586C15.9063 13.4994 16.0699 13.806 16.1361 14.1397C16.2022 14.4734 16.1679 14.8193 16.0375 15.1335C15.907 15.4477 15.6863 15.7162 15.4033 15.905C15.1203 16.0938 14.7876 16.1944 14.4474 16.1941ZM15.9333 27.0444H12.963V17.5H15.9333V27.0444ZM28.5207 10H11.4763C10.6593 10 10 10.6444 10 11.4407V28.5593C10 29.3556 10.66 30 11.4756 30H28.5185C29.3333 30 30 29.3556 30 28.5593V11.4407C30 10.6452 29.3333 10 28.5185 10H28.5207Z" fill="white"/>
</g>
</g>
</g>
<defs>
<clipPath id="clip0_127_1995">
<rect width="20" height="20" fill="white" transform="translate(10 10)"/>
</clipPath>
<clipPath id="clip1_127_1995">
<rect width="20" height="20" fill="white" transform="translate(10 10)"/>
</clipPath>
<clipPath id="clip2_127_1995">
<rect width="20" height="20" fill="white" transform="translate(10 10)"/>
</clipPath>
</defs>
</svg>
