<svg width="31" height="30" viewBox="0 0 31 30" fill="none" xmlns="http://www.w3.org/2000/svg">
<rect x="1.08464" y="0.416667" width="29.1667" height="29.1667" rx="2.91667" stroke="#F4C76C" stroke-width="0.833333"/>
<path d="M15.3199 21.2511C11.6834 21.2511 8.72266 18.2904 8.72266 14.6539C8.72266 11.0173 11.6834 8.05664 15.3199 8.05664C18.9564 8.05664 21.9171 11.0173 21.9171 14.6539C21.9171 18.2904 18.9564 21.2511 15.3199 21.2511ZM15.3199 9.02209C12.2111 9.02209 9.6881 11.5516 9.6881 14.6539C9.6881 17.7562 12.2111 20.2856 15.3199 20.2856C18.4286 20.2856 20.9517 17.7562 20.9517 14.6539C20.9517 11.5516 18.4286 9.02209 15.3199 9.02209Z" fill="white"/>
<path d="M22.6111 22.4659C22.4792 22.4659 22.3472 22.4173 22.2431 22.3132L20.8542 20.9243C20.6528 20.7229 20.6528 20.3895 20.8542 20.1882C21.0556 19.9868 21.3889 19.9868 21.5903 20.1882L22.9792 21.577C23.1806 21.7784 23.1806 22.1118 22.9792 22.3132C22.875 22.4173 22.7431 22.4659 22.6111 22.4659Z" fill="white"/>
</svg>
