<svg width="56" height="40" viewBox="0 0 56 40" fill="none" xmlns="http://www.w3.org/2000/svg">
<mask id="mask0_4217_52991" style="mask-type:luminance" maskUnits="userSpaceOnUse" x="18" y="28" width="21" height="12">
<path d="M33.4326 39.8257L33.4561 40L33.5501 39.9236L33.5324 39.7591L33.4326 39.8257ZM32.5023 39.7767V39.9726L32.6081 39.9079V39.7297L32.5023 39.7767ZM34.2943 39.7532L34.3275 39.9119L34.4078 39.8257L34.3824 39.6749L34.2943 39.7532ZM31.5094 39.5848V39.7904L31.6269 39.7356V39.5398L31.5094 39.5848ZM35.0776 39.5652L35.1168 39.7062L35.1873 39.6122L35.154 39.4771L35.0776 39.5652ZM30.4734 39.2519L30.4539 39.4771L30.5851 39.436L30.6047 39.2264L30.4734 39.2519ZM35.7768 39.2832L35.8218 39.4085L35.8805 39.3087L35.8394 39.1892L35.7768 39.2832ZM33.3523 39.0639L33.3758 39.2597L33.5089 39.1402L33.4913 38.9444L33.3523 39.0639ZM34.1591 39.0247L34.1944 39.2068L34.3099 39.0776L34.2825 38.9052L34.1591 39.0247ZM32.471 38.9973L32.4847 39.2205L32.6355 39.1128V38.9033L32.471 38.9973ZM29.4061 38.7819L29.3689 39.0267L29.5138 38.9992L29.551 38.7721L29.4061 38.7819ZM34.8896 38.8915L34.9307 39.0521L35.0306 38.915L34.9973 38.7623L34.8896 38.8915ZM31.5466 38.7936V39.0404L31.7151 38.9464V38.7153L31.5466 38.7936ZM35.5496 38.6526L35.5946 38.7936L35.6808 38.6507L35.6397 38.5155L35.5496 38.6526ZM30.5812 38.4568L30.5655 38.7231L30.7613 38.6448L30.779 38.3941L30.5812 38.4568ZM36.9087 38.4901L36.9577 38.5821L36.9949 38.4764L36.9479 38.3902L36.9087 38.4901ZM33.3013 38.3549L33.3268 38.5664L33.507 38.4078L33.4854 38.212L33.3013 38.3549ZM36.1273 38.3275L36.1782 38.4489L36.2468 38.304L36.2017 38.1885L36.1273 38.3275ZM34.0632 38.3432L34.0965 38.539L34.2551 38.3667L34.2257 38.1865L34.0632 38.3432ZM28.2742 38.4039L28.4348 38.3941L28.4916 38.1454L28.331 38.1356L28.2742 38.4039ZM32.4788 38.257L32.4984 38.494L32.6943 38.3451L32.6825 38.1219L32.4788 38.257ZM34.7603 38.2316L34.7995 38.398L34.9366 38.2178L34.9033 38.0592L34.7603 38.2316ZM29.5902 37.9789L29.5589 38.2727L29.7665 38.21L29.7998 37.9378L29.5902 37.9789ZM31.6113 38.0416V38.304L31.8326 38.1689V37.9221L31.6113 38.0416ZM37.3376 37.9828L37.3572 38.0103H37.3767L37.3885 38.0533L37.412 37.9515L37.3689 37.879L37.3376 37.9828ZM35.3792 38.0279L35.4223 38.1728L35.5378 37.9887L35.4987 37.8497L35.3792 38.0279ZM36.6169 37.9319L36.6659 38.0338L36.7187 37.8869L36.6737 37.7909L36.6169 37.9319ZM30.6987 37.7028V37.9907L30.9435 37.8732V37.601L30.6987 37.7028ZM35.9295 37.7439L35.9413 37.7772L36.0059 37.8105L36.0705 37.6793L36.0294 37.5618L35.9295 37.7439ZM33.2955 37.6852L33.3268 37.8947L33.5501 37.6989L33.5266 37.503L33.2955 37.6852ZM34.0201 37.695L34.0553 37.881L34.2512 37.6852L34.2238 37.505L34.0201 37.695ZM34.684 37.6108L34.7231 37.7713L34.8974 37.5579L34.8661 37.4032L34.684 37.6108ZM32.516 37.5716L32.5435 37.8066L32.7922 37.6264L32.7726 37.3992L32.516 37.5716ZM28.5875 37.3601L28.5405 37.6812L28.7677 37.6362L28.8166 37.3405L28.5875 37.3601ZM27.1912 37.6264H27.3714L27.4477 37.3522L27.2715 37.3209L27.1912 37.6264ZM37.036 37.4678L37.085 37.552L37.1241 37.4051L37.0771 37.3268L37.036 37.4678ZM37.6803 37.4149L37.7253 37.4756L37.741 37.3757L37.6999 37.3189L37.6803 37.4149ZM35.2891 37.4345L35.3302 37.5735L35.481 37.3542L35.4458 37.2191L35.2891 37.4345ZM36.4093 37.3836L36.4563 37.4874L36.5327 37.2915L36.4896 37.1936L36.4093 37.3836ZM31.7092 37.3424L31.7307 37.6049L32.0049 37.4384L31.9912 37.1877L31.7092 37.3424ZM29.788 37.2308L29.7743 37.5481L30.0426 37.4482L30.0602 37.1505L29.788 37.2308ZM35.8237 37.1838L35.8668 37.2994L35.9922 37.0761L35.955 36.9625L35.8237 37.1838ZM30.9748 36.9469L30.8534 37.0017L30.871 37.2935L30.9102 37.2739V37.2896L30.9826 36.9194L30.9748 36.9469ZM34.0534 37.0957L34.0906 37.268L34.3315 37.0389L34.3217 36.9841L34.257 36.9096L34.0534 37.0957ZM31.0747 36.8999L31.1354 36.9743L31.1001 37.1701L31.1687 37.1349L31.1589 36.8568L31.0747 36.8999ZM33.3562 37.0624L33.3954 37.2582L33.6637 37.0448L33.6343 36.8489L33.3562 37.0624ZM37.3709 36.9469L37.4179 37.0134L37.4433 36.8724L37.3983 36.8078L37.3709 36.9469ZM34.684 37.0389L34.7212 37.1877L34.9366 36.9527L34.9072 36.8059L34.684 37.0389ZM36.8049 36.9704L36.8499 37.0546L36.9067 36.8587L36.8656 36.7784L36.8049 36.9704ZM32.8979 36.7549L32.9097 36.7686V36.7491L32.8979 36.7549ZM37.9329 36.8078L37.9741 36.8548V36.7628L37.9368 36.7197L37.9329 36.8078ZM36.2703 36.8685L36.3114 36.9645L36.4093 36.7451L36.5679 36.8548L36.3486 36.7021L36.2703 36.8685ZM32.8215 36.8039L32.6022 36.9449L32.6414 37.1682L32.7941 37.0663V37.1466L32.845 36.6844L32.8215 36.8039ZM35.434 36.6746L35.2637 36.8881L35.2989 37.0134L35.4947 36.7686L35.4634 36.6453L35.434 36.6746ZM27.5496 36.9547L27.7983 36.9331L27.8649 36.6081H27.6162L27.5496 36.9547ZM28.8499 36.6413L28.8264 36.9899L29.1182 36.9096L29.1457 36.5826L28.8499 36.6413ZM31.813 36.7118L31.8561 36.9645L32.1753 36.7784L32.142 36.5336L31.813 36.7118ZM34.116 36.565L34.1572 36.7197L34.1728 36.706V36.5101L34.116 36.565ZM29.9701 36.5493L29.9878 36.8724L30.3089 36.7393V36.4318L29.9701 36.5493ZM35.767 36.6668L35.8022 36.7706L35.9648 36.5219L35.9334 36.4181L35.767 36.6668ZM26.1474 36.7158L26.3432 36.7471L26.4431 36.4455L26.2472 36.3887L26.1474 36.7158ZM32.7138 36.3809L32.7667 36.5865L32.8725 36.5238L32.7569 36.3554L32.7138 36.3809ZM34.2296 36.4768L34.3334 36.5767L34.4411 36.4906L34.4078 36.3358L34.2296 36.4768ZM37.1202 36.4945L37.1633 36.5611L37.2025 36.377L37.1613 36.3123L37.1202 36.4945ZM33.4404 36.5199L33.4854 36.7001L33.7968 36.4847L33.7596 36.3045L33.4404 36.5199ZM34.7368 36.5199L34.7741 36.6511L35.0306 36.4103L35.0012 36.279L34.7368 36.5199ZM37.6078 36.3907L37.6509 36.4416L37.6627 36.3084L37.6215 36.2575L37.6078 36.3907ZM36.6502 36.4827L36.6894 36.5591L36.7697 36.3319L36.7324 36.2575L36.6502 36.4827ZM31.2137 36.2555L31.1334 36.5591L30.9493 36.2164L31.0179 36.3456H30.9924L31.0414 36.6296L31.3841 36.4592L31.3469 36.185L31.2137 36.2555ZM32.9293 36.2399L32.8862 36.5003L33.1036 36.3711L33.0585 36.1655L32.9293 36.2399ZM35.3753 36.2947L35.389 36.3065L35.4007 36.4083L35.5574 36.236L35.532 36.1263L35.3753 36.2947ZM36.2056 36.3593L36.2409 36.4435L36.2507 36.42L36.3114 36.6609L36.2311 36.3358L36.2801 36.3672L36.3741 36.189L36.3427 36.1048L36.2056 36.3593ZM38.0974 36.14L38.1327 36.1753V36.093L38.0994 36.0597L38.0974 36.14ZM35.8825 36.0597L35.7924 36.1733L35.8218 36.2634L35.9452 36.0989L35.8218 36.0186L35.8825 36.0597ZM34.8563 36.0597L34.8876 36.1674L35.0835 36.0264L34.9993 35.9598L34.8563 36.0597ZM31.9481 36.1302L32.0127 36.3652L32.3692 36.1792L32.3143 35.9461L31.9481 36.1302ZM24.6237 36.2046L24.7726 36.2771L24.896 36.0225L24.7569 35.9265L24.6237 36.2046ZM27.9373 35.9207L27.904 36.3025L28.2174 36.2438L28.2526 35.8874L27.9373 35.9207ZM34.2433 36.0989L34.2845 36.2281L34.6056 36.0205L34.5723 35.8854L34.2433 36.0989ZM29.0928 35.9735L29.1084 36.33L29.4531 36.2144V35.8776L29.0928 35.9735ZM35.0815 35.8972L35.0913 36.0225L35.1834 35.952L35.1579 35.8404L35.0815 35.8972ZM36.9596 36.0225L36.9929 36.0989L37.0477 35.8756L37.0145 35.8188L36.9596 36.0225ZM37.3513 35.9696L37.3905 36.0205L37.412 35.8404L37.3748 35.7934L37.3513 35.9696ZM30.1523 35.9167L30.2071 36.234L30.5714 36.0793L30.5283 35.7738L30.1523 35.9167ZM36.5679 36.0166L36.5993 36.0832L36.6776 35.8874L36.7716 36.1224L36.6737 35.8795L36.6991 35.8169L36.6698 35.7522L36.5679 36.0166ZM35.4027 35.954L35.4282 36.0421L35.6945 35.8051L35.6769 35.7248L35.4027 35.954ZM26.59 36.1008H26.8602L26.9425 35.7444L26.6761 35.715L26.59 36.1008ZM36.2193 35.9167L36.2448 35.9853L36.4054 35.7327L36.3525 35.7092L36.2193 35.9167ZM32.8548 35.8874L32.9077 36.0264L32.9371 36.0656L33.2916 35.8913L33.2328 35.7052L32.8548 35.8874ZM37.7684 35.7816L37.8076 35.8208V35.6955L37.7704 35.6582L37.7684 35.7816ZM31.1491 35.7934L31.1902 35.9305L31.2666 36.044L31.6054 35.8874L31.5388 35.6249L31.1491 35.7934ZM34.7623 35.5505L34.4274 35.7131L34.4666 35.8169L34.7584 35.6778V35.5584L34.8073 35.5936L34.7917 35.5388L34.7623 35.5505ZM35.8982 35.7562L35.9158 35.8247L36.1528 35.576L36.1391 35.5055L35.8982 35.7562ZM32.0989 35.6269L32.187 35.8404L32.5787 35.6759L32.5023 35.4604L32.0989 35.6269ZM38.1699 35.4546L38.2012 35.48V35.4076L38.1738 35.386L38.1699 35.4546ZM36.5738 35.5721L36.5934 35.623L36.7129 35.3919H36.6717L36.5738 35.5721ZM33.8321 35.5975L33.742 35.6347L33.7988 35.764L33.8967 35.7248L33.8849 35.8521L33.5618 36.0303L33.6167 36.187L33.8928 36.0303L33.8693 36.0049L33.9006 35.6935L33.9222 35.715L34.1728 35.6132L34.1356 35.4722L33.975 35.5388L33.9417 35.6876L33.8438 35.5917L33.6029 35.3606L33.8321 35.5975ZM36.8578 35.5975L36.8872 35.6465L36.9342 35.4898L37.0242 35.6406L36.9224 35.4683H36.94L36.9674 35.3821L36.942 35.3351L36.8578 35.5975ZM33.0193 35.4722L33.0996 35.6308L33.4913 35.4937L33.4208 35.3312L33.0193 35.4722ZM37.175 35.5388L37.2122 35.5486L37.2416 35.3684L37.2103 35.3253L37.175 35.5388ZM36.3094 35.5016L36.3231 35.5525L36.4818 35.3566L36.4583 35.3214L36.3094 35.5016ZM34.7427 35.3958H34.7603V35.4644L35.0619 35.3762L35.0384 35.2979L34.7427 35.3958ZM25.1466 35.6622L25.366 35.7209L25.4894 35.3899L25.2798 35.3018L25.1466 35.6622ZM34.9601 35.292H35.011L34.9464 35.2705L34.9601 35.292ZM36.4818 35.2666L36.4034 35.2548L36.7383 35.3096H36.6972L36.5014 35.2803V35.247L36.4818 35.2666ZM35.5966 35.2548V35.2666H35.6416L35.3498 35.2411L35.5966 35.2548ZM37.4903 35.3958L37.5256 35.433V35.2607L37.4923 35.2274L37.4903 35.3958ZM29.2945 35.3469L29.3591 35.7013L29.7508 35.5623L29.6979 35.2235L29.2945 35.3469ZM35.3028 35.2196L35.0756 35.2431L35.1599 35.2724L35.3557 35.2529V35.2333H35.3224V35.2156L35.3028 35.2196ZM28.2076 35.2764L28.2252 35.668L28.5895 35.5721L28.5797 35.2019L28.2076 35.2764ZM35.6495 35.2431H35.6847L35.951 35.198L35.9608 35.1863L35.6495 35.2431ZM30.3148 35.3331L30.4127 35.6387L30.8044 35.4781L30.7202 35.1804L30.3148 35.3331ZM34.4607 35.1569H34.4725L34.4274 35.198L34.3373 35.1588H34.2238L34.2727 35.2176H34.3804L34.3687 35.2744L34.355 35.2431L33.9535 35.339L34.0083 35.4369L34.4 35.3469L34.3883 35.3214L34.3608 35.3057L34.3843 35.1843L34.4372 35.2156H34.6722L34.6331 35.153L34.4607 35.1569ZM34.5743 35.1373L34.919 35.1921H34.9758H34.9562L34.5449 35.1295L34.5743 35.1373ZM31.343 35.2548L31.3782 35.3136L31.343 35.3958L31.3998 35.5251L31.7914 35.3723L31.6896 35.1216L31.343 35.2548ZM36.6894 35.1216L36.6502 35.1823V35.2156L36.7129 35.1197L36.6894 35.1216ZM36.8852 35.1099L36.8539 35.1863L36.8715 35.2196L36.9165 35.106L36.8852 35.1099ZM32.2517 35.2078L32.3613 35.4036L32.4965 35.3645L32.5963 35.1158L32.7373 35.2901H32.7648L32.6943 35.1549L32.6707 35.1843L32.6081 35.1099L32.2517 35.2078ZM36.4152 35.0981L36.3427 35.1393L36.3271 35.1588L36.4485 35.0903L36.4152 35.0981ZM36.4916 35.1588V35.1882L36.5875 35.0962L36.5719 35.0825L36.4916 35.1588ZM27.0639 35.0805L27.0228 35.4977L27.3557 35.4604L27.3988 35.0688L27.0639 35.0805ZM37.7116 35.0511H37.8566V35.1412L37.8899 35.1686V35.0531L37.7116 35.0511ZM33.7322 35.0707H33.9672L33.8889 34.9767H33.6049L33.7322 35.0707ZM36.5816 35.0825H36.6678H36.6208L36.7207 34.9846H36.7011L36.5816 35.0825ZM36.4504 35.0825L36.1743 35.1549L36.4857 35.0805L36.6345 34.9963L36.6541 34.9728L36.4504 35.0825ZM36.8264 34.9415L36.7442 35.0668H36.7755L36.8499 34.9532V34.9376L36.8264 34.9415ZM33.5657 35.1021L33.2289 35.1628L33.317 35.292L33.6362 35.2352L33.6558 35.1745L33.7087 35.2235H33.7244L33.7126 35.2039L33.3386 34.918L33.5657 35.1021ZM36.7129 34.9513L36.7383 34.9415V34.9219L36.7129 34.9513ZM37.0889 35.1471H37.0536H37.1182L37.1613 34.9415L37.1359 34.9219L37.0889 35.1471ZM36.9165 35.0648L36.9381 35.0825L36.989 34.9532L36.9753 34.9199L36.9165 35.0648ZM37.3415 34.9219V35.0237L37.3689 35.0511L37.3787 34.916L37.3415 34.9219ZM36.8695 34.8396L36.8558 34.8553V34.869L36.8832 34.8357L36.8695 34.8396ZM32.6864 34.8553L32.8235 35.0041L32.8098 35.0218L32.9841 34.9983L32.8646 34.8279L32.6864 34.8553ZM37.3474 34.8553L37.0967 34.9003L37.4042 34.8455H37.3767L37.3513 34.8181L37.3474 34.8553ZM36.989 34.7633L36.9557 34.8259V34.8436L37.0007 34.7515L36.989 34.7633ZM38.164 34.7633L38.1777 34.773H38.166L38.164 34.7633ZM31.4624 34.8631L31.6073 35.0942L32.0147 34.9846L31.8796 34.7515L31.4624 34.8631ZM25.6852 35.151L25.9241 35.1726L26.0083 35.0061V35.0218L26.0671 34.7946L25.7831 34.7319L25.6852 35.151ZM33.3229 34.7593L33.2622 34.7202L33.2269 34.7104L33.3229 34.7593ZM30.4989 34.8318L30.6419 35.1216L31.0453 34.9806L30.9141 34.6908L30.4989 34.8318ZM33.1525 34.6908H33.1878H33.1506H33.1525ZM37.5863 34.8063L37.6176 34.8298V34.681L37.5883 34.6595L37.5863 34.8063ZM29.5138 34.7907L29.6333 35.1373L30.0367 34.9904L29.931 34.6536L29.5138 34.7907ZM23.6387 34.9591L23.8071 35.0629L23.9618 34.7828L23.8091 34.6516L23.6387 34.9591ZM32.9978 34.6712L33.0644 34.6908L32.7471 34.6751L32.6766 34.6908L32.7883 34.7985L33.2034 34.8259L33.0761 34.6947L33.2328 34.7398L33.0977 34.6693H33.1682L32.8685 34.5831L32.9978 34.6712ZM28.4935 34.681L28.5718 35.0727L28.9635 34.9493L28.8969 34.5733L28.4935 34.681ZM37.0654 34.6007L37.0027 34.726L36.9048 34.7926L37.0575 34.6125V34.6007L36.893 34.7965L36.7559 34.8945L37.0223 34.7084H37.0125L37.0967 34.5439V34.5243L37.0654 34.6007ZM37.2612 34.4793L37.2416 34.636L37.1163 34.6967L37.1496 34.5772H37.1398L37.0928 34.7456L37.1045 34.7613L37.1202 34.7025L37.3983 34.5694L37.2788 34.6262L37.2965 34.4597L37.2612 34.4793ZM31.6289 34.495L31.7993 34.7025L32.2066 34.6595L32.0401 34.444L31.6289 34.495ZM27.4007 34.4832L27.4203 34.918L27.812 34.8416L27.7983 34.4342L27.4007 34.4832ZM37.2867 34.4186V34.4029L37.269 34.3892V34.4362L37.1692 34.5263L37.179 34.491L37.1672 34.4734L37.1476 34.5459L37.1124 34.5772L37.3435 34.3716L37.2867 34.4186ZM37.8448 34.4577L37.8742 34.4773L37.8605 34.3735L37.8331 34.3579L37.8448 34.4577ZM30.6614 34.3696L30.8436 34.6458L31.0394 34.5948L31.0198 34.5576L31.1589 34.4147L31.0629 34.2639L30.6614 34.3696ZM32.4122 34.3383L32.3222 34.2737L32.2889 34.2619L32.4122 34.3383ZM37.4179 34.448L37.4394 34.4636V34.2678L37.4179 34.2541V34.448ZM37.2553 34.1797L37.2377 34.2717L37.2593 34.1522L37.2553 34.1797ZM32.1283 34.2776L32.1537 34.2874L31.7836 34.2541L31.9794 34.4342L32.3143 34.4695L32.2242 34.3853L32.3809 34.3637L32.281 34.3755L32.2066 34.3011L32.3809 34.3637L32.1322 34.2071L31.9364 34.1405L32.1283 34.2776ZM29.7175 34.2541L29.7469 34.3226V34.3324L29.884 34.5968L30.2874 34.4636L30.1229 34.1287L29.7175 34.2541ZM24.283 34.5087L24.5219 34.5988L24.6727 34.2443L24.4455 34.1209L24.283 34.5087ZM37.5843 34.0465L37.598 34.162L37.6235 34.1757L37.6059 34.0269L37.5843 34.0465ZM28.7246 34.1248L28.8676 34.5165L29.2749 34.3794L29.1437 33.9877L28.7246 34.1248ZM37.2573 34.164L37.2671 34.1385L37.2925 33.9975L37.2573 34.164ZM37.3239 33.9133V34.1092H37.3356V33.8722L37.3239 33.9133ZM27.6984 33.9133L27.7905 34.354L28.1978 34.2443L28.1175 33.8252L27.6984 33.9133ZM31.3919 33.8291L31.5486 33.8937L31.6289 33.9349L31.3586 33.7919L31.3919 33.8291ZM31.1412 33.9544L30.7907 33.9956L31.01 34.258L31.1902 34.2404L31.0433 34.0152L31.2764 33.9486L31.0982 33.741L30.9023 33.7234L31.1412 33.9544ZM31.5506 33.8761L31.3234 33.6999H31.3038L31.5506 33.8761ZM37.7665 33.7586L37.79 33.7684L37.7704 33.6803H37.7488L37.7665 33.7586ZM37.4218 33.8467H37.4335L37.414 33.6607H37.4003L37.4218 33.8467ZM24.8881 34.0622L25.1956 34.1209L25.3131 33.7096L25.0135 33.6137L24.8881 34.0622ZM31.0375 33.5412L31.1491 33.6254L30.9885 33.5628L31.1843 33.7096L31.294 33.7331L31.155 33.6254L31.0433 33.5393L31.0375 33.5412ZM26.9581 33.5843L26.6468 33.6039L26.6624 33.9309L26.5155 34.162L26.2512 34.1444L26.2022 34.6007H26.4294L26.3765 34.3912L26.682 33.9114L26.7427 34.0759L27.0659 34.0328V34.0014L27.0424 34.0249L26.9425 33.5099L26.9581 33.5921M37.5491 33.4453L37.5373 33.3865H37.5197L37.5373 33.4786L37.4962 33.5902L37.5961 33.3199L37.5491 33.4453ZM37.3376 33.3101L37.3513 33.506L37.3317 33.7527L37.3532 33.4844L37.3415 33.2886L37.3376 33.3101ZM22.8259 33.6059L23.01 33.7449L23.1334 33.5491L23.0942 33.3278L23.0375 33.269L22.8259 33.6059ZM27.9785 33.3943L28.1469 33.8369L28.5503 33.7057L28.3936 33.2749L27.9785 33.3943ZM27.5476 33.2024C27.5467 33.1881 27.5467 33.1737 27.5476 33.1593V33.2024ZM25.4659 33.6313L25.834 33.647L25.8908 33.1926L25.5187 33.1221L25.4659 33.6313ZM30.5107 33.3748L30.1836 33.2396L30.3109 33.3669L30.2208 33.3806L30.3207 33.5765L30.1053 33.5667L30.2345 33.7175L30.0171 33.7762L30.0681 33.8898L29.9564 33.9407L30.0994 34.1464L30.4911 34.0465L30.2952 33.7449L30.6262 33.7038L30.3971 33.4257L30.6967 33.4609L30.4147 33.1809L30.6203 33.2788L30.2815 33.0516L30.5107 33.3748ZM37.3572 33.0595L37.3905 33.2338H37.4003L37.365 33.0516L37.3572 33.0595ZM30.634 33.2905L30.6928 33.3199L30.3696 33.0438L30.634 33.2905ZM26.9973 33.0947L27.058 33.3787L26.9444 33.4962L27.3244 33.1182L27.4379 33.5099L27.5143 33.4923L27.4203 33.0301L26.9973 33.0947ZM30.3618 33.0438L30.3266 33.0144L30.3031 33.0046L30.3618 33.0438ZM30.1366 32.9615L30.1993 32.9909L30.1366 32.9302L30.0543 32.893L30.1366 32.9615ZM23.5447 33.2964L23.7993 33.4198L23.9794 33.0457L23.7405 32.8852L23.5447 33.2964ZM28.5562 32.7598L28.5679 32.8088H28.3995L28.1939 32.8832L28.4367 33.3317L28.8069 33.1907L28.5718 32.7461L28.5562 32.7598ZM25.9731 32.6678L25.9946 33.1848L26.4 33.1476L26.3824 32.6658L25.9731 32.6678ZM24.3359 32.5777L24.2164 32.9596L24.5395 33.0516L24.6766 32.6169L24.4122 32.5052L24.3359 32.5777ZM27.2852 32.5777L27.481 33.0751L27.5339 33.0555L27.4869 32.7657L27.763 32.6404L27.6965 32.4602L27.2852 32.5777ZM28.4602 32.3525L28.5523 32.703L28.6619 32.8656L28.9753 32.7324L28.8499 32.5483L28.4876 32.4289L28.4563 32.3388L28.4602 32.3525ZM28.94 32.374L29.0321 32.3329L28.9929 32.282L29.2906 32.4641L29.4668 32.66L29.1829 32.7344L29.4375 33.0418L29.0928 33.1535L29.3337 33.4981L28.942 33.6254L29.1515 34.0171L29.5432 33.8839L29.3689 33.5471L29.7195 33.4394L29.5001 33.1221L29.8037 33.0595L29.5667 32.7696H29.8193L29.5412 32.4739L29.7469 32.5797L29.4335 32.2859L29.5863 32.4817L29.3748 32.3114L29.4042 32.3388H29.2769L29.3356 32.4759L28.8793 32.1997L28.94 32.374ZM29.3709 32.2232L29.3102 32.1645L29.2886 32.1547L29.3709 32.2232ZM24.8979 32.2624L24.849 32.5953L25.2269 32.6384L25.2994 32.1586L25.1506 32.1253L24.8979 32.2624ZM26.3608 32.186L26.4725 32.7187L26.8818 32.6306L26.7799 32.1234L26.3608 32.186ZM21.3532 32.3564L21.4825 32.5287L21.6979 32.3055L21.5863 32.1096L21.3532 32.3564ZM27.5182 32.0822L27.7885 32.5934L28.0157 32.4857L27.9785 32.2546H28.4328H28.0411L27.8707 31.9256L27.5182 32.0822ZM22.1758 32.2017L22.3716 32.3799L22.5812 32.0646L22.4088 31.8551L22.1758 32.2017ZM25.9104 31.7317L25.928 31.8218L26.3197 31.7395L26.308 31.6827L25.9104 31.7317ZM25.46 31.9471L25.4012 31.9804V32.2134L25.8086 32.1978V31.7395L25.6617 31.7571V31.6768L25.4306 31.6651L25.46 31.9471ZM22.9356 32.0117L23.2 32.1723L23.4135 31.7904L23.1667 31.5946L22.9356 32.0117ZM26.6565 31.7082L26.8524 32.2565L27.2284 32.1155L27.0326 31.5828L26.6565 31.7082ZM28.658 31.8766L28.7599 31.9941V32.0137L28.658 31.8766ZM28.5425 31.5711L28.4583 31.4947L28.3741 31.5476L28.6189 31.8316L28.3976 31.953L28.7892 32.0979L28.7109 31.8394L28.9557 31.9941L28.5131 31.4869L28.5425 31.5711ZM27.6475 31.5926L27.9902 32.1273L28.2605 31.9471L27.9119 31.4046L27.6475 31.5926ZM27.4047 31.3478L27.4184 31.3302L27.3812 31.3106L27.4047 31.3478ZM23.6543 31.7885L23.9853 31.9138L24.1498 31.4673L23.8326 31.3008L23.6543 31.7885ZM27.0306 31.1461V31.5084L27.1736 31.8002L27.4752 31.6044L27.3106 31.2695L27.0521 31.1265L27.0306 31.1461ZM27.7004 31.1226L28.1097 31.6886L28.2624 31.5182L28.1567 31.3713V31.479L27.7023 31.1207L27.7004 31.1226ZM24.3241 31.528L24.706 31.6005L24.8 31.103L24.424 30.9875L24.3241 31.528ZM27.0502 30.7446L27.0639 30.7682L27.0756 30.7094L27.0502 30.7446ZM26.1395 30.8093L26.2277 31.0756H26.2688V31.2284L26.3256 31.4066L26.4059 31.3713L26.3628 31.3596L26.4313 30.7936L26.539 30.8269L26.4901 30.6741L26.1395 30.8093ZM24.9312 31.2264H25.3386V30.6898L24.9312 30.6467V31.2264ZM20.8186 30.7917L20.9518 31.0051L21.2064 30.7897L21.0967 30.5527L20.8186 30.7917ZM27.1011 30.6761L27.4791 30.9013L27.2401 30.492L27.1011 30.6761ZM21.692 30.7819L21.8879 31.0012L22.1523 30.7074L21.9799 30.4568L21.692 30.7819ZM22.5067 30.7251L22.7731 30.9209L23.0198 30.5488L22.777 30.3158L22.5067 30.7251ZM25.3856 30.2903L25.4717 30.8935L25.8634 30.8152L25.7812 30.2394L25.3856 30.2903ZM27.1011 30.2296V30.2492L27.5182 30.8954L27.575 30.6291L27.4379 30.4156L27.1912 30.1415L27.1011 30.2296ZM23.2666 30.6213L23.5956 30.7819L23.7914 30.3412L23.4781 30.1454L23.2666 30.6213ZM26.4 30.353L26.6135 30.8406L26.7701 30.8876L26.9307 30.7427L26.6585 30.1219L26.4 30.353ZM26.2531 30.1415L26.2707 30.1199L26.2375 30.0925L26.2531 30.1415ZM23.9618 30.4607L24.3398 30.5606L24.4671 30.0612L24.2595 29.9809L24.0891 29.9495L23.9618 30.4607ZM26.8994 30.539L26.9895 30.304L26.5684 29.8908L26.8994 30.539ZM25.1368 29.9828L25.2759 29.9515L25.129 29.8771L25.1368 29.9828ZM25.7361 29.9045L25.9084 30.5351L26.2335 30.3569L26.1454 30.0259L25.8928 29.8301L25.7361 29.9045ZM24.6198 29.7929L24.5865 30.2472L24.9782 30.2668L25.0115 29.8203L24.7275 29.6754L24.6453 29.6636L24.6198 29.7929ZM26.6487 29.597L26.7349 29.6871L26.6663 29.5481L26.6487 29.597ZM25.3229 29.3307L25.4933 29.4247V29.3092L25.3229 29.3307ZM26.0749 29.4169L26.3256 29.6127L26.3922 29.5833L26.2453 29.1799L26.0749 29.4169ZM21.4394 29.4169L21.6352 29.6715L21.9368 29.4129L21.7723 29.129L21.4394 29.4169ZM22.2756 29.4854L22.5322 29.7224L22.8181 29.3816L22.5812 29.1035L22.2756 29.4854ZM20.5425 29.2896L20.6737 29.5402L20.9635 29.3601L20.8597 29.0879L20.5425 29.2896ZM23.0492 29.4854L23.0805 29.505L23.4996 29.4541L23.6093 29.2582L23.3116 29.0232L23.0492 29.4854ZM19.5809 29.082L19.6592 29.3072L19.9177 29.1975L19.8629 28.9586L19.5809 29.082ZM23.7562 29.4169L23.9089 29.4717L23.9951 29.2465L24.2086 29.2954L24.2928 29.0624L23.9422 28.894L23.7562 29.4169ZM18.5469 28.8293L18.5704 29.0134L18.7838 28.9331V28.7373L18.5469 28.8293Z" fill="white"/>
</mask>
<g mask="url(#mask0_4217_52991)">
<path d="M25.0849 19.2851L13.2695 36.3486L32.1879 49.4483L44.0033 32.3848L25.0849 19.2851Z" fill="white"/>
</g>
<mask id="mask1_4217_52991" style="mask-type:luminance" maskUnits="userSpaceOnUse" x="0" y="0" width="41" height="40">
<path d="M36.4044 39.1932L36.4984 39.2362L36.4455 38.8583L36.3574 38.8446L36.4044 39.1932ZM34.7653 38.8426L34.8769 38.9288L34.8534 38.496L34.7476 38.4451L34.7653 38.8426ZM37.3347 38.3471L37.4698 38.4098L37.3758 38.0181L37.2524 37.9868L37.3347 38.3471ZM32.9283 38.2198L33.0536 38.3608L33.0771 37.881L32.9538 37.7812L32.9283 38.2198ZM35.9873 38.1748L36.142 38.2884L36.0774 37.8458L35.9325 37.7675L35.9873 38.1748ZM34.4676 37.7831L34.6419 37.9613L34.6223 37.4776L34.4558 37.3425L34.4676 37.7831ZM37.9261 37.4913L38.0965 37.5657L37.9711 37.1937L37.8145 37.1506L37.9261 37.4913ZM36.8196 37.4541L37.0154 37.5814L36.9156 37.176L36.7334 37.084L36.8196 37.4541ZM35.5662 37.2407L35.7836 37.4365L35.7229 37.0017L35.5173 36.8529L35.5662 37.2407ZM30.8994 37.2916L31.0326 37.5011L31.1266 36.9802L30.9915 36.8176L30.8994 37.2916ZM32.7834 37.1427L32.9694 37.3973L33.0164 36.8842L32.8343 36.6884L32.7834 37.1427ZM37.3425 36.7511L37.5736 36.8725L37.4463 36.5317L37.2309 36.4397L37.3425 36.7511ZM34.1699 36.8313L34.4049 37.0957V36.6453L34.1797 36.4279L34.1699 36.8313ZM38.2492 36.6806L38.4451 36.7511L38.2982 36.4358L38.1023 36.3888L38.2492 36.6806ZM36.3104 36.6806L36.567 36.8607L36.473 36.5043L36.2301 36.3555L36.3104 36.6806ZM35.155 36.4416L35.4331 36.6884L35.388 36.3261L35.1138 36.1009L35.155 36.4416ZM36.7765 36.1342L37.0664 36.285L36.9528 36.0147L36.6786 35.8913L36.7765 36.1342ZM37.6245 36.0989L37.8869 36.1968L37.7459 35.9344L37.5011 35.858L37.6245 36.0989ZM32.6424 36.1968L32.8813 36.5435L32.9577 36.095L32.7207 35.7993L32.6424 36.1968ZM35.8208 36.0382L36.1361 36.234L36.0617 35.9657L35.7601 35.7895L35.8208 36.0382ZM30.9484 36.234L31.1325 36.5768L31.2695 36.0539L31.0737 35.7699L30.9484 36.234ZM38.3648 35.9403L38.5959 35.9951L38.4372 35.7444L38.2218 35.7092L38.3648 35.9403ZM33.8801 36.0186L34.1699 36.3378L34.1934 35.9853L33.9114 35.7072L33.8801 36.0186ZM34.7594 35.7895L35.0923 36.0539L35.0727 35.7973L34.7515 35.5643L34.7594 35.7895ZM28.7021 36.0284L28.8314 36.3222L29.0272 35.7777L28.8881 35.5369L28.7021 36.0284ZM36.2438 35.6681L36.5866 35.811L36.5004 35.6289L36.1733 35.5055L36.2438 35.6681ZM37.0272 35.6524L37.3425 35.7503L37.225 35.5545L36.9254 35.4722L37.0272 35.6524ZM35.3528 35.5604L35.7151 35.7562L35.672 35.5897L35.3234 35.4194L35.3528 35.5604ZM37.7224 35.5251L38.0083 35.5799L37.8693 35.3841L37.599 35.343L37.7224 35.5251ZM35.7523 35.3704L36.1303 35.4722L36.0774 35.3782L35.721 35.2764L35.7523 35.3704ZM36.4906 35.3704L36.8431 35.435L36.7609 35.3273L36.4201 35.2725L36.4906 35.3704ZM35.3254 35.249L35.717 35.2823L35.6975 35.2646L35.3058 35.2313L35.3254 35.249ZM34.9337 35.2705L35.3254 35.4096L35.3156 35.3371L34.9239 35.2098L34.9337 35.2705ZM36.0167 35.2451H36.3888L36.3418 35.2078H35.9795L36.0167 35.2451ZM34.3814 35.3273L34.7555 35.5643L34.7692 35.4233L34.4049 35.2059L34.3814 35.3273ZM33.5981 35.3861L33.9369 35.7131L33.9897 35.4859L33.6588 35.1922L33.5981 35.3861ZM37.1467 35.2627L37.4717 35.2901L37.366 35.1765L37.0546 35.155L37.1467 35.2627ZM38.3217 35.3038L38.5782 35.3214L38.4235 35.1413H38.1846L38.3217 35.3038ZM32.4935 35.4056L32.7814 35.7973L32.8891 35.4742L32.6052 35.1236L32.4935 35.4056ZM36.5807 35.0806L36.6394 35.1295L36.9861 35.1041L36.9175 35.0551L36.5807 35.0806ZM34.0485 35.0277L34.4519 35.2039L34.497 35.1628L34.1053 34.9963L34.0485 35.0277ZM25.8096 35.4076L25.8879 35.6034L26.1131 35.1373L26.0211 34.9768L25.8096 35.4076ZM30.9954 35.3019L31.2206 35.7366L31.4027 35.3156L31.1697 34.9376L30.9954 35.3019ZM37.6088 34.9337L37.7185 35.0453H38.0142L37.8908 34.9278L37.6088 34.9337ZM36.6825 34.967L36.7236 34.9826L37.0409 34.869L36.9919 34.8553L36.6825 34.967ZM37.1036 34.8867L37.178 34.9454L37.4952 34.8906L37.411 34.8318L37.1036 34.8867ZM33.4277 34.8475L33.3396 34.9239L33.7136 35.2098L33.7978 35.1099L33.4453 34.8553L33.4903 34.8788H33.602L33.2103 34.683L33.0948 34.6713L33.4277 34.8475ZM38.0769 34.6517L38.2003 34.7653L38.4627 34.7261L38.3295 34.6066L38.0769 34.6517ZM37.1134 34.7085L37.1662 34.7359L37.4502 34.5988L37.3934 34.5753L37.1134 34.7085ZM28.9861 35.012L29.1467 35.4507L29.4071 34.9474L29.2289 34.5714L28.9861 35.012ZM37.5501 34.6203L37.6382 34.685L37.9222 34.6027L37.8262 34.5381L37.5501 34.6203ZM37.1173 34.5831H37.1486L37.3836 34.3736H37.3484L37.1173 34.5831ZM31.0345 34.5635L31.293 35.0316L31.5143 34.7692L31.246 34.3462L31.0345 34.5635ZM37.4737 34.3834L37.5344 34.4167L37.787 34.26L37.7185 34.2247L37.4737 34.3834ZM38.4646 34.2933L38.5978 34.4049L38.8289 34.3383L38.6859 34.2189L38.4646 34.2933ZM32.3839 34.3697L32.2252 34.3912L32.5053 34.6497L32.3623 34.7927L32.6874 35.1843L32.8304 35.0081L32.521 34.6713L32.5777 34.7222L32.7501 34.685L32.4328 34.4069L32.4583 34.4225L32.6541 34.4911L32.2781 34.26L32.0823 34.1875L32.3839 34.3697ZM37.9222 34.2815L38.0221 34.352L38.2727 34.2443L38.167 34.1719L37.9222 34.2815ZM37.4012 34.2032L37.4404 34.2247L37.6363 34.0015L37.5932 33.9819L37.4012 34.2032ZM26.3755 34.3873L26.4754 34.779L26.8044 34.2384L26.681 33.9075L26.3755 34.3873ZM29.2583 34.166L29.4345 34.6889L29.7479 34.3305L29.552 33.8664L29.2583 34.166ZM37.7616 33.9956L37.8321 34.0407L38.0475 33.8624L37.9731 33.8194L37.7616 33.9956ZM37.3503 34.0583L37.3719 34.0739L37.509 33.8056L37.4855 33.7919L37.3503 34.0583ZM38.7721 33.8624L38.9131 33.9701L39.109 33.8761L38.9601 33.7606L38.7721 33.8624ZM38.2198 33.8722L38.3256 33.9466L38.543 33.8154L38.4314 33.7391L38.2198 33.8722ZM31.297 33.7371L31.0659 33.6862L31.293 33.9525L31.06 34.0191L31.344 34.4558L31.5985 34.3599L31.3596 34.0309L31.3694 34.0426L31.6475 34.0916L31.3753 33.7959L31.6553 33.9447L31.3165 33.694L31.0463 33.5432L31.297 33.7371ZM37.6167 33.7665L37.6617 33.7978L37.8243 33.5608L37.7773 33.5295L37.6167 33.7665ZM29.509 33.5138L29.7048 34.0446L30.0593 33.8781L29.836 33.3866L29.509 33.5138ZM37.979 33.5569L38.0593 33.6078L38.2375 33.412L38.1552 33.3591L37.979 33.5569ZM37.4952 33.5824L37.5266 33.6118L37.6265 33.3376L37.5971 33.3102L37.4952 33.5824ZM38.4431 33.4218L38.5567 33.4982L38.7388 33.3454L38.6174 33.2671L38.4431 33.4218ZM37.4052 33.3983L37.4247 33.4257L37.4678 33.1437L37.4482 33.1183L37.4052 33.3983ZM26.9376 33.4845L27.0414 34.0191L27.4566 33.5765L27.3175 33.1065L26.9376 33.4845ZM37.7616 33.2984L37.8164 33.3395L37.9437 33.0928L37.8869 33.0497L37.7616 33.2984ZM38.1258 33.0712L38.214 33.13L38.3569 32.9185L38.2669 32.8578L38.1258 33.0712ZM23.0776 33.2534L23.1305 33.5491L23.4967 33.0654L23.4164 32.8206L23.0776 33.2534ZM37.5697 33.0732L37.6088 33.1143L37.6754 32.8382L37.6363 32.7971L37.5697 33.0732ZM30.1885 32.9792L29.883 32.8421L30.0475 33.1104L29.7185 33.0752L29.9261 33.5471L30.3178 33.5648L30.1219 33.2123L30.4979 33.3689L30.2806 33.0575L30.6213 33.2867L30.3511 33.034L29.9907 32.7873L30.1885 32.9792ZM38.5861 32.9185L38.7075 32.9949L38.8563 32.8245L38.729 32.7422L38.5861 32.9185ZM37.411 32.8519L37.4424 32.8911L37.4522 32.613L37.4228 32.5738L37.411 32.8519ZM27.4761 32.756L27.5741 33.3533L28.05 33.1065L27.907 32.5601L27.4761 32.756ZM37.9241 32.5347L37.838 32.7794L37.9045 32.8323L37.9946 32.5777L37.9418 32.5347H37.9241ZM28.0637 32.8147L28.5709 32.7912L28.4318 32.2487H27.9736L28.0637 32.8147ZM23.9863 32.3741L24.0216 32.8695L24.5249 32.3819L24.4465 31.9491L23.9863 32.3741ZM28.8078 32.1019L28.3927 31.9471L28.4828 32.4191L29.0037 32.5895L28.8881 32.2135L29.3444 32.4896L29.2132 32.1802L29.6049 32.4877L29.4345 32.2605L28.988 31.8962L29.0996 32.0686L28.7393 31.8414L28.8078 32.1019ZM24.8695 31.6416V32.2644L25.4571 31.9413L25.3983 31.3812L24.8695 31.6416ZM36.9939 31.3831L37.0409 31.4399L36.9684 31.2049L36.9234 31.1501L36.9939 31.3831ZM38.1591 31.3831L38.2825 31.4595L38.3236 31.2265L38.1963 31.1442L38.1591 31.3831ZM37.4208 31.3675L37.5031 31.4399L37.4639 31.1638L37.3817 31.0894L37.4208 31.3675ZM25.7058 31.1089L25.6666 31.7533L26.3168 31.6749L26.2835 31.0698L25.7058 31.1089ZM37.0644 31.0796L37.1369 31.1501L37.0683 30.8955L36.9978 30.823L37.0644 31.0796ZM37.6695 31.0541L37.7773 31.1344V30.8779L37.6656 30.7936L37.6695 31.0541ZM27.0316 30.9679L26.4441 30.7917L26.3755 31.3577L27.0394 31.5261V31.1148L27.6661 31.4654V31.0874L28.1635 31.4791V31.2049L28.5552 31.5711L28.518 31.4145L27.9971 30.9131L27.9736 31.0208L27.6113 30.7271L27.5564 30.9503L27.0845 30.6683L27.0316 30.9679ZM36.7393 30.7721L36.8 30.8367L36.7099 30.6115L36.6492 30.5488L36.7393 30.7721ZM38.0201 30.7721L38.1591 30.8524L38.1728 30.6174L38.0279 30.5332L38.0201 30.7721ZM37.2367 30.7721L37.3366 30.8524L37.2681 30.5763L37.1682 30.4921L37.2367 30.7721ZM38.4725 30.5214L38.6389 30.5998L38.6683 30.3902L38.4921 30.308L38.4725 30.5214ZM20.3222 30.682L20.3104 31.0737L20.8646 30.6213L20.8274 30.2806L20.3222 30.682ZM36.8294 30.4862L36.9195 30.5645L36.8294 30.3178L36.7393 30.2375L36.8294 30.4862ZM36.4377 30.4137L36.4847 30.4666L36.3888 30.2884L36.3418 30.2336L36.4377 30.4137ZM37.4952 30.4588L37.6245 30.5449L37.5912 30.2903L37.458 30.2003L37.4952 30.4588ZM36.4475 30.1611L36.5258 30.2316L36.4181 30.0181L36.3398 29.9457L36.4475 30.1611ZM36.9978 30.1611L37.1192 30.2492L37.0409 29.9927L36.9195 29.9026L36.9978 30.1611ZM37.838 30.1435L37.9966 30.2277L37.9829 29.9907L37.8203 29.9026L37.838 30.1435ZM36.1107 29.9633L36.14 30.0044L36.0597 29.8771L36.0284 29.836L36.1107 29.9633ZM21.6049 30.0358L21.5227 30.6233L22.2335 30.2531L22.2453 29.7263L21.6049 30.0358ZM38.2708 29.8575L38.4568 29.932V29.7205L38.261 29.6402L38.2708 29.8575ZM36.5317 29.8575L36.6433 29.9437L36.5337 29.7048L36.4221 29.6186L36.5317 29.8575ZM36.0656 29.7694L36.1263 29.8282L36.0186 29.6597L35.956 29.599L36.0656 29.7694ZM37.2407 29.8184L37.3915 29.9104L37.3327 29.6597L37.178 29.5638L37.2407 29.8184ZM22.8446 29.5403L22.6761 30.214L23.4771 30.0828L23.5515 29.4522L22.8446 29.5403ZM38.7878 29.6049L38.9836 29.6637L39.0012 29.4776L38.7897 29.413L38.7878 29.6049ZM36.0793 29.5305L36.1773 29.6088L36.0519 29.413L35.954 29.3347L36.0793 29.5305ZM36.6884 29.5305L36.8333 29.6245L36.7334 29.3758L36.5866 29.2798L36.6884 29.5305ZM23.763 29.8908L24.5895 30.0416L24.7285 29.4208L24.0059 29.2544L23.763 29.8908ZM37.5795 29.4835L37.7616 29.5697L37.7244 29.3327L37.5285 29.2426L37.5795 29.4835ZM39.3929 29.4052L39.5888 29.4463L39.6083 29.2857L39.4027 29.2387L39.3929 29.4052ZM24.7344 29.6637L25.5432 30.0769L25.6901 29.6558L26.354 30.1728L26.5342 29.8458L27.0179 30.3197L27.1941 30.1415L27.5388 30.5332L27.6739 30.4979L27.1021 29.8497L26.8945 29.8164L27.0433 29.9809L26.5851 29.5168L26.3227 29.6304L25.8899 29.2779L25.6529 29.5227L25.0242 29.176L24.7344 29.6637ZM40.0529 29.2544L40.2115 29.2779L40.2233 29.1427L40.0529 29.1173V29.2544ZM40.7618 29.1682H40.8715V29.0663L40.754 29.0566L40.7618 29.1682ZM35.576 29.0663L35.6289 29.1349L35.7072 29.2034L35.5858 29.0409H35.576V29.0663ZM36.1635 29.2348L36.2987 29.3249L36.1694 29.0957L36.0343 29.0017L36.1635 29.2348ZM37.9907 29.1564L38.1963 29.2289L38.1787 29.0154L37.9633 28.9371L37.9907 29.1564ZM27.0649 29.744L27.2842 29.9907L26.7613 29.2367L26.4813 28.9195L27.0649 29.744ZM36.9273 29.1682L37.1036 29.2622L37.0213 29.0154L36.8392 28.9175L36.9273 29.1682ZM35.6544 28.9018L35.7758 28.988L35.6348 28.7922L35.5134 28.7099L35.6544 28.9018ZM38.494 28.8588L38.7094 28.9097V28.7138L38.4784 28.659L38.494 28.8588ZM36.3222 28.8979L36.4926 28.9958L36.3711 28.753L36.1988 28.6512L36.3222 28.8979ZM37.2485 28.8098L37.4541 28.896L37.3954 28.661L37.1799 28.5689L37.2485 28.8098ZM26.5714 29.3679L26.9043 29.5227L26.3266 28.7393L25.9094 28.4906L26.5714 29.3679ZM39.0678 28.6179L39.2637 28.6473V28.4828L39.0443 28.4495L39.0678 28.6179ZM35.7386 28.6335L35.9011 28.7295L35.7542 28.5063L35.5897 28.4083L35.7386 28.6335ZM35.1354 28.5337L35.2372 28.6061L35.1001 28.4495L34.9983 28.377L35.1354 28.5337ZM36.5474 28.5474L36.753 28.6453L36.6492 28.3985L36.4377 28.2967L36.5474 28.5474ZM39.7161 28.4122H39.8845V28.2752L39.7043 28.2654L39.7161 28.4122ZM37.6441 28.4671L37.8732 28.5356L37.836 28.3202L37.5951 28.2438L37.6441 28.4671ZM40.3858 28.1537L40.3995 28.2556H40.5112V28.1557L40.3858 28.1537ZM35.1648 28.3183L35.3136 28.4103L35.155 28.2145L35.0081 28.1244L35.1648 28.3183ZM35.8855 28.2987L36.0813 28.4005L35.9403 28.1616L35.7444 28.0558L35.8855 28.2987ZM38.1219 28.1302L38.3569 28.1733L38.3393 27.9775L38.0867 27.9285L38.1219 28.1302ZM36.847 28.1635L37.084 28.2497L37.0037 28.0127L36.7569 27.9207L36.847 28.1635ZM15.9726 28.1812L15.9569 28.4377L16.4446 28.1244L16.4211 27.9031L15.9726 28.1812ZM35.2549 28.0402L35.4507 28.142L35.2862 27.9246L35.0904 27.8228L35.2549 28.0402ZM34.5851 27.9481L34.7143 28.0284L34.5616 27.8776L34.4363 27.7973L34.5851 27.9481ZM36.1068 27.9207L36.3457 28.0186L36.2243 27.7758L35.9775 27.67L36.1068 27.9207ZM38.6801 27.8208L38.9014 27.8384V27.67L38.6585 27.6387L38.6801 27.8208ZM34.6301 27.7444L34.8142 27.8404L34.638 27.6563L34.4578 27.5604L34.6301 27.7444ZM37.2309 27.7699L37.4874 27.8365L37.4326 27.6152L37.1604 27.5447L37.2309 27.7699ZM35.4037 27.7014L35.6446 27.8052L35.4859 27.5701L35.2431 27.4624L35.4037 27.7014ZM17.6392 27.7151L17.5099 28.2066L18.2933 27.8619L18.3481 27.4233L17.6392 27.7151ZM39.2852 27.4037L39.3068 27.5447H39.4869V27.4037H39.2852ZM26.1405 28.1498L26.2659 28.3927L26.1758 28.238L25.7704 27.7503L26.2913 28.6473L26.6399 29.0526L26.3383 28.5219L26.0583 27.8757L25.7821 27.3371L26.1405 28.1498ZM36.4005 27.5036L36.6688 27.5897L36.5728 27.3508L36.2889 27.2588L36.4005 27.5036ZM34.7281 27.4664L34.9631 27.5701L34.7809 27.3567L34.5459 27.2529L34.7281 27.4664ZM19.3332 27.3665L19.0551 28.0147L19.9912 27.8502L20.1557 27.249L19.3332 27.3665ZM33.9897 27.3861L34.1542 27.4742L33.9858 27.3273L33.8272 27.2411L33.9897 27.3861ZM21.9241 27.7777L22.9033 28.2203L23.1853 27.7914L24.0823 28.4749L24.4739 28.1146L25.0908 28.7452L25.5197 28.5493L25.9114 29.035H26.3227L25.6842 28.236L25.175 28.1302L25.3591 28.3574L24.8265 27.7895L24.3036 27.8835L23.7435 27.4331L23.2049 27.7542L23.2813 27.6367L22.4451 27.2196L21.9241 27.7777ZM20.5533 27.8659L21.5462 27.999L21.8262 27.3508L20.9626 27.2L20.5533 27.8659ZM39.9589 27.2137L39.9804 27.3175L40.0999 27.2979L40.0901 27.1941L39.9589 27.2137ZM37.7009 27.3802L37.9633 27.4174L37.93 27.2216L37.648 27.1804L37.7009 27.3802ZM25.6881 28.1361L26.211 28.5278L25.6803 27.6387L25.081 27.1354L25.6881 28.1361ZM35.625 27.3038L35.9031 27.4037L35.7621 27.1569L35.4762 27.0531L35.625 27.3038ZM34.0583 27.1961L34.2815 27.296L34.0857 27.1158L33.8664 27.0179L34.0583 27.1961ZM34.8847 27.1197L35.1648 27.2255L34.9905 26.9905L34.7045 26.8827L34.8847 27.1197ZM36.7726 27.0727L37.0624 27.1354L36.99 26.9062L36.6806 26.8397L36.7726 27.0727ZM38.2375 27.012H38.4803L38.4607 26.8358H38.1963L38.2375 27.012ZM33.3513 26.8553L33.5471 26.9513L33.3631 26.8083L33.1672 26.7163L33.3513 26.8553ZM34.1542 26.9141L34.4323 27.0179L34.2365 26.8083L33.9604 26.7045L34.1542 26.9141ZM25.6666 27.5212L26.0877 28.0245L25.7136 27.2176L25.2455 26.6301L25.6666 27.5212ZM35.8972 26.8553L36.2047 26.9415L36.0891 26.6928L35.764 26.6027L35.8972 26.8553ZM24.8911 27.6387L25.5471 27.9266L24.9596 26.9709L24.2037 26.5537L24.8911 27.6387ZM33.4159 26.6693L33.6862 26.7731L33.4903 26.5988L33.226 26.4989L33.4159 26.6693ZM38.7937 26.5107L38.8269 26.6575L39.0228 26.638L39.0052 26.4911L38.7937 26.5107ZM35.0727 26.6928L35.3939 26.7927L35.2372 26.542L34.9063 26.4382L35.0727 26.6928ZM37.1995 26.6203L37.4933 26.6497L37.4404 26.4402L37.1271 26.4069L37.1995 26.6203ZM34.2894 26.5537L34.6145 26.6595L34.4186 26.4225L34.0857 26.3168L34.2894 26.5537ZM32.6482 26.3716L32.9028 26.4695L32.707 26.3364L32.4642 26.2404L32.6482 26.3716ZM39.434 26.2443L39.4634 26.352L39.5966 26.3168L39.579 26.2091L39.434 26.2443ZM33.5178 26.399L33.8429 26.5028L33.6353 26.307L33.3082 26.2032L33.5178 26.399ZM25.7724 26.869L25.8585 27.2137L25.7802 26.9454L25.4668 26.3364L25.7116 27.1197L26.0015 27.6759L25.9036 27.3508L25.8154 26.7633L25.6646 26.1758L25.7724 26.869ZM36.2301 26.3736L36.5591 26.4323L36.4671 26.1914L36.1165 26.1288L36.2301 26.3736ZM32.7325 26.2012L33.0536 26.3011L32.8382 26.1347L32.5249 26.0348L32.7325 26.2012ZM37.6402 26.0054L37.6989 26.2012H37.9711L37.9359 26.0152L37.6402 26.0054ZM35.3097 26.2326L35.6622 26.3148L35.529 26.0563L35.1569 25.9682L35.3097 26.2326ZM24.9459 26.8788L25.5648 27.4037L25.1535 26.5067L24.4818 25.8761L24.9459 26.8788ZM34.4558 26.1347L34.824 26.2306L34.6536 25.9721L34.2717 25.8703L34.4558 26.1347ZM31.8943 25.9564L32.2017 26.0524L31.9961 25.929L31.7023 25.835L31.8943 25.9564ZM33.6353 26.0485L34.0113 26.1503L33.8154 25.9094L33.4238 25.8076L33.6353 26.0485ZM32.8245 25.9427L33.2044 26.0406L32.989 25.8448L32.611 25.7469L32.8245 25.9427ZM36.614 25.8918L36.9469 25.9153L36.8784 25.6901L36.52 25.6627L36.614 25.8918ZM31.9941 25.7958L32.3702 25.8879L32.1528 25.7293L31.7866 25.6372L31.9941 25.7958ZM38.1963 25.6313L38.2434 25.788L38.4705 25.7528L38.4431 25.5961L38.1963 25.6313ZM25.1594 26.4147L25.6411 27.0218L25.3944 26.2384L24.8793 25.553L25.1594 26.4147ZM31.1187 25.5902L31.485 25.6783L31.2793 25.5687L30.9288 25.4805L31.1187 25.5902ZM35.6132 25.7156L35.9873 25.7704L35.8796 25.5138L35.4879 25.4531L35.6132 25.7156ZM25.4081 26.1562L25.7293 26.7868L25.6216 26.0935L25.2867 25.4159L25.4081 26.1562ZM25.8291 25.9408V26.2698V26.2854V26.2737V26.4695L25.9094 26.117L26.0504 25.8252L26.2052 25.412L25.9858 25.8605L25.9369 25.9897L25.9486 25.9388L25.9604 25.4042L25.8291 25.9408ZM25.6333 26.0211L25.7861 26.6242L25.7978 26.0152L25.6431 25.3905L25.6333 26.0211ZM34.6732 25.6294L35.0766 25.7077L34.9278 25.4335L34.5048 25.3493L34.6732 25.6294ZM32.9459 25.5706L33.3748 25.6646L33.179 25.4179L32.7422 25.3219L32.9459 25.5706ZM32.1019 25.5256L32.5327 25.6137L32.3192 25.4179L31.8884 25.3298L32.1019 25.5256ZM33.7939 25.5961L34.213 25.6881L34.0328 25.4159L33.5981 25.32L33.7939 25.5961ZM31.2323 25.4355L31.6632 25.5138L31.4536 25.363L31.0326 25.2867L31.2323 25.4355ZM38.8034 25.2847L38.8407 25.4003L38.9954 25.3513L38.9719 25.2338L38.8034 25.2847ZM30.3138 25.2847L30.7349 25.3572L30.5391 25.2632L30.1337 25.1927L30.3138 25.2847ZM36.9919 25.1809L37.0683 25.3768L37.3817 25.3611L37.3307 25.1652L36.9919 25.1809ZM20.281 25.4845L21.3327 26.2521L21.9202 25.884L22.7212 26.73L23.4301 26.5498L23.9021 27.1883L24.6267 27.2588L23.9511 26.3187L23.1031 26.1111L23.2793 26.3501L22.6781 25.6842L21.9065 25.743L21.1231 25.1398L20.281 25.4845ZM24.0157 26.2012L24.846 26.7437L24.3701 25.7332L23.4556 25.0517L24.0157 26.2012ZM26.4519 25.3415L26.2835 25.5373L26.6908 25.2338L26.8495 25.0536L26.4519 25.3415ZM30.4686 25.1457L30.9484 25.2005L30.7525 25.0595L30.2845 25.0027L30.4686 25.1457ZM29.5148 25.0771L29.9868 25.1202L29.8184 25.0438L29.366 25.0007L29.5148 25.0771ZM31.3675 25.1652L31.8492 25.2338L31.6534 25.038L31.1736 24.9675L31.3675 25.1652ZM26.2757 25.3023L26.1151 25.7195L26.4284 25.3474L26.587 24.94L26.2757 25.3023ZM27.2176 25.0321L27.2 25.0654L27.7209 24.944V24.9165L27.2176 25.0321ZM35.9873 25.1574L36.3672 25.1731L36.281 24.9283L35.8698 24.9087L35.9873 25.1574ZM28.7158 24.9616H29.225L29.0957 24.9028H28.6081L28.7158 24.9616ZM32.2409 25.1398L32.7207 25.222L32.5249 24.9655L32.0372 24.8813L32.2409 25.1398ZM27.8835 24.9107L27.9344 24.9537L28.4612 24.9009L28.3868 24.8597L27.8835 24.9107ZM26.0034 25.2886L25.9839 25.8311L26.2032 25.3807L26.2267 24.8362L26.0034 25.2886ZM29.6832 24.9596L30.2022 24.9812L30.0455 24.846L29.5403 24.8245L29.6832 24.9596ZM33.1065 25.1104L33.5765 25.1966L33.3924 24.9067L32.9028 24.8167L33.1065 25.1104ZM26.9317 25.0262L26.826 25.1907L27.2979 24.9694L27.3919 24.8147L26.9317 25.0262ZM34.9611 25.0752L35.3861 25.128L35.2607 24.848L34.8044 24.7892L34.9611 25.0752ZM34.0074 25.0752L34.4617 25.1515L34.3031 24.8558L33.8233 24.7716L34.0074 25.0752ZM18.6047 25.3121L19.7405 25.7763L20.3006 25.1887L19.3214 24.752L18.6047 25.3121ZM28.8157 24.7246L28.9097 24.8578L29.4502 24.8343L29.3425 24.705L28.8157 24.7246ZM25.6823 25.2534L25.8331 25.8977L25.9545 25.3591L25.8076 24.6992L25.6823 25.2534ZM37.5422 24.7501L37.6069 24.9204L37.8693 24.8676L37.8282 24.6972L37.5422 24.7501ZM30.6096 24.8969L31.1325 24.942L30.9562 24.7344L30.4372 24.6854L30.6096 24.8969ZM27.5036 24.8147L27.4664 24.9596L27.9834 24.8147L28.0088 24.6776L27.5036 24.8147ZM24.4015 25.6372L25.0967 26.2972L24.8147 25.4277L24.0744 24.6619L24.4015 25.6372ZM28.1263 24.7011L28.1577 24.8343L28.6982 24.7559L28.6531 24.6267L28.1263 24.7011ZM26.6732 24.8617L26.5067 25.269L26.8984 24.989L27.061 24.5973L26.6732 24.8617ZM25.2828 25.2318L25.6216 25.9329V25.3004L25.2828 24.5581V25.2318ZM24.8402 25.3337L25.365 26.0446L25.2436 25.3004L24.7011 24.517L24.8402 25.3337ZM16.7932 25.1496L17.9271 25.2769L18.3187 24.6561L17.3298 24.5111L16.7932 25.1496ZM31.481 24.7814L32.0039 24.848L31.8218 24.5758L31.2891 24.5053L31.481 24.7814ZM29.8243 24.6835L30.3746 24.6952L30.2414 24.4779L29.6911 24.4622L29.8243 24.6835ZM13.1094 24.5758L12.9919 24.9263L13.7126 24.6854L13.7655 24.3682L13.1094 24.5758ZM15.2206 24.472L14.8994 25.0262L15.9217 24.8969L16.1332 24.3799L15.2206 24.472ZM27.1491 24.564L27.0277 24.9165L27.4879 24.7207L27.6074 24.3741L27.1491 24.564ZM26.2972 24.7187L26.2639 25.269L26.5753 24.9067L26.6145 24.3584L26.2972 24.7187ZM36.2889 24.3741L36.3888 24.5973L36.7491 24.5699L36.6806 24.3466L36.2889 24.3741ZM32.3721 24.66L32.8911 24.7383L32.7129 24.423L32.1724 24.3388L32.3721 24.66ZM28.9959 24.3447L29.0722 24.5836L29.6323 24.5542L29.552 24.3212L28.9959 24.3447ZM22.8641 25.5373L23.8727 25.9917L23.293 24.8969L22.1748 24.2781L22.8641 25.5373ZM27.7112 24.3878L27.6544 24.6913L28.1675 24.5562L28.2223 24.2585L27.7112 24.3878ZM28.328 24.3153L28.3398 24.5816L28.8842 24.5033L28.8705 24.2428L28.328 24.3153ZM38.12 24.3153L38.1709 24.4446L38.3569 24.376L38.3236 24.2428L38.12 24.3153ZM33.2788 24.5405L33.7861 24.6149L33.6196 24.2859L33.083 24.2056L33.2788 24.5405ZM30.7094 24.5053L31.2676 24.5523L31.1148 24.2566L30.5469 24.2056L30.7094 24.5053ZM35.2725 24.4641L35.7053 24.4779L35.6015 24.2056L35.1315 24.188L35.2725 24.4641ZM34.2345 24.4641L34.7222 24.5053L34.5812 24.1939L34.0661 24.1371L34.2345 24.4641ZM25.8507 24.5699L25.9878 25.2436L26.213 24.7892L26.0857 24.1058L25.8507 24.5699ZM26.7104 24.2996L26.6615 24.846L27.0531 24.5758L27.1099 24.0333L26.7104 24.2996ZM29.9339 24.2996L30.5077 24.3212L30.4 23.9941L29.8125 23.9667L29.9339 24.2996ZM31.5907 24.2898L32.1489 24.3584L31.9863 24.0078L31.3988 23.9315L31.5907 24.2898ZM25.3121 24.4152L25.649 25.179L25.7724 24.6228L25.4473 23.8277L25.3121 24.4152ZM29.1055 23.81L29.1662 24.19L29.74 24.1802L29.6911 23.8081L29.1055 23.81ZM27.2235 23.9745L27.1569 24.5111L27.6152 24.3349L27.6916 23.8042L27.2235 23.9745ZM36.7804 23.8492L36.8646 24.0451L37.176 23.9765L37.1192 23.7807L36.7804 23.8492ZM28.4358 23.7435V24.1841L28.9861 24.1371L29.0037 23.7063L28.4358 23.7435ZM27.8149 23.7787L27.7405 24.2957L28.2536 24.2037L28.3398 23.6984L27.8149 23.7787ZM32.4955 24.0686L33.0497 24.141L32.8872 23.7709L32.2997 23.6906L32.4955 24.0686ZM23.3635 24.7814L24.2938 25.4943L23.9648 24.5151L22.9719 23.671L23.3635 24.7814ZM26.1679 23.9981L26.2815 24.6874L26.5949 24.3094L26.497 23.6142L26.1679 23.9981ZM24.6952 24.3427L25.2416 25.1515V24.4779L24.6952 23.6083V24.3427ZM30.8054 23.9706L31.3929 24.0294L31.2617 23.6377L30.6487 23.5711L30.8054 23.9706ZM35.5055 23.5652L35.6328 23.8198L36.05 23.7846L35.9618 23.53L35.5055 23.5652ZM24.0137 24.425L24.7638 25.2201L24.6228 24.4054L23.8394 23.5143L24.0137 24.425ZM33.4551 23.8766L33.9917 23.9295L33.8409 23.5731L33.2534 23.5124L33.4551 23.8766ZM34.495 23.7787L34.9905 23.7924L34.8651 23.481L34.3285 23.4634L34.495 23.7787ZM29.9907 23.7493L30.5782 23.7963L30.494 23.3381L29.8673 23.2813L29.9907 23.7493ZM26.589 23.5417L26.6732 24.237L27.0649 23.9706L27.0022 23.2774L26.589 23.5417ZM37.3092 23.3302L37.3777 23.4791L37.6088 23.387L37.5618 23.2343L37.3092 23.3302ZM31.6847 23.6475L32.2722 23.7219L32.1234 23.295L31.4889 23.2108L31.6847 23.6475ZM25.5001 23.6847L25.8154 24.4955L26.0504 24.0313L25.7567 23.1971L25.5001 23.6847ZM18.918 23.0972L19.9364 24.188L20.9293 24.0333L21.5168 24.8832L22.5763 25.0399L21.8791 23.9687L20.6786 23.6475L20.8039 23.8433L20.1283 23.0815L18.918 23.0972ZM29.2054 23.622L29.7929 23.6534L29.7694 23.1168L29.1525 23.0717L29.2054 23.622ZM27.1373 23.2186L27.1863 23.908L27.6563 23.7395L27.6309 23.058L27.1373 23.2186ZM27.766 23.0228L27.7817 23.6984L28.3045 23.622L28.3143 22.9581L27.766 23.0228ZM28.4436 23.6103L29.0076 23.622L29.0507 22.9856L28.4632 22.9562L28.4436 23.6103ZM32.6306 23.3479L33.2181 23.4086L33.0654 22.9934L32.4269 22.9229L32.6306 23.3479ZM35.9325 22.9444L36.0441 23.1657L36.4162 23.0835L36.3398 22.8583L35.9325 22.9444ZM30.8504 23.3048L31.4713 23.3812L31.3518 22.8818L30.6879 22.7917L30.8504 23.3048ZM24.7207 23.4242L25.2612 24.3192L25.3963 23.7317L24.8695 22.7897L24.7207 23.4242ZM33.6607 23.1344L34.2189 23.154L34.0779 22.7897L33.4688 22.7623L33.6607 23.1344ZM37.8673 22.8446L37.9163 22.9425L38.0514 22.8544L38.0142 22.7545L37.8673 22.8446ZM34.638 22.7623L34.7986 23.058L35.2842 23.0228L35.1706 22.7271L34.638 22.7623ZM25.8389 23.0815L26.117 23.9217L26.4539 23.5555L26.2032 22.7036L25.8389 23.0815ZM22.0475 23.8649L23.2225 24.6306L22.8309 23.5163L21.5716 22.5821L22.0475 23.8649ZM23.8414 23.2911L24.6247 24.2154V23.4791L23.8414 22.4744V23.2911ZM30.0083 23.0502L30.637 23.1324L30.5626 22.5351L29.8889 22.4333L30.0083 23.0502ZM31.7709 22.8798L32.4034 22.9542L32.2566 22.4627L31.5692 22.3745L31.7709 22.8798ZM22.9229 23.4007L23.9217 24.2859L23.7552 23.3714L22.7231 22.3648L22.9229 23.4007ZM26.3168 22.6174L26.5498 23.4693L26.9728 23.2069L26.777 22.353L26.3168 22.6174ZM16.9694 22.5919L18.1444 23.4203L19.0453 23.0012L18.0661 22.259L16.9694 22.5919ZM36.4025 22.351L36.4965 22.5273L36.7883 22.4098L36.7236 22.2277L36.4025 22.351ZM29.1721 22.919L29.789 23.011L29.7773 22.2923L29.1134 22.1748L29.1721 22.919ZM26.8984 22.3099L27.0806 23.1579L27.576 22.9973L27.4331 22.1572L26.8984 22.3099ZM24.94 22.6526L25.4512 23.6103L25.7058 23.1227L25.224 22.1317L24.94 22.6526ZM32.7736 22.5547L33.3924 22.59L33.2338 22.1552L32.5562 22.1102L32.7736 22.5547ZM27.5819 22.1278L27.7112 22.9601L28.2634 22.8974L28.1772 22.0808L27.5819 22.1278ZM28.4083 22.8818L28.9959 22.9131L28.9645 22.1297L28.328 22.0769L28.4083 22.8818ZM34.9944 22.069L35.1413 22.3295L35.5878 22.2394L35.4859 21.9731L34.9944 22.069ZM33.6999 21.9927L33.8957 22.3491L34.4558 22.3197L34.3187 21.9652L33.6999 21.9927ZM30.8759 22.5136L31.5378 22.6096L31.4125 22.0122L30.6918 21.8967L30.8759 22.5136ZM36.9097 21.7812L36.9802 21.9026L37.176 21.7812L37.1251 21.6519L36.9097 21.7812ZM25.3141 22.0181L25.7763 23.0169L26.1405 22.637L25.7136 21.6206L25.3141 22.0181ZM14.8524 22.1337L16.1097 22.6233L16.8088 22.0651L15.7258 21.6069L14.8524 22.1337ZM23.8825 22.304L24.6502 23.3361L24.799 22.6977L24.0509 21.6049L23.8825 22.304ZM20.5102 22.9797L21.881 23.6025L21.3738 22.3941L19.905 21.5814L20.5102 22.9797ZM31.8355 22.0318L32.5072 22.0925L32.3486 21.5559L31.6103 21.4776L31.8355 22.0318ZM29.9672 22.2277L30.6409 22.353L30.5567 21.6225L29.8223 21.4678L29.9672 22.2277ZM25.8429 21.5403L26.2345 22.5547L26.6967 22.2903L26.3501 21.272L25.8429 21.5403ZM32.6972 21.2387L32.9244 21.6813H33.5609L33.4003 21.2446L32.6972 21.2387ZM35.3939 21.3777L35.5232 21.5912L35.8933 21.4541L35.8032 21.2309L35.3939 21.3777ZM22.7231 22.1474L23.7493 23.1892V22.3706L22.7192 21.225L22.7231 22.1474ZM29.0742 22.0495L29.7381 22.1963L29.697 21.3151L28.9724 21.131L29.0742 22.0495ZM12.6414 21.6695L13.8458 21.8282L14.2903 21.2857L13.2348 21.1192L12.6414 21.6695ZM21.5324 22.306L22.7995 23.2852L22.6037 22.2473L21.2974 21.1212L21.5324 22.306ZM33.9643 21.2015L34.1601 21.5227L34.6928 21.4326L34.5616 21.1075L33.9643 21.2015ZM26.4989 21.2171L26.826 22.2277L27.3645 22.0749L27.0943 21.0761L26.4989 21.2171ZM27.2548 21.0487L27.5075 22.0397L28.1067 21.9946L27.9109 21.0252L27.2548 21.0487ZM28.2595 21.979L28.8979 22.0338L28.7843 21.1055L28.0832 21.0193L28.2595 21.979ZM30.8583 21.5873L31.5711 21.693L31.4243 21.0252L30.6409 20.894L30.8583 21.5873ZM24.1234 21.4502L24.85 22.5645L25.1359 22.0416L24.4504 20.8862L24.1234 21.4502ZM10.6869 20.7843L10.3932 21.2054L11.3528 21.1388L11.5486 20.7471L10.6869 20.7843ZM35.8208 20.704L35.9227 20.8627L36.187 20.704L36.1107 20.5337L35.8208 20.704ZM31.8864 21.0683L32.5934 21.0996L32.4152 20.5513L31.6318 20.5063L31.8864 21.0683ZM8.26439 20.6022L8.19388 20.8098L8.69915 20.6864L8.72657 20.4906L8.26439 20.6022ZM29.8634 21.2406L30.5939 21.4032L30.4764 20.565L29.6656 20.3692L29.8634 21.2406ZM24.5542 20.7648L25.2162 21.928L25.6255 21.5364L25.0223 20.3515L24.5542 20.7648ZM32.8402 20.3437L33.0752 20.751L33.7038 20.6805L33.5393 20.2712L32.8402 20.3437ZM34.258 20.4083L34.4323 20.6766L34.9023 20.5278L34.779 20.2477L34.258 20.4083ZM22.7584 21.0193L23.7748 22.1944L23.9452 21.4913L22.966 20.238L22.7584 21.0193ZM25.1594 20.2595L25.7469 21.4443L26.2619 21.176L25.7528 19.9912L25.1594 20.2595ZM28.8803 21.0115L29.6108 21.2074L29.505 20.2007L28.6923 19.9638L28.8803 21.0115ZM36.2889 20.0774L36.3555 20.1714L36.4984 20.0362L36.4436 19.9305L36.2889 20.0774ZM16.8284 21.0566L18.0916 20.9371L18.7887 22.0632L20.1733 22.3021L19.484 21.1408L17.9545 20.7178L18.0348 20.847L17.2279 19.9168L15.765 19.8913L16.8284 21.0566ZM30.8054 20.5454L31.5711 20.6394L31.387 19.9383L30.5312 19.8169L30.8054 20.5454ZM25.9094 19.9364L26.3951 21.1114L26.9944 20.9704L26.5831 19.8051L25.9094 19.9364ZM21.2916 20.8529L22.5919 22.0162V21.0898L21.2837 19.8051L21.2916 20.8529ZM27.9951 20.9077L28.7021 20.9958L28.5063 19.9285L27.7229 19.7973L27.9951 20.9077ZM27.155 20.9371L27.8189 20.9156L27.5153 19.7934H26.7692L27.155 20.9371ZM19.8287 21.1036L21.3758 22.165L21.1271 20.9684L19.529 19.7229L19.8287 21.1036ZM31.6553 19.5075L31.9393 20.0441L32.6639 20.0186L32.4681 19.4918L31.6553 19.5075ZM23.0502 20.0734L24.0137 21.3464L24.3427 20.7843L23.434 19.4585L23.0502 20.0734ZM34.6047 19.6387L34.7535 19.8463L35.1178 19.6504L35.0101 19.4291L34.6047 19.6387ZM33.0262 19.4428L33.2534 19.8051L33.8409 19.6641L33.6784 19.3038L33.0262 19.4428ZM29.7087 20.1146L30.5136 20.2928L30.3393 19.3919L29.4345 19.1726L29.7087 20.1146ZM23.5594 19.3293L24.4367 20.661L24.9087 20.2419L24.1058 18.8847L23.5594 19.3293ZM13.3758 19.0864L14.6154 19.9579L15.6769 19.576L14.6291 18.7927L13.3758 19.0864ZM21.3347 19.578L22.6174 20.8999L22.8132 20.1165L21.5677 18.6987L21.3347 19.578ZM30.7349 19.4135L31.5457 19.4683L31.3165 18.777L30.402 18.6987L30.7349 19.4135ZM34.9768 18.9062L35.0864 19.0433L35.3195 18.8475L35.2333 18.6928L34.9768 18.9062ZM28.6022 19.8247L29.4189 20.0676L29.2485 18.9493L28.3261 18.6419L28.6022 19.8247ZM24.2585 18.7966L25.0282 20.1498L25.6157 19.8815L24.9361 18.5283L24.2585 18.7966ZM17.9329 19.9559L19.6191 20.7158L19.2137 19.4526L17.4394 18.493L17.9329 19.9559ZM27.5937 19.6681L28.3907 19.8032L28.0989 18.6066L27.1961 18.4108L27.5937 19.6681ZM31.6847 18.493L31.9843 18.967L32.6933 18.8651L32.4798 18.3912L31.6847 18.493ZM25.1261 18.4734L25.7782 19.8169L26.4617 19.6935L25.9134 18.3736L25.1261 18.4734ZM26.6438 19.6602L27.3959 19.672L26.9787 18.4069L26.117 18.354L26.6438 19.6602ZM33.2475 18.5753L33.4571 18.8534L33.9506 18.6458L33.7978 18.352L33.2475 18.5753ZM19.5388 19.435L21.1251 20.7197V19.6602L19.5388 18.2247V19.435ZM35.3724 18.2208L35.4331 18.2894L35.5329 18.1503L35.482 18.07L35.3724 18.2208ZM29.4972 18.8886L30.3785 19.0512L30.1317 18.1425L29.1349 17.929L29.4972 18.8886ZM21.6872 18.5204L22.9014 19.9559L23.293 19.3391L22.1435 17.8468L21.6872 18.5204ZM10.8945 18.2639L12.1831 18.7887L12.9351 18.3031L11.8228 17.8154L10.8945 18.2639ZM30.2708 17.5706L30.6468 18.2247L31.4771 18.2051L31.2127 17.5667L30.2708 17.5706ZM33.5178 17.7332L33.6881 17.929L34.0485 17.6862L33.9173 17.4649L33.5178 17.7332ZM15.861 18.7417L17.504 19.0453L16.8676 17.8468L15.0894 17.3532L15.861 18.7417ZM31.765 17.5138L32.0549 17.9055L32.6992 17.7097L32.4877 17.318L31.765 17.5138ZM22.2943 17.7097L23.4007 19.2098L23.953 18.7672L22.9464 17.2416L22.2943 17.7097ZM28.236 18.5028L29.1623 18.7966L28.9175 17.6039L27.8678 17.226L28.236 18.5028ZM8.3721 17.4394L9.51384 17.6529L9.92901 17.222L8.91653 17.0125L8.3721 17.4394ZM19.6132 17.9838L21.1799 19.4507L21.4169 18.5674L19.905 17.0007L19.6132 17.9838ZM27.0845 18.2717L27.9951 18.4676L27.6191 17.1594L26.5753 16.8911L27.0845 18.2717ZM23.1383 17.1476L24.1175 18.6693L24.8049 18.401L23.953 16.8891L23.1383 17.1476ZM24.1606 16.8362L24.9831 18.3383L25.7763 18.2404L25.085 16.7736L24.1606 16.8362ZM25.9878 18.2071L26.8553 18.2639L26.3148 16.8676L25.3121 16.752L25.9878 18.2071ZM33.8213 16.9361L33.9388 17.0595L34.1464 16.8323L34.0504 16.6913L33.8213 16.9361ZM29.2387 17.5726L30.1807 17.6803L29.8654 16.8167L28.7922 16.6678L29.2387 17.5726ZM17.4884 17.9271L19.3508 19.2705L19.3273 18.0602L17.459 16.5386L17.4884 17.9271ZM5.8967 16.6717H6.65459L6.79168 16.3956L6.10429 16.378L5.8967 16.6717ZM30.1572 16.4641L30.5489 17.0184L31.3577 16.9028L31.0757 16.3506L30.1572 16.4641ZM31.8845 16.566L32.141 16.8578L32.6678 16.5973L32.472 16.2859L31.8845 16.566ZM13.5599 17.3944L15.0032 17.316L14.1435 16.2644L12.5297 16.1978L13.5599 17.3944ZM20.0225 16.8069L21.4972 18.401L21.9613 17.7195L20.5768 16.0607L20.0225 16.8069ZM27.811 17.0634L28.8392 17.3258L28.4867 16.1665L27.3116 15.8257L27.811 17.0634ZM20.7608 15.9099L22.1043 17.5726L22.7623 17.1045L21.5442 15.4203L20.7608 15.9099ZM28.9645 16.2135L29.932 16.2252L29.5677 15.4575L28.4632 15.4164L28.9645 16.2135ZM32.0549 15.6534L32.2507 15.8492L32.6169 15.5594L32.4602 15.3381L32.0549 15.6534ZM26.4304 16.7344L27.482 17.0105L27.0277 15.6181L25.8154 15.248L26.4304 16.7344ZM30.0926 15.3772L30.4646 15.812L31.1873 15.5946L30.9112 15.1481L30.0926 15.3772ZM17.5589 16.2487L19.3978 17.8448L19.6857 16.848L17.9075 15.1246L17.5589 16.2487ZM15.3342 16.5405L17.2495 17.3689L16.9968 16.1136L15.0287 15.0913L15.3342 16.5405ZM21.7635 15.3263L22.9386 17.0027L23.7552 16.7462L22.7271 15.0874L21.7635 15.3263ZM22.9777 15.0384L23.9726 16.6815L24.9048 16.6247L24.0744 15.0306L22.9777 15.0384ZM25.1515 16.6051L26.1621 16.7266L25.5256 15.2264L24.3506 15.0306L25.1515 16.6051ZM9.85068 15.0208L11.0492 15.9158L12.1577 15.5966L11.1373 14.7917L9.85068 15.0208ZM32.2664 14.8132L32.3956 14.9268L32.5914 14.6644L32.4837 14.5293L32.2664 14.8132ZM27.3371 15.5496L28.4455 15.7317L27.9971 14.6722L26.7222 14.4255L27.3371 15.5496ZM28.1675 14.1983L28.6845 14.8485L29.6206 14.7408L29.2289 14.1004L28.1675 14.1983ZM18.0759 14.9092L19.811 16.6443L20.3711 15.8943L18.7496 14.0886L18.0759 14.9092ZM30.0867 14.3413L30.4059 14.6526L30.9934 14.353L30.7486 14.0201L30.0867 14.3413ZM13.0037 14.9973L14.7839 15.3361L14.2727 14.1317L12.3966 13.6245L13.0037 14.9973ZM25.6862 15.0717L26.8984 15.4203L26.3657 14.0044L24.9655 13.5461L25.6862 15.0717ZM7.12069 13.8399L8.30943 14.3961L9.01837 14.0044L7.97455 13.4874L7.12069 13.8399ZM18.967 13.9417L20.5337 15.7474L21.317 15.2578L19.8992 13.4365L18.967 13.9417ZM15.3185 14.5508L17.3572 15.9217L17.5706 14.7976L15.5809 13.2681L15.3185 14.5508ZM24.1782 14.8426L25.367 15.0482L24.6345 13.4717L23.25 13.1682L24.1782 14.8426ZM20.1733 13.3425L21.5442 15.154L22.5234 14.919L21.3327 13.1466L20.1733 13.3425ZM22.776 14.8681H23.8825L22.9229 13.176L21.6206 13.1055L22.776 14.8681ZM26.8064 14.0142L27.9422 14.069L27.435 13.1643L26.1288 13.0624L26.8064 14.0142ZM30.1356 13.3934L30.3746 13.5892L30.7662 13.2583L30.5704 13.0311L30.1356 13.3934ZM27.9207 13.037L28.4005 13.5266L29.2328 13.2994L28.8666 12.8039L27.9207 13.037ZM4.45337 12.7217L5.39535 12.9802L5.72436 12.661L4.87638 12.4142L4.45337 12.7217ZM30.2277 12.5258L30.3726 12.6355L30.5684 12.332L30.4431 12.1968L30.2277 12.5258ZM10.4891 13.3092L11.9579 13.272L11.2078 12.2242L9.60392 12.1244L10.4891 13.3092ZM24.9185 13.3562L26.2169 13.5775L25.5706 12.3633L24.0686 12.0539L24.9185 13.3562ZM15.8335 12.8901L17.8154 14.7427L18.497 13.9202L16.6561 11.9971L15.8335 12.8901ZM25.6059 11.7405L26.2835 12.4867L27.3763 12.3966L26.8573 11.6739L25.6059 11.7405ZM27.7601 11.9364L28.1518 12.2712L28.8137 11.954L28.5004 11.5976L27.7601 11.9364ZM1.93293 11.7151L2.40881 11.7758L2.48911 11.6093L2.04847 11.5623L1.93293 11.7151ZM13.0056 12.8901L15.0091 13.7342L14.9719 12.5591L12.9665 11.5799L13.0056 12.8901ZM16.9224 11.8463L18.7124 13.7635L19.672 13.2602L18.0759 11.3528L16.9224 11.8463ZM23.0678 12.9782L24.4661 13.2955L23.6593 11.6857L22.0338 11.247L23.0678 12.9782ZM18.3814 11.245L19.9364 13.1564L21.1114 12.9606L19.7758 11.1021L18.3814 11.245ZM21.4052 12.9214L22.7212 13.0017L21.6558 11.2509L20.1087 11.0786L21.4052 12.9214ZM24.1136 11.6622L25.4238 11.7229L24.7187 10.7104L23.2049 10.5909L24.1136 11.6622ZM27.672 10.9748L27.9599 11.1706L28.3985 10.8064L28.1655 10.5733L27.672 10.9748ZM6.78385 10.6614L7.812 11.5564L8.8519 11.3116L7.95888 10.5048L6.78385 10.6614ZM25.1633 10.5283L25.7782 11.0649L26.7437 10.8436L26.2659 10.307L25.1633 10.5283ZM13.6088 11.1863L15.669 12.471L16.1567 11.4918L14.1983 10.0974L13.6088 11.1863ZM10.5812 11.1119L12.3437 11.4507L12.0343 10.307L10.2189 9.81738L10.5812 11.1119ZM27.6681 10.1327L27.8365 10.2463L28.0049 9.88397L27.858 9.74101L27.6681 10.1327ZM21.9888 11.1021L23.4301 11.2274L22.5097 9.90551L20.8176 9.68813L21.9888 11.1021ZM14.7995 9.95447L16.7442 11.578L17.7038 10.9454L15.9413 9.29254L14.7995 9.95447ZM19.9736 10.8808L21.4208 10.9062L20.2458 9.32191L18.5479 9.21224L19.9736 10.8808ZM27.6563 9.39633L27.7425 9.46096L27.7268 9.23966L27.6407 9.16132L27.6563 9.39633ZM22.447 9.21812L23.3224 10.0171L24.5582 9.91335L23.8708 9.1437L22.447 9.21812ZM24.8402 9.41396L25.3219 9.75863L26.0877 9.43354L25.696 9.06928L24.8402 9.41396ZM16.4876 9.28079L18.1954 11.0433L19.4859 10.7887L18.0191 9.0732L16.4876 9.28079ZM4.04798 9.24749L5.02718 9.81934L5.61469 9.5295L4.74517 9.0027L4.04798 9.24749ZM11.3371 9.365L13.2524 10.1072L13.4854 9.05165L11.625 8.18213L11.3371 9.365ZM19.6935 8.16647L20.8568 9.23183L22.2551 9.16916L21.319 8.15276L19.6935 8.16647ZM8.07246 9.21812H9.42767L8.87149 8.21543L7.43207 8.094L8.07246 9.21812ZM24.6384 8.45435L24.9675 8.65019L25.4296 8.23305L25.1574 8.00196L24.6384 8.45435ZM1.48054 7.98825L2.15227 8.25459L2.3814 8.03329L1.76842 7.78262L1.48054 7.98825ZM21.789 7.94321L22.5488 8.48372L23.6279 8.24088L23.0247 7.70429L21.789 7.94321ZM17.0497 7.56328L18.5087 8.81273L19.9011 8.62864L18.683 7.42032L17.0497 7.56328ZM12.7236 8.1508L14.6213 9.23379L15.389 8.43672L13.646 7.28519L12.7236 8.1508ZM24.5072 7.60049L24.7168 7.73562L24.8382 7.37136L24.6424 7.21077L24.5072 7.60049ZM14.6722 7.54174L16.3995 8.80686L17.5746 8.34468L16.0607 7.07564L14.6722 7.54174ZM24.3427 6.93268L24.4641 7.01102L24.423 6.81518L24.3036 6.72705L24.3427 6.93268ZM18.6634 6.72705L19.7209 7.46145L20.9919 7.23819L20.1322 6.52142L18.6634 6.72705ZM21.2876 6.83672L21.8477 7.15202L22.6585 6.76034L22.21 6.42546L21.2876 6.83672ZM4.71775 6.45679L5.4874 7.31653L6.36867 7.15202L5.68324 6.36867L4.71775 6.45679ZM9.0262 7.45165L10.6086 7.76695L10.5655 6.73685L8.99878 6.30012L9.0262 7.45165ZM15.6495 5.96916L16.9929 6.8191L18.2424 6.46659L17.1085 5.62252L15.6495 5.96916ZM20.9743 5.85753L21.3425 6.06708L21.7146 5.64407L21.4052 5.41102L20.9743 5.85753ZM10.681 6.306L12.3398 6.92093L12.8529 6.04358L11.2979 5.34052L10.681 6.306ZM12.9332 5.80857L14.4999 6.6213L15.4791 6.01616L14.0925 5.16622L12.9332 5.80857ZM17.8096 5.45215L18.6438 5.88495L19.7014 5.51677L19.0179 5.07222L17.8096 5.45215ZM2.21298 5.00759L2.89841 5.56573L3.33513 5.35814L2.71432 4.84309L2.21298 5.00759ZM20.6668 5.0448L20.9156 5.18384L21.0096 4.90184L20.7765 4.74908L20.6668 5.0448ZM6.7623 5.53635L7.90209 5.5814L7.6142 4.67466L6.43917 4.53562L6.7623 5.53635ZM14.4235 4.49841L15.528 4.99584L16.5777 4.5317L15.6377 4.01469L14.4235 4.49841ZM17.2475 4.33586L17.8037 4.6022L18.3912 4.12632L17.9153 3.83256L17.2475 4.33586ZM0 3.85802L0.419094 4.08911L0.589474 3.94614L0.197797 3.72877L0 3.85802ZM8.75594 4.48274L10.0485 4.75887L10.2913 3.90698L9.05166 3.55055L8.75594 4.48274ZM11.3528 4.13807L12.6296 4.58458L13.3777 3.92265L12.2282 3.42522L11.3528 4.13807ZM16.705 3.35471L17.0967 3.5388L17.3454 3.20588L16.989 3.01004L16.705 3.35471ZM4.10086 3.01983L4.51604 3.7366L5.25239 3.64064L4.87442 2.98262L4.10086 3.01983ZM13.5266 3.23329L14.2551 3.49963L14.8602 2.91212L14.2218 2.60661L13.5266 3.23329ZM16.2683 2.68886L16.5229 2.80049L16.5503 2.64382L16.3075 2.52827L16.2683 2.68886ZM6.92289 2.78678L7.82179 2.85924L7.84333 2.14052L6.9601 2.00343L6.92289 2.78678ZM9.9486 2.61444L10.8769 2.84357L11.3156 2.22081L10.4597 1.94468L9.9486 2.61444ZM2.08764 1.78801L2.45386 2.22864L2.82008 2.10331L2.48128 1.694L2.08764 1.78801ZM12.6786 2.05435L13.1995 2.23648L13.4678 1.81738L12.99 1.62154L12.6786 2.05435ZM11.9912 1.23378L12.3261 1.34149L12.3809 1.12999L12.0617 1.01248L11.9912 1.23378ZM0.426928 0.951775L0.677603 1.11628L0.828398 1.04969L0.593392 0.896939L0.426928 0.951775ZM5.32289 1.34345H5.86732L5.72045 0.83623L5.17014 0.800979L5.32289 1.34345ZM8.81665 1.34345L9.40417 1.46096L9.49817 0.951775L8.94003 0.79902L8.81665 1.34345ZM7.80025 0.377968L8.15472 0.436719L8.10772 0.164504L7.75716 0.0900855L7.80025 0.377968ZM3.74247 0L3.93831 0.27809L4.22424 0.260464L4.0284 0H3.74247Z" fill="white"/>
</mask>
<g mask="url(#mask1_4217_52991)">
<path d="M23.9795 -20.1477L-19.3301 16.1934L16.8838 59.3514L60.1934 23.0104L23.9795 -20.1477Z" fill="white"/>
</g>
<path fill-rule="evenodd" clip-rule="evenodd" d="M39.9661 36.6C39.9662 36.5296 39.9529 36.4598 39.927 36.3943C39.9024 36.3317 39.8658 36.2745 39.8193 36.2259C39.7713 36.1782 39.7139 36.1408 39.6508 36.1163C39.5138 36.0613 39.3609 36.0613 39.2239 36.1163C39.1614 36.1409 39.1047 36.1782 39.0574 36.2259C39.0103 36.2744 38.9731 36.3316 38.9478 36.3943C38.8956 36.5278 38.8956 36.676 38.9478 36.8095C38.9736 36.8714 39.0108 36.9279 39.0574 36.976C39.1052 37.0237 39.1617 37.0616 39.2239 37.0876C39.3609 37.1425 39.5138 37.1425 39.6508 37.0876C39.7135 37.0628 39.7704 37.0253 39.8179 36.9774C39.8655 36.9295 39.9026 36.8724 39.927 36.8095C39.9533 36.7428 39.9666 36.6717 39.9661 36.6ZM39.7488 36.7469C39.7338 36.7888 39.7097 36.8269 39.6782 36.8585C39.6484 36.8897 39.6124 36.9144 39.5725 36.9309C39.4863 36.9649 39.3904 36.9649 39.3042 36.9309C39.2643 36.9144 39.2282 36.8897 39.1984 36.8585C39.1676 36.8264 39.1437 36.7884 39.1279 36.7469C39.0913 36.653 39.0913 36.5489 39.1279 36.455C39.1437 36.4135 39.1676 36.3755 39.1984 36.3434C39.2282 36.3122 39.2643 36.2875 39.3042 36.271C39.3908 36.2394 39.4859 36.2394 39.5725 36.271C39.6124 36.2875 39.6484 36.3122 39.6782 36.3434C39.7097 36.375 39.7338 36.4131 39.7488 36.455C39.7854 36.5489 39.7854 36.653 39.7488 36.7469ZM40.9238 36.7194V37.1111H41.1V36.6685C41.1017 36.6198 41.0937 36.5712 41.0765 36.5256C41.0621 36.4905 41.0392 36.4596 41.0099 36.4355C40.9814 36.4128 40.9478 36.3973 40.912 36.3904C40.8721 36.3823 40.8314 36.3784 40.7906 36.3787C40.7511 36.3788 40.7116 36.3834 40.6731 36.3924C40.6323 36.4013 40.5923 36.4137 40.5536 36.4296C40.5282 36.4087 40.4979 36.3945 40.4655 36.3885C40.4288 36.3813 40.3913 36.378 40.3539 36.3787C40.3099 36.3794 40.2661 36.3833 40.2227 36.3904C40.1698 36.3904 40.1169 36.4061 40.0601 36.4178V37.1111H40.2364V36.5647H40.2971C40.3153 36.5627 40.3337 36.5627 40.3519 36.5647C40.3733 36.5613 40.3951 36.5613 40.4166 36.5647C40.4333 36.5696 40.4487 36.5783 40.4616 36.5902C40.4735 36.6052 40.4822 36.6226 40.4871 36.6411C40.4905 36.6684 40.4905 36.696 40.4871 36.7234V37.115H40.6633V36.7234C40.6642 36.7116 40.6642 36.6998 40.6633 36.6881C40.6642 36.6757 40.6642 36.6633 40.6633 36.6509V36.6156C40.6645 36.6078 40.6645 36.5999 40.6633 36.5921C40.6854 36.5823 40.7084 36.5744 40.7319 36.5686H40.7965C40.8155 36.5665 40.8347 36.5684 40.8529 36.5741C40.8711 36.5798 40.8879 36.5893 40.9022 36.6019C40.929 36.6408 40.9409 36.6881 40.9355 36.7351M41.5348 37.1444C41.588 37.144 41.6411 37.1388 41.6934 37.1287C41.7443 37.12 41.7941 37.1062 41.8423 37.0876V36.6763C41.8435 36.6315 41.8355 36.5868 41.8188 36.5451C41.8052 36.5107 41.7821 36.4808 41.7522 36.459C41.7227 36.4358 41.6887 36.4191 41.6523 36.41C41.6113 36.4002 41.5692 36.3956 41.527 36.3963C41.4796 36.3958 41.4323 36.4004 41.386 36.41C41.3485 36.4194 41.3118 36.4319 41.2763 36.4472L41.2547 36.6274L41.3135 36.6039L41.3781 36.5843L41.4428 36.5706H41.5035C41.5437 36.5692 41.5838 36.5766 41.621 36.5921C41.6358 36.5998 41.648 36.6118 41.656 36.6264C41.664 36.6411 41.6675 36.6578 41.666 36.6744V36.6842C41.6412 36.6824 41.6164 36.6824 41.5916 36.6842H41.5289C41.484 36.6831 41.4392 36.6884 41.3958 36.6998C41.3584 36.7076 41.3231 36.7229 41.292 36.7449C41.2633 36.7637 41.2398 36.7892 41.2234 36.8193C41.2072 36.8522 41.1991 36.8884 41.1999 36.9251C41.1981 36.9635 41.2076 37.0017 41.2273 37.0347C41.2458 37.064 41.2706 37.0887 41.2998 37.1072C41.3333 37.1261 41.3697 37.1393 41.4075 37.1464C41.4492 37.1561 41.492 37.1607 41.5348 37.1601M41.666 36.8369V36.9799C41.6461 36.9883 41.6249 36.9936 41.6033 36.9956C41.5812 36.9975 41.5589 36.9975 41.5368 36.9956C41.4993 36.996 41.4621 36.9894 41.4271 36.976C41.4134 36.9707 41.4017 36.9612 41.3936 36.9489C41.3855 36.9366 41.3815 36.9221 41.382 36.9074C41.3769 36.8975 41.374 36.8865 41.3737 36.8753C41.3733 36.8642 41.3755 36.853 41.3801 36.8428C41.39 36.831 41.4019 36.821 41.4153 36.8134C41.4323 36.8066 41.4501 36.802 41.4682 36.7997C41.4891 36.7977 41.51 36.7977 41.5309 36.7997H41.5935L41.6503 36.8095M41.9539 36.4178V37.115H42.1301V36.5686L42.2007 36.5569H42.2633C42.3061 36.5539 42.3485 36.5664 42.3828 36.5921C42.3978 36.6102 42.4091 36.6312 42.4158 36.6537C42.4225 36.6763 42.4246 36.7 42.4219 36.7234V37.115H42.5982V36.6724C42.5993 36.6236 42.5907 36.5749 42.5727 36.5295C42.5576 36.4937 42.5333 36.4626 42.5022 36.4394C42.4713 36.417 42.4359 36.4016 42.3984 36.3943C42.3565 36.3863 42.3139 36.3823 42.2711 36.3826H42.2046H42.1243C42.0969 36.3826 42.0675 36.3826 42.0401 36.3943L41.9539 36.408M42.6472 36.0849L42.9938 37.1052H43.2327L43.5794 36.0849H43.3835L43.1172 36.9192L42.8528 36.0849H42.6472ZM43.6812 36.3552C43.7077 36.3565 43.7337 36.3473 43.7536 36.3297C43.7635 36.3213 43.7712 36.3108 43.7763 36.2989C43.7814 36.287 43.7837 36.2741 43.783 36.2612C43.7834 36.2486 43.781 36.2361 43.7759 36.2245C43.7708 36.213 43.7632 36.2028 43.7536 36.1946C43.7335 36.1773 43.7077 36.1682 43.6812 36.1691C43.6541 36.1679 43.6275 36.177 43.6068 36.1946C43.5972 36.2028 43.5896 36.213 43.5845 36.2245C43.5794 36.2361 43.577 36.2486 43.5774 36.2612C43.5763 36.2746 43.5786 36.2881 43.584 36.3004C43.5895 36.3128 43.598 36.3235 43.6087 36.3317C43.6295 36.3475 43.6551 36.3558 43.6812 36.3552ZM43.5931 37.1052H43.7674V36.3963H43.5931V37.1052ZM44.1806 36.9486C44.1334 36.9483 44.0866 36.941 44.0415 36.927C44.0005 36.9164 43.9615 36.8992 43.926 36.8761L43.8594 37.0465C43.8806 37.0589 43.9029 37.0694 43.926 37.0778C43.9514 37.0876 43.9789 37.0935 44.0043 37.1013L44.0905 37.115C44.1192 37.117 44.148 37.117 44.1767 37.115C44.2243 37.1157 44.2717 37.1098 44.3177 37.0974C44.3541 37.0888 44.3886 37.0735 44.4195 37.0524C44.4437 37.0339 44.4637 37.0106 44.4783 36.9838C44.4964 36.9445 44.5022 36.9006 44.4949 36.8579C44.4876 36.8153 44.4674 36.7758 44.4371 36.7449C44.3764 36.6997 44.3048 36.6713 44.2295 36.6626H44.1747C44.1425 36.6586 44.1113 36.6486 44.0827 36.6333C44.0756 36.6294 44.0697 36.6238 44.0656 36.6169C44.0614 36.61 44.0592 36.6021 44.0592 36.5941C44.0592 36.5628 44.0944 36.5491 44.1688 36.5491H44.2315L44.2981 36.5608L44.3607 36.5804L44.4156 36.6019L44.4783 36.4394C44.4355 36.4158 44.3892 36.3992 44.3412 36.3904C44.2877 36.3792 44.2332 36.374 44.1786 36.3748C44.1023 36.3702 44.0266 36.3908 43.9632 36.4335C43.9386 36.4519 43.9187 36.4759 43.9051 36.5035C43.8915 36.531 43.8846 36.5614 43.8849 36.5921C43.8835 36.6199 43.8888 36.6475 43.9004 36.6728C43.912 36.698 43.9295 36.7201 43.9514 36.7371C44.0093 36.7782 44.0767 36.8038 44.1473 36.8115L44.2041 36.8232C44.236 36.8285 44.267 36.8384 44.2961 36.8526C44.3042 36.8565 44.3109 36.8626 44.3154 36.8703C44.3199 36.878 44.3221 36.8868 44.3216 36.8957C44.3216 36.9153 44.3079 36.929 44.2824 36.9368C44.2522 36.947 44.2203 36.9517 44.1884 36.9505M44.6956 36.363C44.7228 36.3646 44.7495 36.3555 44.7701 36.3376C44.7793 36.3288 44.7866 36.3181 44.7913 36.3063C44.796 36.2945 44.7981 36.2817 44.7975 36.269C44.7977 36.2566 44.7954 36.2443 44.7907 36.2329C44.786 36.2214 44.779 36.211 44.7701 36.2024C44.7493 36.1849 44.7228 36.1758 44.6956 36.177C44.6691 36.1757 44.6431 36.1848 44.6232 36.2024C44.6138 36.2112 44.6063 36.2218 44.6012 36.2336C44.5961 36.2454 44.5935 36.2581 44.5935 36.271C44.5935 36.2838 44.5961 36.2965 44.6012 36.3083C44.6063 36.3201 44.6138 36.3307 44.6232 36.3395C44.6441 36.355 44.6696 36.3633 44.6956 36.363ZM44.6075 37.1131H44.7838V36.4041H44.6075V37.1131ZM45.3909 37.0994C45.4351 37.0808 45.4756 37.0542 45.5103 37.021C45.5459 36.9875 45.574 36.9468 45.5926 36.9016C45.6222 36.8324 45.6303 36.756 45.6156 36.6822C45.6009 36.6084 45.5642 36.5408 45.5103 36.4883C45.4758 36.4544 45.4353 36.4272 45.3909 36.408C45.342 36.3898 45.2903 36.3805 45.2381 36.3806C45.1866 36.3805 45.1355 36.3898 45.0873 36.408C45.0422 36.427 45.001 36.4542 44.9659 36.4883C44.9313 36.5223 44.904 36.5629 44.8856 36.6078C44.865 36.654 44.8543 36.7041 44.8543 36.7547C44.8543 36.8053 44.865 36.8553 44.8856 36.9016C44.9035 36.9467 44.9309 36.9874 44.9659 37.021C45.0012 37.0544 45.0423 37.081 45.0873 37.0994C45.1351 37.119 45.1864 37.129 45.2381 37.1287C45.2905 37.1293 45.3424 37.1193 45.3909 37.0994ZM45.1559 36.9407C45.1328 36.9298 45.1116 36.9153 45.0932 36.8976C45.0582 36.8583 45.0394 36.8073 45.0403 36.7547C45.0397 36.7279 45.0444 36.7013 45.054 36.6763C45.0631 36.6526 45.0764 36.6307 45.0932 36.6117C45.1111 36.5934 45.1323 36.5788 45.1559 36.5686C45.1817 36.5571 45.2098 36.5517 45.2381 36.553C45.267 36.5519 45.2957 36.5573 45.3223 36.5686C45.3455 36.5783 45.3662 36.5931 45.383 36.6117C45.4012 36.6301 45.4152 36.6521 45.4242 36.6763C45.4328 36.7016 45.4375 36.728 45.4379 36.7547C45.4373 36.7813 45.4327 36.8078 45.4242 36.833C45.4152 36.8572 45.4012 36.8793 45.383 36.8976C45.3657 36.9158 45.3451 36.9304 45.3223 36.9407C45.2955 36.9512 45.2669 36.9565 45.2381 36.9564C45.2099 36.9567 45.182 36.9514 45.1559 36.9407ZM45.7022 36.4159V37.1131H45.8785V36.5667L45.949 36.5549H46.0117C46.0539 36.5515 46.0958 36.5641 46.1292 36.5902C46.145 36.6079 46.1568 36.6287 46.1639 36.6513C46.171 36.674 46.1732 36.6979 46.1703 36.7214V37.1131H46.3465V36.6705C46.3477 36.6216 46.339 36.573 46.3211 36.5275C46.306 36.4918 46.2816 36.4607 46.2506 36.4374C46.2197 36.415 46.1843 36.3997 46.1468 36.3924C46.1048 36.3843 46.0622 36.3804 46.0195 36.3806H45.9529H45.8726L45.7865 36.3924L45.7022 36.4061M43.5245 29.5987C43.4752 29.6303 43.4185 29.6485 43.36 29.6516V29.7887C43.4387 29.788 43.5163 29.77 43.5872 29.7358C43.7347 29.6678 43.8548 29.5518 43.9279 29.4068C43.9636 29.3413 43.9825 29.268 43.9828 29.1934C43.9875 29.1496 43.9822 29.1054 43.9673 29.064C43.9523 29.0226 43.9282 28.9851 43.8966 28.9544C43.8379 28.9038 43.7626 28.8767 43.6851 28.8781C43.6139 28.876 43.5444 28.8996 43.4893 28.9446C43.4608 28.9711 43.4387 29.0038 43.4248 29.0401C43.4109 29.0764 43.4055 29.1155 43.409 29.1542C43.4079 29.1955 43.4166 29.2364 43.4344 29.2737C43.4528 29.309 43.4774 29.3409 43.5069 29.3677C43.5355 29.3926 43.5663 29.4148 43.5989 29.4342C43.6267 29.4512 43.6572 29.4631 43.689 29.4695C43.641 29.519 43.587 29.5624 43.5284 29.5987M43.5598 29.1796C43.5585 29.1413 43.571 29.1038 43.595 29.0739C43.6055 29.0606 43.6189 29.05 43.6342 29.0428C43.6495 29.0357 43.6663 29.0322 43.6831 29.0328C43.7014 29.0315 43.7196 29.035 43.7361 29.0429C43.7526 29.0508 43.7667 29.0628 43.7771 29.0778C43.8016 29.1127 43.814 29.1547 43.8124 29.1973C43.8123 29.2233 43.8076 29.2492 43.7987 29.2737C43.7888 29.3037 43.777 29.3332 43.7634 29.3618C43.7122 29.3535 43.6637 29.3326 43.6224 29.3011C43.6035 29.2878 43.5879 29.2702 43.577 29.2498C43.5661 29.2294 43.5602 29.2067 43.5598 29.1836M50.1419 32.27H50.1811H51.8026V29.8063H51.4893V31.9801H50.1067C50.0377 31.9813 49.9698 31.963 49.9108 31.9273C49.8463 31.8884 49.7915 31.8355 49.7502 31.7725C49.7016 31.6993 49.6653 31.6186 49.6425 31.5336C49.6153 31.4354 49.6015 31.334 49.6014 31.232V29.8044H48.5693C48.3971 29.8002 48.2262 29.8357 48.0699 29.9082C47.941 29.9711 47.8303 30.0662 47.7488 30.1843C47.6685 30.3034 47.6108 30.4361 47.5784 30.576C47.5426 30.7128 47.5249 30.8537 47.5255 30.9951C47.522 31.1582 47.5499 31.3204 47.6077 31.4729C47.6613 31.6009 47.7391 31.7173 47.8369 31.8156C47.9295 31.9078 48.0411 31.9787 48.1639 32.0232C48.2845 32.0702 48.4126 32.0948 48.5419 32.0957C48.6316 32.0954 48.7207 32.0815 48.8063 32.0546C48.8881 32.0284 48.9669 31.9936 49.0413 31.9508C49.1142 31.9138 49.1804 31.8648 49.2371 31.8058C49.284 31.7521 49.3272 31.6951 49.3664 31.6355C49.4027 31.8214 49.5015 31.9893 49.6464 32.1114C49.7882 32.2271 49.9668 32.2882 50.1497 32.2837M48.5478 31.8C48.4647 31.799 48.3824 31.7831 48.3049 31.753C48.2217 31.7216 48.1457 31.6737 48.0817 31.612C48.0089 31.5444 47.952 31.4614 47.9152 31.3691C47.8711 31.2549 47.8498 31.1331 47.8525 31.0107C47.8494 30.884 47.8673 30.7576 47.9054 30.6367C47.9357 30.535 47.9848 30.44 48.0503 30.3566C48.1098 30.281 48.1863 30.2206 48.2736 30.1804C48.3628 30.1376 48.4606 30.1161 48.5595 30.1177H49.2802V31.0303C49.2845 31.1396 49.2655 31.2486 49.2243 31.3499C49.1831 31.4512 49.1207 31.5426 49.0413 31.6178C48.9744 31.6803 48.8949 31.7277 48.8082 31.7569C48.7235 31.7877 48.634 31.8036 48.5439 31.8039M52.4724 29.4009H52.3137V29.5028H52.9346V29.4009H52.6761C52.6522 29.4004 52.6288 29.3948 52.6072 29.3847C52.5857 29.3746 52.5664 29.3601 52.5507 29.3422C52.5314 29.3215 52.5164 29.2972 52.5066 29.2706C52.4969 29.244 52.4926 29.2158 52.4939 29.1875C52.4914 29.1615 52.4941 29.1354 52.5018 29.1105C52.5096 29.0856 52.5222 29.0625 52.539 29.0426C52.571 29.0123 52.6134 28.9954 52.6574 28.9954C52.7015 28.9954 52.7439 29.0123 52.7759 29.0426C52.7911 29.0588 52.8029 29.0779 52.8106 29.0988C52.8183 29.1196 52.8219 29.1418 52.821 29.164H52.9346C52.9359 29.1257 52.9291 29.0876 52.9146 29.0521C52.9001 29.0167 52.8782 28.9847 52.8504 28.9584C52.7996 28.9136 52.734 28.8891 52.6663 28.8898C52.6293 28.8876 52.5923 28.894 52.5583 28.9086C52.5243 28.9233 52.4942 28.9457 52.4704 28.974C52.424 29.0286 52.3989 29.0982 52.3999 29.1699C52.3993 29.2144 52.4087 29.2586 52.4273 29.2991C52.4434 29.3315 52.4624 29.3623 52.4841 29.3912L52.4724 29.4009ZM53.0932 33.5136L53.0834 33.5018C53.3012 33.5076 53.518 33.4711 53.7218 33.3941C53.9015 33.3192 54.052 33.1879 54.1507 33.02C54.2744 32.8075 54.3574 32.5737 54.3955 32.3307C54.4514 31.9804 54.4769 31.6259 54.4719 31.2712C54.4744 31.0523 54.4593 30.8336 54.4268 30.6171C54.4025 30.4447 54.3439 30.2789 54.2545 30.1295C54.1771 29.9979 54.0617 29.8928 53.9235 29.8279C53.7574 29.7538 53.5766 29.7183 53.3948 29.7241C53.2122 29.7167 53.0306 29.7544 52.866 29.8338C52.7309 29.9012 52.616 30.0032 52.5331 30.1295C52.4485 30.2583 52.3905 30.4028 52.3627 30.5544C52.331 30.719 52.3153 30.8862 52.3157 31.0538C52.3141 31.2155 52.3365 31.3766 52.3823 31.5317C52.4225 31.6733 52.4889 31.8062 52.5781 31.9233C52.6694 32.0339 52.7846 32.1223 52.915 32.1819C53.0655 32.2477 53.2286 32.2798 53.3928 32.2759H54.0704C54.0479 32.4305 54.0064 32.5818 53.947 32.7263C53.9 32.8374 53.8268 32.9355 53.7336 33.0122C53.6435 33.0869 53.5367 33.1387 53.4222 33.163C53.2843 33.1915 53.1439 33.2052 53.0031 33.2041C52.9373 33.2048 52.8716 33.1982 52.8073 33.1845C52.748 33.1713 52.6907 33.1502 52.6369 33.1219V33.4391C52.6741 33.4548 52.7152 33.4685 52.7622 33.4842C52.8073 33.4984 52.854 33.507 52.9013 33.5096C52.9663 33.5171 53.0317 33.521 53.0971 33.5214M52.6565 31.0812L52.6663 31.0714C52.666 30.9333 52.6798 30.7955 52.7074 30.6602C52.7301 30.5466 52.7725 30.4379 52.8327 30.339C52.8905 30.2524 52.9685 30.1812 53.0599 30.1314C53.1661 30.0761 53.2848 30.0491 53.4046 30.0531C53.5186 30.0423 53.6333 30.0651 53.7346 30.1187C53.8358 30.1723 53.9192 30.2543 53.9745 30.3547C54.1011 30.6436 54.1582 30.9582 54.1409 31.2732C54.1409 31.4142 54.1409 31.5434 54.1292 31.6648C54.1174 31.7863 54.1194 31.8979 54.1135 32.0017H53.3987C53.2916 32.0121 53.1836 31.9963 53.084 31.9557C52.9844 31.9151 52.8962 31.8509 52.8269 31.7686C52.7 31.5635 52.6405 31.3238 52.6565 31.0832M55.0065 33.212V33.1963C54.9509 33.1972 54.8955 33.19 54.842 33.1748C54.7882 33.1588 54.7358 33.1385 54.6854 33.114V33.4196C54.71 33.4407 54.7386 33.4567 54.7696 33.4666C54.8033 33.4842 54.8397 33.4961 54.8773 33.5018C54.9373 33.513 54.9983 33.5183 55.0594 33.5175C55.1791 33.5222 55.2977 33.4938 55.4021 33.4352C55.497 33.3739 55.5735 33.2879 55.6234 33.1865C55.6863 33.0636 55.7286 32.9313 55.7488 32.7948C55.7742 32.6303 55.786 32.4639 55.784 32.2974V29.8024H55.4805V32.2974C55.482 32.4408 55.4729 32.5842 55.453 32.7263C55.4424 32.8237 55.4167 32.9188 55.3767 33.0083C55.3468 33.0744 55.2958 33.1288 55.2317 33.163C55.16 33.196 55.0816 33.2121 55.0026 33.21M32.4812 30.2274L32.0621 29.8083L31.6332 30.2391L32.0503 30.6563L32.4812 30.2274ZM33.4721 30.6935V31.2634C33.4789 31.5281 33.4452 31.7922 33.3722 32.0467C33.3172 32.2439 33.2203 32.4269 33.0883 32.5833C32.9648 32.7211 32.8104 32.8278 32.6379 32.8947C32.4495 32.9624 32.2505 32.9956 32.0503 32.9926C31.8502 32.9961 31.6511 32.9629 31.4628 32.8947C31.2895 32.8281 31.1345 32.7214 31.0104 32.5833C30.8784 32.4269 30.7816 32.2439 30.7265 32.0467C30.6535 31.7922 30.6198 31.5281 30.6266 31.2634V30.6935H30.0391V31.3417C30.0383 31.6059 30.0712 31.8692 30.137 32.1251C30.2007 32.3784 30.3138 32.6167 30.4699 32.8262C30.6312 33.0394 30.8414 33.2107 31.0829 33.3256C31.3847 33.459 31.7127 33.5226 32.0425 33.5116C32.3723 33.5226 32.7003 33.459 33.0021 33.3256C33.2432 33.2102 33.4533 33.039 33.6151 32.8262C33.7706 32.6166 33.8831 32.3783 33.9461 32.1251C34.0134 31.8694 34.047 31.6061 34.0459 31.3417V30.6935H33.4721ZM40.1796 32.4267C40.4123 32.4304 40.6427 32.3809 40.8533 32.2817C41.0471 32.1864 41.205 32.0312 41.3037 31.8391C41.351 31.9728 41.4403 32.0875 41.5583 32.1662C41.6715 32.2391 41.8036 32.2772 41.9382 32.2759H46.3485V31.7412H45.2655C45.1733 31.7471 45.081 31.7303 44.9967 31.6925C44.9124 31.6546 44.8387 31.5967 44.7818 31.5238C44.6649 31.3509 44.6072 31.1448 44.6173 30.9363C44.6046 30.7529 44.6635 30.5718 44.7818 30.4311C44.839 30.3742 44.9073 30.3297 44.9824 30.3004C45.0576 30.2711 45.1379 30.2576 45.2185 30.2607C45.2859 30.2609 45.3526 30.2749 45.4144 30.3018C45.4748 30.327 45.5295 30.3643 45.575 30.4115C45.6238 30.4592 45.6642 30.5148 45.6944 30.576C45.7139 30.6138 45.7303 30.6531 45.7434 30.6935H46.3035C46.2836 30.5787 46.2514 30.4665 46.2075 30.3586C46.1603 30.2354 46.0898 30.1223 45.9999 30.0257C45.9083 29.9299 45.7966 29.8556 45.6729 29.8083C45.5238 29.7532 45.3657 29.7266 45.2068 29.73C45.0372 29.7278 44.8687 29.7563 44.7093 29.8142C44.564 29.8665 44.4307 29.9478 44.3177 30.0531C44.2073 30.1587 44.1222 30.2879 44.069 30.4311C44.0091 30.5927 43.9792 30.7639 43.9808 30.9363C43.9808 31.0151 43.9913 31.0934 44.0122 31.1694C44.053 31.3159 44.1122 31.4568 44.1884 31.5885C44.2201 31.6385 44.2562 31.6857 44.2961 31.7295L44.3177 31.7393H41.95C41.8867 31.7392 41.8238 31.7286 41.7639 31.7079C41.7063 31.6867 41.6532 31.6548 41.6073 31.6139C41.5564 31.5677 41.5186 31.509 41.4976 31.4435C41.4684 31.3531 41.4545 31.2585 41.4565 31.1635C41.4603 30.9719 41.4284 30.7813 41.3625 30.6014C41.3064 30.4479 41.216 30.3092 41.0981 30.1961C40.983 30.0879 40.8451 30.007 40.6947 29.9591C40.3599 29.8546 40.0013 29.8546 39.6665 29.9591C39.516 30.007 39.3782 30.0879 39.2631 30.1961C39.1465 30.3103 39.0562 30.4487 38.9987 30.6014C38.9327 30.7813 38.9009 30.9719 38.9047 31.1635C38.9067 31.2585 38.8928 31.3531 38.8636 31.4435C38.8426 31.509 38.8048 31.5677 38.7539 31.6139C38.7087 31.6547 38.6562 31.6866 38.5992 31.7079C38.5362 31.7297 38.4699 31.7403 38.4033 31.7393H35.2699V28.9055H34.6824V32.27H38.419C38.553 32.2713 38.6845 32.2331 38.797 32.1603C38.9154 32.0822 39.0049 31.9673 39.0516 31.8333C39.1508 32.025 39.3086 32.18 39.502 32.2759C39.7132 32.3752 39.9443 32.4248 40.1776 32.4208M40.1933 31.9175C40.0973 31.9227 40.0013 31.9056 39.913 31.8676C39.8246 31.8295 39.7463 31.7715 39.6841 31.6981C39.5738 31.5358 39.5149 31.3441 39.5149 31.1478C39.5149 30.9516 39.5738 30.7598 39.6841 30.5975C39.8189 30.4627 40.0017 30.387 40.1923 30.387C40.3829 30.387 40.5657 30.4627 40.7005 30.5975C40.8208 30.7573 40.8817 30.9539 40.8729 31.1537C40.8815 31.3516 40.8205 31.5463 40.7005 31.704C40.6377 31.7754 40.5592 31.8312 40.4712 31.8672C40.3833 31.9032 40.2881 31.9184 40.1933 31.9116M40.2834 34.0658C40.3387 33.9794 40.3834 33.8867 40.4166 33.7897C40.4491 33.7012 40.4663 33.6078 40.4675 33.5136C40.4683 33.417 40.4504 33.3212 40.4146 33.2315C40.3804 33.147 40.3283 33.0708 40.2619 33.0083C40.1916 32.9436 40.109 32.8936 40.019 32.8614C39.9162 32.8266 39.8083 32.8094 39.6998 32.8105C39.6115 32.8102 39.5238 32.8261 39.4413 32.8575C39.3558 32.8911 39.2769 32.9395 39.2082 33.0005C39.1342 33.0655 39.0713 33.1422 39.0222 33.2276C38.9731 33.3114 38.9362 33.4018 38.9125 33.4959H39.3042C39.3348 33.4067 39.3873 33.3266 39.457 33.2629C39.5249 33.1991 39.6144 33.1634 39.7076 33.163C39.7608 33.1599 39.814 33.1683 39.8637 33.1875C39.9134 33.2068 39.9583 33.2365 39.9955 33.2746C40.0287 33.3074 40.055 33.3464 40.0728 33.3895C40.0906 33.4325 40.0996 33.4787 40.0993 33.5253C40.0963 33.5829 40.0823 33.6394 40.0582 33.6918C40.0343 33.7504 40.0041 33.8062 39.9681 33.8582L38.9066 35.2428V35.5522H40.4361V35.186H39.4217L40.2834 34.0658ZM46.2917 35.1096C46.3362 35.0051 46.3582 34.8923 46.3563 34.7787V33.5841C46.3588 33.4691 46.3368 33.355 46.2917 33.2492C46.2535 33.1572 46.1953 33.075 46.1213 33.0083C46.0506 32.9432 45.9673 32.8932 45.8765 32.8614C45.7839 32.8266 45.6856 32.8094 45.5867 32.8105C45.4871 32.8094 45.3882 32.8267 45.2949 32.8614C45.2035 32.8931 45.1196 32.9431 45.0481 33.0083C44.9754 33.0761 44.9174 33.158 44.8778 33.2492C44.8327 33.355 44.8107 33.4691 44.8131 33.5841V34.7787C44.8112 34.8923 44.8333 35.0051 44.8778 35.1096C44.9174 35.202 44.9753 35.2852 45.0481 35.3544C45.1196 35.4196 45.2035 35.4696 45.2949 35.5013C45.3882 35.5361 45.4871 35.5533 45.5867 35.5522C45.6856 35.5534 45.7839 35.5361 45.8765 35.5013C45.9673 35.4696 46.0506 35.4196 46.1213 35.3544C46.1954 35.2863 46.2535 35.2027 46.2917 35.1096ZM45.8805 33.2864C45.9581 33.3742 45.9988 33.4885 45.994 33.6056V34.7552C45.9988 34.814 45.9915 34.8731 45.9726 34.929C45.9538 34.9849 45.9237 35.0364 45.8844 35.0803C45.8463 35.1192 45.8005 35.1498 45.7499 35.17C45.6993 35.1902 45.6451 35.1997 45.5906 35.1978C45.5362 35.1997 45.4819 35.1902 45.4313 35.17C45.3808 35.1498 45.335 35.1192 45.2969 35.0803C45.2578 35.0376 45.2276 34.9876 45.2081 34.9331C45.1886 34.8786 45.1801 34.8208 45.1833 34.763V33.6134C45.1786 33.4964 45.2193 33.382 45.2969 33.2942C45.3336 33.2537 45.3787 33.2216 45.4291 33.2003C45.4795 33.179 45.534 33.1689 45.5887 33.1708C45.6435 33.1697 45.698 33.1801 45.7486 33.2013C45.7993 33.2226 45.8448 33.2542 45.8824 33.2942M44.3862 35.5601V35.1351H44.6075V34.7728H44.3862V33.9894H44.02V34.7728H43.3483L44.2452 32.8144H43.8535L42.9253 34.8531V35.1312H44.0219V35.5562L44.3862 35.5601ZM42.3867 35.1175C42.4312 35.0129 42.4532 34.9001 42.4513 34.7865V33.5919C42.4538 33.4769 42.4317 33.3628 42.3867 33.257C42.3486 33.1664 42.292 33.0847 42.2205 33.0173C42.149 32.9498 42.0642 32.8981 41.9715 32.8653C41.7817 32.7965 41.5738 32.7965 41.384 32.8653C41.2929 32.8975 41.209 32.9474 41.1372 33.0122C41.0651 33.08 41.0078 33.1621 40.9688 33.2531C40.9238 33.3589 40.9018 33.473 40.9042 33.588V34.7826C40.9023 34.8962 40.9243 35.009 40.9688 35.1136C41.0057 35.2049 41.0619 35.2872 41.1336 35.3548C41.2052 35.4224 41.2907 35.4737 41.384 35.5052C41.5738 35.5741 41.7817 35.5741 41.9715 35.5052C42.0621 35.473 42.1453 35.4231 42.2163 35.3584C42.2891 35.2892 42.3471 35.2059 42.3867 35.1136M41.9676 33.2903C42.0457 33.3779 42.0871 33.4922 42.0831 33.6095V34.7591C42.0865 34.8176 42.0781 34.8763 42.0582 34.9315C42.0384 34.9867 42.0075 35.0373 41.9676 35.0803C41.9297 35.119 41.8842 35.1494 41.834 35.1696C41.7838 35.1898 41.7299 35.1994 41.6758 35.1978C41.6214 35.1997 41.5671 35.1902 41.5165 35.17C41.4659 35.1498 41.4201 35.1192 41.382 35.0803C41.3038 34.9936 41.263 34.8796 41.2685 34.763V33.6134C41.2647 33.4965 41.3053 33.3825 41.382 33.2942C41.4191 33.2535 41.4645 33.2214 41.5153 33.2001C41.566 33.1788 41.6208 33.1688 41.6758 33.1708C41.7304 33.1699 41.7845 33.1805 41.8347 33.2017C41.885 33.223 41.9302 33.2545 41.9676 33.2942M49.5838 29.1091L49.3625 28.8879L49.1412 29.1091L49.3625 29.3304L49.5838 29.1091ZM49.1412 29.1091L48.9199 28.8879L48.6986 29.1091L48.9199 29.3304L49.1412 29.1091ZM51.7909 33.3021L51.5715 33.0808L51.3483 33.3021L51.5715 33.5233L51.7909 33.3021ZM51.3483 33.3021L51.127 33.0808L50.9057 33.3021L51.1328 33.5136L51.3483 33.3021Z" fill="white"/>
</svg>
