<svg width="52" height="38" viewBox="0 0 52 38" fill="none" xmlns="http://www.w3.org/2000/svg">
<mask id="mask0_4093_380174" style="mask-type:luminance" maskUnits="userSpaceOnUse" x="17" y="27" width="19" height="11">
<path d="M30.9236 37.3388L30.9453 37.5L31.0322 37.4294L31.0159 37.2772L30.9236 37.3388ZM30.0631 37.2935V37.4746L30.1609 37.4149V37.25L30.0631 37.2935ZM31.7206 37.2718L31.7514 37.4185L31.8257 37.3388L31.8021 37.1993L31.7206 37.2718ZM29.1447 37.116V37.3062L29.2533 37.2554V37.0743L29.1447 37.116ZM32.4452 37.0978L32.4815 37.2283L32.5467 37.1413L32.5159 37.0163L32.4452 37.0978ZM28.1864 36.808L28.1683 37.0163L28.2896 36.9783L28.3077 36.7845L28.1864 36.808ZM33.0919 36.837L33.1336 36.9529L33.1879 36.8605L33.1499 36.75L33.0919 36.837ZM30.8493 36.6341L30.871 36.8153L30.9942 36.7048L30.9779 36.5236L30.8493 36.6341ZM31.5956 36.5979L31.6282 36.7663L31.7351 36.6468L31.7098 36.4874L31.5956 36.5979ZM30.0341 36.5725L30.0468 36.779L30.1863 36.6794V36.4856L30.0341 36.5725ZM27.1991 36.3732L27.1647 36.5997L27.2987 36.5743L27.3332 36.3642L27.1991 36.3732ZM32.2713 36.4747L32.3094 36.6232L32.4017 36.4964L32.3709 36.3551L32.2713 36.4747ZM29.1791 36.3841V36.6124L29.3349 36.5254V36.3117L29.1791 36.3841ZM32.8818 36.2537L32.9235 36.3841L33.0032 36.2519L32.9651 36.1269L32.8818 36.2537ZM28.286 36.0725L28.2715 36.3189L28.4527 36.2464L28.469 36.0146L28.286 36.0725ZM34.139 36.1033L34.1843 36.1885L34.2187 36.0907L34.1752 36.0109L34.139 36.1033ZM30.8022 35.9783L30.8257 36.174L30.9924 36.0272L30.9725 35.8461L30.8022 35.9783ZM33.4162 35.953L33.4633 36.0653L33.5267 35.9312L33.485 35.8244L33.4162 35.953ZM31.5069 35.9675L31.5377 36.1486L31.6844 35.9892L31.6572 35.8225L31.5069 35.9675ZM26.1521 36.0236L26.3006 36.0146L26.3531 35.7845L26.2046 35.7755L26.1521 36.0236ZM30.0414 35.8878L30.0595 36.107L30.2406 35.9693L30.2297 35.7628L30.0414 35.8878ZM32.1518 35.8642L32.188 36.0182L32.3148 35.8515L32.284 35.7048L32.1518 35.8642ZM27.3694 35.6305L27.3404 35.9023L27.5324 35.8443L27.5632 35.5925L27.3694 35.6305ZM29.2389 35.6885V35.9312L29.4436 35.8062V35.578L29.2389 35.6885ZM34.5357 35.6342L34.5538 35.6595H34.5719L34.5828 35.6994L34.6045 35.6052L34.5647 35.5381L34.5357 35.6342ZM32.7242 35.6758L32.764 35.8099L32.8709 35.6396L32.8347 35.511L32.7242 35.6758ZM33.8691 35.5871L33.9144 35.6812L33.9633 35.5454L33.9216 35.4566L33.8691 35.5871ZM28.3947 35.3751V35.6414L28.6211 35.5327V35.2809L28.3947 35.3751ZM33.2332 35.4132L33.2441 35.4439L33.3039 35.4747L33.3637 35.3534L33.3256 35.2447L33.2332 35.4132ZM30.7968 35.3588L30.8257 35.5526L31.0322 35.3715L31.0105 35.1903L30.7968 35.3588ZM31.467 35.3679L31.4996 35.54L31.6808 35.3588L31.6554 35.1921L31.467 35.3679ZM32.0811 35.29L32.1173 35.4385L32.2786 35.2411L32.2496 35.0979L32.0811 35.29ZM30.0758 35.2537L30.1011 35.4711L30.3312 35.3045L30.3131 35.0943L30.0758 35.2537ZM26.4419 35.0581L26.3984 35.3552L26.6085 35.3135L26.6538 35.04L26.4419 35.0581ZM25.1503 35.3045H25.3169L25.3876 35.0508L25.2246 35.0219L25.1503 35.3045ZM34.2567 35.1577L34.302 35.2356L34.3382 35.0998L34.2948 35.0273L34.2567 35.1577ZM34.8527 35.1088L34.8944 35.165L34.9089 35.0726L34.8708 35.0201L34.8527 35.1088ZM32.6409 35.1269L32.6789 35.2556L32.8184 35.0527L32.7858 34.9277L32.6409 35.1269ZM33.677 35.0798L33.7205 35.1758L33.7912 34.9947L33.7513 34.9041L33.677 35.0798ZM29.3294 35.0418L29.3494 35.2845L29.603 35.1306L29.5903 34.8987L29.3294 35.0418ZM27.5523 34.9385L27.5397 35.232L27.7878 35.1396L27.8041 34.8643L27.5523 34.9385ZM33.1354 34.8951L33.1753 35.0019L33.2912 34.7954L33.2568 34.6904L33.1354 34.8951ZM28.6501 34.6759L28.5378 34.7266L28.5541 34.9965L28.5903 34.9784V34.9929L28.6574 34.6505L28.6501 34.6759ZM31.4978 34.8135L31.5322 34.973L31.755 34.761L31.746 34.7103L31.6862 34.6414L31.4978 34.8135ZM28.7425 34.6324L28.7987 34.7012L28.7661 34.8824L28.8295 34.8498L28.8204 34.5925L28.7425 34.6324ZM30.8529 34.7827L30.8891 34.9639L31.1373 34.7664L31.1101 34.5853L30.8529 34.7827ZM34.5665 34.6759L34.61 34.7375L34.6335 34.607L34.5919 34.5473L34.5665 34.6759ZM32.0811 34.761L32.1155 34.8987L32.3148 34.6813L32.2876 34.5454L32.0811 34.761ZM34.043 34.6976L34.0846 34.7755L34.1372 34.5943L34.0991 34.5201L34.043 34.6976ZM30.429 34.4983L30.4399 34.511V34.4929L30.429 34.4983ZM35.0864 34.5473L35.1244 34.5907V34.5056L35.09 34.4657L35.0864 34.5473ZM33.5484 34.6034L33.5865 34.6922L33.677 34.4893L33.8238 34.5907L33.6209 34.4494L33.5484 34.6034ZM30.3584 34.5436L30.1555 34.6741L30.1917 34.8806L30.333 34.7864V34.8606L30.3801 34.4331L30.3584 34.5436ZM32.7749 34.4241L32.6173 34.6215L32.6499 34.7375L32.8311 34.511L32.8021 34.3969L32.7749 34.4241ZM25.4818 34.6831L25.7119 34.6632L25.7734 34.3625H25.5434L25.4818 34.6831ZM26.6846 34.3933L26.6629 34.7157L26.9328 34.6414L26.9582 34.3389L26.6846 34.3933ZM29.4254 34.4585L29.4653 34.6922L29.7606 34.5201L29.7298 34.2936L29.4254 34.4585ZM31.5558 34.3226L31.5938 34.4657L31.6083 34.453V34.2719L31.5558 34.3226ZM27.7208 34.3081L27.7371 34.607L28.0342 34.4838V34.1994L27.7208 34.3081ZM33.0829 34.4168L33.1155 34.5128L33.2658 34.2828L33.2368 34.1868L33.0829 34.4168ZM24.1848 34.4621L24.3659 34.4911L24.4583 34.2121L24.2771 34.1596L24.1848 34.4621ZM30.2587 34.1523L30.3076 34.3425L30.4055 34.2846L30.2986 34.1288L30.2587 34.1523ZM31.6608 34.2411L31.7569 34.3335L31.8565 34.2538L31.8257 34.1107L31.6608 34.2411ZM34.3346 34.2574L34.3745 34.319L34.4107 34.1487L34.3727 34.0889L34.3346 34.2574ZM30.9308 34.281L30.9725 34.4476L31.2605 34.2484L31.2261 34.0817L30.9308 34.281ZM32.13 34.281L32.1644 34.4023L32.4017 34.1795L32.3746 34.0581L32.13 34.281ZM34.7857 34.1614L34.8255 34.2085L34.8364 34.0853L34.7984 34.0382L34.7857 34.1614ZM33.8999 34.2465L33.9361 34.3172L34.0104 34.1071L33.9759 34.0382L33.8999 34.2465ZM28.8711 34.0364L28.7969 34.3172L28.6266 34.0002L28.69 34.1197H28.6664L28.7117 34.3824L29.0287 34.2248L28.9943 33.9712L28.8711 34.0364ZM30.458 34.0219L30.4181 34.2628L30.6192 34.1433L30.5776 33.9531L30.458 34.0219ZM32.7206 34.0726L32.7333 34.0835L32.7441 34.1777L32.889 34.0183L32.8655 33.9168L32.7206 34.0726ZM33.4887 34.1324L33.5213 34.2103L33.5303 34.1886L33.5865 34.4114L33.5122 34.1107L33.5575 34.1397L33.6444 33.9748L33.6155 33.8969L33.4887 34.1324ZM35.2386 33.9295L35.2712 33.9621V33.8861L35.2404 33.8553L35.2386 33.9295ZM33.1898 33.8553L33.1064 33.9603L33.1336 34.0437L33.2477 33.8915L33.1336 33.8172L33.1898 33.8553ZM32.2405 33.8553L32.2695 33.9549L32.4507 33.8245L32.3728 33.7629L32.2405 33.8553ZM29.5504 33.9205L29.6102 34.1378L29.9399 33.9658L29.8892 33.7502L29.5504 33.9205ZM22.7754 33.9893L22.9131 34.0563L23.0272 33.8208L22.8986 33.7321L22.7754 33.9893ZM25.8405 33.7266L25.8097 34.0799L26.0995 34.0255L26.1321 33.6958L25.8405 33.7266ZM31.6735 33.8915L31.7116 34.011L32.0086 33.819L31.9779 33.694L31.6735 33.8915ZM26.9093 33.7755L26.9238 34.1052L27.2426 33.9984V33.6868L26.9093 33.7755ZM32.4488 33.7049L32.4579 33.8208L32.543 33.7556L32.5195 33.6524L32.4488 33.7049ZM34.1861 33.8208L34.2169 33.8915L34.2676 33.685L34.2368 33.6324L34.1861 33.8208ZM34.5484 33.7719L34.5846 33.819L34.6045 33.6524L34.5701 33.6089L34.5484 33.7719ZM27.8893 33.723L27.94 34.0165L28.2769 33.8734L28.2371 33.5908L27.8893 33.723ZM33.8238 33.8154L33.8528 33.877L33.9252 33.6958L34.0122 33.9132L33.9216 33.6886L33.9451 33.6306L33.918 33.5708L33.8238 33.8154ZM32.7459 33.7574L32.7695 33.839L33.0158 33.6198L32.9995 33.5455L32.7459 33.7574ZM24.5942 33.8933H24.8441L24.9202 33.5636L24.6739 33.5364L24.5942 33.8933ZM33.5013 33.723L33.5249 33.7864L33.6734 33.5527L33.6245 33.531L33.5013 33.723ZM30.3892 33.6958L30.4381 33.8245L30.4652 33.8607L30.7931 33.6995L30.7388 33.5274L30.3892 33.6958ZM34.9342 33.598L34.9705 33.6342V33.5183L34.936 33.4839L34.9342 33.598ZM28.8113 33.6089L28.8494 33.7357L28.92 33.8408L29.2334 33.6958L29.1718 33.4531L28.8113 33.6089ZM32.1536 33.3843L31.8438 33.5346L31.88 33.6306L32.1499 33.502V33.3915L32.1952 33.4241L32.1807 33.3734L32.1536 33.3843ZM33.2042 33.5745L33.2205 33.6379L33.4397 33.4078L33.4271 33.3426L33.2042 33.5745ZM29.6899 33.4549L29.7714 33.6524L30.1337 33.5002L30.0631 33.3009L29.6899 33.4549ZM35.3056 33.2955L35.3346 33.319V33.252L35.3092 33.2321L35.3056 33.2955ZM33.8292 33.4042L33.8473 33.4513L33.9578 33.2375H33.9198L33.8292 33.4042ZM31.2931 33.4277L31.2098 33.4622L31.2623 33.5817L31.3529 33.5455L31.342 33.6632L31.0431 33.8281L31.0938 33.973L31.3493 33.8281L31.3275 33.8045L31.3565 33.5165L31.3764 33.5364L31.6083 33.4422L31.5739 33.3118L31.4253 33.3734L31.3946 33.5111L31.304 33.4223L31.0812 33.2085L31.2931 33.4277ZM34.0919 33.4277L34.1191 33.473L34.1625 33.3281L34.2459 33.4676L34.1517 33.3082H34.168L34.1933 33.2285L34.1698 33.185L34.0919 33.4277ZM30.5413 33.3118L30.6156 33.4585L30.9779 33.3317L30.9127 33.1814L30.5413 33.3118ZM34.3853 33.3734L34.4198 33.3825L34.4469 33.2158L34.418 33.1759L34.3853 33.3734ZM33.5847 33.339L33.5973 33.3861L33.7441 33.2049L33.7223 33.1723L33.5847 33.339ZM32.1355 33.2412H32.1518V33.3046L32.4307 33.223L32.409 33.1506L32.1355 33.2412ZM23.2591 33.4875L23.462 33.5419L23.5761 33.2357L23.3823 33.1542L23.2591 33.4875ZM32.3365 33.1451H32.3836L32.3239 33.1252L32.3365 33.1451ZM33.7441 33.1216L33.6716 33.1107L33.9814 33.1614H33.9433L33.7622 33.1343V33.1035L33.7441 33.1216ZM32.9253 33.1107V33.1216H32.9669L32.697 33.098L32.9253 33.1107ZM34.677 33.2412L34.7096 33.2756V33.1162L34.6788 33.0854L34.677 33.2412ZM27.0958 33.1959L27.1556 33.5238L27.5179 33.3951L27.469 33.0817L27.0958 33.1959ZM32.6535 33.0781L32.4434 33.0999L32.5213 33.127L32.7025 33.1089V33.0908H32.6717V33.0745L32.6535 33.0781ZM26.0905 33.1307L26.1068 33.493L26.4437 33.4042L26.4346 33.0618L26.0905 33.1307ZM32.9742 33.0999H33.0068L33.2532 33.0582L33.2622 33.0473L32.9742 33.0999ZM28.0396 33.1832L28.1302 33.4658L28.4925 33.3172L28.4146 33.0419L28.0396 33.1832ZM31.8746 33.0202H31.8855L31.8438 33.0582L31.7605 33.022H31.6554L31.7007 33.0763H31.8003L31.7895 33.1288L31.7768 33.0999L31.4054 33.1886L31.4561 33.2792L31.8184 33.1959L31.8076 33.1723L31.7822 33.1578L31.8039 33.0455L31.8529 33.0745H32.0702L32.034 33.0165L31.8746 33.0202ZM31.9797 33.002L32.2985 33.0528H32.351H32.3329L31.9525 32.9948L31.9797 33.002ZM28.9907 33.1107L29.0233 33.1651L28.9907 33.2412L29.0432 33.3607L29.4055 33.2194L29.3113 32.9875L28.9907 33.1107ZM33.9361 32.9875L33.8999 33.0437V33.0745L33.9578 32.9857L33.9361 32.9875ZM34.1172 32.9767L34.0883 33.0473L34.1046 33.0781L34.1462 32.9731L34.1172 32.9767ZM29.8312 33.0672L29.9327 33.2484L30.0577 33.2122L30.15 32.9821L30.2805 33.1433H30.3058L30.2406 33.0183L30.2189 33.0455L30.1609 32.9767L29.8312 33.0672ZM33.6825 32.9658L33.6155 33.0038L33.601 33.022L33.7133 32.9586L33.6825 32.9658ZM33.7531 33.022V33.0491L33.8419 32.964L33.8274 32.9513L33.7531 33.022ZM25.0325 32.9495L24.9945 33.3354L25.3025 33.3009L25.3423 32.9386L25.0325 32.9495ZM34.8817 32.9223H35.0158V33.0057L35.0465 33.031V32.9241L34.8817 32.9223ZM31.2007 32.9404H31.4181L31.3456 32.8535H31.083L31.2007 32.9404ZM33.8365 32.9513H33.9162H33.8727L33.9651 32.8607H33.947L33.8365 32.9513ZM33.7151 32.9513L33.4597 33.0183L33.7477 32.9495L33.8854 32.8716L33.9035 32.8499L33.7151 32.9513ZM34.0629 32.8209L33.9868 32.9368H34.0158L34.0846 32.8318V32.8173L34.0629 32.8209ZM31.0467 32.9694L30.7352 33.0256L30.8167 33.1451L31.112 33.0926L31.1301 33.0365L31.179 33.0817H31.1935L31.1826 33.0636L30.8366 32.7991L31.0467 32.9694ZM33.9578 32.8299L33.9814 32.8209V32.8028L33.9578 32.8299ZM34.3056 33.0111H34.273H34.3328L34.3727 32.8209L34.3491 32.8028L34.3056 33.0111ZM34.1462 32.935L34.1662 32.9513L34.2133 32.8318L34.2006 32.801L34.1462 32.935ZM34.5393 32.8028V32.897L34.5647 32.9223L34.5737 32.7973L34.5393 32.8028ZM34.1027 32.7267L34.0901 32.7412V32.7539L34.1154 32.7231L34.1027 32.7267ZM30.2334 32.7412L30.3602 32.8788L30.3475 32.8952L30.5087 32.8734L30.3982 32.7158L30.2334 32.7412ZM34.5448 32.7412L34.3129 32.7828L34.5973 32.7321H34.5719L34.5484 32.7068L34.5448 32.7412ZM34.2133 32.656L34.1825 32.714V32.7303L34.2241 32.6452L34.2133 32.656ZM35.3002 32.656L35.3128 32.6651H35.302L35.3002 32.656ZM29.1012 32.7484L29.2352 32.9622L29.612 32.8607L29.487 32.6452L29.1012 32.7484ZM23.7572 33.0147L23.9782 33.0346L24.0561 32.8807V32.8952L24.1105 32.685L23.8478 32.6271L23.7572 33.0147ZM30.8221 32.6524L30.766 32.6162L30.7333 32.6071L30.8221 32.6524ZM28.2099 32.7194L28.3422 32.9875L28.7153 32.8571L28.594 32.589L28.2099 32.7194ZM30.6645 32.589H30.6971H30.6627H30.6645ZM34.7658 32.6959L34.7947 32.7176V32.58L34.7676 32.56L34.7658 32.6959ZM27.2987 32.6814L27.4092 33.002L27.7824 32.8662L27.6846 32.5546L27.2987 32.6814ZM21.8642 32.8372L22.02 32.9332L22.1631 32.6742L22.0218 32.5528L21.8642 32.8372ZM30.5214 32.5709L30.583 32.589L30.2895 32.5745L30.2243 32.589L30.3276 32.6886L30.7116 32.714L30.5939 32.5926L30.7388 32.6343L30.6138 32.5691H30.679L30.4018 32.4894L30.5214 32.5709ZM26.3549 32.58L26.4274 32.9423L26.7897 32.8281L26.7281 32.4803L26.3549 32.58ZM34.2839 32.5057L34.2259 32.6216L34.1354 32.6832L34.2767 32.5165V32.5057L34.1245 32.6868L33.9977 32.7774L34.244 32.6053H34.235L34.3129 32.4531V32.435L34.2839 32.5057ZM34.465 32.3934L34.4469 32.5383L34.331 32.5944L34.3618 32.4839H34.3527L34.3093 32.6397L34.3201 32.6542L34.3346 32.5999L34.5919 32.4767L34.4814 32.5292L34.4977 32.3753L34.465 32.3934ZM29.2552 32.4079L29.4128 32.5999L29.7896 32.56L29.6356 32.3608L29.2552 32.4079ZM25.3441 32.397L25.3622 32.7991L25.7245 32.7285L25.7119 32.3517L25.3441 32.397ZM34.4886 32.3372V32.3227L34.4723 32.31V32.3535L34.3799 32.4368L34.389 32.4042L34.3781 32.3879L34.36 32.455L34.3274 32.4839L34.5411 32.2937L34.4886 32.3372ZM35.0049 32.3734L35.0321 32.3916L35.0194 32.2955L34.994 32.2811L35.0049 32.3734ZM28.3603 32.2919L28.5287 32.5473L28.7099 32.5002L28.6918 32.4658L28.8204 32.3336L28.7316 32.1941L28.3603 32.2919ZM29.9798 32.2629L29.8964 32.2032L29.8656 32.1923L29.9798 32.2629ZM34.61 32.3644L34.6299 32.3789V32.1977L34.61 32.185V32.3644ZM34.4596 32.1162L34.4433 32.2013L34.4632 32.0908L34.4596 32.1162ZM29.7171 32.2068L29.7406 32.2158L29.3983 32.185L29.5794 32.3517L29.8892 32.3843L29.8059 32.3064L29.9508 32.2865L29.8584 32.2974L29.7896 32.2285L29.9508 32.2865L29.7207 32.1416L29.5396 32.08L29.7171 32.2068ZM27.4871 32.185L27.5143 32.2484V32.2575L27.6411 32.5021L28.0143 32.3789L27.8621 32.0691L27.4871 32.185ZM22.4602 32.4205L22.6812 32.5039L22.8207 32.176L22.6106 32.0619L22.4602 32.4205ZM34.7639 31.993L34.7766 32.0999L34.8002 32.1126L34.7839 31.9749L34.7639 31.993ZM26.5687 32.0655L26.7009 32.4278L27.0777 32.301L26.9564 31.9387L26.5687 32.0655ZM34.4614 32.1017L34.4705 32.0782L34.494 31.9477L34.4614 32.1017ZM34.523 31.8698V32.051H34.5339V31.8318L34.523 31.8698ZM25.6195 31.8698L25.7046 32.2774L26.0814 32.176L26.0071 31.7883L25.6195 31.8698ZM29.036 31.7919L29.1809 31.8517L29.2552 31.8898L29.0052 31.7575L29.036 31.7919ZM28.8041 31.9079L28.4798 31.9459L28.6827 32.1887L28.8494 32.1724L28.7135 31.964L28.9291 31.9025L28.7642 31.7104L28.5831 31.6941L28.8041 31.9079ZM29.1827 31.8354L28.9726 31.6724H28.9545L29.1827 31.8354ZM34.9324 31.7267L34.9542 31.7358L34.936 31.6543H34.9161L34.9324 31.7267ZM34.6136 31.8083H34.6245L34.6063 31.6362H34.5937L34.6136 31.8083ZM23.02 32.0075L23.3044 32.0619L23.4131 31.6814L23.1359 31.5927L23.02 32.0075ZM28.7081 31.5257L28.8113 31.6036L28.6628 31.5456L28.8439 31.6814L28.9454 31.7032L28.8168 31.6036L28.7135 31.5238L28.7081 31.5257ZM24.9347 31.5655L24.6467 31.5836L24.6612 31.8861L24.5253 32.0999L24.2808 32.0836L24.2355 32.5057H24.4456L24.3967 32.3119L24.6793 31.868L24.7355 32.0202L25.0343 31.9803V31.9514L25.0126 31.9731L24.9202 31.4967L24.9347 31.5728M34.7313 31.4369L34.7205 31.3825H34.7042L34.7205 31.4677L34.6824 31.5709L34.7748 31.321L34.7313 31.4369ZM34.5357 31.3119L34.5484 31.493L34.5303 31.7213L34.5502 31.4731L34.5393 31.292L34.5357 31.3119ZM21.1124 31.5854L21.2827 31.7141L21.3968 31.5329L21.3606 31.3282L21.3081 31.2739L21.1124 31.5854ZM25.8785 31.3898L26.0343 31.7992L26.4075 31.6778L26.2626 31.2793L25.8785 31.3898ZM25.48 31.2123C25.4791 31.199 25.4791 31.1857 25.48 31.1724V31.2123ZM23.5543 31.609L23.8949 31.6235L23.9474 31.2032L23.6033 31.138L23.5543 31.609ZM28.2208 31.3717L27.9183 31.2467L28.036 31.3644L27.9527 31.3771L28.0451 31.5583L27.8458 31.5492L27.9654 31.6887L27.7643 31.743L27.8114 31.8481L27.7081 31.8952L27.8404 32.0854L28.2027 31.993L28.0215 31.7141L28.3277 31.676L28.1157 31.4188L28.3929 31.4514L28.132 31.1923L28.3222 31.2829L28.0088 31.0728L28.2208 31.3717ZM34.5538 31.08L34.5846 31.2413H34.5937L34.5611 31.0728L34.5538 31.08ZM28.3349 31.2938L28.3893 31.321L28.0904 31.0655L28.3349 31.2938ZM24.9709 31.1126L25.0271 31.3753L24.922 31.484L25.2735 31.1344L25.3785 31.4967L25.4492 31.4804L25.3622 31.0529L24.9709 31.1126ZM28.0831 31.0655L28.0505 31.0384L28.0288 31.0293L28.0831 31.0655ZM27.8748 30.9894L27.9328 31.0166L27.8748 30.9605L27.7987 30.926L27.8748 30.9894ZM21.7773 31.2992L22.0128 31.4133L22.1794 31.0673L21.9584 30.9188L21.7773 31.2992ZM26.4129 30.8029L26.4238 30.8482H26.268L26.0778 30.917L26.3024 31.3318L26.6448 31.2014L26.4274 30.7902L26.4129 30.8029ZM24.0235 30.7177L24.0435 31.196L24.4184 31.1615L24.4021 30.7159L24.0235 30.7177ZM22.5091 30.6344L22.3986 30.9876L22.6975 31.0728L22.8243 30.6706L22.5798 30.5674L22.5091 30.6344ZM25.2372 30.6344L25.4184 31.0945L25.4673 31.0764L25.4238 30.8083L25.6792 30.6924L25.6177 30.5257L25.2372 30.6344ZM26.3241 30.4261L26.4093 30.7503L26.5107 30.9007L26.8006 30.7775L26.6846 30.6072L26.3495 30.4967L26.3205 30.4134L26.3241 30.4261ZM26.768 30.446L26.8531 30.408L26.8169 30.3609L27.0922 30.5293L27.2553 30.7105L26.9926 30.7793L27.2281 31.0637L26.9093 31.167L27.1321 31.4858L26.7698 31.6036L26.9636 31.9659L27.3259 31.8427L27.1647 31.5311L27.4889 31.4315L27.2861 31.138L27.5668 31.08L27.3476 30.8119H27.5813L27.3241 30.5384L27.5143 30.6362L27.2245 30.3645L27.3658 30.5456L27.1701 30.388L27.1973 30.4134H27.0795L27.1339 30.5402L26.7118 30.2848L26.768 30.446ZM27.1665 30.3065L27.1103 30.2522L27.0904 30.2431L27.1665 30.3065ZM23.029 30.3427L22.9837 30.6507L23.3333 30.6906L23.4004 30.2467L23.2627 30.2159L23.029 30.3427ZM24.3822 30.2721L24.4855 30.7648L24.8641 30.6833L24.7699 30.2141L24.3822 30.2721ZM19.7502 30.4297L19.8697 30.5891L20.069 30.3826L19.9658 30.2014L19.7502 30.4297ZM25.4528 30.1761L25.7028 30.6489L25.9129 30.5493L25.8785 30.3355H26.2988H25.9365L25.7789 30.0312L25.4528 30.1761ZM20.511 30.2866L20.6922 30.4514L20.886 30.1598L20.7266 29.9659L20.511 30.2866ZM23.9656 29.8518L23.9819 29.9352L24.3442 29.8591L24.3333 29.8065L23.9656 29.8518ZM23.5489 30.0511L23.4946 30.0819V30.2975L23.8714 30.283V29.8591L23.7355 29.8754V29.8011L23.5217 29.7902L23.5489 30.0511ZM21.2139 30.1109L21.4584 30.2594L21.6559 29.9062L21.4276 29.725L21.2139 30.1109ZM24.6557 29.8301L24.8369 30.3373L25.1847 30.2069L25.0036 29.7142L24.6557 29.8301ZM26.5071 29.9859L26.6013 30.0946V30.1127L26.5071 29.9859ZM26.4002 29.7033L26.3223 29.6326L26.2444 29.6815L26.4709 29.9442L26.2662 30.0565L26.6285 30.1906L26.556 29.9515L26.7825 30.0946L26.3731 29.6254L26.4002 29.7033ZM25.5724 29.7232L25.8894 30.2178L26.1394 30.0511L25.8169 29.5493L25.5724 29.7232ZM25.3477 29.4968L25.3604 29.4805L25.326 29.4624L25.3477 29.4968ZM21.8787 29.9044L22.1849 30.0203L22.337 29.6073L22.0436 29.4533L21.8787 29.9044ZM25.0017 29.3102V29.6453L25.134 29.9152L25.413 29.7341L25.2608 29.4243L25.0217 29.2921L25.0017 29.3102ZM25.6213 29.2884L25.9999 29.812L26.1412 29.6544L26.0434 29.5185V29.6181L25.6231 29.2866L25.6213 29.2884ZM22.4982 29.6634L22.8515 29.7305L22.9384 29.2703L22.5906 29.1635L22.4982 29.6634ZM25.0199 28.9388L25.0325 28.9606L25.0434 28.9062L25.0199 28.9388ZM24.1775 28.9986L24.259 29.245H24.2971V29.3863L24.3496 29.5511L24.4239 29.5185L24.384 29.5076L24.4474 28.9841L24.5471 29.0149L24.5018 28.8736L24.1775 28.9986ZM23.0598 29.3845H23.4366V28.8881L23.0598 28.8482V29.3845ZM19.2556 28.9823L19.3788 29.1798L19.6143 28.9805L19.5129 28.7613L19.2556 28.9823ZM25.067 28.8754L25.4166 29.0837L25.1956 28.7051L25.067 28.8754ZM20.0636 28.9732L20.2447 29.1761L20.4893 28.9044L20.3299 28.6725L20.0636 28.9732ZM20.8172 28.9207L21.0635 29.1019L21.2918 28.7577L21.0672 28.5421L20.8172 28.9207ZM23.4801 28.5186L23.5598 29.0765L23.9221 29.004L23.846 28.4715L23.4801 28.5186ZM25.067 28.4624V28.4805L25.4528 29.0783L25.5053 28.8319L25.3785 28.6345L25.1503 28.3809L25.067 28.4624ZM21.52 28.8247L21.8244 28.9732L22.0055 28.5657L21.7157 28.3845L21.52 28.8247ZM24.4184 28.5765L24.6159 29.0276L24.7608 29.0711L24.9094 28.937L24.6576 28.3628L24.4184 28.5765ZM24.2826 28.3809L24.2989 28.361L24.2681 28.3356L24.2826 28.3809ZM22.1631 28.6762L22.5127 28.7685L22.6305 28.3066L22.4385 28.2323L22.2809 28.2034L22.1631 28.6762ZM24.8804 28.7486L24.9637 28.5312L24.5742 28.149L24.8804 28.7486ZM23.25 28.2341L23.3786 28.2052L23.2428 28.1363L23.25 28.2341ZM23.8043 28.1617L23.9638 28.745L24.2645 28.5801L24.1829 28.274L23.9493 28.0929L23.8043 28.1617ZM22.7718 28.0584L22.741 28.4787L23.1033 28.4968L23.1341 28.0838L22.8714 27.9497L22.7953 27.9389L22.7718 28.0584ZM24.6485 27.8773L24.7282 27.9606L24.6648 27.832L24.6485 27.8773ZM23.4221 27.6309L23.5797 27.7179V27.611L23.4221 27.6309ZM24.1177 27.7106L24.3496 27.8918L24.4112 27.8646L24.2753 27.4914L24.1177 27.7106ZM19.8299 27.7106L20.011 27.9461L20.29 27.707L20.1378 27.4443L19.8299 27.7106ZM20.6034 27.774L20.8407 27.9932L21.1052 27.678L20.886 27.4208L20.6034 27.774ZM19.0002 27.5929L19.1216 27.8248L19.3897 27.6581L19.2937 27.4063L19.0002 27.5929ZM21.319 27.774L21.3479 27.7921L21.7356 27.745L21.837 27.5639L21.5617 27.3465L21.319 27.774ZM18.1108 27.4009L18.1832 27.6092L18.4224 27.5077L18.3716 27.2867L18.1108 27.4009ZM21.9729 27.7106L22.1142 27.7613L22.1939 27.553L22.3914 27.5983L22.4693 27.3827L22.145 27.227L21.9729 27.7106ZM17.1543 27.1672L17.176 27.3375L17.3735 27.2632V27.082L17.1543 27.1672Z" fill="white"/>
</mask>
<g mask="url(#mask0_4093_380174)">
<path d="M23.2027 18.3392L12.2734 34.123L29.7729 46.2403L40.7022 30.4565L23.2027 18.3392Z" fill="#D3B371"/>
</g>
<mask id="mask1_4093_380174" style="mask-type:luminance" maskUnits="userSpaceOnUse" x="0" y="0" width="38" height="37">
<path d="M33.6741 36.7537L33.761 36.7935L33.7121 36.4439L33.6306 36.4312L33.6741 36.7537ZM32.1579 36.4294L32.2611 36.5091L32.2394 36.1088L32.1416 36.0617L32.1579 36.4294ZM34.5346 35.9711L34.6595 36.0291L34.5726 35.6668L34.4585 35.6378L34.5346 35.9711ZM30.4587 35.8534L30.5746 35.9838L30.5963 35.54L30.4822 35.4476L30.4587 35.8534ZM33.2882 35.8117L33.4314 35.9168L33.3716 35.5074L33.2375 35.4349L33.2882 35.8117ZM31.8825 35.4494L32.0437 35.6142L32.0256 35.1668L31.8716 35.0418L31.8825 35.4494ZM35.0816 35.1795L35.2392 35.2483L35.1233 34.9041L34.9784 34.8643L35.0816 35.1795ZM34.0581 35.1451L34.2393 35.2628L34.1469 34.8878L33.9784 34.8027L34.0581 35.1451ZM32.8988 34.9476L33.0998 35.1288L33.0437 34.7266L32.8535 34.5889L32.8988 34.9476ZM28.5819 34.9947L28.7051 35.1885L28.7921 34.7067L28.6671 34.5563L28.5819 34.9947ZM30.3246 34.857L30.4967 35.0925L30.5402 34.6179L30.3717 34.4368L30.3246 34.857ZM34.5418 34.4947L34.7556 34.607L34.6378 34.2918L34.4385 34.2067L34.5418 34.4947ZM31.6072 34.569L31.8245 34.8136V34.3969L31.6162 34.1958L31.6072 34.569ZM35.3805 34.4295L35.5617 34.4947L35.4258 34.2031L35.2447 34.1596L35.3805 34.4295ZM33.5871 34.4295L33.8244 34.5962L33.7375 34.2665L33.5129 34.1288L33.5871 34.4295ZM32.5183 34.2085L32.7756 34.4368L32.7339 34.1016L32.4803 33.8933L32.5183 34.2085ZM34.0183 33.9241L34.2864 34.0636L34.1813 33.8136L33.9277 33.6995L34.0183 33.9241ZM34.8027 33.8915L35.0454 33.9821L34.915 33.7393L34.6885 33.6687L34.8027 33.8915ZM30.1942 33.9821L30.4152 34.3027L30.4858 33.8879L30.2666 33.6143L30.1942 33.9821ZM33.1343 33.8353L33.4259 34.0165L33.3571 33.7683L33.0781 33.6053L33.1343 33.8353ZM28.6272 34.0165L28.7975 34.3335L28.9243 33.8498L28.7432 33.5872L28.6272 34.0165ZM35.4874 33.7448L35.7012 33.7955L35.5544 33.5636L35.3552 33.531L35.4874 33.7448ZM31.3391 33.8172L31.6072 34.1125L31.6289 33.7864L31.368 33.5292L31.3391 33.8172ZM32.1524 33.6053L32.4604 33.8498L32.4423 33.6125L32.1452 33.397L32.1524 33.6053ZM26.5494 33.8263L26.669 34.098L26.8501 33.5944L26.7215 33.3716L26.5494 33.8263ZM33.5255 33.493L33.8426 33.6252L33.7629 33.4567L33.4603 33.3426L33.5255 33.493ZM34.2501 33.4785L34.5418 33.569L34.4331 33.3879L34.156 33.3118L34.2501 33.4785ZM32.7013 33.3933L33.0364 33.5745L32.9966 33.4205L32.6741 33.2629L32.7013 33.3933ZM34.8932 33.3607L35.1577 33.4114L35.0291 33.2303L34.7791 33.1923L34.8932 33.3607ZM33.0709 33.2176L33.4205 33.3118L33.3716 33.2249L33.0419 33.1307L33.0709 33.2176ZM33.7538 33.2176L34.0799 33.2774L34.0038 33.1778L33.6886 33.127L33.7538 33.2176ZM32.6759 33.1053L33.0382 33.1361L33.0201 33.1198L32.6578 33.089L32.6759 33.1053ZM32.3136 33.1252L32.6759 33.2538L32.6669 33.1868L32.3046 33.0691L32.3136 33.1252ZM33.3154 33.1017H33.6596L33.6161 33.0673H33.281L33.3154 33.1017ZM31.8028 33.1778L32.1488 33.397L32.1615 33.2665L31.8245 33.0655L31.8028 33.1778ZM31.0782 33.2321L31.3916 33.5346L31.4405 33.3245L31.1344 33.0528L31.0782 33.2321ZM34.3607 33.118L34.6614 33.1433L34.5635 33.0383L34.2755 33.0184L34.3607 33.118ZM35.4476 33.156L35.6849 33.1723L35.5418 33.0057H35.3207L35.4476 33.156ZM30.0565 33.2502L30.3228 33.6125L30.4224 33.3136L30.1598 32.9894L30.0565 33.2502ZM33.8371 32.9495L33.8915 32.9948L34.2121 32.9712L34.1487 32.926L33.8371 32.9495ZM31.4948 32.9006L31.868 33.0636L31.9097 33.0256L31.5474 32.8716L31.4948 32.9006ZM23.8738 33.252L23.9463 33.4332L24.1546 33.002L24.0695 32.8535L23.8738 33.252ZM28.6707 33.1542L28.879 33.5564L29.0475 33.1669L28.8319 32.8173L28.6707 33.1542ZM34.7882 32.8137L34.8896 32.9169H35.1632L35.049 32.8082L34.7882 32.8137ZM33.9313 32.8444L33.9694 32.8589L34.2628 32.7539L34.2175 32.7412L33.9313 32.8444ZM34.3208 32.7702L34.3896 32.8245L34.6831 32.7738L34.6052 32.7195L34.3208 32.7702ZM30.9206 32.7339L30.8391 32.8046L31.1851 33.0691L31.263 32.9767L30.9369 32.7412L30.9786 32.7629H31.0818L30.7195 32.5818L30.6126 32.5709L30.9206 32.7339ZM35.2211 32.5528L35.3352 32.6579L35.578 32.6216L35.4548 32.5111L35.2211 32.5528ZM34.3299 32.6053L34.3788 32.6307L34.6414 32.5039L34.5889 32.4821L34.3299 32.6053ZM26.8121 32.8861L26.9606 33.2919L27.2016 32.8263L27.0367 32.4785L26.8121 32.8861ZM34.7338 32.5238L34.8153 32.5836L35.078 32.5075L34.9892 32.4477L34.7338 32.5238ZM34.3335 32.4894H34.3625L34.5798 32.2956H34.5472L34.3335 32.4894ZM28.7069 32.4713L28.9461 32.9042L29.1508 32.6615L28.9026 32.2702L28.7069 32.4713ZM34.6632 32.3046L34.7193 32.3354L34.953 32.1905L34.8896 32.1579L34.6632 32.3046ZM35.5798 32.2213L35.703 32.3245L35.9167 32.263L35.7845 32.1525L35.5798 32.2213ZM29.9551 32.2919L29.8083 32.3119L30.0674 32.551L29.9351 32.6832L30.2358 33.0455L30.3681 32.8825L30.0819 32.5709L30.1344 32.618L30.2938 32.5836L30.0004 32.3264L30.0239 32.3408L30.2051 32.4042L29.8572 32.1905L29.6761 32.1235L29.9551 32.2919ZM35.078 32.2104L35.1704 32.2756L35.4023 32.176L35.3044 32.109L35.078 32.2104ZM34.5961 32.138L34.6324 32.1579L34.8135 31.9514L34.7737 31.9333L34.5961 32.138ZM24.3974 32.3082L24.4898 32.6705L24.7941 32.1706L24.68 31.8644L24.3974 32.3082ZM27.0639 32.1035L27.2269 32.5872L27.5168 32.2557L27.3356 31.8264L27.0639 32.1035ZM34.9295 31.9459L34.9947 31.9876L35.1939 31.8228L35.1251 31.7829L34.9295 31.9459ZM34.549 32.0039L34.569 32.0184L34.6958 31.7702L34.674 31.7575L34.549 32.0039ZM35.8642 31.8228L35.9946 31.9224L36.1758 31.8354L36.0381 31.7286L35.8642 31.8228ZM35.3534 31.8318L35.4512 31.9007L35.6523 31.7793L35.549 31.7086L35.3534 31.8318ZM28.9497 31.7068L28.7359 31.6597L28.9461 31.9061L28.7305 31.9677L28.9932 32.3716L29.2287 32.2829L29.0076 31.9785L29.0167 31.9894L29.2739 32.0347L29.0221 31.7612L29.2812 31.8988L28.9678 31.667L28.7178 31.5275L28.9497 31.7068ZM34.7954 31.734L34.8371 31.763L34.9874 31.5438L34.944 31.5148L34.7954 31.734ZM27.2958 31.5003L27.4769 31.9912L27.8048 31.8372L27.5983 31.3826L27.2958 31.5003ZM35.1305 31.5402L35.2048 31.5873L35.3697 31.4061L35.2936 31.3572L35.1305 31.5402ZM34.6831 31.5637L34.7121 31.5909L34.8045 31.3373L34.7773 31.3119L34.6831 31.5637ZM35.5599 31.4152L35.6649 31.4858L35.8334 31.3445L35.7211 31.2721L35.5599 31.4152ZM34.5998 31.3934L34.6179 31.4188L34.6577 31.1579L34.6396 31.1344L34.5998 31.3934ZM24.9173 31.4731L25.0133 31.9677L25.3973 31.5583L25.2687 31.1235L24.9173 31.4731ZM34.9295 31.301L34.9802 31.3391L35.0979 31.1108L35.0454 31.071L34.9295 31.301ZM35.2664 31.0909L35.3479 31.1453L35.4802 30.9496L35.3968 30.8935L35.2664 31.0909ZM21.3468 31.2594L21.3957 31.5329L21.7345 31.0855L21.6602 30.859L21.3468 31.2594ZM34.7519 31.0927L34.7882 31.1308L34.8498 30.8753L34.8135 30.8373L34.7519 31.0927ZM27.9244 31.0058L27.6418 30.879L27.7939 31.1271L27.4896 31.0945L27.6816 31.5311L28.0439 31.5474L27.8628 31.2213L28.2106 31.3663L28.0095 31.0782L28.3247 31.2902L28.0747 31.0565L27.7414 30.8282L27.9244 31.0058ZM35.6921 30.9496L35.8044 31.0203L35.9421 30.8627L35.8243 30.7866L35.6921 30.9496ZM34.6052 30.888L34.6342 30.9242L34.6432 30.667L34.6161 30.6308L34.6052 30.888ZM25.4154 30.7993L25.506 31.3518L25.9462 31.1235L25.814 30.6181L25.4154 30.7993ZM35.0798 30.5946L35.0001 30.821L35.0617 30.8699L35.145 30.6344L35.0961 30.5946H35.0798ZM25.9589 30.8536L26.4281 30.8319L26.2994 30.3301H25.8756L25.9589 30.8536ZM22.1873 30.446L22.2199 30.9043L22.6855 30.4533L22.613 30.0529L22.1873 30.446ZM26.6473 30.1942L26.2632 30.0511L26.3465 30.4877L26.8284 30.6453L26.7215 30.2975L27.1436 30.5529L27.0222 30.2667L27.3845 30.5511L27.2269 30.3409L26.8139 30.004L26.9172 30.1634L26.5839 29.9533L26.6473 30.1942ZM23.0043 29.7685V30.3446L23.5478 30.0457L23.4934 29.5276L23.0043 29.7685ZM34.2194 29.5294L34.2628 29.5819L34.1958 29.3645L34.1541 29.3138L34.2194 29.5294ZM35.2972 29.5294L35.4113 29.6L35.4494 29.3845L35.3316 29.3084L35.2972 29.5294ZM34.6143 29.5149L34.6903 29.5819L34.6541 29.3265L34.578 29.2577L34.6143 29.5149ZM23.7778 29.2758L23.7416 29.8718L24.343 29.7993L24.3122 29.2395L23.7778 29.2758ZM34.2846 29.2486L34.3516 29.3138L34.2882 29.0783L34.223 29.0113L34.2846 29.2486ZM34.8443 29.2251L34.944 29.2993V29.062L34.8407 28.9841L34.8443 29.2251ZM25.0042 29.1453L24.4608 28.9823L24.3974 29.5058L25.0115 29.6616V29.2812L25.5912 29.6055V29.2558L26.0513 29.6182V29.3645L26.4136 29.7033L26.3792 29.5584L25.8973 29.0946L25.8756 29.1943L25.5404 28.9225L25.4897 29.129L25.0531 28.8682L25.0042 29.1453ZM33.9839 28.9642L34.04 29.024L33.9567 28.8157L33.9005 28.7577L33.9839 28.9642ZM35.1686 28.9642L35.2972 29.0385L35.3099 28.8211L35.1758 28.7432L35.1686 28.9642ZM34.444 28.9642L34.5364 29.0385L34.473 28.783L34.3806 28.7052L34.444 28.9642ZM35.587 28.7323L35.741 28.8048L35.7682 28.611L35.6052 28.5349L35.587 28.7323ZM18.798 28.8809L18.7871 29.2432L19.2998 28.8247L19.2654 28.5095L18.798 28.8809ZM34.0672 28.6997L34.1505 28.7722L34.0672 28.5439L33.9839 28.4697L34.0672 28.6997ZM33.7049 28.6327L33.7484 28.6816L33.6596 28.5168L33.6161 28.466L33.7049 28.6327ZM34.6831 28.6744L34.8027 28.7541L34.7719 28.5186L34.6487 28.4352L34.6831 28.6744ZM33.7139 28.399L33.7864 28.4642L33.6868 28.2668L33.6143 28.1997L33.7139 28.399ZM34.223 28.399L34.3353 28.4805L34.2628 28.2432L34.1505 28.1599L34.223 28.399ZM35.0001 28.3827L35.1468 28.4606L35.1342 28.2414L34.9838 28.1599L35.0001 28.3827ZM33.4024 28.216L33.4295 28.2541L33.3553 28.1363L33.3263 28.0983L33.4024 28.216ZM19.9845 28.2831L19.9085 28.8265L20.566 28.4842L20.5769 27.9969L19.9845 28.2831ZM35.4005 28.1182L35.5726 28.1871V27.9914L35.3914 27.9171L35.4005 28.1182ZM33.7918 28.1182L33.8951 28.1979L33.7937 27.9769L33.6904 27.8972L33.7918 28.1182ZM33.3607 28.0367L33.4169 28.0911L33.3172 27.9353L33.2593 27.8791L33.3607 28.0367ZM34.4476 28.082L34.5871 28.1671L34.5327 27.9353L34.3896 27.8465L34.4476 28.082ZM21.1312 27.8248L20.9754 28.4479L21.7163 28.3266L21.7852 27.7432L21.1312 27.8248ZM35.8787 27.8845L36.0598 27.9389L36.0761 27.7668L35.8805 27.707L35.8787 27.8845ZM33.3734 27.8157L33.464 27.8882L33.348 27.707L33.2574 27.6346L33.3734 27.8157ZM33.9368 27.8157L34.0708 27.9027L33.9784 27.6726L33.8426 27.5838L33.9368 27.8157ZM21.9808 28.149L22.7453 28.2885L22.8739 27.7143L22.2054 27.5603L21.9808 28.149ZM34.761 27.7722L34.9295 27.8519L34.895 27.6327L34.7139 27.5494L34.761 27.7722ZM36.4384 27.6998L36.6196 27.7378L36.6377 27.5893L36.4475 27.5458L36.4384 27.6998ZM22.8793 27.9389L23.6275 28.3211L23.7633 27.9316L24.3774 28.4099L24.5441 28.1074L24.9915 28.5457L25.1546 28.3809L25.4734 28.7432L25.5984 28.7106L25.0694 28.111L24.8774 28.0802L25.0151 28.2323L24.5912 27.803L24.3485 27.9081L23.9481 27.582L23.7289 27.8085L23.1474 27.4878L22.8793 27.9389ZM37.0489 27.5603L37.1957 27.582L37.2065 27.457L37.0489 27.4335V27.5603ZM37.7047 27.4806H37.8061V27.3864L37.6974 27.3773L37.7047 27.4806ZM32.9078 27.3864L32.9567 27.4498L33.0292 27.5132L32.9169 27.3628H32.9078V27.3864ZM33.4513 27.5422L33.5763 27.6255L33.4567 27.4136L33.3317 27.3266L33.4513 27.5422ZM35.1414 27.4697L35.3316 27.5367L35.3153 27.3393L35.116 27.2668L35.1414 27.4697ZM25.035 28.0132L25.2379 28.2414L24.7542 27.544L24.4952 27.2505L25.035 28.0132ZM34.1578 27.4806L34.3208 27.5675L34.2447 27.3393L34.0762 27.2487L34.1578 27.4806ZM32.9803 27.2342L33.0926 27.3139L32.9622 27.1328L32.8499 27.0567L32.9803 27.2342ZM35.607 27.1944L35.8062 27.2415V27.0603L35.5925 27.0096L35.607 27.1944ZM33.598 27.2306L33.7556 27.3212L33.6433 27.0965L33.4839 27.0023L33.598 27.2306ZM34.4548 27.1491L34.6451 27.2288L34.5907 27.0114L34.3914 26.9263L34.4548 27.1491ZM24.5785 27.6653L24.8865 27.8085L24.3521 27.0839L23.9662 26.8538L24.5785 27.6653ZM36.1377 26.9715L36.3189 26.9987V26.8465L36.116 26.8158L36.1377 26.9715ZM33.0582 26.986L33.2085 27.0748L33.0727 26.8683L32.9205 26.7777L33.0582 26.986ZM32.5002 26.8936L32.5944 26.9607L32.4676 26.8158L32.3734 26.7487L32.5002 26.8936ZM33.8063 26.9063L33.9965 26.9969L33.9005 26.7687L33.7049 26.6745L33.8063 26.9063ZM36.7373 26.7813H36.8931V26.6545L36.7265 26.6455L36.7373 26.7813ZM34.8208 26.8321L35.0327 26.8955L34.9983 26.6962L34.7755 26.6255L34.8208 26.8321ZM37.3569 26.5422L37.3696 26.6364H37.4728V26.544L37.3569 26.5422ZM32.5274 26.6944L32.6651 26.7795L32.5183 26.5984L32.3825 26.515L32.5274 26.6944ZM33.194 26.6763L33.3752 26.7705L33.2448 26.5495L33.0636 26.4516L33.194 26.6763ZM35.2628 26.5205L35.4802 26.5603L35.4639 26.3792L35.2302 26.3339L35.2628 26.5205ZM34.0835 26.5513L34.3027 26.631L34.2284 26.4118L34.0002 26.3266L34.0835 26.5513ZM14.7746 26.5676L14.7602 26.8049L15.2112 26.515L15.1895 26.3103L14.7746 26.5676ZM32.6107 26.4371L32.7919 26.5313L32.6397 26.3303L32.4586 26.2361L32.6107 26.4371ZM31.9912 26.352L32.1108 26.4263L31.9695 26.2868L31.8535 26.2125L31.9912 26.352ZM33.3987 26.3266L33.6197 26.4172L33.5074 26.1926L33.2792 26.0948L33.3987 26.3266ZM35.7791 26.2343L35.9838 26.2506V26.0948L35.7591 26.0658L35.7791 26.2343ZM32.0329 26.1636L32.2031 26.2524L32.0401 26.0821L31.8735 25.9933L32.0329 26.1636ZM34.4385 26.1872L34.6759 26.2487L34.6251 26.0441L34.3733 25.9788L34.4385 26.1872ZM32.7484 26.1238L32.9712 26.2198L32.8245 26.0024L32.5999 25.9028L32.7484 26.1238ZM16.3162 26.1364L16.1967 26.5911L16.9213 26.2723L16.972 25.8665L16.3162 26.1364ZM36.3388 25.8484L36.3587 25.9788H36.5254V25.8484H36.3388ZM24.18 26.5386L24.2959 26.7632L24.2126 26.6201L23.8376 26.169L24.3195 26.9987L24.6419 27.3737L24.3629 26.8828L24.1039 26.285L23.8485 25.7868L24.18 26.5386ZM33.6705 25.9408L33.9186 26.0205L33.8299 25.7995L33.5672 25.7144L33.6705 25.9408ZM32.1234 25.9064L32.3408 26.0024L32.1724 25.8049L31.955 25.7089L32.1234 25.9064ZM17.8832 25.814L17.626 26.4136L18.4919 26.2614L18.644 25.7053L17.8832 25.814ZM31.4405 25.8321L31.5927 25.9136L31.4369 25.7778L31.2901 25.6981L31.4405 25.8321ZM20.2798 26.1944L21.1856 26.6038L21.4464 26.2071L22.2761 26.8393L22.6384 26.506L23.209 27.0893L23.6057 26.9081L23.968 27.3574H24.3485L23.7579 26.6183L23.2869 26.5205L23.4572 26.7306L22.9645 26.2053L22.4808 26.2922L21.9627 25.8756L21.4645 26.1727L21.5352 26.064L20.7617 25.6781L20.2798 26.1944ZM19.0118 26.2759L19.9302 26.3991L20.1892 25.7995L19.3904 25.66L19.0118 26.2759ZM36.962 25.6727L36.9819 25.7687L37.0924 25.7506L37.0833 25.6546L36.962 25.6727ZM34.8733 25.8267L35.116 25.8611L35.0853 25.6799L34.8244 25.6419L34.8733 25.8267ZM23.7615 26.5259L24.2452 26.8882L23.7543 26.0658L23.2 25.6002L23.7615 26.5259ZM32.9531 25.756L33.2103 25.8484L33.0799 25.6202L32.8154 25.5241L32.9531 25.756ZM31.5039 25.6564L31.7104 25.7488L31.5293 25.5821L31.3264 25.4915L31.5039 25.6564ZM32.2684 25.5857L32.5274 25.6836L32.3662 25.4662L32.1017 25.3665L32.2684 25.5857ZM34.0147 25.5423L34.2828 25.6002L34.2157 25.3883L33.9295 25.3267L34.0147 25.5423ZM35.3697 25.4861H35.5943L35.5762 25.3231H35.3316L35.3697 25.4861ZM30.85 25.3412L31.0311 25.4299L30.8608 25.2977L30.6797 25.2126L30.85 25.3412ZM31.5927 25.3955L31.8499 25.4915L31.6688 25.2977L31.4133 25.2017L31.5927 25.3955ZM23.7416 25.9571L24.1311 26.4227L23.7851 25.6763L23.3521 25.1329L23.7416 25.9571ZM33.2049 25.3412L33.4893 25.4209L33.3824 25.1908L33.0817 25.1075L33.2049 25.3412ZM23.0242 26.0658L23.6311 26.3321L23.0876 25.4481L22.3884 25.0622L23.0242 26.0658ZM30.9097 25.1691L31.1597 25.2651L30.9786 25.1039L30.734 25.0115L30.9097 25.1691ZM35.8841 25.0224L35.9149 25.1582L36.0961 25.1401L36.0798 25.0042L35.8841 25.0224ZM32.4423 25.1908L32.7394 25.2832L32.5944 25.0513L32.2883 24.9553L32.4423 25.1908ZM34.4096 25.1238L34.6813 25.151L34.6324 24.9571L34.3425 24.9263L34.4096 25.1238ZM31.7177 25.0622L32.0184 25.16L31.8372 24.9408L31.5293 24.843L31.7177 25.0622ZM30.1996 24.8937L30.4351 24.9843L30.254 24.8611L30.0293 24.7724L30.1996 24.8937ZM36.4765 24.776L36.5037 24.8756L36.6269 24.843L36.6105 24.7434L36.4765 24.776ZM31.0039 24.9191L31.3046 25.0151L31.1126 24.834L30.8101 24.738L31.0039 24.9191ZM23.8394 25.3539L23.9191 25.6727L23.8467 25.4245L23.5568 24.8611L23.7833 25.5857L24.0514 26.1002L23.9608 25.7995L23.8793 25.256L23.7398 24.7126L23.8394 25.3539ZM33.5129 24.8956L33.8172 24.9499L33.7321 24.7271L33.4078 24.6691L33.5129 24.8956ZM30.2775 24.7361L30.5746 24.8285L30.3753 24.6746L30.0855 24.5822L30.2775 24.7361ZM34.8172 24.555L34.8715 24.7361H35.1233L35.0907 24.564L34.8172 24.555ZM32.6615 24.7651L32.9875 24.8412L32.8643 24.6021L32.5202 24.5206L32.6615 24.7651ZM23.075 25.3629L23.6474 25.8484L23.267 25.0187L22.6456 24.4354L23.075 25.3629ZM31.8716 24.6746L32.2122 24.7633L32.0546 24.5242L31.7014 24.43L31.8716 24.6746ZM29.5022 24.5097L29.7866 24.5985L29.5964 24.4843L29.3247 24.3974L29.5022 24.5097ZM31.1126 24.5948L31.4604 24.689L31.2793 24.4662L30.917 24.372L31.1126 24.5948ZM30.3627 24.497L30.7141 24.5876L30.5148 24.4064L30.1652 24.3159L30.3627 24.497ZM33.8679 24.4499L34.1759 24.4717L34.1125 24.2633L33.781 24.238L33.8679 24.4499ZM29.5946 24.3612L29.9424 24.4463L29.7413 24.2996L29.4026 24.2144L29.5946 24.3612ZM35.3316 24.209L35.3751 24.3539L35.5852 24.3213L35.5599 24.1764L35.3316 24.209ZM23.2724 24.9336L23.7181 25.4952L23.4898 24.7706L23.0134 24.1365L23.2724 24.9336ZM28.7848 24.1709L29.1236 24.2525L28.9334 24.151L28.6091 24.0695L28.7848 24.1709ZM32.9422 24.2869L33.2882 24.3376L33.1886 24.1003L32.8263 24.0441L32.9422 24.2869ZM23.5025 24.6945L23.7996 25.2778L23.6999 24.6365L23.3902 24.0097L23.5025 24.6945ZM23.892 24.4952V24.7995V24.814V24.8032V24.9843L23.9662 24.6582L24.0967 24.3883L24.2398 24.0061L24.0369 24.4209L23.9916 24.5405L24.0025 24.4934L24.0133 23.9989L23.892 24.4952ZM23.7108 24.5695L23.8521 25.1274L23.863 24.564L23.7199 23.9862L23.7108 24.5695ZM32.0727 24.2072L32.4459 24.2796L32.3082 24.026L31.9169 23.9481L32.0727 24.2072ZM30.475 24.1528L30.8717 24.2398L30.6905 24.0115L30.2866 23.9228L30.475 24.1528ZM29.6942 24.1112L30.0927 24.1927L29.8953 24.0115L29.4968 23.93L29.6942 24.1112ZM31.2594 24.1764L31.647 24.2615L31.4804 24.0097L31.0782 23.921L31.2594 24.1764ZM28.8899 24.0278L29.2884 24.1003L29.0946 23.9608L28.7051 23.8902L28.8899 24.0278ZM35.8932 23.8884L35.9276 23.9952L36.0707 23.95L36.049 23.8413L35.8932 23.8884ZM28.0403 23.8884L28.4298 23.9554L28.2486 23.8684L27.8736 23.8032L28.0403 23.8884ZM34.2175 23.7923L34.2882 23.9735L34.578 23.959L34.5309 23.7779L34.2175 23.7923ZM18.76 24.0731L19.7327 24.7832L20.2762 24.4427L21.0171 25.2252L21.6729 25.0586L22.1094 25.6491L22.7797 25.7144L22.1547 24.8448L21.3703 24.6528L21.5334 24.8738L20.9772 24.2579L20.2635 24.3123L19.5389 23.7543L18.76 24.0731ZM22.2145 24.7361L22.9826 25.2379L22.5424 24.3032L21.6964 23.6728L22.2145 24.7361ZM24.468 23.9409L24.3122 24.122L24.689 23.8413L24.8358 23.6746L24.468 23.9409ZM28.1834 23.7597L28.6272 23.8105L28.4461 23.68L28.0131 23.6275L28.1834 23.7597ZM27.3012 23.6963L27.7378 23.7362L27.582 23.6655L27.1635 23.6257L27.3012 23.6963ZM29.0149 23.7779L29.4605 23.8413L29.2794 23.6601L28.8356 23.5949L29.0149 23.7779ZM24.305 23.9047L24.1564 24.2905L24.4463 23.9463L24.593 23.5695L24.305 23.9047ZM25.1763 23.6547L25.16 23.6855L25.6419 23.5732V23.5478L25.1763 23.6547ZM33.2882 23.7706L33.6397 23.7851L33.56 23.5587L33.1795 23.5405L33.2882 23.7706ZM26.5621 23.5895H27.0331L26.9136 23.5351H26.4625L26.5621 23.5895ZM29.8228 23.7543L30.2666 23.8304L30.0855 23.5931L29.6344 23.5152L29.8228 23.7543ZM25.7922 23.5424L25.8393 23.5822L26.3266 23.5333L26.2578 23.4953L25.7922 23.5424ZM24.0532 23.892L24.0351 24.3938L24.238 23.9771L24.2597 23.4735L24.0532 23.892ZM27.457 23.5876L27.937 23.6076L27.7921 23.4826L27.3248 23.4627L27.457 23.5876ZM30.6235 23.7271L31.0583 23.8068L30.888 23.5387L30.4351 23.4554L30.6235 23.7271ZM24.9118 23.6492L24.814 23.8014L25.2506 23.5967L25.3375 23.4536L24.9118 23.6492ZM32.339 23.6945L32.7321 23.7434L32.6162 23.4844L32.1941 23.43L32.339 23.6945ZM31.4568 23.6945L31.8771 23.7652L31.7303 23.4916L31.2865 23.4137L31.4568 23.6945ZM17.2093 23.9137L18.26 24.343L18.7781 23.7996L17.8723 23.3956L17.2093 23.9137ZM26.6545 23.3703L26.7415 23.4935L27.2414 23.4717L27.1418 23.3522L26.6545 23.3703ZM23.7561 23.8594L23.8956 24.4554L24.0079 23.9572L23.872 23.3467L23.7561 23.8594ZM34.7266 23.3938L34.7864 23.5514L35.0291 23.5025L34.9911 23.3449L34.7266 23.3938ZM28.3138 23.5297L28.7975 23.5713L28.6345 23.3793L28.1544 23.334L28.3138 23.5297ZM25.4408 23.4536L25.4064 23.5876L25.8846 23.4536L25.9082 23.3268L25.4408 23.4536ZM22.5714 24.2144L23.2145 24.8249L22.9536 24.0206L22.2688 23.3123L22.5714 24.2144ZM26.0169 23.3485L26.0458 23.4717L26.5458 23.3993L26.5041 23.2797L26.0169 23.3485ZM24.6727 23.4971L24.5187 23.8739L24.881 23.6148L25.0314 23.2525L24.6727 23.4971ZM23.3865 23.8394L23.6999 24.488V23.9029L23.3865 23.2163V23.8394ZM22.9771 23.9336L23.4626 24.5912L23.3503 23.9029L22.8485 23.1782L22.9771 23.9336ZM15.5337 23.7634L16.5825 23.8811L16.9448 23.3069L16.03 23.1728L15.5337 23.7634ZM29.12 23.4228L29.6036 23.4844L29.4352 23.2326L28.9424 23.1674L29.12 23.4228ZM27.5874 23.3322L28.0965 23.3431L27.9733 23.142L27.4642 23.1275L27.5874 23.3322ZM12.1262 23.2326L12.0175 23.5569L12.6842 23.334L12.7331 23.0406L12.1262 23.2326ZM14.079 23.1366L13.7819 23.6492L14.7275 23.5297L14.9232 23.0514L14.079 23.1366ZM25.1129 23.2217L25.0006 23.5478L25.4263 23.3666L25.5368 23.046L25.1129 23.2217ZM24.3249 23.3648L24.2941 23.8739L24.5821 23.5387L24.6184 23.0315L24.3249 23.3648ZM33.5672 23.046L33.6596 23.2525L33.9929 23.2272L33.9295 23.0206L33.5672 23.046ZM29.9442 23.3105L30.4242 23.3829L30.2594 23.0913L29.7594 23.0134L29.9442 23.3105ZM26.8212 23.0188L26.8918 23.2398L27.4099 23.2127L27.3356 22.9971L26.8212 23.0188ZM21.1493 24.122L22.0823 24.5423L21.5461 23.5297L20.5117 22.9572L21.1493 24.122ZM25.6328 23.0587L25.5803 23.3395L26.0549 23.2145L26.1056 22.9391L25.6328 23.0587ZM26.2034 22.9917L26.2143 23.238L26.7179 23.1656L26.7052 22.9246L26.2034 22.9917ZM35.261 22.9917L35.3081 23.1112L35.4802 23.0478L35.4494 22.9246L35.261 22.9917ZM30.7829 23.2L31.2521 23.2688L31.0981 22.9645L30.6018 22.8902L30.7829 23.2ZM28.4062 23.1674L28.9225 23.2109L28.7812 22.9373L28.2559 22.8902L28.4062 23.1674ZM32.627 23.1293L33.0274 23.142L32.9314 22.8902L32.4966 22.8739L32.627 23.1293ZM31.6669 23.1293L32.118 23.1674L31.9876 22.8793L31.5112 22.8268L31.6669 23.1293ZM23.9119 23.2272L24.0387 23.8503L24.247 23.43L24.1293 22.7978L23.9119 23.2272ZM24.7071 22.9772L24.6618 23.4826L25.0241 23.2326L25.0767 22.7308L24.7071 22.9772ZM27.6889 22.9772L28.2196 22.9971L28.12 22.6946L27.5766 22.6692L27.6889 22.9772ZM29.2214 22.9681L29.7377 23.0315L29.5873 22.7073L29.0439 22.6366L29.2214 22.9681ZM23.4137 23.084L23.7253 23.7905L23.8394 23.2761L23.5387 22.5406L23.4137 23.084ZM26.9226 22.5243L26.9788 22.8757L27.5095 22.8667L27.4642 22.5225L26.9226 22.5243ZM25.1818 22.6765L25.1202 23.1728L25.5441 23.0098L25.6147 22.5189L25.1818 22.6765ZM34.0219 22.5605L34.0998 22.7417L34.3878 22.6783L34.3353 22.4971L34.0219 22.5605ZM26.3031 22.4627V22.8703L26.8121 22.8268L26.8284 22.4283L26.3031 22.4627ZM25.7288 22.4953L25.66 22.9735L26.1346 22.8884L26.2143 22.421L25.7288 22.4953ZM30.0583 22.7634L30.571 22.8304L30.4206 22.4881L29.8772 22.4138L30.0583 22.7634ZM21.6113 23.4228L22.4717 24.0822L22.1674 23.1764L21.249 22.3957L21.6113 23.4228ZM24.2053 22.6982L24.3104 23.3358L24.6003 22.9862L24.5097 22.3431L24.2053 22.6982ZM22.8431 23.017L23.3485 23.7652V23.142L22.8431 22.3377V23.017ZM28.495 22.6728L29.0384 22.7272L28.9171 22.3649L28.3501 22.3033L28.495 22.6728ZM32.8426 22.2979L32.9604 22.5333L33.3462 22.5007L33.2647 22.2652L32.8426 22.2979ZM22.2127 23.0931L22.9065 23.8286L22.7761 23.075L22.0515 22.2508L22.2127 23.0931ZM30.946 22.5859L31.4423 22.6348L31.3028 22.3051L30.7594 22.2489L30.946 22.5859ZM31.9079 22.4953L32.3662 22.508L32.2502 22.22L31.7539 22.2037L31.9079 22.4953ZM27.7414 22.4681L28.2849 22.5116L28.207 22.0877L27.6273 22.0352L27.7414 22.4681ZM24.5948 22.2761L24.6727 22.9192L25.035 22.6728L24.977 22.0316L24.5948 22.2761ZM34.511 22.0805L34.5744 22.2181L34.7882 22.133L34.7447 21.9917L34.511 22.0805ZM29.3084 22.3739L29.8518 22.4428L29.7141 22.0479L29.1272 21.97L29.3084 22.3739ZM23.5876 22.4084L23.8793 23.1583L24.0967 22.729L23.8249 21.9573L23.5876 22.4084ZM17.4992 21.8649L18.4411 22.8739L19.3596 22.7308L19.903 23.517L20.883 23.6619L20.2381 22.671L19.1277 22.3739L19.2436 22.5551L18.6187 21.8504L17.4992 21.8649ZM27.015 22.3504L27.5584 22.3794L27.5367 21.883L26.9661 21.8414L27.015 22.3504ZM25.102 21.9772L25.1473 22.6149L25.5821 22.4591L25.5585 21.8287L25.102 21.9772ZM25.6835 21.7961L25.698 22.421L26.1817 22.3504L26.1908 21.7363L25.6835 21.7961ZM26.3103 22.3395L26.832 22.3504L26.8719 21.7617L26.3284 21.7345L26.3103 22.3395ZM30.1833 22.0968L30.7268 22.1529L30.5855 21.7689L29.9949 21.7037L30.1833 22.0968ZM33.2375 21.7236L33.3408 21.9283L33.685 21.8522L33.6143 21.6439L33.2375 21.7236ZM28.5367 22.0569L29.1109 22.1276L29.0004 21.6656L28.3863 21.5823L28.5367 22.0569ZM22.8666 22.1674L23.3666 22.9953L23.4916 22.4518L23.0043 21.5805L22.8666 22.1674ZM31.1362 21.8993L31.6524 21.9174L31.522 21.5805L30.9586 21.5551L31.1362 21.8993ZM35.0273 21.6312L35.0726 21.7218L35.1976 21.6403L35.1632 21.5479L35.0273 21.6312ZM32.0401 21.5551L32.1887 21.8287L32.6379 21.7961L32.5328 21.5225L32.0401 21.5551ZM23.901 21.8504L24.1582 22.6276L24.4698 22.2888L24.238 21.5008L23.901 21.8504ZM20.3939 22.575L21.4808 23.2833L21.1185 22.2526L19.9537 21.3885L20.3939 22.575ZM22.0533 22.0442L22.7779 22.8993V22.2181L22.0533 21.2888V22.0442ZM27.7577 21.8214L28.3392 21.8975L28.2704 21.345L27.6472 21.2508L27.7577 21.8214ZM29.3881 21.6638L29.9732 21.7327L29.8373 21.278L29.2015 21.1965L29.3881 21.6638ZM21.2037 22.1457L22.1276 22.9645L21.9736 22.1185L21.0189 21.1874L21.2037 22.1457ZM24.343 21.4211L24.5586 22.2091L24.9499 21.9663L24.7687 21.1765L24.343 21.4211ZM15.6967 21.3975L16.7836 22.1638L17.6169 21.7761L16.7111 21.0896L15.6967 21.3975ZM33.6723 21.1747L33.7592 21.3378L34.0291 21.2291L33.9694 21.0606L33.6723 21.1747ZM26.9842 21.7001L27.5548 21.7852L27.544 21.1204L26.9299 21.0117L26.9842 21.7001ZM24.881 21.1367L25.0495 21.9211L25.5078 21.7725L25.3756 20.9954L24.881 21.1367ZM23.0695 21.4537L23.5423 22.3395L23.7778 21.8885L23.3322 20.9718L23.0695 21.4537ZM30.3156 21.3631L30.888 21.3957L30.7413 20.9936L30.1145 20.9519L30.3156 21.3631ZM25.5133 20.9682L25.6328 21.7381L26.1437 21.6801L26.064 20.9247L25.5133 20.9682ZM26.2777 21.6656L26.8212 21.6946L26.7922 20.97L26.2034 20.9211L26.2777 21.6656ZM32.3698 20.9139L32.5057 21.1548L32.9187 21.0715L32.8245 20.8251L32.3698 20.9139ZM31.1724 20.8432L31.3536 21.1729L31.8716 21.1457L31.7448 20.8179L31.1724 20.8432ZM28.5602 21.3251L29.1725 21.4138L29.0566 20.8613L28.3899 20.7544L28.5602 21.3251ZM34.1415 20.6476L34.2067 20.7599L34.3878 20.6476L34.3407 20.528L34.1415 20.6476ZM23.4155 20.8668L23.843 21.7906L24.18 21.4392L23.7851 20.499L23.4155 20.8668ZM13.7385 20.9736L14.9015 21.4265L15.5482 20.9102L14.5464 20.4863L13.7385 20.9736ZM22.0913 21.1312L22.8014 22.0859L22.9391 21.4954L22.2471 20.4845L22.0913 21.1312ZM18.9719 21.7562L20.24 22.3323L19.7708 21.2146L18.4121 20.4628L18.9719 21.7562ZM29.4478 20.8794L30.0692 20.9356L29.9225 20.4392L29.2395 20.3668L29.4478 20.8794ZM27.7197 21.0606L28.3428 21.1765L28.2649 20.5008L27.5856 20.3577L27.7197 21.0606ZM23.9046 20.4248L24.2669 21.3631L24.6945 21.1186L24.3738 20.1766L23.9046 20.4248ZM30.2449 20.1458L30.455 20.5552H31.0438L30.8952 20.1512L30.2449 20.1458ZM32.7394 20.2744L32.8589 20.4719L33.2013 20.3451L33.118 20.1385L32.7394 20.2744ZM21.0189 20.9863L21.9681 21.95V21.1928L21.0153 20.1331L21.0189 20.9863ZM26.8936 20.8958L27.5077 21.0316L27.4697 20.2164L26.7994 20.0462L26.8936 20.8958ZM11.6933 20.5443L12.8073 20.691L13.2186 20.1893L12.2422 20.0353L11.6933 20.5443ZM19.9175 21.1331L21.0896 22.0388L20.9084 21.0787L19.7001 20.0371L19.9175 21.1331ZM31.417 20.1114L31.5981 20.4085L32.0908 20.3251L31.9695 20.0244L31.417 20.1114ZM24.5115 20.1259L24.814 21.0606L25.3122 20.9193L25.0622 19.9954L24.5115 20.1259ZM25.2107 19.9701L25.4444 20.8867L25.9987 20.845L25.8176 19.9483L25.2107 19.9701ZM26.14 20.8305L26.7306 20.8813L26.6255 20.0226L25.977 19.9429L26.14 20.8305ZM28.5439 20.4682L29.2033 20.5661L29.0674 19.9483L28.3428 19.827L28.5439 20.4682ZM22.3141 20.3414L22.9862 21.3722L23.2507 20.8885L22.6167 19.8197L22.3141 20.3414ZM9.88539 19.7255L9.61367 20.115L10.5013 20.0534L10.6825 19.6911L9.88539 19.7255ZM33.1343 19.6512L33.2285 19.798L33.473 19.6512L33.4024 19.4936L33.1343 19.6512ZM29.4949 19.9882L30.1489 20.0172L29.9841 19.5099L29.2595 19.4683L29.4949 19.9882ZM7.64456 19.557L7.57934 19.7491L8.04671 19.6349L8.07207 19.4538L7.64456 19.557ZM27.6237 20.1476L28.2994 20.298L28.1907 19.5226L27.4407 19.3415L27.6237 20.1476ZM22.7127 19.7074L23.325 20.7834L23.7036 20.4211L23.1456 19.3252L22.7127 19.7074ZM30.3772 19.3179L30.5945 19.6947L31.176 19.6295L31.0239 19.2509L30.3772 19.3179ZM31.6887 19.3777L31.8499 19.6259L32.2847 19.4882L32.1705 19.2292L31.6887 19.3777ZM21.0515 19.9429L21.9917 21.0298L22.1493 20.3795L21.2435 19.2201L21.0515 19.9429ZM23.2724 19.24L23.8159 20.336L24.2923 20.0878L23.8213 18.9919L23.2724 19.24ZM26.7143 19.9357L27.39 20.1168L27.2922 19.1857L26.5404 18.9665L26.7143 19.9357ZM33.5672 19.0716L33.6288 19.1585L33.761 19.0335L33.7103 18.9357L33.5672 19.0716ZM15.5663 19.9773L16.7347 19.8668L17.3796 20.9084L18.6603 21.1294L18.0227 20.0552L16.6079 19.6639L16.6822 19.7835L15.9358 18.923L14.5826 18.8995L15.5663 19.9773ZM28.495 19.5045L29.2033 19.5915L29.033 18.9429L28.2414 18.8306L28.495 19.5045ZM23.9662 18.9411L24.4155 20.028L24.9698 19.8976L24.5894 18.8198L23.9662 18.9411ZM19.6947 19.7889L20.8975 20.865V20.0081L19.6875 18.8198L19.6947 19.7889ZM25.8955 19.8396L26.5494 19.9212L26.3683 18.9339L25.6437 18.8125L25.8955 19.8396ZM25.1183 19.8668L25.7324 19.8469L25.4517 18.8089H24.7615L25.1183 19.8668ZM18.3415 20.0208L19.7726 21.0026L19.5425 19.8958L18.0643 18.7437L18.3415 20.0208ZM29.2812 18.5444L29.5439 19.0408L30.2141 19.0172L30.033 18.5299L29.2812 18.5444ZM21.3214 19.0679L22.2127 20.2454L22.517 19.7255L21.6765 18.4991L21.3214 19.0679ZM32.0093 18.6658L32.147 18.8578L32.4839 18.6767L32.3843 18.472L32.0093 18.6658ZM30.5492 18.4846L30.7594 18.8198L31.3028 18.6893L31.1525 18.356L30.5492 18.4846ZM27.4806 19.106L28.2251 19.2708L28.0639 18.4375L27.2269 18.2346L27.4806 19.106ZM21.7924 18.3796L22.604 19.6114L23.0405 19.2237L22.2978 17.9684L21.7924 18.3796ZM12.3726 18.1549L13.5193 18.9611L14.5011 18.6078L13.532 17.8832L12.3726 18.1549ZM19.7346 18.6096L20.9211 19.8324L21.1022 19.1078L19.9501 17.7963L19.7346 18.6096ZM28.4298 18.4575L29.1797 18.5082L28.9678 17.8687L28.1218 17.7963L28.4298 18.4575ZM32.3535 17.9883L32.4549 18.1151L32.6705 17.9339L32.5908 17.7908L32.3535 17.9883ZM26.4571 18.8379L27.2124 19.0625L27.0548 18.0281L26.2016 17.7437L26.4571 18.8379ZM22.4391 17.8868L23.1511 19.1386L23.6945 18.8904L23.0659 17.6387L22.4391 17.8868ZM16.588 18.9592L18.1477 19.6621L17.7727 18.4937L16.1315 17.6061L16.588 18.9592ZM25.5241 18.693L26.2614 18.818L25.9915 17.7111L25.1564 17.53L25.5241 18.693ZM29.3084 17.6061L29.5855 18.0444L30.2413 17.9502L30.0438 17.5119L29.3084 17.6061ZM23.2416 17.5879L23.8449 18.8306L24.4771 18.7165L23.9699 17.4956L23.2416 17.5879ZM24.6455 18.6857L25.3412 18.6966L24.9553 17.5263L24.1582 17.4774L24.6455 18.6857ZM30.7539 17.6821L30.9478 17.9394L31.4043 17.7474L31.263 17.4756L30.7539 17.6821ZM18.0734 18.4774L19.5407 19.6657V18.6857L18.0734 17.3579V18.4774ZM32.7194 17.3543L32.7756 17.4177L32.868 17.289L32.8209 17.2148L32.7194 17.3543ZM27.2849 17.972L28.1001 18.1223L27.8718 17.2818L26.9498 17.0843L27.2849 17.972ZM20.0606 17.6314L21.1838 18.9592L21.5461 18.3886L20.4827 17.0083L20.0606 17.6314ZM10.0774 17.3941L11.2694 17.8796L11.965 17.4303L10.9361 16.9793L10.0774 17.3941ZM28.0005 16.7528L28.3483 17.3579L29.1163 17.3398L28.8718 16.7492L28.0005 16.7528ZM31.0039 16.9032L31.1615 17.0843L31.4948 16.8597L31.3735 16.655L31.0039 16.9032ZM14.6714 17.8361L16.1912 18.1169L15.6025 17.0083L13.9577 16.5518L14.6714 17.8361ZM29.3826 16.7003L29.6507 17.0626L30.2467 16.8815L30.0511 16.5191L29.3826 16.7003ZM20.6222 16.8815L21.6457 18.2691L22.1565 17.8597L21.2254 16.4485L20.6222 16.8815ZM26.1183 17.6151L26.9751 17.8868L26.7487 16.7836L25.7777 16.434L26.1183 17.6151ZM7.74419 16.6315L8.8003 16.8289L9.18434 16.4304L8.24779 16.2366L7.74419 16.6315ZM18.1422 17.1351L19.5914 18.4919L19.8106 17.6749L18.4121 16.2257L18.1422 17.1351ZM25.0531 17.4014L25.8955 17.5825L25.5477 16.3724L24.5821 16.1242L25.0531 17.4014ZM21.4029 16.3615L22.3087 17.7691L22.9445 17.5209L22.1565 16.1224L21.4029 16.3615ZM22.3486 16.0735L23.1094 17.4629L23.843 17.3724L23.2036 16.0156L22.3486 16.0735ZM24.0387 17.3416L24.8412 17.3941L24.3412 16.1025L23.4137 15.9956L24.0387 17.3416ZM31.2847 16.1659L31.3934 16.28L31.5854 16.0699L31.4967 15.9395L31.2847 16.1659ZM27.0458 16.7546L27.9171 16.8543L27.6255 16.0554L26.6328 15.9177L27.0458 16.7546ZM16.1768 17.0825L17.8995 18.3252L17.8778 17.2057L16.1496 15.7982L16.1768 17.0825ZM5.45445 15.9214H6.1555L6.28231 15.6659L5.64646 15.6496L5.45445 15.9214ZM27.8954 15.7293L28.2577 16.242L29.0058 16.1351L28.745 15.6243L27.8954 15.7293ZM29.4931 15.8235L29.7304 16.0934L30.2177 15.8525L30.0366 15.5645L29.4931 15.8235ZM12.5429 16.5898L13.8779 16.5173L13.0827 15.5446L11.59 15.483L12.5429 16.5898ZM18.5208 16.0463L19.8849 17.5209L20.3142 16.8905L19.0335 15.3562L18.5208 16.0463ZM25.7252 16.2837L26.6762 16.5264L26.3502 15.454L25.2633 15.1388L25.7252 16.2837ZM19.2038 15.2167L20.4465 16.7546L21.0551 16.3217L19.9284 14.7638L19.2038 15.2167ZM26.7922 15.4975L27.6871 15.5083L27.3501 14.7982L26.3284 14.7602L26.7922 15.4975ZM29.6507 14.9794L29.8319 15.1605L30.1706 14.8924L30.0257 14.6877L29.6507 14.9794ZM24.4481 15.9793L25.4209 16.2347L25.0006 14.9468L23.8793 14.6044L24.4481 15.9793ZM27.8356 14.7239L28.1798 15.1261L28.8482 14.925L28.5928 14.512L27.8356 14.7239ZM16.242 15.5301L17.943 17.0064L18.2093 16.0844L16.5644 14.4903L16.242 15.5301ZM14.1841 15.8L15.9557 16.5662L15.7221 15.4051L13.9015 14.4595L14.1841 15.8ZM20.1313 14.6768L21.2182 16.2275L21.9736 15.9902L21.0225 14.4558L20.1313 14.6768ZM21.2544 14.4106L22.1747 15.9304L23.0369 15.8779L22.2688 14.4033L21.2544 14.4106ZM23.2652 15.8598L24.1999 15.9721L23.6112 14.5845L22.5243 14.4033L23.2652 15.8598ZM9.11188 14.3943L10.2205 15.2221L11.2458 14.9268L10.302 14.1823L9.11188 14.3943ZM29.8464 14.2022L29.9659 14.3073L30.1471 14.0646L30.0475 13.9396L29.8464 14.2022ZM25.2868 14.8834L26.3121 15.0518L25.8973 14.0718L24.718 13.8436L25.2868 14.8834ZM26.0549 13.6334L26.5331 14.2348L27.399 14.1352L27.0367 13.5428L26.0549 13.6334ZM16.7202 14.291L18.3252 15.896L18.8433 15.2022L17.3434 13.532L16.7202 14.291ZM27.8302 13.7657L28.1254 14.0537L28.6689 13.7765L28.4425 13.4686L27.8302 13.7657ZM12.0284 14.3725L13.6751 14.6859L13.2023 13.5718L11.4668 13.1026L12.0284 14.3725ZM23.7597 14.4414L24.881 14.7638L24.3883 13.4541L23.0931 13.0302L23.7597 14.4414ZM6.58664 13.3019L7.68622 13.8164L8.34199 13.4541L7.37645 12.9758L6.58664 13.3019ZM17.5444 13.3961L18.9936 15.0663L19.7182 14.6134L18.4067 12.9287L17.5444 13.3961ZM14.1696 13.9595L16.0554 15.2275L16.2528 14.1877L14.4123 12.773L14.1696 13.9595ZM22.3649 14.2294L23.4644 14.4196L22.7869 12.9614L21.5062 12.6806L22.3649 14.2294ZM18.6603 12.8418L19.9284 14.5174L20.8341 14.3001L19.7327 12.6606L18.6603 12.8418ZM21.0678 14.253H22.0913L21.2037 12.6878L19.999 12.6226L21.0678 14.253ZM24.7959 13.4631L25.8466 13.5139L25.3774 12.6769L24.1691 12.5827L24.7959 13.4631ZM27.8755 12.8889L28.0965 13.07L28.4588 12.7639L28.2776 12.5538L27.8755 12.8889ZM25.8266 12.5592L26.2705 13.0121L27.0404 12.8019L26.7016 12.3436L25.8266 12.5592ZM4.11937 12.2675L4.9907 12.5067L5.29503 12.2114L4.51065 11.9831L4.11937 12.2675ZM27.9606 12.0864L28.0947 12.1878L28.2758 11.9071L28.1599 11.7821L27.9606 12.0864ZM9.70243 12.811L11.0611 12.7766L10.3672 11.8074L8.88363 11.715L9.70243 12.811ZM23.0496 12.8545L24.2506 13.0592L23.6528 11.936L22.2634 11.6498L23.0496 12.8545ZM14.646 12.4233L16.4793 14.137L17.1097 13.3762L15.4069 11.5973L14.646 12.4233ZM23.6854 11.36L24.3122 12.0502L25.323 11.9668L24.843 11.2984L23.6854 11.36ZM25.6781 11.5411L26.0404 11.8509L26.6527 11.5574L26.3629 11.2277L25.6781 11.5411ZM1.78796 11.3364L2.22815 11.3926L2.30243 11.2386L1.89484 11.1951L1.78796 11.3364ZM12.0302 12.4233L13.8834 13.2041L13.849 12.1172L11.994 11.2114L12.0302 12.4233ZM15.6532 11.4578L17.3089 13.2313L18.1966 12.7657L16.7202 11.0013L15.6532 11.4578ZM21.3377 12.5049L22.6311 12.7983L21.8848 11.3093L20.3813 10.9035L21.3377 12.5049ZM17.0028 10.9017L18.4411 12.6697L19.528 12.4885L18.2926 10.7694L17.0028 10.9017ZM19.7998 12.4523L21.0171 12.5266L20.0316 10.9071L18.6005 10.7477L19.7998 12.4523ZM22.3051 11.2875L23.517 11.3437L22.8648 10.4071L21.4645 10.2966L22.3051 11.2875ZM25.5966 10.6517L25.8629 10.8328L26.2687 10.4959L26.0531 10.2803L25.5966 10.6517ZM6.27506 10.3618L7.2261 11.1897L8.18801 10.9633L7.36196 10.2169L6.27506 10.3618ZM23.276 10.2387L23.8449 10.735L24.7379 10.5303L24.2959 10.034L23.276 10.2387ZM12.5882 10.8473L14.4939 12.0357L14.9449 11.1299L13.1334 9.84013L12.5882 10.8473ZM9.78757 10.7785L11.4179 11.0919L11.1317 10.034L9.45244 9.58108L9.78757 10.7785ZM25.593 9.87273L25.7488 9.9778L25.9045 9.64267L25.7687 9.51043L25.593 9.87273ZM20.3396 10.7694L21.6729 10.8854L20.8215 9.6626L19.2563 9.46152L20.3396 10.7694ZM13.6896 9.70789L15.4884 11.2096L16.376 10.6245L14.7457 9.0956L13.6896 9.70789ZM18.4756 10.5647L19.8143 10.5883L18.7274 9.12277L17.1568 9.02133L18.4756 10.5647ZM25.5821 9.19161L25.6618 9.25138L25.6473 9.04669L25.5676 8.97423L25.5821 9.19161ZM20.7635 9.02676L21.5732 9.76585L22.7163 9.66985L22.0805 8.95792L20.7635 9.02676ZM22.9771 9.20791L23.4228 9.52674L24.1311 9.22602L23.7688 8.88908L22.9771 9.20791ZM15.2511 9.08473L16.8307 10.7151L18.0245 10.4796L16.6677 8.89271L15.2511 9.08473ZM3.74438 9.05393L4.65014 9.58289L5.19359 9.31479L4.38928 8.82749L3.74438 9.05393ZM10.4868 9.16262L12.2585 9.84918L12.474 8.87278L10.7531 8.06847L10.4868 9.16262ZM18.2165 8.05398L19.2925 9.03944L20.586 8.98147L19.7201 8.0413L18.2165 8.05398ZM7.46703 9.02676H8.72059L8.20612 8.09927L6.87467 7.98695L7.46703 9.02676ZM22.7906 8.32027L23.0949 8.50142L23.5224 8.11557L23.2706 7.90181L22.7906 8.32027ZM1.3695 7.88913L1.99085 8.1355L2.20279 7.9308L1.63579 7.69893L1.3695 7.88913ZM20.1548 7.84747L20.8577 8.34745L21.8558 8.12282L21.2979 7.62647L20.1548 7.84747ZM15.771 7.49604L17.1205 8.65178L18.4085 8.48149L17.2818 7.3638L15.771 7.49604ZM11.7694 8.03949L13.5247 9.04125L14.2348 8.30397L12.6226 7.2388L11.7694 8.03949ZM22.6692 7.53045L22.863 7.65545L22.9753 7.31851L22.7942 7.16997L22.6692 7.53045ZM13.5718 7.47611L15.1696 8.64634L16.2565 8.21883L14.8562 7.04497L13.5718 7.47611ZM22.517 6.91273L22.6293 6.98519L22.5913 6.80404L22.4808 6.72252L22.517 6.91273ZM17.2637 6.72252L18.2419 7.40184L19.4175 7.19533L18.6223 6.53232L17.2637 6.72252ZM19.6911 6.82397L20.2092 7.11562L20.9591 6.75332L20.5443 6.44355L19.6911 6.82397ZM4.36392 6.47254L5.07584 7.26779L5.89102 7.11562L5.25699 6.39102L4.36392 6.47254ZM8.34923 7.39278L9.81293 7.68443L9.77308 6.73158L8.32387 6.32761L8.34923 7.39278ZM14.4757 6.02147L15.7184 6.80766L16.8742 6.48159L15.8253 5.70083L14.4757 6.02147ZM19.4012 5.91821L19.7418 6.11205L20.086 5.72076L19.7998 5.50519L19.4012 5.91821ZM9.87996 6.33305L11.4143 6.90186L11.8889 6.09031L10.4506 5.43998L9.87996 6.33305ZM11.9632 5.87293L13.4124 6.6247L14.3181 6.06495L13.0356 5.27875L11.9632 5.87293ZM16.4738 5.54323L17.2455 5.94358L18.2238 5.60301L17.5915 5.1918L16.4738 5.54323ZM2.047 5.13202L2.68103 5.6483L3.085 5.45628L2.51075 4.97985L2.047 5.13202ZM19.1168 5.16644L19.3469 5.29506L19.4338 5.0342L19.2183 4.8929L19.1168 5.16644ZM6.25513 5.62113L7.30943 5.66279L7.04314 4.82406L5.95623 4.69545L6.25513 5.62113ZM13.3417 4.66103L14.3634 5.12115L15.3344 4.69183L14.4649 4.21359L13.3417 4.66103ZM15.9539 4.51067L16.4684 4.75704L17.0119 4.31684L16.5717 4.04512L15.9539 4.51067ZM0 4.06867L0.387662 4.28242L0.545264 4.15018L0.182963 3.94911L0 4.06867ZM8.09925 4.64654L9.29484 4.90196L9.51947 4.11395L8.37278 3.78426L8.09925 4.64654ZM10.5013 4.32771L11.6824 4.74074L12.3744 4.12845L11.311 3.66832L10.5013 4.32771ZM15.4521 3.60311L15.8145 3.77339L16.0445 3.46544L15.7148 3.28428L15.4521 3.60311ZM3.79329 3.29334L4.17733 3.95635L4.85846 3.86759L4.50884 3.25892L3.79329 3.29334ZM12.5121 3.4908L13.186 3.73716L13.7457 3.19371L13.1552 2.91111L12.5121 3.4908ZM15.0482 2.9872L15.2837 3.09045L15.309 2.94553L15.0844 2.83865L15.0482 2.9872ZM6.40368 3.07777L7.23516 3.1448L7.25508 2.47998L6.4381 2.35317L6.40368 3.07777ZM9.20245 2.91836L10.0611 3.13031L10.4669 2.55425L9.67526 2.29883L9.20245 2.91836ZM1.93107 2.1539L2.26982 2.56149L2.60857 2.44556L2.29518 2.06695L1.93107 2.1539ZM11.7277 2.40027L12.2096 2.56874L12.4577 2.18108L12.0157 1.99993L11.7277 2.40027ZM11.0919 1.64125L11.4016 1.74088L11.4523 1.54524L11.1571 1.43655L11.0919 1.64125ZM0.394908 1.38039L0.626782 1.53256L0.766268 1.47097L0.548888 1.32967L0.394908 1.38039ZM4.92367 1.74269H5.42727L5.29141 1.27351L4.78238 1.24091L4.92367 1.74269ZM8.1554 1.74269L8.69885 1.85138L8.78581 1.38039L8.26953 1.23909L8.1554 1.74269ZM7.21523 0.849621L7.54311 0.903965L7.49964 0.652166L7.17538 0.583329L7.21523 0.849621ZM3.46179 0.5L3.64294 0.757234L3.90742 0.740929L3.72627 0.5H3.46179Z" fill="white"/>
</mask>
<g mask="url(#mask1_4093_380174)">
<path d="M22.1805 -18.136L-17.8809 15.4795L15.617 55.4007L55.6783 21.7852L22.1805 -18.136Z" fill="#D3B371"/>
</g>
<path fill-rule="evenodd" clip-rule="evenodd" d="M36.9696 34.3548C36.9697 34.2897 36.9574 34.2251 36.9334 34.1646C36.9107 34.1067 36.8768 34.0538 36.8338 34.0088C36.7894 33.9646 36.7364 33.9301 36.678 33.9074C36.5513 33.8566 36.4098 33.8566 36.2831 33.9074C36.2253 33.9301 36.1728 33.9647 36.1291 34.0088C36.0855 34.0537 36.0511 34.1066 36.0277 34.1646C35.9794 34.2881 35.9794 34.4252 36.0277 34.5486C36.0515 34.6059 36.0859 34.6581 36.1291 34.7026C36.1732 34.7467 36.2255 34.7818 36.2831 34.8059C36.4098 34.8567 36.5513 34.8567 36.678 34.8059C36.736 34.7829 36.7886 34.7482 36.8326 34.7039C36.8765 34.6597 36.9109 34.6068 36.9334 34.5486C36.9577 34.4869 36.97 34.4211 36.9696 34.3548ZM36.7686 34.4907C36.7547 34.5295 36.7325 34.5647 36.7034 34.5939C36.6758 34.6228 36.6425 34.6457 36.6055 34.661C36.5258 34.6923 36.4371 34.6923 36.3574 34.661C36.3204 34.6457 36.2871 34.6228 36.2595 34.5939C36.231 34.5643 36.2089 34.5291 36.1943 34.4907C36.1605 34.4039 36.1605 34.3075 36.1943 34.2207C36.2089 34.1823 36.231 34.1472 36.2595 34.1175C36.2871 34.0886 36.3204 34.0657 36.3574 34.0505C36.4375 34.0213 36.5254 34.0213 36.6055 34.0505C36.6425 34.0657 36.6758 34.0886 36.7034 34.1175C36.7325 34.1467 36.7547 34.1819 36.7686 34.2207C36.8024 34.3075 36.8024 34.4039 36.7686 34.4907ZM37.8555 34.4653V34.8276H38.0185V34.4182C38.02 34.3731 38.0127 34.3282 37.9968 34.286C37.9834 34.2536 37.9622 34.2249 37.9352 34.2026C37.9088 34.1816 37.8777 34.1673 37.8446 34.161C37.8076 34.1535 37.77 34.1498 37.7323 34.1501C37.6957 34.1503 37.6592 34.1545 37.6236 34.1628C37.5858 34.171 37.5489 34.1825 37.5131 34.1972C37.4896 34.1779 37.4615 34.1648 37.4316 34.1592C37.3976 34.1526 37.363 34.1495 37.3283 34.1501C37.2877 34.1507 37.2471 34.1544 37.207 34.161C37.158 34.161 37.1091 34.1755 37.0566 34.1863V34.8276H37.2196V34.3222H37.2758C37.2926 34.3203 37.3097 34.3203 37.3265 34.3222C37.3463 34.3191 37.3665 34.3191 37.3863 34.3222C37.4018 34.3267 37.4161 34.3348 37.428 34.3457C37.439 34.3597 37.447 34.3757 37.4515 34.3928C37.4547 34.4181 37.4547 34.4437 37.4515 34.4689V34.8312H37.6145V34.4689C37.6154 34.4581 37.6154 34.4472 37.6145 34.4363C37.6153 34.4249 37.6153 34.4134 37.6145 34.4019V34.3693C37.6156 34.3621 37.6156 34.3548 37.6145 34.3476C37.635 34.3384 37.6562 34.3311 37.6779 34.3258H37.7377C37.7553 34.3239 37.773 34.3256 37.7899 34.3309C37.8067 34.3362 37.8223 34.345 37.8355 34.3566C37.8603 34.3926 37.8713 34.4364 37.8663 34.4798M38.4207 34.8584C38.4699 34.8581 38.519 34.8532 38.5674 34.8439C38.6144 34.8358 38.6605 34.8231 38.7051 34.8059V34.4255C38.7062 34.3839 38.6988 34.3426 38.6833 34.3041C38.6707 34.2722 38.6494 34.2446 38.6217 34.2244C38.5945 34.2029 38.563 34.1875 38.5294 34.1791C38.4914 34.17 38.4524 34.1657 38.4134 34.1664C38.3696 34.166 38.3259 34.1702 38.283 34.1791C38.2483 34.1878 38.2144 34.1993 38.1815 34.2135L38.1616 34.3802L38.216 34.3584L38.2757 34.3403L38.3355 34.3276H38.3917C38.4289 34.3264 38.466 34.3332 38.5004 34.3476C38.5141 34.3547 38.5254 34.3657 38.5328 34.3793C38.5402 34.3928 38.5434 34.4083 38.542 34.4236V34.4327C38.5191 34.431 38.4961 34.431 38.4732 34.4327H38.4152C38.3737 34.4317 38.3322 34.4366 38.292 34.4472C38.2575 34.4543 38.2248 34.4685 38.196 34.4889C38.1695 34.5062 38.1478 34.5299 38.1326 34.5577C38.1176 34.5881 38.1101 34.6216 38.1109 34.6555C38.1092 34.6911 38.118 34.7264 38.1363 34.757C38.1534 34.784 38.1762 34.8069 38.2033 34.824C38.2343 34.8414 38.2679 34.8537 38.3029 34.8602C38.3415 34.8692 38.381 34.8735 38.4207 34.8729M38.542 34.574V34.7062C38.5236 34.714 38.504 34.7189 38.4841 34.7207C38.4636 34.7225 38.443 34.7225 38.4225 34.7207C38.3878 34.7211 38.3534 34.715 38.321 34.7026C38.3083 34.6977 38.2975 34.689 38.29 34.6776C38.2826 34.6662 38.2788 34.6528 38.2794 34.6392C38.2746 34.63 38.2719 34.6199 38.2716 34.6095C38.2713 34.5992 38.2733 34.5889 38.2776 34.5794C38.2867 34.5685 38.2977 34.5593 38.3102 34.5523C38.3258 34.5459 38.3423 34.5417 38.3591 34.5396C38.3784 34.5377 38.3978 34.5377 38.417 34.5396H38.475L38.5275 34.5486M38.8083 34.1863V34.8312H38.9714V34.3258L39.0366 34.315H39.0945C39.1341 34.3122 39.1733 34.3238 39.205 34.3476C39.219 34.3643 39.2294 34.3837 39.2356 34.4045C39.2418 34.4254 39.2437 34.4473 39.2413 34.4689V34.8312H39.4043V34.4218C39.4054 34.3766 39.3974 34.3317 39.3808 34.2896C39.3668 34.2565 39.3443 34.2278 39.3156 34.2063C39.287 34.1856 39.2542 34.1713 39.2195 34.1646C39.1807 34.1571 39.1413 34.1535 39.1018 34.1537H39.0402H38.9659C38.9406 34.1537 38.9134 34.1537 38.888 34.1646L38.8083 34.1773M39.4496 33.8784L39.7702 34.8222H39.9912L40.3119 33.8784H40.1307L39.8844 34.6501L39.6398 33.8784H39.4496ZM40.4061 34.1284C40.4306 34.1296 40.4547 34.1211 40.4731 34.1048C40.4822 34.097 40.4894 34.0873 40.4941 34.0763C40.4988 34.0653 40.5009 34.0534 40.5003 34.0414C40.5006 34.0298 40.4984 34.0182 40.4937 34.0075C40.489 33.9969 40.4819 33.9874 40.4731 33.9798C40.4545 33.9639 40.4306 33.9554 40.4061 33.9563C40.381 33.9552 40.3564 33.9636 40.3372 33.9798C40.3284 33.9874 40.3214 33.9969 40.3167 34.0075C40.312 34.0182 40.3097 34.0298 40.3101 34.0414C40.309 34.0538 40.3111 34.0663 40.3162 34.0777C40.3213 34.0891 40.3291 34.0991 40.3391 34.1066C40.3583 34.1212 40.3819 34.1289 40.4061 34.1284ZM40.3246 34.8222H40.4858V34.1664H40.3246V34.8222ZM40.868 34.6773C40.8244 34.677 40.7811 34.6702 40.7394 34.6573C40.7015 34.6475 40.6654 34.6316 40.6325 34.6102L40.5709 34.7678C40.5906 34.7793 40.6112 34.789 40.6325 34.7968C40.6561 34.8059 40.6814 34.8113 40.705 34.8186L40.7847 34.8312C40.8112 34.833 40.8378 34.833 40.8644 34.8312C40.9084 34.8319 40.9523 34.8264 40.9948 34.8149C41.0285 34.807 41.0605 34.7928 41.089 34.7733C41.1114 34.7562 41.1299 34.7346 41.1434 34.7099C41.1602 34.6735 41.1656 34.6329 41.1588 34.5934C41.152 34.554 41.1333 34.5175 41.1053 34.4889C41.0491 34.4471 40.9829 34.4208 40.9133 34.4128H40.8626C40.8328 34.409 40.8039 34.3998 40.7774 34.3856C40.7709 34.382 40.7655 34.3768 40.7616 34.3704C40.7578 34.3641 40.7558 34.3568 40.7557 34.3494C40.7557 34.3204 40.7883 34.3077 40.8571 34.3077H40.9151L40.9767 34.3186L41.0347 34.3367L41.0854 34.3566L41.1434 34.2063C41.1038 34.1844 41.061 34.1691 41.0166 34.161C40.9671 34.1506 40.9167 34.1457 40.8662 34.1465C40.7956 34.1423 40.7256 34.1614 40.6669 34.2008C40.6442 34.2179 40.6258 34.24 40.6132 34.2655C40.6006 34.291 40.5942 34.3191 40.5945 34.3476C40.5932 34.3732 40.5981 34.3988 40.6088 34.4221C40.6196 34.4455 40.6358 34.4659 40.6561 34.4816C40.7096 34.5197 40.7719 34.5434 40.8372 34.5504L40.8898 34.5613C40.9193 34.5662 40.948 34.5753 40.9749 34.5885C40.9823 34.5921 40.9885 34.5977 40.9927 34.6048C40.9969 34.6119 40.9989 34.6201 40.9984 34.6283C40.9984 34.6465 40.9858 34.6591 40.9622 34.6664C40.9342 34.6758 40.9048 34.6801 40.8753 34.6791M41.3444 34.1356C41.3696 34.1371 41.3943 34.1286 41.4133 34.1121C41.4218 34.104 41.4285 34.0941 41.4329 34.0831C41.4373 34.0722 41.4392 34.0604 41.4386 34.0487C41.4389 34.0372 41.4367 34.0258 41.4324 34.0152C41.428 34.0046 41.4215 33.995 41.4133 33.9871C41.3941 33.9708 41.3695 33.9624 41.3444 33.9635C41.3199 33.9623 41.2958 33.9708 41.2774 33.9871C41.2687 33.9952 41.2618 34.005 41.2571 34.0159C41.2524 34.0268 41.25 34.0386 41.25 34.0505C41.25 34.0624 41.2524 34.0741 41.2571 34.085C41.2618 34.0959 41.2687 34.1057 41.2774 34.1139C41.2968 34.1282 41.3203 34.1359 41.3444 34.1356ZM41.2629 34.8294H41.426V34.1737H41.2629V34.8294ZM41.9875 34.8167C42.0285 34.7996 42.0659 34.775 42.098 34.7443C42.131 34.7133 42.1569 34.6756 42.1741 34.6338C42.2015 34.5698 42.209 34.4991 42.1954 34.4309C42.1818 34.3626 42.1479 34.3001 42.098 34.2515C42.0661 34.2202 42.0286 34.195 41.9875 34.1773C41.9423 34.1604 41.8945 34.1518 41.8462 34.1519C41.7986 34.1518 41.7513 34.1604 41.7067 34.1773C41.665 34.1948 41.6269 34.22 41.5944 34.2515C41.5624 34.2829 41.5371 34.3205 41.5202 34.362C41.5011 34.4048 41.4912 34.4511 41.4912 34.4979C41.4912 34.5447 41.5011 34.591 41.5202 34.6338C41.5367 34.6755 41.562 34.7132 41.5944 34.7443C41.627 34.7752 41.6651 34.7998 41.7067 34.8167C41.751 34.8349 41.7984 34.8441 41.8462 34.8439C41.8947 34.8444 41.9427 34.8352 41.9875 34.8167ZM41.7701 34.67C41.7488 34.6599 41.7292 34.6465 41.7122 34.6302C41.6798 34.5938 41.6624 34.5466 41.6633 34.4979C41.6627 34.4732 41.667 34.4485 41.6759 34.4255C41.6843 34.4035 41.6966 34.3833 41.7122 34.3657C41.7287 34.3487 41.7484 34.3352 41.7701 34.3258C41.794 34.3151 41.8201 34.3102 41.8462 34.3113C41.8729 34.3103 41.8995 34.3153 41.9241 34.3258C41.9455 34.3348 41.9647 34.3484 41.9803 34.3657C41.9971 34.3827 42.01 34.4031 42.0183 34.4255C42.0263 34.4488 42.0306 34.4732 42.031 34.4979C42.0305 34.5226 42.0262 34.547 42.0183 34.5704C42.01 34.5928 41.9971 34.6131 41.9803 34.6302C41.9643 34.6469 41.9452 34.6604 41.9241 34.67C41.8993 34.6796 41.8729 34.6846 41.8462 34.6845C41.8202 34.6848 41.7943 34.6799 41.7701 34.67ZM42.2756 34.1845V34.8294H42.4386V34.324L42.5038 34.3131H42.5618C42.6008 34.31 42.6396 34.3216 42.6705 34.3457C42.6851 34.3621 42.696 34.3814 42.7026 34.4023C42.7092 34.4233 42.7112 34.4453 42.7085 34.4671V34.8294H42.8715V34.42C42.8726 34.3748 42.8646 34.3298 42.848 34.2878C42.834 34.2547 42.8115 34.226 42.7828 34.2044C42.7542 34.1837 42.7214 34.1695 42.6868 34.1628C42.648 34.1553 42.6085 34.1517 42.569 34.1519H42.5074H42.4332L42.3534 34.1628L42.2756 34.1755M40.2612 27.8787C40.2155 27.9078 40.1631 27.9247 40.109 27.9276V28.0544C40.1818 28.0537 40.2535 28.037 40.3191 28.0055C40.4556 27.9426 40.5667 27.8353 40.6343 27.7011C40.6673 27.6405 40.6848 27.5727 40.6851 27.5037C40.6894 27.4632 40.6845 27.4223 40.6707 27.384C40.6569 27.3457 40.6345 27.3111 40.6053 27.2827C40.551 27.2359 40.4814 27.2107 40.4097 27.212C40.3439 27.2101 40.2795 27.232 40.2285 27.2736C40.2022 27.2981 40.1818 27.3283 40.1689 27.3619C40.156 27.3955 40.151 27.4316 40.1543 27.4675C40.1533 27.5056 40.1613 27.5435 40.1778 27.578C40.1948 27.6107 40.2175 27.6401 40.2448 27.6649C40.2713 27.6879 40.2998 27.7086 40.33 27.7265C40.3556 27.7422 40.3838 27.7532 40.4133 27.7591C40.3689 27.8049 40.319 27.845 40.2648 27.8787M40.2938 27.491C40.2926 27.4555 40.3042 27.4209 40.3264 27.3932C40.336 27.3809 40.3484 27.371 40.3626 27.3644C40.3768 27.3578 40.3923 27.3546 40.4079 27.3551C40.4247 27.354 40.4416 27.3572 40.4569 27.3645C40.4721 27.3718 40.4852 27.3829 40.4948 27.3968C40.5174 27.4291 40.5289 27.4679 40.5274 27.5073C40.5273 27.5314 40.5231 27.5553 40.5148 27.578C40.5056 27.6058 40.4947 27.633 40.4822 27.6595C40.4347 27.6518 40.3899 27.6325 40.3517 27.6033C40.3342 27.5911 40.3198 27.5748 40.3097 27.5559C40.2996 27.537 40.2942 27.516 40.2938 27.4946M46.3822 30.3496H46.4185H47.9184V28.0707H47.6286V30.0815H46.3496C46.2858 30.0825 46.2231 30.0656 46.1685 30.0325C46.1088 29.9966 46.0581 29.9477 46.0199 29.8894C45.975 29.8216 45.9413 29.747 45.9203 29.6684C45.8951 29.5776 45.8823 29.4837 45.8823 29.3895V28.0689H44.9276C44.7683 28.065 44.6102 28.0978 44.4657 28.1649C44.3464 28.2231 44.244 28.3111 44.1686 28.4203C44.0943 28.5304 44.0409 28.6532 44.011 28.7826C43.9779 28.9092 43.9615 29.0395 43.9621 29.1703C43.9588 29.3211 43.9847 29.4712 44.0381 29.6123C44.0876 29.7307 44.1596 29.8383 44.2501 29.9293C44.3357 30.0146 44.439 30.0801 44.5526 30.1213C44.6641 30.1648 44.7826 30.1875 44.9022 30.1883C44.9852 30.1881 45.0677 30.1752 45.1468 30.1503C45.2225 30.1261 45.2953 30.0939 45.3642 30.0543C45.4316 30.0201 45.4929 29.9748 45.5453 29.9202C45.5887 29.8705 45.6287 29.8178 45.6649 29.7626C45.6985 29.9346 45.7899 30.0899 45.9239 30.2028C46.0551 30.3099 46.2202 30.3665 46.3895 30.3622M44.9077 29.9148C44.8308 29.9139 44.7547 29.8992 44.683 29.8713C44.6061 29.8423 44.5358 29.798 44.4765 29.7409C44.4092 29.6784 44.3566 29.6016 44.3226 29.5163C44.2818 29.4106 44.2621 29.298 44.2646 29.1848C44.2617 29.0675 44.2782 28.9506 44.3135 28.8388C44.3415 28.7447 44.387 28.6569 44.4475 28.5797C44.5025 28.5098 44.5733 28.4539 44.6541 28.4167C44.7365 28.3771 44.8271 28.3572 44.9185 28.3587H45.5852V29.2029C45.5892 29.304 45.5715 29.4048 45.5334 29.4985C45.4953 29.5922 45.4376 29.6767 45.3642 29.7463C45.3023 29.8041 45.2288 29.8479 45.1486 29.8749C45.0702 29.9034 44.9875 29.9181 44.904 29.9184M48.5379 27.6957H48.3912V27.7899H48.9654V27.6957H48.7263C48.7043 27.6952 48.6826 27.69 48.6627 27.6807C48.6427 27.6713 48.6249 27.6579 48.6104 27.6414C48.5925 27.6222 48.5786 27.5997 48.5696 27.5751C48.5606 27.5506 48.5566 27.5244 48.5579 27.4983C48.5555 27.4743 48.558 27.45 48.5652 27.427C48.5723 27.404 48.584 27.3826 48.5995 27.3642C48.6291 27.3362 48.6683 27.3206 48.7091 27.3206C48.7499 27.3206 48.7891 27.3362 48.8187 27.3642C48.8327 27.3792 48.8436 27.3969 48.8508 27.4162C48.8579 27.4355 48.8612 27.456 48.8604 27.4765H48.9654C48.9667 27.4411 48.9604 27.4058 48.947 27.373C48.9335 27.3402 48.9133 27.3107 48.8876 27.2863C48.8406 27.2449 48.7799 27.2223 48.7173 27.2229C48.6831 27.2208 48.6489 27.2268 48.6174 27.2403C48.586 27.2539 48.5581 27.2746 48.5361 27.3008C48.4931 27.3513 48.47 27.4157 48.4709 27.4819C48.4704 27.5232 48.479 27.564 48.4963 27.6015C48.5111 27.6314 48.5287 27.6599 48.5488 27.6866L48.5379 27.6957ZM49.1122 31.4999L49.1031 31.489C49.3046 31.4944 49.5051 31.4606 49.6937 31.3894C49.8599 31.32 49.9991 31.1986 50.0904 31.0434C50.2048 30.8467 50.2816 30.6305 50.3168 30.4057C50.3685 30.0817 50.3921 29.7538 50.3875 29.4257C50.3898 29.2232 50.3758 29.0209 50.3458 28.8206C50.3233 28.6612 50.2691 28.5078 50.1864 28.3696C50.1148 28.2479 50.0081 28.1506 49.8803 28.0906C49.7266 28.0221 49.5593 27.9893 49.3911 27.9946C49.2223 27.9878 49.0543 28.0226 48.902 28.096C48.7771 28.1585 48.6708 28.2528 48.5941 28.3696C48.5158 28.4888 48.4622 28.6224 48.4365 28.7627C48.4072 28.9149 48.3926 29.0696 48.393 29.2246C48.3915 29.3742 48.4122 29.5232 48.4546 29.6666C48.4917 29.7977 48.5532 29.9206 48.6357 30.0289C48.7201 30.1312 48.8267 30.213 48.9473 30.268C49.0865 30.329 49.2374 30.3587 49.3893 30.355H50.0161C49.9952 30.498 49.9569 30.638 49.902 30.7716C49.8585 30.8744 49.7907 30.9652 49.7045 31.0361C49.6212 31.1053 49.5224 31.1531 49.4165 31.1756C49.289 31.2019 49.159 31.2147 49.0288 31.2137C48.968 31.2143 48.9072 31.2082 48.8477 31.1955C48.7928 31.1832 48.7398 31.1638 48.6901 31.1376V31.431C48.7245 31.4455 48.7626 31.4582 48.806 31.4727C48.8478 31.4859 48.891 31.4938 48.9346 31.4962C48.9948 31.5032 49.0553 31.5068 49.1158 31.5071M48.7082 29.25L48.7173 29.2409C48.7171 29.1132 48.7298 28.9857 48.7553 28.8605C48.7763 28.7555 48.8155 28.6549 48.8712 28.5634C48.9247 28.4833 48.9968 28.4174 49.0814 28.3714C49.1796 28.3202 49.2895 28.2952 49.4002 28.2989C49.5057 28.289 49.6118 28.3101 49.7055 28.3596C49.7991 28.4092 49.8763 28.4851 49.9274 28.5779C50.0445 28.8451 50.0973 29.1362 50.0813 29.4275C50.0813 29.5579 50.0813 29.6775 50.0705 29.7898C50.0596 29.9021 50.0614 30.0054 50.056 30.1014H49.3948C49.2957 30.111 49.1958 30.0964 49.1037 30.0588C49.0116 30.0213 48.9299 29.9619 48.8658 29.8858C48.7485 29.6961 48.6934 29.4744 48.7082 29.2518M50.882 31.2209V31.2064C50.8306 31.2073 50.7793 31.2006 50.7299 31.1865C50.6801 31.1717 50.6316 31.1529 50.5849 31.1303V31.4129C50.6077 31.4325 50.6342 31.4473 50.6628 31.4564C50.694 31.4727 50.7277 31.4837 50.7625 31.489C50.818 31.4994 50.8744 31.5042 50.9309 31.5035C51.0416 31.5079 51.1513 31.4816 51.2479 31.4274C51.3357 31.3706 51.4065 31.2911 51.4526 31.1973C51.5108 31.0837 51.5499 30.9613 51.5686 30.835C51.5921 30.6828 51.603 30.5289 51.6012 30.3749V28.0671H51.3204V30.3749C51.3218 30.5076 51.3134 30.6402 51.295 30.7716C51.2852 30.8617 51.2614 30.9498 51.2244 31.0325C51.1967 31.0937 51.1496 31.144 51.0903 31.1756C51.024 31.2062 50.9514 31.221 50.8784 31.2191M30.0461 28.4602L29.6584 28.0725L29.2617 28.471L29.6475 28.8569L30.0461 28.4602ZM30.9627 28.8913V29.4184C30.9689 29.6633 30.9378 29.9076 30.8703 30.1431C30.8193 30.3254 30.7298 30.4947 30.6076 30.6394C30.4934 30.7669 30.3506 30.8656 30.191 30.9274C30.0168 30.9901 29.8327 31.0208 29.6475 31.018C29.4624 31.0212 29.2782 30.9905 29.1041 30.9274C28.9438 30.8658 28.8004 30.7671 28.6856 30.6394C28.5635 30.4947 28.4739 30.3254 28.423 30.1431C28.3555 29.9076 28.3243 29.6633 28.3306 29.4184V28.8913H27.7871V29.4909C27.7864 29.7353 27.8168 29.9788 27.8777 30.2155C27.9366 30.4499 28.0413 30.6703 28.1857 30.864C28.3348 31.0613 28.5293 31.2198 28.7527 31.326C29.0318 31.4494 29.3352 31.5082 29.6403 31.4981C29.9454 31.5082 30.2488 31.4494 30.5279 31.326C30.7509 31.2192 30.9453 31.0609 31.0949 30.864C31.2388 30.6702 31.3428 30.4498 31.4011 30.2155C31.4634 29.9791 31.4945 29.7354 31.4935 29.4909V28.8913H30.9627ZM37.1671 30.4945C37.3823 30.498 37.5955 30.4521 37.7903 30.3604C37.9695 30.2723 38.1156 30.1287 38.2069 29.951C38.2507 30.0747 38.3333 30.1808 38.4424 30.2536C38.5471 30.321 38.6693 30.3562 38.7938 30.355H42.8733V29.8605H41.8716C41.7863 29.8659 41.7009 29.8504 41.623 29.8153C41.545 29.7803 41.4767 29.7268 41.4241 29.6594C41.316 29.4994 41.2626 29.3088 41.272 29.1159C41.2602 28.9463 41.3147 28.7787 41.4241 28.6486C41.4771 28.596 41.5402 28.5548 41.6097 28.5277C41.6792 28.5006 41.7536 28.4881 41.8281 28.491C41.8905 28.4912 41.9521 28.5041 42.0093 28.529C42.0652 28.5523 42.1158 28.5868 42.1578 28.6304C42.203 28.6745 42.2403 28.726 42.2683 28.7826C42.2863 28.8176 42.3015 28.8539 42.3136 28.8913H42.8317C42.8133 28.7852 42.7836 28.6813 42.7429 28.5815C42.6992 28.4675 42.634 28.363 42.5509 28.2736C42.4662 28.185 42.3629 28.1163 42.2484 28.0725C42.1105 28.0215 41.9642 27.9969 41.8172 28C41.6604 27.998 41.5045 28.0244 41.3571 28.0779C41.2226 28.1263 41.0994 28.2015 40.9948 28.2989C40.8927 28.3966 40.814 28.5161 40.7648 28.6486C40.7094 28.7981 40.6817 28.9565 40.6832 29.1159C40.6832 29.1888 40.6929 29.2613 40.7122 29.3315C40.75 29.4671 40.8048 29.5973 40.8753 29.7192C40.9046 29.7655 40.9379 29.8091 40.9749 29.8496L40.9948 29.8586H38.8047C38.7461 29.8586 38.688 29.8488 38.6326 29.8297C38.5793 29.81 38.5301 29.7805 38.4877 29.7427C38.4406 29.7 38.4057 29.6456 38.3862 29.5851C38.3592 29.5015 38.3464 29.4139 38.3482 29.3261C38.3518 29.1489 38.3223 28.9726 38.2613 28.8062C38.2094 28.6641 38.1258 28.5359 38.0167 28.4312C37.9102 28.3312 37.7827 28.2563 37.6435 28.212C37.3339 28.1153 37.0021 28.1153 36.6925 28.212C36.5533 28.2563 36.4258 28.3312 36.3193 28.4312C36.2115 28.5369 36.128 28.6648 36.0748 28.8062C36.0138 28.9726 35.9843 29.1489 35.9878 29.3261C35.9896 29.4139 35.9768 29.5015 35.9498 29.5851C35.9304 29.6456 35.8954 29.7 35.8483 29.7427C35.8065 29.7805 35.758 29.81 35.7052 29.8297C35.647 29.8498 35.5857 29.8596 35.5241 29.8586H32.6257V27.2374H32.0822V30.3496H35.5386C35.6625 30.3508 35.7841 30.3155 35.8882 30.2481C35.9978 30.1759 36.0805 30.0696 36.1237 29.9456C36.2155 30.1229 36.3614 30.2663 36.5403 30.355C36.7357 30.4469 36.9495 30.4928 37.1653 30.4891M37.1798 30.0235C37.0909 30.0283 37.0022 30.0125 36.9205 29.9773C36.8387 29.9421 36.7663 29.8885 36.7088 29.8206C36.6068 29.6705 36.5522 29.4931 36.5522 29.3116C36.5522 29.13 36.6068 28.9527 36.7088 28.8025C36.8335 28.6779 37.0026 28.6078 37.1789 28.6078C37.3552 28.6078 37.5243 28.6779 37.649 28.8025C37.7602 28.9503 37.8165 29.1322 37.8084 29.317C37.8163 29.5001 37.7599 29.6802 37.649 29.826C37.5908 29.892 37.5183 29.9437 37.4369 29.977C37.3555 30.0103 37.2675 30.0244 37.1798 30.0181M37.2631 32.0107C37.3142 31.9308 37.3556 31.8451 37.3863 31.7553C37.4164 31.6735 37.4323 31.5871 37.4334 31.4999C37.4342 31.4106 37.4176 31.322 37.3845 31.239C37.3529 31.1608 37.3047 31.0903 37.2432 31.0325C37.1782 30.9726 37.1018 30.9264 37.0186 30.8966C36.9235 30.8645 36.8237 30.8485 36.7233 30.8495C36.6416 30.8493 36.5605 30.864 36.4842 30.893C36.4051 30.9241 36.3321 30.9689 36.2686 31.0253C36.2001 31.0854 36.1419 31.1564 36.0965 31.2354C36.0511 31.3129 36.017 31.3965 35.9951 31.4836H36.3574C36.3857 31.401 36.4343 31.3269 36.4987 31.268C36.5615 31.209 36.6443 31.1759 36.7305 31.1756C36.7797 31.1728 36.829 31.1805 36.8749 31.1983C36.9208 31.2161 36.9624 31.2436 36.9968 31.2789C37.0275 31.3091 37.0518 31.3453 37.0683 31.3851C37.0848 31.4249 37.0931 31.4676 37.0928 31.5107C37.09 31.564 37.0771 31.6163 37.0548 31.6647C37.0327 31.7189 37.0048 31.7706 36.9715 31.8187L35.9896 33.0994V33.3856H37.4044V33.0469H36.4661L37.2631 32.0107ZM42.8208 32.9762C42.862 32.8795 42.8823 32.7752 42.8806 32.6701V31.5651C42.8829 31.4588 42.8625 31.3532 42.8208 31.2553C42.7854 31.1703 42.7316 31.0942 42.6632 31.0325C42.5978 30.9722 42.5207 30.926 42.4368 30.8966C42.3511 30.8645 42.2602 30.8485 42.1687 30.8495C42.0766 30.8485 41.9851 30.8645 41.8988 30.8966C41.8142 30.926 41.7366 30.9722 41.6705 31.0325C41.6033 31.0952 41.5496 31.171 41.5129 31.2553C41.4712 31.3532 41.4509 31.4588 41.4531 31.5651V32.6701C41.4514 32.7752 41.4717 32.8795 41.5129 32.9762C41.5495 33.0616 41.6032 33.1387 41.6705 33.2027C41.7366 33.263 41.8142 33.3092 41.8988 33.3385C41.9851 33.3707 42.0766 33.3867 42.1687 33.3856C42.2602 33.3867 42.3511 33.3707 42.4368 33.3385C42.5207 33.3092 42.5978 33.2629 42.6632 33.2027C42.7317 33.1396 42.7855 33.0623 42.8208 32.9762ZM42.4404 31.2897C42.5122 31.3709 42.5498 31.4767 42.5455 31.585V32.6484C42.5498 32.7027 42.5431 32.7575 42.5257 32.8091C42.5082 32.8608 42.4804 32.9085 42.444 32.9491C42.4088 32.9851 42.3664 33.0134 42.3196 33.0321C42.2728 33.0508 42.2227 33.0595 42.1723 33.0578C42.1219 33.0595 42.0718 33.0508 42.025 33.0321C41.9782 33.0134 41.9358 32.9851 41.9006 32.9491C41.8644 32.9096 41.8365 32.8633 41.8184 32.8129C41.8004 32.7625 41.7926 32.7091 41.7955 32.6556V31.5923C41.7911 31.484 41.8288 31.3782 41.9006 31.297C41.9345 31.2595 41.9763 31.2298 42.0229 31.2101C42.0695 31.1904 42.1199 31.1811 42.1705 31.1829C42.2212 31.1818 42.2717 31.1914 42.3185 31.211C42.3653 31.2307 42.4074 31.26 42.4422 31.297M41.0582 33.3929V32.9998H41.2629V32.6647H41.0582V31.9401H40.7195V32.6647H40.0981L40.9278 30.8532H40.5655L39.7068 32.7389V32.9962H40.7213V33.3893L41.0582 33.3929ZM39.2087 32.9835C39.2498 32.8868 39.2702 32.7825 39.2685 32.6773V31.5723C39.2707 31.466 39.2503 31.3604 39.2087 31.2626C39.1735 31.1787 39.1211 31.1032 39.055 31.0408C38.9888 30.9784 38.9104 30.9305 38.8246 30.9003C38.6491 30.8366 38.4567 30.8366 38.2812 30.9003C38.1969 30.93 38.1193 30.9762 38.0529 31.0361C37.9862 31.0989 37.9332 31.1747 37.8971 31.2589C37.8555 31.3568 37.8351 31.4624 37.8374 31.5687V32.6737C37.8356 32.7788 37.856 32.8831 37.8971 32.9799C37.9313 33.0644 37.9832 33.1405 38.0495 33.203C38.1158 33.2656 38.1948 33.313 38.2812 33.3422C38.4567 33.4058 38.6491 33.4058 38.8246 33.3422C38.9084 33.3124 38.9854 33.2662 39.0511 33.2063C39.1184 33.1423 39.172 33.0653 39.2087 32.9799M38.821 31.2934C38.8933 31.3744 38.9316 31.4801 38.9279 31.5886V32.652C38.931 32.7062 38.9232 32.7604 38.9048 32.8115C38.8865 32.8625 38.8579 32.9093 38.821 32.9491C38.786 32.9849 38.7439 33.013 38.6974 33.0317C38.651 33.0504 38.6012 33.0593 38.5511 33.0578C38.5007 33.0595 38.4506 33.0508 38.4038 33.0321C38.357 33.0134 38.3146 32.9851 38.2794 32.9491C38.207 32.8689 38.1693 32.7635 38.1743 32.6556V31.5923C38.1709 31.4841 38.2084 31.3786 38.2794 31.297C38.3136 31.2593 38.3557 31.2296 38.4026 31.2099C38.4496 31.1902 38.5002 31.1809 38.5511 31.1829C38.6016 31.182 38.6516 31.1918 38.6981 31.2114C38.7446 31.2311 38.7864 31.2602 38.821 31.297M45.866 27.4258L45.6613 27.2211L45.4566 27.4258L45.6613 27.6305L45.866 27.4258ZM45.4566 27.4258L45.2519 27.2211L45.0472 27.4258L45.2519 27.6305L45.4566 27.4258ZM47.9075 31.3042L47.7046 31.0995L47.4981 31.3042L47.7046 31.5089L47.9075 31.3042ZM47.4981 31.3042L47.2934 31.0995L47.0887 31.3042L47.2989 31.4999L47.4981 31.3042Z" fill="#D3B371"/>
</svg>
