<svg width="103" height="74" viewBox="0 0 103 74" fill="none" xmlns="http://www.w3.org/2000/svg">
<mask id="mask0_4093_374984" style="mask-type:luminance" maskUnits="userSpaceOnUse" x="34" y="52" width="37" height="22">
<path d="M61.549 73.319L61.5923 73.6398L61.7654 73.4992L61.7329 73.1964L61.549 73.319ZM59.8365 73.2288V73.5894L60.0312 73.4704V73.1423L59.8365 73.2288ZM63.1354 73.1855L63.1967 73.4776L63.3445 73.319L63.2977 73.0413L63.1354 73.1855ZM58.0086 72.8755V73.254L58.2249 73.1531V72.7926L58.0086 72.8755ZM64.5776 72.8394L64.6497 73.099L64.7795 72.926L64.7182 72.6772L64.5776 72.8394ZM56.1013 72.2626L56.0653 72.6772L56.3068 72.6015L56.3429 72.2157L56.1013 72.2626ZM65.8647 72.3203L65.9476 72.551L66.0558 72.3671L65.9801 72.1472L65.8647 72.3203ZM61.4012 71.9165L61.4445 72.277L61.6897 72.0571L61.6572 71.6965L61.4012 71.9165ZM62.8866 71.8444L62.9515 72.1797L63.1643 71.9417L63.1138 71.6244L62.8866 71.8444ZM59.7788 71.7939L59.804 72.2049L60.0817 72.0066V71.6208L59.7788 71.7939ZM54.1364 71.3973L54.0679 71.848L54.3347 71.7975L54.4032 71.3793L54.1364 71.3973ZM64.2315 71.5992L64.3072 71.8948L64.491 71.6424L64.4297 71.3612L64.2315 71.5992ZM58.0771 71.4189V71.8732L58.3871 71.7001V71.2747L58.0771 71.4189ZM65.4465 71.1593L65.5294 71.4189L65.688 71.1557L65.6123 70.907L65.4465 71.1593ZM56.2996 70.7988L56.2708 71.2891L56.6313 71.1449L56.6638 70.6834L56.2996 70.7988ZM67.9486 70.8601L68.0387 71.0295L68.1072 70.8348L68.0207 70.6762L67.9486 70.8601ZM61.3075 70.6113L61.3544 71.0007L61.6861 70.7087L61.6464 70.3481L61.3075 70.6113ZM66.5101 70.5608L66.6038 70.7844L66.73 70.5176L66.6471 70.3048L66.5101 70.5608ZM62.71 70.5897L62.7713 70.9502L63.0633 70.6329L63.0092 70.3012L62.71 70.5897ZM52.0525 70.7014L52.3481 70.6834L52.4527 70.2255L52.157 70.2075L52.0525 70.7014ZM59.7932 70.431L59.8293 70.8673L60.1898 70.5933L60.1682 70.1823L59.7932 70.431ZM63.9935 70.3842L64.0656 70.6906L64.318 70.3589L64.2567 70.0669L63.9935 70.3842ZM54.4753 69.9191L54.4176 70.4599L54.7998 70.3445L54.8611 69.8434L54.4753 69.9191ZM58.196 70.0344V70.5176L58.6034 70.2688V69.8145L58.196 70.0344ZM68.7382 69.9263L68.7742 69.9768H68.8103L68.8319 70.0561L68.8752 69.8686L68.7959 69.7352L68.7382 69.9263ZM65.1328 70.0092L65.2121 70.276L65.4248 69.9371L65.3527 69.6811L65.1328 70.0092ZM67.4114 69.8325L67.5015 70.02L67.5989 69.7496L67.516 69.573L67.4114 69.8325ZM56.5159 69.4107V69.9407L56.9666 69.7244V69.2232L56.5159 69.4107ZM66.1459 69.4864L66.1675 69.5477L66.2865 69.609L66.4055 69.3674L66.3298 69.1511L66.1459 69.4864ZM61.2967 69.3783L61.3544 69.764L61.7654 69.4035L61.7221 69.043L61.2967 69.3783ZM62.6307 69.3963L62.6956 69.7388L63.0561 69.3783L63.0056 69.0466L62.6307 69.3963ZM63.8529 69.2413L63.925 69.5369L64.2459 69.1439L64.1882 68.8591L63.8529 69.2413ZM59.8617 69.1692L59.9122 69.6018L60.3701 69.2701L60.334 68.8519L59.8617 69.1692ZM52.6293 68.7798L52.5428 69.3711L52.961 69.2881L53.0512 68.7437L52.6293 68.7798ZM50.0587 69.2701H50.3904L50.531 68.7654L50.2065 68.7077L50.0587 69.2701ZM68.183 68.9781L68.2731 69.1331L68.3452 68.8627L68.2587 68.7185L68.183 68.9781ZM69.3691 68.8807L69.452 68.9925L69.4809 68.8086L69.4052 68.7041L69.3691 68.8807ZM64.967 68.9168L65.0427 69.1728L65.3203 68.769L65.2554 68.5202L64.967 68.9168ZM67.0292 68.823L67.1158 69.0141L67.2564 68.6536L67.177 68.4733L67.0292 68.823ZM58.3763 68.7473L58.416 69.2305L58.9207 68.924L58.8955 68.4625L58.3763 68.7473ZM54.8394 68.5418L54.8142 69.1259L55.3081 68.942L55.3406 68.394L54.8394 68.5418ZM65.9512 68.4553L66.0305 68.668L66.2613 68.257L66.1928 68.0479L65.9512 68.4553ZM57.0243 68.019L56.8008 68.12L56.8332 68.6572L56.9053 68.6211V68.65L57.0387 67.9686L57.0243 68.019ZM62.6919 68.293L62.7605 68.6103L63.2039 68.1885L63.1859 68.0875L63.0669 67.9505L62.6919 68.293ZM57.2082 67.9325L57.3199 68.0695L57.255 68.4301L57.3812 68.3652L57.3632 67.8532L57.2082 67.9325ZM61.4084 68.2318L61.4805 68.5923L61.9745 68.1993L61.9204 67.8388L61.4084 68.2318ZM68.7995 68.019L68.886 68.1416L68.9329 67.882L68.8499 67.7631L68.7995 68.019ZM63.8529 68.1885L63.9214 68.4625L64.318 68.0299L64.2639 67.7594L63.8529 68.1885ZM67.7575 68.0623L67.8404 68.2173L67.945 67.8568L67.8693 67.709L67.7575 68.0623ZM60.5648 67.6657L60.5864 67.6909V67.6549L60.5648 67.6657ZM69.8342 67.7631L69.9099 67.8496V67.6801L69.8414 67.6008L69.8342 67.7631ZM66.7732 67.8748L66.849 68.0515L67.0292 67.6477L67.3213 67.8496L66.9175 67.5684L66.7732 67.8748ZM60.4242 67.7558L60.0204 68.0154L60.0925 68.4264L60.3737 68.239V68.3868L60.4674 67.5359L60.4242 67.7558ZM65.2338 67.5179L64.9201 67.9109L64.985 68.1416L65.3455 67.6909L65.2878 67.4638L65.2338 67.5179ZM50.7185 68.0335L51.1764 67.9938L51.2989 67.3953H50.8411L50.7185 68.0335ZM53.1124 67.4566L53.0692 68.0984L53.6064 67.9505L53.6569 67.3484L53.1124 67.4566ZM58.5674 67.5864L58.6467 68.0515L59.2344 67.709L59.1731 67.2583L58.5674 67.5864ZM62.8073 67.316L62.883 67.6008L62.9119 67.5756V67.215L62.8073 67.316ZM55.1747 67.2871L55.2072 67.882L55.7985 67.6369V67.0708L55.1747 67.2871ZM65.8467 67.5035L65.9116 67.6946L66.2108 67.2367L66.1531 67.0456L65.8467 67.5035ZM48.137 67.5936L48.4976 67.6513L48.6814 67.0961L48.3209 66.9915L48.137 67.5936ZM60.2259 66.9771L60.3232 67.3556L60.5179 67.2403L60.3052 66.9302L60.2259 66.9771ZM63.0164 67.1537L63.2075 67.3376L63.4058 67.179L63.3445 66.8942L63.0164 67.1537ZM68.338 67.1862L68.4173 67.3088L68.4894 66.9699L68.4137 66.8509L68.338 67.1862ZM61.5635 67.2331L61.6464 67.5648L62.2196 67.1682L62.1511 66.8365L61.5635 67.2331ZM63.9502 67.2331L64.0187 67.4746L64.491 67.0312L64.437 66.7896L63.9502 67.2331ZM69.2357 66.9951L69.315 67.0889L69.3367 66.8437L69.261 66.7499L69.2357 66.9951ZM67.4727 67.1646L67.5448 67.3052L67.6926 66.887L67.6241 66.7499L67.4727 67.1646ZM57.4641 66.7463L57.3163 67.3052L56.9774 66.6742L57.1036 66.9122H57.0567L57.1469 67.435L57.7778 67.1213L57.7093 66.6165L57.4641 66.7463ZM60.6225 66.7175L60.5431 67.197L60.9433 66.9591L60.8604 66.5805L60.6225 66.7175ZM65.1256 66.8184L65.1508 66.8401L65.1725 67.0276L65.4609 66.7103L65.414 66.5084L65.1256 66.8184ZM66.6543 66.9374L66.7192 67.0925L66.7372 67.0492L66.849 67.4927L66.7011 66.8942L66.7913 66.9518L66.9643 66.6238L66.9066 66.4687L66.6543 66.9374ZM70.1371 66.5336L70.202 66.5985V66.4471L70.1407 66.3858L70.1371 66.5336ZM66.0594 66.3858L65.8935 66.5949L65.9476 66.7608L66.1748 66.4579L65.9476 66.3101L66.0594 66.3858ZM64.1702 66.3858L64.2278 66.5841L64.5884 66.3245L64.4334 66.2019L64.1702 66.3858ZM58.8162 66.5156L58.9351 66.9482L59.5913 66.6057L59.4904 66.1767L58.8162 66.5156ZM45.332 66.6526L45.606 66.786L45.8332 66.3173L45.5772 66.1406L45.332 66.6526ZM51.4323 66.1298L51.371 66.8329L51.9479 66.7247L52.0128 66.0685L51.4323 66.1298ZM63.0417 66.4579L63.1174 66.6959L63.7087 66.3137L63.6474 66.0649L63.0417 66.4579ZM53.5595 66.2272L53.5884 66.8833L54.2229 66.6706V66.0505L53.5595 66.2272ZM64.5848 66.0866L64.6028 66.3173L64.7723 66.1875L64.7254 65.982L64.5848 66.0866ZM68.0423 66.3173L68.1036 66.4579L68.2046 66.0469L68.1433 65.9423L68.0423 66.3173ZM68.7634 66.22L68.8355 66.3137L68.8752 65.982L68.8067 65.8955L68.7634 66.22ZM55.51 66.1226L55.611 66.7067L56.2816 66.4219L56.2023 65.8594L55.51 66.1226ZM67.3213 66.3065L67.3789 66.4291L67.5232 66.0685L67.6962 66.5012L67.516 66.0541L67.5628 65.9387L67.5087 65.8198L67.3213 66.3065ZM65.1761 66.1911L65.2229 66.3534L65.7133 65.9171L65.6808 65.7693L65.1761 66.1911ZM48.9518 66.4615H49.4494L49.6008 65.8053L49.1105 65.7512L48.9518 66.4615ZM66.6795 66.1226L66.7264 66.2488L67.022 65.7837L66.9247 65.7404L66.6795 66.1226ZM60.4855 66.0685L60.5828 66.3245L60.6369 66.3966L61.2895 66.0757L61.1813 65.7332L60.4855 66.0685ZM69.5314 65.8738L69.6035 65.9459V65.7152L69.535 65.6467L69.5314 65.8738ZM57.3452 65.8955L57.4209 66.1478L57.5615 66.357L58.1852 66.0685L58.0626 65.5854L57.3452 65.8955ZM63.9971 65.4484L63.3806 65.7477L63.4527 65.9387L63.9899 65.6827V65.4628L64.08 65.5277L64.0512 65.4268L63.9971 65.4484ZM66.0882 65.827L66.1207 65.9531L66.5569 65.4953L66.5317 65.3655L66.0882 65.827ZM59.0938 65.589L59.256 65.982L59.9771 65.6791L59.8365 65.2826L59.0938 65.589ZM70.2705 65.2717L70.3282 65.3186V65.1852L70.2777 65.1455L70.2705 65.2717ZM67.3321 65.4881L67.3681 65.5818L67.5881 65.1564H67.5124L67.3321 65.4881ZM62.2845 65.5349L62.1187 65.6034L62.2233 65.8414L62.4035 65.7693L62.3819 66.0036L61.787 66.3317L61.888 66.6201L62.3963 66.3317L62.3531 66.2848L62.4107 65.7116L62.4504 65.7512L62.9119 65.5638L62.8434 65.3042L62.5477 65.4268L62.4865 65.7008L62.3062 65.5241L61.8627 65.0987L62.2845 65.5349ZM67.8549 65.5349L67.9089 65.6251L67.9955 65.3366L68.1613 65.6142L67.9738 65.297H68.0063L68.0568 65.1383L68.0099 65.0518L67.8549 65.5349ZM60.7883 65.3042L60.9361 65.5962L61.6572 65.3438L61.5274 65.0446L60.7883 65.3042ZM68.4389 65.4268L68.5074 65.4448L68.5615 65.1131L68.5038 65.0338L68.4389 65.4268ZM66.8454 65.3583L66.8706 65.452L67.1626 65.0915L67.1194 65.0266L66.8454 65.3583ZM63.9611 65.1636H63.9935V65.2898L64.5487 65.1275L64.5055 64.9833L63.9611 65.1636ZM46.2947 65.6539L46.6985 65.7621L46.9256 65.1528L46.5398 64.9905L46.2947 65.6539ZM64.3612 64.9725H64.455L64.336 64.9328L64.3612 64.9725ZM67.1626 64.9256L67.0184 64.904L67.6349 65.0049H67.5592L67.1987 64.9509V64.8896L67.1626 64.9256ZM65.533 64.904V64.9256H65.6159L65.0787 64.8788L65.533 64.904ZM69.0194 65.1636L69.0843 65.2321V64.9148L69.023 64.8535L69.0194 65.1636ZM53.9309 65.0734L54.0499 65.726L54.7709 65.47L54.6736 64.8463L53.9309 65.0734ZM64.9922 64.8391L64.574 64.8823L64.729 64.9364L65.0895 64.9004V64.8643H65.0282V64.8319L64.9922 64.8391ZM51.9299 64.9436L51.9623 65.6647L52.6329 65.4881L52.6149 64.8066L51.9299 64.9436ZM65.6303 64.8823H65.6952L66.1856 64.7994L66.2036 64.7778L65.6303 64.8823ZM55.8093 65.0482L55.9895 65.6106L56.7106 65.315L56.5556 64.767L55.8093 65.0482ZM63.4419 64.7237H63.4635L63.3806 64.7994L63.2147 64.7273H63.0056L63.0958 64.8355H63.2941L63.2724 64.94L63.2472 64.8823L62.5081 65.059L62.609 65.2393L63.3301 65.0734L63.3085 65.0266L63.258 64.9977L63.3013 64.7742L63.3986 64.8319H63.8313L63.7591 64.7165L63.4419 64.7237ZM63.651 64.6877L64.2855 64.7886H64.3901H64.354L63.5969 64.6732L63.651 64.6877ZM57.7021 64.904L57.767 65.0121L57.7021 65.1636L57.8067 65.4015L58.5277 65.1203L58.3403 64.6588L57.7021 64.904ZM67.5448 64.6588L67.4727 64.7706V64.8319L67.5881 64.6552L67.5448 64.6588ZM67.9053 64.6372L67.8477 64.7778L67.8801 64.8391L67.963 64.63L67.9053 64.6372ZM59.375 64.8175L59.5769 65.178L59.8257 65.1059L60.0096 64.648L60.2691 64.9689H60.3196L60.1898 64.7201L60.1465 64.7742L60.0312 64.6372L59.375 64.8175ZM67.0401 64.6156L66.9066 64.6913L66.8778 64.7273L67.1013 64.6011L67.0401 64.6156ZM67.1807 64.7273V64.7814L67.3573 64.6119L67.3285 64.5867L67.1807 64.7273ZM49.8243 64.5831L49.7486 65.3511L50.3615 65.2826L50.4409 64.5615L49.8243 64.5831ZM69.4268 64.529H69.6936V64.6949L69.7549 64.7454V64.5326L69.4268 64.529ZM62.1007 64.5651H62.5333L62.3891 64.392H61.8663L62.1007 64.5651ZM67.3465 64.5867H67.5051H67.4186L67.6025 64.4064H67.5664L67.3465 64.5867ZM67.1049 64.5867L66.5966 64.7201L67.1698 64.5831L67.4439 64.4281L67.4799 64.3848L67.1049 64.5867ZM67.7972 64.3271L67.6458 64.5579H67.7034L67.8404 64.3488V64.3199L67.7972 64.3271ZM61.7942 64.6228L61.1741 64.7345L61.3363 64.9725L61.924 64.8679L61.9601 64.7562L62.0574 64.8463H62.0862L62.0646 64.8102L61.376 64.2839L61.7942 64.6228ZM67.5881 64.3452L67.6349 64.3271V64.2911L67.5881 64.3452ZM68.2803 64.7057H68.2154H68.3344L68.4137 64.3271L68.3668 64.2911L68.2803 64.7057ZM67.963 64.5543L68.0027 64.5867L68.0964 64.3488L68.0712 64.2875L67.963 64.5543ZM68.7454 64.2911V64.4785L68.7959 64.529L68.8139 64.2803L68.7454 64.2911ZM67.8765 64.1396L67.8513 64.1685V64.1937L67.9017 64.1324L67.8765 64.1396ZM60.1754 64.1685L60.4278 64.4425L60.4025 64.475L60.7234 64.4317L60.5035 64.118L60.1754 64.1685ZM68.7562 64.1685L68.2947 64.2514L68.8608 64.1505H68.8103L68.7634 64.1L68.7562 64.1685ZM68.0964 63.999L68.0351 64.1144V64.1469L68.1181 63.9774L68.0964 63.999ZM70.2597 63.999L70.2849 64.0171H70.2633L70.2597 63.999ZM57.922 64.1829L58.1888 64.6083L58.9388 64.4064L58.69 63.9774L57.922 64.1829ZM47.2862 64.7129L47.726 64.7526L47.881 64.4461V64.475L47.9892 64.0567L47.4664 63.9413L47.2862 64.7129ZM61.3471 63.9918L61.2354 63.9197L61.1705 63.9017L61.3471 63.9918ZM56.1482 64.1252L56.4114 64.6588L57.1541 64.3992L56.9125 63.8656L56.1482 64.1252ZM61.0335 63.8656H61.0984H61.0299H61.0335ZM69.1961 64.0784L69.2537 64.1216V63.8476L69.1997 63.808L69.1961 64.0784ZM54.3347 64.0495L54.5546 64.6877L55.2973 64.4173L55.1026 63.7971L54.3347 64.0495ZM43.5185 64.3596L43.8286 64.5507L44.1134 64.0351L43.8322 63.7935L43.5185 64.3596ZM60.7487 63.8296L60.8712 63.8656L60.2872 63.8368L60.1574 63.8656L60.3629 64.0639L61.1272 64.1144L60.8929 63.8728L61.1813 63.9558L60.9325 63.826H61.0623L60.5107 63.6673L60.7487 63.8296ZM52.4563 63.8476L52.6005 64.5687L53.3216 64.3415L53.199 63.6493L52.4563 63.8476ZM68.237 63.6998L68.1217 63.9305L67.9414 64.0531L68.2226 63.7214V63.6998L67.9198 64.0603L67.6674 64.2406L68.1577 63.8981H68.1397L68.2947 63.5952V63.5592L68.237 63.6998ZM68.5976 63.4763L68.5615 63.7647L68.3308 63.8765L68.3921 63.6565H68.374L68.2875 63.9666L68.3091 63.9954L68.338 63.8873L68.8499 63.6421L68.63 63.7467L68.6625 63.4402L68.5976 63.4763ZM58.2285 63.5051L58.5422 63.8873L59.2921 63.808L58.9856 63.4114L58.2285 63.5051ZM50.4445 63.4835L50.4805 64.2839L51.2016 64.1433L51.1764 63.3933L50.4445 63.4835ZM68.6444 63.3645V63.3356L68.612 63.3104V63.3969L68.4281 63.5628L68.4461 63.4979L68.4245 63.4654L68.3885 63.5988L68.3236 63.6565L68.749 63.278L68.6444 63.3645ZM69.672 63.4366L69.7261 63.4727L69.7008 63.2816L69.6503 63.2527L69.672 63.4366ZM56.4474 63.2744L56.7827 63.7827L57.1433 63.689L57.1072 63.6205L57.3632 63.3573L57.1865 63.0797L56.4474 63.2744ZM59.6706 63.2167L59.5048 63.0977L59.4435 63.0761L59.6706 63.2167ZM68.886 63.4186L68.9257 63.4474V63.0869L68.886 63.0616V63.4186ZM68.5868 62.9246L68.5543 63.0941L68.594 62.8742L68.5868 62.9246ZM59.1479 63.1049L59.1947 63.1229L58.5133 63.0616L58.8738 63.3933L59.4904 63.4582L59.3245 63.3032L59.613 63.2635L59.4291 63.2852L59.2921 63.1482L59.613 63.2635L59.1551 62.9751L58.7945 62.8525L59.1479 63.1049ZM54.7096 63.0616L54.7637 63.1878V63.2058L55.0161 63.6926L55.7588 63.4474L55.4559 62.8309L54.7096 63.0616ZM44.7047 63.5303L45.1446 63.6962L45.4222 63.0436L45.0039 62.8165L44.7047 63.5303ZM69.1925 62.6795L69.2177 62.8922L69.2646 62.9174L69.2321 62.6434L69.1925 62.6795ZM52.8817 62.8237L53.1449 63.5448L53.8948 63.2924L53.6533 62.5713L52.8817 62.8237ZM68.5904 62.8958L68.6084 62.8489L68.6553 62.5893L68.5904 62.8958ZM68.7129 62.4343V62.7948H68.7346V62.3586L68.7129 62.4343ZM50.9925 62.4343L51.1619 63.2455L51.9119 63.0436L51.764 62.2721L50.9925 62.4343ZM57.7922 62.2793L58.0807 62.3982L58.2285 62.474L57.7309 62.2108L57.7922 62.2793ZM57.3307 62.51L56.6854 62.5857L57.0892 63.0688L57.4209 63.0364L57.1505 62.6218L57.5795 62.4992L57.2514 62.117L56.8909 62.0846L57.3307 62.51ZM58.0843 62.3658L57.6661 62.0413H57.63L58.0843 62.3658ZM69.5278 62.1495L69.571 62.1675L69.535 62.0053H69.4953L69.5278 62.1495ZM68.8932 62.3117H68.9148L68.8788 61.9692H68.8536L68.8932 62.3117ZM45.8188 62.7083L46.3848 62.8165L46.6011 62.0593L46.0495 61.8827L45.8188 62.7083ZM57.1397 61.7493L57.3452 61.9043L57.0495 61.7889L57.4101 62.0593L57.612 62.1026L57.356 61.9043L57.1505 61.7457L57.1397 61.7493ZM49.6297 61.8286L49.0564 61.8646L49.0852 62.4668L48.8148 62.8922L48.3281 62.8597L48.238 63.6998H48.6562L48.5589 63.314L49.1213 62.4307L49.2331 62.7335L49.8279 62.6542V62.5965L49.7847 62.6398L49.6008 61.6916L49.6297 61.843M69.1276 61.5726L69.1059 61.4645H69.0735L69.1059 61.6339L69.0302 61.8394L69.2141 61.3419L69.1276 61.5726ZM68.7382 61.3238L68.7634 61.6844L68.7274 62.1387L68.767 61.6447L68.7454 61.2842L68.7382 61.3238ZM42.0223 61.8683L42.3612 62.1242L42.5883 61.7637L42.5162 61.3563L42.4117 61.2481L42.0223 61.8683ZM51.5081 61.4789L51.8181 62.2937L52.5608 62.0521L52.2724 61.2589L51.5081 61.4789ZM50.7149 61.1255C50.7132 61.0991 50.7132 61.0726 50.7149 61.0462V61.1255ZM46.8823 61.9151L47.5602 61.944L47.6647 61.1075L46.9797 60.9777L46.8823 61.9151ZM56.1698 61.4428L55.5677 61.1941L55.8021 61.4284L55.6362 61.4536L55.8201 61.8142L55.4235 61.7961L55.6615 62.0738L55.2613 62.1819L55.355 62.391L55.1495 62.4848L55.4127 62.8633L56.1338 62.6795L55.7732 62.1242L56.3825 62.0485L55.9607 61.5366L56.5123 61.6015L55.9932 61.0859L56.3717 61.2662L55.748 60.8479L56.1698 61.4428ZM68.7742 60.8624L68.8355 61.1832H68.8536L68.7887 60.8479L68.7742 60.8624ZM56.397 61.2878L56.5051 61.3419L55.9102 60.8335L56.397 61.2878ZM49.7018 60.9272L49.8135 61.45L49.6044 61.6664L50.3039 60.9705L50.513 61.6916L50.6536 61.6591L50.4805 60.8083L49.7018 60.9272ZM55.8958 60.8335L55.8309 60.7794L55.7876 60.7614L55.8958 60.8335ZM55.4812 60.6821L55.5966 60.7362L55.4812 60.6244L55.3298 60.5559L55.4812 60.6821ZM43.3455 61.2986L43.8142 61.5257L44.1459 60.8371L43.706 60.5415L43.3455 61.2986ZM52.5716 60.3107L52.5933 60.4009H52.2832L51.9046 60.5379L52.3517 61.3635L53.0331 61.1039L52.6005 60.2855L52.5716 60.3107ZM47.8161 60.1413L47.8558 61.0931L48.6021 61.0246L48.5697 60.1377L47.8161 60.1413ZM44.802 59.9754L44.5821 60.6785L45.177 60.8479L45.4294 60.0475L44.9427 59.842L44.802 59.9754ZM50.2318 59.9754L50.5923 60.8912L50.6896 60.8551L50.6031 60.3215L51.1115 60.0908L50.9889 59.7591L50.2318 59.9754ZM52.395 59.5608L52.5644 60.2062L52.7663 60.5054L53.3432 60.2603L53.1124 59.9214L52.4455 59.7014L52.3878 59.5356L52.395 59.5608ZM53.2783 59.6005L53.4478 59.5248L53.3756 59.431L53.9237 59.7663L54.2481 60.1269L53.7254 60.2639L54.1941 60.8299L53.5595 61.0354L54.003 61.67L53.2819 61.9043L53.6677 62.6254L54.3888 62.3802L54.0679 61.7601L54.7132 61.5618L54.3094 60.9777L54.8683 60.8624L54.432 60.3288H54.8971L54.3851 59.7843L54.7637 59.979L54.1869 59.4382L54.4681 59.7988L54.0787 59.4851L54.1328 59.5356H53.8984L54.0066 59.788L53.1665 59.2796L53.2783 59.6005ZM54.0715 59.3229L53.9597 59.2147L53.9201 59.1967L54.0715 59.3229ZM45.8368 59.395L45.7467 60.0079L46.4425 60.0872L46.5759 59.2039L46.3019 59.1426L45.8368 59.395ZM48.53 59.2544L48.7355 60.235L49.489 60.0728L49.3016 59.139L48.53 59.2544ZM39.311 59.568L39.549 59.8853L39.9456 59.4743L39.7401 59.1137L39.311 59.568ZM50.6608 59.0633L51.1583 60.0043L51.5766 59.806L51.5081 59.3805H52.3445H51.6234L51.3098 58.7748L50.6608 59.0633ZM40.8253 59.2832L41.1858 59.6113L41.5716 59.0308L41.2543 58.645L40.8253 59.2832ZM47.7008 58.4179L47.7332 58.5837L48.4543 58.4323L48.4327 58.3278L47.7008 58.4179ZM46.8715 58.8145L46.7634 58.8758V59.3048L47.5133 59.276V58.4323L47.2429 58.4648V58.317L46.8175 58.2953L46.8715 58.8145ZM42.2242 58.9335L42.7109 59.2291L43.1039 58.5261L42.6496 58.1655L42.2242 58.9335ZM49.0744 58.3746L49.435 59.3841L50.1272 59.1246L49.7667 58.1439L49.0744 58.3746ZM52.7591 58.6847L52.9466 58.901V58.9371L52.7591 58.6847ZM52.5464 58.1223L52.3914 57.9817L52.2363 58.079L52.687 58.6018L52.2796 58.8253L53.0007 59.0921L52.8565 58.6162L53.3071 58.901L52.4923 57.9672L52.5464 58.1223ZM50.8987 58.1619L51.5297 59.1462L52.0272 58.8145L51.3855 57.8158L50.8987 58.1619ZM50.4517 57.7112L50.4769 57.6788L50.4084 57.6427L50.4517 57.7112ZM43.5474 58.5225L44.1567 58.7532L44.4595 57.9312L43.8755 57.6247L43.5474 58.5225ZM49.7631 57.3399V58.0069L50.0262 58.5441L50.5815 58.1836L50.2786 57.567L49.8027 57.3038L49.7631 57.3399ZM50.9961 57.2966L51.7496 58.3386L52.0308 58.0249L51.8361 57.7545V57.9528L50.9997 57.293L50.9961 57.2966ZM44.7804 58.0429L45.4835 58.1763L45.6565 57.2606L44.9643 57.0479L44.7804 58.0429ZM49.7991 56.6008L49.8243 56.6441L49.846 56.5359L49.7991 56.6008ZM48.1226 56.7198L48.2848 57.2101H48.3606V57.4913L48.4651 57.8194L48.6129 57.7545L48.5336 57.7329L48.6598 56.6909L48.8581 56.7522L48.768 56.471L48.1226 56.7198ZM45.8981 57.4877H46.648V56.4998L45.8981 56.4205V57.4877ZM38.3268 56.6873L38.5719 57.0803L39.0406 56.6837L38.8387 56.2475L38.3268 56.6873ZM49.8928 56.4746L50.5887 56.8892L50.1488 56.1357L49.8928 56.4746ZM39.9348 56.6693L40.2953 57.0731L40.782 56.5323L40.4648 56.0708L39.9348 56.6693ZM41.4346 56.5647L41.9249 56.9253L42.3792 56.2402L41.9322 55.8112L41.4346 56.5647ZM46.7345 55.7643L46.8932 56.8748L47.6142 56.7306L47.4628 55.6706L46.7345 55.7643ZM49.8928 55.6526V55.6886L50.6608 56.8784L50.7653 56.3881L50.513 55.9951L50.0587 55.4903L49.8928 55.6526ZM42.8335 56.3737L43.4392 56.6693L43.7997 55.8581L43.2229 55.4975L42.8335 56.3737ZM48.6021 55.8797L48.9951 56.7775L49.2835 56.864L49.5792 56.5972L49.078 55.4543L48.6021 55.8797ZM48.3317 55.4903L48.3642 55.4507L48.3029 55.4002L48.3317 55.4903ZM44.1134 56.078L44.8093 56.2619L45.0436 55.3425L44.6614 55.1947L44.3478 55.137L44.1134 56.078ZM49.5215 56.2222L49.6873 55.7896L48.9122 55.0288L49.5215 56.2222ZM46.2766 55.1983L46.5326 55.1406L46.2622 55.0036L46.2766 55.1983ZM47.3799 55.0541L47.6972 56.215L48.2957 55.8869L48.1334 55.2776L47.6683 54.9171L47.3799 55.0541ZM45.3248 54.8486L45.2635 55.685L45.9846 55.7211L46.0459 54.899L45.5231 54.6322L45.3717 54.6106L45.3248 54.8486ZM49.06 54.488L49.2186 54.6539L49.0925 54.3979L49.06 54.488ZM46.6192 53.9977L46.9328 54.1708V53.958L46.6192 53.9977ZM48.0036 54.1563L48.4651 54.5169L48.5877 54.4628L48.3173 53.7201L48.0036 54.1563ZM39.4697 54.1563L39.8302 54.625L40.3855 54.1491L40.0826 53.6263L39.4697 54.1563ZM41.0092 54.2825L41.4815 54.7188L42.0079 54.0914L41.5716 53.5795L41.0092 54.2825ZM37.8184 53.922L38.06 54.3835L38.5936 54.0518L38.4025 53.5506L37.8184 53.922ZM42.4333 54.2825L42.491 54.3186L43.2625 54.2248L43.4644 53.8643L42.9164 53.4317L42.4333 54.2825ZM36.0482 53.5398L36.1924 53.9544L36.6683 53.7525L36.5673 53.3127L36.0482 53.5398ZM43.7349 54.1563L44.0161 54.2573L44.1747 53.8427L44.5677 53.9328L44.7227 53.5038L44.0774 53.1937L43.7349 54.1563ZM34.1445 53.0747L34.1878 53.4136L34.5808 53.2658V52.9053L34.1445 53.0747Z" fill="white"/>
</mask>
<g mask="url(#mask0_4093_374984)">
<path d="M46.1818 35.504L24.4297 66.918L59.2584 91.0345L81.0105 59.6205L46.1818 35.504Z" fill="white"/>
</g>
<mask id="mask1_4093_374984" style="mask-type:luminance" maskUnits="userSpaceOnUse" x="0" y="0" width="76" height="73">
<path d="M67.0205 72.1545L67.1935 72.2338L67.0962 71.538L66.9339 71.5128L67.0205 72.1545ZM64.0028 71.5092L64.2083 71.6678L64.165 70.871L63.9703 70.7773L64.0028 71.5092ZM68.733 70.597L68.9818 70.7124L68.8087 69.9913L68.5816 69.9336L68.733 70.597ZM60.6209 70.3626L60.8517 70.6222L60.8949 69.7389L60.6678 69.555L60.6209 70.3626ZM66.2525 70.2797L66.5373 70.4888L66.4184 69.674L66.1516 69.5298L66.2525 70.2797ZM63.4547 69.5586L63.7756 69.8867L63.7396 68.9962L63.4331 68.7474L63.4547 69.5586ZM69.8218 69.0214L70.1355 69.1584L69.9048 68.4734L69.6163 68.3941L69.8218 69.0214ZM67.7848 68.9529L68.1453 69.1873L67.9615 68.441L67.6262 68.2715L67.7848 68.9529ZM65.4774 68.56L65.8776 68.9205L65.7658 68.1201L65.3872 67.8461L65.4774 68.56ZM56.8857 68.6537L57.1309 69.0395L57.304 68.0804L57.0552 67.7812L56.8857 68.6537ZM60.3541 68.3797L60.6966 68.8484L60.7832 67.9038L60.4478 67.5432L60.3541 68.3797ZM68.7474 67.6586L69.1729 67.8821L68.9385 67.2548L68.5419 67.0854L68.7474 67.6586ZM62.9067 67.8064L63.3394 68.2932V67.4639L62.9248 67.0637L62.9067 67.8064ZM70.4167 67.5288L70.7773 67.6586L70.5069 67.0781L70.1463 66.9916L70.4167 67.5288ZM66.8474 67.5288L67.3197 67.8605L67.1467 67.2043L66.6996 66.9303L66.8474 67.5288ZM64.7202 67.089L65.2322 67.5432L65.1493 66.8762L64.6445 66.4616L64.7202 67.089ZM67.7055 66.5229L68.2391 66.8005L68.03 66.303L67.5252 66.0759L67.7055 66.5229ZM69.2666 66.458L69.7497 66.6383L69.4902 66.1552L69.0395 66.0146L69.2666 66.458ZM60.0945 66.6383L60.5344 67.2764L60.675 66.4508L60.2387 65.9064L60.0945 66.6383ZM65.9461 66.3463L66.5265 66.7068L66.3895 66.2128L65.8343 65.8884L65.9461 66.3463ZM56.9759 66.7068L57.3148 67.3377L57.5671 66.3751L57.2066 65.8523L56.9759 66.7068ZM70.6294 66.166L71.0549 66.2669L70.7628 65.8055L70.3663 65.7405L70.6294 66.166ZM62.3731 66.3102L62.9067 66.8979L62.95 66.2489L62.4308 65.7369L62.3731 66.3102ZM63.9919 65.8884L64.6049 66.3751L64.5688 65.9028L63.9775 65.4737L63.9919 65.8884ZM52.8405 66.3282L53.0784 66.869L53.439 65.8667L53.183 65.4233L52.8405 66.3282ZM66.7248 65.6648L67.3558 65.928L67.1971 65.5927L66.595 65.3656L66.7248 65.6648ZM68.167 65.636L68.7474 65.8163L68.5311 65.4557L67.9795 65.3043L68.167 65.636ZM65.0844 65.4665L65.7514 65.8271L65.6721 65.5206L65.0303 65.207L65.0844 65.4665ZM69.4469 65.4016L69.9733 65.5026L69.7173 65.142L69.2197 65.0663L69.4469 65.4016ZM65.8199 65.1168L66.5157 65.3043L66.4184 65.1312L65.7622 64.9438L65.8199 65.1168ZM67.1791 65.1168L67.8281 65.2358L67.6766 65.0375L67.0493 64.9365L67.1791 65.1168ZM65.0339 64.8933L65.755 64.9546L65.7189 64.9221L64.9978 64.8608L65.0339 64.8933ZM64.3128 64.9329L65.0339 65.1889L65.0159 65.0555L64.2948 64.8212L64.3128 64.9329ZM66.3066 64.8861H66.9916L66.9051 64.8176H66.2381L66.3066 64.8861ZM63.2961 65.0375L63.9847 65.4737L64.01 65.2142L63.3394 64.814L63.2961 65.0375ZM61.854 65.1457L62.4777 65.7478L62.575 65.3295L61.9657 64.7887L61.854 65.1457ZM68.3869 64.9185L68.9854 64.969L68.7907 64.7599L68.2175 64.7202L68.3869 64.9185ZM70.5501 64.9942L71.0224 65.0267L70.7376 64.695H70.2978L70.5501 64.9942ZM59.8205 65.1817L60.3505 65.9028L60.5488 65.3079L60.026 64.6625L59.8205 65.1817ZM67.3449 64.5832L67.4531 64.6734L68.0913 64.6265L67.9651 64.5363L67.3449 64.5832ZM62.6832 64.4859L63.4259 64.8104L63.5088 64.7346L62.7877 64.4282L62.6832 64.4859ZM47.5153 65.1853L47.6596 65.5459L48.0742 64.6878L47.9047 64.3921L47.5153 65.1853ZM57.0624 64.9906L57.477 65.791L57.8123 65.0159L57.3833 64.32L57.0624 64.9906ZM69.2378 64.3128L69.4397 64.5183H69.9841L69.7569 64.302L69.2378 64.3128ZM67.5324 64.3741L67.6081 64.4029L68.1922 64.1938L68.1021 64.1686L67.5324 64.3741ZM68.3076 64.2263L68.4446 64.3344L69.0287 64.2335L68.8736 64.1253L68.3076 64.2263ZM61.5403 64.1542L61.378 64.2948L62.0667 64.8212L62.2217 64.6373L61.5727 64.1686L61.6556 64.2119H61.8612L61.1401 63.8513L60.9274 63.8297L61.5403 64.1542ZM70.0995 63.7936L70.3266 64.0028L70.8097 63.9306L70.5646 63.7107L70.0995 63.7936ZM68.3256 63.8982L68.423 63.9487L68.9457 63.6963L68.8412 63.653L68.3256 63.8982ZM53.3633 64.457L53.6589 65.2646L54.1384 64.3381L53.8103 63.6458L53.3633 64.457ZM69.1296 63.736L69.2919 63.8549L69.8146 63.7035L69.638 63.5845L69.1296 63.736ZM68.3328 63.6674H68.3905L68.8232 63.2817H68.7583L68.3328 63.6674ZM57.1345 63.6314L57.6104 64.4931L58.0178 64.01L57.5239 63.2312L57.1345 63.6314ZM68.989 63.2997L69.1008 63.361L69.5659 63.0726L69.4397 63.0077L68.989 63.2997ZM70.8133 63.1339L71.0585 63.3394L71.4839 63.2168L71.2207 62.9969L70.8133 63.1339ZM59.6186 63.2745L59.3266 63.3141L59.8421 63.79L59.579 64.0532L60.1774 64.7743L60.4406 64.4498L59.871 63.8297L59.9755 63.9234L60.2928 63.8549L59.7087 63.343L59.7556 63.3718L60.1162 63.498L59.4239 63.0726L59.0634 62.9392L59.6186 63.2745ZM69.8146 63.1122L69.9985 63.242L70.46 63.0437L70.2653 62.9103L69.8146 63.1122ZM68.8556 62.968L68.9277 63.0077L69.2882 62.5966L69.2089 62.5606L68.8556 62.968ZM48.5573 63.3069L48.7412 64.028L49.3469 63.0329L49.1197 62.4236L48.5573 63.3069ZM53.8644 62.8995L54.1889 63.8621L54.7658 63.2024L54.4052 62.3479L53.8644 62.8995ZM69.519 62.5858L69.6488 62.6688L70.0454 62.3407L69.9084 62.2613L69.519 62.5858ZM68.7619 62.7012L68.8015 62.73L69.0539 62.2361L69.0106 62.2109L68.7619 62.7012ZM71.3794 62.3407L71.639 62.539L71.9995 62.3659L71.7255 62.1532L71.3794 62.3407ZM70.3626 62.3587L70.5573 62.4957L70.9575 62.2541L70.752 62.1135L70.3626 62.3587ZM57.6176 62.1099L57.1922 62.0162L57.6104 62.5065L57.1814 62.6291L57.7042 63.4331L58.1728 63.2564L57.733 62.6507L57.751 62.6724L58.263 62.7625L57.7618 62.2181L58.2774 62.4921L57.6537 62.0306L57.1561 61.753L57.6176 62.1099ZM69.2522 62.164L69.3351 62.2217L69.6344 61.7854L69.5478 61.7277L69.2522 62.164ZM54.3259 61.6989L54.6864 62.676L55.339 62.3695L54.928 61.4646L54.3259 61.6989ZM69.9192 61.7782L70.067 61.872L70.3951 61.5114L70.2437 61.4141L69.9192 61.7782ZM69.0287 61.8251L69.0863 61.8792L69.2702 61.3744L69.2161 61.3239L69.0287 61.8251ZM70.7737 61.5295L70.9828 61.6701L71.3181 61.3889L71.0946 61.2446L70.7737 61.5295ZM68.8628 61.4862L68.8989 61.5367L68.9782 61.0175L68.9421 60.9706L68.8628 61.4862ZM49.592 61.6448L49.7831 62.6291L50.5475 61.8143L50.2915 60.949L49.592 61.6448ZM69.519 61.3023L69.6199 61.378L69.8543 60.9238L69.7497 60.8444L69.519 61.3023ZM70.1896 60.8841L70.3518 60.9923L70.615 60.6029L70.4492 60.4911L70.1896 60.8841ZM42.4858 61.2194L42.5832 61.7638L43.2574 60.8733L43.1096 60.4226L42.4858 61.2194ZM69.1657 60.8877L69.2378 60.9634L69.3604 60.4551L69.2882 60.3793L69.1657 60.8877ZM55.577 60.7146L55.0145 60.4623L55.3174 60.9562L54.7117 60.8913L55.0939 61.7602L55.8149 61.7927L55.4544 61.1437L56.1466 61.4321L55.7464 60.8589L56.3738 61.2807L55.8762 60.8156L55.2128 60.3613L55.577 60.7146ZM71.0369 60.6029L71.2604 60.7435L71.5344 60.4298L71.3 60.2784L71.0369 60.6029ZM68.8736 60.4803L68.9313 60.5524L68.9493 60.0404L68.8953 59.9683L68.8736 60.4803ZM50.5835 60.3036L50.7638 61.4033L51.6399 60.949L51.3767 59.9431L50.5835 60.3036ZM69.8182 59.8962L69.6596 60.3469L69.7822 60.4442L69.948 59.9755L69.8507 59.8962H69.8182ZM51.6651 60.4118L52.5989 60.3685L52.3429 59.3698H51.4993L51.6651 60.4118ZM44.1587 59.6006L44.2236 60.5127L45.1502 59.615L45.006 58.8182L44.1587 59.6006ZM53.0352 59.0994L52.2708 58.8146L52.4367 59.6835L53.3957 59.9972L53.183 59.3049L54.0231 59.8133L53.7815 59.2436L54.5026 59.8097L54.1889 59.3915L53.3669 58.7209L53.5724 59.0381L52.909 58.6199L53.0352 59.0994ZM45.7848 58.2522V59.3987L46.8664 58.8038L46.7582 57.7726L45.7848 58.2522ZM68.1057 57.7763L68.1922 57.8808L68.0588 57.4482L67.9759 57.3472L68.1057 57.7763ZM70.2509 57.7763L70.478 57.9169L70.5537 57.4878L70.3194 57.3364L70.2509 57.7763ZM68.8917 57.7474L69.0431 57.8808L68.971 57.3725L68.8195 57.2354L68.8917 57.7474ZM47.3243 57.2715L47.2521 58.4577L48.4491 58.3135L48.3878 57.1994L47.3243 57.2715ZM68.2355 57.2174L68.3689 57.3472L68.2427 56.8785L68.1129 56.7451L68.2355 57.2174ZM69.3495 57.1706L69.5478 57.3184V56.8461L69.3423 56.691L69.3495 57.1706ZM49.7651 57.0119L48.6835 56.6874L48.5573 57.7294L49.7795 58.0395V57.2823L50.9332 57.9277V57.2318L51.849 57.9529V57.4482L52.5701 58.1224L52.5016 57.8339L51.5426 56.911L51.4993 57.1093L50.8323 56.5684L50.7313 56.9795L49.8624 56.4603L49.7651 57.0119ZM67.637 56.6514L67.7487 56.7703L67.5829 56.3557L67.4711 56.2404L67.637 56.6514ZM69.9949 56.6514L70.2509 56.7992L70.2761 56.3665L70.0093 56.2115L69.9949 56.6514ZM68.5527 56.6514L68.7366 56.7992L68.6104 56.2908L68.4266 56.1358L68.5527 56.6514ZM70.8277 56.1899L71.1342 56.3341L71.1883 55.9483L70.8638 55.7969L70.8277 56.1899ZM37.4131 56.4855L37.3914 57.2066L38.4118 56.3738L38.3432 55.7464L37.4131 56.4855ZM67.8028 56.125L67.9687 56.2692L67.8028 55.8149L67.637 55.6671L67.8028 56.125ZM67.0818 55.9916L67.1683 56.0889L66.9916 55.7608L66.9051 55.6599L67.0818 55.9916ZM69.0287 56.0745L69.2666 56.2332L69.2053 55.7645L68.9602 55.5986L69.0287 56.0745ZM67.0998 55.5265L67.244 55.6563L67.0457 55.2633L66.9015 55.1299L67.0998 55.5265ZM68.1129 55.5265L68.3364 55.6887L68.1922 55.2164L67.9687 55.0506L68.1129 55.5265ZM69.6596 55.4941L69.9516 55.6491L69.9264 55.2128L69.6272 55.0506L69.6596 55.4941ZM66.4797 55.1623L66.5337 55.2381L66.3859 55.0037L66.3282 54.928L66.4797 55.1623ZM39.7746 55.2957L39.6232 56.3774L40.9319 55.696L40.9535 54.7261L39.7746 55.2957ZM70.4564 54.9677L70.7989 55.1047V54.7153L70.4384 54.5675L70.4564 54.9677ZM67.2548 54.9677L67.4603 55.1263L67.2584 54.6864L67.0529 54.5278L67.2548 54.9677ZM66.3967 54.8054L66.5085 54.9136L66.3102 54.6035L66.1948 54.4917L66.3967 54.8054ZM68.56 54.8956L68.8376 55.065L68.7294 54.6035L68.4446 54.4268L68.56 54.8956ZM42.0568 54.3836L41.7467 55.6238L43.2213 55.3823L43.3583 54.2213L42.0568 54.3836ZM71.4082 54.5026L71.7688 54.6107L71.8012 54.2682L71.4118 54.1492L71.4082 54.5026ZM66.422 54.3656L66.6022 54.5098L66.3715 54.1492L66.1912 54.005L66.422 54.3656ZM67.5432 54.3656L67.81 54.5386L67.6262 54.0807L67.3558 53.9041L67.5432 54.3656ZM43.7477 55.029L45.2692 55.3066L45.5252 54.1637L44.1948 53.8572L43.7477 55.029ZM69.1837 54.279L69.519 54.4377L69.4505 54.0014L69.0899 53.8356L69.1837 54.279ZM72.5223 54.1348L72.8828 54.2105L72.9189 53.9149L72.5403 53.8284L72.5223 54.1348ZM45.536 54.6107L47.025 55.3715L47.2954 54.5963L48.5176 55.5481L48.8493 54.946L49.7399 55.8185L50.0643 55.4904L50.6989 56.2115L50.9477 56.1466L49.8949 54.9532L49.5127 54.8919L49.7867 55.1948L48.9431 54.3403L48.4599 54.5494L47.6632 53.9005L47.2269 54.3511L46.0696 53.713L45.536 54.6107ZM73.7373 53.8572L74.0293 53.9005L74.051 53.6517L73.7373 53.6048V53.8572ZM75.0424 53.6986H75.2443V53.5111L75.028 53.4931L75.0424 53.6986ZM65.4954 53.5111L65.5927 53.6373L65.7369 53.7635L65.5134 53.4642H65.4954V53.5111ZM66.577 53.8211L66.8258 53.987L66.5878 53.5652L66.3391 53.3921L66.577 53.8211ZM69.9408 53.6769L70.3194 53.8103L70.2869 53.4173L69.8903 53.2731L69.9408 53.6769ZM49.8264 54.7585L50.2302 55.2128L49.2676 53.8248L48.752 53.2407L49.8264 54.7585ZM67.9831 53.6986L68.3076 53.8716L68.1562 53.4173L67.8209 53.2371L67.9831 53.6986ZM65.6396 53.2082L65.8631 53.3669L65.6035 53.0063L65.38 52.8549L65.6396 53.2082ZM70.8674 53.1289L71.264 53.2227V52.8621L70.8386 52.7612L70.8674 53.1289ZM66.869 53.201L67.1827 53.3813L66.9592 52.9342L66.6419 52.7467L66.869 53.201ZM68.5744 53.0388L68.9529 53.1974L68.8448 52.7648L68.4482 52.5953L68.5744 53.0388ZM48.9178 54.0663L49.5308 54.3511L48.4672 52.909L47.6992 52.4511L48.9178 54.0663ZM71.9238 52.6855L72.2843 52.7395V52.4367L71.8805 52.3754L71.9238 52.6855ZM65.7946 52.7143L66.0939 52.891L65.8235 52.4799L65.5206 52.2997L65.7946 52.7143ZM64.6842 52.5304L64.8717 52.6638L64.6193 52.3754L64.4318 52.242L64.6842 52.5304ZM67.2837 52.5557L67.6622 52.7359L67.4711 52.2817L67.0818 52.0942L67.2837 52.5557ZM73.1172 52.3069H73.4272V52.0545L73.0955 52.0365L73.1172 52.3069ZM69.3027 52.4078L69.7245 52.534L69.656 52.1374L69.2125 51.9968L69.3027 52.4078ZM74.3502 51.831L74.3754 52.0185H74.5809V51.8346L74.3502 51.831ZM64.7383 52.1338L65.0123 52.3033L64.7202 51.9427L64.4498 51.7769L64.7383 52.1338ZM66.065 52.0978L66.4256 52.2853L66.166 51.8454L65.8055 51.6507L66.065 52.0978ZM70.1824 51.7877L70.615 51.867L70.5826 51.5065L70.1175 51.4164L70.1824 51.7877ZM67.8353 51.849L68.2715 52.0076L68.1237 51.5714L67.6694 51.4019L67.8353 51.849ZM29.4055 51.8815L29.3767 52.3538L30.2744 51.7769L30.2311 51.3695L29.4055 51.8815ZM64.9041 51.6219L65.2646 51.8093L64.9618 51.4091L64.6012 51.2217L64.9041 51.6219ZM63.6711 51.4524L63.909 51.6002L63.6278 51.3226L63.3971 51.1748L63.6711 51.4524ZM66.4724 51.4019L66.9123 51.5822L66.6888 51.1351L66.2345 50.9405L66.4724 51.4019ZM71.2099 51.2181L71.6173 51.2505V50.9405L71.1703 50.8828L71.2099 51.2181ZM63.754 51.0774L64.0929 51.2541L63.7684 50.9152L63.4367 50.7386L63.754 51.0774ZM68.5419 51.1243L69.0142 51.2469L68.9133 50.8395L68.4121 50.7097L68.5419 51.1243ZM65.1781 50.9981L65.6216 51.1892L65.3295 50.7566L64.8825 50.5583L65.1781 50.9981ZM32.4737 51.0234L32.2357 51.9283L33.6779 51.2938L33.7788 50.4862L32.4737 51.0234ZM72.324 50.4501L72.3636 50.7097H72.6953V50.4501H72.324ZM48.1246 51.8238L48.3554 52.2708L48.1895 51.986L47.4432 51.0883L48.4023 52.7395L49.044 53.4859L48.4888 52.5088L47.9732 51.319L47.4649 50.3275L48.1246 51.8238ZM67.0133 50.634L67.5072 50.7926L67.3305 50.3528L66.8077 50.1833L67.0133 50.634ZM63.9343 50.5655L64.3669 50.7566L64.0316 50.3636L63.599 50.1725L63.9343 50.5655ZM35.5923 50.3816L35.0804 51.575L36.8037 51.2721L37.1066 50.1653L35.5923 50.3816ZM62.575 50.4177L62.8779 50.5799L62.5678 50.3095L62.2758 50.1509L62.575 50.4177ZM40.3623 51.1387L42.165 51.9536L42.6841 51.164L44.3354 52.4223L45.0565 51.7589L46.1922 52.9198L46.9817 52.5593L47.7028 53.4534H48.4599L47.2846 51.9824L46.3472 51.7877L46.6861 52.2059L45.7054 51.1604L44.7428 51.3334L43.7117 50.5042L42.7202 51.0955L42.8608 50.8792L41.3213 50.1112L40.3623 51.1387ZM37.8385 51.301L39.6664 51.5462L40.182 50.3528L38.592 50.0751L37.8385 51.301ZM73.5642 50.1004L73.6039 50.2915L73.8238 50.2554L73.8058 50.0643L73.5642 50.1004ZM69.4072 50.4069L69.8903 50.4754L69.8291 50.1148L69.3099 50.0391L69.4072 50.4069ZM47.2918 51.7985L48.2544 52.5196L47.2774 50.8828L46.1741 49.9562L47.2918 51.7985ZM65.5855 50.2662L66.0975 50.4501L65.8379 49.9958L65.3115 49.8047L65.5855 50.2662ZM62.7012 50.0679L63.1122 50.2518L62.7517 49.9201L62.3479 49.7399L62.7012 50.0679ZM64.2227 49.9273L64.7383 50.122L64.4174 49.6894L63.891 49.4911L64.2227 49.9273ZM67.6983 49.8408L68.2319 49.9562L68.0985 49.5343L67.5288 49.4118L67.6983 49.8408ZM70.3951 49.729H70.8422L70.8061 49.4046H70.3194L70.3951 49.729ZM61.3997 49.4406L61.7602 49.6173L61.4213 49.3541L61.0608 49.1846L61.3997 49.4406ZM62.8779 49.5488L63.3898 49.7399L63.0293 49.3541L62.5209 49.163L62.8779 49.5488ZM47.2521 50.6664L48.0273 51.593L47.3387 50.1076L46.477 49.026L47.2521 50.6664ZM66.0867 49.4406L66.6527 49.5993L66.44 49.1414L65.8415 48.9755L66.0867 49.4406ZM45.8244 50.8828L47.0322 51.4128L45.9506 49.6533L44.5589 48.8854L45.8244 50.8828ZM61.5186 49.0981L62.0162 49.2892L61.6556 48.9683L61.1689 48.7844L61.5186 49.0981ZM71.419 48.8061L71.4803 49.0765L71.8409 49.0404L71.8084 48.77L71.419 48.8061ZM64.5688 49.1414L65.1601 49.3252L64.8717 48.8637L64.2623 48.6727L64.5688 49.1414ZM68.4842 49.008L69.0251 49.062L68.9277 48.6763L68.3508 48.615L68.4842 49.008ZM63.1267 48.8854L63.7251 49.0801L63.3646 48.6438L62.7517 48.4491L63.1267 48.8854ZM60.1053 48.5501L60.574 48.7304L60.2135 48.4852L59.7664 48.3085L60.1053 48.5501ZM72.598 48.3157L72.6521 48.514L72.8972 48.4491L72.8648 48.2508L72.598 48.3157ZM61.7061 48.6006L62.3046 48.7916L61.9225 48.4311L61.3204 48.24L61.7061 48.6006ZM47.4468 49.4659L47.6055 50.1004L47.4613 49.6065L46.8844 48.4852L47.3351 49.9273L47.8687 50.9513L47.6884 50.3528L47.5262 49.2712L47.2485 48.1895L47.4468 49.4659ZM66.6996 48.5537L67.3053 48.6618L67.1358 48.2184L66.4905 48.103L66.6996 48.5537ZM60.2604 48.2364L60.8517 48.4203L60.4551 48.1138L59.8782 47.93L60.2604 48.2364ZM69.2955 47.8759L69.4036 48.2364H69.9048L69.8399 47.8939L69.2955 47.8759ZM65.0051 48.2941L65.654 48.4455L65.4089 47.9696L64.7238 47.8074L65.0051 48.2941ZM45.9254 49.4839L47.0647 50.4501L46.3075 48.7989L45.0709 47.6379L45.9254 49.4839ZM63.4331 48.1138L64.1109 48.2905L63.7972 47.8146L63.0942 47.6271L63.4331 48.1138ZM58.7173 47.7857L59.2833 47.9624L58.9047 47.7353L58.3639 47.5622L58.7173 47.7857ZM61.9225 47.9552L62.6147 48.1427L62.2541 47.6992L61.5331 47.5117L61.9225 47.9552ZM60.4298 47.7605L61.1293 47.9408L60.7327 47.5802L60.0368 47.4L60.4298 47.7605ZM67.4062 47.6668L68.0191 47.71L67.893 47.2954L67.2332 47.2449L67.4062 47.6668ZM58.9011 47.4901L59.5934 47.6595L59.1932 47.3675L58.519 47.1981L58.9011 47.4901ZM70.3194 47.1872L70.4059 47.4757L70.8241 47.4108L70.7737 47.1224L70.3194 47.1872ZM46.3184 48.6294L47.2053 49.7471L46.751 48.3049L45.8028 47.043L46.3184 48.6294ZM57.2895 47.1115L57.9637 47.2738L57.5852 47.0719L56.9398 46.9096L57.2895 47.1115ZM65.5639 47.3423L66.2525 47.4432L66.0542 46.9709L65.3331 46.8592L65.5639 47.3423ZM46.7762 48.1535L47.3675 49.3144L47.1692 48.0381L46.5527 46.7907L46.7762 48.1535ZM47.5514 47.7569V48.3626V48.3914V48.3698V48.7304L47.6992 48.0814L47.9588 47.5442L48.2436 46.7834L47.8398 47.6091L47.7497 47.847L47.7713 47.7533L47.793 46.769L47.5514 47.7569ZM47.1909 47.9047L47.4721 49.0152L47.4937 47.8939L47.2089 46.7438L47.1909 47.9047ZM63.8333 47.1836L64.576 47.3279L64.302 46.8231L63.5232 46.6681L63.8333 47.1836ZM60.6534 47.0755L61.4429 47.2485L61.0824 46.7943L60.2784 46.6176L60.6534 47.0755ZM59.0994 46.9926L59.8926 47.1548L59.4996 46.7943L58.7064 46.632L59.0994 46.9926ZM62.2145 47.1224L62.986 47.2918L62.6543 46.7907L61.854 46.614L62.2145 47.1224ZM57.4986 46.8267L58.2918 46.9709L57.9061 46.6933L57.1309 46.5527L57.4986 46.8267ZM71.437 46.5491L71.5056 46.7618L71.7904 46.6717L71.7471 46.4554L71.437 46.5491ZM55.8077 46.5491L56.5829 46.6825L56.2223 46.5094L55.476 46.3796L55.8077 46.5491ZM68.1021 46.358L68.2427 46.7185L68.8195 46.6897L68.7258 46.3292L68.1021 46.358ZM37.3373 46.9168L39.2734 48.3301L40.3551 47.6523L41.8297 49.2099L43.1348 48.8782L44.0037 50.0535L45.3377 50.1833L44.0938 48.4527L42.5327 48.0706L42.8572 48.5104L41.7503 47.2846L40.3298 47.3928L38.8877 46.2823L37.3373 46.9168ZM44.2128 48.2364L45.7415 49.2351L44.8654 47.3747L43.1817 46.12L44.2128 48.2364ZM48.6979 46.6536L48.3878 47.0142L49.1378 46.4554L49.4298 46.1237L48.6979 46.6536ZM56.0925 46.2931L56.9759 46.3941L56.6153 46.1345L55.7536 46.0299L56.0925 46.2931ZM54.3367 46.1669L55.2056 46.2462L54.8956 46.1056L54.0627 46.0263L54.3367 46.1669ZM57.7474 46.3292L58.6343 46.4554L58.2738 46.0948L57.3905 45.965L57.7474 46.3292ZM48.3734 46.5815L48.0778 47.3495L48.6546 46.6645L48.9467 45.9145L48.3734 46.5815ZM50.1076 46.084L50.0752 46.1453L51.0342 45.9218V45.8713L50.1076 46.084ZM66.2525 46.3147L66.952 46.3436L66.7933 45.8929L66.0362 45.8569L66.2525 46.3147ZM52.8657 45.9542H53.8031L53.5652 45.846H52.6674L52.8657 45.9542ZM59.3554 46.2823L60.2387 46.4337L59.8782 45.9614L58.9805 45.8064L59.3554 46.2823ZM51.3334 45.8605L51.4272 45.9398L52.397 45.8424L52.26 45.7667L51.3334 45.8605ZM47.8723 46.5563L47.8362 47.555L48.24 46.7258L48.2833 45.7235L47.8723 46.5563ZM54.6468 45.9506L55.6022 45.9903L55.3138 45.7415L54.3836 45.7018L54.6468 45.9506ZM60.949 46.2282L61.8143 46.3869L61.4754 45.8533L60.574 45.6874L60.949 46.2282ZM49.5812 46.0732L49.3865 46.376L50.2554 45.9686L50.4285 45.6838L49.5812 46.0732ZM64.3633 46.1633L65.1457 46.2607L64.9149 45.7451L64.0749 45.6369L64.3633 46.1633ZM62.6075 46.1633L63.4439 46.3039L63.1519 45.7595L62.2686 45.6045L62.6075 46.1633ZM34.2511 46.5996L36.3423 47.454L37.3734 46.3724L35.5707 45.5684L34.2511 46.5996ZM53.0496 45.518L53.2227 45.7631L54.2177 45.7199L54.0195 45.4819L53.0496 45.518ZM47.281 46.4914L47.5586 47.6776L47.7821 46.6861L47.5117 45.4711L47.281 46.4914ZM69.1152 45.5648L69.2342 45.8785L69.7173 45.7811L69.6416 45.4675L69.1152 45.5648ZM56.3521 45.8352L57.3148 45.9181L56.9903 45.536L56.0349 45.4458L56.3521 45.8352ZM50.634 45.6838L50.5655 45.9506L51.5173 45.6838L51.5642 45.4314L50.634 45.6838ZM44.9231 47.1981L46.203 48.4131L45.6838 46.8123L44.321 45.4026L44.9231 47.1981ZM51.7805 45.4747L51.8382 45.7199L52.8333 45.5756L52.7504 45.3377L51.7805 45.4747ZM49.1053 45.7703L48.7989 46.5202L49.5199 46.0047L49.8192 45.2836L49.1053 45.7703ZM46.5455 46.4517L47.1692 47.7425V46.5779L46.5455 45.2115V46.4517ZM45.7307 46.6392L46.6969 47.948L46.4734 46.5779L45.4747 45.1358L45.7307 46.6392ZM30.9162 46.3003L33.0037 46.5347L33.7248 45.3918L31.904 45.125L30.9162 46.3003ZM57.9565 45.6225L58.9192 45.7451L58.5839 45.2439L57.6032 45.1142L57.9565 45.6225ZM54.9064 45.4422L55.9195 45.4639L55.6743 45.0637L54.6612 45.0348L54.9064 45.4422ZM24.1344 45.2439L23.9181 45.8893L25.2449 45.4458L25.3422 44.8618L24.1344 45.2439ZM28.021 45.0529L27.4298 46.0732L29.3118 45.8352L29.7011 44.8834L28.021 45.0529ZM49.9814 45.2223L49.7579 45.8713L50.6052 45.5107L50.8251 44.8726L49.9814 45.2223ZM48.4131 45.5071L48.3518 46.5202L48.925 45.8533L48.9972 44.8437L48.4131 45.5071ZM66.8077 44.8726L66.9916 45.2836L67.655 45.2331L67.5288 44.8221L66.8077 44.8726ZM59.597 45.399L60.5524 45.5432L60.2243 44.9627L59.2292 44.8077L59.597 45.399ZM53.3813 44.8185L53.5219 45.2584L54.553 45.2043L54.4052 44.7752L53.3813 44.8185ZM42.0928 47.0142L43.9496 47.8506L42.8824 45.8352L40.8237 44.6959L42.0928 47.0142ZM51.0162 44.8978L50.9116 45.4567L51.8562 45.2079L51.9572 44.6599L51.0162 44.8978ZM52.1519 44.7644L52.1735 45.2548L53.1758 45.1105L53.1506 44.631L52.1519 44.7644ZM70.1788 44.7644L70.2725 45.0024L70.615 44.8762L70.5537 44.631L70.1788 44.7644ZM61.2663 45.179L62.2001 45.3161L61.8936 44.7104L60.9057 44.5625L61.2663 45.179ZM56.536 45.1142L57.5635 45.2007L57.2823 44.6563L56.2368 44.5625L56.536 45.1142ZM64.9365 45.0384L65.7333 45.0637L65.5423 44.5625L64.677 44.5301L64.9365 45.0384ZM63.0257 45.0384L63.9234 45.1142L63.6638 44.5409L62.7156 44.4363L63.0257 45.0384ZM47.5911 45.2331L47.8434 46.4734L48.258 45.6369L48.0237 44.3787L47.5911 45.2331ZM49.1738 44.7356L49.0837 45.7415L49.8048 45.2439L49.9093 44.2453L49.1738 44.7356ZM55.1083 44.7356L56.1647 44.7752L55.9664 44.1731L54.8847 44.1227L55.1083 44.7356ZM58.1584 44.7176L59.186 44.8437L58.8867 44.1984L57.8051 44.0578L58.1584 44.7176ZM46.5996 44.9483L47.2197 46.3544L47.4468 45.3305L46.8483 43.8667L46.5996 44.9483ZM53.5832 43.8342L53.695 44.5337L54.7513 44.5157L54.6612 43.8306L53.5832 43.8342ZM50.1184 44.1371L49.9958 45.125L50.8395 44.8005L50.9801 43.8234L50.1184 44.1371ZM67.7127 43.9063L67.8677 44.2669L68.441 44.1407L68.3364 43.7802L67.7127 43.9063ZM52.3502 43.7117V44.5229L53.3633 44.4363L53.3957 43.6432L52.3502 43.7117ZM51.2073 43.7766L51.0703 44.7284L52.0149 44.5589L52.1735 43.6287L51.2073 43.7766ZM59.8241 44.3102L60.8444 44.4435L60.5452 43.7621L59.4636 43.6143L59.8241 44.3102ZM43.0122 45.6225L44.7248 46.9349L44.1191 45.1322L42.2911 43.5783L43.0122 45.6225ZM48.1751 44.1804L48.3842 45.4494L48.9611 44.7536L48.7808 43.4737L48.1751 44.1804ZM45.4639 44.8149L46.4698 46.3039V45.0637L45.4639 43.4629V44.8149ZM56.7127 44.1299L57.7943 44.238L57.5527 43.517L56.4242 43.3944L56.7127 44.1299ZM65.3656 43.3836L65.5999 43.8523L66.3679 43.7874L66.2056 43.3187L65.3656 43.3836ZM44.2092 44.9663L45.5901 46.4301L45.3305 44.9303L43.8883 43.2898L44.2092 44.9663ZM61.5908 43.9568L62.5786 44.0542L62.301 43.398L61.2194 43.2862L61.5908 43.9568ZM63.5052 43.7766L64.4174 43.8018L64.1866 43.2285L63.1988 43.1961L63.5052 43.7766ZM55.2128 43.7225L56.2944 43.809L56.1394 42.9653L54.9857 42.8608L55.2128 43.7225ZM48.9503 43.3403L49.1053 44.6202L49.8264 44.1299L49.711 42.8536L48.9503 43.3403ZM68.6861 42.9509L68.8123 43.2249L69.2378 43.0555L69.1512 42.7743L68.6861 42.9509ZM58.3315 43.535L59.4131 43.672L59.1391 42.886L57.9709 42.731L58.3315 43.535ZM46.9457 43.6035L47.5262 45.0961L47.9588 44.2416L47.418 42.7058L46.9457 43.6035ZM34.828 42.5219L36.7028 44.5301L38.5307 44.2453L39.6123 45.81L41.5629 46.0984L40.2793 44.1263L38.0692 43.535L38.3 43.8955L37.0561 42.493L34.828 42.5219ZM53.7671 43.4881L54.8487 43.5458L54.8054 42.5579L53.6697 42.475L53.7671 43.4881ZM49.9598 42.7454L50.0499 44.0145L50.9152 43.7044L50.8683 42.4498L49.9598 42.7454ZM51.1171 42.3849L51.146 43.6287L52.1086 43.4881L52.1266 42.2659L51.1171 42.3849ZM52.3646 43.4665L53.4029 43.4881L53.4822 42.3164L52.4006 42.2623L52.3646 43.4665ZM60.0729 42.9834L61.1545 43.0951L60.8733 42.3308L59.6979 42.201L60.0729 42.9834ZM66.1516 42.2407L66.3571 42.6481L67.0421 42.4966L66.9015 42.082L66.1516 42.2407ZM56.7956 42.904L57.9385 43.0447L57.7186 42.1253L56.4963 41.9594L56.7956 42.904ZM45.5107 43.124L46.5058 44.7716L46.7546 43.69L45.7848 41.9558L45.5107 43.124ZM61.9693 42.5904L62.9969 42.6264L62.7373 41.9558L61.616 41.9054L61.9693 42.5904ZM69.7137 42.0568L69.8038 42.2371L70.0526 42.0748L69.9841 41.8909L69.7137 42.0568ZM63.7684 41.9054L64.064 42.4498L64.9582 42.3849L64.7491 41.8405L63.7684 41.9054ZM47.5694 42.493L48.0814 44.0397L48.7015 43.3655L48.24 41.7972L47.5694 42.493ZM40.5894 43.9352L42.7526 45.3449L42.0316 43.2934L39.7133 41.5737L40.5894 43.9352ZM43.8919 42.8788L45.3341 44.5806V43.2249L43.8919 41.3754V42.8788ZM55.2453 42.4354L56.4026 42.5868L56.2656 41.4871L55.0254 41.2997L55.2453 42.4354ZM58.4901 42.1217L59.6547 42.2587L59.3843 41.3537L58.1188 41.1915L58.4901 42.1217ZM42.201 43.0807L44.0398 44.7104L43.7333 43.0266L41.8333 41.1735L42.201 43.0807ZM48.4491 41.6386L48.8782 43.2069L49.6569 42.7238L49.2964 41.1518L48.4491 41.6386ZM31.2406 41.5917L33.4039 43.1168L35.0623 42.3452L33.2597 40.9788L31.2406 41.5917ZM67.0169 41.1482L67.1899 41.4727L67.7271 41.2564L67.6081 40.9211L67.0169 41.1482ZM53.7058 42.1938L54.8415 42.3632L54.8198 41.0401L53.5976 40.8237L53.7058 42.1938ZM49.5199 41.0725L49.8552 42.6336L50.7674 42.338L50.5042 40.7913L49.5199 41.0725ZM45.9146 41.7035L46.8556 43.4665L47.3243 42.5688L46.4373 40.7444L45.9146 41.7035ZM60.3361 41.5232L61.4754 41.5881L61.1833 40.7877L59.9359 40.7048L60.3361 41.5232ZM50.7782 40.7372L51.0162 42.2695L52.0329 42.1541L51.8742 40.6507L50.7782 40.7372ZM52.2997 42.1253L53.3813 42.183L53.3236 40.7408L52.1519 40.6435L52.2997 42.1253ZM64.4246 40.6291L64.695 41.1086L65.517 40.9427L65.3295 40.4524L64.4246 40.6291ZM62.0414 40.4884L62.402 41.1446L63.4331 41.0905L63.1807 40.438L62.0414 40.4884ZM56.8425 41.4475L58.0611 41.6241L57.8303 40.5245L56.5036 40.3118L56.8425 41.4475ZM67.9507 40.0991L68.0804 40.3226L68.441 40.0991L68.3472 39.8611L67.9507 40.0991ZM46.6032 40.5353L47.4541 42.3741L48.1246 41.6746L47.3387 39.8034L46.6032 40.5353ZM27.3432 40.748L29.6579 41.6494L30.945 40.6218L28.9512 39.7782L27.3432 40.748ZM43.9676 41.0617L45.381 42.9617L45.655 41.7864L44.2777 39.7746L43.9676 41.0617ZM37.7592 42.3056L40.2829 43.4521L39.3491 41.2275L36.6451 39.7313L37.7592 42.3056ZM58.6091 40.5606L59.8457 40.6723L59.5537 39.6844L58.1945 39.5402L58.6091 40.5606ZM55.1696 40.9211L56.4098 41.1518L56.2548 39.807L54.9028 39.5222L55.1696 40.9211ZM47.5766 39.6556L48.2977 41.5232L49.1486 41.0365L48.5104 39.1617L47.5766 39.6556ZM60.1955 39.1004L60.6137 39.9152H61.7854L61.4898 39.1112L60.1955 39.1004ZM65.1601 39.3564L65.398 39.7493L66.0795 39.497L65.9136 39.0859L65.1601 39.3564ZM41.8333 40.7733L43.7225 42.6913V41.1843L41.826 39.0751L41.8333 40.7733ZM53.5255 40.593L54.7477 40.8634L54.672 39.241L53.338 38.9021L53.5255 40.593ZM23.2727 39.8936L25.4901 40.1856L26.3085 39.1869L24.3652 38.8804L23.2727 39.8936ZM39.6412 41.0653L41.9739 42.868L41.6133 40.9571L39.2085 38.884L39.6412 41.0653ZM62.5282 39.0319L62.8887 39.6232L63.8694 39.4573L63.6278 38.8588L62.5282 39.0319ZM48.7844 39.0607L49.3865 40.9211L50.378 40.6399L49.8805 38.8011L48.7844 39.0607ZM50.1761 38.7507L50.6412 40.575L51.7445 40.492L51.3839 38.7074L50.1761 38.7507ZM52.0257 40.4632L53.201 40.5642L52.9919 38.8552L51.7012 38.6966L52.0257 40.4632ZM56.81 39.7421L58.1224 39.9368L57.852 38.7074L56.4098 38.4658L56.81 39.7421ZM44.4111 39.4897L45.7487 41.5412L46.2751 40.5786L45.0132 38.4514L44.4111 39.4897ZM19.6746 38.2639L19.1338 39.0391L20.9004 38.9165L21.2609 38.1954L19.6746 38.2639ZM65.9461 38.1161L66.1335 38.4081L66.6203 38.1161L66.4797 37.8024L65.9461 38.1161ZM58.7028 38.7867L60.0044 38.8444L59.6763 37.8349L58.2341 37.752L58.7028 38.7867ZM15.2147 37.9286L15.0849 38.3108L16.0151 38.0837L16.0656 37.7231L15.2147 37.9286ZM54.9785 39.104L56.3233 39.4032L56.107 37.8601L54.6143 37.4996L54.9785 39.104ZM45.2043 38.2279L46.4229 40.3695L47.1764 39.6484L46.066 37.4671L45.2043 38.2279ZM60.4587 37.4527L60.8913 38.2026L62.0486 38.0728L61.7458 37.3193L60.4587 37.4527ZM63.069 37.5717L63.3898 38.0656L64.2551 37.7916L64.028 37.276L63.069 37.5717ZM41.8982 38.6966L43.7693 40.8598L44.083 39.5655L42.2803 37.258L41.8982 38.6966ZM46.3184 37.2977L47.4 39.4789L48.3482 38.985L47.4108 36.8037L46.3184 37.2977ZM53.1686 38.6821L54.5134 39.0427L54.3187 37.1895L52.8225 36.7533L53.1686 38.6821ZM66.8077 36.9624L66.9303 37.1354L67.1935 36.8867L67.0926 36.692L66.8077 36.9624ZM30.9811 38.7651L33.3065 38.5451L34.59 40.6182L37.139 41.0581L35.87 38.9201L33.0542 38.1413L33.202 38.3793L31.7166 36.6667L29.0233 36.6199L30.9811 38.7651ZM56.7127 37.8241L58.1224 37.9971L57.7835 36.7064L56.2079 36.4829L56.7127 37.8241ZM47.6992 36.7028L48.5933 38.866L49.6966 38.6064L48.9395 36.4612L47.6992 36.7028ZM39.1977 38.3901L41.5917 40.5317V38.8264L39.1833 36.4612L39.1977 38.3901ZM51.5389 38.4911L52.8405 38.6533L52.4799 36.6884L51.0378 36.4468L51.5389 38.4911ZM49.9922 38.5451L51.2145 38.5055L50.6556 36.4396H49.282L49.9922 38.5451ZM36.5045 38.8516L39.3528 40.8057L38.8949 38.6028L35.9529 36.3098L36.5045 38.8516ZM58.2774 35.9132L58.8002 36.9011L60.1342 36.8542L59.7736 35.8844L58.2774 35.9132ZM42.4354 36.9552L44.2092 39.2987L44.8149 38.2639L43.142 35.8231L42.4354 36.9552ZM63.7071 36.1548L63.9811 36.5369L64.6517 36.1764L64.4534 35.769L63.7071 36.1548ZM60.8012 35.7942L61.2194 36.4612L62.301 36.2016L62.0018 35.5383L60.8012 35.7942ZM54.6937 37.0309L56.1755 37.359L55.8546 35.7005L54.1889 35.2967L54.6937 37.0309ZM43.3728 35.5851L44.988 38.0368L45.8569 37.2652L44.3787 34.7667L43.3728 35.5851ZM24.6248 35.1381L26.907 36.7425L28.8611 36.0394L26.9322 34.5972L24.6248 35.1381ZM39.277 36.043L41.6386 38.4766L41.9991 37.0345L39.7061 34.4242L39.277 36.043ZM56.5829 35.7402L58.0755 35.8411L57.6537 34.5684L55.97 34.4242L56.5829 35.7402ZM64.3921 34.8064L64.594 35.0587L65.0231 34.6982L64.8644 34.4134L64.3921 34.8064ZM52.6566 36.4973L54.1601 36.9444L53.8464 34.8857L52.1483 34.3196L52.6566 36.4973ZM44.6599 34.6045L46.0768 37.0958L47.1584 36.6018L45.9073 34.1105L44.6599 34.6045ZM33.0145 36.7388L36.1187 38.1377L35.3724 35.8123L32.1059 34.0456L33.0145 36.7388ZM50.7998 36.2089L52.2672 36.4576L51.73 34.2547L50.068 33.8942L50.7998 36.2089ZM58.3315 34.0456L58.8831 34.9181L60.1883 34.7306L59.7953 33.8581L58.3315 34.0456ZM46.2571 34.0096L47.4577 36.4829L48.7159 36.2557L47.7064 33.8257L46.2571 34.0096ZM49.0512 36.1944L50.4357 36.2161L49.6678 33.887L48.0814 33.7896L49.0512 36.1944ZM61.2086 34.1971L61.5944 34.709L62.5029 34.3268L62.2217 33.786L61.2086 34.1971ZM35.9709 35.7798L38.8913 38.1449V36.1944L35.9709 33.5517V35.7798ZM65.1204 33.5445L65.2322 33.6707L65.4161 33.4147L65.3223 33.2669L65.1204 33.5445ZM54.3043 34.7739L55.9267 35.0732L55.4724 33.4003L53.6373 33.0073L54.3043 34.7739ZM39.926 34.0961L42.1613 36.7388L42.8824 35.6031L40.7661 32.8559L39.926 34.0961ZM20.0567 33.6238L22.4291 34.59L23.8136 33.6959L21.7657 32.7982L20.0567 33.6238ZM55.7284 32.3475L56.4206 33.5517L57.9493 33.5156L57.4626 32.3403L55.7284 32.3475ZM61.7061 32.6467L62.0198 33.0073L62.6832 32.5602L62.4416 32.1528L61.7061 32.6467ZM29.2 34.5035L32.2249 35.0623L31.0532 32.8559L27.7795 31.9473L29.2 34.5035ZM58.4793 32.2429L59.0129 32.964L60.1991 32.6035L59.8097 31.8824L58.4793 32.2429ZM41.0437 32.6035L43.0807 35.3652L44.0974 34.5504L42.2443 31.7418L41.0437 32.6035ZM51.9824 34.0637L53.6878 34.6045L53.2371 32.4088L51.3046 31.7129L51.9824 34.0637ZM15.413 32.1059L17.5149 32.4989L18.2793 31.7057L16.4153 31.32L15.413 32.1059ZM36.1079 33.1082L38.9922 35.8087L39.4285 34.1826L36.6451 31.2983L36.1079 33.1082ZM49.8624 33.6382L51.5389 33.9988L50.8467 31.5904L48.925 31.0964L49.8624 33.6382ZM42.5976 31.5687L44.4003 34.3701L45.6658 33.8762L44.0974 31.0928L42.5976 31.5687ZM44.4796 30.9955L45.9939 33.7608L47.4541 33.5805L46.1813 30.8801L44.4796 30.9955ZM47.8434 33.5192L49.4406 33.6238L48.4455 31.0532L46.5996 30.8404L47.8434 33.5192ZM62.265 31.1793L62.4813 31.4065L62.8635 30.9883L62.6868 30.7287L62.265 31.1793ZM53.8284 32.3511L55.5626 32.5494L54.9821 30.9594L53.0063 30.6854L53.8284 32.3511ZM32.1961 33.0037L35.6248 35.477L35.5815 33.2488L32.142 30.4475L32.1961 33.0037ZM10.8558 30.6926H12.2511L12.5035 30.1843L11.238 30.1518L10.8558 30.6926ZM55.5193 30.3104L56.2404 31.3308L57.7294 31.1181L57.2102 30.1013L55.5193 30.3104ZM58.6992 30.4979L59.1715 31.0351L60.1414 30.5556L59.7809 29.9824L58.6992 30.4979ZM24.9637 32.023L27.6208 31.8788L26.0381 29.9427L23.0672 29.8201L24.9637 32.023ZM36.8614 30.9414L39.5763 33.8762L40.4308 32.6215L37.8818 29.5677L36.8614 30.9414ZM51.2 31.4137L53.0929 31.8968L52.4439 29.7624L50.2807 29.1351L51.2 31.4137ZM38.2207 29.2901L40.694 32.3511L41.9054 31.4894L39.6628 28.3888L38.2207 29.2901ZM53.3236 29.849L55.1047 29.8706L54.4341 28.4573L52.4006 28.3816L53.3236 29.849ZM59.0129 28.8178L59.3734 29.1784L60.0476 28.6448L59.7592 28.2374L59.0129 28.8178ZM48.6582 30.808L50.5943 31.3163L49.7579 28.7529L47.5262 28.0715L48.6582 30.808ZM55.4003 28.3095L56.0853 29.1099L57.4157 28.7097L56.9074 27.8876L55.4003 28.3095ZM32.3259 29.9139L35.7113 32.8522L36.2413 31.0171L32.9676 27.8444L32.3259 29.9139ZM28.2301 30.4511L31.7562 31.9761L31.2911 29.6651L27.6677 27.7831L28.2301 30.4511ZM40.0666 28.2157L42.2299 31.3019L43.7333 30.8296L41.8405 27.7759L40.0666 28.2157ZM42.302 27.6857L44.1335 30.7106L45.8497 30.6061L44.321 27.6713L42.302 27.6857ZM46.3039 30.57L48.1643 30.7936L46.9926 28.0318L44.8293 27.6713L46.3039 30.57ZM18.1351 27.6533L20.3416 29.3009L22.3822 28.7133L20.5038 27.2315L18.1351 27.6533ZM59.4023 27.2711L59.6402 27.4802L60.0008 26.9971L59.8025 26.7483L59.4023 27.2711ZM50.3275 28.6267L52.3682 28.962L51.5426 27.0115L49.1954 26.5572L50.3275 28.6267ZM51.8562 26.139L52.808 27.336L54.5314 27.1377L53.8103 25.9588L51.8562 26.139ZM33.2777 27.4478L36.4721 30.6421L37.5032 29.2613L34.5179 25.9371L33.2777 27.4478ZM55.3895 26.4022L55.9772 26.9755L57.0588 26.4238L56.6081 25.8109L55.3895 26.4022ZM23.9397 27.61L27.217 28.2337L26.276 26.0164L22.8221 25.0826L23.9397 27.61ZM47.2882 27.747L49.5199 28.3888L48.5393 25.7821L45.9614 24.9384L47.2882 27.747ZM13.1092 25.4792L15.2976 26.5032L16.6028 25.7821L14.6811 24.8303L13.1092 25.4792ZM34.9181 25.6667L37.8024 28.9909L39.2446 28.0895L36.6343 24.7365L34.9181 25.6667ZM28.2013 26.788L31.9545 29.3118L32.3475 27.2423L28.6844 24.4265L28.2013 26.788ZM44.5121 27.3252L46.7005 27.7038L45.3521 24.8014L42.8031 24.2426L44.5121 27.3252ZM37.139 24.5635L39.6628 27.8984L41.4655 27.4658L39.2734 24.2029L37.139 24.5635ZM41.9306 27.3721H43.9676L42.201 24.257L39.8034 24.1272L41.9306 27.3721ZM49.3505 25.8001L51.4416 25.9011L50.5078 24.2354L48.103 24.0479L49.3505 25.8001ZM55.4796 24.6572L55.9195 25.0177L56.6406 24.4084L56.28 23.9902L55.4796 24.6572ZM51.4019 24.001L52.2853 24.9024L53.8176 24.4841L53.1433 23.572L51.4019 24.001ZM8.19864 23.4206L9.93283 23.8965L10.5385 23.3088L8.9774 22.8545L8.19864 23.4206ZM55.6491 23.06L55.9159 23.2619L56.2764 22.7031L56.0457 22.4543L55.6491 23.06ZM19.3104 24.5022L22.0145 24.4337L20.6336 22.5048L17.6808 22.3209L19.3104 24.5022ZM45.8749 24.5887L48.2653 24.9961L47.0755 22.7608L44.3102 22.1911L45.8749 24.5887ZM29.1495 23.7306L32.7982 27.1413L34.0528 25.6271L30.6638 22.0866L29.1495 23.7306ZM47.1404 21.6143L48.3878 22.9879L50.3996 22.8221L49.4442 21.4917L47.1404 21.6143ZM51.1063 21.9748L51.8274 22.5913L53.046 22.0073L52.4691 21.3511L51.1063 21.9748ZM3.55851 21.5674L4.43462 21.6792L4.58244 21.3727L3.77123 21.2862L3.55851 21.5674ZM23.9433 23.7306L27.6317 25.2845L27.5632 23.1213L23.8712 21.3186L23.9433 23.7306ZM31.1541 21.809L34.4494 25.3386L36.2161 24.412L33.2777 20.9004L31.1541 21.809ZM42.4678 23.8929L45.042 24.4769L43.5566 21.5133L40.5642 20.7057L42.4678 23.8929ZM33.8401 20.7021L36.7028 24.221L38.866 23.8604L36.4072 20.4389L33.8401 20.7021ZM39.4068 23.7883L41.8297 23.9361L39.8683 20.7129L37.0201 20.3956L39.4068 23.7883ZM44.3931 21.4701L46.8051 21.5818L45.5071 19.7178L42.7202 19.4979L44.3931 21.4701ZM50.9441 20.2046L51.4741 20.5651L52.2817 19.8945L51.8526 19.4655L50.9441 20.2046ZM12.489 19.6277L14.3819 21.2754L16.2963 20.8247L14.6523 19.3393L12.489 19.6277ZM46.3256 19.3825L47.4577 20.3704L49.2351 19.963L48.3554 18.9751L46.3256 19.3825ZM25.0538 20.5939L28.8467 22.9591L29.7444 21.1564L26.139 18.5893L25.0538 20.5939ZM19.4799 20.4569L22.7247 21.0807L22.1551 18.9751L18.8129 18.0738L19.4799 20.4569ZM50.9368 18.6542L51.2469 18.8634L51.557 18.1964L51.2866 17.9332L50.9368 18.6542ZM40.4812 20.4389L43.1348 20.6697L41.4403 18.236L38.3252 17.8358L40.4812 20.4389ZM27.2459 18.3262L30.826 21.315L32.5927 20.1505L29.3478 17.1075L27.2459 18.3262ZM36.7713 20.0315L39.4357 20.0784L37.2724 17.1616L34.1466 16.9597L36.7713 20.0315ZM50.9152 17.2986L51.0739 17.4176L51.045 17.0102L50.8864 16.866L50.9152 17.2986ZM41.3249 16.9705L42.9365 18.4415L45.2115 18.2504L43.946 16.8335L41.3249 16.9705ZM45.7307 17.3311L46.6176 17.9656L48.0273 17.3671L47.3062 16.6965L45.7307 17.3311ZM30.3537 17.0859L33.4976 20.3307L35.8736 19.8621L33.1731 16.7037L30.3537 17.0859ZM7.45233 17.0246L9.25502 18.0774L10.3366 17.5438L8.73584 16.5739L7.45233 17.0246ZM20.8716 17.2409L24.3976 18.6074L24.8267 16.6641L21.4016 15.0633L20.8716 17.2409ZM36.2557 15.0344L38.3973 16.9958L40.9716 16.8804L39.2482 15.0092L36.2557 15.0344ZM14.8614 16.9705H17.3563L16.3324 15.1246L13.6824 14.901L14.8614 16.9705ZM45.3593 15.5644L45.965 15.925L46.8159 15.157L46.3148 14.7316L45.3593 15.5644ZM2.72567 14.7064L3.96232 15.1967L4.38415 14.7893L3.25566 14.3278L2.72567 14.7064ZM40.1135 14.6234L41.5124 15.6185L43.4989 15.1714L42.3885 14.1836L40.1135 14.6234ZM31.3885 13.924L34.0745 16.2242L36.6379 15.8853L34.3954 13.6608L31.3885 13.924ZM23.4242 15.0056L26.9178 16.9994L28.3311 15.532L25.1223 13.412L23.4242 15.0056ZM45.1178 13.9925L45.5035 14.2413L45.7271 13.5707L45.3665 13.275L45.1178 13.9925ZM27.0115 13.8843L30.1915 16.2134L32.3547 15.3625L29.5677 13.0262L27.0115 13.8843ZM44.8149 12.7631L45.0384 12.9073L44.9627 12.5467L44.7428 12.3845L44.8149 12.7631ZM34.3593 12.3845L36.3062 13.7365L38.6461 13.3255L37.0633 12.0059L34.3593 12.3845ZM39.1905 12.5864L40.2216 13.1669L41.7143 12.4458L40.8886 11.8293L39.1905 12.5864ZM8.68537 11.8869L10.1023 13.4697L11.7247 13.1669L10.4628 11.7247L8.68537 11.8869ZM16.6172 13.7185L19.5304 14.2989L19.451 12.4025L16.5667 11.5985L16.6172 13.7185ZM28.8106 10.9892L31.2839 12.5539L33.5841 11.905L31.4966 10.3511L28.8106 10.9892ZM38.6137 10.7837L39.2915 11.1695L39.9765 10.3907L39.4068 9.96167L38.6137 10.7837ZM19.6638 11.6093L22.7175 12.7414L23.6621 11.1262L20.7995 9.83188L19.6638 11.6093ZM23.8099 10.6936L26.6943 12.1898L28.4969 11.0757L25.9443 9.511L23.8099 10.6936ZM32.7873 10.0374L34.3232 10.8342L36.2702 10.1564L35.0119 9.33794L32.7873 10.0374ZM4.07408 9.21896L5.33597 10.2465L6.13997 9.86432L4.99706 8.91611L4.07408 9.21896ZM38.0476 9.28747L38.5055 9.54344L38.6785 9.02427L38.2495 8.74305L38.0476 9.28747ZM12.4494 10.1924L14.5477 10.2753L14.0177 8.60605L11.8545 8.35006L12.4494 10.1924ZM26.5536 8.28156L28.5871 9.19733L30.5196 8.34285L28.789 7.39103L26.5536 8.28156ZM31.7526 7.98232L32.7765 8.47265L33.8582 7.59654L32.982 7.05573L31.7526 7.98232ZM0 7.1026L0.771552 7.52804L1.08522 7.26484L0.364144 6.86465L0 7.1026ZM16.1197 8.25272L18.4992 8.76108L18.9463 7.19274L16.6641 6.53656L16.1197 8.25272ZM20.9004 7.61817L23.2511 8.4402L24.6284 7.22158L22.512 6.30581L20.9004 7.61817ZM30.7539 6.17602L31.475 6.51493L31.9329 5.90201L31.2767 5.54147L30.7539 6.17602ZM7.54967 5.5595L8.31401 6.87907L9.66964 6.7024L8.9738 5.491L7.54967 5.5595ZM24.9024 5.95248L26.2436 6.44282L27.3576 5.3612L26.1823 4.79876L24.9024 5.95248ZM29.9499 4.95019L30.4186 5.1557L30.4691 4.86727L30.022 4.65455L29.9499 4.95019ZM12.745 5.13046L14.3999 5.26386L14.4396 3.94068L12.8135 3.6883L12.745 5.13046ZM18.3153 4.81319L20.0243 5.23501L20.8319 4.0885L19.2564 3.58014L18.3153 4.81319ZM3.84334 3.29171L4.51755 4.10292L5.19175 3.87218L4.56802 3.11865L3.84334 3.29171ZM23.3412 3.78205L24.3003 4.11735L24.7942 3.34579L23.9145 2.98526L23.3412 3.78205ZM22.0758 2.27139L22.6923 2.46969L22.7932 2.0803L22.2056 1.86398L22.0758 2.27139ZM0.785974 1.75222L1.24746 2.05507L1.52508 1.93249L1.09243 1.65126L0.785974 1.75222ZM9.79943 2.47329H10.8017L10.5313 1.5395L9.51821 1.4746L9.79943 2.47329ZM16.2314 2.47329L17.313 2.68962L17.4861 1.75222L16.4586 1.47099L16.2314 2.47329ZM14.3602 0.695839L15.0128 0.803999L14.9263 0.302851L14.2809 0.165847L14.3602 0.695839ZM6.88989 0L7.25042 0.511964L7.77681 0.479514L7.41627 0H6.88989Z" fill="white"/>
</mask>
<g mask="url(#mask1_4093_374984)">
<path d="M44.1469 -37.0913L-35.5859 29.8125L31.0838 109.266L110.817 42.3626L44.1469 -37.0913Z" fill="white"/>
</g>
<path fill-rule="evenodd" clip-rule="evenodd" d="M73.5784 67.3813C73.5786 67.2517 73.5541 67.1232 73.5063 67.0027C73.461 66.8875 73.3937 66.7821 73.308 66.6927C73.2197 66.6047 73.1141 66.536 72.998 66.4908C72.7457 66.3897 72.4642 66.3897 72.212 66.4908C72.0969 66.5361 71.9926 66.6048 71.9056 66.6927C71.8188 66.782 71.7503 66.8873 71.7036 67.0027C71.6075 67.2484 71.6075 67.5214 71.7036 67.7671C71.7511 67.881 71.8196 67.9849 71.9056 68.0735C71.9934 68.1613 72.0975 68.2311 72.212 68.279C72.4642 68.3801 72.7457 68.3801 72.998 68.279C73.1134 68.2333 73.2181 68.1642 73.3056 68.0761C73.3931 67.988 73.4614 67.8828 73.5063 67.7671C73.5548 67.6443 73.5792 67.5133 73.5784 67.3813ZM73.1783 67.6517C73.1507 67.729 73.1064 67.7991 73.0485 67.8572C72.9936 67.9148 72.9273 67.9602 72.8538 67.9906C72.695 68.0531 72.5185 68.0531 72.3598 67.9906C72.2863 67.9602 72.22 67.9148 72.1651 67.8572C72.1084 67.7982 72.0643 67.7283 72.0353 67.6517C71.968 67.479 71.968 67.2872 72.0353 67.1145C72.0643 67.0379 72.1084 66.968 72.1651 66.909C72.22 66.8514 72.2863 66.806 72.3598 66.7756C72.5193 66.7174 72.6943 66.7174 72.8538 66.7756C72.9273 66.806 72.9936 66.8514 73.0485 66.909C73.1064 66.9671 73.1507 67.0373 73.1783 67.1145C73.2456 67.2872 73.2456 67.479 73.1783 67.6517ZM75.3415 67.6012V68.3223H75.666V67.5075C75.669 67.4178 75.6543 67.3283 75.6227 67.2443C75.5961 67.1798 75.554 67.1228 75.5001 67.0785C75.4476 67.0366 75.3858 67.0082 75.3198 66.9955C75.2463 66.9806 75.1714 66.9733 75.0963 66.9739C75.0235 66.9742 74.9509 66.9827 74.88 66.9991C74.8048 67.0155 74.7312 67.0384 74.6601 67.0676C74.6132 67.0292 74.5574 67.0031 74.4978 66.9919C74.4301 66.9788 74.3613 66.9727 74.2923 66.9739C74.2114 66.9752 74.1306 66.9824 74.0508 66.9955C73.9534 66.9955 73.8561 67.0244 73.7515 67.046V68.3223H74.076V67.3164H74.1878C74.2213 67.3127 74.2552 67.3127 74.2887 67.3164C74.3281 67.3102 74.3683 67.3102 74.4077 67.3164C74.4386 67.3254 74.4669 67.3415 74.4906 67.3633C74.5125 67.391 74.5285 67.4229 74.5375 67.457C74.5439 67.5073 74.5439 67.5582 74.5375 67.6084V68.3295H74.862V67.6084C74.8636 67.5868 74.8636 67.5651 74.862 67.5435C74.8635 67.5207 74.8635 67.4978 74.862 67.475V67.4101C74.8641 67.3958 74.8641 67.3812 74.862 67.3669C74.9026 67.3487 74.9449 67.3342 74.9882 67.3236H75.1071C75.1421 67.3197 75.1774 67.3231 75.2109 67.3337C75.2445 67.3442 75.2754 67.3617 75.3018 67.3849C75.3512 67.4566 75.3729 67.5436 75.3631 67.6301M76.4664 68.3836C76.5644 68.3829 76.6621 68.3733 76.7584 68.3548C76.852 68.3386 76.9438 68.3132 77.0324 68.279V67.5219C77.0347 67.4393 77.02 67.357 76.9891 67.2804C76.9641 67.2169 76.9216 67.1619 76.8666 67.1217C76.8123 67.079 76.7497 67.0482 76.6827 67.0316C76.6071 67.0135 76.5296 67.005 76.4519 67.0063C76.3648 67.0054 76.2777 67.0139 76.1923 67.0316C76.1233 67.0489 76.0558 67.0718 75.9904 67.1001L75.9508 67.4318L76.059 67.3885L76.1779 67.3525L76.2969 67.3272H76.4087C76.4828 67.3247 76.5566 67.3383 76.625 67.3669C76.6523 67.3811 76.6747 67.403 76.6895 67.43C76.7043 67.4569 76.7107 67.4877 76.7079 67.5183V67.5363C76.6623 67.533 76.6165 67.533 76.5709 67.5363H76.4555C76.3729 67.5344 76.2903 67.5441 76.2104 67.5652C76.1417 67.5794 76.0766 67.6077 76.0193 67.6481C75.9666 67.6827 75.9232 67.7297 75.8931 67.7851C75.8632 67.8456 75.8483 67.9124 75.8498 67.9798C75.8464 68.0506 75.864 68.1208 75.9003 68.1817C75.9343 68.2355 75.9799 68.2811 76.0337 68.3151C76.0954 68.3498 76.1624 68.3742 76.232 68.3872C76.3088 68.4051 76.3875 68.4135 76.4664 68.4124M76.7079 67.8176V68.0807C76.6712 68.0963 76.6323 68.106 76.5926 68.1096C76.5518 68.1131 76.5107 68.1131 76.47 68.1096C76.401 68.1104 76.3325 68.0981 76.2681 68.0735C76.2428 68.0638 76.2212 68.0464 76.2064 68.0237C76.1915 68.0011 76.1841 67.9744 76.1851 67.9473C76.1756 67.9291 76.1704 67.9089 76.1697 67.8883C76.1691 67.8677 76.1731 67.8472 76.1815 67.8284C76.1997 67.8066 76.2217 67.7882 76.2464 67.7743C76.2776 67.7617 76.3104 67.7532 76.3438 67.749C76.3821 67.7453 76.4208 67.7453 76.4591 67.749H76.5745L76.6791 67.7671M77.2379 67.046V68.3295H77.5624V67.3236L77.6922 67.302H77.8076C77.8863 67.2965 77.9644 67.3195 78.0275 67.3669C78.0552 67.4002 78.0759 67.4388 78.0883 67.4803C78.1006 67.5218 78.1045 67.5654 78.0996 67.6084V68.3295H78.4241V67.5147C78.4262 67.4247 78.4102 67.3352 78.3772 67.2515C78.3494 67.1857 78.3046 67.1285 78.2474 67.0857C78.1905 67.0445 78.1253 67.0161 78.0563 67.0027C77.9791 66.9879 77.9006 66.9806 77.822 66.9811H77.6994H77.5516C77.5011 66.9811 77.447 66.9811 77.3965 67.0027L77.2379 67.028M78.5142 66.4331L79.1524 68.3115H79.5922L80.2304 66.4331H79.8698L79.3795 67.969L78.8928 66.4331H78.5142ZM80.4179 66.9306C80.4667 66.933 80.5146 66.9162 80.5513 66.8838C80.5694 66.8683 80.5836 66.8489 80.593 66.827C80.6024 66.8051 80.6066 66.7813 80.6053 66.7576C80.6061 66.7344 80.6016 66.7113 80.5922 66.6901C80.5829 66.6689 80.5689 66.6501 80.5513 66.635C80.5142 66.6032 80.4666 66.5865 80.4179 66.5881C80.3679 66.5859 80.319 66.6027 80.2809 66.635C80.2632 66.6501 80.2492 66.6689 80.2399 66.6901C80.2305 66.7113 80.226 66.7344 80.2268 66.7576C80.2247 66.7823 80.2289 66.8072 80.239 66.8298C80.2491 66.8525 80.2647 66.8723 80.2845 66.8874C80.3228 66.9165 80.3698 66.9317 80.4179 66.9306ZM80.2556 68.3115H80.5765V67.0063H80.2556V68.3115ZM81.3372 68.0231C81.2504 68.0225 81.1642 68.0091 81.0812 67.9834C81.0057 67.9639 80.9339 67.9322 80.8685 67.8897L80.746 68.2033C80.785 68.2262 80.826 68.2455 80.8685 68.261C80.9154 68.279 80.9659 68.2899 81.0127 68.3043L81.1714 68.3295C81.2242 68.3331 81.2772 68.3331 81.33 68.3295C81.4176 68.3308 81.505 68.3198 81.5896 68.2971C81.6567 68.2812 81.7202 68.2531 81.7771 68.2141C81.8216 68.1802 81.8585 68.1372 81.8853 68.088C81.9187 68.0156 81.9294 67.9348 81.9159 67.8562C81.9024 67.7777 81.8653 67.7051 81.8095 67.6481C81.6977 67.5649 81.5658 67.5127 81.4274 67.4967H81.3264C81.2671 67.4892 81.2096 67.4709 81.157 67.4426C81.144 67.4355 81.1331 67.4251 81.1255 67.4124C81.1179 67.3998 81.1138 67.3853 81.1137 67.3705C81.1137 67.3128 81.1786 67.2876 81.3156 67.2876H81.431L81.5536 67.3092L81.6689 67.3452L81.7699 67.3849L81.8853 67.0857C81.8065 67.0422 81.7213 67.0117 81.6329 66.9955C81.5345 66.9749 81.4341 66.9652 81.3336 66.9667C81.1931 66.9583 81.0538 66.9963 80.937 67.0748C80.8918 67.1088 80.8551 67.1529 80.8301 67.2036C80.805 67.2544 80.7923 67.3103 80.7928 67.3669C80.7902 67.4179 80.8001 67.4689 80.8214 67.5153C80.8427 67.5618 80.875 67.6024 80.9154 67.6337C81.0219 67.7094 81.146 67.7566 81.2759 67.7707L81.3805 67.7923C81.4393 67.802 81.4964 67.8202 81.55 67.8464C81.5647 67.8535 81.5771 67.8648 81.5854 67.8789C81.5938 67.8931 81.5977 67.9093 81.5968 67.9257C81.5968 67.9618 81.5716 67.987 81.5247 68.0014C81.469 68.0202 81.4104 68.0288 81.3517 68.0267M82.2854 66.945C82.3355 66.948 82.3847 66.9312 82.4225 66.8982C82.4395 66.8821 82.4528 66.8624 82.4615 66.8406C82.4703 66.8188 82.4741 66.7954 82.4729 66.772C82.4734 66.7492 82.4692 66.7265 82.4605 66.7054C82.4518 66.6843 82.4388 66.6653 82.4225 66.6494C82.3843 66.6171 82.3354 66.6003 82.2854 66.6025C82.2366 66.6002 82.1887 66.617 82.152 66.6494C82.1348 66.6656 82.1211 66.6851 82.1117 66.7068C82.1023 66.7285 82.0974 66.7519 82.0974 66.7756C82.0974 66.7992 82.1023 66.8226 82.1117 66.8443C82.1211 66.8661 82.1348 66.8856 82.152 66.9018C82.1906 66.9304 82.2374 66.9456 82.2854 66.945ZM82.1232 68.3259H82.4477V67.0208H82.1232V68.3259ZM83.5654 68.3007C83.6469 68.2665 83.7214 68.2176 83.7853 68.1565C83.8509 68.0948 83.9025 68.0198 83.9367 67.9365C83.9913 67.8093 84.0061 67.6685 83.979 67.5327C83.952 67.3969 83.8845 67.2724 83.7853 67.1758C83.7217 67.1134 83.6472 67.0632 83.5654 67.028C83.4754 66.9943 83.3802 66.9772 83.2841 66.9775C83.1893 66.9772 83.0952 66.9943 83.0065 67.028C82.9234 67.0628 82.8476 67.113 82.783 67.1758C82.7193 67.2383 82.669 67.3131 82.6352 67.3957C82.5972 67.4808 82.5776 67.5729 82.5776 67.6661C82.5776 67.7593 82.5972 67.8514 82.6352 67.9365C82.6681 68.0196 82.7185 68.0946 82.783 68.1565C82.8479 68.218 82.9237 68.2669 83.0065 68.3007C83.0946 68.3368 83.1889 68.3552 83.2841 68.3548C83.3806 68.3557 83.4762 68.3373 83.5654 68.3007ZM83.1327 68.0086C83.0902 67.9886 83.0513 67.9618 83.0173 67.9293C82.953 67.8569 82.9183 67.763 82.92 67.6661C82.9189 67.6169 82.9275 67.5679 82.9452 67.5219C82.9619 67.4782 82.9864 67.4379 83.0173 67.4029C83.0502 67.3692 83.0894 67.3423 83.1327 67.3236C83.1803 67.3024 83.2321 67.2925 83.2841 67.2948C83.3373 67.2928 83.3903 67.3027 83.4392 67.3236C83.4818 67.3415 83.52 67.3686 83.5509 67.4029C83.5843 67.4368 83.6101 67.4773 83.6266 67.5219C83.6426 67.5683 83.6511 67.617 83.6519 67.6661C83.6509 67.7152 83.6423 67.7638 83.6266 67.8103C83.6101 67.8549 83.5843 67.8955 83.5509 67.9293C83.5191 67.9627 83.4812 67.9896 83.4392 68.0086C83.3897 68.0278 83.3372 68.0376 83.2841 68.0375C83.2323 68.038 83.1808 68.0282 83.1327 68.0086ZM84.1386 67.0424V68.3259H84.4631V67.32L84.5929 67.2984H84.7083C84.786 67.292 84.8632 67.3152 84.9246 67.3633C84.9537 67.3958 84.9755 67.4342 84.9886 67.4759C85.0016 67.5175 85.0056 67.5615 85.0003 67.6048V68.3259H85.3248V67.5111C85.3269 67.4211 85.311 67.3316 85.2779 67.2479C85.2501 67.1821 85.2053 67.1249 85.1481 67.0821C85.0912 67.0408 85.026 67.0126 84.957 66.9991C84.8798 66.9843 84.8013 66.977 84.7227 66.9775H84.6001H84.4523L84.2936 66.9991L84.1386 67.0244M80.1294 54.4921C80.0386 54.5501 79.9342 54.5837 79.8266 54.5894V54.8418C79.9714 54.8405 80.1143 54.8073 80.2448 54.7444C80.5163 54.6192 80.7375 54.4057 80.8721 54.1387C80.9378 54.0181 80.9725 53.8831 80.9731 53.7457C80.9818 53.6652 80.972 53.5837 80.9445 53.5075C80.917 53.4313 80.8726 53.3624 80.8145 53.3059C80.7064 53.2128 80.5677 53.1627 80.4251 53.1653C80.294 53.1614 80.166 53.2049 80.0645 53.2879C80.0121 53.3366 79.9714 53.3967 79.9458 53.4636C79.9202 53.5305 79.9102 53.6023 79.9167 53.6736C79.9147 53.7496 79.9307 53.825 79.9636 53.8936C79.9974 53.9587 80.0426 54.0173 80.097 54.0666C80.1497 54.1125 80.2064 54.1535 80.2664 54.1892C80.3175 54.2204 80.3736 54.2424 80.4323 54.2541C80.3438 54.3452 80.2445 54.4251 80.1366 54.4921M80.1943 53.7205C80.192 53.6499 80.215 53.5809 80.2592 53.5258C80.2784 53.5014 80.3031 53.4818 80.3313 53.4686C80.3595 53.4555 80.3904 53.4491 80.4215 53.4501C80.455 53.4478 80.4886 53.4542 80.5189 53.4688C80.5492 53.4833 80.5753 53.5054 80.5945 53.533C80.6395 53.5973 80.6623 53.6745 80.6594 53.753C80.6592 53.8009 80.6507 53.8485 80.6342 53.8936C80.616 53.949 80.5943 54.0032 80.5693 54.0558C80.4749 54.0405 80.3857 54.0021 80.3097 53.944C80.2748 53.9196 80.2461 53.8873 80.2261 53.8497C80.206 53.8121 80.1952 53.7703 80.1943 53.7277M92.312 59.4098H92.3841H95.3694V54.8742H94.7925V58.8762H92.2471C92.1202 58.8784 91.9952 58.8446 91.8866 58.7789C91.7679 58.7073 91.6669 58.61 91.5909 58.494C91.5015 58.3591 91.4345 58.2106 91.3926 58.0542C91.3426 57.8733 91.3171 57.6866 91.3169 57.4989V54.8706H89.4169C89.0998 54.8629 88.7853 54.9283 88.4975 55.0617C88.2601 55.1776 88.0564 55.3527 87.9062 55.5701C87.7585 55.7892 87.6522 56.0336 87.5926 56.2911C87.5268 56.543 87.4941 56.8024 87.4952 57.0627C87.4888 57.3629 87.5402 57.6616 87.6466 57.9424C87.7452 58.178 87.8884 58.3923 88.0685 58.5733C88.2389 58.7431 88.4444 58.8735 88.6706 58.9555C88.8925 59.042 89.1283 59.0872 89.3664 59.0889C89.5316 59.0884 89.6957 59.0628 89.8531 59.0132C90.0038 58.9651 90.1488 58.901 90.2858 58.8221C90.4201 58.7541 90.542 58.6639 90.6463 58.5553C90.7327 58.4563 90.8122 58.3515 90.8843 58.2417C90.9512 58.584 91.1331 58.8931 91.3999 59.1178C91.6609 59.3309 91.9896 59.4434 92.3264 59.435M89.3772 58.5445C89.2242 58.5427 89.0728 58.5134 88.9302 58.458C88.7769 58.4003 88.6371 58.312 88.5192 58.1984C88.3851 58.0739 88.2804 57.9212 88.2127 57.7513C88.1315 57.541 88.0924 57.3169 88.0973 57.0915C88.0916 56.8582 88.1245 56.6255 88.1947 56.4029C88.2504 56.2158 88.3409 56.0409 88.4615 55.8873C88.5708 55.7482 88.7117 55.6369 88.8725 55.5629C89.0366 55.484 89.2168 55.4445 89.3989 55.4475H90.7256V57.1276C90.7336 57.3288 90.6985 57.5294 90.6226 57.7159C90.5468 57.9025 90.4319 58.0707 90.2858 58.2092C90.1626 58.3241 90.0164 58.4114 89.8568 58.4652C89.7007 58.5218 89.536 58.5511 89.37 58.5517M96.6024 54.1279H96.3104V54.3154H97.4533V54.1279H96.9774C96.9335 54.1268 96.8904 54.1166 96.8507 54.098C96.811 54.0794 96.7755 54.0528 96.7466 54.0198C96.711 53.9817 96.6834 53.9369 96.6655 53.8879C96.6475 53.839 96.6396 53.787 96.6421 53.7349C96.6375 53.6872 96.6424 53.639 96.6567 53.5932C96.6709 53.5474 96.6941 53.5048 96.725 53.4681C96.7839 53.4123 96.862 53.3813 96.9431 53.3813C97.0243 53.3813 97.1023 53.4123 97.1613 53.4681C97.1891 53.4981 97.2108 53.5332 97.2251 53.5716C97.2393 53.61 97.2458 53.6508 97.2442 53.6917H97.4533C97.4558 53.6212 97.4432 53.551 97.4165 53.4857C97.3898 53.4204 97.3495 53.3616 97.2983 53.3131C97.2048 53.2306 97.084 53.1857 96.9594 53.1869C96.8913 53.1828 96.8233 53.1947 96.7607 53.2216C96.6981 53.2485 96.6426 53.2897 96.5988 53.3419C96.5133 53.4424 96.4672 53.5705 96.469 53.7025C96.4679 53.7846 96.4852 53.8659 96.5195 53.9404C96.5491 54 96.5841 54.0567 96.6241 54.1099L96.6024 54.1279ZM97.7453 61.6992L97.7273 61.6776C98.1282 61.6883 98.5274 61.621 98.9027 61.4793C99.2335 61.3413 99.5106 61.0997 99.6922 60.7907C99.92 60.3993 100.073 59.9689 100.143 59.5216C100.246 58.8766 100.293 58.2241 100.284 57.571C100.288 57.1681 100.26 56.7654 100.201 56.3669C100.156 56.0495 100.048 55.7442 99.8833 55.4691C99.7408 55.2269 99.5284 55.0334 99.274 54.9139C98.9681 54.7775 98.6353 54.7122 98.3006 54.7228C97.9644 54.7093 97.6301 54.7786 97.3271 54.9247C97.0783 55.0489 96.8669 55.2367 96.7142 55.4691C96.5584 55.7063 96.4517 55.9724 96.4005 56.2515C96.3421 56.5544 96.3132 56.8623 96.314 57.1709C96.311 57.4686 96.3523 57.765 96.4366 58.0506C96.5105 58.3114 96.6328 58.556 96.7971 58.7716C96.9651 58.9752 97.1771 59.138 97.4172 59.2476C97.6943 59.3688 97.9946 59.4279 98.297 59.4206H99.5444C99.5029 59.7053 99.4266 59.9838 99.3173 60.2499C99.2307 60.4544 99.0958 60.635 98.9243 60.7762C98.7585 60.9138 98.5618 61.0091 98.351 61.0539C98.0972 61.1062 97.8386 61.1316 97.5795 61.1296C97.4583 61.1308 97.3374 61.1187 97.2189 61.0935C97.1098 61.0691 97.0043 61.0303 96.9053 60.9781V61.5622C96.9738 61.5911 97.0495 61.6163 97.136 61.6451C97.2191 61.6713 97.3051 61.6871 97.392 61.692C97.5117 61.7058 97.6321 61.713 97.7525 61.7136M96.9413 57.2213L96.9594 57.2033C96.959 56.949 96.9843 56.6953 97.0351 56.4462C97.0768 56.2371 97.1549 56.037 97.2658 55.8549C97.3722 55.6955 97.5157 55.5643 97.684 55.4727C97.8796 55.3708 98.0982 55.3211 98.3186 55.3285C98.5285 55.3087 98.7397 55.3507 98.9261 55.4493C99.1126 55.548 99.266 55.699 99.3678 55.8837C99.601 56.4156 99.7059 56.9948 99.6742 57.5747C99.6742 57.8342 99.6742 58.0722 99.6526 58.2957C99.6309 58.5193 99.6345 58.7248 99.6237 58.9159H98.3078C98.1107 58.935 97.9119 58.9059 97.7285 58.8312C97.5451 58.7565 97.3826 58.6383 97.255 58.4868C97.0215 58.1091 96.9118 57.668 96.9413 57.2249M101.268 61.144V61.1151C101.165 61.1169 101.063 61.1035 100.965 61.0755C100.866 61.0461 100.769 61.0087 100.677 60.9637V61.5262C100.722 61.5651 100.775 61.5945 100.832 61.6127C100.894 61.6451 100.961 61.667 101.03 61.6776C101.14 61.6982 101.253 61.7079 101.365 61.7064C101.585 61.7152 101.804 61.6628 101.996 61.555C102.171 61.442 102.312 61.2838 102.403 61.0971C102.519 60.8709 102.597 60.6274 102.634 60.376C102.681 60.0731 102.703 59.7668 102.699 59.4603V54.867H102.14V59.4603C102.143 59.7244 102.126 59.9883 102.09 60.2499C102.07 60.4292 102.023 60.6044 101.949 60.769C101.894 60.8908 101.8 60.9909 101.682 61.0539C101.55 61.1147 101.406 61.1443 101.261 61.1404M59.7987 55.6494L59.0271 54.8778L58.2375 55.671L59.0055 56.439L59.7987 55.6494ZM61.623 56.5075V57.5566C61.6354 58.0439 61.5734 58.5302 61.4391 58.9988C61.3377 59.3618 61.1594 59.6987 60.9163 59.9867C60.6889 60.2404 60.4048 60.4368 60.0871 60.5599C59.7403 60.6846 59.3739 60.7457 59.0055 60.7402C58.637 60.7465 58.2704 60.6854 57.9239 60.5599C57.6049 60.4373 57.3195 60.2409 57.091 59.9867C56.848 59.6987 56.6697 59.3618 56.5683 58.9988C56.434 58.5302 56.372 58.0439 56.3844 57.5566V56.5075H55.3028V57.7008C55.3013 58.1873 55.3619 58.6719 55.483 59.143C55.6003 59.6094 55.8086 60.0481 56.0959 60.4337C56.3928 60.8264 56.7799 61.1417 57.2244 61.3531C57.7801 61.5987 58.3839 61.7158 58.9911 61.6956C59.5982 61.7158 60.2021 61.5987 60.7577 61.3531C61.2016 61.1407 61.5884 60.8255 61.8862 60.4337C62.1725 60.0479 62.3795 59.6092 62.4955 59.143C62.6195 58.6724 62.6813 58.1875 62.6794 57.7008V56.5075H61.623ZM73.9714 59.6982C74.3998 59.7052 74.8241 59.6139 75.2117 59.4314C75.5685 59.256 75.8593 58.9703 76.0409 58.6166C76.128 58.8627 76.2924 59.0739 76.5096 59.2187C76.7181 59.3529 76.9612 59.4231 77.2091 59.4206H85.3284V58.4364H83.3346C83.1648 58.4471 82.995 58.4163 82.8398 58.3466C82.6846 58.2768 82.5488 58.1703 82.4441 58.0361C82.2289 57.7178 82.1226 57.3383 82.1412 56.9545C82.1178 56.6169 82.2264 56.2834 82.4441 56.0243C82.5494 55.9197 82.6751 55.8378 82.8134 55.7839C82.9518 55.7299 83.0997 55.705 83.2481 55.7107C83.3722 55.7111 83.4948 55.7369 83.6086 55.7864C83.72 55.8327 83.8206 55.9014 83.9043 55.9883C83.9942 56.0761 84.0685 56.1785 84.1242 56.2911C84.1601 56.3607 84.1902 56.433 84.2143 56.5075H85.2455C85.2089 56.2962 85.1497 56.0895 85.0688 55.891C84.9819 55.664 84.8521 55.456 84.6866 55.278C84.518 55.1017 84.3124 54.965 84.0845 54.8778C83.8101 54.7764 83.519 54.7274 83.2265 54.7336C82.9143 54.7296 82.6041 54.7821 82.3107 54.8886C82.043 54.985 81.7977 55.1346 81.5896 55.3285C81.3863 55.5229 81.2298 55.7608 81.1317 56.0243C81.0215 56.3219 80.9665 56.6372 80.9695 56.9545C80.9694 57.0995 80.9888 57.2438 81.0272 57.3836C81.1024 57.6534 81.2114 57.9126 81.3517 58.1551C81.41 58.2473 81.4764 58.3342 81.55 58.4147L81.5896 58.4327H77.2307C77.1141 58.4327 76.9984 58.4132 76.8882 58.3751C76.7821 58.3359 76.6842 58.2772 76.5998 58.202C76.5061 58.117 76.4365 58.0088 76.3979 57.8883C76.3441 57.7219 76.3185 57.5476 76.3221 57.3728C76.3292 57.0201 76.2705 56.6692 76.1491 56.338C76.0459 56.0554 75.8794 55.8001 75.6624 55.5917C75.4505 55.3927 75.1967 55.2436 74.9196 55.1554C74.3034 54.9631 73.6431 54.9631 73.0268 55.1554C72.7498 55.2436 72.496 55.3927 72.2841 55.5917C72.0694 55.802 71.9033 56.0567 71.7974 56.338C71.676 56.6692 71.6173 57.0201 71.6243 57.3728C71.6279 57.5476 71.6024 57.7219 71.5486 57.8883C71.51 58.0088 71.4404 58.117 71.3467 58.202C71.2636 58.2772 71.1669 58.3359 71.0619 58.3751C70.946 58.4151 70.824 58.4346 70.7013 58.4327H64.9327V53.2158H63.8511V59.4098H70.7302C70.9769 59.4122 71.2189 59.342 71.426 59.2079C71.6441 59.0641 71.8088 58.8525 71.8947 58.6058C72.0774 58.9587 72.3679 59.2441 72.724 59.4206C73.1127 59.6035 73.5383 59.6948 73.9678 59.6874M73.9967 58.7608C73.8199 58.7705 73.6432 58.7391 73.4806 58.669C73.3179 58.5989 73.1737 58.4922 73.0593 58.357C72.8562 58.0582 72.7477 57.7052 72.7477 57.3439C72.7477 56.9826 72.8562 56.6296 73.0593 56.3308C73.3074 56.0827 73.644 55.9433 73.9949 55.9433C74.3458 55.9433 74.6823 56.0827 74.9305 56.3308C75.1518 56.625 75.264 56.987 75.2477 57.3547C75.2636 57.7191 75.1513 58.0776 74.9305 58.3678C74.8148 58.4992 74.6703 58.602 74.5083 58.6683C74.3464 58.7346 74.1712 58.7626 73.9967 58.75M74.1625 62.7159C74.2643 62.5569 74.3466 62.3862 74.4077 62.2076C74.4676 62.0447 74.4993 61.8728 74.5014 61.6992C74.503 61.5215 74.4699 61.3451 74.4041 61.18C74.3412 61.0243 74.2452 60.8841 74.1229 60.769C73.9935 60.6498 73.8414 60.5579 73.6758 60.4986C73.4866 60.4346 73.2879 60.4029 73.0881 60.4049C72.9255 60.4043 72.7642 60.4337 72.6122 60.4914C72.4549 60.5533 72.3096 60.6424 72.1832 60.7546C72.0468 60.8743 71.9311 61.0156 71.8406 61.1728C71.7504 61.3271 71.6824 61.4934 71.6387 61.6668H72.3598C72.4162 61.5025 72.5129 61.355 72.641 61.2377C72.7661 61.1202 72.931 61.0545 73.1025 61.0539C73.2004 61.0482 73.2984 61.0636 73.3899 61.099C73.4813 61.1345 73.564 61.1892 73.6325 61.2594C73.6936 61.3196 73.742 61.3915 73.7748 61.4708C73.8076 61.55 73.8242 61.6351 73.8236 61.7208C73.8181 61.8269 73.7924 61.9309 73.7479 62.0273C73.7039 62.1352 73.6483 62.238 73.5821 62.3338L71.6279 64.8828V65.4524H74.4437V64.7782H72.5762L74.1625 62.7159ZM85.2238 64.6376C85.3058 64.4451 85.3463 64.2375 85.3428 64.0283V61.829C85.3473 61.6174 85.3068 61.4072 85.2238 61.2125C85.1534 61.0432 85.0463 60.8918 84.9102 60.769C84.78 60.6491 84.6266 60.5571 84.4595 60.4986C84.289 60.4346 84.108 60.4028 83.9259 60.4049C83.7426 60.4029 83.5605 60.4347 83.3887 60.4986C83.2205 60.557 83.0659 60.649 82.9344 60.769C82.8006 60.8938 82.6938 61.0447 82.6207 61.2125C82.5378 61.4072 82.4973 61.6174 82.5018 61.829V64.0283C82.4983 64.2375 82.5388 64.4451 82.6207 64.6376C82.6936 64.8076 82.8004 64.9609 82.9344 65.0883C83.0659 65.2083 83.2205 65.3003 83.3887 65.3587C83.5605 65.4226 83.7426 65.4544 83.9259 65.4524C84.108 65.4545 84.289 65.4227 84.4595 65.3587C84.6266 65.3002 84.78 65.2082 84.9102 65.0883C85.0464 64.9628 85.1535 64.809 85.2238 64.6376ZM84.4667 61.281C84.6096 61.4426 84.6845 61.6531 84.6758 61.8687V63.985C84.6845 64.0933 84.6711 64.2021 84.6364 64.305C84.6017 64.4079 84.5464 64.5027 84.4739 64.5835C84.4038 64.6552 84.3195 64.7115 84.2263 64.7487C84.1332 64.786 84.0333 64.8034 83.9331 64.7998C83.8329 64.8034 83.733 64.786 83.6399 64.7487C83.5468 64.7115 83.4624 64.6552 83.3923 64.5835C83.3203 64.505 83.2648 64.4129 83.2289 64.3126C83.1929 64.2123 83.1774 64.1058 83.1832 63.9995V61.8831C83.1745 61.6676 83.2494 61.457 83.3923 61.2954C83.4599 61.2207 83.543 61.1617 83.6358 61.1225C83.7286 61.0833 83.8288 61.0648 83.9295 61.0683C84.0305 61.0661 84.1309 61.0852 84.224 61.1244C84.3172 61.1635 84.4011 61.2218 84.4703 61.2954M81.7158 65.4668V64.6845H82.1232V64.0175H81.7158V62.5753H81.0416V64.0175H79.8049L81.4562 60.4121H80.7351L79.0262 64.1653V64.6773H81.0452V65.4596L81.7158 65.4668ZM78.0347 64.652C78.1166 64.4595 78.1572 64.2519 78.1537 64.0427V61.8434C78.1582 61.6318 78.1176 61.4217 78.0347 61.2269C77.9646 61.0601 77.8604 60.9098 77.7288 60.7856C77.5971 60.6614 77.441 60.5661 77.2704 60.5058C76.9209 60.3791 76.5381 60.3791 76.1887 60.5058C76.021 60.5651 75.8666 60.657 75.7345 60.7762C75.6017 60.9011 75.4961 61.0521 75.4244 61.2197C75.3415 61.4145 75.3009 61.6246 75.3054 61.8362V64.0355C75.3019 64.2447 75.3425 64.4523 75.4244 64.6448C75.4923 64.813 75.5958 64.9645 75.7277 65.089C75.8596 65.2134 76.0169 65.3079 76.1887 65.3659C76.5381 65.4926 76.9209 65.4926 77.2704 65.3659C77.4371 65.3066 77.5903 65.2147 77.721 65.0955C77.8551 64.9681 77.9618 64.8148 78.0347 64.6448M77.2631 61.2882C77.407 61.4494 77.4832 61.6599 77.4759 61.8759V63.9922C77.4821 64.1 77.4665 64.208 77.43 64.3096C77.3934 64.4112 77.3367 64.5044 77.2631 64.5835C77.1934 64.6548 77.1097 64.7107 77.0172 64.748C76.9248 64.7852 76.8256 64.8029 76.726 64.7998C76.6257 64.8034 76.5258 64.786 76.4327 64.7487C76.3396 64.7115 76.2553 64.6552 76.1851 64.5835C76.0411 64.424 75.966 64.2141 75.976 63.9995V61.8831C75.9692 61.6679 76.0439 61.458 76.1851 61.2954C76.2533 61.2205 76.337 61.1613 76.4304 61.1221C76.5238 61.0828 76.6247 61.0645 76.726 61.0683C76.8264 61.0666 76.926 61.086 77.0185 61.1251C77.111 61.1642 77.1944 61.2222 77.2631 61.2954M91.2845 53.5907L90.8771 53.1833L90.4697 53.5907L90.8771 53.9981L91.2845 53.5907ZM90.4697 53.5907L90.0623 53.1833L89.6549 53.5907L90.0623 53.9981L90.4697 53.5907ZM95.3478 61.3098L94.944 60.9024L94.5329 61.3098L94.944 61.7172L95.3478 61.3098ZM94.5329 61.3098L94.1255 60.9024L93.7181 61.3098L94.1363 61.6992L94.5329 61.3098Z" fill="white"/>
</svg>
