<svg width="210" height="150" viewBox="0 0 210 150" fill="none" xmlns="http://www.w3.org/2000/svg">
<mask id="mask0_1707_15243" style="mask-type:luminance" maskUnits="userSpaceOnUse" x="69" y="107" width="75" height="43">
<path d="M125.366 149.345L125.454 149.999L125.807 149.712L125.741 149.095L125.366 149.345ZM121.878 149.161V149.896L122.274 149.653V148.985L121.878 149.161ZM128.598 149.073L128.722 149.668L129.024 149.345L128.928 148.779L128.598 149.073ZM118.154 148.442V149.213L118.595 149.007V148.273L118.154 148.442ZM131.535 148.368L131.682 148.897L131.946 148.545L131.822 148.038L131.535 148.368ZM114.27 147.193L114.196 148.038L114.688 147.884L114.762 147.098L114.27 147.193ZM134.157 147.311L134.326 147.781L134.546 147.406L134.392 146.958L134.157 147.311ZM125.065 146.488L125.153 147.223L125.653 146.775L125.587 146.04L125.065 146.488ZM128.091 146.341L128.223 147.024L128.656 146.54L128.553 145.893L128.091 146.341ZM121.76 146.238L121.812 147.076L122.377 146.672V145.886L121.76 146.238ZM110.267 145.431L110.128 146.349L110.671 146.246L110.811 145.394L110.267 145.431ZM130.83 145.842L130.984 146.444L131.359 145.93L131.234 145.357L130.83 145.842ZM118.294 145.475V146.4L118.926 146.048V145.181L118.294 145.475ZM133.305 144.946L133.474 145.475L133.797 144.939L133.643 144.432L133.305 144.946ZM114.673 144.212L114.615 145.21L115.349 144.917L115.415 143.977L114.673 144.212ZM138.402 144.336L138.585 144.682L138.725 144.285L138.549 143.962L138.402 144.336ZM124.874 143.83L124.97 144.623L125.645 144.028L125.565 143.294L124.874 143.83ZM135.471 143.727L135.662 144.182L135.919 143.639L135.751 143.205L135.471 143.727ZM127.731 143.786L127.856 144.52L128.451 143.874L128.341 143.198L127.731 143.786ZM106.022 144.013L106.624 143.977L106.837 143.044L106.235 143.007L106.022 144.013ZM121.79 143.462L121.863 144.351L122.598 143.793L122.553 142.956L121.79 143.462ZM130.345 143.367L130.492 143.991L131.006 143.316L130.882 142.721L130.345 143.367ZM110.957 142.42L110.84 143.521L111.618 143.286L111.743 142.265L110.957 142.42ZM118.536 142.655V143.639L119.366 143.132V142.207L118.536 142.655ZM140.01 142.434L140.083 142.537H140.157L140.201 142.699L140.289 142.317L140.128 142.045L140.01 142.434ZM132.666 142.603L132.828 143.147L133.261 142.456L133.114 141.935L132.666 142.603ZM137.307 142.243L137.491 142.625L137.689 142.074L137.52 141.715L137.307 142.243ZM115.114 141.399V142.478L116.032 142.038V141.017L115.114 141.399ZM134.73 141.553L134.774 141.678L135.016 141.803L135.259 141.311L135.104 140.87L134.73 141.553ZM124.852 141.333L124.97 142.119L125.807 141.384L125.719 140.65L124.852 141.333ZM127.569 141.369L127.702 142.067L128.436 141.333L128.333 140.657L127.569 141.369ZM130.059 141.054L130.206 141.656L130.859 140.855L130.742 140.275L130.059 141.054ZM121.929 140.907L122.032 141.788L122.965 141.112L122.891 140.261L121.929 140.907ZM107.197 140.114L107.021 141.318L107.873 141.149L108.057 140.04L107.197 140.114ZM101.961 141.112H102.637L102.923 140.084L102.262 139.967L101.961 141.112ZM138.879 140.518L139.063 140.833L139.21 140.283L139.033 139.989L138.879 140.518ZM141.295 140.319L141.464 140.547L141.523 140.172L141.369 139.959L141.295 140.319ZM132.328 140.393L132.482 140.914L133.048 140.092L132.916 139.585L132.328 140.393ZM136.529 140.202L136.705 140.591L136.992 139.857L136.83 139.489L136.529 140.202ZM118.904 140.048L118.984 141.032L120.012 140.407L119.961 139.467L118.904 140.048ZM111.699 139.629L111.648 140.819L112.654 140.444L112.72 139.328L111.699 139.629ZM134.333 139.453L134.495 139.886L134.965 139.049L134.825 138.623L134.333 139.453ZM116.15 138.564L115.694 138.77L115.76 139.864L115.907 139.791V139.849L116.179 138.461L116.15 138.564ZM127.694 139.122L127.834 139.768L128.737 138.909L128.7 138.704L128.458 138.425L127.694 139.122ZM116.524 138.388L116.752 138.667L116.62 139.401L116.877 139.269V138.226L116.524 138.388ZM125.08 138.997L125.227 139.732L126.233 138.931L126.123 138.197L125.08 138.997ZM140.135 138.564L140.311 138.814L140.407 138.285L140.238 138.043L140.135 138.564ZM130.059 138.909L130.199 139.467L131.006 138.586L130.896 138.035L130.059 138.909ZM138.012 138.652L138.181 138.968L138.394 138.234L138.24 137.932L138.012 138.652ZM123.361 137.844L123.405 137.896V137.822L123.361 137.844ZM142.243 138.043L142.397 138.219V137.874L142.257 137.712L142.243 138.043ZM136.008 138.27L136.162 138.63L136.529 137.808L137.124 138.219L136.301 137.646L136.008 138.27ZM123.075 138.028L122.252 138.557L122.399 139.394L122.972 139.012V139.313L123.163 137.58L123.075 138.028ZM132.872 137.543L132.233 138.344L132.365 138.814L133.099 137.896L132.982 137.433L132.872 137.543ZM103.305 138.593L104.238 138.513L104.487 137.294H103.555L103.305 138.593ZM108.181 137.418L108.093 138.726L109.188 138.425L109.29 137.198L108.181 137.418ZM119.293 137.683L119.454 138.63L120.651 137.932L120.527 137.015L119.293 137.683ZM127.929 137.132L128.083 137.712L128.142 137.661V136.926L127.929 137.132ZM112.382 137.073L112.448 138.285L113.653 137.786V136.633L112.382 137.073ZM134.12 137.514L134.252 137.903L134.862 136.97L134.744 136.581L134.12 137.514ZM98.0468 137.697L98.7812 137.815L99.1557 136.684L98.4213 136.471L98.0468 137.697ZM122.671 136.442L122.869 137.176L123.266 136.941L122.833 136.309L122.671 136.442ZM128.355 136.802L128.744 137.176L129.148 136.853L129.024 136.273L128.355 136.802ZM139.195 136.868L139.356 137.117L139.503 136.427L139.349 136.185L139.195 136.868ZM125.396 136.963L125.565 137.639L126.732 136.831L126.593 136.155L125.396 136.963ZM130.257 136.963L130.397 137.455L131.359 136.552L131.249 136.06L130.257 136.963ZM141.024 136.478L141.185 136.669L141.229 136.17L141.075 135.979L141.024 136.478ZM137.432 136.824L137.579 137.11L137.88 136.258L137.741 135.979L137.432 136.824ZM117.031 135.957L116.73 137.095L116.039 135.81L116.296 136.295H116.201L116.385 137.36L117.67 136.721L117.53 135.693L117.031 135.957ZM123.464 135.898L123.303 136.875L124.118 136.39L123.949 135.619L123.464 135.898ZM132.637 136.104L132.688 136.148L132.732 136.53L133.32 135.884L133.224 135.472L132.637 136.104ZM135.751 136.346L135.883 136.662L135.919 136.574L136.147 137.477L135.846 136.258L136.03 136.376L136.382 135.707L136.265 135.392L135.751 136.346ZM142.845 135.524L142.977 135.656V135.347L142.852 135.223L142.845 135.524ZM134.539 135.223L134.201 135.649L134.311 135.986L134.774 135.369L134.311 135.068L134.539 135.223ZM130.691 135.223L130.808 135.627L131.542 135.098L131.227 134.848L130.691 135.223ZM119.785 135.487L120.027 136.368L121.364 135.671L121.158 134.797L119.785 135.487ZM92.3185 135.766L92.8766 136.038L93.3393 135.083L92.8179 134.723L92.3185 135.766ZM104.744 134.701L104.62 136.133L105.795 135.913L105.927 134.576L104.744 134.701ZM128.392 135.369L128.546 135.854L129.751 135.076L129.626 134.569L128.392 135.369ZM109.077 134.899L109.136 136.236L110.429 135.803V134.54L109.077 134.899ZM131.535 134.613V135.083L131.88 134.819L131.785 134.4L131.535 134.613ZM138.578 135.083L138.703 135.369L138.908 134.532L138.784 134.319L138.578 135.083ZM140.047 134.885L140.194 135.076L140.274 134.4L140.135 134.224L140.047 134.885ZM113.05 134.686L113.256 135.876L114.622 135.296L114.46 134.15L113.05 134.686ZM137.109 135.061L137.227 135.311L137.52 134.576L137.873 135.458L137.506 134.547L137.601 134.312L137.491 134.07L137.109 135.061ZM132.703 134.826L132.798 135.156L133.797 134.268L133.731 133.967L132.703 134.826ZM99.6551 135.377H100.669L100.977 134.04L99.9782 133.93L99.6551 135.377ZM135.765 134.686L135.861 134.944L136.463 133.996L136.265 133.908L135.765 134.686ZM123.148 134.576L123.347 135.098L123.457 135.245L124.786 134.591L124.566 133.857L123.148 134.576ZM141.574 134.18L141.721 134.327V133.857L141.582 133.717L141.574 134.18ZM116.752 134.224L116.906 134.738L117.192 135.164L118.463 134.576L118.213 133.592L116.752 134.224ZM130.353 133.321L129.097 133.93L129.244 134.319L130.338 133.798V133.321L130.522 133.453L130.463 133.247L130.353 133.321ZM134.612 134.055L134.678 134.312L135.567 133.379L135.516 133.115L134.612 134.055ZM120.365 133.57L120.695 134.371L122.164 133.754L121.878 132.946L120.365 133.57ZM143.131 132.924L143.249 133.019V132.748L143.146 132.667L143.131 132.924ZM137.146 133.365L137.219 133.556L137.667 132.689H137.513L137.146 133.365ZM126.864 133.46L126.527 133.6L126.74 134.084L127.107 133.937L127.063 134.415L125.851 135.083L126.057 135.671L127.092 135.083L127.004 134.988L127.121 133.82L127.202 133.901L128.142 133.519L128.003 132.99L127.4 133.24L127.276 133.798L126.908 133.438L126.005 132.586L126.864 133.46ZM138.211 133.46L138.321 133.644L138.497 133.056L138.835 133.622L138.453 132.975H138.519L138.622 132.652L138.527 132.476L138.211 133.46ZM123.817 132.99L124.118 133.585L125.587 133.071L125.322 132.461L123.817 132.99ZM139.4 133.24L139.54 133.276L139.65 132.601L139.533 132.439L139.4 133.24ZM136.154 133.1L136.206 133.291L136.801 132.557L136.713 132.425L136.154 133.1ZM130.279 132.704H130.345V132.961L131.476 132.63L131.388 132.336L130.279 132.704ZM94.294 133.702L95.1165 133.923L95.5792 132.682L94.7934 132.351L94.294 133.702ZM131.094 132.314H131.285L131.043 132.234L131.094 132.314ZM136.801 132.219L136.507 132.175L137.763 132.38H137.594L136.859 132.27V132.145L136.801 132.219ZM133.481 132.175V132.219H133.65L132.556 132.123L133.481 132.175ZM140.583 132.704L140.715 132.843V132.197L140.59 132.072L140.583 132.704ZM109.848 132.586L110.091 133.915L111.56 133.394L111.361 132.123L109.848 132.586ZM132.38 132.109L131.528 132.197L131.844 132.307L132.578 132.234V132.16H132.453V132.094L132.38 132.109ZM105.773 132.322L105.839 133.791L107.205 133.431L107.168 132.043L105.773 132.322ZM133.68 132.197H133.812L134.811 132.028V131.984L133.68 132.197ZM113.675 132.535L114.042 133.68L115.511 133.078L115.195 131.962L113.675 132.535ZM129.222 131.874H129.266L129.097 132.028L128.781 131.852H128.355L128.539 132.072H128.943L128.899 132.285L128.847 132.168L127.342 132.527L127.547 132.895L129.016 132.557L128.972 132.461L128.869 132.403L128.957 131.947L129.156 132.065H130.037L129.89 131.83L129.222 131.874ZM129.648 131.8L130.94 132.006H131.08L129.538 131.771L129.648 131.8ZM117.53 132.241L117.662 132.461L117.53 132.77L117.743 133.254L119.212 132.682L118.83 131.742L117.53 132.241ZM137.579 131.742L137.432 131.969V132.094L137.667 131.734L137.579 131.742ZM138.314 131.698L138.196 131.984L138.262 132.109L138.431 131.683L138.314 131.698ZM120.938 132.065L121.349 132.799L121.856 132.652L122.23 131.72L122.759 132.373H122.862L122.598 131.866L122.509 131.977L122.274 131.698L120.938 132.065ZM136.551 131.653L136.279 131.808L136.221 131.881L136.676 131.624L136.551 131.653ZM136.837 131.881V131.991L137.197 131.646L137.139 131.595L136.837 131.881ZM101.484 131.587L101.329 133.152L102.578 133.012L102.74 131.543L101.484 131.587ZM141.413 131.477H141.956V131.815L142.081 131.918V131.485H141.413V131.477ZM126.49 131.551H127.371L127.077 131.198H126.012L126.49 131.551ZM137.175 131.595H137.322L137.697 131.227H137.594L137.175 131.595ZM136.683 131.595L135.648 131.866L136.815 131.587L137.374 131.272L137.447 131.183L136.683 131.595ZM138.093 131.066L137.785 131.536H137.902L138.181 131.11V131.051L138.093 131.066ZM125.844 131.631L124.58 131.859L124.911 132.344L126.108 132.131L126.181 131.903L126.38 132.087H126.438L126.394 132.013L124.992 130.941L125.844 131.631ZM137.645 131.066L137.741 131.029V130.956L137.645 131.066ZM139.055 131.8H139.165L139.327 131.029L139.232 130.956L139.055 131.8ZM138.409 131.492L138.49 131.558L138.681 131.073L138.629 130.948L138.409 131.492ZM140.003 130.956V131.338L140.106 131.44L140.142 130.934L140.003 130.956ZM138.233 130.647L138.181 130.706V130.757L138.284 130.633L138.233 130.647ZM122.546 130.706L123.06 131.264L123.009 131.33L123.662 131.242L123.214 130.603L122.546 130.706ZM140.025 130.706L139.085 130.875L140.238 130.669H140.135L140.039 130.567L140.025 130.706ZM138.681 130.361L138.556 130.596V130.662L138.725 130.317L138.681 130.361ZM143.087 130.361H143.139H143.094H143.087ZM117.956 130.735L118.5 131.602L120.027 131.191L119.52 130.317L117.956 130.735ZM96.3136 131.852L97.2095 131.932L97.5253 131.308V131.367L97.7457 130.515L96.6808 130.28L96.3136 131.852ZM124.955 130.383L124.727 130.236L124.595 130.199L124.955 130.383ZM114.365 130.655L114.901 131.742L116.414 131.213L115.922 130.126L114.365 130.655ZM140.943 130.559L141.06 130.647V130.089L140.95 130.008L140.943 130.559ZM110.671 130.5L111.119 131.8L112.632 131.25L112.235 129.986L110.671 130.5ZM88.6392 131.132L89.2707 131.521L89.8509 130.471L89.2781 129.979L88.6392 131.132ZM123.736 130.052L123.986 130.126L122.796 130.067L122.531 130.126L122.95 130.53L124.507 130.633L124.03 130.141L124.617 130.309L124.11 130.045H124.375L123.251 129.722L123.736 130.052ZM106.845 130.089L107.139 131.558L108.607 131.095L108.358 129.685L106.845 130.089ZM138.989 129.788L138.754 130.258L138.387 130.508L138.96 129.832V129.788L138.343 130.522L137.829 130.89L138.828 130.192H138.791L139.107 129.575V129.502L138.989 129.788ZM139.724 129.333L139.65 129.92L139.18 130.148L139.305 129.7H139.268L139.092 130.332L139.136 130.39L139.195 130.17L140.238 129.671L139.79 129.884L139.856 129.259L139.724 129.333ZM118.602 129.391L119.241 130.17L120.769 130.008L120.145 129.201L118.602 129.391ZM102.747 129.347L102.82 130.978L104.289 130.691L104.238 129.164L102.747 129.347ZM139.819 129.105V129.046L139.753 128.995V129.171L139.378 129.509V129.377L139.334 129.311L139.261 129.582L139.129 129.7L139.995 128.966L139.819 129.105ZM141.912 129.252L142.022 129.325L142 128.914L141.897 128.855L141.912 129.252ZM114.975 128.914L115.658 129.95L116.392 129.759L116.318 129.619L116.84 129.083L116.48 128.518L114.975 128.914ZM121.54 128.797L121.202 128.554L121.077 128.51L121.54 128.797ZM140.311 129.208L140.392 129.267V128.532L140.311 128.481V129.208ZM139.702 128.202L139.635 128.547L139.716 128.099L139.702 128.202ZM120.475 128.569L120.571 128.606L119.183 128.481L119.917 129.156L121.173 129.289L120.835 128.973L121.423 128.892L121.048 128.936L120.769 128.657L121.423 128.892L120.49 128.305L119.755 128.055L120.475 128.569ZM111.435 128.481L111.545 128.738L112.059 129.729L113.572 129.23L112.955 127.974L111.435 128.481ZM91.0553 129.436L91.9513 129.773L92.5168 128.444L91.6649 127.981L91.0553 129.436ZM140.935 127.702L140.987 128.136L141.082 128.187L141.016 127.629L140.935 127.702ZM107.711 127.996L108.247 129.465L109.775 128.951L109.283 127.482L107.711 127.996ZM139.709 128.143L139.746 128.048L139.841 127.519L139.709 128.143ZM139.959 127.203V127.937H140.003V127.049L139.959 127.203ZM103.863 127.203L104.208 128.855L105.736 128.444L105.435 126.873L103.863 127.203ZM117.714 126.887L118.301 127.13L118.602 127.284L117.589 126.748L117.714 126.887ZM116.774 127.357L115.459 127.511L116.282 128.496L116.957 128.429L116.407 127.585L117.281 127.335L116.612 126.557L115.878 126.491L116.774 127.357ZM118.309 127.063L117.457 126.403H117.383L118.309 127.063ZM141.618 126.623L141.706 126.66L141.633 126.329H141.552L141.618 126.623ZM140.326 126.953H140.37L140.296 126.219H140.245L140.326 126.953ZM93.3246 127.761L94.4776 127.981L94.9182 126.439L93.7946 126.079L93.3246 127.761ZM116.385 125.808L116.803 126.123L116.201 125.888L116.935 126.439L117.347 126.527L116.825 126.123L116.407 125.8L116.385 125.808ZM101.087 125.969L99.9195 126.043L99.9782 127.269L99.4054 128.106L98.414 128.04L98.2304 129.751H99.0823L98.884 128.966L100.03 127.166L100.257 127.783L101.469 127.622V127.504L101.381 127.592L101.006 125.661L101.065 125.969M140.781 125.418L140.737 125.198H140.671L140.737 125.543L140.583 125.962L140.957 124.948L140.781 125.418ZM139.988 124.912L140.039 125.646L139.966 126.571L140.047 125.565L140.003 124.831L139.988 124.912ZM85.5694 126.021L86.2597 126.542L86.7224 125.808L86.5755 124.978L86.3626 124.757L85.5694 126.021ZM104.913 125.242L105.545 126.902L107.058 126.41L106.47 124.794L104.913 125.242ZM95.4911 126.131L96.8717 126.19L97.0847 124.486L95.6894 124.221L95.4911 126.131ZM114.409 125.169L113.183 124.662L113.66 125.139L113.322 125.191L113.697 125.925L112.889 125.888L113.374 126.454L112.558 126.674L112.749 127.1L112.331 127.291L112.867 128.062L114.336 127.688L113.601 126.557L114.842 126.403L113.983 125.36L115.107 125.492L114.049 124.442L114.82 124.809L113.55 123.957L114.409 125.169ZM140.083 123.986L140.208 124.64H140.245L140.113 123.957L140.083 123.986ZM114.872 124.853L115.092 124.963L113.88 123.928L114.872 124.853ZM101.234 124.119L101.462 125.183L101.036 125.624L102.46 124.207L102.886 125.675L103.173 125.609L102.82 123.876L101.234 124.119ZM113.851 123.928L113.719 123.817L113.631 123.781L113.851 123.928ZM113.006 123.619L113.241 123.729L113.006 123.502L112.698 123.362L113.006 123.619ZM88.2867 124.875L89.2414 125.338L89.917 123.935L89.0211 123.333L88.2867 124.875ZM107.08 122.863L107.124 123.046H106.492L105.721 123.325L106.632 125.007L108.02 124.478L107.139 122.811L107.08 122.863ZM97.3931 122.518L97.4739 124.456L98.9941 124.317L98.928 122.51L97.3931 122.518ZM91.2536 122.18L90.8056 123.612L92.0174 123.957L92.5315 122.327L91.54 121.908L91.2536 122.18ZM102.314 122.18L103.048 124.045L103.246 123.972L103.07 122.885L104.106 122.415L103.856 121.739L102.314 122.18ZM106.72 121.335L107.065 122.65L107.476 123.259L108.651 122.76L108.181 122.07L106.823 121.622L106.705 121.284L106.72 121.335ZM108.519 121.416L108.864 121.262L108.718 121.071L109.834 121.754L110.495 122.488L109.43 122.767L110.385 123.92L109.092 124.339L109.995 125.631L108.527 126.109L109.312 127.578L110.781 127.078L110.128 125.815L111.442 125.411L110.62 124.221L111.758 123.986L110.869 122.899H111.817L110.774 121.791L111.545 122.187L110.37 121.085L110.943 121.82L110.15 121.181L110.26 121.284H109.782L110.003 121.798L108.292 120.762L108.519 121.416ZM110.135 120.85L109.907 120.63L109.826 120.593L110.135 120.85ZM93.3613 120.997L93.1777 122.246L94.5951 122.407L94.8668 120.608L94.3087 120.483L93.3613 120.997ZM98.8473 120.711L99.2659 122.709L100.801 122.378L100.419 120.476L98.8473 120.711ZM80.0688 121.35L80.5535 121.996L81.3613 121.159L80.9427 120.425L80.0688 121.35ZM103.188 120.322L104.201 122.238L105.053 121.835L104.913 120.968H105.148L104.509 119.734L103.188 120.322ZM83.1532 120.77L83.8876 121.438L84.6734 120.256L84.0272 119.47L83.1532 120.77ZM97.1581 119.007L97.2242 119.345L98.693 119.037L98.649 118.824L97.1581 119.007ZM95.469 119.815L95.2487 119.94V120.836L96.7763 120.777V119.059L96.2255 119.125V118.824L95.3589 118.78L95.469 119.815ZM86.0027 120.057L86.9941 120.66L87.7946 119.227L86.8693 118.493L86.0027 120.057ZM99.9562 118.919L100.691 120.975L102.101 120.447L101.366 118.449L99.9562 118.919ZM107.462 119.551L107.844 119.991V120.065L107.462 119.551ZM107.028 118.405L106.713 118.119L106.397 118.317L107.315 119.382L106.485 119.837L107.954 120.38L107.66 119.411L108.578 119.991L106.918 118.089L107.028 118.405ZM103.672 118.486L104.957 120.491L105.971 119.815L104.664 117.781L103.672 118.486ZM102.762 117.568L102.813 117.502L102.673 117.428L102.762 117.568ZM88.6979 119.22L89.9391 119.69L90.5559 118.016L89.3662 117.391L88.6979 119.22ZM101.359 116.811V118.17L101.895 119.264L103.026 118.53L102.409 117.274L101.44 116.738L101.359 116.811ZM103.871 116.723L105.405 118.846L105.978 118.207L105.582 117.656V118.06L103.878 116.716L103.871 116.723ZM91.2095 118.243L92.6416 118.515L92.9941 116.65L91.5841 116.216L91.2095 118.243ZM101.432 115.306L101.484 115.394L101.528 115.174L101.432 115.306ZM98.0174 115.548L98.3479 116.547H98.5021V117.12L98.7151 117.788L99.0162 117.656L98.8546 117.612L99.1116 115.489L99.5155 115.614L99.3319 115.041L98.0174 115.548ZM93.4862 117.112H94.999V115.1L93.4715 114.939L93.4862 117.112ZM78.0639 115.482L78.5633 116.283L79.518 115.475L79.1067 114.586L78.0639 115.482ZM101.609 115.034L103.026 115.879L102.13 114.344L101.609 115.034ZM81.3246 115.431L82.059 116.253L83.0504 115.152L82.4042 114.212L81.3246 115.431ZM84.3797 115.218L85.3785 115.952L86.3038 114.557L85.3931 113.683L84.3797 115.218ZM95.1753 113.587L95.4984 115.849L96.9672 115.556L96.6588 113.396L95.1753 113.587ZM101.609 113.36V113.433L103.173 115.857L103.386 114.858L102.872 114.057L101.946 113.029L101.609 113.36ZM87.2291 114.828L88.4629 115.431L89.1973 113.778L88.0223 113.044L87.2291 114.828ZM98.9794 113.822L99.7799 115.651L100.367 115.827L100.97 115.284L99.9488 112.956L98.9794 113.822ZM98.4286 113.029L98.4947 112.948L98.3699 112.846L98.4286 113.029ZM89.8583 114.226L91.2756 114.601L91.753 112.728L90.9745 112.427L90.3356 112.309L89.8583 114.226ZM100.874 114.52L101.212 113.639L99.6331 112.089L100.874 114.52ZM94.2646 112.434L94.7861 112.317L94.2646 112.023V112.434ZM96.5119 112.141L97.1581 114.505L98.3772 113.837L98.0468 112.596L97.0994 111.862L96.5119 112.141ZM92.3258 111.722L92.201 113.426L93.6698 113.499L93.7946 111.825L92.7224 111.289L92.414 111.245L92.3258 111.722ZM99.9342 110.988L100.257 111.325L100 110.804L99.9342 110.988ZM94.9623 109.989L95.6012 110.341V109.908L94.9623 109.989ZM97.7824 110.312L98.7224 111.046L98.9721 110.936L98.4213 109.423L97.7824 110.312ZM80.3993 110.312L81.1337 111.267L82.2646 110.297L81.6477 109.232L80.3993 110.312ZM83.5351 110.569L84.4972 111.458L85.5694 110.18L84.6808 109.137L83.5351 110.569ZM77.0357 109.835L77.5278 110.775L78.6147 110.099L78.2255 109.078L77.0357 109.835ZM86.436 110.569L86.5535 110.642L88.1251 110.451L88.5364 109.717L87.4201 108.836L86.436 110.569ZM73.4225 109.085L73.7163 109.93L74.6857 109.519L74.4801 108.623L73.4225 109.085ZM89.0798 110.341L89.6526 110.547L89.9758 109.702L90.7763 109.886L91.092 109.012L89.7775 108.38L89.0798 110.341ZM69.5449 108.138L69.6331 108.828L70.4335 108.527V107.793L69.5449 108.138Z" fill="white"/>
</mask>
<g mask="url(#mask0_1707_15243)">
<path d="M94.0694 72.3202L49.7617 136.309L120.706 185.432L165.013 121.444L94.0694 72.3202Z" fill="url(#paint0_linear_1707_15243)"/>
</g>
<mask id="mask1_1707_15243" style="mask-type:luminance" maskUnits="userSpaceOnUse" x="0" y="0" width="154" height="148">
<path d="M136.517 146.974L136.869 147.136L136.671 145.718L136.34 145.667L136.517 146.974ZM130.37 145.66L130.788 145.983L130.7 144.36L130.304 144.169L130.37 145.66ZM140.005 143.802L140.512 144.037L140.159 142.568L139.696 142.45L140.005 143.802ZM123.481 143.324L123.951 143.853L124.039 142.054L123.577 141.679L123.481 143.324ZM134.952 143.155L135.532 143.581L135.29 141.922L134.747 141.628L134.952 143.155ZM129.253 141.687L129.907 142.355L129.834 140.541L129.209 140.034L129.253 141.687ZM142.223 140.592L142.862 140.871L142.392 139.476L141.804 139.315L142.223 140.592ZM138.073 140.453L138.808 140.93L138.433 139.41L137.75 139.065L138.073 140.453ZM133.373 139.652L134.188 140.387L133.961 138.756L133.19 138.198L133.373 139.652ZM115.873 139.843L116.372 140.629L116.725 138.676L116.218 138.066L115.873 139.843ZM122.938 139.285L123.672 140.24L123.848 138.316L123.165 137.581L122.938 139.285ZM140.034 137.816L140.901 138.272L140.424 136.994L139.616 136.649L140.034 137.816ZM128.137 138.118L129.018 139.109V137.42L128.174 136.605L128.137 138.118ZM143.435 137.552L144.169 137.816L143.618 136.634L142.884 136.458L143.435 137.552ZM136.164 137.552L137.126 138.228L136.774 136.891L135.863 136.333L136.164 137.552ZM131.831 136.656L132.874 137.581L132.705 136.223L131.677 135.378L131.831 136.656ZM137.912 135.503L138.999 136.069L138.573 135.055L137.545 134.592L137.912 135.503ZM141.092 135.371L142.076 135.738L141.547 134.754L140.629 134.468L141.092 135.371ZM122.409 135.738L123.305 137.038L123.591 135.356L122.703 134.247L122.409 135.738ZM134.328 135.143L135.51 135.878L135.231 134.871L134.1 134.211L134.328 135.143ZM116.056 135.878L116.747 137.163L117.261 135.202L116.526 134.137L116.056 135.878ZM143.868 134.776L144.734 134.982L144.14 134.042L143.332 133.909L143.868 134.776ZM127.05 135.07L128.137 136.267L128.225 134.945L127.168 133.902L127.05 135.07ZM130.348 134.211L131.596 135.202L131.523 134.24L130.318 133.366L130.348 134.211ZM107.633 135.106L108.118 136.208L108.852 134.166L108.33 133.263L107.633 135.106ZM135.914 133.755L137.2 134.291L136.876 133.608L135.65 133.146L135.914 133.755ZM138.852 133.696L140.034 134.064L139.594 133.329L138.47 133.021L138.852 133.696ZM132.573 133.351L133.931 134.086L133.77 133.461L132.463 132.823L132.573 133.351ZM141.459 133.219L142.531 133.425L142.01 132.69L140.996 132.536L141.459 133.219ZM134.071 132.639L135.488 133.021L135.29 132.668L133.953 132.286L134.071 132.639ZM136.84 132.639L138.162 132.881L137.853 132.477L136.575 132.272L136.84 132.639ZM132.47 132.184L133.939 132.308L133.865 132.242L132.397 132.117L132.47 132.184ZM131.001 132.264L132.47 132.786L132.433 132.514L130.965 132.037L131.001 132.264ZM135.062 132.169H136.458L136.282 132.029H134.923L135.062 132.169ZM128.93 132.477L130.333 133.366L130.384 132.837L129.018 132.022L128.93 132.477ZM125.993 132.698L127.263 133.924L127.461 133.072L126.22 131.971L125.993 132.698ZM139.3 132.235L140.519 132.338L140.122 131.912L138.955 131.831L139.3 132.235ZM143.706 132.389L144.668 132.455L144.088 131.78H143.192L143.706 132.389ZM121.851 132.771L122.93 134.24L123.334 133.028L122.269 131.714L121.851 132.771ZM137.177 131.552L137.398 131.736L138.698 131.64L138.441 131.457L137.177 131.552ZM127.682 131.354L129.195 132.015L129.364 131.86L127.895 131.236L127.682 131.354ZM96.7858 132.778L97.0796 133.513L97.9241 131.765L97.5789 131.163L96.7858 132.778ZM116.233 132.382L117.077 134.012L117.76 132.433L116.886 131.016L116.233 132.382ZM141.033 131.001L141.444 131.42H142.553L142.091 130.979L141.033 131.001ZM137.596 131.119L137.75 131.177L138.94 130.752L138.756 130.7L137.596 131.119ZM139.175 130.818L139.454 131.038L140.644 130.832L140.328 130.612L139.175 130.818ZM125.39 130.671L125.06 130.957L126.463 132.029L126.778 131.655L125.457 130.7L125.625 130.788H126.044L124.575 130.054L124.142 130.01L125.39 130.671ZM142.825 129.936L143.288 130.362L144.272 130.215L143.772 129.767L142.825 129.936ZM139.212 130.149L139.41 130.252L140.475 129.738L140.262 129.65L139.212 130.149ZM108.734 131.288L109.337 132.933L110.313 131.045L109.645 129.635L108.734 131.288ZM140.849 129.819L141.18 130.061L142.245 129.753L141.885 129.51L140.849 129.819ZM139.226 129.679H139.344L140.225 128.894H140.093L139.226 129.679ZM116.416 129.606L117.386 131.361L118.215 130.377L117.209 128.791L116.416 129.606ZM140.534 128.916L140.761 129.04L141.709 128.453L141.452 128.321L140.534 128.916ZM144.25 128.578L144.749 128.996L145.616 128.747L145.08 128.299L144.25 128.578ZM121.439 128.916L120.845 128.996L121.895 129.966L121.359 130.502L122.578 131.971L123.114 131.31L121.953 130.047L122.166 130.237L122.813 130.098L121.623 129.055L121.718 129.114L122.453 129.371L121.043 128.504L120.308 128.233L121.439 128.916ZM142.208 128.585L142.583 128.849L143.523 128.446L143.126 128.174L142.208 128.585ZM140.255 128.291L140.401 128.372L141.136 127.535L140.974 127.461L140.255 128.291ZM98.9082 128.982L99.2827 130.45L100.517 128.423L100.054 127.182L98.9082 128.982ZM109.689 128.122L110.35 130.083L111.525 128.739L110.791 126.999L109.689 128.122ZM141.577 127.483L141.841 127.652L142.649 126.984L142.37 126.823L141.577 127.483ZM140.034 127.718L140.115 127.777L140.629 126.771L140.541 126.72L140.034 127.718ZM145.366 126.984L145.895 127.388L146.629 127.036L146.071 126.602L145.366 126.984ZM143.295 127.021L143.692 127.3L144.507 126.808L144.088 126.521L143.295 127.021ZM117.334 126.514L116.468 126.323L117.319 127.322L116.446 127.572L117.51 129.209L118.465 128.849L117.569 127.616V127.66L118.612 127.843L117.657 126.712L118.707 127.271L117.437 126.33L116.424 125.765L117.334 126.514ZM141.033 126.624L141.202 126.742L141.812 125.853L141.635 125.736L141.033 126.624ZM110.629 125.677L111.364 127.667L112.693 127.043L111.892 125.2L110.629 125.677ZM142.392 125.838L142.693 126.029L143.361 125.295L143.053 125.097L142.392 125.838ZM140.578 125.934L140.695 126.044L141.07 125.016L140.96 124.913L140.578 125.934ZM144.132 125.332L144.558 125.618L145.241 125.045L144.786 124.752L144.132 125.332ZM140.24 125.244L140.313 125.346L140.475 124.289L140.401 124.193L140.24 125.244ZM100.987 125.567L101.376 127.572L102.933 125.912L102.411 124.149L100.987 125.567ZM141.577 124.869L141.782 125.023L142.259 124.098L142.047 123.936L141.577 124.869ZM142.942 124.017L143.273 124.237L143.809 123.444L143.471 123.217L142.942 124.017ZM86.5116 124.7L86.7099 125.809L88.0832 123.995L87.7821 123.077L86.5116 124.7ZM140.857 124.024L141.004 124.179L141.253 123.143L141.106 122.989L140.857 124.024ZM113.177 123.672L112.032 123.158L112.649 124.164L111.415 124.032L112.193 125.802L113.662 125.868L112.928 124.546L114.338 125.133L113.523 123.966L114.8 124.825L113.787 123.878L112.436 122.952L113.177 123.672ZM144.668 123.444L145.124 123.731L145.682 123.092L145.204 122.783L144.668 123.444ZM140.262 123.195L140.379 123.342V122.299L140.269 122.152L140.262 123.195ZM103.006 122.835L103.373 125.038L105.158 124.113L104.622 122.064L103.006 122.835ZM142.186 122.005L141.863 122.923L142.113 123.121L142.45 122.166L142.252 122.005H142.186ZM105.239 123.04L107.141 122.952L106.619 120.918H104.901L105.239 123.04ZM89.9486 121.388L90.0808 123.246L91.9682 121.417L91.6744 119.794L89.9486 121.388ZM108.029 120.367L106.472 119.787L106.81 121.557L108.764 122.196L108.33 120.786L110.042 121.821L109.55 120.661L111.018 121.814L110.379 120.962L108.705 119.596L109.124 120.242L107.772 119.39L108.029 120.367ZM93.2607 118.634V120.969L95.4639 119.758L95.2436 117.657L93.2607 118.634ZM138.727 117.665L138.903 117.878L138.632 116.996L138.463 116.791L138.727 117.665ZM143.133 117.665L143.596 117.951L143.75 117.077L143.273 116.769L143.133 117.665ZM140.365 117.606L140.673 117.878L140.526 116.842L140.218 116.563L140.365 117.606ZM96.4333 116.636L96.2864 119.053L98.7246 118.759L98.5998 116.49L96.4333 116.636ZM139.028 116.526L139.3 116.791L139.043 115.836L138.778 115.564L139.028 116.526ZM141.268 116.431L141.672 116.732V115.77L141.253 115.454L141.268 116.431ZM101.376 116.108L99.1726 115.447L98.9156 117.569L101.405 118.201V116.659L103.755 117.973V116.578L105.621 118.047V117.018L107.089 118.392L106.95 117.804L104.996 115.924L104.908 116.328L103.55 115.226L103.344 116.064L101.574 115.006L101.376 116.108ZM137.78 115.373L138.007 115.616L137.67 114.771L137.442 114.536L137.78 115.373ZM142.583 115.373L143.104 115.674L143.155 114.793L142.612 114.477L142.583 115.373ZM139.645 115.373L140.02 115.674L139.763 114.639L139.388 114.323L139.645 115.373ZM144.279 114.433L144.903 114.727L145.013 113.941L144.353 113.633L144.279 114.433ZM76.2154 115.036L76.1714 116.504L78.2497 114.808L78.1102 113.53L76.2154 115.036ZM138.118 114.301L138.455 114.595L138.118 113.67L137.78 113.368L138.118 114.301ZM136.649 114.029L136.825 114.228L136.465 113.559L136.289 113.354L136.649 114.029ZM140.614 114.198L141.099 114.521L140.974 113.567L140.475 113.229L140.614 114.198ZM136.685 113.082L136.979 113.346L136.575 112.546L136.282 112.274L136.685 113.082ZM138.749 113.082L139.204 113.412L138.911 112.45L138.455 112.113L138.749 113.082ZM141.9 113.016L142.494 113.332L142.443 112.443L141.834 112.113L141.9 113.016ZM135.422 112.34L135.532 112.494L135.231 112.017L135.114 111.863L135.422 112.34ZM81.0257 112.612L80.7173 114.815L83.3831 113.427L83.4272 111.452L81.0257 112.612ZM143.523 111.944L144.22 112.223V111.43L143.486 111.129L143.523 111.944ZM137.001 111.944L137.42 112.267L137.009 111.371L136.59 111.048L137.001 111.944ZM135.253 111.613L135.481 111.834L135.077 111.202L134.842 110.974L135.253 111.613ZM139.66 111.797L140.225 112.142L140.005 111.202L139.425 110.842L139.66 111.797ZM85.6744 110.754L85.0428 113.28L88.0465 112.788L88.3256 110.424L85.6744 110.754ZM145.461 110.996L146.196 111.217L146.262 110.482L145.469 110.24L145.461 110.996ZM135.305 110.717L135.672 111.011L135.202 110.277L134.835 109.983L135.305 110.717ZM137.589 110.717L138.132 111.07L137.758 110.137L137.207 109.777L137.589 110.717ZM89.1187 112.069L92.2179 112.634L92.7393 110.306L90.0294 109.682L89.1187 112.069ZM140.923 110.556L141.606 110.879L141.466 109.99L140.732 109.652L140.923 110.556ZM147.723 110.262L148.458 110.416L148.531 109.814L147.76 109.638L147.723 110.262ZM92.754 111.231L95.787 112.781L96.3378 111.202L98.8274 113.141L99.5031 111.914L101.317 113.692L101.978 113.023L103.271 114.492L103.777 114.36L101.611 111.936L100.832 111.812L101.39 112.428L99.672 110.688L98.6879 111.114L97.0649 109.792L96.1763 110.71L93.8188 109.41L92.754 111.231ZM150.198 109.696L150.793 109.785L150.837 109.278L150.198 109.182V109.696ZM152.857 109.373H153.268V108.991H152.827L152.857 109.373ZM133.41 108.991L133.608 109.248L133.902 109.506L133.447 108.896L133.41 108.991ZM135.613 109.623L136.12 109.961L135.635 109.102L135.129 108.749L135.613 109.623ZM142.465 109.329L143.236 109.601L143.17 108.8L142.362 108.507L142.465 109.329ZM101.493 111.532L102.345 112.465L100.384 109.638L99.3341 108.448L101.493 111.532ZM138.477 109.373L139.138 109.726L138.83 108.8L138.147 108.433L138.477 109.373ZM133.704 108.353L134.159 108.676L133.63 107.941L133.175 107.633L133.704 108.353ZM144.353 108.191L145.16 108.382V107.647L144.294 107.442L144.353 108.191ZM136.208 108.338L136.847 108.705L136.392 107.794L135.745 107.412L136.208 108.338ZM139.682 108.007L140.416 108.33L140.196 107.449L139.388 107.104L139.682 108.007ZM99.6426 110.1L100.891 110.681L98.6879 107.743L97.1236 106.81L99.6426 110.1ZM146.504 107.288L147.239 107.398V106.781L146.416 106.656L146.504 107.288ZM134.02 107.346L134.629 107.706L134.078 106.869L133.461 106.502L134.02 107.346ZM131.758 106.972L132.14 107.244L131.625 106.656L131.244 106.384L131.758 106.972ZM137.053 107.023L137.824 107.39L137.435 106.465L136.641 106.149L137.053 107.023ZM148.935 106.517H149.567V106.002L148.891 105.966L148.935 106.517ZM141.165 106.722L142.024 106.979L141.885 106.171L140.982 105.885L141.165 106.722ZM151.447 105.547L151.498 105.929H151.917V105.554L151.447 105.547ZM131.868 106.164L132.426 106.509L131.831 105.775L131.28 105.437L131.868 106.164ZM134.57 106.091L135.305 106.472L134.776 105.577L134.042 105.18L134.57 106.091ZM142.957 105.459L143.838 105.621L143.772 104.886L142.825 104.703L142.957 105.459ZM138.176 105.584L139.065 105.907L138.764 105.018L137.838 104.673L138.176 105.584ZM59.8972 105.65L59.8384 106.612L61.6671 105.437L61.579 104.607L59.8972 105.65ZM132.206 105.121L132.94 105.503L132.323 104.688L131.589 104.306L132.206 105.121ZM129.694 104.776L130.179 105.077L129.606 104.512L129.136 104.211L129.694 104.776ZM135.393 104.681L136.289 105.048L135.834 104.137L134.908 103.741L135.393 104.681ZM145.043 104.306L145.873 104.372V103.741L144.962 103.623L145.043 104.306ZM129.856 104.02L130.546 104.379L129.885 103.689L129.209 103.329L129.856 104.02ZM139.608 104.115L140.57 104.365L140.365 103.535L139.344 103.271L139.608 104.115ZM132.756 103.858L133.66 104.247L133.065 103.366L132.154 102.962L132.756 103.858ZM66.1395 103.909L65.6548 105.753L68.5924 104.46L68.798 102.815L66.1395 103.909ZM147.312 102.742L147.393 103.271H148.069V102.742H147.312ZM98.0196 105.54L98.4896 106.45L98.1518 105.87L96.6316 104.042L98.5851 107.405L99.8923 108.925L98.7613 106.935L97.7111 104.512L96.6756 102.492L98.0196 105.54ZM136.494 103.116L137.501 103.439L137.141 102.543L136.076 102.198L136.494 103.116ZM130.223 102.977L131.104 103.366L130.421 102.565L129.54 102.176L130.223 102.977ZM72.4921 102.602L71.4492 105.033L74.9596 104.416L75.5765 102.162L72.4921 102.602ZM127.454 102.676L128.071 103.006L127.439 102.455L126.845 102.132L127.454 102.676ZM82.2081 104.144L85.8801 105.804L86.9376 104.196L90.3011 106.759L91.7699 105.408L94.0832 107.772L95.6916 107.038L97.1603 108.859H98.7026L96.3084 105.863L94.399 105.466L95.0893 106.318L93.0918 104.188L91.131 104.541L89.0306 102.852L87.011 104.056L87.2974 103.616L84.1616 102.051L82.2081 104.144ZM77.0673 104.475L80.7907 104.974L81.8409 102.543L78.6022 101.978L77.0673 104.475ZM149.838 102.029L149.919 102.419L150.367 102.345V101.956L149.838 102.029ZM141.371 102.654L142.355 102.793L142.23 102.059L141.173 101.905L141.371 102.654ZM96.3231 105.488L98.284 106.957L96.2938 103.623L94.0539 101.743L96.3231 105.488ZM133.586 102.367L134.629 102.742L134.1 101.816L133.028 101.427L133.586 102.367ZM127.711 101.963L128.548 102.338L127.814 101.662L126.991 101.295L127.711 101.963ZM130.81 101.677L131.86 102.073L131.207 101.192L130.135 100.788L130.81 101.677ZM137.89 101.501L138.977 101.736L138.705 100.876L137.545 100.627L137.89 101.501ZM143.383 101.273H144.294L144.22 100.612H143.229L143.383 101.273ZM125.06 100.685L125.794 101.045L125.104 100.509L124.37 100.164L125.06 100.685ZM128.071 100.906L129.114 101.295L128.379 100.509L127.344 100.12L128.071 100.906ZM96.2497 103.212L97.8286 105.099L96.4259 102.073L94.6708 99.8703L96.2497 103.212ZM134.614 100.715L135.767 101.038L135.334 100.105L134.115 99.7674L134.614 100.715ZM93.3415 103.652L95.8017 104.732L93.5985 101.148L90.7638 99.5838L93.3415 103.652ZM125.31 99.9804L126.323 100.37L125.589 99.716L124.597 99.3415L125.31 99.9804ZM145.476 99.3856L145.601 99.9363L146.335 99.8629L146.269 99.3121L145.476 99.3856ZM131.523 100.069L132.727 100.443L132.14 99.5031L130.898 99.1138L131.523 100.069ZM139.498 99.7968L140.6 99.907L140.401 99.1212L139.226 98.9963L139.498 99.7968ZM128.585 99.5471L129.804 99.9437L129.07 99.0551L127.821 98.6585L128.585 99.5471ZM122.431 98.8641L123.386 99.2313L122.651 98.7319L121.741 98.3721L122.431 98.8641ZM147.878 98.3868L147.988 98.7907L148.487 98.6585L148.421 98.2546L147.878 98.3868ZM125.692 98.967L126.911 99.3562L126.132 98.6218L124.906 98.2326L125.692 98.967ZM96.6463 100.729L96.9694 102.022L96.6756 101.016L95.5006 98.7319L96.4186 101.67L97.5055 103.755L97.1383 102.536L96.8078 100.333L96.2424 98.1297L96.6463 100.729ZM135.863 98.8715L137.097 99.0918L136.752 98.1885L135.437 97.9535L135.863 98.8715ZM122.747 98.2252L123.951 98.5998L123.143 97.9755L121.968 97.601L122.747 98.2252ZM141.151 97.4908L141.371 98.2252H142.392L142.259 97.5275L141.151 97.4908ZM132.411 98.3427L133.733 98.6512L133.234 97.6818L131.838 97.3513L132.411 98.3427ZM93.5324 100.796L95.8531 102.764L94.3109 99.4003L91.7919 97.0355L93.5324 100.796ZM129.195 98.0049L130.575 98.3648L129.936 97.3953L128.468 97.0135L129.195 98.0049ZM119.603 97.3366L120.756 97.6964L120.022 97.2338L118.92 96.8813L119.603 97.3366ZM126.132 97.6818L127.542 98.0636L126.808 97.1603L125.339 96.7785L126.132 97.6818ZM123.092 97.2852L124.517 97.6524L123.709 96.918L122.291 96.5508L123.092 97.2852ZM137.302 97.0942L138.551 97.1824L138.294 96.3378L136.95 96.235L137.302 97.0942ZM119.971 96.7344L121.381 97.0796L120.565 96.4847L119.192 96.1395L119.971 96.7344ZM143.229 96.1175L143.405 96.705L144.257 96.5728L144.154 95.9853L143.229 96.1175ZM94.3403 99.0551L96.1469 101.332L95.2215 98.3941L93.2901 95.8238L94.3403 99.0551ZM116.688 95.9633L118.061 96.2938L117.327 95.8825L116.012 95.552L116.688 95.9633ZM133.579 96.4333L134.982 96.6389L134.578 95.6769L133.109 95.4492L133.579 96.4333ZM95.2803 98.071L96.4847 100.436L96.0808 97.836L94.825 95.295L95.2803 98.071ZM96.8592 97.2632V99.246L97.1603 97.9241L97.6891 96.8299L98.2693 95.2803L97.4468 96.9621L97.2632 97.4468L97.3072 97.2558L97.3513 95.2509L96.8592 97.2632ZM96.1248 97.5643L96.6977 99.8262L96.7417 97.5422L96.1616 95.1995L96.1248 97.5643ZM130.024 96.0955L131.537 96.3892L130.979 95.3611L129.393 95.0453L130.024 96.0955ZM123.547 95.8751L125.155 96.2277L124.421 95.3023L122.783 94.9425L123.547 95.8751ZM120.382 95.7062L121.998 96.0367L121.197 95.3023L119.581 94.9719L120.382 95.7062ZM126.727 95.9706L128.299 96.3158L127.623 95.295L125.993 94.9351L126.727 95.9706ZM117.121 95.3684L118.737 95.6622L117.951 95.0967L116.372 94.8103L117.121 95.3684ZM145.513 94.8029L145.652 95.2362L146.233 95.0526L146.144 94.612L145.513 94.8029ZM113.677 94.8029L115.256 95.0747L114.521 94.7222L113.001 94.4578L113.677 94.8029ZM138.72 94.4137L139.006 95.1481L140.181 95.0894L139.99 94.355L138.72 94.4137ZM76.0539 95.552L79.9976 98.4308L82.2007 97.0502L85.2044 100.223L87.8629 99.5471L89.6328 101.941L92.3501 102.206L89.8164 98.6805L86.6365 97.9021L87.2974 98.798L85.0428 96.3011L82.1493 96.5214L79.2118 94.2595L76.0539 95.552ZM90.0588 98.2399L93.1726 100.274L91.388 96.4847L87.9584 93.929L90.0588 98.2399ZM99.1946 95.0159L98.563 95.7503L100.091 94.612L100.685 93.9363L99.1946 95.0159ZM114.257 94.2815L116.056 94.4872L115.322 93.9584L113.567 93.7454L114.257 94.2815ZM110.681 94.0245L112.45 94.1861L111.819 93.8996L110.122 93.7381L110.681 94.0245ZM117.628 94.355L119.435 94.612L118.7 93.8776L116.901 93.6132L117.628 94.355ZM98.5337 94.869L97.9315 96.4333L99.1065 95.0379L99.7013 93.5104L98.5337 94.869ZM102.066 93.8556L102 93.9804L103.953 93.5251V93.4223L102.066 93.8556ZM134.952 94.3256L136.377 94.3843L136.054 93.4663L134.512 93.3929L134.952 94.3256ZM107.684 93.5912H109.594L109.109 93.3709H107.28L107.684 93.5912ZM120.903 94.2595L122.703 94.5679L121.968 93.6059L120.14 93.2901L120.903 94.2595ZM104.548 93.4149L104.739 93.5765L106.715 93.3782L106.436 93.224L104.548 93.4149ZM97.4982 94.8323L97.4247 96.8666L98.2472 95.1775L98.3354 93.1359L97.4982 94.8323ZM111.297 93.5985L113.244 93.6793L112.656 93.1726L110.761 93.0918L111.297 93.5985ZM124.135 94.164L125.897 94.4872L125.207 93.4002L123.371 93.0624L124.135 94.164ZM100.979 93.8482L100.583 94.4651L102.345 93.6646L102.698 93.0845L100.979 93.8482ZM131.089 94.0318L132.683 94.2301L132.213 93.1799L130.502 92.9596L131.089 94.0318ZM127.513 94.0318L129.217 94.3182L128.622 93.2093L126.823 92.8935L127.513 94.0318ZM69.7528 94.9204L74.0122 96.6609L76.1126 94.4578L72.4406 92.8201L69.7528 94.9204ZM108.044 92.7173L108.397 93.2166L110.424 93.1285L110.02 92.6438L108.044 92.7173ZM96.2938 94.7001L96.8592 97.1163L97.3146 95.0967L96.7638 92.6218L96.2938 94.7001ZM140.769 92.8127L141.011 93.4517L141.995 93.2534L141.841 92.6144L140.769 92.8127ZM114.771 93.3635L116.732 93.5324L116.071 92.754L114.125 92.5704L114.771 93.3635ZM103.124 93.0551L102.984 93.5985L104.923 93.0551L105.018 92.541L103.124 93.0551ZM91.4908 96.1395L94.0979 98.6144L93.0404 95.3537L90.2644 92.4823L91.4908 96.1395ZM105.444 92.6291L105.562 93.1285L107.589 92.8348L107.42 92.3501L105.444 92.6291ZM99.9951 93.2313L99.3709 94.7589L100.84 93.7087L101.449 92.2399L99.9951 93.2313ZM94.7809 94.6193L96.0514 97.2485V94.8764L94.7809 92.093V94.6193ZM93.1212 95.0012L95.0893 97.6671L94.634 94.8764L92.5998 91.9388L93.1212 95.0012ZM62.9449 94.3109L67.1971 94.7883L68.6658 92.4602L64.9572 91.9168L62.9449 94.3109ZM118.024 92.9302L119.985 93.1799L119.302 92.1591L117.305 91.8947L118.024 92.9302ZM111.812 92.563L113.875 92.6071L113.376 91.7919L111.312 91.7332L111.812 92.563ZM49.1603 92.1958L48.7197 93.5104L51.4223 92.6071L51.6206 91.4174L49.1603 92.1958ZM57.0771 91.8066L55.8727 93.8849L59.7062 93.4002L60.4847 91.4614L57.0771 91.8066ZM101.809 92.1518L101.354 93.4737L103.08 92.7393L103.528 91.4394L101.809 92.1518ZM98.6144 92.7319L98.4896 94.7956L99.6573 93.437L99.8042 91.3807L98.6144 92.7319ZM136.069 91.4394L136.443 92.2766L137.794 92.1738L137.537 91.3366L136.069 91.4394ZM121.381 92.5116L123.327 92.8054L122.659 91.623L120.632 91.3072L121.381 92.5116ZM108.72 91.3293L109.006 92.2252L111.106 92.1151L110.805 91.2411L108.72 91.3293ZM85.7258 95.8017L89.508 97.5055L87.3048 93.4002L83.1114 91.0796L85.7258 95.8017ZM103.917 91.4614L103.704 92.5998L105.628 92.093L105.834 90.9767L103.917 91.4614ZM106.23 91.1897L106.274 92.1885L108.316 91.8947L108.264 90.918L106.23 91.1897ZM142.95 91.1897L143.141 91.6744L143.838 91.4174L143.714 90.918L142.95 91.1897ZM124.796 92.0343L126.698 92.3133L126.073 91.0796L124.061 90.7785L124.796 92.0343ZM115.16 91.9021L117.253 92.0783L116.681 90.9694L114.551 90.7785L115.16 91.9021ZM132.272 91.7479L133.895 91.7993L133.506 90.7785L131.721 90.7271L132.272 91.7479ZM128.379 91.7479L130.208 91.9021L129.679 90.7344L127.748 90.5214L128.379 91.7479ZM96.94 92.1444L97.4541 94.6708L98.2987 92.967L97.8213 90.4039L96.94 92.1444ZM100.164 91.131L99.9804 93.1799L101.449 92.1665L101.662 90.1322L100.164 91.131ZM112.252 91.131L114.404 91.2118L114 89.9853L111.797 89.8825L112.252 91.131ZM118.465 91.131L120.558 91.388L119.949 90.0734L117.745 89.787L118.465 91.131ZM94.9204 91.601L96.1836 94.4651L96.6463 92.3794L95.4272 89.3978L94.9204 91.601ZM109.146 89.2583L109.373 90.683H111.525L111.341 89.2876L109.146 89.2583ZM102.088 89.8752L101.838 91.8874L103.557 91.2264L103.814 89.2583L102.088 89.8752ZM137.927 89.4051L138.242 90.1395L139.41 89.8825L139.197 89.1481L137.927 89.4051ZM106.634 89.0086V90.7271L108.698 90.5508L108.764 88.9351L106.634 89.0086ZM104.306 89.1408L104.027 91.0796L105.951 90.7344L106.274 88.8397L104.306 89.1408ZM121.858 90.2277L123.936 90.4994L123.327 89.1114L121.124 88.8103L121.858 90.2277ZM87.6132 92.9302L91.1016 95.6034L89.8678 91.9315L86.1444 88.7662L87.6132 92.9302ZM98.1297 89.9927L98.5557 92.5777L99.7307 91.1603L99.3635 88.5532L98.1297 89.9927ZM92.6071 91.2852L94.6561 94.3182V91.7919L92.6071 88.5239V91.2852ZM115.52 89.8898L117.723 90.1102L117.231 88.6414L114.933 88.3917L115.52 89.8898ZM133.146 88.3696L133.623 89.3244L135.187 89.1922L134.857 88.2375L133.146 88.3696ZM90.0514 91.5936L92.8641 94.5753L92.3354 91.5202L89.3978 88.1787L90.0514 91.5936ZM125.457 89.5373L127.469 89.7356L126.903 88.399L124.7 88.1714L125.457 89.5373ZM129.356 89.1701L131.214 89.2215L130.744 88.0539L128.732 87.9878L129.356 89.1701ZM112.465 89.06L114.668 89.2362L114.353 87.5178L112.002 87.3048L112.465 89.06ZM99.7087 88.2815L100.024 90.8886L101.493 89.8898L101.258 87.2901L99.7087 88.2815ZM139.909 87.4884L140.166 88.0465L141.033 87.7014L140.857 87.1285L139.909 87.4884ZM118.818 88.6781L121.021 88.9572L120.463 87.3562L118.083 87.0404L118.818 88.6781ZM95.6255 88.8176L96.8078 91.858L97.6891 90.1175L96.5875 86.989L95.6255 88.8176ZM70.9425 86.6144L74.7613 90.705L78.4847 90.1248L80.6879 93.3121L84.661 93.8996L82.0465 89.8825L77.5447 88.6781L78.0147 89.4125L75.481 86.5557L70.9425 86.6144ZM109.52 88.5826L111.723 88.7001L111.635 86.6879L109.322 86.519L109.52 88.5826ZM101.765 87.0551L101.949 89.6402L103.711 89.0086L103.616 86.4529L101.765 87.0551ZM104.122 86.3207L104.181 88.8543L106.142 88.5679L106.179 86.0783L104.122 86.3207ZM106.663 88.5239L108.778 88.5679L108.94 86.1812L106.737 86.071L106.663 88.5239ZM122.365 87.5398L124.568 87.7674L123.995 86.2105L121.601 85.9462L122.365 87.5398ZM134.747 86.0269L135.165 86.8568L136.561 86.5483L136.274 85.7038L134.747 86.0269ZM115.652 87.3782L117.98 87.6646L117.532 85.7919L115.043 85.4541L115.652 87.3782ZM92.6659 87.8262L94.6928 91.1824L95.1995 88.9792L93.224 85.4468L92.6659 87.8262ZM126.191 86.7393L128.284 86.8127L127.755 85.4468L125.471 85.3439L126.191 86.7393ZM142.002 85.6671L142.186 86.0343L142.693 85.7038L142.553 85.3293L142.002 85.6671ZM129.892 85.3586L130.494 86.4676L132.316 86.3354L131.89 85.2264L129.892 85.3586ZM96.896 86.5557L97.9388 89.7062L99.202 88.3329L98.2619 85.1383L96.896 86.5557ZM82.6781 89.4933L87.0845 92.3647L85.6157 88.186L80.8935 84.683L82.6781 89.4933ZM89.4051 87.3415L92.3427 90.8078V88.0465L89.4051 84.2791V87.3415ZM112.531 86.4382L114.889 86.7466L114.61 84.5067L112.083 84.1248L112.531 86.4382ZM119.141 85.7993L121.513 86.0783L120.962 84.235L118.384 83.9045L119.141 85.7993ZM85.9608 87.7895L89.7062 91.1089L89.082 87.6793L85.2118 83.9045L85.9608 87.7895ZM98.6732 84.8519L99.5471 88.0465L101.133 87.0624L100.399 83.8605L98.6732 84.8519ZM63.6206 84.7564L68.0269 87.8629L71.4051 86.2913L67.7332 83.508L63.6206 84.7564ZM136.494 83.8531L136.847 84.5141L137.941 84.0734L137.699 83.3904L136.494 83.8531ZM109.381 85.9829L111.694 86.328L111.65 83.6328L109.16 83.1922L109.381 85.9829ZM100.876 83.6622L101.559 86.8421L103.417 86.2399L102.881 83.0894L100.876 83.6622ZM93.5324 84.9474L95.4419 88.5239L96.3966 86.6952L94.59 82.9792L93.5324 84.9474ZM122.908 84.5802L125.229 84.7124L124.634 83.082L122.093 82.9131L122.908 84.5802ZM103.439 82.9792L103.924 86.1004L105.995 85.8654L105.672 82.8029L103.439 82.9792ZM106.539 85.8066L108.742 85.9241L108.624 82.9865L106.237 82.7883L106.539 85.8066ZM131.236 82.7589L131.787 83.7356L133.461 83.3978L133.08 82.399L131.236 82.7589ZM126.382 82.4725L127.116 83.8091L129.217 83.6989L128.703 82.3696L126.382 82.4725ZM115.792 84.4259L118.274 84.7858L117.804 82.5826L115.102 82.1493L115.792 84.4259ZM138.419 81.6793L138.683 82.1346L139.417 81.6793L139.226 81.1946L138.419 81.6793ZM94.9351 82.5679L96.6683 86.3133L98.0343 84.8886L96.4333 81.0771L94.9351 82.5679ZM55.7038 83.0012L60.4186 84.8372L63.0404 82.7442L58.9792 81.0257L55.7038 83.0012ZM89.5667 83.6402L92.4455 87.5104L93.0037 85.1163L90.1983 81.0184L89.5667 83.6402ZM76.9204 86.1738L82.0612 88.5092L80.1591 83.978L74.6512 80.9302L76.9204 86.1738ZM119.383 82.6487L121.902 82.8764L121.307 80.8641L118.539 80.5704L119.383 82.6487ZM112.377 83.3831L114.903 83.8531L114.588 81.1138L111.834 80.5337L112.377 83.3831ZM96.9107 80.8054L98.3794 84.6096L100.113 83.6181L98.8127 79.7993L96.9107 80.8054ZM122.614 79.6744L123.466 81.3342H125.846L125.244 79.6964L122.614 79.6744ZM132.727 80.1958L133.212 80.9963L134.6 80.4823L134.262 79.6451L132.727 80.1958ZM85.2118 83.082L89.06 86.989V83.9192L85.1971 79.623L85.2118 83.082ZM109.028 82.7148L111.518 83.2656L111.364 79.9608L108.646 79.2705L109.028 82.7148ZM47.4051 81.2901L51.9217 81.8849L53.5887 79.8507L49.6304 79.2264L47.4051 81.2901ZM80.7466 83.6769L85.4982 87.3488L84.7638 83.4566L79.8654 79.2338L80.7466 83.6769ZM127.366 79.5349L128.1 80.7393L130.098 80.4015L129.606 79.1824L127.366 79.5349ZM99.4076 79.5643L100.634 83.3537L102.654 82.7809L101.64 79.0355L99.4076 79.5643ZM102.242 78.9327L103.153 82.6487L105.4 82.4798L104.666 78.8078L102.242 78.9327ZM106.01 82.4211L108.404 82.6267L107.978 79.1457L105.349 78.8225L106.01 82.4211ZM115.755 80.9523L118.428 81.3488L117.878 78.8446L114.94 78.3525L115.755 80.9523ZM90.4994 80.4382L93.224 84.6169L94.2668 82.6487L91.6964 78.3158L90.4994 80.4382ZM40.1126 77.9412L39.011 79.5202L42.6096 79.2705L43.3439 77.8017L40.1126 77.9412ZM134.365 77.6401L134.747 78.235L135.738 77.6401L135.452 77.0012L134.365 77.6401ZM119.574 78.9767L122.225 79.0943L121.557 77.0379L118.619 76.869L119.574 78.9767ZM30.9914 77.2289L30.7271 78.0073L32.6218 77.5447L32.7246 76.8103L30.9914 77.2289ZM111.988 79.623L114.727 80.2326L114.286 77.0893L111.246 76.3549L111.988 79.623ZM92.0637 77.8678L94.5459 82.2301L96.0808 80.7613L93.8188 76.3182L92.0637 77.8678ZM123.136 76.2889L124.017 77.8164L126.375 77.552L125.772 76.0392L123.136 76.2889ZM128.453 76.5312L129.106 77.5373L130.869 76.9792L130.406 75.929L128.453 76.5312ZM85.3293 78.8225L89.1408 83.2289L89.7797 80.5924L86.1077 75.8923L85.3293 78.8225ZM94.3329 75.9731L96.5361 80.4162L98.4676 79.41L96.5581 74.9669L94.3329 75.9731ZM108.286 78.7931L111.026 79.5275L110.629 75.7528L107.581 74.8641L108.286 78.7931ZM136.083 75.3048L136.333 75.6573L136.869 75.1506L136.663 74.754L136.083 75.3048ZM63.1065 78.9767L67.8433 78.5288L70.4578 82.7515L75.6499 83.6475L73.0649 79.2925L67.3293 77.7062L67.6304 78.1909L64.6047 74.7026L59.1187 74.6071L63.1065 78.9767ZM115.52 77.06L118.392 77.4125L117.701 74.7833L114.492 74.328L115.52 77.06ZM97.1603 74.776L98.9816 79.1824L101.229 78.6536L99.6867 74.284L97.1603 74.776ZM79.8433 78.213L84.7197 82.5753V79.1016L79.814 74.284L79.8433 78.213ZM104.982 78.4186L107.633 78.7491L106.898 74.7466L103.961 74.2546L104.982 78.4186ZM101.831 78.5288L104.321 78.448L103.182 74.2399H100.384L101.831 78.5288ZM74.3574 79.153L80.1591 83.1334L79.2264 78.6463L73.2338 73.9755L74.3574 79.153ZM118.707 73.1677L119.772 75.1799L122.49 75.0845L121.755 73.1089L118.707 73.1677ZM86.4382 75.3048L90.0514 80.0783L91.2852 77.9706L87.8776 72.9988L86.4382 75.3048ZM129.767 73.6744L130.326 74.4529L131.692 73.7185L131.288 72.8886L129.767 73.6744ZM123.848 72.94L124.7 74.2987L126.903 73.7699L126.294 72.4186L123.848 72.94ZM111.408 75.459L114.426 76.1273L113.772 72.7491L110.379 71.9266L111.408 75.459ZM88.3476 72.5214L91.6377 77.5153L93.4076 75.9437L90.3966 70.8543L88.3476 72.5214ZM50.1591 71.6108L54.8078 74.8788L58.7883 73.41L54.8592 70.4725L50.1591 71.6108ZM80.0049 73.4541L84.8152 78.4113L85.5496 75.4737L80.8788 70.1567L80.0049 73.4541ZM115.256 72.8372L118.296 73.0428L117.437 70.4504L114.007 70.1567L115.256 72.8372ZM131.163 70.8984L131.574 71.4125L132.448 70.6781L132.125 70.0979L131.163 70.8984ZM107.258 74.3427L110.321 75.2534L109.682 71.06L106.223 69.907L107.258 74.3427ZM90.9694 70.4872L93.8556 75.5618L96.0588 74.5557L93.5324 69.481L90.9694 70.4872ZM67.2485 74.8348L73.5716 77.6842L72.0514 72.9474L65.3978 69.3488L67.2485 74.8348ZM103.476 73.7552L106.465 74.2619L105.371 69.7748L101.985 69.0404L103.476 73.7552ZM118.818 69.3488L119.941 71.1261L122.6 70.7442L121.799 68.9669L118.818 69.3488ZM94.2228 69.2754L96.6683 74.3133L99.2313 73.8507L97.175 68.9009L94.2228 69.2754ZM99.9143 73.7258L102.734 73.7699L101.17 69.0257L97.9388 68.8274L99.9143 73.7258ZM124.678 69.6573L125.464 70.7001L127.315 69.9217L126.742 68.8201L124.678 69.6573ZM73.2705 72.8813L79.2191 77.6989V73.7258L73.2705 68.3427V72.8813ZM132.646 68.328L132.874 68.5851L133.248 68.0637L133.058 67.7625L132.646 68.328ZM110.614 70.8323L113.919 71.4419L112.994 68.0343L109.256 67.2264L110.614 70.8323ZM81.3268 69.4296L85.8801 74.8127L87.3488 72.4994L83.0379 66.9033L81.3268 69.4296ZM40.8543 68.4676L45.6867 70.4357L48.5067 68.6144L44.328 66.8078L40.8543 68.4676ZM113.515 65.8678L114.925 68.3207L118.039 68.2472L117.033 65.8752L113.515 65.8678ZM125.692 66.4774L126.33 67.2117L127.682 66.3011L127.19 65.4712L125.692 66.4774ZM59.4786 70.2595L65.6402 71.3978L63.2534 66.9033L56.5851 65.0526L59.4786 70.2595ZM119.119 65.6548L120.206 67.1236L122.622 66.3892L121.829 64.9204L119.119 65.6548ZM83.6034 66.3892L87.7528 72.0147L89.8237 70.355L86.049 64.634L83.6034 66.3892ZM105.885 69.3635L109.359 70.4651L108.441 65.9927L104.504 64.5753L105.885 69.3635ZM31.3953 65.3758L35.6769 66.1763L37.2338 64.5606L33.437 63.7748L31.3953 65.3758ZM73.5496 67.4174L79.4247 72.918L80.3133 69.6059L74.6438 63.7307L73.5496 67.4174ZM101.567 68.4969L104.982 69.2313L103.572 64.3256L99.6573 63.3195L101.567 68.4969ZM86.7687 64.2889L90.4406 69.9951L93.0184 68.989L89.8605 63.3341L86.7687 64.2889ZM90.6022 63.1212L93.6867 68.754L96.6242 68.3868L94.0318 62.8862L90.6022 63.1212ZM97.4541 68.2619L100.707 68.4749L98.6732 63.2534L94.9131 62.8201L97.4541 68.2619ZM126.83 63.4957L127.271 63.9584L128.049 63.1065L127.689 62.5777L126.83 63.4957ZM109.645 65.8825L113.177 66.2864L111.995 63.0477L107.971 62.4896L109.645 65.8825ZM65.5814 67.2117L72.5655 72.2497L72.4774 67.7111L65.4712 62.0049L65.5814 67.2117ZM22.1126 62.5043H24.9547L25.4688 61.4688L22.8911 61.4027L22.1126 62.5043ZM113.089 61.7258L114.558 63.8042L117.591 63.3709L116.534 61.3513L113.089 61.7258ZM119.567 62.1077L120.529 63.202L122.504 62.2252L121.77 61.0575L119.567 62.1077ZM50.8495 65.2142L56.2619 64.9204L53.0379 60.9767L46.9865 60.727L50.8495 65.2142ZM75.0845 63.011L80.6144 68.989L82.355 66.4333L77.1628 60.213L75.0845 63.011ZM104.291 63.9731L108.147 64.9572L106.825 60.6169L102.419 59.339L104.291 63.9731ZM77.8531 59.6475L82.8911 65.8825L85.3586 64.1273L80.7907 57.8115L77.8531 59.6475ZM108.617 60.7858L112.245 60.8299L110.879 57.951L106.737 57.7968L108.617 60.7858ZM120.206 58.6854L120.94 59.4198L122.313 58.3329L121.726 57.5031L120.206 58.6854ZM99.1138 62.7393L103.058 63.7748L101.354 58.5532L96.8078 57.1652L99.1138 62.7393ZM112.847 57.6793L114.242 59.3097L116.952 58.4945L115.917 56.8201L112.847 57.6793ZM65.8458 60.9474L72.7417 66.9327L73.8213 63.1946L67.153 56.732L65.8458 60.9474ZM57.5031 62.0416L64.6854 65.1481L63.7381 60.4406L56.3574 56.6071L57.5031 62.0416ZM81.6132 57.4884L86.0196 63.7748L89.082 62.8127L85.2264 56.5924L81.6132 57.4884ZM86.1665 56.4088L89.8972 62.5704L93.3929 62.3574L90.2791 56.3794L86.1665 56.4088ZM94.3182 62.284L98.1077 62.7393L95.7356 57.0991L91.3293 56.3648L94.3182 62.284ZM36.94 56.3427L41.4345 59.6989L45.5912 58.5018L41.765 55.4761L36.94 56.3427ZM120.999 55.5496L121.483 55.9755L122.218 54.9914L121.814 54.4847L120.999 55.5496ZM102.514 58.3109L106.671 58.9939L104.989 55.0208L100.208 54.0955L102.514 58.3109ZM105.628 53.2436L107.567 55.6818L111.077 55.2778L109.608 52.8764L105.628 53.2436ZM67.7846 55.9094L74.2913 62.4162L76.3917 59.6034L70.3109 52.8323L67.7846 55.9094ZM112.825 53.7797L114.022 54.9474L116.225 53.8237L115.307 52.5753L112.825 53.7797ZM48.7344 56.2105L55.41 57.481L53.4933 52.9645L46.4872 51.0698L48.7344 56.2105ZM96.2938 56.4896L100.876 57.8262L98.8715 52.5386L93.6206 50.8201L96.2938 56.4896ZM26.7026 51.8996L31.1603 53.9853L33.8189 52.5165L29.9045 50.5777L26.7026 51.8996ZM71.1261 52.2815L77.0012 59.0526L79.9388 57.2166L74.6218 50.3868L71.1261 52.2815ZM57.4443 54.5655L65.0894 59.7062L65.8898 55.4908L58.4284 49.7552L57.4443 54.5655ZM90.6683 55.6597L95.1261 56.4308L92.3794 50.519L87.1873 49.3807L90.6683 55.6597ZM75.6499 50.0343L80.7907 56.8274L84.4627 55.9461L79.9976 49.3366L75.6499 50.0343ZM85.41 55.7552H89.5594L85.9608 49.41L81.0771 49.1457L85.41 55.7552ZM100.524 52.5386L104.783 52.7442L102.881 49.3513L97.9829 48.9694L100.524 52.5386ZM113.009 50.2105L113.905 50.9449L115.373 49.7038L114.639 48.8519L113.009 50.2105ZM104.703 48.8666L106.502 50.7026L109.623 49.8507L108.22 48.0147L104.703 48.8666ZM16.7001 47.7062L20.2326 48.6756L21.4663 47.4786L18.2864 46.5532L16.7001 47.7062ZM113.354 46.9718L113.897 47.3831L114.632 46.2448L114.162 45.7381L113.354 46.9718ZM39.3341 49.9094L44.8421 49.7699L42.0294 45.8409L36.0147 45.4663L39.3341 49.9094ZM93.4443 50.0857L98.3133 50.9155L95.8898 46.3623L90.257 45.1946L93.4443 50.0857ZM59.3758 48.3378L66.8078 55.2852L69.3635 52.2007L62.4602 44.989L59.3758 48.3378ZM96.022 44.0269L98.563 46.825L102.661 46.4871L100.715 43.7772L96.022 44.0269ZM104.1 44.7613L105.569 46.0171L108.051 44.8274L106.876 43.4908L104.1 44.7613ZM7.24847 43.9315L9.03305 44.1591L9.33415 43.5349L7.68176 43.3586L7.24847 43.9315ZM48.7711 48.3378L56.284 51.5031L56.1444 47.0967L48.6242 43.4247L48.7711 48.3378ZM63.459 44.4235L70.1714 51.6132L73.7699 49.7258L67.7846 42.5728L63.459 44.4235ZM86.5043 48.6683L91.7479 49.858L88.7222 43.8213L82.6267 42.1763L86.5043 48.6683ZM68.9302 42.1689L74.7613 49.3366L79.1677 48.6022L74.1591 41.6328L68.9302 42.1689ZM80.2693 48.4553L85.2044 48.7564L81.2093 42.1909L75.4076 41.5447L80.2693 48.4553ZM90.426 43.7258L95.3391 43.9535L92.6952 40.1567L87.0184 39.7087L90.426 43.7258ZM103.77 41.1481L104.849 41.8825L106.494 40.5165L105.621 39.6426L103.77 41.1481ZM25.4394 39.9804L29.295 43.3366L33.1946 42.4186L29.8458 39.3929L25.4394 39.9804ZM94.3623 39.481L96.6683 41.4933L100.289 40.6634L98.4969 38.6512L94.3623 39.481ZM51.0331 41.9486L58.7589 46.7662L60.5875 43.0942L53.2436 37.8654L51.0331 41.9486ZM39.6793 41.6695L46.2889 42.94L45.1285 38.6512L38.3207 36.8152L39.6793 41.6695ZM103.755 37.9976L104.387 38.4235L105.018 37.0649L104.468 36.5288L103.755 37.9976ZM82.4578 41.6695L87.8629 42.1395L84.4113 37.1824L78.0661 36.3672L82.4578 41.6695ZM55.4982 37.366L62.7907 43.4541L66.3892 41.082L59.7797 34.8837L55.4982 37.366ZM74.9009 40.7882L80.328 40.8837L75.9217 34.9425L69.5545 34.5312L74.9009 40.7882ZM103.711 35.2215L104.034 35.4639L103.976 34.634L103.652 34.3403L103.711 35.2215ZM84.1763 34.5532L87.459 37.5496L92.093 37.1603L89.5153 34.2742L84.1763 34.5532ZM93.1506 35.2876L94.9572 36.5802L97.8286 35.3611L96.3599 33.9951L93.1506 35.2876ZM61.8286 34.7883L68.2326 41.3978L73.0722 40.4431L67.5716 34.0098L61.8286 34.7883ZM15.1799 34.6634L18.8519 36.8078L21.0551 35.7209L17.7944 33.7454L15.1799 34.6634ZM42.5141 35.104L49.6964 37.8874L50.5704 33.929L43.5936 30.6683L42.5141 35.104ZM73.8507 30.6095L78.213 34.6047L83.4566 34.3696L79.9461 30.5581L73.8507 30.6095ZM30.2717 34.5532H35.3537L33.2681 30.7931L27.8703 30.3378L30.2717 34.5532ZM92.3941 31.6891L93.6279 32.4235L95.3611 30.8592L94.3403 29.9927L92.3941 31.6891ZM5.55202 29.9559L8.07099 30.9547L8.93023 30.1248L6.63158 29.1848L5.55202 29.9559ZM81.7087 29.7723L84.5581 31.7993L88.6046 30.8886L86.3427 28.8764L81.7087 29.7723ZM63.9364 28.3476L69.4076 33.0331L74.6291 32.3427L70.0318 27.8262L63.9364 28.3476ZM47.7136 30.5508L54.8299 34.612L57.7087 31.623L51.1726 27.3048L47.7136 30.5508ZM91.9021 28.4871L92.6879 28.9939L93.1432 27.6279L92.4088 27.0257L91.9021 28.4871ZM55.0208 28.2668L61.4982 33.011L65.9045 31.2778L60.2277 26.519L55.0208 28.2668ZM91.2852 25.9829L91.7405 26.2766L91.5863 25.5422L91.1383 25.2117L91.2852 25.9829ZM69.9878 25.2117L73.9535 27.9657L78.7197 27.1285L75.4957 24.4406L69.9878 25.2117ZM79.8286 25.623L81.929 26.8348L84.9694 25.366L83.2876 24.1102L79.8286 25.623ZM17.6916 24.1983L20.5777 27.4223L23.8825 26.8054L21.3121 23.8678L17.6916 24.1983ZM33.8482 27.929L39.7821 29.1114L39.6206 25.2485L33.7454 23.6108L33.8482 27.929ZM58.6854 22.3696L63.7234 25.5569L68.4088 24.235L64.1567 21.0845L58.6854 22.3696ZM78.6536 21.951L80.0343 22.7368L81.4296 21.1506L80.2693 20.2766L78.6536 21.951ZM40.0539 23.6328L46.2742 25.9388L48.1983 22.6487L42.3672 20.0122L40.0539 23.6328ZM48.4994 21.7674L54.3745 24.8152L58.0465 22.5459L52.847 19.3586L48.4994 21.7674ZM66.7858 20.4308L69.9143 22.0539L73.8801 20.6732L71.317 19.0061L66.7858 20.4308ZM8.29866 18.7564L10.869 20.8494L12.5067 20.071L10.1787 18.1395L8.29866 18.7564ZM77.5006 18.896L78.4333 19.4174L78.7858 18.3599L77.9119 17.787L77.5006 18.896ZM25.3586 20.7393L29.6401 20.9596L28.5606 17.5594L24.1542 17.0379L25.3586 20.7393ZM54.0881 16.847L58.2301 18.7124L62.1665 16.9718L58.6414 15.033L54.0881 16.847ZM64.6781 16.2375L66.7638 17.2362L68.967 15.4517L67.1824 14.3501L64.6781 16.2375ZM0 14.4455L1.5716 15.3121L2.21053 14.776L0.74174 13.9608L0 14.4455ZM32.8348 16.7882L37.6818 17.8237L38.5924 14.6291L33.9437 13.2925L32.8348 16.7882ZM42.5728 15.4957L47.3611 17.1701L50.1665 14.6879L45.8556 12.8813L42.5728 15.4957ZM62.6438 12.5581L64.1126 13.2485L65.0453 12L63.7087 11.2656L62.6438 12.5581ZM15.3782 11.3023L16.9351 13.9902L19.6965 13.6304L18.2791 11.1628L15.3782 11.3023ZM50.7246 12.1469L53.4565 13.1457L55.7258 10.9425L53.3317 9.79682L50.7246 12.1469ZM61.0061 10.1053L61.9608 10.5239L62.0636 9.93635L61.153 9.50306L61.0061 10.1053ZM25.9608 10.4725L29.3317 10.7442L29.4125 8.04896L26.1004 7.53489L25.9608 10.4725ZM37.3072 9.82619L40.7882 10.6854L42.4333 8.35006L39.224 7.31456L37.3072 9.82619ZM7.82864 6.70502L9.20196 8.3574L10.5459 7.88739L9.2754 6.35251L7.82864 6.70502ZM47.5447 7.74051L49.4982 8.4235L50.5043 6.8519L48.7124 6.1175L47.5447 7.74051ZM44.967 4.6634L46.2228 5.06732L46.4284 4.27417L45.2313 3.83354L44.967 4.6634ZM1.6377 3.60588L2.57772 4.22277L3.14321 3.97307L2.26194 3.40024L1.6377 3.60588ZM19.9976 5.07467H22.0024L21.4517 3.17258L19.3586 3.00367L19.9976 5.07467ZM33.0991 5.07467L35.3023 5.5153L35.6548 3.60588L33.5618 3.03305L33.0991 5.07467ZM29.2876 1.4541L30.6169 1.67442L30.3745 0.616894L29.06 0.337821L29.2876 1.4541ZM14.0343 0L14.7687 1.04284L15.8409 0.976746L15.1065 0H14.0343Z" fill="white"/>
</mask>
<g mask="url(#mask1_1707_15243)">
<path d="M89.9264 -75.5445L-72.4844 60.7344L63.3177 222.577L225.728 86.2981L89.9264 -75.5445Z" fill="url(#paint1_linear_1707_15243)"/>
</g>
<path fill-rule="evenodd" clip-rule="evenodd" d="M149.874 137.252C149.877 136.988 149.827 136.725 149.727 136.481C149.638 136.243 149.5 136.028 149.322 135.848C149.143 135.668 148.928 135.528 148.692 135.438C148.178 135.232 147.604 135.232 147.091 135.438C146.857 135.532 146.645 135.672 146.466 135.849C146.29 136.032 146.151 136.246 146.055 136.481C145.866 136.983 145.866 137.536 146.055 138.038C146.156 138.267 146.295 138.478 146.466 138.662C146.647 138.838 146.859 138.98 147.091 139.081C147.604 139.287 148.178 139.287 148.692 139.081C148.927 138.988 149.14 138.847 149.319 138.668C149.497 138.488 149.636 138.274 149.727 138.038C149.831 137.789 149.881 137.521 149.874 137.252ZM149.059 137.803C149.004 137.961 148.913 138.104 148.794 138.221C148.685 138.341 148.549 138.434 148.398 138.493C148.074 138.618 147.715 138.618 147.392 138.493C147.242 138.43 147.108 138.338 146.995 138.221C146.881 138.1 146.791 137.958 146.731 137.803C146.598 137.45 146.598 137.061 146.731 136.708C146.791 136.553 146.881 136.411 146.995 136.29C147.108 136.173 147.242 136.081 147.392 136.018C147.717 135.9 148.073 135.9 148.398 136.018C148.549 136.077 148.685 136.17 148.794 136.29C148.913 136.407 149.004 136.551 149.059 136.708C149.2 137.06 149.2 137.452 149.059 137.803ZM153.465 137.7V139.169H154.126V137.509C154.134 137.326 154.104 137.144 154.038 136.973C153.986 136.84 153.9 136.724 153.788 136.635C153.682 136.549 153.556 136.49 153.421 136.466C153.271 136.437 153.119 136.422 152.966 136.422C152.817 136.421 152.669 136.438 152.525 136.473C152.373 136.509 152.223 136.556 152.077 136.613C151.983 136.533 151.869 136.48 151.747 136.459C151.607 136.444 151.467 136.444 151.328 136.459C151.163 136.459 150.998 136.474 150.836 136.503C150.63 136.517 150.426 136.551 150.226 136.606V139.198H150.887V137.149H151.321C151.401 137.134 151.483 137.134 151.563 137.149C151.626 137.168 151.684 137.2 151.732 137.245C151.777 137.301 151.809 137.366 151.827 137.436C151.842 137.538 151.842 137.642 151.827 137.744V139.213H152.488V137.744C152.496 137.7 152.496 137.656 152.488 137.612C152.496 137.566 152.496 137.518 152.488 137.472V137.34C152.496 137.311 152.496 137.281 152.488 137.252C152.572 137.216 152.658 137.187 152.745 137.164H153.017C153.088 137.155 153.16 137.162 153.229 137.184C153.297 137.205 153.36 137.241 153.414 137.289C153.514 137.435 153.559 137.612 153.539 137.788M155.786 139.323C155.986 139.322 156.185 139.303 156.381 139.264C156.571 139.232 156.758 139.18 156.939 139.11V137.568C156.947 137.399 156.917 137.231 156.851 137.076C156.802 136.945 156.715 136.832 156.601 136.753C156.491 136.666 156.363 136.603 156.226 136.569C156.072 136.533 155.915 136.516 155.756 136.518C155.579 136.516 155.402 136.534 155.228 136.569C155.087 136.604 154.95 136.651 154.816 136.708L154.736 137.384L154.956 137.296L155.198 137.223L155.441 137.171H155.668C155.819 137.164 155.97 137.192 156.109 137.252C156.165 137.28 156.211 137.325 156.242 137.38C156.272 137.435 156.284 137.498 156.278 137.56H155.764C155.595 137.554 155.427 137.574 155.264 137.619C155.125 137.649 154.993 137.707 154.875 137.788C154.771 137.862 154.684 137.957 154.618 138.067C154.56 138.191 154.529 138.327 154.53 138.464C154.523 138.608 154.559 138.751 154.633 138.875C154.702 138.985 154.795 139.077 154.905 139.147C155.03 139.217 155.167 139.267 155.308 139.294C155.465 139.329 155.625 139.346 155.786 139.345M156.278 138.133V138.669C156.203 138.7 156.124 138.72 156.043 138.728H155.793C155.653 138.729 155.513 138.704 155.382 138.655C155.332 138.633 155.289 138.597 155.259 138.551C155.229 138.506 155.213 138.452 155.213 138.398C155.197 138.359 155.188 138.318 155.188 138.276C155.188 138.235 155.197 138.194 155.213 138.155C155.25 138.111 155.295 138.073 155.345 138.045C155.409 138.021 155.476 138.004 155.543 137.994H155.955L156.168 138.03M157.306 136.562V139.198H157.967V137.149L158.231 137.105H158.466C158.627 137.092 158.787 137.139 158.914 137.237C158.972 137.305 159.014 137.383 159.039 137.468C159.065 137.553 159.072 137.642 159.061 137.729V139.198H159.722V137.538C159.728 137.353 159.696 137.167 159.627 136.995C159.572 136.86 159.48 136.743 159.362 136.657C159.246 136.574 159.113 136.517 158.973 136.488C158.816 136.459 158.656 136.444 158.496 136.444H157.945C157.838 136.437 157.73 136.452 157.629 136.488L157.306 136.54M159.906 135.328L161.206 139.154H162.102L163.401 135.328H162.667L161.69 138.464L160.699 135.335L159.906 135.328ZM163.783 136.341C163.833 136.345 163.882 136.338 163.929 136.321C163.976 136.305 164.019 136.279 164.055 136.246C164.09 136.214 164.118 136.174 164.137 136.131C164.156 136.087 164.166 136.04 164.166 135.992C164.166 135.945 164.156 135.898 164.137 135.854C164.118 135.811 164.09 135.771 164.055 135.739C163.98 135.674 163.883 135.64 163.783 135.644C163.681 135.638 163.581 135.672 163.504 135.739C163.468 135.77 163.44 135.808 163.421 135.851C163.402 135.895 163.393 135.942 163.394 135.989C163.39 136.039 163.399 136.09 163.419 136.136C163.44 136.182 163.471 136.223 163.512 136.253C163.591 136.31 163.686 136.341 163.783 136.341ZM163.453 139.154H164.107V136.496H163.453V139.154ZM165.656 138.567C165.479 138.565 165.304 138.538 165.135 138.486C164.98 138.448 164.833 138.384 164.701 138.295L164.452 138.934C164.532 138.979 164.615 139.018 164.701 139.051C164.797 139.051 164.9 139.11 164.995 139.139L165.318 139.191H165.641C165.82 139.191 165.997 139.169 166.17 139.125C166.308 139.096 166.438 139.038 166.552 138.956C166.646 138.89 166.722 138.802 166.772 138.699C166.842 138.552 166.864 138.387 166.836 138.226C166.809 138.066 166.733 137.918 166.618 137.803C166.391 137.631 166.122 137.525 165.84 137.494H165.634C165.513 137.479 165.396 137.442 165.289 137.384C165.263 137.369 165.241 137.348 165.226 137.322C165.21 137.296 165.202 137.267 165.201 137.237C165.201 137.12 165.333 137.068 165.612 137.068H165.847L166.097 137.112L166.332 137.186L166.537 137.267L166.772 136.657C166.613 136.567 166.439 136.505 166.258 136.473C166.058 136.432 165.853 136.412 165.649 136.415C165.363 136.399 165.079 136.476 164.841 136.635C164.749 136.704 164.674 136.794 164.623 136.897C164.572 137.001 164.546 137.115 164.547 137.23C164.544 137.334 164.564 137.437 164.608 137.531C164.651 137.625 164.716 137.708 164.797 137.773C165.014 137.927 165.267 138.023 165.531 138.052L165.744 138.097C165.864 138.118 165.98 138.155 166.089 138.207C166.12 138.22 166.146 138.243 166.163 138.272C166.18 138.301 166.188 138.335 166.185 138.368C166.185 138.442 166.133 138.493 166.038 138.522C165.925 138.562 165.805 138.58 165.685 138.574M167.588 136.371C167.638 136.374 167.689 136.367 167.737 136.351C167.785 136.335 167.829 136.309 167.867 136.275C167.902 136.243 167.93 136.203 167.948 136.159C167.965 136.114 167.973 136.066 167.969 136.018C167.973 135.971 167.965 135.924 167.948 135.881C167.93 135.838 167.902 135.799 167.867 135.768C167.829 135.735 167.785 135.709 167.737 135.693C167.689 135.676 167.638 135.67 167.588 135.673C167.538 135.67 167.489 135.677 167.442 135.694C167.395 135.71 167.353 135.735 167.316 135.768C167.251 135.836 167.215 135.925 167.215 136.018C167.215 136.111 167.251 136.201 167.316 136.268C167.395 136.325 167.49 136.356 167.588 136.356M167.257 139.169H167.918V136.51H167.257V139.169ZM170.195 139.117C170.362 139.051 170.515 138.951 170.643 138.824C170.779 138.701 170.885 138.547 170.951 138.376C171.063 138.117 171.094 137.829 171.039 137.553C170.984 137.276 170.845 137.022 170.643 136.826C170.513 136.699 170.361 136.597 170.195 136.525C169.828 136.388 169.423 136.388 169.056 136.525C168.888 136.598 168.734 136.7 168.601 136.826C168.474 136.955 168.372 137.107 168.3 137.274C168.223 137.448 168.184 137.635 168.184 137.825C168.184 138.014 168.223 138.202 168.3 138.376C168.366 138.545 168.469 138.698 168.601 138.824C168.733 138.95 168.887 139.049 169.056 139.117C169.236 139.19 169.428 139.227 169.622 139.227C169.818 139.229 170.013 139.192 170.195 139.117ZM169.313 138.522C169.229 138.478 169.15 138.424 169.078 138.361C168.983 138.248 168.919 138.112 168.893 137.966C168.867 137.82 168.88 137.67 168.931 137.531C168.969 137.444 169.018 137.362 169.078 137.289C169.145 137.22 169.225 137.165 169.313 137.127C169.514 137.049 169.737 137.049 169.938 137.127C170.026 137.161 170.104 137.217 170.165 137.289C170.236 137.355 170.289 137.438 170.319 137.531C170.388 137.721 170.388 137.929 170.319 138.119C170.289 138.211 170.236 138.294 170.165 138.361C170.1 138.429 170.023 138.484 169.938 138.522C169.837 138.561 169.73 138.581 169.622 138.581C169.516 138.579 169.412 138.56 169.313 138.522ZM171.362 136.554V139.198H172.023V137.149L172.288 137.105H172.523C172.681 137.092 172.838 137.139 172.963 137.237C173.023 137.303 173.068 137.381 173.095 137.466C173.122 137.551 173.129 137.641 173.118 137.729V139.198H173.778V137.538C173.784 137.355 173.751 137.173 173.683 137.002C173.628 136.867 173.536 136.75 173.419 136.664C173.302 136.582 173.169 136.524 173.029 136.496C172.872 136.466 172.712 136.451 172.552 136.451H172.001L171.678 136.496L171.362 136.547M163.196 111.019C163.01 111.137 162.798 111.205 162.579 111.218V111.732C162.874 111.73 163.165 111.662 163.431 111.533C163.985 111.28 164.436 110.845 164.709 110.3C164.846 110.055 164.917 109.779 164.914 109.499C164.933 109.335 164.913 109.169 164.857 109.014C164.801 108.858 164.71 108.718 164.591 108.603C164.372 108.412 164.089 108.309 163.798 108.317C163.531 108.31 163.271 108.398 163.064 108.567C162.958 108.667 162.876 108.789 162.824 108.925C162.772 109.061 162.751 109.207 162.763 109.352C162.761 109.507 162.793 109.66 162.858 109.8C162.929 109.931 163.021 110.05 163.13 110.153C163.238 110.245 163.354 110.328 163.475 110.402C163.578 110.468 163.693 110.513 163.813 110.535C163.632 110.72 163.43 110.883 163.211 111.019M163.328 109.448C163.326 109.304 163.372 109.165 163.46 109.051C163.502 109.001 163.554 108.96 163.613 108.932C163.672 108.904 163.736 108.889 163.802 108.889C163.867 108.889 163.932 108.904 163.991 108.932C164.05 108.96 164.102 109.001 164.143 109.051C164.235 109.182 164.281 109.339 164.275 109.499C164.276 109.597 164.259 109.694 164.224 109.786C164.186 109.898 164.142 110.009 164.092 110.116C163.899 110.085 163.718 110.007 163.563 109.888C163.494 109.837 163.436 109.771 163.396 109.695C163.355 109.618 163.332 109.534 163.328 109.448ZM188.011 121.022H194.239V111.776H193.064V119.928H187.901C187.642 119.932 187.388 119.864 187.166 119.729C186.925 119.583 186.719 119.385 186.564 119.149C186.386 118.872 186.249 118.57 186.16 118.253C186.058 117.885 186.006 117.504 186.006 117.122V111.768H182.136C181.49 111.753 180.849 111.886 180.263 112.158C179.78 112.395 179.365 112.751 179.059 113.193C178.76 113.641 178.544 114.138 178.42 114.662C178.288 115.175 178.221 115.703 178.222 116.234C178.214 116.845 178.318 117.452 178.53 118.026C178.733 118.504 179.024 118.94 179.389 119.311C179.739 119.653 180.157 119.919 180.616 120.089C181.067 120.267 181.548 120.359 182.033 120.361C182.37 120.362 182.704 120.31 183.024 120.207C183.332 120.11 183.628 119.98 183.906 119.817C184.18 119.68 184.428 119.496 184.64 119.274C184.816 119.072 184.978 118.859 185.125 118.635C185.262 119.332 185.632 119.962 186.175 120.42C186.71 120.849 187.377 121.077 188.062 121.066M182.055 119.252C181.743 119.248 181.435 119.188 181.144 119.076C180.832 118.958 180.547 118.778 180.307 118.547C180.036 118.292 179.823 117.981 179.683 117.636C179.52 117.207 179.441 116.751 179.448 116.292C179.44 115.817 179.507 115.344 179.646 114.89C179.763 114.51 179.947 114.154 180.19 113.839C180.419 113.555 180.71 113.327 181.041 113.171C181.372 113.016 181.734 112.938 182.099 112.944H184.802V116.366C184.819 116.776 184.748 117.185 184.593 117.565C184.439 117.945 184.204 118.287 183.906 118.569C183.656 118.805 183.358 118.982 183.032 119.09C182.714 119.208 182.379 119.267 182.04 119.267M196.772 110.256H196.177V110.638H198.506V110.256H197.536C197.447 110.253 197.359 110.231 197.279 110.194C197.198 110.156 197.126 110.102 197.066 110.035C196.994 109.958 196.938 109.866 196.901 109.767C196.865 109.667 196.848 109.561 196.853 109.455C196.844 109.358 196.854 109.26 196.883 109.166C196.912 109.073 196.959 108.986 197.022 108.912C197.142 108.798 197.301 108.735 197.466 108.735C197.632 108.735 197.791 108.798 197.911 108.912C197.968 108.972 198.013 109.044 198.042 109.122C198.071 109.2 198.084 109.284 198.08 109.367H198.506C198.507 109.229 198.48 109.093 198.426 108.966C198.371 108.84 198.291 108.726 198.19 108.633C197.999 108.465 197.753 108.373 197.499 108.376C197.361 108.369 197.223 108.394 197.096 108.449C196.968 108.503 196.855 108.586 196.765 108.691C196.594 108.898 196.501 109.158 196.501 109.426C196.501 109.593 196.536 109.758 196.603 109.91C196.666 110.031 196.737 110.146 196.816 110.256H196.772ZM199.1 125.678L199.064 125.634C199.889 125.664 200.713 125.532 201.487 125.245C202.163 124.966 202.728 124.473 203.095 123.842C203.563 123.046 203.874 122.169 204.013 121.257C204.226 119.944 204.322 118.614 204.3 117.284C204.313 116.463 204.257 115.642 204.131 114.831C204.043 114.184 203.823 113.561 203.485 113.002C203.196 112.507 202.763 112.113 202.244 111.871C201.621 111.593 200.943 111.46 200.261 111.482C199.576 111.452 198.894 111.593 198.278 111.893C197.772 112.148 197.342 112.53 197.029 113.002C196.716 113.487 196.499 114.029 196.39 114.596C196.273 115.213 196.214 115.84 196.214 116.469C196.209 117.075 196.293 117.679 196.464 118.261C196.619 118.79 196.867 119.288 197.198 119.729C197.542 120.142 197.974 120.473 198.461 120.699C199.025 120.947 199.637 121.067 200.253 121.051H202.794C202.714 121.632 202.558 122.2 202.332 122.74C202.14 123.15 201.85 123.505 201.487 123.776C201.15 124.058 200.749 124.252 200.319 124.341C199.803 124.451 199.276 124.503 198.748 124.496C198.501 124.497 198.255 124.472 198.013 124.422C197.792 124.369 197.578 124.29 197.375 124.187V125.377C197.514 125.436 197.668 125.487 197.845 125.546C198.014 125.599 198.189 125.631 198.366 125.641C198.61 125.67 198.855 125.685 199.1 125.685M197.448 116.535L197.485 116.498C197.484 115.98 197.536 115.463 197.639 114.956C197.729 114.531 197.887 114.124 198.109 113.751C198.327 113.428 198.619 113.161 198.961 112.973C199.36 112.767 199.805 112.666 200.253 112.679C200.681 112.639 201.111 112.724 201.491 112.925C201.871 113.126 202.183 113.434 202.39 113.81C202.867 114.893 203.081 116.073 203.015 117.254C203.015 117.783 203.015 118.268 202.971 118.723C202.927 119.179 202.934 119.597 202.912 119.986H200.231C199.83 120.025 199.425 119.966 199.051 119.814C198.678 119.662 198.347 119.421 198.087 119.112C197.615 118.341 197.392 117.444 197.448 116.542M206.261 124.525V124.51C206.052 124.513 205.845 124.485 205.644 124.429C205.443 124.368 205.246 124.292 205.056 124.202V125.347C205.149 125.426 205.257 125.485 205.372 125.524C205.499 125.588 205.635 125.633 205.776 125.656C206.001 125.697 206.23 125.717 206.459 125.715C206.908 125.731 207.352 125.625 207.744 125.406C208.103 125.179 208.39 124.856 208.574 124.473C208.81 124.013 208.969 123.517 209.044 123.005C209.139 122.388 209.184 121.764 209.176 121.139V111.761H208.038V121.117C208.044 121.655 208.01 122.193 207.935 122.726C207.899 123.092 207.802 123.449 207.649 123.783C207.539 124.033 207.348 124.238 207.105 124.363C206.837 124.488 206.542 124.549 206.246 124.54M121.791 113.355L120.219 111.783L118.611 113.399L120.19 114.963L121.791 113.355ZM125.507 115.103V117.24C125.537 118.232 125.41 119.224 125.132 120.177C124.928 120.918 124.565 121.604 124.067 122.19C123.604 122.706 123.025 123.106 122.378 123.357C120.95 123.847 119.4 123.847 117.972 123.357C117.322 123.107 116.741 122.707 116.275 122.19C115.781 121.602 115.418 120.916 115.211 120.177C114.94 119.222 114.813 118.232 114.836 117.24V115.103H112.633V117.533C112.634 118.524 112.757 119.511 113 120.471C113.243 121.42 113.667 122.312 114.248 123.1C114.855 123.898 115.643 124.54 116.547 124.973C117.679 125.474 118.909 125.712 120.146 125.671C121.383 125.713 122.613 125.475 123.744 124.973C124.649 124.542 125.438 123.9 126.043 123.1C126.638 122.318 127.07 121.424 127.313 120.471C127.57 119.513 127.696 118.525 127.688 117.533V115.103H125.507ZM150.674 121.573C151.547 121.589 152.412 121.403 153.201 121.029C153.928 120.672 154.52 120.09 154.89 119.369C155.068 119.87 155.403 120.301 155.845 120.596C156.269 120.869 156.764 121.012 157.269 121.007H173.808V119.002H169.747C169.401 119.024 169.055 118.961 168.739 118.819C168.423 118.677 168.146 118.46 167.933 118.187C167.498 117.537 167.282 116.765 167.316 115.984C167.271 115.297 167.492 114.618 167.933 114.089C168.147 113.876 168.403 113.709 168.685 113.599C168.967 113.489 169.268 113.439 169.57 113.45C170.073 113.455 170.554 113.658 170.907 114.016C171.091 114.194 171.243 114.403 171.355 114.633C171.431 114.773 171.493 114.92 171.539 115.073H173.639C173.567 114.642 173.447 114.221 173.279 113.817C173.103 113.355 172.839 112.93 172.501 112.569C172.16 112.207 171.74 111.928 171.274 111.754C170.715 111.547 170.122 111.447 169.526 111.46C168.891 111.451 168.258 111.558 167.661 111.776C167.116 111.973 166.617 112.278 166.192 112.672C165.781 113.07 165.463 113.554 165.26 114.089C165.037 114.696 164.925 115.338 164.929 115.984C164.931 116.279 164.971 116.573 165.047 116.858C165.199 117.408 165.421 117.936 165.707 118.429C165.828 118.616 165.963 118.793 166.111 118.958H166.192H157.313C157.063 118.963 156.815 118.924 156.579 118.841C156.364 118.759 156.165 118.64 155.991 118.488C155.802 118.313 155.661 118.094 155.58 117.849C155.47 117.51 155.418 117.155 155.426 116.799C155.442 116.081 155.322 115.366 155.073 114.691C154.871 114.124 154.539 113.611 154.104 113.193C153.67 112.775 153.144 112.463 152.569 112.283C151.313 111.893 149.969 111.893 148.714 112.283C148.149 112.461 147.632 112.765 147.201 113.171C146.766 113.602 146.428 114.12 146.209 114.691C145.964 115.366 145.844 116.081 145.857 116.799C145.865 117.155 145.813 117.51 145.703 117.849C145.624 118.095 145.482 118.315 145.291 118.488C145.122 118.641 144.925 118.761 144.711 118.841C144.475 118.924 144.227 118.963 143.977 118.958H132.226V108.398H130.023V121.014H144.036C144.538 121.021 145.032 120.878 145.453 120.603C145.897 120.31 146.233 119.879 146.408 119.377C146.782 120.094 147.373 120.675 148.097 121.037C148.888 121.41 149.755 121.596 150.63 121.58M150.689 119.693C150.329 119.711 149.97 119.646 149.639 119.503C149.308 119.361 149.014 119.144 148.78 118.87C148.366 118.261 148.145 117.542 148.145 116.806C148.145 116.07 148.366 115.351 148.78 114.743C149.286 114.239 149.971 113.956 150.685 113.956C151.4 113.956 152.085 114.239 152.591 114.743C153.045 115.341 153.274 116.079 153.237 116.828C153.274 117.571 153.045 118.303 152.591 118.892C152.356 119.16 152.061 119.369 151.731 119.504C151.401 119.639 151.045 119.696 150.689 119.671M151.027 127.749C151.245 127.428 151.42 127.08 151.548 126.713C151.674 126.383 151.739 126.032 151.739 125.678C151.747 125.315 151.679 124.955 151.541 124.62C151.414 124.303 151.218 124.017 150.968 123.783C150.705 123.54 150.395 123.352 150.058 123.232C149.673 123.099 149.268 123.034 148.86 123.041C148.529 123.041 148.201 123.101 147.891 123.218C147.571 123.345 147.275 123.526 147.017 123.754C146.725 123.993 146.476 124.281 146.283 124.606C146.099 124.92 145.961 125.259 145.871 125.612H147.34C147.458 125.279 147.655 124.979 147.913 124.738C148.167 124.498 148.504 124.364 148.853 124.363C149.052 124.352 149.252 124.384 149.438 124.456C149.624 124.528 149.793 124.639 149.933 124.782C150.059 124.903 150.159 125.05 150.226 125.211C150.292 125.373 150.325 125.547 150.322 125.722C150.314 125.938 150.262 126.151 150.168 126.346C150.08 126.567 149.967 126.776 149.83 126.97L145.849 132.163V133.323H151.585V131.95H147.781L151.027 127.749ZM173.58 131.663C173.748 131.271 173.831 130.848 173.823 130.422V125.979C173.835 125.548 173.752 125.119 173.58 124.723C173.439 124.377 173.22 124.068 172.941 123.82C172.677 123.575 172.364 123.387 172.023 123.269C171.677 123.136 171.308 123.071 170.936 123.078C170.563 123.072 170.191 123.136 169.842 123.269C169.501 123.39 169.186 123.577 168.917 123.82C168.646 124.076 168.429 124.383 168.278 124.723C168.11 125.12 168.027 125.548 168.036 125.979V130.459C168.031 130.885 168.113 131.307 168.278 131.7C168.429 132.045 168.646 132.357 168.917 132.618C169.186 132.86 169.501 133.047 169.842 133.169C170.191 133.301 170.563 133.366 170.936 133.36C171.308 133.367 171.677 133.302 172.023 133.169C172.364 133.051 172.677 132.863 172.941 132.618C173.221 132.364 173.439 132.05 173.58 131.7M172.038 124.863C172.332 125.19 172.485 125.62 172.464 126.06V130.371C172.483 130.591 172.456 130.813 172.385 131.023C172.315 131.233 172.201 131.426 172.053 131.59C171.91 131.736 171.738 131.85 171.548 131.926C171.359 132.002 171.155 132.038 170.951 132.03C170.747 132.038 170.543 132.002 170.354 131.926C170.164 131.85 169.992 131.736 169.849 131.59C169.704 131.429 169.591 131.242 169.518 131.037C169.445 130.833 169.413 130.617 169.424 130.4V126.052C169.41 125.614 169.562 125.186 169.849 124.855C169.987 124.703 170.156 124.583 170.345 124.503C170.534 124.423 170.739 124.386 170.944 124.393C171.149 124.388 171.354 124.427 171.544 124.507C171.733 124.587 171.904 124.705 172.045 124.855M166.449 133.323V131.729H167.279V130.385H166.449V127.448H165.076V130.385H162.564L165.928 123.041H164.459L160.978 130.686V131.729H165.091V133.323H166.449ZM158.951 131.663C159.119 131.271 159.202 130.848 159.193 130.422V125.979C159.206 125.548 159.123 125.119 158.951 124.723C158.809 124.383 158.597 124.076 158.329 123.823C158.061 123.57 157.742 123.376 157.394 123.254C156.682 122.998 155.903 122.998 155.191 123.254C154.842 123.374 154.522 123.567 154.254 123.821C153.985 124.074 153.774 124.382 153.634 124.723C153.466 125.12 153.383 125.548 153.392 125.979V130.459C153.387 130.885 153.469 131.307 153.634 131.7C153.774 132.042 153.985 132.35 154.253 132.603C154.522 132.856 154.842 133.049 155.191 133.169C155.903 133.426 156.682 133.426 157.394 133.169C157.735 133.051 158.048 132.863 158.312 132.618C158.588 132.361 158.806 132.048 158.951 131.7M157.379 124.863C157.672 125.191 157.828 125.62 157.813 126.06V130.385C157.828 130.605 157.797 130.826 157.722 131.033C157.648 131.24 157.531 131.43 157.379 131.59C157.237 131.735 157.067 131.849 156.879 131.925C156.69 132.001 156.488 132.037 156.285 132.03C156.081 132.038 155.878 132.002 155.688 131.926C155.498 131.85 155.326 131.736 155.184 131.59C154.892 131.264 154.739 130.837 154.758 130.4V126.052C154.744 125.614 154.896 125.186 155.184 124.855C155.325 124.705 155.495 124.587 155.685 124.507C155.875 124.427 156.079 124.388 156.285 124.393C156.49 124.389 156.693 124.429 156.881 124.508C157.07 124.588 157.239 124.706 157.379 124.855M185.94 109.161L185.11 108.354L184.28 109.183L185.11 110.013L185.94 109.161ZM184.28 109.161L183.45 108.354L182.621 109.183L183.45 110.013L184.28 109.161ZM194.217 124.885L193.409 124.055L192.572 124.885L193.409 125.715L194.217 124.885ZM192.557 124.885L191.727 124.055L190.897 124.885L191.749 125.678L192.557 124.885Z" fill="white"/>
<defs>
<linearGradient id="paint0_linear_1707_15243" x1="99.2538" y1="140.889" x2="121.023" y2="109.45" gradientUnits="userSpaceOnUse">
<stop stop-color="#B64D9C"/>
<stop offset="0.37" stop-color="#B64D9C"/>
<stop offset="0.81" stop-color="#7262A9"/>
<stop offset="1" stop-color="#536CAF"/>
</linearGradient>
<linearGradient id="paint1_linear_1707_15243" x1="9.83698" y1="-5.18738" x2="136.424" y2="145.674" gradientUnits="userSpaceOnUse">
<stop stop-color="#B64D9C"/>
<stop offset="0.29" stop-color="#B64D9C"/>
<stop offset="0.32" stop-color="#AA56A0"/>
<stop offset="0.38" stop-color="#8B70A9"/>
<stop offset="0.45" stop-color="#5998B9"/>
<stop offset="0.51" stop-color="#2FBAC6"/>
<stop offset="0.67" stop-color="#1493B7"/>
<stop offset="0.79" stop-color="#2F82B4"/>
<stop offset="0.92" stop-color="#4972B0"/>
<stop offset="1" stop-color="#536CAF"/>
</linearGradient>
</defs>
</svg>
