<svg width="16" height="15" viewBox="0 0 16 15" fill="none" xmlns="http://www.w3.org/2000/svg">
<path fill-rule="evenodd" clip-rule="evenodd" d="M13.7824 14.2042C12.6872 15 11.1248 15 8 15C4.87522 15 3.31284 15 2.21756 14.2042C1.86383 13.9472 1.55276 13.6362 1.29576 13.2824C0.5 12.1872 0.5 10.6248 0.5 7.5C0.5 4.37522 0.500001 2.81284 1.29576 1.71756C1.55276 1.36383 1.86383 1.05276 2.21756 0.795761C3.31284 -5.32718e-07 4.87522 -4.64424e-07 8 -3.27835e-07C11.1248 -1.91247e-07 12.6872 -1.22953e-07 13.7824 0.795762C14.1362 1.05276 14.4472 1.36383 14.7042 1.71756C15.5 2.81284 15.5 4.37522 15.5 7.5C15.5 10.6248 15.5 12.1872 14.7042 13.2824C14.4472 13.6362 14.1362 13.9472 13.7824 14.2042ZM10.8894 7.7267C11.1324 7.48154 11.5281 7.47977 11.7733 7.72276C12.0185 7.96574 12.0202 8.36147 11.7772 8.60663L10.587 9.80758C10.1441 10.2544 9.77482 10.6271 9.44397 10.8928C9.09695 11.1714 8.73224 11.3834 8.28791 11.4401C8.19233 11.4522 8.09616 11.4583 8 11.4583C7.90383 11.4583 7.80767 11.4522 7.71209 11.4401C7.26776 11.3834 6.90306 11.1714 6.55604 10.8928C6.22518 10.6271 5.85586 10.2544 5.41304 9.80758L4.22276 8.60663C3.97977 8.36147 3.98154 7.96574 4.2267 7.72276C4.47187 7.47977 4.86759 7.48154 5.11058 7.7267L6.27545 8.90201C6.75028 9.3811 7.06989 9.70223 7.33874 9.91814C7.35107 9.92804 7.36315 9.93761 7.375 9.94684L7.375 4.16667C7.375 3.82149 7.65482 3.54167 8 3.54167C8.34518 3.54167 8.625 3.82149 8.625 4.16667L8.625 9.94684C8.63685 9.93761 8.64893 9.92804 8.66126 9.91814C8.93012 9.70223 9.24973 9.3811 9.72455 8.90201L10.8894 7.7267Z" fill="#5A4427"/>
</svg>
