<svg width="19" height="18" viewBox="0 0 19 18" fill="none" xmlns="http://www.w3.org/2000/svg">
<path d="M16.5706 16.0731C16.5706 16.4141 16.4351 16.7411 16.194 16.9822C15.9529 17.2234 15.6259 17.3588 15.2849 17.3588H3.71345C3.37246 17.3588 3.04543 17.2234 2.80431 16.9822C2.56319 16.7411 2.42773 16.4141 2.42773 16.0731V1.93025C2.42773 1.58925 2.56319 1.26223 2.80431 1.02111C3.04543 0.77999 3.37246 0.644531 3.71345 0.644531H12.0706L16.5706 5.14453V16.0731Z" stroke="#F4C76C" stroke-linecap="round" stroke-linejoin="round"/>
<path d="M7.31297 4.52043C5.64955 5.01328 12.5851 13.3709 13.3248 11.4584C14.0644 9.54594 4.21483 12.0113 5.83701 13.3709C7.4592 14.7304 8.97639 4.02759 7.31297 4.52043Z" stroke="#F4C76C" stroke-linecap="round" stroke-linejoin="round"/>
</svg>
