<svg width="15" height="16" viewBox="0 0 15 16" fill="none" xmlns="http://www.w3.org/2000/svg">
<path fill-rule="evenodd" clip-rule="evenodd" d="M13.2824 14.4035C12.1872 15.1992 10.6248 15.1992 7.5 15.1992C4.37522 15.1992 2.81284 15.1992 1.71756 14.4035C1.36383 14.1465 1.05276 13.8354 0.795762 13.4817C1.22953e-07 12.3864 1.91247e-07 10.824 3.27835e-07 7.69922C4.64424e-07 4.57444 5.32718e-07 3.01205 0.795763 1.91678C1.05276 1.56305 1.36383 1.25198 1.71756 0.99498C2.81284 0.199218 4.37522 0.199218 7.5 0.199218C10.6248 0.199219 12.1872 0.199219 13.2824 0.994981C13.6362 1.25198 13.9472 1.56305 14.2042 1.91678C15 3.01205 15 4.57444 15 7.69922C15 10.824 15 12.3864 14.2042 13.4817C13.9472 13.8354 13.6362 14.1465 13.2824 14.4035ZM10.3894 7.92592C10.6324 7.68075 11.0281 7.67899 11.2733 7.92198C11.5185 8.16496 11.5202 8.56069 11.2772 8.80585L10.087 10.0068C9.64414 10.4536 9.27482 10.8263 8.94397 11.092C8.59695 11.3707 8.23224 11.5826 7.78791 11.6393C7.69233 11.6515 7.59616 11.6576 7.5 11.6576C7.40383 11.6576 7.30767 11.6515 7.21209 11.6393C6.76776 11.5826 6.40306 11.3707 6.05604 11.092C5.72518 10.8263 5.35586 10.4536 4.91304 10.0068L3.72276 8.80585C3.47977 8.56069 3.48154 8.16496 3.7267 7.92198C3.97187 7.67899 4.36759 7.68076 4.61058 7.92592L5.77545 9.10123C6.25028 9.58032 6.56989 9.90145 6.83874 10.1174C6.85107 10.1273 6.86315 10.1368 6.875 10.1461L6.875 4.36589C6.875 4.02071 7.15482 3.74089 7.5 3.74089C7.84518 3.74089 8.125 4.02071 8.125 4.36589L8.125 10.1461C8.13685 10.1368 8.14893 10.1273 8.16126 10.1174C8.43012 9.90145 8.74973 9.58032 9.22455 9.10123L10.3894 7.92592Z" fill="#F4C76C"/>
</svg>
