<svg width="20" height="20" viewBox="0 0 20 20" fill="none" xmlns="http://www.w3.org/2000/svg">
<path d="M9.58268 17.5003C5.21886 17.5003 1.66602 13.9475 1.66602 9.58366C1.66602 5.21984 5.21886 1.66699 9.58268 1.66699C13.9465 1.66699 17.4993 5.21984 17.4993 9.58366C17.4993 13.9475 13.9465 17.5003 9.58268 17.5003ZM9.58268 2.82553C5.85219 2.82553 2.82455 5.86089 2.82455 9.58366C2.82455 13.3064 5.85219 16.3418 9.58268 16.3418C13.3132 16.3418 16.3408 13.3064 16.3408 9.58366C16.3408 5.86089 13.3132 2.82553 9.58268 2.82553Z" fill="#848484"/>
<path d="M18.3326 18.9585C18.1742 18.9585 18.0159 18.9002 17.8909 18.7752L16.2242 17.1085C15.9826 16.8669 15.9826 16.4669 16.2242 16.2252C16.4659 15.9835 16.8659 15.9835 17.1076 16.2252L18.7742 17.8919C19.0159 18.1335 19.0159 18.5335 18.7742 18.7752C18.6492 18.9002 18.4909 18.9585 18.3326 18.9585Z" fill="#848484"/>
</svg>
