<svg width="21" height="20" viewBox="0 0 21 20" fill="none" xmlns="http://www.w3.org/2000/svg">
<path d="M9.9943 17.5013C5.63048 17.5013 2.07764 13.9485 2.07764 9.58464C2.07764 5.22081 5.63048 1.66797 9.9943 1.66797C14.3581 1.66797 17.911 5.22081 17.911 9.58464C17.911 13.9485 14.3581 17.5013 9.9943 17.5013ZM9.9943 2.82651C6.26382 2.82651 3.23617 5.86187 3.23617 9.58464C3.23617 13.3074 6.26382 16.3428 9.9943 16.3428C13.7248 16.3428 16.7524 13.3074 16.7524 9.58464C16.7524 5.86187 13.7248 2.82651 9.9943 2.82651Z" fill="#9F8555"/>
<path d="M18.7442 18.9576C18.5858 18.9576 18.4275 18.8992 18.3025 18.7742L16.6358 17.1076C16.3942 16.8659 16.3942 16.4659 16.6358 16.2242C16.8775 15.9826 17.2775 15.9826 17.5192 16.2242L19.1858 17.8909C19.4275 18.1326 19.4275 18.5326 19.1858 18.7742C19.0608 18.8992 18.9025 18.9576 18.7442 18.9576Z" fill="#9F8555"/>
</svg>
