<svg width="19" height="25" viewBox="0 0 19 25" fill="none" xmlns="http://www.w3.org/2000/svg">
<path d="M12.0673 6.18837C8.41219 6.18837 5.43547 9.17694 5.43547 12.8466C5.43547 16.5162 8.41219 19.5048 12.0673 19.5048C15.7224 19.5048 18.6991 16.5162 18.6991 12.8466C18.6991 9.16677 15.7224 6.18837 12.0673 6.18837ZM12.0673 18.7525C8.82731 18.7525 6.18472 16.0994 6.18472 12.8466C6.18472 9.59371 8.82731 6.9406 12.0673 6.9406V18.7525ZM12.4318 21.2125V24.4145C12.4318 24.5975 12.29 24.75 12.0977 24.75C11.9053 24.75 11.7635 24.6077 11.7635 24.4145V21.2125C11.7635 21.0295 11.9154 20.8771 12.0977 20.8771C12.29 20.8771 12.4318 21.0295 12.4318 21.2125ZM7.36933 19.2608C7.51108 19.3726 7.55158 19.5759 7.4402 19.7284L5.5671 22.3205C5.50635 22.412 5.4051 22.4527 5.30385 22.4527C5.23298 22.4527 5.17223 22.4323 5.11148 22.3917C4.96973 22.2799 4.92923 22.0766 5.0406 21.9241L6.91371 19.332C7.01496 19.1896 7.21745 19.1591 7.36933 19.2608ZM4.47361 15.1541C4.53436 15.3269 4.43311 15.5098 4.26099 15.5708L1.23364 16.5569C1.20327 16.567 1.16277 16.5772 1.13239 16.5772C0.990644 16.5772 0.869145 16.4857 0.818521 16.3536C0.757772 16.1807 0.859021 15.9978 1.03114 15.9368L4.05849 14.9508C4.23061 14.8898 4.42298 14.9813 4.47361 15.1541ZM4.54448 10.1325C4.49386 10.2748 4.37236 10.3561 4.23061 10.3561C4.20024 10.3561 4.15974 10.3561 4.12936 10.3358L1.10202 9.34975C0.929895 9.28875 0.838771 9.10578 0.889395 8.93297C0.950145 8.76017 1.13239 8.66868 1.30452 8.7195L4.33186 9.70553C4.50398 9.76652 4.59511 9.95966 4.54448 10.1325ZM5.2026 3.44377C5.09123 3.30146 5.13173 3.08799 5.27348 2.97618C5.41522 2.86436 5.62785 2.90502 5.73922 3.04733L7.61233 5.63945C7.7237 5.78177 7.6832 5.99523 7.54145 6.10705C7.4807 6.14771 7.40983 6.16804 7.34908 6.16804C7.24783 6.16804 7.14658 6.11722 7.08583 6.0359L5.2026 3.44377ZM11.9863 4.28748V1.08545C11.9863 0.902478 12.1382 0.75 12.3204 0.75C12.5026 0.75 12.6545 0.892313 12.6545 1.08545V4.28748C12.6545 4.47046 12.5128 4.62294 12.3204 4.62294C12.1382 4.61277 11.9863 4.46029 11.9863 4.28748Z" fill="white"/>
</svg>
