<svg width="18" height="24" viewBox="0 0 18 24" fill="none" xmlns="http://www.w3.org/2000/svg">
<path d="M11.3681 5.43837C7.71297 5.43837 4.73625 8.42694 4.73625 12.0966C4.73625 15.7662 7.71297 18.7548 11.3681 18.7548C15.0231 18.7548 17.9999 15.7662 17.9999 12.0966C17.9999 8.41677 15.0231 5.43837 11.3681 5.43837ZM11.3681 18.0025C8.12809 18.0025 5.4855 15.3494 5.4855 12.0966C5.4855 8.84371 8.12809 6.1906 11.3681 6.1906V18.0025ZM11.7326 20.4625V23.6645C11.7326 23.8475 11.5908 24 11.3984 24C11.2061 24 11.0643 23.8577 11.0643 23.6645V20.4625C11.0643 20.2795 11.2162 20.1271 11.3984 20.1271C11.5908 20.1271 11.7326 20.2795 11.7326 20.4625ZM6.67011 18.5108C6.81186 18.6226 6.85236 18.8259 6.74098 18.9784L4.86788 21.5705C4.80713 21.662 4.70588 21.7027 4.60463 21.7027C4.53376 21.7027 4.47301 21.6823 4.41226 21.6417C4.27051 21.5299 4.23001 21.3266 4.34138 21.1741L6.21449 18.582C6.31574 18.4396 6.51824 18.4091 6.67011 18.5108ZM3.77439 14.4041C3.83514 14.5769 3.73389 14.7598 3.56177 14.8208L0.534423 15.8069C0.504048 15.817 0.463549 15.8272 0.433174 15.8272C0.291426 15.8272 0.169927 15.7357 0.119302 15.6036C0.0585528 15.4307 0.159802 15.2478 0.331925 15.1868L3.35927 14.2008C3.53139 14.1398 3.72377 14.2313 3.77439 14.4041ZM3.84526 9.38247C3.79464 9.52478 3.67314 9.6061 3.53139 9.6061C3.50102 9.6061 3.46052 9.6061 3.43014 9.58577L0.402799 8.59975C0.230676 8.53875 0.139552 8.35578 0.190176 8.18297C0.250926 8.01017 0.433174 7.91868 0.605297 7.9695L3.63264 8.95553C3.80476 9.01652 3.89589 9.20966 3.84526 9.38247ZM4.50338 2.69377C4.39201 2.55146 4.43251 2.33799 4.57426 2.22618C4.71601 2.11436 4.92863 2.15502 5.04 2.29733L6.91311 4.88945C7.02448 5.03177 6.98398 5.24523 6.84223 5.35705C6.78148 5.39771 6.71061 5.41804 6.64986 5.41804C6.54861 5.41804 6.44736 5.36722 6.38661 5.2859L4.50338 2.69377ZM11.2871 3.53748V0.335451C11.2871 0.152478 11.4389 0 11.6212 0C11.8034 0 11.9553 0.142313 11.9553 0.335451V3.53748C11.9553 3.72046 11.8136 3.87294 11.6212 3.87294C11.4389 3.86277 11.2871 3.71029 11.2871 3.53748Z" fill="#F4C76C"/>
</svg>
