<svg width="40" height="40" viewBox="0 0 40 40" fill="none" xmlns="http://www.w3.org/2000/svg">
<circle opacity="0.2" cx="20" cy="20" r="20" fill="white"/>
<g clip-path="url(#clip0_127_2001)">
<path d="M20.0025 10H19.9975C14.4838 10 10 14.485 10 20C10 22.1875 10.705 24.215 11.9037 25.8612L10.6575 29.5763L14.5013 28.3475C16.0825 29.395 17.9688 30 20.0025 30C25.5162 30 30 25.5138 30 20C30 14.4863 25.5162 10 20.0025 10Z" fill="white"/>
<path d="M25.8227 24.1217C25.5814 24.803 24.6239 25.368 23.8602 25.533C23.3377 25.6442 22.6552 25.733 20.3577 24.7805C17.4189 23.563 15.5264 20.5767 15.3789 20.383C15.2377 20.1892 14.1914 18.8017 14.1914 17.3667C14.1914 15.9317 14.9202 15.233 15.2139 14.933C15.4552 14.6867 15.8539 14.5742 16.2364 14.5742C16.3602 14.5742 16.4714 14.5805 16.5714 14.5855C16.8652 14.598 17.0127 14.6155 17.2064 15.0792C17.4477 15.6605 18.0352 17.0955 18.1052 17.243C18.1764 17.3905 18.2477 17.5905 18.1477 17.7842C18.0539 17.9842 17.9714 18.073 17.8239 18.243C17.6764 18.413 17.5364 18.543 17.3889 18.7255C17.2539 18.8842 17.1014 19.0542 17.2714 19.348C17.4414 19.6355 18.0289 20.5942 18.8939 21.3642C20.0102 22.358 20.9152 22.6755 21.2389 22.8105C21.4802 22.9105 21.7677 22.8867 21.9439 22.6992C22.1677 22.458 22.4439 22.058 22.7252 21.6642C22.9252 21.3817 23.1777 21.3467 23.4427 21.4467C23.7127 21.5405 25.1414 22.2467 25.4352 22.393C25.7289 22.5405 25.9227 22.6105 25.9939 22.7342C26.0639 22.858 26.0639 23.4392 25.8227 24.1217Z" fill="#7A6851"/>
</g>
<defs>
<clipPath id="clip0_127_2001">
<rect width="20" height="20" fill="white" transform="translate(10 10)"/>
</clipPath>
</defs>
</svg>
