<svg width="34" height="40" viewBox="0 0 34 40" fill="none" xmlns="http://www.w3.org/2000/svg">
<path d="M23.276 8.20749C22.3649 8.2066 21.4913 7.84426 20.8471 7.20002C20.2028 6.55578 19.8405 5.68225 19.8396 4.77115V0H4.48456C3.29519 0 2.15452 0.47249 1.3135 1.3135C0.47249 2.15452 0 3.29515 0 4.48452V31.5184C0 32.7078 0.47249 33.8484 1.3135 34.6894C2.15452 35.5305 3.29519 36.003 4.48456 36.003H22.916C24.1053 36.003 25.246 35.5305 26.087 34.6894C26.928 33.8484 27.4005 32.7078 27.4005 31.5184V8.20749H23.276Z" fill="#9E8557"/>
<path d="M27.4004 8.20748H23.2759C22.3648 8.2066 21.4912 7.84426 20.847 7.20002C20.2028 6.55578 19.8404 5.68225 19.8395 4.77115V0L27.4004 8.20748Z" fill="white"/>
<path d="M30.6517 28.4336H9.81385C8.33572 28.4336 7.13745 29.6319 7.13745 31.11V37.3227C7.13745 38.8008 8.33572 39.9991 9.81385 39.9991H30.6517C32.1298 39.9991 33.3281 38.8008 33.3281 37.3227V31.11C33.3281 29.6319 32.1298 28.4336 30.6517 28.4336Z" fill="white"/>
<path d="M16.4013 37.0189L15.3464 35.4591L14.4382 37.0189H13.05L14.6515 34.4392L13 32.0078H14.4382L15.4664 33.5176L16.353 32.0078H17.7345L16.1547 34.5309L17.8412 37.0189H16.4013Z" fill="#9E8557"/>
<path d="M26.9991 36.3413C26.8553 36.5715 26.6489 36.7558 26.4042 36.8729C26.1062 37.0125 25.7798 37.0804 25.4509 37.0712C24.9548 37.092 24.4659 36.9472 24.0611 36.6596C23.882 36.5252 23.7356 36.3522 23.6326 36.1534C23.5296 35.9547 23.4727 35.7352 23.4662 35.5114H24.756C24.7652 35.6802 24.8371 35.8395 24.9577 35.958C25.0776 36.0699 25.237 36.1298 25.4009 36.1247C25.4677 36.1286 25.5347 36.1193 25.5979 36.0973C25.6611 36.0752 25.7193 36.0409 25.7693 35.9964C25.8137 35.9532 25.8487 35.9013 25.8719 35.8439C25.8952 35.7866 25.9061 35.7249 25.9042 35.6631C25.9059 35.6043 25.8957 35.5459 25.8742 35.4912C25.8527 35.4365 25.8204 35.3867 25.7792 35.3448C25.691 35.2555 25.5863 35.1842 25.4709 35.1348C25.3498 35.0815 25.1799 35.0164 24.961 34.9398C24.6954 34.8522 24.436 34.747 24.1844 34.6248C23.9777 34.5183 23.8003 34.3627 23.6678 34.1715C23.514 33.9402 23.4381 33.6658 23.4511 33.3883C23.4451 33.1133 23.5243 32.8432 23.6778 32.615C23.8354 32.3921 24.0534 32.2186 24.3061 32.1151C24.5973 31.9966 24.91 31.9399 25.2243 31.9484C25.7015 31.9221 26.1729 32.063 26.5575 32.3467C26.7212 32.4799 26.8553 32.6457 26.9511 32.8337C27.047 33.0217 27.1024 33.2276 27.1141 33.4383H25.8026C25.788 33.2908 25.7246 33.1524 25.6226 33.045C25.5705 32.9951 25.5087 32.9563 25.4411 32.9311C25.3735 32.9059 25.3014 32.8947 25.2293 32.8983C25.1043 32.8927 24.9816 32.933 24.8843 33.0117C24.8395 33.0542 24.8045 33.1061 24.7821 33.1638C24.7596 33.2214 24.7501 33.2833 24.7543 33.345C24.7518 33.457 24.7937 33.5654 24.871 33.6466C24.9539 33.7332 25.0537 33.8019 25.1643 33.8483C25.2826 33.8999 25.4526 33.9666 25.6743 34.0466C25.9447 34.1347 26.2081 34.2427 26.4625 34.3699C26.6703 34.4819 26.8493 34.6405 26.9858 34.8331C27.1413 35.0682 27.2183 35.3465 27.2058 35.6281C27.2035 35.8803 27.132 36.127 26.9991 36.3413Z" fill="#9E8557"/>
<path d="M20.4386 36.0907H22.0617V37.0189H19.2287V32.0078H20.4419L20.4386 36.0907Z" fill="#9E8557"/>
<path d="M19.8126 25.1323H7.59382C6.53559 25.1323 5.67401 24.079 5.67401 22.7825V13.9184C5.67401 12.6236 6.53559 11.5703 7.59382 11.5703H19.8176C20.8741 11.5703 21.7357 12.6236 21.7357 13.9184V22.7825C21.7307 24.079 20.8691 25.1323 19.8126 25.1323ZM7.59382 12.7702C7.07554 12.7702 6.6556 13.2851 6.6556 13.9184V22.7825C6.6556 23.4158 7.07554 23.9307 7.59382 23.9307H19.8176C20.3342 23.9307 20.7541 23.4158 20.7541 22.7825V13.9184C20.7541 13.2851 20.3342 12.7702 19.8176 12.7702H7.59382Z" fill="white"/>
<path d="M21.2411 19.8008H6.16095V21.0023H21.2411V19.8008Z" fill="white"/>
<path d="M21.2411 15.6758H6.16095V16.8773H21.2411V15.6758Z" fill="white"/>
<path d="M17.3773 12.1719H16.1758V24.5323H17.3773V12.1719Z" fill="white"/>
<path d="M11.2242 12.1719H10.0226V24.5323H11.2242V12.1719Z" fill="white"/>
</svg>
