<svg width="34" height="40" viewBox="0 0 34 40" fill="none" xmlns="http://www.w3.org/2000/svg">
<path d="M23.9321 8.20749C23.021 8.2066 22.1475 7.84426 21.5032 7.20002C20.859 6.55578 20.4966 5.68225 20.4958 4.77115V0H5.14069C3.95132 0 2.81065 0.47249 1.96963 1.3135C1.12862 2.15452 0.656128 3.29515 0.656128 4.48452V31.5184C0.656128 32.7078 1.12862 33.8484 1.96963 34.6894C2.81065 35.5305 3.95132 36.003 5.14069 36.003H23.5721C24.7615 36.003 25.9021 35.5305 26.7432 34.6894C27.5842 33.8484 28.0567 32.7078 28.0567 31.5184V8.20749H23.9321Z" fill="#9E8557"/>
<path d="M28.0566 8.20748H23.932C23.0209 8.2066 22.1474 7.84426 21.5031 7.20002C20.8589 6.55578 20.4965 5.68225 20.4957 4.77115V0L28.0566 8.20748Z" fill="white"/>
<path d="M31.3078 28.4336H10.47C8.99185 28.4336 7.79358 29.6319 7.79358 31.11V37.3227C7.79358 38.8008 8.99185 39.9991 10.47 39.9991H31.3078C32.786 39.9991 33.9842 38.8008 33.9842 37.3227V31.11C33.9842 29.6319 32.786 28.4336 31.3078 28.4336Z" fill="white"/>
<path d="M13.2548 35.5586V36.7701H11.9999V35.5586H13.2548Z" fill="#9E8557"/>
<path d="M17.6551 36.769L16.5986 35.2091L15.692 36.769H14.3021L15.9053 34.1892L14.2538 31.7578H15.692L16.7202 33.2677L17.6051 31.7578H18.9883L17.4068 34.2809L19.095 36.769H17.6551Z" fill="#9E8557"/>
<path d="M25.7317 31.793V36.7691H24.5185V33.6628L23.4419 36.7741H22.392L21.3088 33.6561V36.7741H20.0956V31.798H21.5771L22.932 35.2643L24.2568 31.798L25.7317 31.793Z" fill="#9E8557"/>
<path d="M27.9488 35.8407H29.5653V36.769H26.7323V31.7578H27.9455L27.9488 35.8407Z" fill="#9E8557"/>
<path d="M7.60374 17.312C7.60143 17.2403 7.62315 17.1699 7.66542 17.112C7.71598 17.047 7.77674 16.9907 7.84538 16.9453C7.94934 16.8915 8.05682 16.8448 8.16704 16.8053L8.48866 16.672L9.77519 16.1304C9.95406 16.0471 10.2874 15.9082 10.7751 15.7138L11.3867 15.4638L11.6067 15.3855L11.645 15.3688C11.6554 15.3666 11.6662 15.3666 11.6766 15.3688C11.7013 15.3579 11.728 15.3522 11.755 15.3522C11.8066 15.3493 11.8583 15.3568 11.9069 15.3743C11.9556 15.3917 12.0003 15.4188 12.0383 15.4538C12.0706 15.4842 12.0962 15.5209 12.1137 15.5616C12.1312 15.6023 12.1401 15.6461 12.1399 15.6905V16.1137C12.1383 16.1923 12.114 16.2687 12.07 16.3337C12.0236 16.4063 11.9544 16.4614 11.8733 16.4904L9.24526 17.5653L11.8733 18.6401C11.9516 18.6725 12.0195 18.7255 12.07 18.7935C12.1158 18.8557 12.1403 18.9311 12.1399 19.0084V19.4317C12.14 19.4765 12.131 19.5208 12.1135 19.5621C12.0961 19.6033 12.0705 19.6406 12.0383 19.6717C12.0009 19.7078 11.9564 19.7358 11.9076 19.7539C11.8589 19.7719 11.8069 19.7797 11.755 19.7767C11.7282 19.7764 11.7017 19.7713 11.6766 19.7617L11.6067 19.7384L11.3867 19.66L10.7801 19.4134L9.7802 18.9984L8.49367 18.4568L8.17204 18.3235C8.06872 18.2819 7.96037 18.2352 7.85038 18.1819C7.78213 18.15 7.72368 18.1005 7.68117 18.0383C7.63866 17.9762 7.61365 17.9037 7.60875 17.8286L7.60374 17.312Z" fill="white"/>
<path d="M15.4543 20.2275C15.3709 20.2295 15.2885 20.2095 15.2153 20.1694C15.1421 20.1293 15.0809 20.0706 15.0377 19.9992C15.0019 19.9478 14.9733 19.8917 14.9527 19.8325L14.8977 19.6842L13.6979 17.0328L13.6112 16.8362C13.5112 16.6228 13.3179 16.1996 13.0313 15.5663C12.6591 14.7608 12.473 14.3192 12.473 14.2414C12.473 14.1946 12.4837 14.1483 12.5042 14.1062C12.5247 14.064 12.5545 14.0271 12.5913 13.9981C12.6745 13.9278 12.7808 13.891 12.8896 13.8948H13.2796C13.3617 13.8934 13.4428 13.9138 13.5145 13.9539C13.5862 13.994 13.646 14.0524 13.6878 14.1231L13.7745 14.2898L13.8295 14.4381L14.1428 15.128L15.0294 17.0895L15.146 17.3394L15.696 18.5476C15.9068 18.9811 16.0927 19.4262 16.2526 19.8808C16.2523 19.9274 16.2415 19.9733 16.221 20.0152C16.2005 20.057 16.1709 20.0937 16.1342 20.1225C16.0512 20.1929 15.9448 20.2298 15.836 20.2258L15.4543 20.2275Z" fill="white"/>
<path d="M16.9051 19.7827C16.8518 19.7862 16.7985 19.7786 16.7483 19.7606C16.6981 19.7425 16.6522 19.7143 16.6134 19.6777C16.5493 19.6142 16.5128 19.528 16.5117 19.4377V19.0145C16.511 18.9376 16.5343 18.8624 16.5784 18.7995C16.6283 18.7296 16.6979 18.6761 16.7784 18.6462L19.4148 17.5713L16.7784 16.4981C16.6984 16.463 16.6305 16.405 16.5834 16.3314C16.538 16.2682 16.513 16.1926 16.5117 16.1148V15.6848C16.5112 15.6408 16.5198 15.5972 16.537 15.5568C16.5542 15.5163 16.5797 15.4799 16.6118 15.4498C16.6901 15.3794 16.7932 15.3428 16.8984 15.3482C16.9227 15.3478 16.9468 15.3535 16.9684 15.3648C16.9827 15.3623 16.9974 15.3623 17.0117 15.3648L17.0467 15.3815C17.0367 15.3815 17.1067 15.4015 17.2583 15.4598L17.8783 15.7098C17.8461 15.6954 18.1794 15.8342 18.8782 16.1264C19.2593 16.2831 19.6959 16.4686 20.188 16.683L20.313 16.7297L20.493 16.8014C20.5991 16.839 20.7017 16.8859 20.7996 16.9413C20.8696 16.9733 20.9294 17.024 20.9724 17.0878C21.0153 17.1516 21.0398 17.2261 21.043 17.303V17.8196C21.0415 17.8904 21.0182 17.9591 20.9763 18.0162C20.9298 18.0809 20.8694 18.1344 20.7996 18.1729C20.7046 18.2195 20.593 18.2695 20.4663 18.3229L20.133 18.4562L17.23 19.6711C17.1467 19.7127 17.0967 19.7394 17.0817 19.7494L17.05 19.7727L16.9051 19.7827Z" fill="white"/>
</svg>
