<svg width="41" height="41" viewBox="0 0 41 41" fill="none" xmlns="http://www.w3.org/2000/svg">
<circle cx="20.5" cy="20.2778" r="20" fill="#7A6640"/>
<path fill-rule="evenodd" clip-rule="evenodd" d="M27.8253 13.4283C28.682 13.659 29.3574 14.3344 29.5881 15.1911C30.0164 16.7562 29.9999 20.0181 29.9999 20.0181C29.9999 20.0181 29.9999 23.2635 29.5881 24.8286C29.3574 25.6853 28.682 26.3607 27.8253 26.5914C26.2602 27.0032 20 27.0032 20 27.0032C20 27.0032 13.7562 27.0032 12.1746 26.5749C11.318 26.3443 10.6425 25.6688 10.4119 24.8121C10 23.2635 10 20.0016 10 20.0016C10 20.0016 10 16.7562 10.4119 15.1911C10.6425 14.3344 11.3344 13.6425 12.1746 13.4119C13.7397 13 20 13 20 13C20 13 26.2602 13 27.8253 13.4283ZM23.2118 20.0022L18.0059 23.0006V17.0039L23.2118 20.0022Z" fill="white"/>
</svg>
